<svg width="350" height="383" viewBox="0 0 350 383" fill="none" xmlns="http://www.w3.org/2000/svg">
<mask id="mask0_5340_6116" style="mask-type:luminance" maskUnits="userSpaceOnUse" x="0" y="0" width="350" height="383">
<rect width="350" height="383" fill="white"/>
</mask>
<g mask="url(#mask0_5340_6116)">
<rect width="350" height="383" fill="#18191B"/>
</g>
<g clip-path="url(#clip0_5340_6116)">
<g clip-path="url(#clip1_5340_6116)">
<rect x="24" y="333" width="302" height="6" rx="3" fill="white"/>
<rect x="24" y="333" width="302" height="6" rx="3" fill="white"/>
<mask id="mask1_5340_6116" style="mask-type:luminance" maskUnits="userSpaceOnUse" x="24" y="333" width="302" height="6">
<rect x="24" y="333" width="302" height="6" rx="3" fill="white"/>
</mask>
<g mask="url(#mask1_5340_6116)">
<g opacity="0.5">
<rect x="24" y="333" width="302" height="6" fill="#E8E9EB"/>
</g>
</g>
<g clip-path="url(#clip2_5340_6116)">
<mask id="mask2_5340_6116" style="mask-type:luminance" maskUnits="userSpaceOnUse" x="24" y="333" width="31" height="6">
<rect x="24" y="333" width="31" height="6" rx="3" fill="white"/>
</mask>
<g mask="url(#mask2_5340_6116)">
<rect x="24" y="333" width="31" height="6" fill="#49C96D"/>
</g>
</g>
</g>
<path d="M31.335 315.675H26.775L25.935 318H24.495L28.275 307.605H29.85L33.615 318H32.175L31.335 315.675ZM30.945 314.565L29.055 309.285L27.165 314.565H30.945ZM39.2674 309.63C40.2674 309.63 41.0774 309.935 41.6974 310.545C42.3174 311.145 42.6274 312.015 42.6274 313.155V318H41.2774V313.35C41.2774 312.53 41.0724 311.905 40.6624 311.475C40.2524 311.035 39.6924 310.815 38.9824 310.815C38.2624 310.815 37.6874 311.04 37.2574 311.49C36.8374 311.94 36.6274 312.595 36.6274 313.455V318H35.2624V309.78H36.6274V310.95C36.8974 310.53 37.2624 310.205 37.7224 309.975C38.1924 309.745 38.7074 309.63 39.2674 309.63ZM44.3471 313.86C44.3471 313.02 44.5171 312.285 44.8571 311.655C45.1971 311.015 45.6621 310.52 46.2521 310.17C46.8521 309.82 47.5221 309.645 48.2621 309.645C48.9021 309.645 49.4971 309.795 50.0471 310.095C50.5971 310.385 51.0171 310.77 51.3071 311.25V306.9H52.6871V318H51.3071V316.455C51.0371 316.945 50.6371 317.35 50.1071 317.67C49.5771 317.98 48.9571 318.135 48.2471 318.135C47.5171 318.135 46.8521 317.955 46.2521 317.595C45.6621 317.235 45.1971 316.73 44.8571 316.08C44.5171 315.43 44.3471 314.69 44.3471 313.86ZM51.3071 313.875C51.3071 313.255 51.1821 312.715 50.9321 312.255C50.6821 311.795 50.3421 311.445 49.9121 311.205C49.4921 310.955 49.0271 310.83 48.5171 310.83C48.0071 310.83 47.5421 310.95 47.1221 311.19C46.7021 311.43 46.3671 311.78 46.1171 312.24C45.8671 312.7 45.7421 313.24 45.7421 313.86C45.7421 314.49 45.8671 315.04 46.1171 315.51C46.3671 315.97 46.7021 316.325 47.1221 316.575C47.5421 316.815 48.0071 316.935 48.5171 316.935C49.0271 316.935 49.4921 316.815 49.9121 316.575C50.3421 316.325 50.6821 315.97 50.9321 315.51C51.1821 315.04 51.3071 314.495 51.3071 313.875ZM56.3589 311.115C56.5989 310.645 56.9389 310.28 57.3789 310.02C57.8289 309.76 58.3739 309.63 59.0139 309.63V311.04H58.6539C57.1239 311.04 56.3589 311.87 56.3589 313.53V318H54.9939V309.78H56.3589V311.115ZM64.1746 318.135C63.4046 318.135 62.7046 317.96 62.0746 317.61C61.4546 317.26 60.9646 316.765 60.6046 316.125C60.2546 315.475 60.0796 314.725 60.0796 313.875C60.0796 313.035 60.2596 312.295 60.6196 311.655C60.9896 311.005 61.4896 310.51 62.1196 310.17C62.7496 309.82 63.4546 309.645 64.2346 309.645C65.0146 309.645 65.7196 309.82 66.3496 310.17C66.9796 310.51 67.4746 311 67.8346 311.64C68.2046 312.28 68.3896 313.025 68.3896 313.875C68.3896 314.725 68.1996 315.475 67.8196 316.125C67.4496 316.765 66.9446 317.26 66.3046 317.61C65.6646 317.96 64.9546 318.135 64.1746 318.135ZM64.1746 316.935C64.6646 316.935 65.1246 316.82 65.5546 316.59C65.9846 316.36 66.3296 316.015 66.5896 315.555C66.8596 315.095 66.9946 314.535 66.9946 313.875C66.9946 313.215 66.8646 312.655 66.6046 312.195C66.3446 311.735 66.0046 311.395 65.5846 311.175C65.1646 310.945 64.7096 310.83 64.2196 310.83C63.7196 310.83 63.2596 310.945 62.8396 311.175C62.4296 311.395 62.0996 311.735 61.8496 312.195C61.5996 312.655 61.4746 313.215 61.4746 313.875C61.4746 314.545 61.5946 315.11 61.8346 315.57C62.0846 316.03 62.4146 316.375 62.8246 316.605C63.2346 316.825 63.6846 316.935 64.1746 316.935ZM70.8893 308.445C70.6293 308.445 70.4093 308.355 70.2293 308.175C70.0493 307.995 69.9593 307.775 69.9593 307.515C69.9593 307.255 70.0493 307.035 70.2293 306.855C70.4093 306.675 70.6293 306.585 70.8893 306.585C71.1393 306.585 71.3493 306.675 71.5193 306.855C71.6993 307.035 71.7893 307.255 71.7893 307.515C71.7893 307.775 71.6993 307.995 71.5193 308.175C71.3493 308.355 71.1393 308.445 70.8893 308.445ZM71.5493 309.78V318H70.1843V309.78H71.5493ZM73.3657 313.86C73.3657 313.02 73.5357 312.285 73.8757 311.655C74.2157 311.015 74.6807 310.52 75.2707 310.17C75.8707 309.82 76.5407 309.645 77.2807 309.645C77.9207 309.645 78.5157 309.795 79.0657 310.095C79.6157 310.385 80.0357 310.77 80.3257 311.25V306.9H81.7057V318H80.3257V316.455C80.0557 316.945 79.6557 317.35 79.1257 317.67C78.5957 317.98 77.9757 318.135 77.2657 318.135C76.5357 318.135 75.8707 317.955 75.2707 317.595C74.6807 317.235 74.2157 316.73 73.8757 316.08C73.5357 315.43 73.3657 314.69 73.3657 313.86ZM80.3257 313.875C80.3257 313.255 80.2007 312.715 79.9507 312.255C79.7007 311.795 79.3607 311.445 78.9307 311.205C78.5107 310.955 78.0457 310.83 77.5357 310.83C77.0257 310.83 76.5607 310.95 76.1407 311.19C75.7207 311.43 75.3857 311.78 75.1357 312.24C74.8857 312.7 74.7607 313.24 74.7607 313.86C74.7607 314.49 74.8857 315.04 75.1357 315.51C75.3857 315.97 75.7207 316.325 76.1407 316.575C76.5607 316.815 77.0257 316.935 77.5357 316.935C78.0457 316.935 78.5107 316.815 78.9307 316.575C79.3607 316.325 79.7007 315.97 79.9507 315.51C80.2007 315.04 80.3257 314.495 80.3257 313.875ZM94.1914 315.675H89.6314L88.7914 318H87.3514L91.1314 307.605H92.7064L96.4714 318H95.0314L94.1914 315.675ZM93.8014 314.565L91.9114 309.285L90.0214 314.565H93.8014ZM99.4839 311.295C99.7539 310.825 100.154 310.435 100.684 310.125C101.224 309.805 101.849 309.645 102.559 309.645C103.289 309.645 103.949 309.82 104.539 310.17C105.139 310.52 105.609 311.015 105.949 311.655C106.289 312.285 106.459 313.02 106.459 313.86C106.459 314.69 106.289 315.43 105.949 316.08C105.609 316.73 105.139 317.235 104.539 317.595C103.949 317.955 103.289 318.135 102.559 318.135C101.859 318.135 101.239 317.98 100.699 317.67C100.169 317.35 99.7639 316.955 99.4839 316.485V321.9H98.1189V309.78H99.4839V311.295ZM105.064 313.86C105.064 313.24 104.939 312.7 104.689 312.24C104.439 311.78 104.099 311.43 103.669 311.19C103.249 310.95 102.784 310.83 102.274 310.83C101.774 310.83 101.309 310.955 100.879 311.205C100.459 311.445 100.119 311.8 99.8589 312.27C99.6089 312.73 99.4839 313.265 99.4839 313.875C99.4839 314.495 99.6089 315.04 99.8589 315.51C100.119 315.97 100.459 316.325 100.879 316.575C101.309 316.815 101.774 316.935 102.274 316.935C102.784 316.935 103.249 316.815 103.669 316.575C104.099 316.325 104.439 315.97 104.689 315.51C104.939 315.04 105.064 314.49 105.064 313.86ZM109.621 311.295C109.891 310.825 110.291 310.435 110.821 310.125C111.361 309.805 111.986 309.645 112.696 309.645C113.426 309.645 114.086 309.82 114.676 310.17C115.276 310.52 115.746 311.015 116.086 311.655C116.426 312.285 116.596 313.02 116.596 313.86C116.596 314.69 116.426 315.43 116.086 316.08C115.746 316.73 115.276 317.235 114.676 317.595C114.086 317.955 113.426 318.135 112.696 318.135C111.996 318.135 111.376 317.98 110.836 317.67C110.306 317.35 109.901 316.955 109.621 316.485V321.9H108.256V309.78H109.621V311.295ZM115.201 313.86C115.201 313.24 115.076 312.7 114.826 312.24C114.576 311.78 114.236 311.43 113.806 311.19C113.386 310.95 112.921 310.83 112.411 310.83C111.911 310.83 111.446 310.955 111.016 311.205C110.596 311.445 110.256 311.8 109.996 312.27C109.746 312.73 109.621 313.265 109.621 313.875C109.621 314.495 109.746 315.04 109.996 315.51C110.256 315.97 110.596 316.325 111.016 316.575C111.446 316.815 111.911 316.935 112.411 316.935C112.921 316.935 113.386 316.815 113.806 316.575C114.236 316.325 114.576 315.97 114.826 315.51C115.076 315.04 115.201 314.49 115.201 313.86ZM121.302 318.135C120.672 318.135 120.107 318.03 119.607 317.82C119.107 317.6 118.712 317.3 118.422 316.92C118.132 316.53 117.972 316.085 117.942 315.585H119.352C119.392 315.995 119.582 316.33 119.922 316.59C120.272 316.85 120.727 316.98 121.287 316.98C121.807 316.98 122.217 316.865 122.517 316.635C122.817 316.405 122.967 316.115 122.967 315.765C122.967 315.405 122.807 315.14 122.487 314.97C122.167 314.79 121.672 314.615 121.002 314.445C120.392 314.285 119.892 314.125 119.502 313.965C119.122 313.795 118.792 313.55 118.512 313.23C118.242 312.9 118.107 312.47 118.107 311.94C118.107 311.52 118.232 311.135 118.482 310.785C118.732 310.435 119.087 310.16 119.547 309.96C120.007 309.75 120.532 309.645 121.122 309.645C122.032 309.645 122.767 309.875 123.327 310.335C123.887 310.795 124.187 311.425 124.227 312.225H122.862C122.832 311.795 122.657 311.45 122.337 311.19C122.027 310.93 121.607 310.8 121.077 310.8C120.587 310.8 120.197 310.905 119.907 311.115C119.617 311.325 119.472 311.6 119.472 311.94C119.472 312.21 119.557 312.435 119.727 312.615C119.907 312.785 120.127 312.925 120.387 313.035C120.657 313.135 121.027 313.25 121.497 313.38C122.087 313.54 122.567 313.7 122.937 313.86C123.307 314.01 123.622 314.24 123.882 314.55C124.152 314.86 124.292 315.265 124.302 315.765C124.302 316.215 124.177 316.62 123.927 316.98C123.677 317.34 123.322 317.625 122.862 317.835C122.412 318.035 121.892 318.135 121.302 318.135Z" fill="#E6E6E6"/>
<path d="M308.703 316.905C309.973 315.885 310.968 315.05 311.688 314.4C312.408 313.74 313.013 313.055 313.503 312.345C314.003 311.625 314.253 310.92 314.253 310.23C314.253 309.58 314.093 309.07 313.773 308.7C313.463 308.32 312.958 308.13 312.258 308.13C311.578 308.13 311.048 308.345 310.668 308.775C310.298 309.195 310.098 309.76 310.068 310.47H308.748C308.788 309.35 309.128 308.485 309.768 307.875C310.408 307.265 311.233 306.96 312.243 306.96C313.273 306.96 314.088 307.245 314.688 307.815C315.298 308.385 315.603 309.17 315.603 310.17C315.603 311 315.353 311.81 314.853 312.6C314.363 313.38 313.803 314.07 313.173 314.67C312.543 315.26 311.738 315.95 310.758 316.74H315.918V317.88H308.703V316.905ZM317.166 315.585V314.55L322.431 307.26H324.066V314.4H325.566V315.585H324.066V318H322.716V315.585H317.166ZM322.776 308.685L318.741 314.4H322.776V308.685Z" fill="#E6E6E6"/>
</g>
<g clip-path="url(#clip3_5340_6116)">
<g clip-path="url(#clip4_5340_6116)">
<rect x="24" y="266" width="302" height="6" rx="3" fill="white"/>
<rect x="24" y="266" width="302" height="6" rx="3" fill="white"/>
<mask id="mask3_5340_6116" style="mask-type:luminance" maskUnits="userSpaceOnUse" x="24" y="266" width="302" height="6">
<rect x="24" y="266" width="302" height="6" rx="3" fill="white"/>
</mask>
<g mask="url(#mask3_5340_6116)">
<g opacity="0.5">
<rect x="24" y="266" width="302" height="6" fill="#E8E9EB"/>
</g>
</g>
<g clip-path="url(#clip5_5340_6116)">
<mask id="mask4_5340_6116" style="mask-type:luminance" maskUnits="userSpaceOnUse" x="24" y="266" width="185" height="6">
<rect x="24" y="266" width="185" height="6" rx="3" fill="white"/>
</mask>
<g mask="url(#mask4_5340_6116)">
<rect x="24" y="266" width="185" height="6" fill="#FFD240"/>
</g>
</g>
</g>
<path d="M25.86 241.445C25.6 241.445 25.38 241.355 25.2 241.175C25.02 240.995 24.93 240.775 24.93 240.515C24.93 240.255 25.02 240.035 25.2 239.855C25.38 239.675 25.6 239.585 25.86 239.585C26.11 239.585 26.32 239.675 26.49 239.855C26.67 240.035 26.76 240.255 26.76 240.515C26.76 240.775 26.67 240.995 26.49 241.175C26.32 241.355 26.11 241.445 25.86 241.445ZM26.52 242.78V251H25.155V242.78H26.52ZM33.5864 251.105C32.6164 251.105 31.7314 250.88 30.9314 250.43C30.1314 249.97 29.4964 249.335 29.0264 248.525C28.5664 247.705 28.3364 246.785 28.3364 245.765C28.3364 244.745 28.5664 243.83 29.0264 243.02C29.4964 242.2 30.1314 241.565 30.9314 241.115C31.7314 240.655 32.6164 240.425 33.5864 240.425C34.5664 240.425 35.4564 240.655 36.2564 241.115C37.0564 241.565 37.6864 242.195 38.1464 243.005C38.6064 243.815 38.8364 244.735 38.8364 245.765C38.8364 246.795 38.6064 247.715 38.1464 248.525C37.6864 249.335 37.0564 249.97 36.2564 250.43C35.4564 250.88 34.5664 251.105 33.5864 251.105ZM33.5864 249.92C34.3164 249.92 34.9714 249.75 35.5514 249.41C36.1414 249.07 36.6014 248.585 36.9314 247.955C37.2714 247.325 37.4414 246.595 37.4414 245.765C37.4414 244.925 37.2714 244.195 36.9314 243.575C36.6014 242.945 36.1464 242.46 35.5664 242.12C34.9864 241.78 34.3264 241.61 33.5864 241.61C32.8464 241.61 32.1864 241.78 31.6064 242.12C31.0264 242.46 30.5664 242.945 30.2264 243.575C29.8964 244.195 29.7314 244.925 29.7314 245.765C29.7314 246.595 29.8964 247.325 30.2264 247.955C30.5664 248.585 31.0264 249.07 31.6064 249.41C32.1964 249.75 32.8564 249.92 33.5864 249.92ZM43.9534 251.105C43.2634 251.105 42.6434 250.985 42.0934 250.745C41.5534 250.495 41.1284 250.155 40.8184 249.725C40.5084 249.285 40.3484 248.78 40.3384 248.21H41.7934C41.8434 248.7 42.0434 249.115 42.3934 249.455C42.7534 249.785 43.2734 249.95 43.9534 249.95C44.6034 249.95 45.1134 249.79 45.4834 249.47C45.8634 249.14 46.0534 248.72 46.0534 248.21C46.0534 247.81 45.9434 247.485 45.7234 247.235C45.5034 246.985 45.2284 246.795 44.8984 246.665C44.5684 246.535 44.1234 246.395 43.5634 246.245C42.8734 246.065 42.3184 245.885 41.8984 245.705C41.4884 245.525 41.1334 245.245 40.8334 244.865C40.5434 244.475 40.3984 243.955 40.3984 243.305C40.3984 242.735 40.5434 242.23 40.8334 241.79C41.1234 241.35 41.5284 241.01 42.0484 240.77C42.5784 240.53 43.1834 240.41 43.8634 240.41C44.8434 240.41 45.6434 240.655 46.2634 241.145C46.8934 241.635 47.2484 242.285 47.3284 243.095H45.8284C45.7784 242.695 45.5684 242.345 45.1984 242.045C44.8284 241.735 44.3384 241.58 43.7284 241.58C43.1584 241.58 42.6934 241.73 42.3334 242.03C41.9734 242.32 41.7934 242.73 41.7934 243.26C41.7934 243.64 41.8984 243.95 42.1084 244.19C42.3284 244.43 42.5934 244.615 42.9034 244.745C43.2234 244.865 43.6684 245.005 44.2384 245.165C44.9284 245.355 45.4834 245.545 45.9034 245.735C46.3234 245.915 46.6834 246.2 46.9834 246.59C47.2834 246.97 47.4334 247.49 47.4334 248.15C47.4334 248.66 47.2984 249.14 47.0284 249.59C46.7584 250.04 46.3584 250.405 45.8284 250.685C45.2984 250.965 44.6734 251.105 43.9534 251.105ZM59.6211 248.675H55.0611L54.2211 251H52.7811L56.5611 240.605H58.1361L61.9011 251H60.4611L59.6211 248.675ZM59.2311 247.565L57.3411 242.285L55.4511 247.565H59.2311ZM64.9136 244.295C65.1836 243.825 65.5836 243.435 66.1136 243.125C66.6536 242.805 67.2786 242.645 67.9886 242.645C68.7186 242.645 69.3786 242.82 69.9686 243.17C70.5686 243.52 71.0386 244.015 71.3786 244.655C71.7186 245.285 71.8886 246.02 71.8886 246.86C71.8886 247.69 71.7186 248.43 71.3786 249.08C71.0386 249.73 70.5686 250.235 69.9686 250.595C69.3786 250.955 68.7186 251.135 67.9886 251.135C67.2886 251.135 66.6686 250.98 66.1286 250.67C65.5986 250.35 65.1936 249.955 64.9136 249.485V254.9H63.5486V242.78H64.9136V244.295ZM70.4936 246.86C70.4936 246.24 70.3686 245.7 70.1186 245.24C69.8686 244.78 69.5286 244.43 69.0986 244.19C68.6786 243.95 68.2136 243.83 67.7036 243.83C67.2036 243.83 66.7386 243.955 66.3086 244.205C65.8886 244.445 65.5486 244.8 65.2886 245.27C65.0386 245.73 64.9136 246.265 64.9136 246.875C64.9136 247.495 65.0386 248.04 65.2886 248.51C65.5486 248.97 65.8886 249.325 66.3086 249.575C66.7386 249.815 67.2036 249.935 67.7036 249.935C68.2136 249.935 68.6786 249.815 69.0986 249.575C69.5286 249.325 69.8686 248.97 70.1186 248.51C70.3686 248.04 70.4936 247.49 70.4936 246.86ZM75.0503 244.295C75.3203 243.825 75.7203 243.435 76.2503 243.125C76.7903 242.805 77.4153 242.645 78.1253 242.645C78.8553 242.645 79.5153 242.82 80.1053 243.17C80.7053 243.52 81.1753 244.015 81.5153 244.655C81.8553 245.285 82.0253 246.02 82.0253 246.86C82.0253 247.69 81.8553 248.43 81.5153 249.08C81.1753 249.73 80.7053 250.235 80.1053 250.595C79.5153 250.955 78.8553 251.135 78.1253 251.135C77.4253 251.135 76.8053 250.98 76.2653 250.67C75.7353 250.35 75.3303 249.955 75.0503 249.485V254.9H73.6853V242.78H75.0503V244.295ZM80.6303 246.86C80.6303 246.24 80.5053 245.7 80.2553 245.24C80.0053 244.78 79.6653 244.43 79.2353 244.19C78.8153 243.95 78.3503 243.83 77.8403 243.83C77.3403 243.83 76.8753 243.955 76.4453 244.205C76.0253 244.445 75.6853 244.8 75.4253 245.27C75.1753 245.73 75.0503 246.265 75.0503 246.875C75.0503 247.495 75.1753 248.04 75.4253 248.51C75.6853 248.97 76.0253 249.325 76.4453 249.575C76.8753 249.815 77.3403 249.935 77.8403 249.935C78.3503 249.935 78.8153 249.815 79.2353 249.575C79.6653 249.325 80.0053 248.97 80.2553 248.51C80.5053 248.04 80.6303 247.49 80.6303 246.86ZM86.732 251.135C86.102 251.135 85.537 251.03 85.037 250.82C84.537 250.6 84.142 250.3 83.852 249.92C83.562 249.53 83.402 249.085 83.372 248.585H84.782C84.822 248.995 85.012 249.33 85.352 249.59C85.702 249.85 86.157 249.98 86.717 249.98C87.237 249.98 87.647 249.865 87.947 249.635C88.247 249.405 88.397 249.115 88.397 248.765C88.397 248.405 88.237 248.14 87.917 247.97C87.597 247.79 87.102 247.615 86.432 247.445C85.822 247.285 85.322 247.125 84.932 246.965C84.552 246.795 84.222 246.55 83.942 246.23C83.672 245.9 83.537 245.47 83.537 244.94C83.537 244.52 83.662 244.135 83.912 243.785C84.162 243.435 84.517 243.16 84.977 242.96C85.437 242.75 85.962 242.645 86.552 242.645C87.462 242.645 88.197 242.875 88.757 243.335C89.317 243.795 89.617 244.425 89.657 245.225H88.292C88.262 244.795 88.087 244.45 87.767 244.19C87.457 243.93 87.037 243.8 86.507 243.8C86.017 243.8 85.627 243.905 85.337 244.115C85.047 244.325 84.902 244.6 84.902 244.94C84.902 245.21 84.987 245.435 85.157 245.615C85.337 245.785 85.557 245.925 85.817 246.035C86.087 246.135 86.457 246.25 86.927 246.38C87.517 246.54 87.997 246.7 88.367 246.86C88.737 247.01 89.052 247.24 89.312 247.55C89.582 247.86 89.722 248.265 89.732 248.765C89.732 249.215 89.607 249.62 89.357 249.98C89.107 250.34 88.752 250.625 88.292 250.835C87.842 251.035 87.322 251.135 86.732 251.135Z" fill="#E6E6E6"/>
<path d="M302.927 241.4V240.155H305.747V251H304.367V241.4H302.927ZM308.092 245.465C308.092 243.745 308.372 242.405 308.932 241.445C309.492 240.475 310.472 239.99 311.872 239.99C313.262 239.99 314.237 240.475 314.797 241.445C315.357 242.405 315.637 243.745 315.637 245.465C315.637 247.215 315.357 248.575 314.797 249.545C314.237 250.515 313.262 251 311.872 251C310.472 251 309.492 250.515 308.932 249.545C308.372 248.575 308.092 247.215 308.092 245.465ZM314.287 245.465C314.287 244.595 314.227 243.86 314.107 243.26C313.997 242.65 313.762 242.16 313.402 241.79C313.052 241.42 312.542 241.235 311.872 241.235C311.192 241.235 310.672 241.42 310.312 241.79C309.962 242.16 309.727 242.65 309.607 243.26C309.497 243.86 309.442 244.595 309.442 245.465C309.442 246.365 309.497 247.12 309.607 247.73C309.727 248.34 309.962 248.83 310.312 249.2C310.672 249.57 311.192 249.755 311.872 249.755C312.542 249.755 313.052 249.57 313.402 249.2C313.762 248.83 313.997 248.34 314.107 247.73C314.227 247.12 314.287 246.365 314.287 245.465ZM317.511 245.465C317.511 243.745 317.791 242.405 318.351 241.445C318.911 240.475 319.891 239.99 321.291 239.99C322.681 239.99 323.656 240.475 324.216 241.445C324.776 242.405 325.056 243.745 325.056 245.465C325.056 247.215 324.776 248.575 324.216 249.545C323.656 250.515 322.681 251 321.291 251C319.891 251 318.911 250.515 318.351 249.545C317.791 248.575 317.511 247.215 317.511 245.465ZM323.706 245.465C323.706 244.595 323.646 243.86 323.526 243.26C323.416 242.65 323.181 242.16 322.821 241.79C322.471 241.42 321.961 241.235 321.291 241.235C320.611 241.235 320.091 241.42 319.731 241.79C319.381 242.16 319.146 242.65 319.026 243.26C318.916 243.86 318.861 244.595 318.861 245.465C318.861 246.365 318.916 247.12 319.026 247.73C319.146 248.34 319.381 248.83 319.731 249.2C320.091 249.57 320.611 249.755 321.291 249.755C321.961 249.755 322.471 249.57 322.821 249.2C323.181 248.83 323.416 248.34 323.526 247.73C323.646 247.12 323.706 246.365 323.706 245.465Z" fill="#E6E6E6"/>
</g>
<g clip-path="url(#clip6_5340_6116)">
<g clip-path="url(#clip7_5340_6116)">
<rect x="24" y="199" width="302" height="6" rx="3" fill="white"/>
<rect x="24" y="199" width="302" height="6" rx="3" fill="white"/>
<mask id="mask5_5340_6116" style="mask-type:luminance" maskUnits="userSpaceOnUse" x="24" y="199" width="302" height="6">
<rect x="24" y="199" width="302" height="6" rx="3" fill="white"/>
</mask>
<g mask="url(#mask5_5340_6116)">
<g opacity="0.5">
<rect x="24" y="199" width="302" height="6" fill="#E8E9EB"/>
</g>
</g>
<g clip-path="url(#clip8_5340_6116)">
<mask id="mask6_5340_6116" style="mask-type:luminance" maskUnits="userSpaceOnUse" x="24" y="199" width="200" height="6">
<rect x="24" y="199" width="200" height="6" rx="3" fill="white"/>
</mask>
<g mask="url(#mask6_5340_6116)">
<rect x="24" y="199" width="200" height="6" fill="#FF965D"/>
</g>
</g>
</g>
<path d="M33.075 176.575C32.785 175.965 32.365 175.495 31.815 175.165C31.265 174.825 30.625 174.655 29.895 174.655C29.165 174.655 28.505 174.825 27.915 175.165C27.335 175.495 26.875 175.975 26.535 176.605C26.205 177.225 26.04 177.945 26.04 178.765C26.04 179.585 26.205 180.305 26.535 180.925C26.875 181.545 27.335 182.025 27.915 182.365C28.505 182.695 29.165 182.86 29.895 182.86C30.915 182.86 31.755 182.555 32.415 181.945C33.075 181.335 33.46 180.51 33.57 179.47H29.4V178.36H35.025V179.41C34.945 180.27 34.675 181.06 34.215 181.78C33.755 182.49 33.15 183.055 32.4 183.475C31.65 183.885 30.815 184.09 29.895 184.09C28.925 184.09 28.04 183.865 27.24 183.415C26.44 182.955 25.805 182.32 25.335 181.51C24.875 180.7 24.645 179.785 24.645 178.765C24.645 177.745 24.875 176.83 25.335 176.02C25.805 175.2 26.44 174.565 27.24 174.115C28.04 173.655 28.925 173.425 29.895 173.425C31.005 173.425 31.985 173.7 32.835 174.25C33.695 174.8 34.32 175.575 34.71 176.575H33.075ZM38.1948 177.115C38.4348 176.645 38.7748 176.28 39.2148 176.02C39.6648 175.76 40.2098 175.63 40.8498 175.63V177.04H40.4898C38.9598 177.04 38.1948 177.87 38.1948 179.53V184H36.8298V175.78H38.1948V177.115ZM41.9155 179.86C41.9155 179.02 42.0855 178.285 42.4255 177.655C42.7655 177.015 43.2305 176.52 43.8205 176.17C44.4205 175.82 45.0855 175.645 45.8155 175.645C46.5355 175.645 47.1605 175.8 47.6905 176.11C48.2205 176.42 48.6155 176.81 48.8755 177.28V175.78H50.2555V184H48.8755V182.47C48.6055 182.95 48.2005 183.35 47.6605 183.67C47.1305 183.98 46.5105 184.135 45.8005 184.135C45.0705 184.135 44.4105 183.955 43.8205 183.595C43.2305 183.235 42.7655 182.73 42.4255 182.08C42.0855 181.43 41.9155 180.69 41.9155 179.86ZM48.8755 179.875C48.8755 179.255 48.7505 178.715 48.5005 178.255C48.2505 177.795 47.9105 177.445 47.4805 177.205C47.0605 176.955 46.5955 176.83 46.0855 176.83C45.5755 176.83 45.1105 176.95 44.6905 177.19C44.2705 177.43 43.9355 177.78 43.6855 178.24C43.4355 178.7 43.3105 179.24 43.3105 179.86C43.3105 180.49 43.4355 181.04 43.6855 181.51C43.9355 181.97 44.2705 182.325 44.6905 182.575C45.1105 182.815 45.5755 182.935 46.0855 182.935C46.5955 182.935 47.0605 182.815 47.4805 182.575C47.9105 182.325 48.2505 181.97 48.5005 181.51C48.7505 181.04 48.8755 180.495 48.8755 179.875ZM53.9272 177.295C54.1972 176.825 54.5972 176.435 55.1272 176.125C55.6672 175.805 56.2922 175.645 57.0022 175.645C57.7322 175.645 58.3922 175.82 58.9822 176.17C59.5822 176.52 60.0522 177.015 60.3922 177.655C60.7322 178.285 60.9022 179.02 60.9022 179.86C60.9022 180.69 60.7322 181.43 60.3922 182.08C60.0522 182.73 59.5822 183.235 58.9822 183.595C58.3922 183.955 57.7322 184.135 57.0022 184.135C56.3022 184.135 55.6822 183.98 55.1422 183.67C54.6122 183.35 54.2072 182.955 53.9272 182.485V187.9H52.5622V175.78H53.9272V177.295ZM59.5072 179.86C59.5072 179.24 59.3822 178.7 59.1322 178.24C58.8822 177.78 58.5422 177.43 58.1122 177.19C57.6922 176.95 57.2272 176.83 56.7172 176.83C56.2172 176.83 55.7522 176.955 55.3222 177.205C54.9022 177.445 54.5622 177.8 54.3022 178.27C54.0522 178.73 53.9272 179.265 53.9272 179.875C53.9272 180.495 54.0522 181.04 54.3022 181.51C54.5622 181.97 54.9022 182.325 55.3222 182.575C55.7522 182.815 56.2172 182.935 56.7172 182.935C57.2272 182.935 57.6922 182.815 58.1122 182.575C58.5422 182.325 58.8822 181.97 59.1322 181.51C59.3822 181.04 59.5072 180.49 59.5072 179.86ZM66.7789 175.63C67.3989 175.63 67.9589 175.765 68.4589 176.035C68.9589 176.295 69.3489 176.69 69.6289 177.22C69.9189 177.75 70.0639 178.395 70.0639 179.155V184H68.7139V179.35C68.7139 178.53 68.5089 177.905 68.0989 177.475C67.6889 177.035 67.1289 176.815 66.4189 176.815C65.6989 176.815 65.1239 177.04 64.6939 177.49C64.2739 177.94 64.0639 178.595 64.0639 179.455V184H62.6989V172.9H64.0639V176.95C64.3339 176.53 64.7039 176.205 65.1739 175.975C65.6539 175.745 66.1889 175.63 66.7789 175.63ZM72.9987 174.445C72.7387 174.445 72.5187 174.355 72.3387 174.175C72.1587 173.995 72.0687 173.775 72.0687 173.515C72.0687 173.255 72.1587 173.035 72.3387 172.855C72.5187 172.675 72.7387 172.585 72.9987 172.585C73.2487 172.585 73.4587 172.675 73.6287 172.855C73.8087 173.035 73.8987 173.255 73.8987 173.515C73.8987 173.775 73.8087 173.995 73.6287 174.175C73.4587 174.355 73.2487 174.445 72.9987 174.445ZM73.6587 175.78V184H72.2937V175.78H73.6587ZM75.4751 179.875C75.4751 179.025 75.6451 178.285 75.9851 177.655C76.3251 177.015 76.7951 176.52 77.3951 176.17C78.0051 175.82 78.7001 175.645 79.4801 175.645C80.4901 175.645 81.3201 175.89 81.9701 176.38C82.6301 176.87 83.0651 177.55 83.2751 178.42H81.8051C81.6651 177.92 81.3901 177.525 80.9801 177.235C80.5801 176.945 80.0801 176.8 79.4801 176.8C78.7001 176.8 78.0701 177.07 77.5901 177.61C77.1101 178.14 76.8701 178.895 76.8701 179.875C76.8701 180.865 77.1101 181.63 77.5901 182.17C78.0701 182.71 78.7001 182.98 79.4801 182.98C80.0801 182.98 80.5801 182.84 80.9801 182.56C81.3801 182.28 81.6551 181.88 81.8051 181.36H83.2751C83.0551 182.2 82.6151 182.875 81.9551 183.385C81.2951 183.885 80.4701 184.135 79.4801 184.135C78.7001 184.135 78.0051 183.96 77.3951 183.61C76.7951 183.26 76.3251 182.765 75.9851 182.125C75.6451 181.485 75.4751 180.735 75.4751 179.875ZM92.3504 173.545C93.4904 173.545 94.4754 173.76 95.3054 174.19C96.1454 174.61 96.7854 175.215 97.2254 176.005C97.6754 176.795 97.9004 177.725 97.9004 178.795C97.9004 179.865 97.6754 180.795 97.2254 181.585C96.7854 182.365 96.1454 182.965 95.3054 183.385C94.4754 183.795 93.4904 184 92.3504 184H89.0954V173.545H92.3504ZM92.3504 182.875C93.7004 182.875 94.7304 182.52 95.4404 181.81C96.1504 181.09 96.5054 180.085 96.5054 178.795C96.5054 177.495 96.1454 176.48 95.4254 175.75C94.7154 175.02 93.6904 174.655 92.3504 174.655H90.4604V182.875H92.3504ZM107.201 179.575C107.201 179.835 107.186 180.11 107.156 180.4H100.586C100.636 181.21 100.911 181.845 101.411 182.305C101.921 182.755 102.536 182.98 103.256 182.98C103.846 182.98 104.336 182.845 104.726 182.575C105.126 182.295 105.406 181.925 105.566 181.465H107.036C106.816 182.255 106.376 182.9 105.716 183.4C105.056 183.89 104.236 184.135 103.256 184.135C102.476 184.135 101.776 183.96 101.156 183.61C100.546 183.26 100.066 182.765 99.7159 182.125C99.3659 181.475 99.1909 180.725 99.1909 179.875C99.1909 179.025 99.3609 178.28 99.7009 177.64C100.041 177 100.516 176.51 101.126 176.17C101.746 175.82 102.456 175.645 103.256 175.645C104.036 175.645 104.726 175.815 105.326 176.155C105.926 176.495 106.386 176.965 106.706 177.565C107.036 178.155 107.201 178.825 107.201 179.575ZM105.791 179.29C105.791 178.77 105.676 178.325 105.446 177.955C105.216 177.575 104.901 177.29 104.501 177.1C104.111 176.9 103.676 176.8 103.196 176.8C102.506 176.8 101.916 177.02 101.426 177.46C100.946 177.9 100.671 178.51 100.601 179.29H105.791ZM111.913 184.135C111.283 184.135 110.718 184.03 110.218 183.82C109.718 183.6 109.323 183.3 109.033 182.92C108.743 182.53 108.583 182.085 108.553 181.585H109.963C110.003 181.995 110.193 182.33 110.533 182.59C110.883 182.85 111.338 182.98 111.898 182.98C112.418 182.98 112.828 182.865 113.128 182.635C113.428 182.405 113.578 182.115 113.578 181.765C113.578 181.405 113.418 181.14 113.098 180.97C112.778 180.79 112.283 180.615 111.613 180.445C111.003 180.285 110.503 180.125 110.113 179.965C109.733 179.795 109.403 179.55 109.123 179.23C108.853 178.9 108.718 178.47 108.718 177.94C108.718 177.52 108.843 177.135 109.093 176.785C109.343 176.435 109.698 176.16 110.158 175.96C110.618 175.75 111.143 175.645 111.733 175.645C112.643 175.645 113.378 175.875 113.938 176.335C114.498 176.795 114.798 177.425 114.838 178.225H113.473C113.443 177.795 113.268 177.45 112.948 177.19C112.638 176.93 112.218 176.8 111.688 176.8C111.198 176.8 110.808 176.905 110.518 177.115C110.228 177.325 110.083 177.6 110.083 177.94C110.083 178.21 110.168 178.435 110.338 178.615C110.518 178.785 110.738 178.925 110.998 179.035C111.268 179.135 111.638 179.25 112.108 179.38C112.698 179.54 113.178 179.7 113.548 179.86C113.918 180.01 114.233 180.24 114.493 180.55C114.763 180.86 114.903 181.265 114.913 181.765C114.913 182.215 114.788 182.62 114.538 182.98C114.288 183.34 113.933 183.625 113.473 183.835C113.023 184.035 112.503 184.135 111.913 184.135ZM117.545 174.445C117.285 174.445 117.065 174.355 116.885 174.175C116.705 173.995 116.615 173.775 116.615 173.515C116.615 173.255 116.705 173.035 116.885 172.855C117.065 172.675 117.285 172.585 117.545 172.585C117.795 172.585 118.005 172.675 118.175 172.855C118.355 173.035 118.445 173.255 118.445 173.515C118.445 173.775 118.355 173.995 118.175 174.175C118.005 174.355 117.795 174.445 117.545 174.445ZM118.205 175.78V184H116.84V175.78H118.205ZM123.921 175.645C124.631 175.645 125.251 175.8 125.781 176.11C126.321 176.42 126.721 176.81 126.981 177.28V175.78H128.361V184.18C128.361 184.93 128.201 185.595 127.881 186.175C127.561 186.765 127.101 187.225 126.501 187.555C125.911 187.885 125.221 188.05 124.431 188.05C123.351 188.05 122.451 187.795 121.731 187.285C121.011 186.775 120.586 186.08 120.456 185.2H121.806C121.956 185.7 122.266 186.1 122.736 186.4C123.206 186.71 123.771 186.865 124.431 186.865C125.181 186.865 125.791 186.63 126.261 186.16C126.741 185.69 126.981 185.03 126.981 184.18V182.455C126.711 182.935 126.311 183.335 125.781 183.655C125.251 183.975 124.631 184.135 123.921 184.135C123.191 184.135 122.526 183.955 121.926 183.595C121.336 183.235 120.871 182.73 120.531 182.08C120.191 181.43 120.021 180.69 120.021 179.86C120.021 179.02 120.191 178.285 120.531 177.655C120.871 177.015 121.336 176.52 121.926 176.17C122.526 175.82 123.191 175.645 123.921 175.645ZM126.981 179.875C126.981 179.255 126.856 178.715 126.606 178.255C126.356 177.795 126.016 177.445 125.586 177.205C125.166 176.955 124.701 176.83 124.191 176.83C123.681 176.83 123.216 176.95 122.796 177.19C122.376 177.43 122.041 177.78 121.791 178.24C121.541 178.7 121.416 179.24 121.416 179.86C121.416 180.49 121.541 181.04 121.791 181.51C122.041 181.97 122.376 182.325 122.796 182.575C123.216 182.815 123.681 182.935 124.191 182.935C124.701 182.935 125.166 182.815 125.586 182.575C126.016 182.325 126.356 181.97 126.606 181.51C126.856 181.04 126.981 180.495 126.981 179.875ZM134.673 175.63C135.673 175.63 136.483 175.935 137.103 176.545C137.723 177.145 138.033 178.015 138.033 179.155V184H136.683V179.35C136.683 178.53 136.478 177.905 136.068 177.475C135.658 177.035 135.098 176.815 134.388 176.815C133.668 176.815 133.093 177.04 132.663 177.49C132.243 177.94 132.033 178.595 132.033 179.455V184H130.668V175.78H132.033V176.95C132.303 176.53 132.668 176.205 133.128 175.975C133.598 175.745 134.113 175.63 134.673 175.63Z" fill="#E0E0E0"/>
<path d="M302.883 174.4V173.155H305.703V184H304.323V174.4H302.883ZM308.048 178.465C308.048 176.745 308.328 175.405 308.888 174.445C309.448 173.475 310.428 172.99 311.828 172.99C313.218 172.99 314.193 173.475 314.753 174.445C315.313 175.405 315.593 176.745 315.593 178.465C315.593 180.215 315.313 181.575 314.753 182.545C314.193 183.515 313.218 184 311.828 184C310.428 184 309.448 183.515 308.888 182.545C308.328 181.575 308.048 180.215 308.048 178.465ZM314.243 178.465C314.243 177.595 314.183 176.86 314.063 176.26C313.953 175.65 313.718 175.16 313.358 174.79C313.008 174.42 312.498 174.235 311.828 174.235C311.148 174.235 310.628 174.42 310.268 174.79C309.918 175.16 309.683 175.65 309.563 176.26C309.453 176.86 309.398 177.595 309.398 178.465C309.398 179.365 309.453 180.12 309.563 180.73C309.683 181.34 309.918 181.83 310.268 182.2C310.628 182.57 311.148 182.755 311.828 182.755C312.498 182.755 313.008 182.57 313.358 182.2C313.718 181.83 313.953 181.34 314.063 180.73C314.183 180.12 314.243 179.365 314.243 178.465ZM319.447 178.36C318.887 178.14 318.457 177.82 318.157 177.4C317.857 176.98 317.707 176.47 317.707 175.87C317.707 175.33 317.842 174.845 318.112 174.415C318.382 173.975 318.782 173.63 319.312 173.38C319.852 173.12 320.502 172.99 321.262 172.99C322.022 172.99 322.667 173.12 323.197 173.38C323.737 173.63 324.142 173.975 324.412 174.415C324.692 174.845 324.832 175.33 324.832 175.87C324.832 176.45 324.677 176.96 324.367 177.4C324.057 177.83 323.632 178.15 323.092 178.36C323.712 178.55 324.202 178.885 324.562 179.365C324.932 179.835 325.117 180.405 325.117 181.075C325.117 181.725 324.957 182.295 324.637 182.785C324.317 183.265 323.862 183.64 323.272 183.91C322.692 184.17 322.022 184.3 321.262 184.3C320.502 184.3 319.832 184.17 319.252 183.91C318.682 183.64 318.237 183.265 317.917 182.785C317.597 182.295 317.437 181.725 317.437 181.075C317.437 180.405 317.617 179.83 317.977 179.35C318.337 178.87 318.827 178.54 319.447 178.36ZM323.512 176.035C323.512 175.425 323.312 174.955 322.912 174.625C322.512 174.295 321.962 174.13 321.262 174.13C320.572 174.13 320.027 174.295 319.627 174.625C319.227 174.955 319.027 175.43 319.027 176.05C319.027 176.61 319.232 177.06 319.642 177.4C320.062 177.74 320.602 177.91 321.262 177.91C321.932 177.91 322.472 177.74 322.882 177.4C323.302 177.05 323.512 176.595 323.512 176.035ZM321.262 178.96C320.522 178.96 319.917 179.135 319.447 179.485C318.977 179.825 318.742 180.34 318.742 181.03C318.742 181.67 318.967 182.185 319.417 182.575C319.877 182.965 320.492 183.16 321.262 183.16C322.032 183.16 322.642 182.965 323.092 182.575C323.542 182.185 323.767 181.67 323.767 181.03C323.767 180.36 323.537 179.85 323.077 179.5C322.617 179.14 322.012 178.96 321.262 178.96Z" fill="#E0E0E0"/>
</g>
<g clip-path="url(#clip9_5340_6116)">
<g clip-path="url(#clip10_5340_6116)">
<rect x="24" y="132" width="302" height="6" rx="3" fill="white"/>
<rect x="24" y="132" width="302" height="6" rx="3" fill="white"/>
<mask id="mask7_5340_6116" style="mask-type:luminance" maskUnits="userSpaceOnUse" x="24" y="132" width="302" height="6">
<rect x="24" y="132" width="302" height="6" rx="3" fill="white"/>
</mask>
<g mask="url(#mask7_5340_6116)">
<g opacity="0.5">
<rect x="24" y="132" width="302" height="6" fill="#E8E9EB"/>
</g>
</g>
<g clip-path="url(#clip11_5340_6116)">
<mask id="mask8_5340_6116" style="mask-type:luminance" maskUnits="userSpaceOnUse" x="24" y="132" width="135" height="6">
<rect x="24" y="132" width="135" height="6" rx="3" fill="white"/>
</mask>
<g mask="url(#mask8_5340_6116)">
<rect x="24" y="132" width="135" height="6" fill="#304FFD"/>
</g>
</g>
</g>
<path d="M32.145 109.605C32.145 110.475 31.845 111.2 31.245 111.78C30.655 112.35 29.75 112.635 28.53 112.635H26.52V117H25.155V106.545H28.53C29.71 106.545 30.605 106.83 31.215 107.4C31.835 107.97 32.145 108.705 32.145 109.605ZM28.53 111.51C29.29 111.51 29.85 111.345 30.21 111.015C30.57 110.685 30.75 110.215 30.75 109.605C30.75 108.315 30.01 107.67 28.53 107.67H26.52V111.51H28.53ZM35.2065 110.115C35.4465 109.645 35.7865 109.28 36.2265 109.02C36.6765 108.76 37.2215 108.63 37.8615 108.63V110.04H37.5015C35.9715 110.04 35.2065 110.87 35.2065 112.53V117H33.8415V108.78H35.2065V110.115ZM43.0222 117.135C42.2522 117.135 41.5522 116.96 40.9222 116.61C40.3022 116.26 39.8122 115.765 39.4522 115.125C39.1022 114.475 38.9272 113.725 38.9272 112.875C38.9272 112.035 39.1072 111.295 39.4672 110.655C39.8372 110.005 40.3372 109.51 40.9672 109.17C41.5972 108.82 42.3022 108.645 43.0822 108.645C43.8622 108.645 44.5672 108.82 45.1972 109.17C45.8272 109.51 46.3222 110 46.6822 110.64C47.0522 111.28 47.2372 112.025 47.2372 112.875C47.2372 113.725 47.0472 114.475 46.6672 115.125C46.2972 115.765 45.7922 116.26 45.1522 116.61C44.5122 116.96 43.8022 117.135 43.0222 117.135ZM43.0222 115.935C43.5122 115.935 43.9722 115.82 44.4022 115.59C44.8322 115.36 45.1772 115.015 45.4372 114.555C45.7072 114.095 45.8422 113.535 45.8422 112.875C45.8422 112.215 45.7122 111.655 45.4522 111.195C45.1922 110.735 44.8522 110.395 44.4322 110.175C44.0122 109.945 43.5572 109.83 43.0672 109.83C42.5672 109.83 42.1072 109.945 41.6872 110.175C41.2772 110.395 40.9472 110.735 40.6972 111.195C40.4472 111.655 40.3222 112.215 40.3222 112.875C40.3222 113.545 40.4422 114.11 40.6822 114.57C40.9322 115.03 41.2622 115.375 41.6722 115.605C42.0822 115.825 42.5322 115.935 43.0222 115.935ZM48.522 112.86C48.522 112.02 48.692 111.285 49.032 110.655C49.372 110.015 49.837 109.52 50.427 109.17C51.027 108.82 51.697 108.645 52.437 108.645C53.077 108.645 53.672 108.795 54.222 109.095C54.772 109.385 55.192 109.77 55.482 110.25V105.9H56.862V117H55.482V115.455C55.212 115.945 54.812 116.35 54.282 116.67C53.752 116.98 53.132 117.135 52.422 117.135C51.692 117.135 51.027 116.955 50.427 116.595C49.837 116.235 49.372 115.73 49.032 115.08C48.692 114.43 48.522 113.69 48.522 112.86ZM55.482 112.875C55.482 112.255 55.357 111.715 55.107 111.255C54.857 110.795 54.517 110.445 54.087 110.205C53.667 109.955 53.202 109.83 52.692 109.83C52.182 109.83 51.717 109.95 51.297 110.19C50.877 110.43 50.542 110.78 50.292 111.24C50.042 111.7 49.917 112.24 49.917 112.86C49.917 113.49 50.042 114.04 50.292 114.51C50.542 114.97 50.877 115.325 51.297 115.575C51.717 115.815 52.182 115.935 52.692 115.935C53.202 115.935 53.667 115.815 54.087 115.575C54.517 115.325 54.857 114.97 55.107 114.51C55.357 114.04 55.482 113.495 55.482 112.875ZM66.4587 108.78V117H65.0937V115.785C64.8337 116.205 64.4687 116.535 63.9987 116.775C63.5387 117.005 63.0287 117.12 62.4687 117.12C61.8287 117.12 61.2537 116.99 60.7437 116.73C60.2337 116.46 59.8287 116.06 59.5287 115.53C59.2387 115 59.0937 114.355 59.0937 113.595V108.78H60.4437V113.415C60.4437 114.225 60.6487 114.85 61.0587 115.29C61.4687 115.72 62.0287 115.935 62.7387 115.935C63.4687 115.935 64.0437 115.71 64.4637 115.26C64.8837 114.81 65.0937 114.155 65.0937 113.295V108.78H66.4587ZM68.2534 112.875C68.2534 112.025 68.4234 111.285 68.7634 110.655C69.1034 110.015 69.5734 109.52 70.1734 109.17C70.7834 108.82 71.4784 108.645 72.2584 108.645C73.2684 108.645 74.0984 108.89 74.7484 109.38C75.4084 109.87 75.8434 110.55 76.0534 111.42H74.5834C74.4434 110.92 74.1684 110.525 73.7584 110.235C73.3584 109.945 72.8584 109.8 72.2584 109.8C71.4784 109.8 70.8484 110.07 70.3684 110.61C69.8884 111.14 69.6484 111.895 69.6484 112.875C69.6484 113.865 69.8884 114.63 70.3684 115.17C70.8484 115.71 71.4784 115.98 72.2584 115.98C72.8584 115.98 73.3584 115.84 73.7584 115.56C74.1584 115.28 74.4334 114.88 74.5834 114.36H76.0534C75.8334 115.2 75.3934 115.875 74.7334 116.385C74.0734 116.885 73.2484 117.135 72.2584 117.135C71.4784 117.135 70.7834 116.96 70.1734 116.61C69.5734 116.26 69.1034 115.765 68.7634 115.125C68.4234 114.485 68.2534 113.735 68.2534 112.875ZM79.5397 109.905V114.75C79.5397 115.15 79.6247 115.435 79.7947 115.605C79.9647 115.765 80.2597 115.845 80.6797 115.845H81.6847V117H80.4547C79.6947 117 79.1247 116.825 78.7447 116.475C78.3647 116.125 78.1747 115.55 78.1747 114.75V109.905H77.1097V108.78H78.1747V106.71H79.5397V108.78H81.6847V109.905H79.5397ZM90.5926 106.545C91.7326 106.545 92.7176 106.76 93.5476 107.19C94.3876 107.61 95.0276 108.215 95.4676 109.005C95.9176 109.795 96.1426 110.725 96.1426 111.795C96.1426 112.865 95.9176 113.795 95.4676 114.585C95.0276 115.365 94.3876 115.965 93.5476 116.385C92.7176 116.795 91.7326 117 90.5926 117H87.3376V106.545H90.5926ZM90.5926 115.875C91.9426 115.875 92.9726 115.52 93.6826 114.81C94.3926 114.09 94.7476 113.085 94.7476 111.795C94.7476 110.495 94.3876 109.48 93.6676 108.75C92.9576 108.02 91.9326 107.655 90.5926 107.655H88.7026V115.875H90.5926ZM105.443 112.575C105.443 112.835 105.428 113.11 105.398 113.4H98.8281C98.8781 114.21 99.1531 114.845 99.6531 115.305C100.163 115.755 100.778 115.98 101.498 115.98C102.088 115.98 102.578 115.845 102.968 115.575C103.368 115.295 103.648 114.925 103.808 114.465H105.278C105.058 115.255 104.618 115.9 103.958 116.4C103.298 116.89 102.478 117.135 101.498 117.135C100.718 117.135 100.018 116.96 99.3981 116.61C98.7881 116.26 98.3081 115.765 97.9581 115.125C97.6081 114.475 97.4331 113.725 97.4331 112.875C97.4331 112.025 97.6031 111.28 97.9431 110.64C98.2831 110 98.7581 109.51 99.3681 109.17C99.9881 108.82 100.698 108.645 101.498 108.645C102.278 108.645 102.968 108.815 103.568 109.155C104.168 109.495 104.628 109.965 104.948 110.565C105.278 111.155 105.443 111.825 105.443 112.575ZM104.033 112.29C104.033 111.77 103.918 111.325 103.688 110.955C103.458 110.575 103.143 110.29 102.743 110.1C102.353 109.9 101.918 109.8 101.438 109.8C100.748 109.8 100.158 110.02 99.6681 110.46C99.1881 110.9 98.9131 111.51 98.8431 112.29H104.033ZM110.155 117.135C109.525 117.135 108.96 117.03 108.46 116.82C107.96 116.6 107.565 116.3 107.275 115.92C106.985 115.53 106.825 115.085 106.795 114.585H108.205C108.245 114.995 108.435 115.33 108.775 115.59C109.125 115.85 109.58 115.98 110.14 115.98C110.66 115.98 111.07 115.865 111.37 115.635C111.67 115.405 111.82 115.115 111.82 114.765C111.82 114.405 111.66 114.14 111.34 113.97C111.02 113.79 110.525 113.615 109.855 113.445C109.245 113.285 108.745 113.125 108.355 112.965C107.975 112.795 107.645 112.55 107.365 112.23C107.095 111.9 106.96 111.47 106.96 110.94C106.96 110.52 107.085 110.135 107.335 109.785C107.585 109.435 107.94 109.16 108.4 108.96C108.86 108.75 109.385 108.645 109.975 108.645C110.885 108.645 111.62 108.875 112.18 109.335C112.74 109.795 113.04 110.425 113.08 111.225H111.715C111.685 110.795 111.51 110.45 111.19 110.19C110.88 109.93 110.46 109.8 109.93 109.8C109.44 109.8 109.05 109.905 108.76 110.115C108.47 110.325 108.325 110.6 108.325 110.94C108.325 111.21 108.41 111.435 108.58 111.615C108.76 111.785 108.98 111.925 109.24 112.035C109.51 112.135 109.88 112.25 110.35 112.38C110.94 112.54 111.42 112.7 111.79 112.86C112.16 113.01 112.475 113.24 112.735 113.55C113.005 113.86 113.145 114.265 113.155 114.765C113.155 115.215 113.03 115.62 112.78 115.98C112.53 116.34 112.175 116.625 111.715 116.835C111.265 117.035 110.745 117.135 110.155 117.135ZM115.787 107.445C115.527 107.445 115.307 107.355 115.127 107.175C114.947 106.995 114.857 106.775 114.857 106.515C114.857 106.255 114.947 106.035 115.127 105.855C115.307 105.675 115.527 105.585 115.787 105.585C116.037 105.585 116.247 105.675 116.417 105.855C116.597 106.035 116.687 106.255 116.687 106.515C116.687 106.775 116.597 106.995 116.417 107.175C116.247 107.355 116.037 107.445 115.787 107.445ZM116.447 108.78V117H115.082V108.78H116.447ZM122.163 108.645C122.873 108.645 123.493 108.8 124.023 109.11C124.563 109.42 124.963 109.81 125.223 110.28V108.78H126.603V117.18C126.603 117.93 126.443 118.595 126.123 119.175C125.803 119.765 125.343 120.225 124.743 120.555C124.153 120.885 123.463 121.05 122.673 121.05C121.593 121.05 120.693 120.795 119.973 120.285C119.253 119.775 118.828 119.08 118.698 118.2H120.048C120.198 118.7 120.508 119.1 120.978 119.4C121.448 119.71 122.013 119.865 122.673 119.865C123.423 119.865 124.033 119.63 124.503 119.16C124.983 118.69 125.223 118.03 125.223 117.18V115.455C124.953 115.935 124.553 116.335 124.023 116.655C123.493 116.975 122.873 117.135 122.163 117.135C121.433 117.135 120.768 116.955 120.168 116.595C119.578 116.235 119.113 115.73 118.773 115.08C118.433 114.43 118.263 113.69 118.263 112.86C118.263 112.02 118.433 111.285 118.773 110.655C119.113 110.015 119.578 109.52 120.168 109.17C120.768 108.82 121.433 108.645 122.163 108.645ZM125.223 112.875C125.223 112.255 125.098 111.715 124.848 111.255C124.598 110.795 124.258 110.445 123.828 110.205C123.408 109.955 122.943 109.83 122.433 109.83C121.923 109.83 121.458 109.95 121.038 110.19C120.618 110.43 120.283 110.78 120.033 111.24C119.783 111.7 119.658 112.24 119.658 112.86C119.658 113.49 119.783 114.04 120.033 114.51C120.283 114.97 120.618 115.325 121.038 115.575C121.458 115.815 121.923 115.935 122.433 115.935C122.943 115.935 123.408 115.815 123.828 115.575C124.258 115.325 124.598 114.97 124.848 114.51C125.098 114.04 125.223 113.495 125.223 112.875ZM132.915 108.63C133.915 108.63 134.725 108.935 135.345 109.545C135.965 110.145 136.275 111.015 136.275 112.155V117H134.925V112.35C134.925 111.53 134.72 110.905 134.31 110.475C133.9 110.035 133.34 109.815 132.63 109.815C131.91 109.815 131.335 110.04 130.905 110.49C130.485 110.94 130.275 111.595 130.275 112.455V117H128.91V108.78H130.275V109.95C130.545 109.53 130.91 109.205 131.37 108.975C131.84 108.745 132.355 108.63 132.915 108.63Z" fill="#EAEAEA"/>
<path d="M311.259 111.36C310.699 111.14 310.269 110.82 309.969 110.4C309.669 109.98 309.519 109.47 309.519 108.87C309.519 108.33 309.654 107.845 309.924 107.415C310.194 106.975 310.594 106.63 311.124 106.38C311.664 106.12 312.314 105.99 313.074 105.99C313.834 105.99 314.479 106.12 315.009 106.38C315.549 106.63 315.954 106.975 316.224 107.415C316.504 107.845 316.644 108.33 316.644 108.87C316.644 109.45 316.489 109.96 316.179 110.4C315.869 110.83 315.444 111.15 314.904 111.36C315.524 111.55 316.014 111.885 316.374 112.365C316.744 112.835 316.929 113.405 316.929 114.075C316.929 114.725 316.769 115.295 316.449 115.785C316.129 116.265 315.674 116.64 315.084 116.91C314.504 117.17 313.834 117.3 313.074 117.3C312.314 117.3 311.644 117.17 311.064 116.91C310.494 116.64 310.049 116.265 309.729 115.785C309.409 115.295 309.249 114.725 309.249 114.075C309.249 113.405 309.429 112.83 309.789 112.35C310.149 111.87 310.639 111.54 311.259 111.36ZM315.324 109.035C315.324 108.425 315.124 107.955 314.724 107.625C314.324 107.295 313.774 107.13 313.074 107.13C312.384 107.13 311.839 107.295 311.439 107.625C311.039 107.955 310.839 108.43 310.839 109.05C310.839 109.61 311.044 110.06 311.454 110.4C311.874 110.74 312.414 110.91 313.074 110.91C313.744 110.91 314.284 110.74 314.694 110.4C315.114 110.05 315.324 109.595 315.324 109.035ZM313.074 111.96C312.334 111.96 311.729 112.135 311.259 112.485C310.789 112.825 310.554 113.34 310.554 114.03C310.554 114.67 310.779 115.185 311.229 115.575C311.689 115.965 312.304 116.16 313.074 116.16C313.844 116.16 314.454 115.965 314.904 115.575C315.354 115.185 315.579 114.67 315.579 114.03C315.579 113.36 315.349 112.85 314.889 112.5C314.429 112.14 313.824 111.96 313.074 111.96ZM325.417 107.22L321.247 117H319.867L324.097 107.355H318.307V106.185H325.417V107.22Z" fill="#EAEAEA"/>
</g>
<mask id="mask9_5340_6116" style="mask-type:luminance" maskUnits="userSpaceOnUse" x="306" y="45" width="20" height="4">
<path fill-rule="evenodd" clip-rule="evenodd" d="M310.15 47.0008C310.15 48.0777 309.277 48.9508 308.2 48.9508C307.123 48.9508 306.25 48.0777 306.25 47.0008C306.25 45.9238 307.123 45.0508 308.2 45.0508C309.277 45.0508 310.15 45.9238 310.15 47.0008ZM317.95 47.0008C317.95 48.0777 317.077 48.9508 316 48.9508C314.923 48.9508 314.05 48.0777 314.05 47.0008C314.05 45.9238 314.923 45.0508 316 45.0508C317.077 45.0508 317.95 45.9238 317.95 47.0008ZM323.8 48.9508C324.877 48.9508 325.75 48.0777 325.75 47.0008C325.75 45.9238 324.877 45.0508 323.8 45.0508C322.723 45.0508 321.85 45.9238 321.85 47.0008C321.85 48.0777 322.723 48.9508 323.8 48.9508Z" fill="white"/>
</mask>
<g mask="url(#mask9_5340_6116)">
<rect x="303" y="34" width="26" height="26" fill="#DCDDDF"/>
</g>
<path d="M34.48 40.1V41.96H30.78V54H28.5V41.96H24.78V40.1H34.48ZM41.5691 54.18C40.5291 54.18 39.5891 53.9467 38.7491 53.48C37.9091 53 37.2491 52.3333 36.7691 51.48C36.2891 50.6133 36.0491 49.6133 36.0491 48.48C36.0491 47.36 36.2957 46.3667 36.7891 45.5C37.2824 44.6333 37.9557 43.9667 38.8091 43.5C39.6624 43.0333 40.6157 42.8 41.6691 42.8C42.7224 42.8 43.6757 43.0333 44.5291 43.5C45.3824 43.9667 46.0557 44.6333 46.5491 45.5C47.0424 46.3667 47.2891 47.36 47.2891 48.48C47.2891 49.6 47.0357 50.5933 46.5291 51.46C46.0224 52.3267 45.3291 53 44.4491 53.48C43.5824 53.9467 42.6224 54.18 41.5691 54.18ZM41.5691 52.2C42.1557 52.2 42.7024 52.06 43.2091 51.78C43.7291 51.5 44.1491 51.08 44.4691 50.52C44.7891 49.96 44.9491 49.28 44.9491 48.48C44.9491 47.68 44.7957 47.0067 44.4891 46.46C44.1824 45.9 43.7757 45.48 43.2691 45.2C42.7624 44.92 42.2157 44.78 41.6291 44.78C41.0424 44.78 40.4957 44.92 39.9891 45.2C39.4957 45.48 39.1024 45.9 38.8091 46.46C38.5157 47.0067 38.3691 47.68 38.3691 48.48C38.3691 49.6667 38.6691 50.5867 39.2691 51.24C39.8824 51.88 40.6491 52.2 41.5691 52.2ZM52.203 44.84V50.94C52.203 51.3533 52.2963 51.6533 52.483 51.84C52.683 52.0133 53.0163 52.1 53.483 52.1H54.883V54H53.083C52.0563 54 51.2696 53.76 50.723 53.28C50.1763 52.8 49.903 52.02 49.903 50.94V44.84H48.603V42.98H49.903V40.24H52.203V42.98H54.883V44.84H52.203ZM56.2244 48.44C56.2244 47.3333 56.451 46.3533 56.9044 45.5C57.371 44.6467 57.9977 43.9867 58.7844 43.52C59.5844 43.04 60.4644 42.8 61.4244 42.8C62.291 42.8 63.0444 42.9733 63.6844 43.32C64.3377 43.6533 64.8577 44.0733 65.2444 44.58V42.98H67.5444V54H65.2444V52.36C64.8577 52.88 64.331 53.3133 63.6644 53.66C62.9977 54.0067 62.2377 54.18 61.3844 54.18C60.4377 54.18 59.571 53.94 58.7844 53.46C57.9977 52.9667 57.371 52.2867 56.9044 51.42C56.451 50.54 56.2244 49.5467 56.2244 48.44ZM65.2444 48.48C65.2444 47.72 65.0844 47.06 64.7644 46.5C64.4577 45.94 64.051 45.5133 63.5444 45.22C63.0377 44.9267 62.491 44.78 61.9044 44.78C61.3177 44.78 60.771 44.9267 60.2644 45.22C59.7577 45.5 59.3444 45.92 59.0244 46.48C58.7177 47.0267 58.5644 47.68 58.5644 48.44C58.5644 49.2 58.7177 49.8667 59.0244 50.44C59.3444 51.0133 59.7577 51.4533 60.2644 51.76C60.7844 52.0533 61.331 52.2 61.9044 52.2C62.491 52.2 63.0377 52.0533 63.5444 51.76C64.051 51.4667 64.4577 51.04 64.7644 50.48C65.0844 49.9067 65.2444 49.24 65.2444 48.48ZM72.8191 39.2V54H70.5391V39.2H72.8191ZM90.7278 44.24C90.7278 44.9467 90.5611 45.6133 90.2278 46.24C89.8945 46.8667 89.3611 47.38 88.6278 47.78C87.8945 48.1667 86.9545 48.36 85.8078 48.36H83.2878V54H81.0078V40.1H85.8078C86.8745 40.1 87.7745 40.2867 88.5078 40.66C89.2545 41.02 89.8078 41.5133 90.1678 42.14C90.5411 42.7667 90.7278 43.4667 90.7278 44.24ZM85.8078 46.5C86.6745 46.5 87.3211 46.3067 87.7478 45.92C88.1745 45.52 88.3878 44.96 88.3878 44.24C88.3878 42.72 87.5278 41.96 85.8078 41.96H83.2878V46.5H85.8078ZM95.1823 44.58C95.5157 44.02 95.9557 43.5867 96.5023 43.28C97.0623 42.96 97.7223 42.8 98.4823 42.8V45.16H97.9023C97.009 45.16 96.329 45.3867 95.8623 45.84C95.409 46.2933 95.1823 47.08 95.1823 48.2V54H92.9023V42.98H95.1823V44.58ZM105.358 54.18C104.318 54.18 103.378 53.9467 102.538 53.48C101.698 53 101.038 52.3333 100.558 51.48C100.078 50.6133 99.8381 49.6133 99.8381 48.48C99.8381 47.36 100.085 46.3667 100.578 45.5C101.071 44.6333 101.745 43.9667 102.598 43.5C103.451 43.0333 104.405 42.8 105.458 42.8C106.511 42.8 107.465 43.0333 108.318 43.5C109.171 43.9667 109.845 44.6333 110.338 45.5C110.831 46.3667 111.078 47.36 111.078 48.48C111.078 49.6 110.825 50.5933 110.318 51.46C109.811 52.3267 109.118 53 108.238 53.48C107.371 53.9467 106.411 54.18 105.358 54.18ZM105.358 52.2C105.945 52.2 106.491 52.06 106.998 51.78C107.518 51.5 107.938 51.08 108.258 50.52C108.578 49.96 108.738 49.28 108.738 48.48C108.738 47.68 108.585 47.0067 108.278 46.46C107.971 45.9 107.565 45.48 107.058 45.2C106.551 44.92 106.005 44.78 105.418 44.78C104.831 44.78 104.285 44.92 103.778 45.2C103.285 45.48 102.891 45.9 102.598 46.46C102.305 47.0067 102.158 47.68 102.158 48.48C102.158 49.6667 102.458 50.5867 103.058 51.24C103.671 51.88 104.438 52.2 105.358 52.2ZM114.492 41.52C114.079 41.52 113.732 41.38 113.452 41.1C113.172 40.82 113.032 40.4733 113.032 40.06C113.032 39.6467 113.172 39.3 113.452 39.02C113.732 38.74 114.079 38.6 114.492 38.6C114.892 38.6 115.232 38.74 115.512 39.02C115.792 39.3 115.932 39.6467 115.932 40.06C115.932 40.4733 115.792 40.82 115.512 41.1C115.232 41.38 114.892 41.52 114.492 41.52ZM115.612 56.16C115.612 57.24 115.339 58.02 114.792 58.5C114.259 58.9933 113.479 59.24 112.452 59.24H111.272V57.32H112.052C112.519 57.32 112.845 57.2267 113.032 57.04C113.232 56.8667 113.332 56.5733 113.332 56.16V42.98H115.612V56.16ZM128.705 48.22C128.705 48.6333 128.679 49.0067 128.625 49.34H120.205C120.272 50.22 120.599 50.9267 121.185 51.46C121.772 51.9933 122.492 52.26 123.345 52.26C124.572 52.26 125.439 51.7467 125.945 50.72H128.405C128.072 51.7333 127.465 52.5667 126.585 53.22C125.719 53.86 124.639 54.18 123.345 54.18C122.292 54.18 121.345 53.9467 120.505 53.48C119.679 53 119.025 52.3333 118.545 51.48C118.079 50.6133 117.845 49.6133 117.845 48.48C117.845 47.3467 118.072 46.3533 118.525 45.5C118.992 44.6333 119.639 43.9667 120.465 43.5C121.305 43.0333 122.265 42.8 123.345 42.8C124.385 42.8 125.312 43.0267 126.125 43.48C126.939 43.9333 127.572 44.5733 128.025 45.4C128.479 46.2133 128.705 47.1533 128.705 48.22ZM126.325 47.5C126.312 46.66 126.012 45.9867 125.425 45.48C124.839 44.9733 124.112 44.72 123.245 44.72C122.459 44.72 121.785 44.9733 121.225 45.48C120.665 45.9733 120.332 46.6467 120.225 47.5H126.325ZM130.189 48.48C130.189 47.3467 130.416 46.3533 130.869 45.5C131.336 44.6333 131.976 43.9667 132.789 43.5C133.603 43.0333 134.536 42.8 135.589 42.8C136.923 42.8 138.023 43.12 138.889 43.76C139.769 44.3867 140.363 45.2867 140.669 46.46H138.209C138.009 45.9133 137.689 45.4867 137.249 45.18C136.809 44.8733 136.256 44.72 135.589 44.72C134.656 44.72 133.909 45.0533 133.349 45.72C132.803 46.3733 132.529 47.2933 132.529 48.48C132.529 49.6667 132.803 50.5933 133.349 51.26C133.909 51.9267 134.656 52.26 135.589 52.26C136.909 52.26 137.783 51.68 138.209 50.52H140.669C140.349 51.64 139.749 52.5333 138.869 53.2C137.989 53.8533 136.896 54.18 135.589 54.18C134.536 54.18 133.603 53.9467 132.789 53.48C131.976 53 131.336 52.3333 130.869 51.48C130.416 50.6133 130.189 49.6133 130.189 48.48ZM145.601 44.84V50.94C145.601 51.3533 145.695 51.6533 145.881 51.84C146.081 52.0133 146.415 52.1 146.881 52.1H148.281V54H146.481C145.455 54 144.668 53.76 144.121 53.28C143.575 52.8 143.301 52.02 143.301 50.94V44.84H142.001V42.98H143.301V40.24H145.601V42.98H148.281V44.84H145.601ZM154.383 54.18C153.516 54.18 152.736 54.0267 152.043 53.72C151.363 53.4 150.823 52.9733 150.423 52.44C150.023 51.8933 149.809 51.2867 149.783 50.62H152.143C152.183 51.0867 152.403 51.48 152.803 51.8C153.216 52.1067 153.729 52.26 154.343 52.26C154.983 52.26 155.476 52.14 155.823 51.9C156.183 51.6467 156.363 51.3267 156.363 50.94C156.363 50.5267 156.163 50.22 155.763 50.02C155.376 49.82 154.756 49.6 153.903 49.36C153.076 49.1333 152.403 48.9133 151.883 48.7C151.363 48.4867 150.909 48.16 150.523 47.72C150.149 47.28 149.963 46.7 149.963 45.98C149.963 45.3933 150.136 44.86 150.483 44.38C150.829 43.8867 151.323 43.5 151.963 43.22C152.616 42.94 153.363 42.8 154.203 42.8C155.456 42.8 156.463 43.12 157.223 43.76C157.996 44.3867 158.409 45.2467 158.463 46.34H156.183C156.143 45.8467 155.943 45.4533 155.583 45.16C155.223 44.8667 154.736 44.72 154.123 44.72C153.523 44.72 153.063 44.8333 152.743 45.06C152.423 45.2867 152.263 45.5867 152.263 45.96C152.263 46.2533 152.369 46.5 152.583 46.7C152.796 46.9 153.056 47.06 153.363 47.18C153.669 47.2867 154.123 47.4267 154.723 47.6C155.523 47.8133 156.176 48.0333 156.683 48.26C157.203 48.4733 157.649 48.7933 158.023 49.22C158.396 49.6467 158.589 50.2133 158.603 50.92C158.603 51.5467 158.429 52.1067 158.083 52.6C157.736 53.0933 157.243 53.48 156.603 53.76C155.976 54.04 155.236 54.18 154.383 54.18Z" fill="white"/>
<defs>
<clipPath id="clip0_5340_6116">
<rect width="302" height="38" fill="white" transform="translate(24 301)"/>
</clipPath>
<clipPath id="clip1_5340_6116">
<rect width="302" height="6" fill="white" transform="translate(24 333)"/>
</clipPath>
<clipPath id="clip2_5340_6116">
<rect width="31" height="6" fill="white" transform="translate(24 333)"/>
</clipPath>
<clipPath id="clip3_5340_6116">
<rect width="302" height="38" fill="white" transform="translate(24 234)"/>
</clipPath>
<clipPath id="clip4_5340_6116">
<rect width="302" height="6" fill="white" transform="translate(24 266)"/>
</clipPath>
<clipPath id="clip5_5340_6116">
<rect width="185" height="6" fill="white" transform="translate(24 266)"/>
</clipPath>
<clipPath id="clip6_5340_6116">
<rect width="302" height="38" fill="white" transform="translate(24 167)"/>
</clipPath>
<clipPath id="clip7_5340_6116">
<rect width="302" height="6" fill="white" transform="translate(24 199)"/>
</clipPath>
<clipPath id="clip8_5340_6116">
<rect width="200" height="6" fill="white" transform="translate(24 199)"/>
</clipPath>
<clipPath id="clip9_5340_6116">
<rect width="302" height="38" fill="white" transform="translate(24 100)"/>
</clipPath>
<clipPath id="clip10_5340_6116">
<rect width="302" height="6" fill="white" transform="translate(24 132)"/>
</clipPath>
<clipPath id="clip11_5340_6116">
<rect width="135" height="6" fill="white" transform="translate(24 132)"/>
</clipPath>
</defs>
</svg>
