<svg width="160" height="186" viewBox="0 0 160 186" fill="none" xmlns="http://www.w3.org/2000/svg">
<g clip-path="url(#clip0_5340_2266)">
<g filter="url(#filter0_d_5340_2266)">
<mask id="mask0_5340_2266" style="mask-type:luminance" maskUnits="userSpaceOnUse" x="0" y="0" width="160" height="186">
<rect width="160" height="186" fill="white"/>
</mask>
<g mask="url(#mask0_5340_2266)">
<rect width="160" height="186" fill="#18191B"/>
</g>
</g>
<mask id="mask1_5340_2266" style="mask-type:luminance" maskUnits="userSpaceOnUse" x="56" y="32" width="48" height="48">
<rect x="56" y="32" width="48" height="48" rx="14" fill="white"/>
</mask>
<g mask="url(#mask1_5340_2266)">
<g opacity="0.1">
<rect x="56" y="32" width="48" height="48" fill="#0090FF"/>
</g>
</g>
<path fill-rule="evenodd" clip-rule="evenodd" d="M77.125 47.6749C77.125 47.5638 77.2093 47.5 77.2812 47.5H82.7185C82.7904 47.5 82.8747 47.5638 82.8747 47.6749V48.5854C82.8746 48.5904 82.8745 48.5955 82.8745 48.6005C82.8745 48.6056 82.8746 48.6106 82.8747 48.6157V49.5248C82.8747 49.636 82.7904 49.6997 82.7185 49.6997H77.2812C77.2093 49.6997 77.125 49.636 77.125 49.5248V47.6749ZM84.3747 49.3505V49.5248C84.3747 50.4353 83.6476 51.1997 82.7185 51.1997H77.2812C76.3521 51.1997 75.625 50.4353 75.625 49.5248V49.3505H74.5624C74.2857 49.3505 74.0171 49.4626 73.8166 49.6672C73.6156 49.8724 73.5 50.1538 73.5 50.4504V63.3995C73.5 63.6961 73.6156 63.9775 73.8166 64.1827C74.0171 64.3873 74.2857 64.4994 74.5624 64.4994H85.437C85.7137 64.4994 85.9823 64.3873 86.1828 64.1827C86.3838 63.9775 86.4994 63.6961 86.4994 63.3995V50.4504C86.4994 50.1538 86.3838 49.8724 86.1828 49.6672C85.9823 49.4626 85.7137 49.3505 85.437 49.3505H84.3747ZM75.625 47.8505V47.6749C75.625 46.7644 76.3521 46 77.2812 46H82.7185C83.6476 46 84.3747 46.7644 84.3747 47.6749V47.8505H85.437C86.1216 47.8505 86.775 48.1283 87.2543 48.6175C87.7331 49.1061 87.9994 49.7658 87.9994 50.4504V63.3995C87.9994 64.0841 87.7331 64.7438 87.2543 65.2324C86.775 65.7217 86.1216 65.9994 85.437 65.9994H74.5624C73.8778 65.9994 73.2244 65.7217 72.7451 65.2324C72.2663 64.7438 72 64.0841 72 63.3995V50.4504C72 49.7658 72.2663 49.1061 72.7451 48.6175C73.2244 48.1283 73.8778 47.8505 74.5624 47.8505H75.625Z" fill="#304FFD"/>
<mask id="mask2_5340_2266" style="mask-type:luminance" maskUnits="userSpaceOnUse" x="72" y="46" width="16" height="20">
<path fill-rule="evenodd" clip-rule="evenodd" d="M77.125 47.6749C77.125 47.5638 77.2093 47.5 77.2812 47.5H82.7185C82.7904 47.5 82.8747 47.5638 82.8747 47.6749V48.5854C82.8746 48.5904 82.8745 48.5955 82.8745 48.6005C82.8745 48.6056 82.8746 48.6106 82.8747 48.6157V49.5248C82.8747 49.636 82.7904 49.6997 82.7185 49.6997H77.2812C77.2093 49.6997 77.125 49.636 77.125 49.5248V47.6749ZM84.3747 49.3505V49.5248C84.3747 50.4353 83.6476 51.1997 82.7185 51.1997H77.2812C76.3521 51.1997 75.625 50.4353 75.625 49.5248V49.3505H74.5624C74.2857 49.3505 74.0171 49.4626 73.8166 49.6672C73.6156 49.8724 73.5 50.1538 73.5 50.4504V63.3995C73.5 63.6961 73.6156 63.9775 73.8166 64.1827C74.0171 64.3873 74.2857 64.4994 74.5624 64.4994H85.437C85.7137 64.4994 85.9823 64.3873 86.1828 64.1827C86.3838 63.9775 86.4994 63.6961 86.4994 63.3995V50.4504C86.4994 50.1538 86.3838 49.8724 86.1828 49.6672C85.9823 49.4626 85.7137 49.3505 85.437 49.3505H84.3747ZM75.625 47.8505V47.6749C75.625 46.7644 76.3521 46 77.2812 46H82.7185C83.6476 46 84.3747 46.7644 84.3747 47.6749V47.8505H85.437C86.1216 47.8505 86.775 48.1283 87.2543 48.6175C87.7331 49.1061 87.9994 49.7658 87.9994 50.4504V63.3995C87.9994 64.0841 87.7331 64.7438 87.2543 65.2324C86.775 65.7217 86.1216 65.9994 85.437 65.9994H74.5624C73.8778 65.9994 73.2244 65.7217 72.7451 65.2324C72.2663 64.7438 72 64.0841 72 63.3995V50.4504C72 49.7658 72.2663 49.1061 72.7451 48.6175C73.2244 48.1283 73.8778 47.8505 74.5624 47.8505H75.625Z" fill="white"/>
</mask>
<g mask="url(#mask2_5340_2266)">
<rect x="70" y="46" width="20" height="20" fill="#0090FF"/>
</g>
<path d="M48.5156 142.242V143.278H45.8556V152H44.5816V143.278H41.9076V142.242H48.5156ZM53.4299 152.126C52.7112 152.126 52.0579 151.963 51.4699 151.636C50.8912 151.309 50.4339 150.847 50.0979 150.25C49.7712 149.643 49.6079 148.943 49.6079 148.15C49.6079 147.366 49.7759 146.675 50.1119 146.078C50.4572 145.471 50.9239 145.009 51.5119 144.692C52.0999 144.365 52.7579 144.202 53.4859 144.202C54.2139 144.202 54.8719 144.365 55.4599 144.692C56.0479 145.009 56.5099 145.467 56.8459 146.064C57.1912 146.661 57.3639 147.357 57.3639 148.15C57.3639 148.943 57.1865 149.643 56.8319 150.25C56.4865 150.847 56.0152 151.309 55.4179 151.636C54.8205 151.963 54.1579 152.126 53.4299 152.126ZM53.4299 151.006C53.8872 151.006 54.3165 150.899 54.7179 150.684C55.1192 150.469 55.4412 150.147 55.6839 149.718C55.9359 149.289 56.0619 148.766 56.0619 148.15C56.0619 147.534 55.9405 147.011 55.6979 146.582C55.4552 146.153 55.1379 145.835 54.7459 145.63C54.3539 145.415 53.9292 145.308 53.4719 145.308C53.0052 145.308 52.5759 145.415 52.1839 145.63C51.8012 145.835 51.4932 146.153 51.2599 146.582C51.0265 147.011 50.9099 147.534 50.9099 148.15C50.9099 148.775 51.0219 149.303 51.2459 149.732C51.4792 150.161 51.7872 150.483 52.1699 150.698C52.5525 150.903 52.9725 151.006 53.4299 151.006ZM60.5929 145.378V149.9C60.5929 150.273 60.6723 150.539 60.8309 150.698C60.9896 150.847 61.2649 150.922 61.6569 150.922H62.5949V152H61.4469C60.7376 152 60.2056 151.837 59.8509 151.51C59.4963 151.183 59.3189 150.647 59.3189 149.9V145.378H58.3249V144.328H59.3189V142.396H60.5929V144.328H62.5949V145.378H60.5929ZM63.6625 148.136C63.6625 147.352 63.8212 146.666 64.1385 146.078C64.4559 145.481 64.8899 145.019 65.4405 144.692C66.0005 144.365 66.6212 144.202 67.3025 144.202C67.9745 144.202 68.5579 144.347 69.0525 144.636C69.5472 144.925 69.9159 145.289 70.1585 145.728V144.328H71.4465V152H70.1585V150.572C69.9065 151.02 69.5285 151.393 69.0245 151.692C68.5299 151.981 67.9512 152.126 67.2885 152.126C66.6072 152.126 65.9912 151.958 65.4405 151.622C64.8899 151.286 64.4559 150.815 64.1385 150.208C63.8212 149.601 63.6625 148.911 63.6625 148.136ZM70.1585 148.15C70.1585 147.571 70.0419 147.067 69.8085 146.638C69.5752 146.209 69.2579 145.882 68.8565 145.658C68.4645 145.425 68.0305 145.308 67.5545 145.308C67.0785 145.308 66.6445 145.42 66.2525 145.644C65.8605 145.868 65.5479 146.195 65.3145 146.624C65.0812 147.053 64.9645 147.557 64.9645 148.136C64.9645 148.724 65.0812 149.237 65.3145 149.676C65.5479 150.105 65.8605 150.437 66.2525 150.67C66.6445 150.894 67.0785 151.006 67.5545 151.006C68.0305 151.006 68.4645 150.894 68.8565 150.67C69.2579 150.437 69.5752 150.105 69.8085 149.676C70.0419 149.237 70.1585 148.729 70.1585 148.15ZM74.8735 141.64V152H73.5995V141.64H74.8735ZM86.7832 142.242V143.278H84.1232V152H82.8492V143.278H80.1752V142.242H86.7832ZM87.8754 148.136C87.8754 147.352 88.0341 146.666 88.3514 146.078C88.6688 145.481 89.1028 145.019 89.6534 144.692C90.2134 144.365 90.8341 144.202 91.5154 144.202C92.1874 144.202 92.7708 144.347 93.2654 144.636C93.7601 144.925 94.1288 145.289 94.3714 145.728V144.328H95.6594V152H94.3714V150.572C94.1194 151.02 93.7414 151.393 93.2374 151.692C92.7428 151.981 92.1641 152.126 91.5014 152.126C90.8201 152.126 90.2041 151.958 89.6534 151.622C89.1028 151.286 88.6688 150.815 88.3514 150.208C88.0341 149.601 87.8754 148.911 87.8754 148.136ZM94.3714 148.15C94.3714 147.571 94.2548 147.067 94.0214 146.638C93.7881 146.209 93.4708 145.882 93.0694 145.658C92.6774 145.425 92.2434 145.308 91.7674 145.308C91.2914 145.308 90.8574 145.42 90.4654 145.644C90.0734 145.868 89.7608 146.195 89.5274 146.624C89.2941 147.053 89.1774 147.557 89.1774 148.136C89.1774 148.724 89.2941 149.237 89.5274 149.676C89.7608 150.105 90.0734 150.437 90.4654 150.67C90.8574 150.894 91.2914 151.006 91.7674 151.006C92.2434 151.006 92.6774 150.894 93.0694 150.67C93.4708 150.437 93.7881 150.105 94.0214 149.676C94.2548 149.237 94.3714 148.729 94.3714 148.15ZM100.528 152.126C99.9404 152.126 99.413 152.028 98.9464 151.832C98.4797 151.627 98.111 151.347 97.8404 150.992C97.5697 150.628 97.4204 150.213 97.3924 149.746H98.7084C98.7457 150.129 98.923 150.441 99.2404 150.684C99.567 150.927 99.9917 151.048 100.514 151.048C101 151.048 101.382 150.941 101.662 150.726C101.942 150.511 102.082 150.241 102.082 149.914C102.082 149.578 101.933 149.331 101.634 149.172C101.336 149.004 100.874 148.841 100.248 148.682C99.679 148.533 99.2124 148.383 98.8484 148.234C98.4937 148.075 98.1857 147.847 97.9244 147.548C97.6724 147.24 97.5464 146.839 97.5464 146.344C97.5464 145.952 97.663 145.593 97.8964 145.266C98.1297 144.939 98.461 144.683 98.8904 144.496C99.3197 144.3 99.8097 144.202 100.36 144.202C101.21 144.202 101.896 144.417 102.418 144.846C102.941 145.275 103.221 145.863 103.258 146.61H101.984C101.956 146.209 101.793 145.887 101.494 145.644C101.205 145.401 100.813 145.28 100.318 145.28C99.861 145.28 99.497 145.378 99.2264 145.574C98.9557 145.77 98.8204 146.027 98.8204 146.344C98.8204 146.596 98.8997 146.806 99.0584 146.974C99.2264 147.133 99.4317 147.263 99.6744 147.366C99.9264 147.459 100.272 147.567 100.71 147.688C101.261 147.837 101.709 147.987 102.054 148.136C102.4 148.276 102.694 148.491 102.936 148.78C103.188 149.069 103.319 149.447 103.328 149.914C103.328 150.334 103.212 150.712 102.978 151.048C102.745 151.384 102.414 151.65 101.984 151.846C101.564 152.033 101.079 152.126 100.528 152.126ZM109.411 152L106.401 148.612V152H105.127V141.64H106.401V147.73L109.355 144.328H111.133L107.521 148.15L111.147 152H109.411ZM115.048 152.126C114.46 152.126 113.933 152.028 113.466 151.832C112.999 151.627 112.631 151.347 112.36 150.992C112.089 150.628 111.94 150.213 111.912 149.746H113.228C113.265 150.129 113.443 150.441 113.76 150.684C114.087 150.927 114.511 151.048 115.034 151.048C115.519 151.048 115.902 150.941 116.182 150.726C116.462 150.511 116.602 150.241 116.602 149.914C116.602 149.578 116.453 149.331 116.154 149.172C115.855 149.004 115.393 148.841 114.768 148.682C114.199 148.533 113.732 148.383 113.368 148.234C113.013 148.075 112.705 147.847 112.444 147.548C112.192 147.24 112.066 146.839 112.066 146.344C112.066 145.952 112.183 145.593 112.416 145.266C112.649 144.939 112.981 144.683 113.41 144.496C113.839 144.3 114.329 144.202 114.88 144.202C115.729 144.202 116.415 144.417 116.938 144.846C117.461 145.275 117.741 145.863 117.778 146.61H116.504C116.476 146.209 116.313 145.887 116.014 145.644C115.725 145.401 115.333 145.28 114.838 145.28C114.381 145.28 114.017 145.378 113.746 145.574C113.475 145.77 113.34 146.027 113.34 146.344C113.34 146.596 113.419 146.806 113.578 146.974C113.746 147.133 113.951 147.263 114.194 147.366C114.446 147.459 114.791 147.567 115.23 147.688C115.781 147.837 116.229 147.987 116.574 148.136C116.919 148.276 117.213 148.491 117.456 148.78C117.708 149.069 117.839 149.447 117.848 149.914C117.848 150.334 117.731 150.712 117.498 151.048C117.265 151.384 116.933 151.65 116.504 151.846C116.084 152.033 115.599 152.126 115.048 152.126Z" fill="#C5C5C5"/>
<path d="M67.2978 103.488L58.4018 124H54.7218L63.7138 103.872H51.8738V100.768H67.2978V103.488ZM74.356 111.808C72.1373 110.699 71.028 108.949 71.028 106.56C71.028 105.408 71.316 104.352 71.892 103.392C72.468 102.432 73.332 101.675 74.484 101.12C75.636 100.544 77.044 100.256 78.708 100.256C80.3507 100.256 81.748 100.544 82.9 101.12C84.0733 101.675 84.948 102.432 85.524 103.392C86.1 104.352 86.388 105.408 86.388 106.56C86.388 107.755 86.0787 108.811 85.46 109.728C84.8627 110.624 84.0627 111.317 83.06 111.808C84.276 112.256 85.236 112.992 85.94 114.016C86.644 115.019 86.996 116.203 86.996 117.568C86.996 118.955 86.644 120.181 85.94 121.248C85.236 122.315 84.2547 123.136 82.996 123.712C81.7373 124.288 80.308 124.576 78.708 124.576C77.108 124.576 75.6787 124.288 74.42 123.712C73.1827 123.136 72.212 122.315 71.508 121.248C70.804 120.181 70.452 118.955 70.452 117.568C70.452 116.181 70.804 114.987 71.508 113.984C72.212 112.981 73.1613 112.256 74.356 111.808ZM82.9 107.008C82.9 105.813 82.5267 104.896 81.78 104.256C81.0333 103.616 80.0093 103.296 78.708 103.296C77.428 103.296 76.4147 103.616 75.668 104.256C74.9213 104.896 74.548 105.824 74.548 107.04C74.548 108.107 74.932 108.981 75.7 109.664C76.4893 110.325 77.492 110.656 78.708 110.656C79.924 110.656 80.9267 110.315 81.716 109.632C82.5053 108.949 82.9 108.075 82.9 107.008ZM78.708 113.408C77.3 113.408 76.148 113.76 75.252 114.464C74.3773 115.147 73.94 116.139 73.94 117.44C73.94 118.656 74.3667 119.648 75.22 120.416C76.0733 121.163 77.236 121.536 78.708 121.536C80.1587 121.536 81.3 121.152 82.132 120.384C82.9853 119.616 83.412 118.635 83.412 117.44C83.412 116.16 82.9747 115.168 82.1 114.464C81.2467 113.76 80.116 113.408 78.708 113.408ZM90.8263 112.032C90.8263 108.341 91.4449 105.461 92.6823 103.392C93.9409 101.301 96.0956 100.256 99.1463 100.256C102.197 100.256 104.341 101.301 105.578 103.392C106.837 105.461 107.466 108.341 107.466 112.032C107.466 115.765 106.837 118.688 105.578 120.8C104.341 122.891 102.197 123.936 99.1463 123.936C96.0956 123.936 93.9409 122.891 92.6823 120.8C91.4449 118.688 90.8263 115.765 90.8263 112.032ZM103.882 112.032C103.882 110.304 103.765 108.843 103.53 107.648C103.317 106.453 102.869 105.483 102.186 104.736C101.504 103.968 100.49 103.584 99.1463 103.584C97.8023 103.584 96.7889 103.968 96.1063 104.736C95.4236 105.483 94.9649 106.453 94.7303 107.648C94.5169 108.843 94.4103 110.304 94.4103 112.032C94.4103 113.824 94.5169 115.328 94.7303 116.544C94.9436 117.76 95.3916 118.741 96.0743 119.488C96.7783 120.235 97.8023 120.608 99.1463 120.608C100.49 120.608 101.504 120.235 102.186 119.488C102.89 118.741 103.349 117.76 103.562 116.544C103.776 115.328 103.882 113.824 103.882 112.032Z" fill="#FCFCFC"/>
</g>
<defs>
<filter id="filter0_d_5340_2266" x="-28" y="-16" width="208" height="234" filterUnits="userSpaceOnUse" color-interpolation-filters="sRGB">
<feFlood flood-opacity="0" result="BackgroundImageFix"/>
<feColorMatrix in="SourceAlpha" type="matrix" values="0 0 0 0 0 0 0 0 0 0 0 0 0 0 0 0 0 0 127 0" result="hardAlpha"/>
<feOffset dx="-4" dy="8"/>
<feGaussianBlur stdDeviation="12"/>
<feColorMatrix type="matrix" values="0 0 0 0 0 0 0 0 0 0 0 0 0 0 0 0 0 0 0.05 0"/>
<feBlend mode="normal" in2="BackgroundImageFix" result="effect1_dropShadow_5340_2266"/>
<feBlend mode="normal" in="SourceGraphic" in2="effect1_dropShadow_5340_2266" result="shape"/>
</filter>
<clipPath id="clip0_5340_2266">
<rect width="160" height="186" fill="white"/>
</clipPath>
</defs>
</svg>
