<svg width="376" height="356" viewBox="0 0 376 356" fill="none" xmlns="http://www.w3.org/2000/svg">
<rect width="376" height="356" fill="#141414"/>
<path fill-rule="evenodd" clip-rule="evenodd" d="M108.115 70.115C152.234 25.9955 223.766 25.9955 267.885 70.115C312.004 114.234 312.004 185.766 267.885 229.885C223.766 274.004 152.234 274.004 108.115 229.885C63.9955 185.766 63.9955 114.234 108.115 70.115Z" fill="#010101"/>
<path d="M188 261.683C249.681 261.683 299.683 211.681 299.683 150C299.683 88.3188 249.681 38.3164 188 38.3164C126.319 38.3164 76.3164 88.3188 76.3164 150C76.3164 211.681 126.319 261.683 188 261.683Z" fill="black"/>
<path fill-rule="evenodd" clip-rule="evenodd" d="M198.415 44.4609L200.351 44.6694L199.725 50.4723C199.08 50.3966 198.435 50.3264 197.789 50.2637L198.415 44.4609Z" fill="#FBFBFB"/>
<path fill-rule="evenodd" clip-rule="evenodd" d="M249.795 63.9453L251.367 65.0943L247.989 69.7181C247.468 69.3284 246.945 68.9446 246.419 68.5664L249.795 63.9453Z" fill="#FBFBFB"/>
<path fill-rule="evenodd" clip-rule="evenodd" d="M284.55 106.512L285.336 108.292L280.156 110.582C279.901 109.985 279.638 109.392 279.371 108.799L284.55 106.512Z" fill="#FBFBFB"/>
<path fill-rule="evenodd" clip-rule="evenodd" d="M293.366 160.753L293.157 162.688L287.484 162.076C287.562 161.432 287.63 160.786 287.695 160.141L293.366 160.753Z" fill="#FBFBFB"/>
<path fill-rule="evenodd" clip-rule="evenodd" d="M273.88 212.131L272.731 213.702L268.054 210.284C268.445 209.765 268.833 209.245 269.213 208.721L273.88 212.131Z" fill="#FBFBFB"/>
<path fill-rule="evenodd" clip-rule="evenodd" d="M231.316 246.885L229.535 247.671L227.147 242.268C227.744 242.015 228.339 241.755 228.932 241.49L231.316 246.885Z" fill="#FBFBFB"/>
<path fill-rule="evenodd" clip-rule="evenodd" d="M177.075 255.701L175.14 255.492L175.79 249.467C176.434 249.545 177.079 249.614 177.724 249.68L177.075 255.701Z" fill="#FBFBFB"/>
<path fill-rule="evenodd" clip-rule="evenodd" d="M125.697 236.22L124.125 235.071L127.762 230.094C128.281 230.485 128.802 230.872 129.327 231.252L125.697 236.22Z" fill="#FBFBFB"/>
<path fill-rule="evenodd" clip-rule="evenodd" d="M90.942 193.652L90.1553 191.871L95.8209 189.367C96.075 189.963 96.3379 190.557 96.6043 191.149L90.942 193.652Z" fill="#FBFBFB"/>
<path fill-rule="evenodd" clip-rule="evenodd" d="M82.126 139.412L82.3347 137.477L88.4879 138.14C88.4116 138.785 88.3428 139.43 88.2792 140.076L82.126 139.412Z" fill="#FBFBFB"/>
<path fill-rule="evenodd" clip-rule="evenodd" d="M101.611 88.0324L102.76 86.4609L107.683 90.0587C107.294 90.579 106.91 91.1029 106.533 91.6286L101.611 88.0324Z" fill="#FBFBFB"/>
<path fill-rule="evenodd" clip-rule="evenodd" d="M144.177 53.2768L145.957 52.4902L148.362 57.933C147.767 58.1894 147.175 58.4544 146.583 58.7231L144.177 53.2768Z" fill="#FBFBFB"/>
<path fill-rule="evenodd" clip-rule="evenodd" d="M210.101 46.3047L212.001 46.7275L210.74 52.3942C210.108 52.2477 209.474 52.1061 208.84 51.9714L210.101 46.3047Z" fill="#FBFBFB"/>
<path fill-rule="evenodd" clip-rule="evenodd" d="M258.993 71.3848L260.427 72.7012L256.559 76.9165C256.085 76.4717 255.611 76.0266 255.131 75.5929L258.993 71.3848Z" fill="#FBFBFB"/>
<path fill-rule="evenodd" clip-rule="evenodd" d="M288.796 117.553L289.38 119.411L283.973 121.111C283.786 120.489 283.596 119.869 283.397 119.251L288.796 117.553Z" fill="#FBFBFB"/>
<path fill-rule="evenodd" clip-rule="evenodd" d="M291.523 172.435L291.1 174.335L285.521 173.094C285.67 172.462 285.817 171.83 285.953 171.195L291.523 172.435Z" fill="#FBFBFB"/>
<path fill-rule="evenodd" clip-rule="evenodd" d="M266.443 221.329L265.127 222.763L260.835 218.824C261.282 218.352 261.723 217.876 262.159 217.396L266.443 221.329Z" fill="#FBFBFB"/>
<path fill-rule="evenodd" clip-rule="evenodd" d="M220.276 251.131L218.419 251.715L216.638 246.049C217.259 245.864 217.879 245.672 218.498 245.475L220.276 251.131Z" fill="#FBFBFB"/>
<path fill-rule="evenodd" clip-rule="evenodd" d="M165.393 253.857L163.492 253.434L164.813 247.498C165.445 247.647 166.078 247.795 166.711 247.932L165.393 253.857Z" fill="#FBFBFB"/>
<path fill-rule="evenodd" clip-rule="evenodd" d="M116.5 228.779L115.065 227.463L119.249 222.904C119.722 223.351 120.197 223.792 120.677 224.228L116.5 228.779Z" fill="#FBFBFB"/>
<path fill-rule="evenodd" clip-rule="evenodd" d="M86.6955 182.61L86.1113 180.752L92.0268 178.893C92.2134 179.514 92.4023 180.134 92.6016 180.752L86.6955 182.61Z" fill="#FBFBFB"/>
<path fill-rule="evenodd" clip-rule="evenodd" d="M83.9688 127.731L84.3917 125.83L90.4157 127.171C90.2684 127.803 90.1253 128.436 89.9901 129.071L83.9688 127.731Z" fill="#FBFBFB"/>
<path fill-rule="evenodd" clip-rule="evenodd" d="M109.05 78.8329L110.366 77.3984L114.848 81.5118C114.404 81.9861 113.96 82.4603 113.526 82.9412L109.05 78.8329Z" fill="#FBFBFB"/>
<path fill-rule="evenodd" clip-rule="evenodd" d="M155.216 49.0313L157.073 48.4473L158.852 54.1041C158.231 54.2924 157.611 54.4829 156.993 54.6833L155.216 49.0313Z" fill="#FBFBFB"/>
<path fill-rule="evenodd" clip-rule="evenodd" d="M220.552 49.1191L222.4 49.7334L220.579 55.2108C219.964 55.0001 219.35 54.7916 218.732 54.5932L220.552 49.1191Z" fill="#FBFBFB"/>
<path fill-rule="evenodd" clip-rule="evenodd" d="M266.639 79.0488L267.932 80.5044L263.665 84.2939C263.239 83.8047 262.813 83.3167 262.377 82.8341L266.639 79.0488Z" fill="#FBFBFB"/>
<path fill-rule="evenodd" clip-rule="evenodd" d="M291.584 128.012L291.976 129.919L286.414 131.062C286.292 130.424 286.161 129.789 286.026 129.154L291.584 128.012Z" fill="#FBFBFB"/>
<path fill-rule="evenodd" clip-rule="evenodd" d="M288.708 182.888L288.094 184.735L282.668 182.931C282.881 182.318 283.088 181.703 283.288 181.086L288.708 182.888Z" fill="#FBFBFB"/>
<path fill-rule="evenodd" clip-rule="evenodd" d="M258.778 228.973L257.322 230.265L253.44 225.894C253.931 225.47 254.417 225.042 254.901 224.607L258.778 228.973Z" fill="#FBFBFB"/>
<path fill-rule="evenodd" clip-rule="evenodd" d="M209.816 253.921L207.909 254.313L206.706 248.456C207.344 248.336 207.979 248.208 208.615 248.074L209.816 253.921Z" fill="#FBFBFB"/>
<path fill-rule="evenodd" clip-rule="evenodd" d="M154.939 251.04L153.092 250.426L155.013 244.646C155.627 244.86 156.242 245.066 156.858 245.267L154.939 251.04Z" fill="#FBFBFB"/>
<path fill-rule="evenodd" clip-rule="evenodd" d="M108.854 221.111L107.562 219.656L112.194 215.541C112.618 216.031 113.047 216.518 113.481 217.002L108.854 221.111Z" fill="#FBFBFB"/>
<path fill-rule="evenodd" clip-rule="evenodd" d="M83.9086 172.153L83.5166 170.245L89.5955 168.996C89.7179 169.633 89.8503 170.268 89.9855 170.904L83.9086 172.153Z" fill="#FBFBFB"/>
<path fill-rule="evenodd" clip-rule="evenodd" d="M86.7861 117.277L87.4005 115.43L93.2312 117.368C93.0207 117.982 92.8115 118.597 92.6128 119.214L86.7861 117.277Z" fill="#FBFBFB"/>
<path fill-rule="evenodd" clip-rule="evenodd" d="M116.716 71.1911L118.172 69.8984L122.194 74.4267C121.705 74.8525 121.218 75.2809 120.736 75.7172L116.716 71.1911Z" fill="#FBFBFB"/>
<path fill-rule="evenodd" clip-rule="evenodd" d="M165.678 46.2416L167.585 45.8496L168.774 51.6368C168.137 51.7607 167.502 51.8935 166.867 52.0295L165.678 46.2416Z" fill="#FBFBFB"/>
<path fill-rule="evenodd" clip-rule="evenodd" d="M230.258 52.8105L232.037 53.6029L229.699 58.8533C229.109 58.5835 228.517 58.3145 227.923 58.0563L230.258 52.8105Z" fill="#FBFBFB"/>
<path fill-rule="evenodd" clip-rule="evenodd" d="M273.201 87.0977L274.345 88.6727L269.744 92.0157C269.368 91.4877 268.989 90.9611 268.603 90.4386L273.201 87.0977Z" fill="#FBFBFB"/>
<path fill-rule="evenodd" clip-rule="evenodd" d="M293.244 138.26L293.447 140.196L287.787 140.791C287.728 140.145 287.66 139.5 287.588 138.855L293.244 138.26Z" fill="#FBFBFB"/>
<path fill-rule="evenodd" clip-rule="evenodd" d="M285.02 192.595L284.228 194.374L278.993 192.044C279.265 191.454 279.531 190.862 279.791 190.268L285.02 192.595Z" fill="#FBFBFB"/>
<path fill-rule="evenodd" clip-rule="evenodd" d="M250.731 235.533L249.156 236.677L245.71 231.935C246.24 231.561 246.768 231.186 247.292 230.801L250.731 235.533Z" fill="#FBFBFB"/>
<path fill-rule="evenodd" clip-rule="evenodd" d="M199.567 255.58L197.631 255.783L197.002 249.804C197.648 249.746 198.294 249.68 198.939 249.609L199.567 255.58Z" fill="#FBFBFB"/>
<path fill-rule="evenodd" clip-rule="evenodd" d="M145.235 247.357L143.456 246.565L145.939 240.986C146.529 241.259 147.121 241.524 147.715 241.785L145.235 247.357Z" fill="#FBFBFB"/>
<path fill-rule="evenodd" clip-rule="evenodd" d="M102.293 213.068L101.149 211.493L106.161 207.852C106.536 208.38 106.913 208.908 107.299 209.431L102.293 213.068Z" fill="#FBFBFB"/>
<path fill-rule="evenodd" clip-rule="evenodd" d="M82.2489 161.904L82.0459 159.968L88.2216 159.318C88.2813 159.964 88.351 160.61 88.4235 161.255L82.2489 161.904Z" fill="#FBFBFB"/>
<path fill-rule="evenodd" clip-rule="evenodd" d="M90.4727 107.57L91.2648 105.791L96.859 108.282C96.5892 108.872 96.3202 109.462 96.062 110.057L90.4727 107.57Z" fill="#FBFBFB"/>
<path fill-rule="evenodd" clip-rule="evenodd" d="M124.761 64.6304L126.336 63.4863L129.875 68.3572C129.348 68.7338 128.822 69.1141 128.3 69.5018L124.761 64.6304Z" fill="#FBFBFB"/>
<path fill-rule="evenodd" clip-rule="evenodd" d="M175.926 44.5841L177.862 44.3809L178.478 50.2377C177.832 50.299 177.187 50.3709 176.542 50.4444L175.926 44.5841Z" fill="#FBFBFB"/>
<path fill-rule="evenodd" clip-rule="evenodd" d="M126.438 64.1133L129.64 67.1307L202.661 165.761L200.522 167.228L126.438 64.1133Z" fill="#2D2D2D"/>
<g style="mix-blend-mode:multiply">
<path fill-rule="evenodd" clip-rule="evenodd" d="M187.336 91.7578H191.532L193.139 155.139L189.415 156.856L187.336 91.7578Z" fill="#2D2D2D"/>
</g>
<g style="mix-blend-mode:multiply">
<path fill-rule="evenodd" clip-rule="evenodd" d="M287.84 132.916L285.513 138.684L188.455 157.239L181.91 153.073L287.84 132.916Z" fill="#2D2D2D"/>
</g>
<path fill-rule="evenodd" clip-rule="evenodd" d="M185.114 91.293L184.718 154.483L190.732 154.416L190.477 91.293H185.114Z" fill="url(#paint0_linear_5497_4753)"/>
<path fill-rule="evenodd" clip-rule="evenodd" d="M284.65 130.555L285.606 136.234L179.295 154.484L178.125 146.788L284.65 130.555Z" fill="url(#paint1_linear_5497_4753)"/>
<path d="M126.287 64.1133L127.423 66.7893L185.55 147.471C185.723 147.182 185.955 146.923 186.244 146.713C186.528 146.507 186.84 146.368 187.161 146.293L128.488 66.0167L126.287 64.1133Z" fill="#FF1A1A"/>
<path fill-rule="evenodd" clip-rule="evenodd" d="M199.838 163.639L189.943 150.1L189.94 150.104C190.453 149.25 190.44 148.138 189.818 147.281C188.987 146.137 187.387 145.883 186.243 146.713C185.099 147.543 184.844 149.144 185.675 150.288C186.294 151.141 187.342 151.498 188.309 151.28C188.305 151.281 188.301 151.284 188.296 151.285L198.104 164.898L200.522 167.227L201.345 166.631L199.838 163.639Z" fill="#FF1A1A"/>
<path d="M190.499 52.1635V43.1191H185.977V52.1635C187.484 52.1337 188.991 52.1337 190.499 52.1635Z" fill="white"/>
<path d="M141.298 64.3567L136.791 56.5156L132.87 58.7694L137.378 66.6105C138.67 65.8334 139.976 65.0822 141.298 64.3567Z" fill="white"/>
<path d="M104.827 98.9979L97.0185 94.4336L94.7363 98.3377L102.545 102.902C103.28 101.585 104.04 100.284 104.827 98.9979Z" fill="white"/>
<path d="M90.2126 147.043L81.1709 147.262L81.2801 151.782L90.322 151.564C90.2559 150.057 90.2192 148.551 90.2126 147.043Z" fill="white"/>
<path d="M189.183 247.43V256.474H184.661V247.43C186.169 247.459 187.676 247.46 189.183 247.43Z" fill="white"/>
<path d="M139.978 235.892L135.47 243.733L131.55 241.48L136.057 233.639C137.35 234.416 138.656 235.167 139.978 235.892Z" fill="white"/>
<path d="M104.15 201.035L96.3417 205.599L94.0596 201.695L101.868 197.131C102.603 198.447 103.363 199.748 104.15 201.035Z" fill="white"/>
<path d="M233.699 236.293L238.207 244.134L242.127 241.88L237.62 234.039C236.328 234.816 235.021 235.567 233.699 236.293Z" fill="white"/>
<path d="M271.435 99.8826L279.243 95.3184L281.525 99.2224L273.717 103.787C272.982 102.47 272.221 101.169 271.435 99.8826Z" fill="white"/>
<path d="M285.238 148.457L294.28 148.676L294.171 153.196L285.129 152.978C285.195 151.471 285.232 149.965 285.238 148.457Z" fill="white"/>
<path d="M270.099 201.437L277.907 206.002L280.189 202.098L272.381 197.533C271.646 198.85 270.885 200.151 270.099 201.437Z" fill="white"/>
<path d="M234.919 64.8939L239.427 57.0527L243.347 59.3065L238.839 67.1476C237.547 66.3704 236.241 65.6193 234.919 64.8939Z" fill="white"/>
<path d="M139.009 289.818V316H135.378L122.07 296.798H121.827V316H117.876V289.818H121.533L134.854 309.045H135.097V289.818H139.009ZM152.927 316.396C150.993 316.396 149.326 315.983 147.929 315.156C146.539 314.321 145.466 313.149 144.707 311.641C143.957 310.124 143.582 308.347 143.582 306.31C143.582 304.298 143.957 302.526 144.707 300.991C145.466 299.457 146.522 298.26 147.877 297.399C149.241 296.538 150.835 296.108 152.659 296.108C153.767 296.108 154.841 296.291 155.88 296.658C156.92 297.024 157.853 297.599 158.68 298.384C159.507 299.168 160.159 300.186 160.636 301.439C161.113 302.683 161.352 304.196 161.352 305.977V307.332H145.743V304.469H157.606C157.606 303.463 157.402 302.572 156.993 301.797C156.583 301.013 156.008 300.395 155.267 299.943C154.534 299.491 153.673 299.266 152.684 299.266C151.61 299.266 150.673 299.53 149.872 300.058C149.079 300.578 148.466 301.26 148.031 302.104C147.605 302.939 147.392 303.847 147.392 304.827V307.064C147.392 308.376 147.622 309.493 148.082 310.413C148.551 311.334 149.203 312.037 150.038 312.523C150.873 313 151.849 313.239 152.966 313.239C153.69 313.239 154.35 313.136 154.947 312.932C155.544 312.719 156.059 312.403 156.494 311.986C156.929 311.568 157.261 311.053 157.491 310.439L161.109 311.091C160.819 312.156 160.299 313.089 159.549 313.891C158.808 314.683 157.875 315.301 156.75 315.744C155.633 316.179 154.359 316.396 152.927 316.396ZM169.815 316L164.037 296.364H167.987L171.835 310.784H172.027L175.887 296.364H179.838L183.673 310.72H183.865L187.687 296.364H191.637L185.872 316H181.973L177.984 301.822H177.69L173.701 316H169.815ZM203.079 289.818H207.566L214.406 301.72H214.687L221.527 289.818H226.014L216.515 305.722V316H212.578V305.722L203.079 289.818ZM234.474 316.396C232.633 316.396 231.026 315.974 229.654 315.131C228.282 314.287 227.217 313.107 226.458 311.589C225.7 310.072 225.32 308.3 225.32 306.271C225.32 304.234 225.7 302.453 226.458 300.928C227.217 299.402 228.282 298.217 229.654 297.374C231.026 296.53 232.633 296.108 234.474 296.108C236.315 296.108 237.921 296.53 239.293 297.374C240.665 298.217 241.731 299.402 242.489 300.928C243.248 302.453 243.627 304.234 243.627 306.271C243.627 308.3 243.248 310.072 242.489 311.589C241.731 313.107 240.665 314.287 239.293 315.131C237.921 315.974 236.315 316.396 234.474 316.396ZM234.487 313.188C235.68 313.188 236.668 312.872 237.452 312.241C238.237 311.611 238.816 310.771 239.191 309.723C239.575 308.675 239.766 307.52 239.766 306.259C239.766 305.006 239.575 303.855 239.191 302.807C238.816 301.75 238.237 300.902 237.452 300.263C236.668 299.624 235.68 299.304 234.487 299.304C233.285 299.304 232.288 299.624 231.495 300.263C230.711 300.902 230.127 301.75 229.744 302.807C229.369 303.855 229.181 305.006 229.181 306.259C229.181 307.52 229.369 308.675 229.744 309.723C230.127 310.771 230.711 311.611 231.495 312.241C232.288 312.872 233.285 313.188 234.487 313.188ZM247.894 316V296.364H251.588V299.483H251.793C252.151 298.426 252.782 297.595 253.685 296.99C254.597 296.376 255.628 296.07 256.779 296.07C257.017 296.07 257.299 296.078 257.623 296.095C257.955 296.112 258.215 296.134 258.402 296.159V299.815C258.249 299.773 257.976 299.726 257.584 299.675C257.192 299.615 256.8 299.585 256.408 299.585C255.505 299.585 254.699 299.777 253.992 300.161C253.293 300.536 252.739 301.06 252.33 301.733C251.921 302.398 251.716 303.156 251.716 304.009V316H247.894ZM265.226 309.339L265.2 304.673H265.865L273.689 296.364H278.266L269.342 305.824H268.741L265.226 309.339ZM261.71 316V289.818H265.533V316H261.71ZM274.111 316L267.08 306.668L269.713 303.996L278.803 316H274.111Z" fill="white"/>
<defs>
<linearGradient id="paint0_linear_5497_4753" x1="187.16" y1="96.8568" x2="188.171" y2="157.031" gradientUnits="userSpaceOnUse">
<stop stop-color="white"/>
<stop offset="0.24216" stop-color="#FAFBFC"/>
<stop offset="0.44981" stop-color="#EEEFF0"/>
<stop offset="0.56242" stop-color="#E8E8E9"/>
<stop offset="0.97637" stop-color="#D0D1D1"/>
</linearGradient>
<linearGradient id="paint1_linear_5497_4753" x1="234.921" y1="100.77" x2="230.37" y2="161.45" gradientUnits="userSpaceOnUse">
<stop stop-color="white"/>
<stop offset="0.24216" stop-color="#FAFBFC"/>
<stop offset="0.44981" stop-color="#EEEFF0"/>
<stop offset="0.56242" stop-color="#E8E8E9"/>
<stop offset="0.97637" stop-color="#D0D1D1"/>
</linearGradient>
</defs>
</svg>
