<svg width="795" height="1393" viewBox="0 0 795 1393" fill="none" xmlns="http://www.w3.org/2000/svg">
<rect width="167" height="139" rx="15" fill="#282828"/>
<rect y="596" width="112" height="103" rx="10" fill="#282828"/>
<rect x="124" y="596" width="111" height="103" rx="10" fill="#282828"/>
<rect x="246" y="596" width="111" height="103" rx="10" fill="#282828"/>
<rect x="369" y="596" width="112" height="103" rx="10" fill="#282828"/>
<rect x="181" width="300" height="288" rx="15" fill="#282828"/>
<rect y="709" width="235" height="218" rx="15" fill="#282828"/>
<rect x="495" y="940" width="300" height="218" rx="15" fill="#282828"/>
<rect y="942" width="481" height="218" rx="15" fill="#282828"/>
<rect x="1" y="1175" width="794" height="218" rx="15" fill="#282828"/>
<rect x="247" y="709" width="235" height="218" rx="15" fill="#282828"/>
<rect y="298" width="481" height="288" rx="15" fill="#282828"/>
<rect x="495" width="300" height="84" rx="15" fill="#282828"/>
<rect x="495" y="97" width="300" height="212" rx="15" fill="#282828"/>
<rect x="495" y="322" width="300" height="605" rx="15" fill="#282828"/>
<rect y="149" width="167" height="139" rx="15" fill="#282828"/>
</svg>
