<svg width="437" height="402" viewBox="0 0 437 402" fill="none" xmlns="http://www.w3.org/2000/svg">
<g clip-path="url(#clip0_5339_1503)">
<g filter="url(#filter0_d_5339_1503)">
<mask id="mask0_5339_1503" style="mask-type:luminance" maskUnits="userSpaceOnUse" x="0" y="0" width="437" height="402">
<rect width="437" height="402" rx="20" fill="white"/>
</mask>
<g mask="url(#mask0_5339_1503)">
<rect width="437" height="402" fill="#18191B"/>
</g>
</g>
<g clip-path="url(#clip1_5339_1503)">
<path d="M322.032 346.66C323.824 345.111 325.233 343.841 326.26 342.852C327.305 341.844 328.173 340.799 328.864 339.716C329.555 338.633 329.9 337.551 329.9 336.468C329.9 335.348 329.629 334.471 329.088 333.836C328.565 333.201 327.735 332.884 326.596 332.884C325.495 332.884 324.636 333.239 324.02 333.948C323.423 334.639 323.105 335.572 323.068 336.748H319.988C320.044 334.62 320.679 332.996 321.892 331.876C323.124 330.737 324.683 330.168 326.568 330.168C328.603 330.168 330.189 330.728 331.328 331.848C332.485 332.968 333.064 334.461 333.064 336.328C333.064 337.672 332.719 338.969 332.028 340.22C331.356 341.452 330.544 342.563 329.592 343.552C328.659 344.523 327.464 345.652 326.008 346.94L324.748 348.06H333.624V350.72H320.016V348.396L322.032 346.66ZM336.428 340.528C336.428 337.299 336.97 334.779 338.052 332.968C339.154 331.139 341.039 330.224 343.708 330.224C346.378 330.224 348.254 331.139 349.336 332.968C350.438 334.779 350.988 337.299 350.988 340.528C350.988 343.795 350.438 346.352 349.336 348.2C348.254 350.029 346.378 350.944 343.708 350.944C341.039 350.944 339.154 350.029 338.052 348.2C336.97 346.352 336.428 343.795 336.428 340.528ZM347.852 340.528C347.852 339.016 347.75 337.737 347.544 336.692C347.358 335.647 346.966 334.797 346.368 334.144C345.771 333.472 344.884 333.136 343.708 333.136C342.532 333.136 341.646 333.472 341.048 334.144C340.451 334.797 340.05 335.647 339.844 336.692C339.658 337.737 339.564 339.016 339.564 340.528C339.564 342.096 339.658 343.412 339.844 344.476C340.031 345.54 340.423 346.399 341.02 347.052C341.636 347.705 342.532 348.032 343.708 348.032C344.884 348.032 345.771 347.705 346.368 347.052C346.984 346.399 347.386 345.54 347.572 344.476C347.759 343.412 347.852 342.096 347.852 340.528ZM354.366 340.528C354.366 337.299 354.907 334.779 355.99 332.968C357.091 331.139 358.976 330.224 361.646 330.224C364.315 330.224 366.191 331.139 367.274 332.968C368.375 334.779 368.926 337.299 368.926 340.528C368.926 343.795 368.375 346.352 367.274 348.2C366.191 350.029 364.315 350.944 361.646 350.944C358.976 350.944 357.091 350.029 355.99 348.2C354.907 346.352 354.366 343.795 354.366 340.528ZM365.79 340.528C365.79 339.016 365.687 337.737 365.482 336.692C365.295 335.647 364.903 334.797 364.306 334.144C363.708 333.472 362.822 333.136 361.646 333.136C360.47 333.136 359.583 333.472 358.986 334.144C358.388 334.797 357.987 335.647 357.782 336.692C357.595 337.737 357.502 339.016 357.502 340.528C357.502 342.096 357.595 343.412 357.782 344.476C357.968 345.54 358.36 346.399 358.958 347.052C359.574 347.705 360.47 348.032 361.646 348.032C362.822 348.032 363.708 347.705 364.306 347.052C364.922 346.399 365.323 345.54 365.51 344.476C365.696 343.412 365.79 342.096 365.79 340.528Z" fill="white"/>
<path d="M330.476 360.242C331.54 360.242 332.46 360.443 333.234 360.844C334.018 361.236 334.616 361.801 335.026 362.538C335.446 363.275 335.656 364.143 335.656 365.142C335.656 366.141 335.446 367.009 335.026 367.746C334.616 368.474 334.018 369.034 333.234 369.426C332.46 369.809 331.54 370 330.476 370H327.438V360.242H330.476ZM330.476 368.95C331.736 368.95 332.698 368.619 333.36 367.956C334.023 367.284 334.354 366.346 334.354 365.142C334.354 363.929 334.018 362.981 333.346 362.3C332.684 361.619 331.727 361.278 330.476 361.278H328.712V368.95H330.476ZM340.683 370.126C339.964 370.126 339.311 369.963 338.723 369.636C338.144 369.309 337.687 368.847 337.351 368.25C337.024 367.643 336.861 366.943 336.861 366.15C336.861 365.366 337.029 364.675 337.365 364.078C337.71 363.471 338.177 363.009 338.765 362.692C339.353 362.365 340.011 362.202 340.739 362.202C341.467 362.202 342.125 362.365 342.713 362.692C343.301 363.009 343.763 363.467 344.099 364.064C344.444 364.661 344.617 365.357 344.617 366.15C344.617 366.943 344.439 367.643 344.085 368.25C343.739 368.847 343.268 369.309 342.671 369.636C342.073 369.963 341.411 370.126 340.683 370.126ZM340.683 369.006C341.14 369.006 341.569 368.899 341.971 368.684C342.372 368.469 342.694 368.147 342.937 367.718C343.189 367.289 343.315 366.766 343.315 366.15C343.315 365.534 343.193 365.011 342.951 364.582C342.708 364.153 342.391 363.835 341.999 363.63C341.607 363.415 341.182 363.308 340.725 363.308C340.258 363.308 339.829 363.415 339.437 363.63C339.054 363.835 338.746 364.153 338.513 364.582C338.279 365.011 338.163 365.534 338.163 366.15C338.163 366.775 338.275 367.303 338.499 367.732C338.732 368.161 339.04 368.483 339.423 368.698C339.805 368.903 340.225 369.006 340.683 369.006ZM350.03 362.188C350.963 362.188 351.719 362.473 352.298 363.042C352.876 363.602 353.166 364.414 353.166 365.478V370H351.906V365.66C351.906 364.895 351.714 364.311 351.332 363.91C350.949 363.499 350.426 363.294 349.764 363.294C349.092 363.294 348.555 363.504 348.154 363.924C347.762 364.344 347.566 364.955 347.566 365.758V370H346.292V362.328H347.566V363.42C347.818 363.028 348.158 362.725 348.588 362.51C349.026 362.295 349.507 362.188 350.03 362.188ZM362.247 365.87C362.247 366.113 362.233 366.369 362.205 366.64H356.073C356.12 367.396 356.376 367.989 356.843 368.418C357.319 368.838 357.893 369.048 358.565 369.048C359.116 369.048 359.573 368.922 359.937 368.67C360.31 368.409 360.572 368.063 360.721 367.634H362.093C361.888 368.371 361.477 368.973 360.861 369.44C360.245 369.897 359.48 370.126 358.565 370.126C357.837 370.126 357.184 369.963 356.605 369.636C356.036 369.309 355.588 368.847 355.261 368.25C354.934 367.643 354.771 366.943 354.771 366.15C354.771 365.357 354.93 364.661 355.247 364.064C355.564 363.467 356.008 363.009 356.577 362.692C357.156 362.365 357.818 362.202 358.565 362.202C359.293 362.202 359.937 362.361 360.497 362.678C361.057 362.995 361.486 363.434 361.785 363.994C362.093 364.545 362.247 365.17 362.247 365.87ZM360.931 365.604C360.931 365.119 360.824 364.703 360.609 364.358C360.394 364.003 360.1 363.737 359.727 363.56C359.363 363.373 358.957 363.28 358.509 363.28C357.865 363.28 357.314 363.485 356.857 363.896C356.409 364.307 356.152 364.876 356.087 365.604H360.931Z" fill="#8A9099"/>
<mask id="mask1_5339_1503" style="mask-type:luminance" maskUnits="userSpaceOnUse" x="340" y="315" width="9" height="6">
<rect x="340.859" y="315" width="7.49143" height="6" rx="2" fill="white"/>
</mask>
<g mask="url(#mask1_5339_1503)">
<rect x="340.859" y="315" width="7.49143" height="6" fill="#FFD240"/>
</g>
</g>
<g clip-path="url(#clip2_5339_1503)">
<path d="M200 346.66C201.792 345.111 203.202 343.841 204.228 342.852C205.274 341.844 206.142 340.799 206.832 339.716C207.523 338.633 207.868 337.551 207.868 336.468C207.868 335.348 207.598 334.471 207.056 333.836C206.534 333.201 205.703 332.884 204.564 332.884C203.463 332.884 202.604 333.239 201.988 333.948C201.391 334.639 201.074 335.572 201.036 336.748H197.956C198.012 334.62 198.647 332.996 199.86 331.876C201.092 330.737 202.651 330.168 204.536 330.168C206.571 330.168 208.158 330.728 209.296 331.848C210.454 332.968 211.032 334.461 211.032 336.328C211.032 337.672 210.687 338.969 209.996 340.22C209.324 341.452 208.512 342.563 207.56 343.552C206.627 344.523 205.432 345.652 203.976 346.94L202.716 348.06H211.592V350.72H197.984V348.396L200 346.66ZM213.977 333.5V330.588H219.801V351H216.581V333.5H213.977ZM224.186 340.528C224.186 337.299 224.727 334.779 225.81 332.968C226.911 331.139 228.796 330.224 231.466 330.224C234.135 330.224 236.011 331.139 237.094 332.968C238.195 334.779 238.746 337.299 238.746 340.528C238.746 343.795 238.195 346.352 237.094 348.2C236.011 350.029 234.135 350.944 231.466 350.944C228.796 350.944 226.911 350.029 225.81 348.2C224.727 346.352 224.186 343.795 224.186 340.528ZM235.61 340.528C235.61 339.016 235.507 337.737 235.302 336.692C235.115 335.647 234.723 334.797 234.126 334.144C233.528 333.472 232.642 333.136 231.466 333.136C230.29 333.136 229.403 333.472 228.806 334.144C228.208 334.797 227.807 335.647 227.602 336.692C227.415 337.737 227.322 339.016 227.322 340.528C227.322 342.096 227.415 343.412 227.602 344.476C227.788 345.54 228.18 346.399 228.778 347.052C229.394 347.705 230.29 348.032 231.466 348.032C232.642 348.032 233.528 347.705 234.126 347.052C234.742 346.399 235.143 345.54 235.33 344.476C235.516 343.412 235.61 342.096 235.61 340.528Z" fill="white"/>
<path d="M211.319 360.242V370H210.045V365.576H205.075V370H203.801V360.242H205.075V364.526H210.045V360.242H211.319ZM216.841 370.126C216.122 370.126 215.469 369.963 214.881 369.636C214.302 369.309 213.845 368.847 213.509 368.25C213.182 367.643 213.019 366.943 213.019 366.15C213.019 365.366 213.187 364.675 213.523 364.078C213.868 363.471 214.335 363.009 214.923 362.692C215.511 362.365 216.169 362.202 216.897 362.202C217.625 362.202 218.283 362.365 218.871 362.692C219.459 363.009 219.921 363.467 220.257 364.064C220.602 364.661 220.775 365.357 220.775 366.15C220.775 366.943 220.597 367.643 220.243 368.25C219.897 368.847 219.426 369.309 218.829 369.636C218.231 369.963 217.569 370.126 216.841 370.126ZM216.841 369.006C217.298 369.006 217.727 368.899 218.129 368.684C218.53 368.469 218.852 368.147 219.095 367.718C219.347 367.289 219.473 366.766 219.473 366.15C219.473 365.534 219.351 365.011 219.109 364.582C218.866 364.153 218.549 363.835 218.157 363.63C217.765 363.415 217.34 363.308 216.883 363.308C216.416 363.308 215.987 363.415 215.595 363.63C215.212 363.835 214.904 364.153 214.671 364.582C214.437 365.011 214.321 365.534 214.321 366.15C214.321 366.775 214.433 367.303 214.657 367.732C214.89 368.161 215.198 368.483 215.581 368.698C215.963 368.903 216.383 369.006 216.841 369.006ZM223.724 359.64V370H222.45V359.64H223.724ZM225.419 366.136C225.419 365.352 225.578 364.666 225.895 364.078C226.212 363.481 226.646 363.019 227.197 362.692C227.757 362.365 228.382 362.202 229.073 362.202C229.67 362.202 230.226 362.342 230.739 362.622C231.252 362.893 231.644 363.252 231.915 363.7V359.64H233.203V370H231.915V368.558C231.663 369.015 231.29 369.393 230.795 369.692C230.3 369.981 229.722 370.126 229.059 370.126C228.378 370.126 227.757 369.958 227.197 369.622C226.646 369.286 226.212 368.815 225.895 368.208C225.578 367.601 225.419 366.911 225.419 366.136ZM231.915 366.15C231.915 365.571 231.798 365.067 231.565 364.638C231.332 364.209 231.014 363.882 230.613 363.658C230.221 363.425 229.787 363.308 229.311 363.308C228.835 363.308 228.401 363.42 228.009 363.644C227.617 363.868 227.304 364.195 227.071 364.624C226.838 365.053 226.721 365.557 226.721 366.136C226.721 366.724 226.838 367.237 227.071 367.676C227.304 368.105 227.617 368.437 228.009 368.67C228.401 368.894 228.835 369.006 229.311 369.006C229.787 369.006 230.221 368.894 230.613 368.67C231.014 368.437 231.332 368.105 231.565 367.676C231.798 367.237 231.915 366.729 231.915 366.15Z" fill="#8A9099"/>
<mask id="mask2_5339_1503" style="mask-type:luminance" maskUnits="userSpaceOnUse" x="214" y="315" width="9" height="6">
<rect x="214.755" y="315" width="7.49143" height="6" rx="2" fill="white"/>
</mask>
<g mask="url(#mask2_5339_1503)">
<rect x="214.755" y="315" width="7.49143" height="6" fill="#304FFD"/>
</g>
</g>
<g clip-path="url(#clip3_5339_1503)">
<path d="M68.1935 346.744V344.336L77.6015 330.84H81.4655V343.972H84.0695V346.744H81.4655V351H78.3295V346.744H68.1935ZM78.4695 334.088L71.8615 343.972H78.4695V334.088ZM88.4784 346.66C90.2704 345.111 91.6797 343.841 92.7064 342.852C93.7517 341.844 94.6197 340.799 95.3104 339.716C96.0011 338.633 96.3464 337.551 96.3464 336.468C96.3464 335.348 96.0757 334.471 95.5344 333.836C95.0117 333.201 94.1811 332.884 93.0424 332.884C91.9411 332.884 91.0824 333.239 90.4664 333.948C89.8691 334.639 89.5517 335.572 89.5144 336.748H86.4344C86.4904 334.62 87.1251 332.996 88.3384 331.876C89.5704 330.737 91.1291 330.168 93.0144 330.168C95.0491 330.168 96.6357 330.728 97.7744 331.848C98.9317 332.968 99.5104 334.461 99.5104 336.328C99.5104 337.672 99.1651 338.969 98.4744 340.22C97.8024 341.452 96.9904 342.563 96.0384 343.552C95.1051 344.523 93.9104 345.652 92.4544 346.94L91.1944 348.06H100.07V350.72H86.4624V348.396L88.4784 346.66ZM102.875 340.528C102.875 337.299 103.416 334.779 104.499 332.968C105.6 331.139 107.485 330.224 110.155 330.224C112.824 330.224 114.7 331.139 115.783 332.968C116.884 334.779 117.435 337.299 117.435 340.528C117.435 343.795 116.884 346.352 115.783 348.2C114.7 350.029 112.824 350.944 110.155 350.944C107.485 350.944 105.6 350.029 104.499 348.2C103.416 346.352 102.875 343.795 102.875 340.528ZM114.299 340.528C114.299 339.016 114.196 337.737 113.991 336.692C113.804 335.647 113.412 334.797 112.815 334.144C112.217 333.472 111.331 333.136 110.155 333.136C108.979 333.136 108.092 333.472 107.495 334.144C106.897 334.797 106.496 335.647 106.291 336.692C106.104 337.737 106.011 339.016 106.011 340.528C106.011 342.096 106.104 343.412 106.291 344.476C106.477 345.54 106.869 346.399 107.467 347.052C108.083 347.705 108.979 348.032 110.155 348.032C111.331 348.032 112.217 347.705 112.815 347.052C113.431 346.399 113.832 345.54 114.019 344.476C114.205 343.412 114.299 342.096 114.299 340.528Z" fill="white"/>
<path d="M67.7768 370.098C66.8715 370.098 66.0455 369.888 65.2988 369.468C64.5521 369.039 63.9595 368.446 63.5208 367.69C63.0915 366.925 62.8768 366.066 62.8768 365.114C62.8768 364.162 63.0915 363.308 63.5208 362.552C63.9595 361.787 64.5521 361.194 65.2988 360.774C66.0455 360.345 66.8715 360.13 67.7768 360.13C68.6915 360.13 69.5221 360.345 70.2688 360.774C71.0155 361.194 71.6035 361.782 72.0328 362.538C72.4621 363.294 72.6768 364.153 72.6768 365.114C72.6768 366.075 72.4621 366.934 72.0328 367.69C71.6035 368.446 71.0155 369.039 70.2688 369.468C69.5221 369.888 68.6915 370.098 67.7768 370.098ZM67.7768 368.992C68.4581 368.992 69.0695 368.833 69.6108 368.516C70.1615 368.199 70.5908 367.746 70.8988 367.158C71.2161 366.57 71.3748 365.889 71.3748 365.114C71.3748 364.33 71.2161 363.649 70.8988 363.07C70.5908 362.482 70.1661 362.029 69.6248 361.712C69.0835 361.395 68.4675 361.236 67.7768 361.236C67.0861 361.236 66.4701 361.395 65.9288 361.712C65.3875 362.029 64.9581 362.482 64.6408 363.07C64.3328 363.649 64.1788 364.33 64.1788 365.114C64.1788 365.889 64.3328 366.57 64.6408 367.158C64.9581 367.746 65.3875 368.199 65.9288 368.516C66.4795 368.833 67.0955 368.992 67.7768 368.992ZM78.0966 362.188C79.03 362.188 79.786 362.473 80.3646 363.042C80.9433 363.602 81.2326 364.414 81.2326 365.478V370H79.9726V365.66C79.9726 364.895 79.7813 364.311 79.3986 363.91C79.016 363.499 78.4933 363.294 77.8306 363.294C77.1586 363.294 76.622 363.504 76.2206 363.924C75.8286 364.344 75.6326 364.955 75.6326 365.758V370H74.3586V362.328H75.6326V363.42C75.8846 363.028 76.2253 362.725 76.6546 362.51C77.0933 362.295 77.574 362.188 78.0966 362.188ZM86.4777 362.202C87.1404 362.202 87.7191 362.347 88.2137 362.636C88.7177 362.925 89.0911 363.289 89.3337 363.728V362.328H90.6217V370.168C90.6217 370.868 90.4724 371.489 90.1737 372.03C89.8751 372.581 89.4457 373.01 88.8857 373.318C88.3351 373.626 87.6911 373.78 86.9537 373.78C85.9457 373.78 85.1057 373.542 84.4337 373.066C83.7617 372.59 83.3651 371.941 83.2437 371.12H84.5037C84.6437 371.587 84.9331 371.96 85.3717 372.24C85.8104 372.529 86.3377 372.674 86.9537 372.674C87.6537 372.674 88.2231 372.455 88.6617 372.016C89.1097 371.577 89.3337 370.961 89.3337 370.168V368.558C89.0817 369.006 88.7084 369.379 88.2137 369.678C87.7191 369.977 87.1404 370.126 86.4777 370.126C85.7964 370.126 85.1757 369.958 84.6157 369.622C84.0651 369.286 83.6311 368.815 83.3137 368.208C82.9964 367.601 82.8377 366.911 82.8377 366.136C82.8377 365.352 82.9964 364.666 83.3137 364.078C83.6311 363.481 84.0651 363.019 84.6157 362.692C85.1757 362.365 85.7964 362.202 86.4777 362.202ZM89.3337 366.15C89.3337 365.571 89.2171 365.067 88.9837 364.638C88.7504 364.209 88.4331 363.882 88.0317 363.658C87.6397 363.425 87.2057 363.308 86.7297 363.308C86.2537 363.308 85.8197 363.42 85.4277 363.644C85.0357 363.868 84.7231 364.195 84.4897 364.624C84.2564 365.053 84.1397 365.557 84.1397 366.136C84.1397 366.724 84.2564 367.237 84.4897 367.676C84.7231 368.105 85.0357 368.437 85.4277 368.67C85.8197 368.894 86.2537 369.006 86.7297 369.006C87.2057 369.006 87.6397 368.894 88.0317 368.67C88.4331 368.437 88.7504 368.105 88.9837 367.676C89.2171 367.237 89.3337 366.729 89.3337 366.15ZM96.1207 370.126C95.402 370.126 94.7487 369.963 94.1607 369.636C93.582 369.309 93.1247 368.847 92.7887 368.25C92.462 367.643 92.2987 366.943 92.2987 366.15C92.2987 365.366 92.4667 364.675 92.8027 364.078C93.148 363.471 93.6147 363.009 94.2027 362.692C94.7907 362.365 95.4487 362.202 96.1767 362.202C96.9047 362.202 97.5627 362.365 98.1507 362.692C98.7387 363.009 99.2007 363.467 99.5367 364.064C99.882 364.661 100.055 365.357 100.055 366.15C100.055 366.943 99.8773 367.643 99.5227 368.25C99.1773 368.847 98.706 369.309 98.1087 369.636C97.5113 369.963 96.8487 370.126 96.1207 370.126ZM96.1207 369.006C96.578 369.006 97.0073 368.899 97.4087 368.684C97.81 368.469 98.132 368.147 98.3747 367.718C98.6267 367.289 98.7527 366.766 98.7527 366.15C98.7527 365.534 98.6313 365.011 98.3887 364.582C98.146 364.153 97.8287 363.835 97.4367 363.63C97.0447 363.415 96.62 363.308 96.1627 363.308C95.696 363.308 95.2667 363.415 94.8747 363.63C94.492 363.835 94.184 364.153 93.9507 364.582C93.7173 365.011 93.6007 365.534 93.6007 366.15C93.6007 366.775 93.7127 367.303 93.9367 367.732C94.17 368.161 94.478 368.483 94.8607 368.698C95.2433 368.903 95.6633 369.006 96.1207 369.006ZM102.388 361.082C102.145 361.082 101.94 360.998 101.772 360.83C101.604 360.662 101.52 360.457 101.52 360.214C101.52 359.971 101.604 359.766 101.772 359.598C101.94 359.43 102.145 359.346 102.388 359.346C102.621 359.346 102.817 359.43 102.976 359.598C103.144 359.766 103.228 359.971 103.228 360.214C103.228 360.457 103.144 360.662 102.976 360.83C102.817 360.998 102.621 361.082 102.388 361.082ZM103.004 362.328V370H101.73V362.328H103.004ZM108.913 362.188C109.846 362.188 110.602 362.473 111.181 363.042C111.76 363.602 112.049 364.414 112.049 365.478V370H110.789V365.66C110.789 364.895 110.598 364.311 110.215 363.91C109.832 363.499 109.31 363.294 108.647 363.294C107.975 363.294 107.438 363.504 107.037 363.924C106.645 364.344 106.449 364.955 106.449 365.758V370H105.175V362.328H106.449V363.42C106.701 363.028 107.042 362.725 107.471 362.51C107.91 362.295 108.39 362.188 108.913 362.188ZM117.294 362.202C117.957 362.202 118.535 362.347 119.03 362.636C119.534 362.925 119.907 363.289 120.15 363.728V362.328H121.438V370.168C121.438 370.868 121.289 371.489 120.99 372.03C120.691 372.581 120.262 373.01 119.702 373.318C119.151 373.626 118.507 373.78 117.77 373.78C116.762 373.78 115.922 373.542 115.25 373.066C114.578 372.59 114.181 371.941 114.06 371.12H115.32C115.46 371.587 115.749 371.96 116.188 372.24C116.627 372.529 117.154 372.674 117.77 372.674C118.47 372.674 119.039 372.455 119.478 372.016C119.926 371.577 120.15 370.961 120.15 370.168V368.558C119.898 369.006 119.525 369.379 119.03 369.678C118.535 369.977 117.957 370.126 117.294 370.126C116.613 370.126 115.992 369.958 115.432 369.622C114.881 369.286 114.447 368.815 114.13 368.208C113.813 367.601 113.654 366.911 113.654 366.136C113.654 365.352 113.813 364.666 114.13 364.078C114.447 363.481 114.881 363.019 115.432 362.692C115.992 362.365 116.613 362.202 117.294 362.202ZM120.15 366.15C120.15 365.571 120.033 365.067 119.8 364.638C119.567 364.209 119.249 363.882 118.848 363.658C118.456 363.425 118.022 363.308 117.546 363.308C117.07 363.308 116.636 363.42 116.244 363.644C115.852 363.868 115.539 364.195 115.306 364.624C115.073 365.053 114.956 365.557 114.956 366.136C114.956 366.724 115.073 367.237 115.306 367.676C115.539 368.105 115.852 368.437 116.244 368.67C116.636 368.894 117.07 369.006 117.546 369.006C118.022 369.006 118.456 368.894 118.848 368.67C119.249 368.437 119.567 368.105 119.8 367.676C120.033 367.237 120.15 366.729 120.15 366.15Z" fill="#8A9099"/>
<mask id="mask3_5339_1503" style="mask-type:luminance" maskUnits="userSpaceOnUse" x="87" y="315" width="8" height="6">
<rect x="87.4004" y="315" width="7.49143" height="6" rx="2" fill="white"/>
</mask>
<g mask="url(#mask3_5339_1503)">
<rect x="87.4004" y="315" width="7.49143" height="6" fill="#FF965D"/>
</g>
</g>
<mask id="mask4_5339_1503" style="mask-type:luminance" maskUnits="userSpaceOnUse" x="154" y="322" width="3" height="56">
<rect x="154.823" y="322" width="1.24857" height="56" fill="white"/>
</mask>
<g mask="url(#mask4_5339_1503)">
<rect x="154.823" y="322" width="1.24857" height="56" fill="#5E5E5E"/>
</g>
<mask id="mask5_5339_1503" style="mask-type:luminance" maskUnits="userSpaceOnUse" x="280" y="322" width="3" height="56">
<rect x="280.929" y="322" width="1.24857" height="56" fill="white"/>
</mask>
<g mask="url(#mask5_5339_1503)">
<rect x="280.929" y="322" width="1.24857" height="56" fill="#555555"/>
</g>
<path d="M139.829 281.196C123.676 265.451 112.676 245.39 108.219 223.55C103.763 201.711 106.05 179.074 114.792 158.501C123.534 137.929 138.338 120.345 157.332 107.974C176.326 95.603 198.656 89 221.5 89C244.344 89 266.674 95.603 285.668 107.974C304.662 120.345 319.466 137.929 328.208 158.501C336.95 179.074 339.237 201.711 334.781 223.55C330.324 245.39 319.324 265.451 303.171 281.196" stroke="#4A4A4A" stroke-width="15.1732" stroke-linecap="round"/>
<path d="M155.266 266.15C142.166 253.38 133.245 237.111 129.631 219.4C126.017 201.688 127.872 183.33 134.961 166.646C142.051 149.962 154.057 135.702 169.46 125.669C184.864 115.636 202.974 110.281 221.5 110.281C240.026 110.281 258.136 115.636 273.539 125.669C288.943 135.702 300.949 149.962 308.038 166.646C315.128 183.33 316.983 201.688 313.369 219.4C309.755 237.111 300.833 253.38 287.734 266.15" stroke="#4A4A4A" stroke-width="15.1732" stroke-linecap="round"/>
<path d="M170.703 251.101C160.656 241.308 153.814 228.83 151.042 215.247C148.271 201.663 149.693 187.584 155.13 174.788C160.568 161.993 169.775 151.056 181.589 143.362C193.403 135.667 207.292 131.561 221.5 131.561C235.708 131.561 249.597 135.667 261.411 143.362C273.224 151.056 282.432 161.993 287.869 174.788C293.306 187.584 294.729 201.663 291.957 215.247C289.185 228.83 282.343 241.308 272.297 251.101" stroke="#4A4A4A" stroke-width="15.1732" stroke-linecap="round"/>
<path d="M139.829 281.196C123.312 265.096 112.191 244.492 107.934 222.103C103.677 199.715 106.485 176.594 115.986 155.793C125.487 134.992 141.235 117.488 161.151 105.591C181.068 93.6936 204.218 87.9627 227.545 89.1543" stroke="#FF9D66" stroke-width="15.1732" stroke-linecap="round"/>
<path d="M155.266 266.149C142.068 253.284 133.114 236.868 129.552 219.008C125.991 201.148 127.984 182.658 135.277 165.91" stroke="#3366FF" stroke-width="15.1732" stroke-linecap="round"/>
<path d="M170.703 251.1C161.033 241.675 154.325 229.755 151.365 216.741C148.405 203.727 149.317 190.161 153.994 177.635" stroke="#FFCC33" stroke-width="15.1732" stroke-linecap="round"/>
<mask id="mask6_5339_1503" style="mask-type:luminance" maskUnits="userSpaceOnUse" x="372" y="52" width="25" height="5">
<path fill-rule="evenodd" clip-rule="evenodd" d="M377.075 54.5004C377.075 55.8673 375.967 56.9754 374.6 56.9754C373.233 56.9754 372.125 55.8673 372.125 54.5004C372.125 53.1335 373.233 52.0254 374.6 52.0254C375.967 52.0254 377.075 53.1335 377.075 54.5004ZM386.975 54.5004C386.975 55.8673 385.867 56.9754 384.5 56.9754C383.133 56.9754 382.025 55.8673 382.025 54.5004C382.025 53.1335 383.133 52.0254 384.5 52.0254C385.867 52.0254 386.975 53.1335 386.975 54.5004ZM394.4 56.9754C395.767 56.9754 396.875 55.8673 396.875 54.5004C396.875 53.1335 395.767 52.0254 394.4 52.0254C393.033 52.0254 391.925 53.1335 391.925 54.5004C391.925 55.8673 393.033 56.9754 394.4 56.9754Z" fill="white"/>
</mask>
<g mask="url(#mask6_5339_1503)">
<rect x="368" y="38" width="33" height="33" fill="#8A9099"/>
</g>
<path d="M37.464 43.288C37.464 44.136 37.264 44.936 36.864 45.688C36.464 46.44 35.824 47.056 34.944 47.536C34.064 48 32.936 48.232 31.56 48.232H28.536V55H25.8V38.32H31.56C32.84 38.32 33.92 38.544 34.8 38.992C35.696 39.424 36.36 40.016 36.792 40.768C37.24 41.52 37.464 42.36 37.464 43.288ZM31.56 46C32.6 46 33.376 45.768 33.888 45.304C34.4 44.824 34.656 44.152 34.656 43.288C34.656 41.464 33.624 40.552 31.56 40.552H28.536V46H31.56ZM42.8094 43.696C43.2094 43.024 43.7374 42.504 44.3934 42.136C45.0654 41.752 45.8574 41.56 46.7694 41.56V44.392H46.0734C45.0014 44.392 44.1854 44.664 43.6254 45.208C43.0814 45.752 42.8094 46.696 42.8094 48.04V55H40.0734V41.776H42.8094V43.696ZM55.0204 55.216C53.7724 55.216 52.6444 54.936 51.6364 54.376C50.6284 53.8 49.8364 53 49.2604 51.976C48.6844 50.936 48.3964 49.736 48.3964 48.376C48.3964 47.032 48.6924 45.84 49.2844 44.8C49.8764 43.76 50.6844 42.96 51.7084 42.4C52.7324 41.84 53.8764 41.56 55.1404 41.56C56.4044 41.56 57.5484 41.84 58.5724 42.4C59.5964 42.96 60.4044 43.76 60.9964 44.8C61.5884 45.84 61.8844 47.032 61.8844 48.376C61.8844 49.72 61.5804 50.912 60.9724 51.952C60.3644 52.992 59.5324 53.8 58.4764 54.376C57.4364 54.936 56.2844 55.216 55.0204 55.216ZM55.0204 52.84C55.7244 52.84 56.3804 52.672 56.9884 52.336C57.6124 52 58.1164 51.496 58.5004 50.824C58.8844 50.152 59.0764 49.336 59.0764 48.376C59.0764 47.416 58.8924 46.608 58.5244 45.952C58.1564 45.28 57.6684 44.776 57.0604 44.44C56.4524 44.104 55.7964 43.936 55.0924 43.936C54.3884 43.936 53.7324 44.104 53.1244 44.44C52.5324 44.776 52.0604 45.28 51.7084 45.952C51.3564 46.608 51.1804 47.416 51.1804 48.376C51.1804 49.8 51.5404 50.904 52.2604 51.688C52.9964 52.456 53.9164 52.84 55.0204 52.84ZM65.9811 40.024C65.4851 40.024 65.0691 39.856 64.7331 39.52C64.3971 39.184 64.2291 38.768 64.2291 38.272C64.2291 37.776 64.3971 37.36 64.7331 37.024C65.0691 36.688 65.4851 36.52 65.9811 36.52C66.4611 36.52 66.8691 36.688 67.2051 37.024C67.5411 37.36 67.7091 37.776 67.7091 38.272C67.7091 38.768 67.5411 39.184 67.2051 39.52C66.8691 39.856 66.4611 40.024 65.9811 40.024ZM67.3251 57.592C67.3251 58.888 66.9971 59.824 66.3411 60.4C65.7011 60.992 64.7651 61.288 63.5331 61.288H62.1171V58.984H63.0531C63.6131 58.984 64.0051 58.872 64.2291 58.648C64.4691 58.44 64.5891 58.088 64.5891 57.592V41.776H67.3251V57.592ZM83.0372 48.064C83.0372 48.56 83.0052 49.008 82.9412 49.408H72.8372C72.9172 50.464 73.3092 51.312 74.0132 51.952C74.7172 52.592 75.5812 52.912 76.6052 52.912C78.0772 52.912 79.1172 52.296 79.7252 51.064H82.6772C82.2772 52.28 81.5492 53.28 80.4932 54.064C79.4532 54.832 78.1572 55.216 76.6052 55.216C75.3412 55.216 74.2052 54.936 73.1972 54.376C72.2052 53.8 71.4212 53 70.8452 51.976C70.2852 50.936 70.0052 49.736 70.0052 48.376C70.0052 47.016 70.2772 45.824 70.8212 44.8C71.3812 43.76 72.1572 42.96 73.1492 42.4C74.1572 41.84 75.3092 41.56 76.6052 41.56C77.8532 41.56 78.9652 41.832 79.9412 42.376C80.9172 42.92 81.6772 43.688 82.2212 44.68C82.7652 45.656 83.0372 46.784 83.0372 48.064ZM80.1812 47.2C80.1652 46.192 79.8052 45.384 79.1012 44.776C78.3972 44.168 77.5252 43.864 76.4852 43.864C75.5412 43.864 74.7332 44.168 74.0612 44.776C73.3892 45.368 72.9892 46.176 72.8612 47.2H80.1812ZM84.8177 48.376C84.8177 47.016 85.0897 45.824 85.6337 44.8C86.1937 43.76 86.9617 42.96 87.9377 42.4C88.9137 41.84 90.0337 41.56 91.2977 41.56C92.8977 41.56 94.2177 41.944 95.2577 42.712C96.3137 43.464 97.0257 44.544 97.3937 45.952H94.4417C94.2017 45.296 93.8177 44.784 93.2897 44.416C92.7617 44.048 92.0977 43.864 91.2977 43.864C90.1777 43.864 89.2817 44.264 88.6097 45.064C87.9537 45.848 87.6257 46.952 87.6257 48.376C87.6257 49.8 87.9537 50.912 88.6097 51.712C89.2817 52.512 90.1777 52.912 91.2977 52.912C92.8817 52.912 93.9297 52.216 94.4417 50.824H97.3937C97.0097 52.168 96.2897 53.24 95.2337 54.04C94.1777 54.824 92.8657 55.216 91.2977 55.216C90.0337 55.216 88.9137 54.936 87.9377 54.376C86.9617 53.8 86.1937 53 85.6337 51.976C85.0897 50.936 84.8177 49.736 84.8177 48.376ZM103.312 44.008V51.328C103.312 51.824 103.424 52.184 103.648 52.408C103.888 52.616 104.288 52.72 104.848 52.72H106.528V55H104.368C103.136 55 102.192 54.712 101.536 54.136C100.88 53.56 100.552 52.624 100.552 51.328V44.008H98.9923V41.776H100.552V38.488H103.312V41.776H106.528V44.008H103.312ZM113.85 55.216C112.81 55.216 111.874 55.032 111.042 54.664C110.226 54.28 109.578 53.768 109.098 53.128C108.618 52.472 108.362 51.744 108.33 50.944H111.162C111.21 51.504 111.474 51.976 111.954 52.36C112.45 52.728 113.066 52.912 113.802 52.912C114.57 52.912 115.162 52.768 115.578 52.48C116.01 52.176 116.226 51.792 116.226 51.328C116.226 50.832 115.986 50.464 115.506 50.224C115.042 49.984 114.298 49.72 113.274 49.432C112.282 49.16 111.474 48.896 110.85 48.64C110.226 48.384 109.682 47.992 109.218 47.464C108.77 46.936 108.546 46.24 108.546 45.376C108.546 44.672 108.754 44.032 109.17 43.456C109.586 42.864 110.178 42.4 110.946 42.064C111.73 41.728 112.626 41.56 113.634 41.56C115.138 41.56 116.346 41.944 117.258 42.712C118.186 43.464 118.682 44.496 118.746 45.808H116.01C115.962 45.216 115.722 44.744 115.29 44.392C114.858 44.04 114.274 43.864 113.538 43.864C112.818 43.864 112.266 44 111.882 44.272C111.498 44.544 111.306 44.904 111.306 45.352C111.306 45.704 111.434 46 111.69 46.24C111.946 46.48 112.258 46.672 112.626 46.816C112.994 46.944 113.538 47.112 114.258 47.32C115.218 47.576 116.002 47.84 116.61 48.112C117.234 48.368 117.77 48.752 118.218 49.264C118.666 49.776 118.898 50.456 118.914 51.304C118.914 52.056 118.706 52.728 118.29 53.32C117.874 53.912 117.282 54.376 116.514 54.712C115.762 55.048 114.874 55.216 113.85 55.216Z" fill="white"/>
</g>
<defs>
<filter id="filter0_d_5339_1503" x="-28" y="-16" width="485" height="450" filterUnits="userSpaceOnUse" color-interpolation-filters="sRGB">
<feFlood flood-opacity="0" result="BackgroundImageFix"/>
<feColorMatrix in="SourceAlpha" type="matrix" values="0 0 0 0 0 0 0 0 0 0 0 0 0 0 0 0 0 0 127 0" result="hardAlpha"/>
<feOffset dx="-4" dy="8"/>
<feGaussianBlur stdDeviation="12"/>
<feColorMatrix type="matrix" values="0 0 0 0 0.172549 0 0 0 0 0.247059 0 0 0 0 0.345098 0 0 0 0.02 0"/>
<feBlend mode="normal" in2="BackgroundImageFix" result="effect1_dropShadow_5339_1503"/>
<feBlend mode="normal" in="SourceGraphic" in2="effect1_dropShadow_5339_1503" result="shape"/>
</filter>
<clipPath id="clip0_5339_1503">
<rect width="437" height="402" fill="white"/>
</clipPath>
<clipPath id="clip1_5339_1503">
<rect width="64.9257" height="60" fill="white" transform="translate(312.143 315)"/>
</clipPath>
<clipPath id="clip2_5339_1503">
<rect width="52.44" height="60" fill="white" transform="translate(192.28 315)"/>
</clipPath>
<clipPath id="clip3_5339_1503">
<rect width="77.4114" height="60" fill="white" transform="translate(53.6885 315)"/>
</clipPath>
</defs>
</svg>
