<svg width="208" height="234" viewBox="0 0 208 234" fill="none" xmlns="http://www.w3.org/2000/svg">
<g filter="url(#filter0_d_5340_6324)">
<mask id="mask0_5340_6324" style="mask-type:luminance" maskUnits="userSpaceOnUse" x="28" y="16" width="160" height="186">
<rect x="28" y="16" width="160" height="186" fill="white"/>
</mask>
<g mask="url(#mask0_5340_6324)">
<rect x="28" y="16" width="160" height="186" fill="#18191B"/>
</g>
</g>
<path d="M80.9443 123H79.6703L74.5463 115.23V123H73.2723V113.228H74.5463L79.6703 120.984V113.228H80.9443V123ZM90.1161 118.87C90.1161 119.113 90.1021 119.369 90.0741 119.64H83.9421C83.9888 120.396 84.2454 120.989 84.7121 121.418C85.1881 121.838 85.7621 122.048 86.4341 122.048C86.9848 122.048 87.4421 121.922 87.8061 121.67C88.1794 121.409 88.4408 121.063 88.5901 120.634H89.9621C89.7568 121.371 89.3461 121.973 88.7301 122.44C88.1141 122.897 87.3488 123.126 86.4341 123.126C85.7061 123.126 85.0528 122.963 84.4741 122.636C83.9048 122.309 83.4568 121.847 83.1301 121.25C82.8034 120.643 82.6401 119.943 82.6401 119.15C82.6401 118.357 82.7988 117.661 83.1161 117.064C83.4334 116.467 83.8768 116.009 84.4461 115.692C85.0248 115.365 85.6874 115.202 86.4341 115.202C87.1621 115.202 87.8061 115.361 88.3661 115.678C88.9261 115.995 89.3554 116.434 89.6541 116.994C89.9621 117.545 90.1161 118.17 90.1161 118.87ZM88.8001 118.604C88.8001 118.119 88.6928 117.703 88.4781 117.358C88.2634 117.003 87.9694 116.737 87.5961 116.56C87.2321 116.373 86.8261 116.28 86.3781 116.28C85.7341 116.28 85.1834 116.485 84.7261 116.896C84.2781 117.307 84.0214 117.876 83.9561 118.604H88.8001ZM102.018 115.328L99.6237 123H98.3077L96.4597 116.91L94.6117 123H93.2957L90.8877 115.328H92.1897L93.9537 121.768L95.8577 115.328H97.1597L99.0217 121.782L100.758 115.328H102.018ZM113.021 113.242V114.278H110.361V123H109.087V114.278H106.413V113.242H113.021ZM114.113 119.136C114.113 118.352 114.271 117.666 114.589 117.078C114.906 116.481 115.34 116.019 115.891 115.692C116.451 115.365 117.071 115.202 117.753 115.202C118.425 115.202 119.008 115.347 119.503 115.636C119.997 115.925 120.366 116.289 120.609 116.728V115.328H121.897V123H120.609V121.572C120.357 122.02 119.979 122.393 119.475 122.692C118.98 122.981 118.401 123.126 117.739 123.126C117.057 123.126 116.441 122.958 115.891 122.622C115.34 122.286 114.906 121.815 114.589 121.208C114.271 120.601 114.113 119.911 114.113 119.136ZM120.609 119.15C120.609 118.571 120.492 118.067 120.259 117.638C120.025 117.209 119.708 116.882 119.307 116.658C118.915 116.425 118.481 116.308 118.005 116.308C117.529 116.308 117.095 116.42 116.703 116.644C116.311 116.868 115.998 117.195 115.765 117.624C115.531 118.053 115.415 118.557 115.415 119.136C115.415 119.724 115.531 120.237 115.765 120.676C115.998 121.105 116.311 121.437 116.703 121.67C117.095 121.894 117.529 122.006 118.005 122.006C118.481 122.006 118.915 121.894 119.307 121.67C119.708 121.437 120.025 121.105 120.259 120.676C120.492 120.237 120.609 119.729 120.609 119.15ZM126.766 123.126C126.178 123.126 125.65 123.028 125.184 122.832C124.717 122.627 124.348 122.347 124.078 121.992C123.807 121.628 123.658 121.213 123.63 120.746H124.946C124.983 121.129 125.16 121.441 125.478 121.684C125.804 121.927 126.229 122.048 126.752 122.048C127.237 122.048 127.62 121.941 127.9 121.726C128.18 121.511 128.32 121.241 128.32 120.914C128.32 120.578 128.17 120.331 127.872 120.172C127.573 120.004 127.111 119.841 126.486 119.682C125.916 119.533 125.45 119.383 125.086 119.234C124.731 119.075 124.423 118.847 124.162 118.548C123.91 118.24 123.784 117.839 123.784 117.344C123.784 116.952 123.9 116.593 124.134 116.266C124.367 115.939 124.698 115.683 125.128 115.496C125.557 115.3 126.047 115.202 126.598 115.202C127.447 115.202 128.133 115.417 128.656 115.846C129.178 116.275 129.458 116.863 129.496 117.61H128.222C128.194 117.209 128.03 116.887 127.732 116.644C127.442 116.401 127.05 116.28 126.556 116.28C126.098 116.28 125.734 116.378 125.464 116.574C125.193 116.77 125.058 117.027 125.058 117.344C125.058 117.596 125.137 117.806 125.296 117.974C125.464 118.133 125.669 118.263 125.912 118.366C126.164 118.459 126.509 118.567 126.948 118.688C127.498 118.837 127.946 118.987 128.292 119.136C128.637 119.276 128.931 119.491 129.174 119.78C129.426 120.069 129.556 120.447 129.566 120.914C129.566 121.334 129.449 121.712 129.216 122.048C128.982 122.384 128.651 122.65 128.222 122.846C127.802 123.033 127.316 123.126 126.766 123.126ZM135.648 123L132.638 119.612V123H131.364V112.64H132.638V118.73L135.592 115.328H137.37L133.758 119.15L137.384 123H135.648ZM141.285 123.126C140.697 123.126 140.17 123.028 139.703 122.832C139.237 122.627 138.868 122.347 138.597 121.992C138.327 121.628 138.177 121.213 138.149 120.746H139.465C139.503 121.129 139.68 121.441 139.997 121.684C140.324 121.927 140.749 122.048 141.271 122.048C141.757 122.048 142.139 121.941 142.419 121.726C142.699 121.511 142.839 121.241 142.839 120.914C142.839 120.578 142.69 120.331 142.391 120.172C142.093 120.004 141.631 119.841 141.005 119.682C140.436 119.533 139.969 119.383 139.605 119.234C139.251 119.075 138.943 118.847 138.681 118.548C138.429 118.24 138.303 117.839 138.303 117.344C138.303 116.952 138.42 116.593 138.653 116.266C138.887 115.939 139.218 115.683 139.647 115.496C140.077 115.3 140.567 115.202 141.117 115.202C141.967 115.202 142.653 115.417 143.175 115.846C143.698 116.275 143.978 116.863 144.015 117.61H142.741C142.713 117.209 142.55 116.887 142.251 116.644C141.962 116.401 141.57 116.28 141.075 116.28C140.618 116.28 140.254 116.378 139.983 116.574C139.713 116.77 139.577 117.027 139.577 117.344C139.577 117.596 139.657 117.806 139.815 117.974C139.983 118.133 140.189 118.263 140.431 118.366C140.683 118.459 141.029 118.567 141.467 118.688C142.018 118.837 142.466 118.987 142.811 119.136C143.157 119.276 143.451 119.491 143.693 119.78C143.945 120.069 144.076 120.447 144.085 120.914C144.085 121.334 143.969 121.712 143.735 122.048C143.502 122.384 143.171 122.65 142.741 122.846C142.321 123.033 141.836 123.126 141.285 123.126Z" fill="#C9C9C9"/>
<path d="M93.6319 143.808H82.9119V150.176C83.3599 149.579 84.0212 149.077 84.8959 148.672C85.7919 148.267 86.7412 148.064 87.7439 148.064C89.5359 148.064 90.9865 148.448 92.0959 149.216C93.2265 149.984 94.0265 150.955 94.4959 152.128C94.9865 153.301 95.2319 154.539 95.2319 155.84C95.2319 157.419 94.9225 158.827 94.3039 160.064C93.7065 161.28 92.7999 162.24 91.5839 162.944C90.3892 163.648 88.9172 164 87.1679 164C84.8425 164 82.9759 163.424 81.5679 162.272C80.1599 161.12 79.3172 159.595 79.0399 157.696H82.5919C82.8265 158.699 83.3492 159.499 84.1599 160.096C84.9705 160.672 85.9839 160.96 87.1999 160.96C88.7145 160.96 89.8452 160.501 90.5919 159.584C91.3599 158.667 91.7439 157.451 91.7439 155.936C91.7439 154.4 91.3599 153.227 90.5919 152.416C89.8239 151.584 88.6932 151.168 87.1999 151.168C86.1545 151.168 85.2692 151.435 84.5439 151.968C83.8399 152.48 83.3279 153.184 83.0079 154.08H79.5519V140.608H93.6319V143.808ZM98.5814 159.136V156.384L109.333 140.96H113.749V155.968H116.725V159.136H113.749V164H110.165V159.136H98.5814ZM110.325 144.672L102.773 155.968H110.325V144.672ZM119.748 152.032C119.748 148.341 120.367 145.461 121.604 143.392C122.863 141.301 125.017 140.256 128.068 140.256C131.119 140.256 133.263 141.301 134.5 143.392C135.759 145.461 136.388 148.341 136.388 152.032C136.388 155.765 135.759 158.688 134.5 160.8C133.263 162.891 131.119 163.936 128.068 163.936C125.017 163.936 122.863 162.891 121.604 160.8C120.367 158.688 119.748 155.765 119.748 152.032ZM132.804 152.032C132.804 150.304 132.687 148.843 132.452 147.648C132.239 146.453 131.791 145.483 131.108 144.736C130.425 143.968 129.412 143.584 128.068 143.584C126.724 143.584 125.711 143.968 125.028 144.736C124.345 145.483 123.887 146.453 123.652 147.648C123.439 148.843 123.332 150.304 123.332 152.032C123.332 153.824 123.439 155.328 123.652 156.544C123.865 157.76 124.313 158.741 124.996 159.488C125.7 160.235 126.724 160.608 128.068 160.608C129.412 160.608 130.425 160.235 131.108 159.488C131.812 158.741 132.271 157.76 132.484 156.544C132.697 155.328 132.804 153.824 132.804 152.032Z" fill="white"/>
<mask id="mask1_5340_6324" style="mask-type:luminance" maskUnits="userSpaceOnUse" x="65" y="79" width="4" height="10">
<rect x="65" y="79.4336" width="4" height="8.60116" rx="2" fill="white"/>
</mask>
<g mask="url(#mask1_5340_6324)">
<rect x="65" y="79.4336" width="4" height="8.60116" fill="#FF965D"/>
</g>
<mask id="mask2_5340_6324" style="mask-type:luminance" maskUnits="userSpaceOnUse" x="73" y="74" width="4" height="15">
<rect x="73" y="74.0586" width="4" height="13.9769" rx="2" fill="white"/>
</mask>
<g mask="url(#mask2_5340_6324)">
<rect x="73" y="74.0586" width="4" height="13.9769" fill="#FF965D"/>
</g>
<mask id="mask3_5340_6324" style="mask-type:luminance" maskUnits="userSpaceOnUse" x="81" y="66" width="4" height="23">
<rect x="81" y="66.5312" width="4" height="21.5029" rx="2" fill="white"/>
</mask>
<g mask="url(#mask3_5340_6324)">
<rect x="81" y="66.5312" width="4" height="21.5029" fill="#FF965D"/>
</g>
<mask id="mask4_5340_6324" style="mask-type:luminance" maskUnits="userSpaceOnUse" x="89" y="62" width="4" height="27">
<rect x="89" y="62.2305" width="4" height="25.8035" rx="2" fill="white"/>
</mask>
<g mask="url(#mask4_5340_6324)">
<rect x="89" y="62.2305" width="4" height="25.8035" fill="#FF965D"/>
</g>
<mask id="mask5_5340_6324" style="mask-type:luminance" maskUnits="userSpaceOnUse" x="98" y="66" width="4" height="23">
<rect x="98" y="66.5312" width="4" height="21.5029" rx="2" fill="white"/>
</mask>
<g mask="url(#mask5_5340_6324)">
<rect x="98" y="66.5312" width="4" height="21.5029" fill="#FF965D"/>
</g>
<mask id="mask6_5340_6324" style="mask-type:luminance" maskUnits="userSpaceOnUse" x="106" y="35" width="4" height="54">
<rect x="106" y="35.3535" width="4" height="52.6821" rx="2" fill="white"/>
</mask>
<g mask="url(#mask6_5340_6324)">
<rect x="106" y="35.3535" width="4" height="52.6821" fill="#FF965D"/>
</g>
<mask id="mask7_5340_6324" style="mask-type:luminance" maskUnits="userSpaceOnUse" x="114" y="40" width="4" height="49">
<rect x="114" y="40.7285" width="4" height="47.3064" rx="2" fill="white"/>
</mask>
<g mask="url(#mask7_5340_6324)">
<rect x="114" y="40.7285" width="4" height="47.3064" fill="#FF965D"/>
</g>
<mask id="mask8_5340_6324" style="mask-type:luminance" maskUnits="userSpaceOnUse" x="122" y="60" width="4" height="29">
<rect x="122" y="60.0801" width="4" height="27.9538" rx="2" fill="white"/>
</mask>
<g mask="url(#mask8_5340_6324)">
<rect x="122" y="60.0801" width="4" height="27.9538" fill="#FF965D"/>
</g>
<mask id="mask9_5340_6324" style="mask-type:luminance" maskUnits="userSpaceOnUse" x="130" y="68" width="4" height="21">
<rect x="130" y="68.6816" width="4" height="19.3526" rx="2" fill="white"/>
</mask>
<g mask="url(#mask9_5340_6324)">
<rect x="130" y="68.6816" width="4" height="19.3526" fill="#FF965D"/>
</g>
<mask id="mask10_5340_6324" style="mask-type:luminance" maskUnits="userSpaceOnUse" x="138" y="71" width="4" height="18">
<rect x="138" y="71.9082" width="4" height="16.1272" rx="2" fill="white"/>
</mask>
<g mask="url(#mask10_5340_6324)">
<rect x="138" y="71.9082" width="4" height="16.1272" fill="#FF965D"/>
</g>
<mask id="mask11_5340_6324" style="mask-type:luminance" maskUnits="userSpaceOnUse" x="146" y="71" width="4" height="18">
<rect x="146" y="71.9082" width="4" height="16.1272" rx="2" fill="white"/>
</mask>
<g mask="url(#mask11_5340_6324)">
<rect x="146" y="71.9082" width="4" height="16.1272" fill="#FF965D"/>
</g>
<defs>
<filter id="filter0_d_5340_6324" x="0" y="0" width="208" height="234" filterUnits="userSpaceOnUse" color-interpolation-filters="sRGB">
<feFlood flood-opacity="0" result="BackgroundImageFix"/>
<feColorMatrix in="SourceAlpha" type="matrix" values="0 0 0 0 0 0 0 0 0 0 0 0 0 0 0 0 0 0 127 0" result="hardAlpha"/>
<feOffset dx="-4" dy="8"/>
<feGaussianBlur stdDeviation="12"/>
<feColorMatrix type="matrix" values="0 0 0 0 0.172549 0 0 0 0 0.247059 0 0 0 0 0.345098 0 0 0 0.02 0"/>
<feBlend mode="normal" in2="BackgroundImageFix" result="effect1_dropShadow_5340_6324"/>
<feBlend mode="normal" in="SourceGraphic" in2="effect1_dropShadow_5340_6324" result="shape"/>
</filter>
</defs>
</svg>
