<svg width="306" height="279" viewBox="0 0 306 279" fill="none" xmlns="http://www.w3.org/2000/svg">
<rect width="306" height="279" fill="#18191B"/>
<rect x="122" y="65" width="62" height="61" rx="13" fill="#3669B5" fill-opacity="0.3"/>
<path fill-rule="evenodd" clip-rule="evenodd" d="M148.906 85.0937C148.906 84.9547 149.012 84.875 149.102 84.875H155.898C155.988 84.875 156.093 84.9547 156.093 85.0937V86.2317C156.093 86.238 156.093 86.2443 156.093 86.2506C156.093 86.257 156.093 86.2633 156.093 86.2696V87.406C156.093 87.545 155.988 87.6247 155.898 87.6247H149.102C149.012 87.6247 148.906 87.545 148.906 87.406V85.0937ZM157.968 87.1881V87.406C157.968 88.5442 157.06 89.4997 155.898 89.4997H149.102C147.94 89.4997 147.031 88.5442 147.031 87.406V87.1881H145.703C145.357 87.1881 145.021 87.3283 144.771 87.584C144.519 87.8405 144.375 88.1922 144.375 88.563V104.749C144.375 105.12 144.519 105.472 144.771 105.728C145.021 105.984 145.357 106.124 145.703 106.124H159.296C159.642 106.124 159.978 105.984 160.229 105.728C160.48 105.472 160.624 105.12 160.624 104.749V88.563C160.624 88.1922 160.48 87.8405 160.229 87.584C159.978 87.3283 159.642 87.1881 159.296 87.1881H157.968ZM147.031 85.3132V85.0937C147.031 83.9555 147.94 83 149.102 83H155.898C157.06 83 157.968 83.9555 157.968 85.0937V85.3132H159.296C160.152 85.3132 160.969 85.6603 161.568 86.2718C162.166 86.8827 162.499 87.7072 162.499 88.563V104.749C162.499 105.605 162.166 106.43 161.568 107.041C160.969 107.652 160.152 107.999 159.296 107.999H145.703C144.847 107.999 144.031 107.652 143.431 107.041C142.833 106.43 142.5 105.605 142.5 104.749V88.563C142.5 87.7072 142.833 86.8827 143.431 86.2718C144.031 85.6603 144.847 85.3132 145.703 85.3132H147.031Z" fill="#1B54FF"/>
<path d="M111.912 181L128.42 148.352V148.075H109.327V143.182H134.33V148.241L117.876 181H111.912ZM152.768 181.517C150.121 181.517 147.782 181.062 145.751 180.151C143.732 179.24 142.15 177.984 141.005 176.384C139.86 174.783 139.294 172.961 139.306 170.918C139.294 169.317 139.62 167.846 140.285 166.504C140.962 165.15 141.879 164.024 143.036 163.125C144.193 162.214 145.486 161.635 146.914 161.389V161.168C145.031 160.712 143.522 159.703 142.39 158.139C141.257 156.576 140.697 154.778 140.71 152.747C140.697 150.814 141.208 149.091 142.242 147.577C143.289 146.05 144.723 144.85 146.545 143.976C148.367 143.102 150.441 142.665 152.768 142.665C155.07 142.665 157.126 143.108 158.935 143.994C160.757 144.868 162.192 146.069 163.238 147.595C164.284 149.109 164.814 150.827 164.826 152.747C164.814 154.778 164.235 156.576 163.09 158.139C161.945 159.703 160.456 160.712 158.621 161.168V161.389C160.037 161.635 161.311 162.214 162.444 163.125C163.589 164.024 164.5 165.15 165.177 166.504C165.866 167.846 166.217 169.317 166.229 170.918C166.217 172.961 165.638 174.783 164.494 176.384C163.349 177.984 161.761 179.24 159.729 180.151C157.71 181.062 155.39 181.517 152.768 181.517ZM152.768 176.845C154.331 176.845 155.685 176.587 156.83 176.07C157.975 175.54 158.862 174.808 159.489 173.872C160.117 172.924 160.437 171.816 160.45 170.548C160.437 169.231 160.093 168.068 159.415 167.058C158.751 166.049 157.846 165.255 156.701 164.676C155.556 164.098 154.245 163.808 152.768 163.808C151.278 163.808 149.955 164.098 148.798 164.676C147.64 165.255 146.729 166.049 146.065 167.058C145.4 168.068 145.074 169.231 145.086 170.548C145.074 171.816 145.375 172.924 145.991 173.872C146.619 174.808 147.511 175.54 148.668 176.07C149.826 176.587 151.192 176.845 152.768 176.845ZM152.768 159.247C154.023 159.247 155.138 158.995 156.11 158.49C157.083 157.985 157.846 157.284 158.4 156.385C158.966 155.486 159.255 154.434 159.268 153.227C159.255 152.045 158.972 151.011 158.418 150.125C157.877 149.239 157.12 148.555 156.147 148.075C155.174 147.583 154.048 147.337 152.768 147.337C151.463 147.337 150.318 147.583 149.333 148.075C148.361 148.555 147.603 149.239 147.062 150.125C146.52 151.011 146.255 152.045 146.268 153.227C146.255 154.434 146.526 155.486 147.08 156.385C147.634 157.284 148.397 157.985 149.37 158.49C150.355 158.995 151.487 159.247 152.768 159.247ZM186.011 181.628C183.093 181.616 180.6 180.846 178.532 179.32C176.464 177.793 174.882 175.571 173.787 172.653C172.691 169.736 172.143 166.221 172.143 162.109C172.143 158.01 172.691 154.508 173.787 151.602C174.895 148.697 176.483 146.481 178.551 144.955C180.631 143.428 183.118 142.665 186.011 142.665C188.904 142.665 191.385 143.434 193.453 144.973C195.521 146.5 197.103 148.715 198.199 151.621C199.306 154.514 199.86 158.01 199.86 162.109C199.86 166.233 199.313 169.754 198.217 172.672C197.121 175.577 195.539 177.799 193.471 179.338C191.403 180.865 188.916 181.628 186.011 181.628ZM186.011 176.697C188.572 176.697 190.572 175.448 192.012 172.949C193.465 170.45 194.191 166.837 194.191 162.109C194.191 158.97 193.859 156.317 193.194 154.151C192.542 151.972 191.6 150.322 190.369 149.202C189.15 148.069 187.698 147.503 186.011 147.503C183.463 147.503 181.462 148.759 180.01 151.27C178.557 153.781 177.824 157.394 177.812 162.109C177.812 165.261 178.138 167.926 178.791 170.105C179.456 172.272 180.397 173.915 181.616 175.036C182.835 176.143 184.3 176.697 186.011 176.697Z" fill="white"/>
<path d="M103.057 215.812V213.545H116.565V215.812H111.119V231H108.494V215.812H103.057ZM122.962 231.264C121.734 231.264 120.663 230.983 119.749 230.42C118.834 229.858 118.124 229.071 117.618 228.06C117.112 227.048 116.859 225.866 116.859 224.514C116.859 223.156 117.112 221.969 117.618 220.952C118.124 219.935 118.834 219.145 119.749 218.582C120.663 218.02 121.734 217.739 122.962 217.739C124.189 217.739 125.26 218.02 126.175 218.582C127.089 219.145 127.8 219.935 128.305 220.952C128.811 221.969 129.064 223.156 129.064 224.514C129.064 225.866 128.811 227.048 128.305 228.06C127.8 229.071 127.089 229.858 126.175 230.42C125.26 230.983 124.189 231.264 122.962 231.264ZM122.97 229.125C123.766 229.125 124.425 228.915 124.947 228.494C125.47 228.074 125.857 227.514 126.107 226.815C126.362 226.116 126.49 225.347 126.49 224.506C126.49 223.67 126.362 222.903 126.107 222.205C125.857 221.5 125.47 220.935 124.947 220.509C124.425 220.082 123.766 219.869 122.97 219.869C122.169 219.869 121.504 220.082 120.976 220.509C120.453 220.935 120.064 221.5 119.808 222.205C119.558 222.903 119.433 223.67 119.433 224.506C119.433 225.347 119.558 226.116 119.808 226.815C120.064 227.514 120.453 228.074 120.976 228.494C121.504 228.915 122.169 229.125 122.97 229.125ZM138.019 217.909V219.955H130.869V217.909H138.019ZM132.786 214.773H135.335V227.156C135.335 227.651 135.408 228.023 135.556 228.273C135.704 228.517 135.894 228.685 136.127 228.776C136.366 228.861 136.624 228.903 136.903 228.903C137.107 228.903 137.286 228.889 137.44 228.861C137.593 228.832 137.712 228.81 137.798 228.793L138.258 230.898C138.11 230.955 137.9 231.011 137.627 231.068C137.354 231.131 137.013 231.165 136.604 231.17C135.934 231.182 135.309 231.062 134.729 230.812C134.15 230.562 133.681 230.176 133.323 229.653C132.965 229.131 132.786 228.474 132.786 227.685V214.773ZM144.648 231.29C143.818 231.29 143.068 231.136 142.398 230.83C141.727 230.517 141.196 230.065 140.804 229.474C140.418 228.884 140.224 228.159 140.224 227.301C140.224 226.562 140.366 225.955 140.651 225.477C140.935 225 141.318 224.622 141.801 224.344C142.284 224.065 142.824 223.855 143.42 223.713C144.017 223.571 144.625 223.463 145.244 223.389C146.028 223.298 146.665 223.224 147.153 223.168C147.642 223.105 147.997 223.006 148.219 222.869C148.44 222.733 148.551 222.511 148.551 222.205V222.145C148.551 221.401 148.341 220.824 147.92 220.415C147.506 220.006 146.886 219.801 146.062 219.801C145.205 219.801 144.528 219.991 144.034 220.372C143.545 220.747 143.207 221.165 143.02 221.625L140.625 221.08C140.909 220.284 141.324 219.642 141.869 219.153C142.42 218.659 143.054 218.301 143.77 218.08C144.486 217.852 145.239 217.739 146.028 217.739C146.551 217.739 147.105 217.801 147.69 217.926C148.281 218.045 148.832 218.267 149.344 218.591C149.861 218.915 150.284 219.378 150.614 219.98C150.943 220.577 151.108 221.352 151.108 222.307V231H148.619V229.21H148.517C148.352 229.54 148.105 229.864 147.776 230.182C147.446 230.5 147.023 230.764 146.506 230.974C145.989 231.185 145.369 231.29 144.648 231.29ZM145.202 229.244C145.906 229.244 146.509 229.105 147.009 228.827C147.514 228.548 147.898 228.185 148.159 227.736C148.426 227.281 148.56 226.795 148.56 226.278V224.591C148.469 224.682 148.293 224.767 148.031 224.847C147.776 224.92 147.483 224.986 147.153 225.043C146.824 225.094 146.503 225.142 146.19 225.188C145.878 225.227 145.616 225.261 145.406 225.29C144.912 225.352 144.46 225.457 144.051 225.605C143.648 225.753 143.324 225.966 143.08 226.244C142.841 226.517 142.722 226.881 142.722 227.335C142.722 227.966 142.955 228.443 143.42 228.767C143.886 229.085 144.48 229.244 145.202 229.244ZM157.05 213.545V231H154.502V213.545H157.05ZM166.174 215.812V213.545H179.683V215.812H174.237V231H171.612V215.812H166.174ZM184.491 231.29C183.662 231.29 182.912 231.136 182.241 230.83C181.571 230.517 181.04 230.065 180.648 229.474C180.261 228.884 180.068 228.159 180.068 227.301C180.068 226.562 180.21 225.955 180.494 225.477C180.778 225 181.162 224.622 181.645 224.344C182.128 224.065 182.668 223.855 183.264 223.713C183.861 223.571 184.469 223.463 185.088 223.389C185.872 223.298 186.509 223.224 186.997 223.168C187.486 223.105 187.841 223.006 188.062 222.869C188.284 222.733 188.395 222.511 188.395 222.205V222.145C188.395 221.401 188.185 220.824 187.764 220.415C187.349 220.006 186.73 219.801 185.906 219.801C185.048 219.801 184.372 219.991 183.878 220.372C183.389 220.747 183.051 221.165 182.864 221.625L180.469 221.08C180.753 220.284 181.168 219.642 181.713 219.153C182.264 218.659 182.898 218.301 183.614 218.08C184.33 217.852 185.082 217.739 185.872 217.739C186.395 217.739 186.949 217.801 187.534 217.926C188.125 218.045 188.676 218.267 189.188 218.591C189.705 218.915 190.128 219.378 190.457 219.98C190.787 220.577 190.952 221.352 190.952 222.307V231H188.463V229.21H188.361C188.196 229.54 187.949 229.864 187.619 230.182C187.29 230.5 186.866 230.764 186.349 230.974C185.832 231.185 185.213 231.29 184.491 231.29ZM185.045 229.244C185.75 229.244 186.352 229.105 186.852 228.827C187.358 228.548 187.741 228.185 188.003 227.736C188.27 227.281 188.403 226.795 188.403 226.278V224.591C188.313 224.682 188.136 224.767 187.875 224.847C187.619 224.92 187.327 224.986 186.997 225.043C186.668 225.094 186.347 225.142 186.034 225.188C185.722 225.227 185.46 225.261 185.25 225.29C184.756 225.352 184.304 225.457 183.895 225.605C183.491 225.753 183.168 225.966 182.923 226.244C182.685 226.517 182.565 226.881 182.565 227.335C182.565 227.966 182.798 228.443 183.264 228.767C183.73 229.085 184.324 229.244 185.045 229.244ZM204.156 221.105L201.846 221.514C201.749 221.219 201.596 220.937 201.386 220.67C201.181 220.403 200.903 220.185 200.55 220.014C200.198 219.844 199.758 219.759 199.229 219.759C198.508 219.759 197.906 219.92 197.423 220.244C196.94 220.562 196.698 220.974 196.698 221.48C196.698 221.918 196.86 222.27 197.184 222.537C197.508 222.804 198.031 223.023 198.752 223.193L200.832 223.67C202.036 223.949 202.934 224.378 203.525 224.957C204.116 225.537 204.411 226.29 204.411 227.216C204.411 228 204.184 228.699 203.729 229.312C203.281 229.92 202.653 230.398 201.846 230.744C201.045 231.091 200.116 231.264 199.059 231.264C197.593 231.264 196.397 230.952 195.471 230.327C194.545 229.696 193.977 228.801 193.766 227.642L196.229 227.267C196.383 227.909 196.698 228.395 197.175 228.724C197.653 229.048 198.275 229.21 199.042 229.21C199.877 229.21 200.545 229.037 201.045 228.69C201.545 228.338 201.795 227.909 201.795 227.403C201.795 226.994 201.641 226.651 201.335 226.372C201.033 226.094 200.57 225.884 199.945 225.741L197.729 225.256C196.508 224.977 195.604 224.534 195.019 223.926C194.44 223.318 194.15 222.548 194.15 221.616C194.15 220.844 194.366 220.168 194.798 219.588C195.229 219.009 195.826 218.557 196.587 218.233C197.349 217.903 198.221 217.739 199.204 217.739C200.619 217.739 201.732 218.045 202.545 218.659C203.357 219.267 203.894 220.082 204.156 221.105ZM209.557 226.56L209.54 223.449H209.983L215.199 217.909H218.25L212.301 224.216H211.901L209.557 226.56ZM207.213 231V213.545H209.761V231H207.213ZM215.48 231L210.793 224.778L212.548 222.997L218.608 231H215.48Z" fill="white"/>
</svg>
