<svg width="160" height="186" viewBox="0 0 160 186" fill="none" xmlns="http://www.w3.org/2000/svg">
<g clip-path="url(#clip0_5340_2248)">
<g filter="url(#filter0_d_5340_2248)">
<mask id="mask0_5340_2248" style="mask-type:luminance" maskUnits="userSpaceOnUse" x="0" y="0" width="160" height="186">
<rect width="160" height="186" fill="white"/>
</mask>
<g mask="url(#mask0_5340_2248)">
<rect width="160" height="186" fill="#18191B"/>
</g>
</g>
<mask id="mask1_5340_2248" style="mask-type:luminance" maskUnits="userSpaceOnUse" x="56" y="32" width="48" height="48">
<rect x="56" y="32" width="48" height="48" rx="14" fill="white"/>
</mask>
<g mask="url(#mask1_5340_2248)">
<g opacity="0.1">
<rect x="56" y="32" width="48" height="48" fill="#FF955C"/>
</g>
</g>
<path fill-rule="evenodd" clip-rule="evenodd" d="M77.1253 46.6756C77.1253 46.5644 77.2096 46.5006 77.2815 46.5006H82.7189C82.7908 46.5006 82.8751 46.5644 82.8751 46.6756V47.5863L82.8749 47.6015L82.8751 47.6166V48.5261C82.8751 48.6373 82.7908 48.7011 82.7189 48.7011H77.2815C77.2096 48.7011 77.1253 48.6373 77.1253 48.5261V46.6756ZM84.3752 48.3518V48.5261C84.3752 49.437 83.6481 50.2017 82.7189 50.2017H77.2815C76.3524 50.2017 75.6252 49.437 75.6252 48.5261V48.3518H74.5626C74.2858 48.3518 74.0172 48.4639 73.8167 48.6686C73.6157 48.8738 73.5001 49.1554 73.5001 49.4521V54.0275C72.956 54.0984 72.4477 54.2834 72.0001 54.5578V49.4521C72.0001 48.7672 72.2664 48.1073 72.7452 47.6184C73.2246 47.129 73.878 46.8512 74.5626 46.8512H75.6252V46.6756C75.6252 45.7647 76.3524 45 77.2815 45H82.7189C83.6481 45 84.3752 45.7647 84.3752 46.6756V46.8512H85.4375C86.1221 46.8512 86.7756 47.129 87.2549 47.6184C87.7337 48.1073 88 48.7672 88 49.4521V62.406C88 63.0909 87.7337 63.7508 87.2549 64.2397C86.7756 64.729 86.1221 65.0069 85.4375 65.0069H80.544C81.0417 64.6128 81.4393 64.0979 81.6926 63.5063H85.4375C85.7142 63.5063 85.9828 63.3941 86.1833 63.1895C86.3843 62.9843 86.5 62.7027 86.5 62.406V49.4521C86.5 49.1554 86.3843 48.8738 86.1833 48.6686C85.9828 48.4639 85.7142 48.3518 85.4375 48.3518H84.3752ZM74.0002 56.9963C74.4604 56.9963 74.8335 57.3695 74.8335 57.8299V61.1645H78.167C78.6272 61.1645 79.0003 61.5378 79.0003 61.9981C79.0003 62.4585 78.6272 62.8317 78.167 62.8317H74.8335V66.1664C74.8335 66.6268 74.4604 67 74.0002 67C73.5399 67 73.1668 66.6268 73.1668 66.1664V62.8317H69.8334C69.3731 62.8317 69 62.4585 69 61.9981C69 61.5378 69.3731 61.1645 69.8334 61.1645H73.1668V57.8299C73.1668 57.3695 73.5399 56.9963 74.0002 56.9963Z" fill="#FF965D"/>
<mask id="mask2_5340_2248" style="mask-type:luminance" maskUnits="userSpaceOnUse" x="69" y="45" width="19" height="22">
<path fill-rule="evenodd" clip-rule="evenodd" d="M77.1253 46.6756C77.1253 46.5644 77.2096 46.5006 77.2815 46.5006H82.7189C82.7908 46.5006 82.8751 46.5644 82.8751 46.6756V47.5863L82.8749 47.6015L82.8751 47.6166V48.5261C82.8751 48.6373 82.7908 48.7011 82.7189 48.7011H77.2815C77.2096 48.7011 77.1253 48.6373 77.1253 48.5261V46.6756ZM84.3752 48.3518V48.5261C84.3752 49.437 83.6481 50.2017 82.7189 50.2017H77.2815C76.3524 50.2017 75.6252 49.437 75.6252 48.5261V48.3518H74.5626C74.2858 48.3518 74.0172 48.4639 73.8167 48.6686C73.6157 48.8738 73.5001 49.1554 73.5001 49.4521V54.0275C72.956 54.0984 72.4477 54.2834 72.0001 54.5578V49.4521C72.0001 48.7672 72.2664 48.1073 72.7452 47.6184C73.2246 47.129 73.878 46.8512 74.5626 46.8512H75.6252V46.6756C75.6252 45.7647 76.3524 45 77.2815 45H82.7189C83.6481 45 84.3752 45.7647 84.3752 46.6756V46.8512H85.4375C86.1221 46.8512 86.7756 47.129 87.2549 47.6184C87.7337 48.1073 88 48.7672 88 49.4521V62.406C88 63.0909 87.7337 63.7508 87.2549 64.2397C86.7756 64.729 86.1221 65.0069 85.4375 65.0069H80.544C81.0417 64.6128 81.4393 64.0979 81.6926 63.5063H85.4375C85.7142 63.5063 85.9828 63.3941 86.1833 63.1895C86.3843 62.9843 86.5 62.7027 86.5 62.406V49.4521C86.5 49.1554 86.3843 48.8738 86.1833 48.6686C85.9828 48.4639 85.7142 48.3518 85.4375 48.3518H84.3752ZM74.0002 56.9963C74.4604 56.9963 74.8335 57.3695 74.8335 57.8299V61.1645H78.167C78.6272 61.1645 79.0003 61.5378 79.0003 61.9981C79.0003 62.4585 78.6272 62.8317 78.167 62.8317H74.8335V66.1664C74.8335 66.6268 74.4604 67 74.0002 67C73.5399 67 73.1668 66.6268 73.1668 66.1664V62.8317H69.8334C69.3731 62.8317 69 62.4585 69 61.9981C69 61.5378 69.3731 61.1645 69.8334 61.1645H73.1668V57.8299C73.1668 57.3695 73.5399 56.9963 74.0002 56.9963Z" fill="white"/>
</mask>
<g mask="url(#mask2_5340_2248)">
<rect x="68" y="45" width="22" height="22" fill="#FF955C"/>
</g>
<path d="M52.9443 152H51.6703L46.5463 144.23V152H45.2723V142.228H46.5463L51.6703 149.984V142.228H52.9443V152ZM62.1161 147.87C62.1161 148.113 62.1021 148.369 62.0741 148.64H55.9421C55.9888 149.396 56.2454 149.989 56.7121 150.418C57.1881 150.838 57.7621 151.048 58.4341 151.048C58.9848 151.048 59.4421 150.922 59.8061 150.67C60.1794 150.409 60.4408 150.063 60.5901 149.634H61.9621C61.7568 150.371 61.3461 150.973 60.7301 151.44C60.1141 151.897 59.3488 152.126 58.4341 152.126C57.7061 152.126 57.0528 151.963 56.4741 151.636C55.9048 151.309 55.4568 150.847 55.1301 150.25C54.8034 149.643 54.6401 148.943 54.6401 148.15C54.6401 147.357 54.7988 146.661 55.1161 146.064C55.4334 145.467 55.8768 145.009 56.4461 144.692C57.0248 144.365 57.6874 144.202 58.4341 144.202C59.1621 144.202 59.8061 144.361 60.3661 144.678C60.9261 144.995 61.3554 145.434 61.6541 145.994C61.9621 146.545 62.1161 147.17 62.1161 147.87ZM60.8001 147.604C60.8001 147.119 60.6928 146.703 60.4781 146.358C60.2634 146.003 59.9694 145.737 59.5961 145.56C59.2321 145.373 58.8261 145.28 58.3781 145.28C57.7341 145.28 57.1834 145.485 56.7261 145.896C56.2781 146.307 56.0214 146.876 55.9561 147.604H60.8001ZM74.0177 144.328L71.6237 152H70.3077L68.4597 145.91L66.6117 152H65.2957L62.8877 144.328H64.1897L65.9537 150.768L67.8577 144.328H69.1597L71.0217 150.782L72.7577 144.328H74.0177ZM85.0205 142.242V143.278H82.3605V152H81.0865V143.278H78.4125V142.242H85.0205ZM86.1127 148.136C86.1127 147.352 86.2714 146.666 86.5887 146.078C86.9061 145.481 87.3401 145.019 87.8907 144.692C88.4507 144.365 89.0714 144.202 89.7527 144.202C90.4247 144.202 91.0081 144.347 91.5027 144.636C91.9974 144.925 92.3661 145.289 92.6087 145.728V144.328H93.8967V152H92.6087V150.572C92.3567 151.02 91.9787 151.393 91.4747 151.692C90.9801 151.981 90.4014 152.126 89.7387 152.126C89.0574 152.126 88.4414 151.958 87.8907 151.622C87.3401 151.286 86.9061 150.815 86.5887 150.208C86.2714 149.601 86.1127 148.911 86.1127 148.136ZM92.6087 148.15C92.6087 147.571 92.4921 147.067 92.2587 146.638C92.0254 146.209 91.7081 145.882 91.3067 145.658C90.9147 145.425 90.4807 145.308 90.0047 145.308C89.5287 145.308 89.0947 145.42 88.7027 145.644C88.3107 145.868 87.9981 146.195 87.7647 146.624C87.5314 147.053 87.4147 147.557 87.4147 148.136C87.4147 148.724 87.5314 149.237 87.7647 149.676C87.9981 150.105 88.3107 150.437 88.7027 150.67C89.0947 150.894 89.5287 151.006 90.0047 151.006C90.4807 151.006 90.9147 150.894 91.3067 150.67C91.7081 150.437 92.0254 150.105 92.2587 149.676C92.4921 149.237 92.6087 148.729 92.6087 148.15ZM98.7657 152.126C98.1777 152.126 97.6503 152.028 97.1837 151.832C96.717 151.627 96.3483 151.347 96.0777 150.992C95.807 150.628 95.6577 150.213 95.6297 149.746H96.9457C96.983 150.129 97.1603 150.441 97.4777 150.684C97.8043 150.927 98.229 151.048 98.7517 151.048C99.237 151.048 99.6197 150.941 99.8997 150.726C100.18 150.511 100.32 150.241 100.32 149.914C100.32 149.578 100.17 149.331 99.8717 149.172C99.573 149.004 99.111 148.841 98.4857 148.682C97.9163 148.533 97.4497 148.383 97.0857 148.234C96.731 148.075 96.423 147.847 96.1617 147.548C95.9097 147.24 95.7837 146.839 95.7837 146.344C95.7837 145.952 95.9003 145.593 96.1337 145.266C96.367 144.939 96.6983 144.683 97.1277 144.496C97.557 144.3 98.047 144.202 98.5977 144.202C99.447 144.202 100.133 144.417 100.656 144.846C101.178 145.275 101.458 145.863 101.496 146.61H100.222C100.194 146.209 100.03 145.887 99.7317 145.644C99.4423 145.401 99.0503 145.28 98.5557 145.28C98.0983 145.28 97.7343 145.378 97.4637 145.574C97.193 145.77 97.0577 146.027 97.0577 146.344C97.0577 146.596 97.137 146.806 97.2957 146.974C97.4637 147.133 97.669 147.263 97.9117 147.366C98.1637 147.459 98.509 147.567 98.9477 147.688C99.4983 147.837 99.9463 147.987 100.292 148.136C100.637 148.276 100.931 148.491 101.174 148.78C101.426 149.069 101.556 149.447 101.566 149.914C101.566 150.334 101.449 150.712 101.216 151.048C100.982 151.384 100.651 151.65 100.222 151.846C99.8017 152.033 99.3163 152.126 98.7657 152.126ZM107.648 152L104.638 148.612V152H103.364V141.64H104.638V147.73L107.592 144.328H109.37L105.758 148.15L109.384 152H107.648ZM113.285 152.126C112.697 152.126 112.17 152.028 111.703 151.832C111.237 151.627 110.868 151.347 110.597 150.992C110.327 150.628 110.177 150.213 110.149 149.746H111.465C111.503 150.129 111.68 150.441 111.997 150.684C112.324 150.927 112.749 151.048 113.271 151.048C113.757 151.048 114.139 150.941 114.419 150.726C114.699 150.511 114.839 150.241 114.839 149.914C114.839 149.578 114.69 149.331 114.391 149.172C114.093 149.004 113.631 148.841 113.005 148.682C112.436 148.533 111.969 148.383 111.605 148.234C111.251 148.075 110.943 147.847 110.681 147.548C110.429 147.24 110.303 146.839 110.303 146.344C110.303 145.952 110.42 145.593 110.653 145.266C110.887 144.939 111.218 144.683 111.647 144.496C112.077 144.3 112.567 144.202 113.117 144.202C113.967 144.202 114.653 144.417 115.175 144.846C115.698 145.275 115.978 145.863 116.015 146.61H114.741C114.713 146.209 114.55 145.887 114.251 145.644C113.962 145.401 113.57 145.28 113.075 145.28C112.618 145.28 112.254 145.378 111.983 145.574C111.713 145.77 111.577 146.027 111.577 146.344C111.577 146.596 111.657 146.806 111.815 146.974C111.983 147.133 112.189 147.263 112.431 147.366C112.683 147.459 113.029 147.567 113.467 147.688C114.018 147.837 114.466 147.987 114.811 148.136C115.157 148.276 115.451 148.491 115.693 148.78C115.945 149.069 116.076 149.447 116.085 149.914C116.085 150.334 115.969 150.712 115.735 151.048C115.502 151.384 115.171 151.65 114.741 151.846C114.321 152.033 113.836 152.126 113.285 152.126Z" fill="#C5C5C5"/>
<path d="M56.0806 104V100.672H62.7366V124H59.0566V104H56.0806ZM67.6841 106.432C67.8121 104.448 68.5695 102.901 69.9561 101.792C71.3641 100.683 73.1561 100.128 75.3321 100.128C76.8255 100.128 78.1161 100.395 79.2041 100.928C80.2921 101.461 81.1135 102.187 81.6681 103.104C82.2228 104.021 82.5001 105.056 82.5001 106.208C82.5001 107.531 82.1481 108.661 81.4441 109.6C80.7401 110.539 79.8975 111.168 78.9161 111.488V111.616C80.1748 112 81.1561 112.704 81.8601 113.728C82.5641 114.731 82.9161 116.021 82.9161 117.6C82.9161 118.859 82.6281 119.979 82.0521 120.96C81.4761 121.941 80.6228 122.72 79.4921 123.296C78.3615 123.851 77.0068 124.128 75.4281 124.128C73.1241 124.128 71.2255 123.541 69.7321 122.368C68.2601 121.173 67.4708 119.467 67.3641 117.248H70.8841C70.9695 118.379 71.4068 119.307 72.1961 120.032C72.9855 120.736 74.0521 121.088 75.3961 121.088C76.6975 121.088 77.7001 120.736 78.4041 120.032C79.1081 119.307 79.4601 118.379 79.4601 117.248C79.4601 115.755 78.9801 114.699 78.0201 114.08C77.0815 113.44 75.6308 113.12 73.6681 113.12H72.8361V110.112H73.7001C75.4281 110.091 76.7401 109.803 77.6361 109.248C78.5535 108.693 79.0121 107.819 79.0121 106.624C79.0121 105.6 78.6815 104.789 78.0201 104.192C77.3588 103.573 76.4201 103.264 75.2041 103.264C74.0095 103.264 73.0815 103.573 72.4201 104.192C71.7588 104.789 71.3641 105.536 71.2361 106.432H67.6841ZM99.2921 106.08C99.0575 105.099 98.6308 104.363 98.0121 103.872C97.3935 103.381 96.5295 103.136 95.4201 103.136C93.7348 103.136 92.4761 103.787 91.6441 105.088C90.8121 106.368 90.3748 108.501 90.3321 111.488C90.8868 110.549 91.6975 109.824 92.7641 109.312C93.8308 108.8 94.9828 108.544 96.2201 108.544C97.6281 108.544 98.8655 108.853 99.9321 109.472C101.02 110.069 101.863 110.944 102.46 112.096C103.079 113.248 103.388 114.624 103.388 116.224C103.388 117.717 103.089 119.051 102.492 120.224C101.916 121.397 101.052 122.325 99.9001 123.008C98.7481 123.669 97.3615 124 95.7401 124C93.5428 124 91.8148 123.52 90.5561 122.56C89.3188 121.579 88.4441 120.203 87.9321 118.432C87.4415 116.661 87.1961 114.453 87.1961 111.808C87.1961 104 89.9481 100.096 95.4521 100.096C97.5855 100.096 99.2601 100.672 100.476 101.824C101.713 102.976 102.439 104.395 102.652 106.08H99.2921ZM95.4201 111.616C94.1188 111.616 93.0095 112.011 92.0921 112.8C91.1961 113.568 90.7481 114.688 90.7481 116.16C90.7481 117.632 91.1641 118.805 91.9961 119.68C92.8495 120.533 94.0335 120.96 95.5481 120.96C96.8921 120.96 97.9481 120.544 98.7161 119.712C99.5055 118.88 99.9001 117.771 99.9001 116.384C99.9001 114.933 99.5161 113.781 98.7481 112.928C98.0015 112.053 96.8921 111.616 95.4201 111.616Z" fill="#FCFCFC"/>
</g>
<defs>
<filter id="filter0_d_5340_2248" x="-28" y="-16" width="208" height="234" filterUnits="userSpaceOnUse" color-interpolation-filters="sRGB">
<feFlood flood-opacity="0" result="BackgroundImageFix"/>
<feColorMatrix in="SourceAlpha" type="matrix" values="0 0 0 0 0 0 0 0 0 0 0 0 0 0 0 0 0 0 127 0" result="hardAlpha"/>
<feOffset dx="-4" dy="8"/>
<feGaussianBlur stdDeviation="12"/>
<feColorMatrix type="matrix" values="0 0 0 0 0 0 0 0 0 0 0 0 0 0 0 0 0 0 0.05 0"/>
<feBlend mode="normal" in2="BackgroundImageFix" result="effect1_dropShadow_5340_2248"/>
<feBlend mode="normal" in="SourceGraphic" in2="effect1_dropShadow_5340_2248" result="shape"/>
</filter>
<clipPath id="clip0_5340_2248">
<rect width="160" height="186" fill="white"/>
</clipPath>
</defs>
</svg>
