<svg width="372" height="81" viewBox="0 0 372 81" fill="none" xmlns="http://www.w3.org/2000/svg">
<mask id="mask0_5340_5368" style="mask-type:luminance" maskUnits="userSpaceOnUse" x="0" y="0" width="372" height="81">
<rect width="372" height="81" fill="white"/>
</mask>
<g mask="url(#mask0_5340_5368)">
<rect width="372" height="81.8438" fill="white"/>
</g>
<g clip-path="url(#clip0_5340_5368)">
<mask id="mask1_5340_5368" style="mask-type:luminance" maskUnits="userSpaceOnUse" x="332" y="31" width="20" height="20">
<path fill-rule="evenodd" clip-rule="evenodd" d="M332.771 37.1263C331.887 38.5802 332.732 40.0821 333.751 40.64L333.96 40.7541C333.957 40.8373 333.954 40.9205 333.953 41.0005C333.954 41.0806 333.957 41.1637 333.96 41.2469L333.751 41.361C332.732 41.9189 331.887 43.4208 332.771 44.8747L333.952 46.8139C334.778 48.1697 336.386 48.2305 337.37 47.6918L337.56 47.5872C337.797 47.7409 338.043 47.8838 338.295 48.0161V48.0523C338.295 49.3558 339.324 50.6006 340.82 50.6006H343.181C344.677 50.6006 345.706 49.3558 345.706 48.0523V48.0161C345.958 47.8838 346.204 47.7409 346.441 47.5872L346.631 47.6918C347.614 48.2305 349.223 48.1697 350.048 46.8139L351.229 44.8747C352.114 43.4208 351.269 41.9189 350.25 41.361L350.041 41.2469C350.044 41.1637 350.046 41.0806 350.047 41.0005C350.046 40.9205 350.044 40.8373 350.041 40.7541L350.25 40.64C351.269 40.0821 352.114 38.5802 351.229 37.1263L350.048 35.1871C349.223 33.8314 347.614 33.7716 346.631 34.3092L346.441 34.4138C346.204 34.2602 345.958 34.1172 345.706 33.985V33.9487C345.706 32.6452 344.677 31.4004 343.181 31.4004H340.82C339.324 31.4004 338.295 32.6452 338.295 33.9487V33.985C338.043 34.1172 337.797 34.2602 337.56 34.4138L337.37 34.3092C336.386 33.7716 334.778 33.8314 333.952 35.1871L332.771 37.1263ZM337.757 36.9535L336.348 36.1813C336.139 36.0671 335.881 36.1183 335.772 36.2975L334.591 38.2367C334.482 38.4159 334.564 38.6527 334.773 38.7679L336.262 39.5829C336.146 40.0362 336.085 40.512 336.085 41.0005C336.085 41.489 336.146 41.9648 336.262 42.4181L334.773 43.2331C334.564 43.3483 334.482 43.5851 334.591 43.7642L335.772 45.7036C335.881 45.8827 336.139 45.934 336.348 45.8197L337.757 45.0475C338.48 45.7782 339.397 46.3222 340.426 46.6006V48.0523C340.426 48.2816 340.602 48.4673 340.82 48.4673H343.181C343.399 48.4673 343.575 48.2816 343.575 48.0523V46.6006C344.604 46.3222 345.52 45.7782 346.244 45.0475L347.653 45.8197C347.862 45.934 348.12 45.8827 348.229 45.7036L349.41 43.7642C349.518 43.5851 349.437 43.3483 349.228 43.2331L347.739 42.4181C347.854 41.9648 347.916 41.489 347.916 41.0005C347.916 40.512 347.854 40.0362 347.739 39.5829L349.228 38.7679C349.437 38.6527 349.518 38.4159 349.41 38.2367L348.229 36.2975C348.12 36.1183 347.862 36.0671 347.653 36.1813L346.244 36.9535C345.52 36.2228 344.604 35.6788 343.575 35.4015V33.9487C343.575 33.7194 343.399 33.5338 343.181 33.5338H340.82C340.602 33.5338 340.426 33.7194 340.426 33.9487V35.4015C339.397 35.6788 338.48 36.2228 337.757 36.9535ZM341.996 44.2006C343.762 44.2006 345.192 42.768 345.192 41.0005C345.192 39.233 343.762 37.8005 341.996 37.8005C340.231 37.8005 338.8 39.233 338.8 41.0005C338.8 42.768 340.231 44.2006 341.996 44.2006ZM343.2 41.0004C343.2 41.6628 342.664 42.2004 342 42.2004C341.337 42.2004 340.8 41.6628 340.8 41.0004C340.8 40.338 341.337 39.8004 342 39.8004C342.664 39.8004 343.2 40.338 343.2 41.0004Z" fill="white"/>
</mask>
<g mask="url(#mask1_5340_5368)">
<rect x="330" y="29" width="24" height="24" fill="#595F69"/>
</g>
<path d="M40.5 63.9998C52.8924 63.9998 63 53.8924 63 41.5C63 29.1073 52.8927 19 40.5 19C28.1073 19 18 29.1073 18 41.4999C18 53.8923 28.1073 63.9998 40.5 63.9998Z" fill="#304FFD"/>
<path d="M45.9513 26.9219L41.7109 49.9411L44.7398 50.5469C51.1508 45.8522 53.902 26.9219 45.9513 26.9219Z" fill="#4E1E30"/>
<path d="M45.9521 26.9213C44.892 26.2777 39.2971 24.643 35.0483 26.9213C29.8235 29.723 25.2549 39.7434 32.6252 49.9407C32.6357 49.9551 38.0771 49.3348 38.0771 49.3348L45.9521 26.9213Z" fill="#4E1E30"/>
<path fill-rule="evenodd" clip-rule="evenodd" d="M45.9517 63.3309C44.2051 63.7683 42.3787 64.0008 40.4998 64.0008C38.6209 64.0008 36.7944 63.7683 35.0479 63.3309V50.915C36.2536 50.0045 36.2594 48.4994 36.2594 47.1146V45.7012H44.7402V47.1162H44.7731C44.7731 48.489 44.7767 49.9811 45.9517 50.8938V63.3309Z" fill="#FFD7A3"/>
<path fill-rule="evenodd" clip-rule="evenodd" d="M45.346 63.4725C43.7843 63.8176 42.1626 63.9995 40.4999 63.9995C39.2629 63.9995 38.0488 63.8988 36.8652 63.7053V57.9485C37.9682 58.2485 39.1972 58.4212 40.4999 58.4212C42.3033 58.4212 43.9717 58.0972 45.346 57.5488V63.4725Z" fill="#304FFD"/>
<path d="M45.3453 53.5744C45.5664 53.6347 45.7654 53.6669 45.9511 53.6825V50.8921C44.7763 49.9792 44.7725 48.487 44.7725 47.1142L44.7717 47.0791V45.6641L38.0761 45.6993L36.2588 46.305C37.4703 47.6681 41.1808 52.4386 45.3453 53.5744Z" fill="#FDC88E"/>
<path d="M48.981 37.8256C48.981 42.6767 44.1564 48.7295 40.5002 48.7295C36.8441 48.7295 32.0195 42.6767 32.0195 37.8256C32.0195 32.9746 35.8165 31.1621 40.5002 31.1621C45.1839 31.1621 48.981 32.9746 48.981 37.8256Z" fill="#FFE1B2"/>
<path d="M41.7115 28.1328C41.371 28.1328 40.266 28.5152 39.3628 28.8503L39.2883 28.7386C39.2883 28.7386 39.1637 28.8365 38.9479 29.0063C38.4456 29.197 38.0768 29.3443 38.0768 29.3443L38.2186 29.5805C35.9193 31.392 30.6735 35.536 30.2018 36.0079C29.596 36.6136 33.8364 52.0686 33.8364 43.277C33.8364 35.9321 37.9171 34.4775 41.7115 33.5847C43.4278 33.181 43.9326 32.1713 44.1345 31.1617C44.3364 30.1521 42.3173 28.1328 41.7115 28.1328Z" fill="#4E1E30"/>
<path d="M43.5289 31.768C44.6395 35.756 46.8607 37.5606 48.9431 38.0907C50.084 38.3812 49.5867 34.7969 49.5867 34.7969C49.5867 34.7969 47.9713 30.6574 47.7694 30.5565C47.5675 30.4555 45.952 26.9219 45.952 26.9219L42.3174 29.9508L43.5289 31.768Z" fill="#4E1E30"/>
<path fill-rule="evenodd" clip-rule="evenodd" d="M38.8738 63.9407L35.713 50.1875C35.1457 51.1093 33.989 51.7573 31.6151 51.7573H31.4133C28.0138 51.7573 25.2088 54.303 24.8008 57.5921C28.4959 61.1979 33.4212 63.5482 38.8738 63.9407Z" fill="#FF965D"/>
<path fill-rule="evenodd" clip-rule="evenodd" d="M56.1991 57.592C55.791 54.303 52.9861 51.7573 49.5865 51.7573H49.3847C47.0108 51.7573 45.8541 51.1093 45.2868 50.1875L42.126 63.9407C47.5786 63.5482 52.5039 61.1978 56.1991 57.592Z" fill="#FF965D"/>
<path d="M48.0784 37.8796C49.0697 37.6524 49.719 38.1377 49.719 39.0912C49.719 40.3532 48.3861 43.4452 46.9848 41.5142C45.5835 39.5833 48.0784 37.8796 48.0784 37.8796Z" fill="#FFE1B2"/>
<g clip-path="url(#clip1_5340_5368)">
<mask id="mask2_5340_5368" style="mask-type:luminance" maskUnits="userSpaceOnUse" x="49" y="11" width="17" height="17">
<rect x="49" y="11" width="17" height="17" rx="6" fill="white"/>
</mask>
<g mask="url(#mask2_5340_5368)">
<rect x="49" y="11" width="17" height="17" fill="#FD7972"/>
</g>
</g>
<g clip-path="url(#clip2_5340_5368)">
<mask id="mask3_5340_5368" style="mask-type:luminance" maskUnits="userSpaceOnUse" x="47" y="9" width="21" height="21">
<path d="M61 9C64.866 9 68 12.134 68 16V23C68 26.866 64.866 30 61 30H54C50.134 30 47 26.866 47 23V16C47 12.134 50.134 9 54 9H61ZM55 11C51.6863 11 49 13.6863 49 17V22C49 25.3137 51.6863 28 55 28H60C63.3137 28 66 25.3137 66 22V17C66 13.6863 63.3137 11 60 11H55Z" fill="white"/>
</mask>
<g mask="url(#mask3_5340_5368)">
<rect x="47" y="9" width="21" height="21" fill="white"/>
</g>
</g>
<path d="M56.0371 19.14C55.3704 18.7933 55.0371 18.2567 55.0371 17.53C55.0371 17.17 55.1271 16.8433 55.3071 16.55C55.4938 16.25 55.7704 16.0133 56.1371 15.84C56.5104 15.66 56.9638 15.57 57.4971 15.57C58.0304 15.57 58.4804 15.66 58.8471 15.84C59.2204 16.0133 59.4971 16.25 59.6771 16.55C59.8638 16.8433 59.9571 17.17 59.9571 17.53C59.9571 17.8967 59.8671 18.22 59.6871 18.5C59.5071 18.7733 59.2671 18.9867 58.9671 19.14C59.3338 19.3 59.6204 19.5333 59.8271 19.84C60.0338 20.1467 60.1371 20.51 60.1371 20.93C60.1371 21.3833 60.0204 21.78 59.7871 22.12C59.5604 22.4533 59.2471 22.71 58.8471 22.89C58.4471 23.07 57.9971 23.16 57.4971 23.16C56.9971 23.16 56.5471 23.07 56.1471 22.89C55.7538 22.71 55.4404 22.4533 55.2071 22.12C54.9804 21.78 54.8671 21.3833 54.8671 20.93C54.8671 20.51 54.9704 20.1467 55.1771 19.84C55.3838 19.5267 55.6704 19.2933 56.0371 19.14ZM58.5971 17.73C58.5971 17.4033 58.4971 17.15 58.2971 16.97C58.1038 16.79 57.8371 16.7 57.4971 16.7C57.1638 16.7 56.8971 16.79 56.6971 16.97C56.5038 17.15 56.4071 17.4067 56.4071 17.74C56.4071 18.04 56.5071 18.28 56.7071 18.46C56.9138 18.64 57.1771 18.73 57.4971 18.73C57.8171 18.73 58.0804 18.64 58.2871 18.46C58.4938 18.2733 58.5971 18.03 58.5971 17.73ZM57.4971 19.75C57.1171 19.75 56.8071 19.8467 56.5671 20.04C56.3338 20.2333 56.2171 20.51 56.2171 20.87C56.2171 21.2033 56.3304 21.4767 56.5571 21.69C56.7904 21.8967 57.1038 22 57.4971 22C57.8904 22 58.2004 21.8933 58.4271 21.68C58.6538 21.4667 58.7671 21.1967 58.7671 20.87C58.7671 20.5167 58.6504 20.2433 58.4171 20.05C58.1838 19.85 57.8771 19.75 57.4971 19.75Z" fill="white"/>
<path d="M89.335 33.675H84.775L83.935 36H82.495L86.275 25.605H87.85L91.615 36H90.175L89.335 33.675ZM88.945 32.565L87.055 27.285L85.165 32.565H88.945ZM94.6274 29.115C94.8674 28.645 95.2074 28.28 95.6474 28.02C96.0974 27.76 96.6424 27.63 97.2824 27.63V29.04H96.9224C95.3924 29.04 94.6274 29.87 94.6274 31.53V36H93.2624V27.78H94.6274V29.115ZM100.523 28.905V33.75C100.523 34.15 100.608 34.435 100.778 34.605C100.948 34.765 101.243 34.845 101.663 34.845H102.668V36H101.438C100.678 36 100.108 35.825 99.7281 35.475C99.3481 35.125 99.1581 34.55 99.1581 33.75V28.905H98.0931V27.78H99.1581V25.71H100.523V27.78H102.668V28.905H100.523ZM110.757 25.545V26.655H107.907V36H106.542V26.655H103.677V25.545H110.757ZM119.937 31.575C119.937 31.835 119.922 32.11 119.892 32.4H113.322C113.372 33.21 113.647 33.845 114.147 34.305C114.657 34.755 115.272 34.98 115.992 34.98C116.582 34.98 117.072 34.845 117.462 34.575C117.862 34.295 118.142 33.925 118.302 33.465H119.772C119.552 34.255 119.112 34.9 118.452 35.4C117.792 35.89 116.972 36.135 115.992 36.135C115.212 36.135 114.512 35.96 113.892 35.61C113.282 35.26 112.802 34.765 112.452 34.125C112.102 33.475 111.927 32.725 111.927 31.875C111.927 31.025 112.097 30.28 112.437 29.64C112.777 29 113.252 28.51 113.862 28.17C114.482 27.82 115.192 27.645 115.992 27.645C116.772 27.645 117.462 27.815 118.062 28.155C118.662 28.495 119.122 28.965 119.442 29.565C119.772 30.155 119.937 30.825 119.937 31.575ZM118.527 31.29C118.527 30.77 118.412 30.325 118.182 29.955C117.952 29.575 117.637 29.29 117.237 29.1C116.847 28.9 116.412 28.8 115.932 28.8C115.242 28.8 114.652 29.02 114.162 29.46C113.682 29.9 113.407 30.51 113.337 31.29H118.527ZM131.624 27.63C132.264 27.63 132.834 27.765 133.334 28.035C133.834 28.295 134.229 28.69 134.519 29.22C134.809 29.75 134.954 30.395 134.954 31.155V36H133.604V31.35C133.604 30.53 133.399 29.905 132.989 29.475C132.589 29.035 132.044 28.815 131.354 28.815C130.644 28.815 130.079 29.045 129.659 29.505C129.239 29.955 129.029 30.61 129.029 31.47V36H127.679V31.35C127.679 30.53 127.474 29.905 127.064 29.475C126.664 29.035 126.119 28.815 125.429 28.815C124.719 28.815 124.154 29.045 123.734 29.505C123.314 29.955 123.104 30.61 123.104 31.47V36H121.739V27.78H123.104V28.965C123.374 28.535 123.734 28.205 124.184 27.975C124.644 27.745 125.149 27.63 125.699 27.63C126.389 27.63 126.999 27.785 127.529 28.095C128.059 28.405 128.454 28.86 128.714 29.46C128.944 28.88 129.324 28.43 129.854 28.11C130.384 27.79 130.974 27.63 131.624 27.63ZM138.558 29.295C138.828 28.825 139.228 28.435 139.758 28.125C140.298 27.805 140.923 27.645 141.633 27.645C142.363 27.645 143.023 27.82 143.613 28.17C144.213 28.52 144.683 29.015 145.023 29.655C145.363 30.285 145.533 31.02 145.533 31.86C145.533 32.69 145.363 33.43 145.023 34.08C144.683 34.73 144.213 35.235 143.613 35.595C143.023 35.955 142.363 36.135 141.633 36.135C140.933 36.135 140.313 35.98 139.773 35.67C139.243 35.35 138.838 34.955 138.558 34.485V39.9H137.193V27.78H138.558V29.295ZM144.138 31.86C144.138 31.24 144.013 30.7 143.763 30.24C143.513 29.78 143.173 29.43 142.743 29.19C142.323 28.95 141.858 28.83 141.348 28.83C140.848 28.83 140.383 28.955 139.953 29.205C139.533 29.445 139.193 29.8 138.933 30.27C138.683 30.73 138.558 31.265 138.558 31.875C138.558 32.495 138.683 33.04 138.933 33.51C139.193 33.97 139.533 34.325 139.953 34.575C140.383 34.815 140.848 34.935 141.348 34.935C141.858 34.935 142.323 34.815 142.743 34.575C143.173 34.325 143.513 33.97 143.763 33.51C144.013 33.04 144.138 32.49 144.138 31.86ZM148.695 24.9V36H147.33V24.9H148.695ZM150.511 31.86C150.511 31.02 150.681 30.285 151.021 29.655C151.361 29.015 151.826 28.52 152.416 28.17C153.016 27.82 153.681 27.645 154.411 27.645C155.131 27.645 155.756 27.8 156.286 28.11C156.816 28.42 157.211 28.81 157.471 29.28V27.78H158.851V36H157.471V34.47C157.201 34.95 156.796 35.35 156.256 35.67C155.726 35.98 155.106 36.135 154.396 36.135C153.666 36.135 153.006 35.955 152.416 35.595C151.826 35.235 151.361 34.73 151.021 34.08C150.681 33.43 150.511 32.69 150.511 31.86ZM157.471 31.875C157.471 31.255 157.346 30.715 157.096 30.255C156.846 29.795 156.506 29.445 156.076 29.205C155.656 28.955 155.191 28.83 154.681 28.83C154.171 28.83 153.706 28.95 153.286 29.19C152.866 29.43 152.531 29.78 152.281 30.24C152.031 30.7 151.906 31.24 151.906 31.86C151.906 32.49 152.031 33.04 152.281 33.51C152.531 33.97 152.866 34.325 153.286 34.575C153.706 34.815 154.171 34.935 154.681 34.935C155.191 34.935 155.656 34.815 156.076 34.575C156.506 34.325 156.846 33.97 157.096 33.51C157.346 33.04 157.471 32.495 157.471 31.875ZM162.823 28.905V33.75C162.823 34.15 162.908 34.435 163.078 34.605C163.248 34.765 163.543 34.845 163.963 34.845H164.968V36H163.738C162.978 36 162.408 35.825 162.028 35.475C161.648 35.125 161.458 34.55 161.458 33.75V28.905H160.393V27.78H161.458V25.71H162.823V27.78H164.968V28.905H162.823ZM174.122 31.575C174.122 31.835 174.107 32.11 174.077 32.4H167.507C167.557 33.21 167.832 33.845 168.332 34.305C168.842 34.755 169.457 34.98 170.177 34.98C170.767 34.98 171.257 34.845 171.647 34.575C172.047 34.295 172.327 33.925 172.487 33.465H173.957C173.737 34.255 173.297 34.9 172.637 35.4C171.977 35.89 171.157 36.135 170.177 36.135C169.397 36.135 168.697 35.96 168.077 35.61C167.467 35.26 166.987 34.765 166.637 34.125C166.287 33.475 166.112 32.725 166.112 31.875C166.112 31.025 166.282 30.28 166.622 29.64C166.962 29 167.437 28.51 168.047 28.17C168.667 27.82 169.377 27.645 170.177 27.645C170.957 27.645 171.647 27.815 172.247 28.155C172.847 28.495 173.307 28.965 173.627 29.565C173.957 30.155 174.122 30.825 174.122 31.575ZM172.712 31.29C172.712 30.77 172.597 30.325 172.367 29.955C172.137 29.575 171.822 29.29 171.422 29.1C171.032 28.9 170.597 28.8 170.117 28.8C169.427 28.8 168.837 29.02 168.347 29.46C167.867 29.9 167.592 30.51 167.522 31.29H172.712Z" fill="#3F434A"/>
<path d="M90.655 55.575C90.655 55.835 90.64 56.11 90.61 56.4H84.04C84.09 57.21 84.365 57.845 84.865 58.305C85.375 58.755 85.99 58.98 86.71 58.98C87.3 58.98 87.79 58.845 88.18 58.575C88.58 58.295 88.86 57.925 89.02 57.465H90.49C90.27 58.255 89.83 58.9 89.17 59.4C88.51 59.89 87.69 60.135 86.71 60.135C85.93 60.135 85.23 59.96 84.61 59.61C84 59.26 83.52 58.765 83.17 58.125C82.82 57.475 82.645 56.725 82.645 55.875C82.645 55.025 82.815 54.28 83.155 53.64C83.495 53 83.97 52.51 84.58 52.17C85.2 51.82 85.91 51.645 86.71 51.645C87.49 51.645 88.18 51.815 88.78 52.155C89.38 52.495 89.84 52.965 90.16 53.565C90.49 54.155 90.655 54.825 90.655 55.575ZM89.245 55.29C89.245 54.77 89.13 54.325 88.9 53.955C88.67 53.575 88.355 53.29 87.955 53.1C87.565 52.9 87.13 52.8 86.65 52.8C85.96 52.8 85.37 53.02 84.88 53.46C84.4 53.9 84.125 54.51 84.055 55.29H89.245ZM96.7468 60L94.7968 56.94L92.9218 60H91.4968L94.1518 55.92L91.4968 51.78H93.0418L94.9918 54.825L96.8518 51.78H98.2768L95.6368 55.845L98.2918 60H96.7468ZM99.1245 55.86C99.1245 55.02 99.2945 54.285 99.6345 53.655C99.9745 53.015 100.439 52.52 101.029 52.17C101.629 51.82 102.294 51.645 103.024 51.645C103.744 51.645 104.369 51.8 104.899 52.11C105.429 52.42 105.824 52.81 106.084 53.28V51.78H107.464V60H106.084V58.47C105.814 58.95 105.409 59.35 104.869 59.67C104.339 59.98 103.719 60.135 103.009 60.135C102.279 60.135 101.619 59.955 101.029 59.595C100.439 59.235 99.9745 58.73 99.6345 58.08C99.2945 57.43 99.1245 56.69 99.1245 55.86ZM106.084 55.875C106.084 55.255 105.959 54.715 105.709 54.255C105.459 53.795 105.119 53.445 104.689 53.205C104.269 52.955 103.804 52.83 103.294 52.83C102.784 52.83 102.319 52.95 101.899 53.19C101.479 53.43 101.144 53.78 100.894 54.24C100.644 54.7 100.519 55.24 100.519 55.86C100.519 56.49 100.644 57.04 100.894 57.51C101.144 57.97 101.479 58.325 101.899 58.575C102.319 58.815 102.784 58.935 103.294 58.935C103.804 58.935 104.269 58.815 104.689 58.575C105.119 58.325 105.459 57.97 105.709 57.51C105.959 57.04 106.084 56.495 106.084 55.875ZM119.656 51.63C120.296 51.63 120.866 51.765 121.366 52.035C121.866 52.295 122.261 52.69 122.551 53.22C122.841 53.75 122.986 54.395 122.986 55.155V60H121.636V55.35C121.636 54.53 121.431 53.905 121.021 53.475C120.621 53.035 120.076 52.815 119.386 52.815C118.676 52.815 118.111 53.045 117.691 53.505C117.271 53.955 117.061 54.61 117.061 55.47V60H115.711V55.35C115.711 54.53 115.506 53.905 115.096 53.475C114.696 53.035 114.151 52.815 113.461 52.815C112.751 52.815 112.186 53.045 111.766 53.505C111.346 53.955 111.136 54.61 111.136 55.47V60H109.771V51.78H111.136V52.965C111.406 52.535 111.766 52.205 112.216 51.975C112.676 51.745 113.181 51.63 113.731 51.63C114.421 51.63 115.031 51.785 115.561 52.095C116.091 52.405 116.486 52.86 116.746 53.46C116.976 52.88 117.356 52.43 117.886 52.11C118.416 51.79 119.006 51.63 119.656 51.63ZM126.59 53.295C126.86 52.825 127.26 52.435 127.79 52.125C128.33 51.805 128.955 51.645 129.665 51.645C130.395 51.645 131.055 51.82 131.645 52.17C132.245 52.52 132.715 53.015 133.055 53.655C133.395 54.285 133.565 55.02 133.565 55.86C133.565 56.69 133.395 57.43 133.055 58.08C132.715 58.73 132.245 59.235 131.645 59.595C131.055 59.955 130.395 60.135 129.665 60.135C128.965 60.135 128.345 59.98 127.805 59.67C127.275 59.35 126.87 58.955 126.59 58.485V63.9H125.225V51.78H126.59V53.295ZM132.17 55.86C132.17 55.24 132.045 54.7 131.795 54.24C131.545 53.78 131.205 53.43 130.775 53.19C130.355 52.95 129.89 52.83 129.38 52.83C128.88 52.83 128.415 52.955 127.985 53.205C127.565 53.445 127.225 53.8 126.965 54.27C126.715 54.73 126.59 55.265 126.59 55.875C126.59 56.495 126.715 57.04 126.965 57.51C127.225 57.97 127.565 58.325 127.985 58.575C128.415 58.815 128.88 58.935 129.38 58.935C129.89 58.935 130.355 58.815 130.775 58.575C131.205 58.325 131.545 57.97 131.795 57.51C132.045 57.04 132.17 56.49 132.17 55.86ZM136.727 48.9V60H135.362V48.9H136.727ZM146.553 55.575C146.553 55.835 146.538 56.11 146.508 56.4H139.938C139.988 57.21 140.263 57.845 140.763 58.305C141.273 58.755 141.888 58.98 142.608 58.98C143.198 58.98 143.688 58.845 144.078 58.575C144.478 58.295 144.758 57.925 144.918 57.465H146.388C146.168 58.255 145.728 58.9 145.068 59.4C144.408 59.89 143.588 60.135 142.608 60.135C141.828 60.135 141.128 59.96 140.508 59.61C139.898 59.26 139.418 58.765 139.068 58.125C138.718 57.475 138.543 56.725 138.543 55.875C138.543 55.025 138.713 54.28 139.053 53.64C139.393 53 139.868 52.51 140.478 52.17C141.098 51.82 141.808 51.645 142.608 51.645C143.388 51.645 144.078 51.815 144.678 52.155C145.278 52.495 145.738 52.965 146.058 53.565C146.388 54.155 146.553 54.825 146.553 55.575ZM145.143 55.29C145.143 54.77 145.028 54.325 144.798 53.955C144.568 53.575 144.253 53.29 143.853 53.1C143.463 52.9 143.028 52.8 142.548 52.8C141.858 52.8 141.268 53.02 140.778 53.46C140.298 53.9 140.023 54.51 139.953 55.29H145.143ZM155.855 50.385C156.965 50.385 157.93 50.595 158.75 51.015C159.57 51.435 160.2 52.025 160.64 52.785C161.08 53.535 161.3 54.405 161.3 55.395C161.3 56.185 161.17 56.945 160.91 57.675C160.65 58.395 160.27 58.98 159.77 59.43C159.28 59.88 158.705 60.105 158.045 60.105C157.545 60.105 157.16 59.98 156.89 59.73C156.62 59.48 156.465 59.14 156.425 58.71C156.115 59.14 155.72 59.48 155.24 59.73C154.77 59.98 154.27 60.105 153.74 60.105C152.98 60.105 152.38 59.875 151.94 59.415C151.51 58.945 151.295 58.315 151.295 57.525C151.295 56.775 151.45 56.075 151.76 55.425C152.08 54.775 152.52 54.255 153.08 53.865C153.64 53.465 154.275 53.265 154.985 53.265C155.935 53.265 156.575 53.625 156.905 54.345L157.07 53.415H158.255L157.505 57.75C157.475 57.94 157.46 58.115 157.46 58.275C157.46 58.875 157.725 59.175 158.255 59.175C158.655 59.175 159 58.985 159.29 58.605C159.59 58.225 159.815 57.75 159.965 57.18C160.115 56.6 160.19 56.03 160.19 55.47C160.19 54.16 159.795 53.145 159.005 52.425C158.225 51.705 157.12 51.345 155.69 51.345C154.5 51.345 153.425 51.635 152.465 52.215C151.515 52.785 150.77 53.57 150.23 54.57C149.69 55.57 149.42 56.675 149.42 57.885C149.41 59.205 149.805 60.22 150.605 60.93C151.405 61.65 152.515 62.01 153.935 62.01C154.875 62.01 155.705 61.84 156.425 61.5L156.605 62.43C155.715 62.8 154.735 62.985 153.665 62.985C152.595 62.985 151.65 62.78 150.83 62.37C150.02 61.97 149.39 61.39 148.94 60.63C148.5 59.88 148.28 59.005 148.28 58.005C148.28 56.595 148.605 55.31 149.255 54.15C149.905 52.98 150.805 52.06 151.955 51.39C153.115 50.72 154.415 50.385 155.855 50.385ZM154.145 59.04C154.595 59.04 155.01 58.91 155.39 58.65C155.77 58.38 156.07 58.02 156.29 57.57C156.51 57.11 156.62 56.61 156.62 56.07C156.62 55.55 156.475 55.13 156.185 54.81C155.905 54.48 155.505 54.315 154.985 54.315C154.505 54.315 154.08 54.46 153.71 54.75C153.35 55.03 153.07 55.405 152.87 55.875C152.67 56.335 152.57 56.815 152.57 57.315C152.57 57.845 152.705 58.265 152.975 58.575C153.245 58.885 153.635 59.04 154.145 59.04ZM173.431 51.63C174.071 51.63 174.641 51.765 175.141 52.035C175.641 52.295 176.036 52.69 176.326 53.22C176.616 53.75 176.761 54.395 176.761 55.155V60H175.411V55.35C175.411 54.53 175.206 53.905 174.796 53.475C174.396 53.035 173.851 52.815 173.161 52.815C172.451 52.815 171.886 53.045 171.466 53.505C171.046 53.955 170.836 54.61 170.836 55.47V60H169.486V55.35C169.486 54.53 169.281 53.905 168.871 53.475C168.471 53.035 167.926 52.815 167.236 52.815C166.526 52.815 165.961 53.045 165.541 53.505C165.121 53.955 164.911 54.61 164.911 55.47V60H163.546V51.78H164.911V52.965C165.181 52.535 165.541 52.205 165.991 51.975C166.451 51.745 166.956 51.63 167.506 51.63C168.196 51.63 168.806 51.785 169.336 52.095C169.866 52.405 170.261 52.86 170.521 53.46C170.751 52.88 171.131 52.43 171.661 52.11C172.191 51.79 172.781 51.63 173.431 51.63ZM178.49 55.86C178.49 55.02 178.66 54.285 179 53.655C179.34 53.015 179.805 52.52 180.395 52.17C180.995 51.82 181.66 51.645 182.39 51.645C183.11 51.645 183.735 51.8 184.265 52.11C184.795 52.42 185.19 52.81 185.45 53.28V51.78H186.83V60H185.45V58.47C185.18 58.95 184.775 59.35 184.235 59.67C183.705 59.98 183.085 60.135 182.375 60.135C181.645 60.135 180.985 59.955 180.395 59.595C179.805 59.235 179.34 58.73 179 58.08C178.66 57.43 178.49 56.69 178.49 55.86ZM185.45 55.875C185.45 55.255 185.325 54.715 185.075 54.255C184.825 53.795 184.485 53.445 184.055 53.205C183.635 52.955 183.17 52.83 182.66 52.83C182.15 52.83 181.685 52.95 181.265 53.19C180.845 53.43 180.51 53.78 180.26 54.24C180.01 54.7 179.885 55.24 179.885 55.86C179.885 56.49 180.01 57.04 180.26 57.51C180.51 57.97 180.845 58.325 181.265 58.575C181.685 58.815 182.15 58.935 182.66 58.935C183.17 58.935 183.635 58.815 184.055 58.575C184.485 58.325 184.825 57.97 185.075 57.51C185.325 57.04 185.45 56.495 185.45 55.875ZM189.841 50.445C189.581 50.445 189.361 50.355 189.181 50.175C189.001 49.995 188.911 49.775 188.911 49.515C188.911 49.255 189.001 49.035 189.181 48.855C189.361 48.675 189.581 48.585 189.841 48.585C190.091 48.585 190.301 48.675 190.471 48.855C190.651 49.035 190.741 49.255 190.741 49.515C190.741 49.775 190.651 49.995 190.471 50.175C190.301 50.355 190.091 50.445 189.841 50.445ZM190.501 51.78V60H189.136V51.78H190.501ZM194.193 48.9V60H192.828V48.9H194.193ZM196.954 60.09C196.694 60.09 196.474 60 196.294 59.82C196.114 59.64 196.024 59.42 196.024 59.16C196.024 58.9 196.114 58.68 196.294 58.5C196.474 58.32 196.694 58.23 196.954 58.23C197.204 58.23 197.414 58.32 197.584 58.5C197.764 58.68 197.854 58.9 197.854 59.16C197.854 59.42 197.764 59.64 197.584 59.82C197.414 60 197.204 60.09 196.954 60.09ZM199.159 55.875C199.159 55.025 199.329 54.285 199.669 53.655C200.009 53.015 200.479 52.52 201.079 52.17C201.689 51.82 202.384 51.645 203.164 51.645C204.174 51.645 205.004 51.89 205.654 52.38C206.314 52.87 206.749 53.55 206.959 54.42H205.489C205.349 53.92 205.074 53.525 204.664 53.235C204.264 52.945 203.764 52.8 203.164 52.8C202.384 52.8 201.754 53.07 201.274 53.61C200.794 54.14 200.554 54.895 200.554 55.875C200.554 56.865 200.794 57.63 201.274 58.17C201.754 58.71 202.384 58.98 203.164 58.98C203.764 58.98 204.264 58.84 204.664 58.56C205.064 58.28 205.339 57.88 205.489 57.36H206.959C206.739 58.2 206.299 58.875 205.639 59.385C204.979 59.885 204.154 60.135 203.164 60.135C202.384 60.135 201.689 59.96 201.079 59.61C200.479 59.26 200.009 58.765 199.669 58.125C199.329 57.485 199.159 56.735 199.159 55.875ZM212.365 60.135C211.595 60.135 210.895 59.96 210.265 59.61C209.645 59.26 209.155 58.765 208.795 58.125C208.445 57.475 208.27 56.725 208.27 55.875C208.27 55.035 208.45 54.295 208.81 53.655C209.18 53.005 209.68 52.51 210.31 52.17C210.94 51.82 211.645 51.645 212.425 51.645C213.205 51.645 213.91 51.82 214.54 52.17C215.17 52.51 215.665 53 216.025 53.64C216.395 54.28 216.58 55.025 216.58 55.875C216.58 56.725 216.39 57.475 216.01 58.125C215.64 58.765 215.135 59.26 214.495 59.61C213.855 59.96 213.145 60.135 212.365 60.135ZM212.365 58.935C212.855 58.935 213.315 58.82 213.745 58.59C214.175 58.36 214.52 58.015 214.78 57.555C215.05 57.095 215.185 56.535 215.185 55.875C215.185 55.215 215.055 54.655 214.795 54.195C214.535 53.735 214.195 53.395 213.775 53.175C213.355 52.945 212.9 52.83 212.41 52.83C211.91 52.83 211.45 52.945 211.03 53.175C210.62 53.395 210.29 53.735 210.04 54.195C209.79 54.655 209.665 55.215 209.665 55.875C209.665 56.545 209.785 57.11 210.025 57.57C210.275 58.03 210.605 58.375 211.015 58.605C211.425 58.825 211.875 58.935 212.365 58.935ZM228.26 51.63C228.9 51.63 229.47 51.765 229.97 52.035C230.47 52.295 230.865 52.69 231.155 53.22C231.445 53.75 231.59 54.395 231.59 55.155V60H230.24V55.35C230.24 54.53 230.035 53.905 229.625 53.475C229.225 53.035 228.68 52.815 227.99 52.815C227.28 52.815 226.715 53.045 226.295 53.505C225.875 53.955 225.665 54.61 225.665 55.47V60H224.315V55.35C224.315 54.53 224.11 53.905 223.7 53.475C223.3 53.035 222.755 52.815 222.065 52.815C221.355 52.815 220.79 53.045 220.37 53.505C219.95 53.955 219.74 54.61 219.74 55.47V60H218.375V51.78H219.74V52.965C220.01 52.535 220.37 52.205 220.82 51.975C221.28 51.745 221.785 51.63 222.335 51.63C223.025 51.63 223.635 51.785 224.165 52.095C224.695 52.405 225.09 52.86 225.35 53.46C225.58 52.88 225.96 52.43 226.49 52.11C227.02 51.79 227.61 51.63 228.26 51.63Z" fill="#8A9099"/>
</g>
<defs>
<clipPath id="clip0_5340_5368">
<rect width="336" height="55" fill="white" transform="translate(18 9)"/>
</clipPath>
<clipPath id="clip1_5340_5368">
<rect width="17" height="17" fill="white" transform="translate(49 11)"/>
</clipPath>
<clipPath id="clip2_5340_5368">
<rect width="21" height="21" fill="white" transform="translate(47 9)"/>
</clipPath>
</defs>
</svg>
