<svg width="256" height="331" viewBox="0 0 256 331" fill="none" xmlns="http://www.w3.org/2000/svg">
<mask id="mask0_5340_6854" style="mask-type:luminance" maskUnits="userSpaceOnUse" x="0" y="0" width="250" height="331">
<rect width="250" height="331" fill="white"/>
</mask>
<g mask="url(#mask0_5340_6854)">
<rect width="250" height="331" fill="white"/>
</g>
<path d="M27.598 43V28.4545H32.7827C33.9143 28.4545 34.8518 28.6605 35.5952 29.0724C36.3385 29.4844 36.8949 30.0478 37.2642 30.7628C37.6335 31.473 37.8182 32.2732 37.8182 33.1634C37.8182 34.0582 37.6312 34.8632 37.2571 35.5781C36.8878 36.2884 36.3291 36.8518 35.581 37.2685C34.8376 37.6804 33.9025 37.8864 32.7756 37.8864H29.2102V36.0256H32.5767C33.2917 36.0256 33.8717 35.9025 34.3168 35.6562C34.7618 35.4053 35.0885 35.0644 35.2969 34.6335C35.5052 34.2027 35.6094 33.7126 35.6094 33.1634C35.6094 32.6141 35.5052 32.1264 35.2969 31.7003C35.0885 31.2741 34.7595 30.9403 34.3097 30.6989C33.8646 30.4574 33.2775 30.3366 32.5483 30.3366H29.7926V43H27.598ZM40.3705 43V32.0909H42.4231V33.8239H42.5367C42.7356 33.2367 43.086 32.7751 43.5879 32.4389C44.0945 32.098 44.6674 31.9276 45.3066 31.9276C45.4392 31.9276 45.5954 31.9323 45.7754 31.9418C45.96 31.9512 46.1044 31.9631 46.2086 31.9773V34.0085C46.1234 33.9848 45.9719 33.9588 45.754 33.9304C45.5362 33.8973 45.3184 33.8807 45.1006 33.8807C44.5987 33.8807 44.1513 33.9872 43.7583 34.2003C43.3701 34.4086 43.0623 34.6998 42.835 35.0739C42.6077 35.4432 42.4941 35.8646 42.4941 36.3381V43H40.3705ZM52.4009 43.2202C51.3781 43.2202 50.4856 42.9858 49.7233 42.517C48.961 42.0483 48.3691 41.3925 47.9477 40.5497C47.5263 39.7069 47.3156 38.7221 47.3156 37.5952C47.3156 36.4635 47.5263 35.474 47.9477 34.6264C48.3691 33.7789 48.961 33.1207 49.7233 32.652C50.4856 32.1832 51.3781 31.9489 52.4009 31.9489C53.4236 31.9489 54.3161 32.1832 55.0784 32.652C55.8407 33.1207 56.4326 33.7789 56.854 34.6264C57.2754 35.474 57.4861 36.4635 57.4861 37.5952C57.4861 38.7221 57.2754 39.7069 56.854 40.5497C56.4326 41.3925 55.8407 42.0483 55.0784 42.517C54.3161 42.9858 53.4236 43.2202 52.4009 43.2202ZM52.408 41.4375C53.0708 41.4375 53.6201 41.2623 54.0557 40.9119C54.4913 40.5616 54.8133 40.0952 55.0216 39.5128C55.2347 38.9304 55.3412 38.2888 55.3412 37.5881C55.3412 36.892 55.2347 36.2528 55.0216 35.6705C54.8133 35.0833 54.4913 34.6122 54.0557 34.2571C53.6201 33.902 53.0708 33.7244 52.408 33.7244C51.7403 33.7244 51.1864 33.902 50.746 34.2571C50.3104 34.6122 49.9861 35.0833 49.773 35.6705C49.5647 36.2528 49.4605 36.892 49.4605 37.5881C49.4605 38.2888 49.5647 38.9304 49.773 39.5128C49.9861 40.0952 50.3104 40.5616 50.746 40.9119C51.1864 41.2623 51.7403 41.4375 52.408 41.4375ZM60.0065 32.0909H62.13V43.7102C62.13 44.4394 61.9975 45.0549 61.7323 45.5568C61.4719 46.0587 61.0836 46.4399 60.5675 46.7003C60.0562 46.9607 59.4241 47.0909 58.6712 47.0909C58.5955 47.0909 58.5245 47.0909 58.4582 47.0909C58.3871 47.0909 58.3138 47.0885 58.238 47.0838V45.2585C58.3043 45.2585 58.3635 45.2585 58.4156 45.2585C58.4629 45.2585 58.5174 45.2585 58.5789 45.2585C59.0808 45.2585 59.443 45.1236 59.6656 44.8537C59.8928 44.5885 60.0065 44.2027 60.0065 43.696V32.0909ZM61.0576 30.4077C60.6883 30.4077 60.371 30.2846 60.1059 30.0384C59.8455 29.7874 59.7153 29.4891 59.7153 29.1435C59.7153 28.7931 59.8455 28.4948 60.1059 28.2486C60.371 27.9976 60.6883 27.8722 61.0576 27.8722C61.4269 27.8722 61.7418 27.9976 62.0022 28.2486C62.2674 28.4948 62.3999 28.7931 62.3999 29.1435C62.3999 29.4891 62.2674 29.7874 62.0022 30.0384C61.7418 30.2846 61.4269 30.4077 61.0576 30.4077ZM69.8386 43.2202C68.7638 43.2202 67.8382 42.9905 67.0616 42.5312C66.2899 42.0672 65.6933 41.4162 65.2719 40.5781C64.8552 39.7353 64.6469 38.7481 64.6469 37.6165C64.6469 36.4991 64.8552 35.5142 65.2719 34.6619C65.6933 33.8097 66.2804 33.1444 67.0332 32.6662C67.7908 32.188 68.6762 31.9489 69.6895 31.9489C70.305 31.9489 70.9016 32.0507 71.4793 32.2543C72.0569 32.4579 72.5754 32.7775 73.0347 33.2131C73.4939 33.6487 73.8562 34.2145 74.1213 34.9105C74.3865 35.6018 74.519 36.4422 74.519 37.4318V38.1847H65.8472V36.5938H72.4381C72.4381 36.035 72.3244 35.5402 72.0972 35.1094C71.8699 34.6738 71.5503 34.3305 71.1384 34.0795C70.7312 33.8286 70.2529 33.7031 69.7037 33.7031C69.1071 33.7031 68.5863 33.8499 68.1412 34.1435C67.7009 34.4323 67.3599 34.8111 67.1185 35.2798C66.8817 35.7438 66.7634 36.2481 66.7634 36.7926V38.0355C66.7634 38.7647 66.8912 39.3849 67.1469 39.8963C67.4073 40.4077 67.7695 40.7983 68.2335 41.0682C68.6975 41.3333 69.2397 41.4659 69.8599 41.4659C70.2624 41.4659 70.6294 41.4091 70.9608 41.2955C71.2922 41.1771 71.5787 41.0019 71.8202 40.7699C72.0616 40.5379 72.2463 40.2514 72.3741 39.9105L74.3841 40.2727C74.2231 40.8646 73.9343 41.383 73.5176 41.8281C73.1057 42.2685 72.5872 42.6117 71.9622 42.858C71.3419 43.0994 70.6341 43.2202 69.8386 43.2202ZM81.6204 43.2202C80.5645 43.2202 79.6554 42.9811 78.8931 42.5028C78.1355 42.0199 77.5531 41.3546 77.146 40.5071C76.7388 39.6596 76.5352 38.6889 76.5352 37.5952C76.5352 36.4872 76.7435 35.5095 77.1602 34.6619C77.5768 33.8097 78.1639 33.1444 78.9215 32.6662C79.6791 32.188 80.5716 31.9489 81.5991 31.9489C82.4277 31.9489 83.1663 32.1027 83.815 32.4105C84.4637 32.7135 84.9869 33.1397 85.3846 33.6889C85.7871 34.2382 86.0262 34.8797 86.1019 35.6136H84.0352C83.9215 35.1023 83.6611 34.6619 83.2539 34.2926C82.8514 33.9233 82.3117 33.7386 81.6346 33.7386C81.0427 33.7386 80.5243 33.8949 80.0792 34.2074C79.6388 34.5152 79.2956 34.9555 79.0494 35.5284C78.8031 36.0966 78.68 36.7689 78.68 37.5455C78.68 38.3409 78.8008 39.0275 79.0423 39.6051C79.2837 40.1828 79.6246 40.6302 80.065 40.9474C80.5101 41.2647 81.0333 41.4233 81.6346 41.4233C82.0371 41.4233 82.4016 41.3499 82.7283 41.2031C83.0598 41.0516 83.3368 40.8362 83.5593 40.5568C83.7866 40.2775 83.9452 39.9413 84.0352 39.5483H86.1019C86.0262 40.2538 85.7965 40.8835 85.413 41.4375C85.0295 41.9915 84.5157 42.4271 83.8718 42.7443C83.2326 43.0616 82.4821 43.2202 81.6204 43.2202ZM93.6152 32.0909V33.7955H87.6564V32.0909H93.6152ZM89.2544 29.4773H91.378V39.7969C91.378 40.2088 91.4395 40.5189 91.5626 40.7273C91.6857 40.9309 91.8444 41.0705 92.0385 41.1463C92.2374 41.2173 92.4528 41.2528 92.6848 41.2528C92.8553 41.2528 93.0044 41.241 93.1322 41.2173C93.2601 41.1937 93.3595 41.1747 93.4305 41.1605L93.8141 42.9148C93.691 42.9621 93.5158 43.0095 93.2885 43.0568C93.0612 43.1089 92.7771 43.1373 92.4362 43.142C91.8775 43.1515 91.3567 43.0521 90.8737 42.8438C90.3908 42.6354 90.0001 42.3134 89.7018 41.8778C89.4036 41.4422 89.2544 40.8954 89.2544 40.2372V29.4773ZM101.728 43V28.4545H103.922V41.1108H110.513V43H101.728ZM112.996 43V32.0909H115.12V43H112.996ZM114.069 30.4077C113.699 30.4077 113.382 30.2846 113.117 30.0384C112.857 29.7874 112.726 29.4891 112.726 29.1435C112.726 28.7931 112.857 28.4948 113.117 28.2486C113.382 27.9976 113.699 27.8722 114.069 27.8722C114.438 27.8722 114.753 27.9976 115.013 28.2486C115.279 28.4948 115.411 28.7931 115.411 29.1435C115.411 29.4891 115.279 29.7874 115.013 30.0384C114.753 30.2846 114.438 30.4077 114.069 30.4077ZM126.301 34.7543L124.377 35.0952C124.296 34.849 124.168 34.6146 123.993 34.392C123.823 34.1695 123.591 33.9872 123.297 33.8452C123.004 33.7031 122.637 33.6321 122.196 33.6321C121.595 33.6321 121.093 33.767 120.691 34.0369C120.288 34.3021 120.087 34.6454 120.087 35.0668C120.087 35.4313 120.222 35.7249 120.492 35.9474C120.762 36.17 121.197 36.3523 121.799 36.4943L123.532 36.892C124.535 37.1241 125.283 37.4815 125.776 37.9645C126.268 38.4474 126.515 39.0748 126.515 39.8466C126.515 40.5 126.325 41.0824 125.946 41.5938C125.572 42.1004 125.049 42.4981 124.377 42.7869C123.709 43.0758 122.935 43.2202 122.054 43.2202C120.833 43.2202 119.836 42.9598 119.064 42.4389C118.292 41.9134 117.819 41.1676 117.644 40.2017L119.696 39.8892C119.824 40.4242 120.087 40.8291 120.485 41.1037C120.882 41.3736 121.401 41.5085 122.04 41.5085C122.736 41.5085 123.292 41.3641 123.709 41.0753C124.126 40.7817 124.334 40.4242 124.334 40.0028C124.334 39.6619 124.206 39.3755 123.951 39.1435C123.7 38.9115 123.314 38.7363 122.793 38.6179L120.946 38.2131C119.928 37.9811 119.176 37.6117 118.688 37.1051C118.205 36.5985 117.963 35.9569 117.963 35.1804C117.963 34.5365 118.143 33.973 118.503 33.4901C118.863 33.0071 119.36 32.6307 119.995 32.3608C120.629 32.0862 121.356 31.9489 122.175 31.9489C123.354 31.9489 124.282 32.2045 124.959 32.7159C125.636 33.2225 126.084 33.902 126.301 34.7543ZM134.092 32.0909V33.7955H128.133V32.0909H134.092ZM129.731 29.4773H131.855V39.7969C131.855 40.2088 131.916 40.5189 132.039 40.7273C132.162 40.9309 132.321 41.0705 132.515 41.1463C132.714 41.2173 132.929 41.2528 133.161 41.2528C133.332 41.2528 133.481 41.241 133.609 41.2173C133.737 41.1937 133.836 41.1747 133.907 41.1605L134.291 42.9148C134.168 42.9621 133.992 43.0095 133.765 43.0568C133.538 43.1089 133.254 43.1373 132.913 43.142C132.354 43.1515 131.833 43.0521 131.35 42.8438C130.867 42.6354 130.477 42.3134 130.178 41.8778C129.88 41.4422 129.731 40.8954 129.731 40.2372V29.4773Z" fill="#171717"/>
<path d="M26.8153 65.9119V64.8977L31.2898 57.8182H32.0256V59.3892H31.5284L28.1477 64.7386V64.8182H34.1733V65.9119H26.8153ZM31.608 68V65.6037V65.1314V57.8182H32.7812V68H31.608ZM49.0438 62.9091C49.0438 63.983 48.8499 64.911 48.4621 65.6932C48.0743 66.4754 47.5424 67.0786 46.8662 67.5028C46.1901 67.9271 45.4178 68.1392 44.5495 68.1392C43.6811 68.1392 42.9088 67.9271 42.2327 67.5028C41.5566 67.0786 41.0246 66.4754 40.6368 65.6932C40.249 64.911 40.0551 63.983 40.0551 62.9091C40.0551 61.8352 40.249 60.9072 40.6368 60.125C41.0246 59.3428 41.5566 58.7396 42.2327 58.3153C42.9088 57.8911 43.6811 57.679 44.5495 57.679C45.4178 57.679 46.1901 57.8911 46.8662 58.3153C47.5424 58.7396 48.0743 59.3428 48.4621 60.125C48.8499 60.9072 49.0438 61.8352 49.0438 62.9091ZM47.8506 62.9091C47.8506 62.0275 47.7031 61.2834 47.4081 60.6768C47.1165 60.0703 46.7204 59.6113 46.2199 59.2997C45.7228 58.9882 45.1659 58.8324 44.5495 58.8324C43.933 58.8324 43.3745 58.9882 42.874 59.2997C42.3769 59.6113 41.9808 60.0703 41.6858 60.6768C41.3942 61.2834 41.2483 62.0275 41.2483 62.9091C41.2483 63.7907 41.3942 64.5348 41.6858 65.1413C41.9808 65.7479 42.3769 66.2069 42.874 66.5185C43.3745 66.83 43.933 66.9858 44.5495 66.9858C45.1659 66.9858 45.7228 66.83 46.2199 66.5185C46.7204 66.2069 47.1165 65.7479 47.4081 65.1413C47.7031 64.5348 47.8506 63.7907 47.8506 62.9091ZM52.2811 63.4062V68H51.1078V60.3636H52.2414V61.5568H52.3408C52.5198 61.169 52.7916 60.8575 53.1561 60.6222C53.5207 60.3835 53.9914 60.2642 54.5681 60.2642C55.0851 60.2642 55.5375 60.3703 55.9253 60.5824C56.3131 60.7912 56.6147 61.1094 56.8301 61.5369C57.0456 61.9612 57.1533 62.4981 57.1533 63.1477V68H55.98V63.2273C55.98 62.6274 55.8242 62.16 55.5127 61.8253C55.2011 61.4872 54.7736 61.3182 54.23 61.3182C53.8555 61.3182 53.5207 61.3994 53.2257 61.5618C52.9341 61.7242 52.7037 61.9612 52.5347 62.2727C52.3657 62.5843 52.2811 62.9621 52.2811 63.4062ZM62.5297 71.0227C61.9629 71.0227 61.4757 70.9498 61.068 70.804C60.6604 70.6615 60.3206 70.4725 60.0489 70.2372C59.7804 70.0052 59.5666 69.7566 59.4075 69.4915L60.3422 68.8352C60.4482 68.9744 60.5825 69.1335 60.7449 69.3125C60.9073 69.4948 61.1294 69.6522 61.4111 69.7848C61.6961 69.9207 62.069 69.9886 62.5297 69.9886C63.1462 69.9886 63.6549 69.8395 64.056 69.5412C64.457 69.2429 64.6575 68.7756 64.6575 68.1392V66.5881H64.5581C64.4719 66.7273 64.3493 66.8996 64.1902 67.1051C64.0344 67.3073 63.809 67.4879 63.5141 67.647C63.2224 67.8028 62.828 67.8807 62.3308 67.8807C61.7143 67.8807 61.1608 67.7348 60.6703 67.4432C60.1831 67.1515 59.797 66.7273 59.5119 66.1705C59.2302 65.6136 59.0893 64.9375 59.0893 64.142C59.0893 63.3598 59.2269 62.6787 59.502 62.0987C59.7771 61.5154 60.1599 61.0646 60.6504 60.7464C61.141 60.425 61.7077 60.2642 62.3507 60.2642C62.8479 60.2642 63.2423 60.3471 63.5339 60.5128C63.8289 60.6752 64.0543 60.8608 64.2101 61.0696C64.3692 61.2751 64.4918 61.4441 64.578 61.5767H64.6973V60.3636H65.8308V68.2188C65.8308 68.875 65.6817 69.4086 65.3834 69.8196C65.0884 70.2339 64.6907 70.5372 64.1902 70.7294C63.693 70.925 63.1395 71.0227 62.5297 71.0227ZM62.4899 66.8267C62.9606 66.8267 63.3583 66.719 63.6831 66.5036C64.0079 66.2881 64.2548 65.9782 64.4239 65.5739C64.5929 65.1695 64.6774 64.6856 64.6774 64.1222C64.6774 63.572 64.5946 63.0864 64.4288 62.6655C64.2631 62.2446 64.0178 61.9148 63.693 61.6761C63.3682 61.4375 62.9672 61.3182 62.4899 61.3182C61.9928 61.3182 61.5785 61.4441 61.247 61.696C60.9189 61.9479 60.672 62.286 60.5062 62.7102C60.3438 63.1345 60.2626 63.6051 60.2626 64.1222C60.2626 64.6525 60.3455 65.1214 60.5112 65.5291C60.6803 65.9335 60.9288 66.2517 61.257 66.4837C61.5884 66.7124 61.9994 66.8267 62.4899 66.8267ZM71.2308 68.1591C70.5414 68.1591 69.9366 67.995 69.4162 67.6669C68.8991 67.3388 68.4948 66.8797 68.2031 66.2898C67.9148 65.6998 67.7706 65.0104 67.7706 64.2216C67.7706 63.4261 67.9148 62.7318 68.2031 62.1385C68.4948 61.5452 68.8991 61.0845 69.4162 60.7564C69.9366 60.4283 70.5414 60.2642 71.2308 60.2642C71.9202 60.2642 72.5234 60.4283 73.0405 60.7564C73.5608 61.0845 73.9652 61.5452 74.2536 62.1385C74.5452 62.7318 74.6911 63.4261 74.6911 64.2216C74.6911 65.0104 74.5452 65.6998 74.2536 66.2898C73.9652 66.8797 73.5608 67.3388 73.0405 67.6669C72.5234 67.995 71.9202 68.1591 71.2308 68.1591ZM71.2308 67.1051C71.7545 67.1051 72.1854 66.9709 72.5234 66.7024C72.8615 66.4339 73.1117 66.081 73.2741 65.6435C73.4366 65.206 73.5178 64.732 73.5178 64.2216C73.5178 63.7112 73.4366 63.2356 73.2741 62.7947C73.1117 62.3539 72.8615 61.9976 72.5234 61.7259C72.1854 61.4541 71.7545 61.3182 71.2308 61.3182C70.7071 61.3182 70.2763 61.4541 69.9382 61.7259C69.6001 61.9976 69.3499 62.3539 69.1875 62.7947C69.0251 63.2356 68.9439 63.7112 68.9439 64.2216C68.9439 64.732 69.0251 65.206 69.1875 65.6435C69.3499 66.081 69.6001 66.4339 69.9382 66.7024C70.2763 66.9709 70.7071 67.1051 71.2308 67.1051ZM76.6321 68V60.3636H77.8054V68H76.6321ZM77.2287 59.0909C77 59.0909 76.8028 59.013 76.637 58.8572C76.4746 58.7015 76.3934 58.5142 76.3934 58.2955C76.3934 58.0767 76.4746 57.8894 76.637 57.7337C76.8028 57.5779 77 57.5 77.2287 57.5C77.4574 57.5 77.6529 57.5779 77.8153 57.7337C77.981 57.8894 78.0639 58.0767 78.0639 58.2955C78.0639 58.5142 77.981 58.7015 77.8153 58.8572C77.6529 59.013 77.4574 59.0909 77.2287 59.0909ZM81.2776 63.4062V68H80.1043V60.3636H81.2379V61.5568H81.3373C81.5163 61.169 81.788 60.8575 82.1526 60.6222C82.5172 60.3835 82.9879 60.2642 83.5646 60.2642C84.0816 60.2642 84.534 60.3703 84.9218 60.5824C85.3096 60.7912 85.6112 61.1094 85.8266 61.5369C86.0421 61.9612 86.1498 62.4981 86.1498 63.1477V68H84.9765V63.2273C84.9765 62.6274 84.8207 62.16 84.5092 61.8253C84.1976 61.4872 83.7701 61.3182 83.2265 61.3182C82.852 61.3182 82.5172 61.3994 82.2222 61.5618C81.9306 61.7242 81.7002 61.9612 81.5312 62.2727C81.3621 62.5843 81.2776 62.9621 81.2776 63.4062ZM91.5262 71.0227C90.9594 71.0227 90.4722 70.9498 90.0645 70.804C89.6569 70.6615 89.3171 70.4725 89.0453 70.2372C88.7769 70.0052 88.5631 69.7566 88.404 69.4915L89.3387 68.8352C89.4447 68.9744 89.579 69.1335 89.7414 69.3125C89.9038 69.4948 90.1258 69.6522 90.4076 69.7848C90.6926 69.9207 91.0655 69.9886 91.5262 69.9886C92.1427 69.9886 92.6514 69.8395 93.0525 69.5412C93.4535 69.2429 93.654 68.7756 93.654 68.1392V66.5881H93.5546C93.4684 66.7273 93.3458 66.8996 93.1867 67.1051C93.0309 67.3073 92.8055 67.4879 92.5105 67.647C92.2189 67.8028 91.8245 67.8807 91.3273 67.8807C90.7108 67.8807 90.1573 67.7348 89.6668 67.4432C89.1796 67.1515 88.7935 66.7273 88.5084 66.1705C88.2267 65.6136 88.0858 64.9375 88.0858 64.142C88.0858 63.3598 88.2234 62.6787 88.4985 62.0987C88.7736 61.5154 89.1564 61.0646 89.6469 60.7464C90.1374 60.425 90.7042 60.2642 91.3472 60.2642C91.8444 60.2642 92.2388 60.3471 92.5304 60.5128C92.8254 60.6752 93.0508 60.8608 93.2066 61.0696C93.3657 61.2751 93.4883 61.4441 93.5745 61.5767H93.6938V60.3636H94.8273V68.2188C94.8273 68.875 94.6782 69.4086 94.3799 69.8196C94.0849 70.2339 93.6872 70.5372 93.1867 70.7294C92.6895 70.925 92.136 71.0227 91.5262 71.0227ZM91.4864 66.8267C91.957 66.8267 92.3548 66.719 92.6796 66.5036C93.0044 66.2881 93.2513 65.9782 93.4203 65.5739C93.5894 65.1695 93.6739 64.6856 93.6739 64.1222C93.6739 63.572 93.591 63.0864 93.4253 62.6655C93.2596 62.2446 93.0143 61.9148 92.6895 61.6761C92.3647 61.4375 91.9637 61.3182 91.4864 61.3182C90.9892 61.3182 90.5749 61.4441 90.2435 61.696C89.9154 61.9479 89.6685 62.286 89.5027 62.7102C89.3403 63.1345 89.2591 63.6051 89.2591 64.1222C89.2591 64.6525 89.342 65.1214 89.5077 65.5291C89.6767 65.9335 89.9253 66.2517 90.2534 66.4837C90.5849 66.7124 90.9959 66.8267 91.4864 66.8267ZM101.372 68V57.8182H104.812C105.611 57.8182 106.264 57.9624 106.771 58.2507C107.281 58.5357 107.659 58.9219 107.904 59.4091C108.15 59.8963 108.272 60.4399 108.272 61.0398C108.272 61.6397 108.15 62.1849 107.904 62.6754C107.662 63.166 107.288 63.5571 106.781 63.8487C106.274 64.1371 105.624 64.2812 104.832 64.2812H102.366V63.1875H104.792C105.339 63.1875 105.778 63.093 106.11 62.9041C106.441 62.7152 106.681 62.46 106.83 62.1385C106.983 61.8137 107.059 61.4474 107.059 61.0398C107.059 60.6321 106.983 60.2675 106.83 59.946C106.681 59.6245 106.439 59.3726 106.105 59.1903C105.77 59.0047 105.326 58.9119 104.772 58.9119H102.605V68H101.372ZM110.249 68V60.3636H111.383V61.517H111.462C111.602 61.1392 111.853 60.8326 112.218 60.5973C112.583 60.362 112.994 60.2443 113.451 60.2443C113.537 60.2443 113.645 60.246 113.774 60.2493C113.903 60.2526 114.001 60.2576 114.067 60.2642V61.4574C114.028 61.4474 113.937 61.4325 113.794 61.4126C113.655 61.3894 113.507 61.3778 113.352 61.3778C112.98 61.3778 112.649 61.4557 112.357 61.6115C112.069 61.764 111.84 61.9761 111.671 62.2479C111.505 62.5163 111.423 62.8229 111.423 63.1676V68H110.249ZM118.478 68.1591C117.789 68.1591 117.184 67.995 116.663 67.6669C116.146 67.3388 115.742 66.8797 115.45 66.2898C115.162 65.6998 115.018 65.0104 115.018 64.2216C115.018 63.4261 115.162 62.7318 115.45 62.1385C115.742 61.5452 116.146 61.0845 116.663 60.7564C117.184 60.4283 117.789 60.2642 118.478 60.2642C119.167 60.2642 119.771 60.4283 120.288 60.7564C120.808 61.0845 121.212 61.5452 121.501 62.1385C121.792 62.7318 121.938 63.4261 121.938 64.2216C121.938 65.0104 121.792 65.6998 121.501 66.2898C121.212 66.8797 120.808 67.3388 120.288 67.6669C119.771 67.995 119.167 68.1591 118.478 68.1591ZM118.478 67.1051C119.002 67.1051 119.433 66.9709 119.771 66.7024C120.109 66.4339 120.359 66.081 120.521 65.6435C120.684 65.206 120.765 64.732 120.765 64.2216C120.765 63.7112 120.684 63.2356 120.521 62.7947C120.359 62.3539 120.109 61.9976 119.771 61.7259C119.433 61.4541 119.002 61.3182 118.478 61.3182C117.954 61.3182 117.524 61.4541 117.185 61.7259C116.847 61.9976 116.597 62.3539 116.435 62.7947C116.272 63.2356 116.191 63.7112 116.191 64.2216C116.191 64.732 116.272 65.206 116.435 65.6435C116.597 66.081 116.847 66.4339 117.185 66.7024C117.524 66.9709 117.954 67.1051 118.478 67.1051ZM123.879 60.3636H125.053V68.5568C125.053 69.0275 124.971 69.4351 124.809 69.7798C124.65 70.1245 124.408 70.3913 124.083 70.5803C123.762 70.7692 123.356 70.8636 122.865 70.8636C122.825 70.8636 122.786 70.8636 122.746 70.8636C122.706 70.8636 122.666 70.8636 122.626 70.8636V69.7699C122.666 69.7699 122.703 69.7699 122.736 69.7699C122.769 69.7699 122.805 69.7699 122.845 69.7699C123.203 69.7699 123.465 69.6638 123.631 69.4517C123.796 69.2429 123.879 68.9446 123.879 68.5568V60.3636ZM124.456 59.0909C124.227 59.0909 124.03 59.013 123.864 58.8572C123.702 58.7015 123.621 58.5142 123.621 58.2955C123.621 58.0767 123.702 57.8894 123.864 57.7337C124.03 57.5779 124.227 57.5 124.456 57.5C124.685 57.5 124.88 57.5779 125.043 57.7337C125.208 57.8894 125.291 58.0767 125.291 58.2955C125.291 58.5142 125.208 58.7015 125.043 58.8572C124.88 59.013 124.685 59.0909 124.456 59.0909ZM130.553 68.1591C129.818 68.1591 129.183 67.9967 128.649 67.6719C128.119 67.3438 127.71 66.8864 127.421 66.2997C127.136 65.7098 126.994 65.0237 126.994 64.2415C126.994 63.4593 127.136 62.7699 127.421 62.1733C127.71 61.5734 128.111 61.1061 128.624 60.7713C129.141 60.4332 129.745 60.2642 130.434 60.2642C130.832 60.2642 131.224 60.3305 131.612 60.4631C132 60.5956 132.353 60.8111 132.671 61.1094C132.989 61.4044 133.243 61.7955 133.432 62.2827C133.621 62.7699 133.715 63.3698 133.715 64.0824V64.5795H127.829V63.5653H132.522C132.522 63.1345 132.436 62.75 132.264 62.4119C132.094 62.0739 131.853 61.8071 131.538 61.6115C131.226 61.416 130.858 61.3182 130.434 61.3182C129.967 61.3182 129.562 61.4342 129.221 61.6662C128.883 61.8949 128.623 62.1932 128.44 62.5611C128.258 62.929 128.167 63.3234 128.167 63.7443V64.4205C128.167 64.9972 128.266 65.486 128.465 65.8871C128.667 66.2848 128.947 66.5881 129.305 66.7969C129.663 67.0024 130.079 67.1051 130.553 67.1051C130.862 67.1051 131.14 67.062 131.389 66.9759C131.64 66.8864 131.858 66.7538 132.04 66.5781C132.222 66.3991 132.363 66.1771 132.462 65.9119L133.596 66.2301C133.477 66.6146 133.276 66.9527 132.994 67.2443C132.713 67.5327 132.365 67.758 131.95 67.9205C131.536 68.0795 131.07 68.1591 130.553 68.1591ZM138.752 68.1591C138.036 68.1591 137.42 67.9901 136.903 67.652C136.386 67.3139 135.988 66.8482 135.71 66.255C135.431 65.6617 135.292 64.9839 135.292 64.2216C135.292 63.446 135.435 62.7616 135.72 62.1683C136.008 61.5717 136.409 61.1061 136.923 60.7713C137.44 60.4332 138.043 60.2642 138.732 60.2642C139.269 60.2642 139.753 60.3636 140.184 60.5625C140.615 60.7614 140.968 61.0398 141.243 61.3977C141.518 61.7557 141.689 62.1733 141.755 62.6506H140.582C140.492 62.3026 140.294 61.9943 139.985 61.7259C139.68 61.4541 139.269 61.3182 138.752 61.3182C138.295 61.3182 137.894 61.4375 137.549 61.6761C137.208 61.9115 136.941 62.2446 136.749 62.6754C136.56 63.103 136.465 63.6051 136.465 64.1818C136.465 64.7718 136.558 65.2855 136.744 65.723C136.933 66.1605 137.198 66.5002 137.539 66.7422C137.884 66.9841 138.288 67.1051 138.752 67.1051C139.057 67.1051 139.334 67.0521 139.583 66.946C139.831 66.84 140.042 66.6875 140.214 66.4886C140.386 66.2898 140.509 66.0511 140.582 65.7727H141.755C141.689 66.2235 141.525 66.6295 141.263 66.9908C141.004 67.3487 140.661 67.6338 140.234 67.8459C139.81 68.0547 139.316 68.1591 138.752 68.1591ZM146.941 60.3636V61.358H142.984V60.3636H146.941ZM144.137 58.5341H145.311V65.8125C145.311 66.1439 145.359 66.3925 145.455 66.5582C145.554 66.7206 145.68 66.83 145.833 66.8864C145.988 66.9394 146.153 66.9659 146.325 66.9659C146.454 66.9659 146.56 66.9593 146.643 66.946C146.726 66.9295 146.792 66.9162 146.842 66.9062L147.081 67.9602C147.001 67.9901 146.89 68.0199 146.747 68.0497C146.605 68.0829 146.424 68.0994 146.206 68.0994C145.874 68.0994 145.549 68.0282 145.231 67.8857C144.916 67.7431 144.654 67.526 144.446 67.2344C144.24 66.9427 144.137 66.5748 144.137 66.1307V58.5341ZM154.129 62.0739L153.075 62.3722C153.008 62.1965 152.911 62.0258 152.781 61.8601C152.655 61.6911 152.483 61.5518 152.264 61.4425C152.046 61.3331 151.765 61.2784 151.424 61.2784C150.957 61.2784 150.567 61.3861 150.256 61.6016C149.948 61.8137 149.793 62.0838 149.793 62.4119C149.793 62.7036 149.899 62.9339 150.112 63.103C150.324 63.272 150.655 63.4129 151.106 63.5256L152.239 63.804C152.922 63.9697 153.431 64.2232 153.766 64.5646C154.1 64.9027 154.268 65.3385 154.268 65.8722C154.268 66.3097 154.142 66.7008 153.89 67.0455C153.641 67.3902 153.293 67.6619 152.846 67.8608C152.399 68.0597 151.878 68.1591 151.285 68.1591C150.506 68.1591 149.861 67.9901 149.351 67.652C148.841 67.3139 148.517 66.8201 148.382 66.1705L149.495 65.892C149.601 66.303 149.802 66.6113 150.097 66.8168C150.395 67.0223 150.784 67.125 151.265 67.125C151.812 67.125 152.246 67.009 152.568 66.777C152.892 66.5417 153.055 66.2599 153.055 65.9318C153.055 65.6667 152.962 65.4446 152.776 65.2656C152.591 65.0833 152.306 64.9474 151.921 64.858L150.649 64.5597C149.949 64.3939 149.435 64.1371 149.107 63.7891C148.783 63.4377 148.62 62.9986 148.62 62.4716C148.62 62.0407 148.741 61.6596 148.983 61.3281C149.228 60.9967 149.561 60.7365 149.982 60.5476C150.407 60.3587 150.887 60.2642 151.424 60.2642C152.18 60.2642 152.773 60.4299 153.204 60.7614C153.638 61.0928 153.946 61.5303 154.129 62.0739Z" fill="#4C4E64" fill-opacity="0.6"/>
<path d="M224 28C225.1 28 226 27.1 226 26C226 24.9 225.1 24 224 24C222.9 24 222 24.9 222 26C222 27.1 222.9 28 224 28ZM224 30C222.9 30 222 30.9 222 32C222 33.1 222.9 34 224 34C225.1 34 226 33.1 226 32C226 30.9 225.1 30 224 30ZM224 36C222.9 36 222 36.9 222 38C222 39.1 222.9 40 224 40C225.1 40 226 39.1 226 38C226 36.9 225.1 36 224 36Z" fill="#4C4E64" fill-opacity="0.54"/>
<rect x="20" y="109" width="45" height="45" rx="8" fill="#666CFF"/>
<rect x="20" y="109" width="45" height="45" rx="8" fill="white" fill-opacity="0.88"/>
<path d="M47.5 137.864H37.5V125.136H47.5V137.864ZM47.5 121.5H37.5C36.39 121.5 35.5 122.309 35.5 123.318V139.682C35.5 140.164 35.7107 140.626 36.0858 140.967C36.4609 141.308 36.9696 141.5 37.5 141.5H47.5C48.0304 141.5 48.5391 141.308 48.9142 140.967C49.2893 140.626 49.5 140.164 49.5 139.682V123.318C49.5 122.309 48.6 121.5 47.5 121.5Z" fill="#666CFF"/>
<path d="M79.8487 118.318V128.5H78.0043V118.318H79.8487ZM91.0941 123.409C91.0941 124.506 90.8886 125.446 90.4776 126.228C90.0699 127.007 89.5131 127.603 88.8071 128.018C88.1045 128.432 87.3074 128.639 86.4158 128.639C85.5242 128.639 84.7255 128.432 84.0195 128.018C83.3168 127.6 82.76 127.002 82.349 126.223C81.9414 125.441 81.7375 124.503 81.7375 123.409C81.7375 122.312 81.9414 121.374 82.349 120.595C82.76 119.813 83.3168 119.215 84.0195 118.8C84.7255 118.386 85.5242 118.179 86.4158 118.179C87.3074 118.179 88.1045 118.386 88.8071 118.8C89.5131 119.215 90.0699 119.813 90.4776 120.595C90.8886 121.374 91.0941 122.312 91.0941 123.409ZM89.2397 123.409C89.2397 122.637 89.1187 121.986 88.8767 121.455C88.6381 120.922 88.3067 120.519 87.8824 120.247C87.4582 119.972 86.9693 119.835 86.4158 119.835C85.8623 119.835 85.3734 119.972 84.9492 120.247C84.5249 120.519 84.1918 120.922 83.9499 121.455C83.7113 121.986 83.5919 122.637 83.5919 123.409C83.5919 124.181 83.7113 124.834 83.9499 125.368C84.1918 125.898 84.5249 126.301 84.9492 126.576C85.3734 126.848 85.8623 126.984 86.4158 126.984C86.9693 126.984 87.4582 126.848 87.8824 126.576C88.3067 126.301 88.6381 125.898 88.8767 125.368C89.1187 124.834 89.2397 124.181 89.2397 123.409ZM98.5212 121.117C98.4748 120.683 98.2793 120.345 97.9346 120.103C97.5932 119.861 97.1491 119.74 96.6022 119.74C96.2177 119.74 95.888 119.798 95.6129 119.914C95.3378 120.03 95.1273 120.187 94.9815 120.386C94.8356 120.585 94.7611 120.812 94.7577 121.067C94.7577 121.28 94.8058 121.464 94.9019 121.619C95.0013 121.775 95.1356 121.908 95.3046 122.017C95.4737 122.123 95.6609 122.213 95.8664 122.286C96.0719 122.358 96.279 122.42 96.4879 122.469L97.4424 122.708C97.8269 122.798 98.1964 122.919 98.5511 123.071C98.909 123.223 99.2289 123.416 99.5106 123.648C99.7956 123.88 100.021 124.16 100.187 124.488C100.352 124.816 100.435 125.201 100.435 125.641C100.435 126.238 100.283 126.763 99.9779 127.217C99.673 127.668 99.2322 128.021 98.6555 128.276C98.0821 128.528 97.3877 128.654 96.5724 128.654C95.7802 128.654 95.0925 128.531 94.5092 128.286C93.9291 128.041 93.4751 127.683 93.1469 127.212C92.8221 126.742 92.6465 126.168 92.62 125.492H94.4346C94.4611 125.847 94.5705 126.142 94.7627 126.377C94.9549 126.612 95.2052 126.788 95.5134 126.904C95.825 127.02 96.173 127.078 96.5575 127.078C96.9585 127.078 97.3098 127.018 97.6114 126.899C97.9164 126.777 98.155 126.607 98.3273 126.392C98.4997 126.173 98.5875 125.918 98.5908 125.626C98.5875 125.361 98.5096 125.143 98.3572 124.97C98.2047 124.795 97.9909 124.649 97.7158 124.533C97.4441 124.413 97.1259 124.307 96.7613 124.214L95.6029 123.916C94.7644 123.701 94.1015 123.374 93.6143 122.937C93.1304 122.496 92.8884 121.911 92.8884 121.182C92.8884 120.582 93.0508 120.057 93.3756 119.606C93.7038 119.155 94.1496 118.805 94.713 118.557C95.2764 118.305 95.9145 118.179 96.6271 118.179C97.3496 118.179 97.9826 118.305 98.5262 118.557C99.0731 118.805 99.5023 119.152 99.8138 119.596C100.125 120.037 100.286 120.544 100.296 121.117H98.5212ZM107.16 128.5H105.191L108.776 118.318H111.053L114.642 128.5H112.673L109.954 120.406H109.874L107.16 128.5ZM107.224 124.508H112.594V125.989H107.224V124.508ZM116.054 131.364V120.864H117.824V122.126H117.928C118.021 121.941 118.152 121.744 118.321 121.535C118.49 121.323 118.718 121.142 119.007 120.993C119.295 120.84 119.663 120.764 120.11 120.764C120.7 120.764 121.232 120.915 121.706 121.217C122.184 121.515 122.561 121.957 122.84 122.544C123.122 123.127 123.262 123.843 123.262 124.692C123.262 125.53 123.125 126.243 122.85 126.83C122.575 127.416 122.2 127.864 121.726 128.172C121.252 128.48 120.715 128.634 120.115 128.634C119.678 128.634 119.315 128.561 119.027 128.415C118.738 128.27 118.506 128.094 118.331 127.888C118.158 127.68 118.024 127.482 117.928 127.297H117.853V131.364H116.054ZM117.819 124.682C117.819 125.176 117.888 125.608 118.027 125.979C118.17 126.351 118.374 126.641 118.639 126.849C118.907 127.055 119.232 127.158 119.613 127.158C120.011 127.158 120.344 127.052 120.613 126.839C120.881 126.624 121.083 126.331 121.219 125.96C121.358 125.585 121.428 125.159 121.428 124.682C121.428 124.208 121.36 123.787 121.224 123.419C121.088 123.051 120.886 122.763 120.618 122.554C120.349 122.345 120.014 122.241 119.613 122.241C119.229 122.241 118.902 122.342 118.634 122.544C118.365 122.746 118.162 123.03 118.022 123.394C117.886 123.759 117.819 124.188 117.819 124.682ZM124.954 131.364V120.864H126.724V122.126H126.828C126.921 121.941 127.052 121.744 127.221 121.535C127.39 121.323 127.618 121.142 127.907 120.993C128.195 120.84 128.563 120.764 129.01 120.764C129.6 120.764 130.132 120.915 130.606 121.217C131.084 121.515 131.461 121.957 131.74 122.544C132.022 123.127 132.162 123.843 132.162 124.692C132.162 125.53 132.025 126.243 131.75 126.83C131.475 127.416 131.1 127.864 130.626 128.172C130.152 128.48 129.615 128.634 129.015 128.634C128.578 128.634 128.215 128.561 127.927 128.415C127.638 128.27 127.406 128.094 127.231 127.888C127.058 127.68 126.924 127.482 126.828 127.297H126.753V131.364H124.954ZM126.719 124.682C126.719 125.176 126.788 125.608 126.927 125.979C127.07 126.351 127.274 126.641 127.539 126.849C127.807 127.055 128.132 127.158 128.513 127.158C128.911 127.158 129.244 127.052 129.513 126.839C129.781 126.624 129.983 126.331 130.119 125.96C130.258 125.585 130.328 125.159 130.328 124.682C130.328 124.208 130.26 123.787 130.124 123.419C129.988 123.051 129.786 122.763 129.518 122.554C129.249 122.345 128.914 122.241 128.513 122.241C128.129 122.241 127.802 122.342 127.534 122.544C127.265 122.746 127.062 123.03 126.922 123.394C126.786 123.759 126.719 124.188 126.719 124.682ZM135.653 118.318V128.5H133.854V118.318H135.653ZM137.654 128.5V120.864H139.454V128.5H137.654ZM138.559 119.78C138.274 119.78 138.029 119.685 137.823 119.496C137.618 119.304 137.515 119.074 137.515 118.805C137.515 118.534 137.618 118.303 137.823 118.114C138.029 117.922 138.274 117.826 138.559 117.826C138.847 117.826 139.092 117.922 139.295 118.114C139.5 118.303 139.603 118.534 139.603 118.805C139.603 119.074 139.5 119.304 139.295 119.496C139.092 119.685 138.847 119.78 138.559 119.78ZM144.785 128.649C144.023 128.649 143.368 128.482 142.822 128.147C142.278 127.812 141.859 127.35 141.564 126.76C141.272 126.167 141.126 125.484 141.126 124.712C141.126 123.936 141.275 123.252 141.574 122.658C141.872 122.062 142.293 121.598 142.837 121.266C143.383 120.932 144.03 120.764 144.775 120.764C145.395 120.764 145.944 120.879 146.421 121.107C146.902 121.333 147.284 121.652 147.569 122.067C147.854 122.478 148.017 122.958 148.057 123.509H146.337C146.267 123.141 146.101 122.834 145.839 122.589C145.581 122.34 145.234 122.216 144.8 122.216C144.432 122.216 144.109 122.315 143.831 122.514C143.552 122.71 143.335 122.991 143.18 123.359C143.027 123.727 142.951 124.168 142.951 124.682C142.951 125.202 143.027 125.65 143.18 126.024C143.332 126.395 143.546 126.682 143.821 126.884C144.099 127.083 144.426 127.183 144.8 127.183C145.065 127.183 145.302 127.133 145.511 127.033C145.723 126.931 145.901 126.783 146.043 126.591C146.186 126.399 146.283 126.165 146.337 125.89H148.057C148.014 126.43 147.854 126.909 147.579 127.327C147.304 127.741 146.93 128.066 146.456 128.301C145.982 128.533 145.425 128.649 144.785 128.649ZM151.882 128.654C151.398 128.654 150.962 128.568 150.574 128.396C150.19 128.22 149.885 127.961 149.66 127.62C149.438 127.279 149.327 126.858 149.327 126.357C149.327 125.926 149.406 125.57 149.565 125.288C149.724 125.007 149.941 124.781 150.216 124.612C150.492 124.443 150.801 124.316 151.146 124.229C151.494 124.14 151.854 124.075 152.225 124.036C152.672 123.989 153.035 123.948 153.314 123.911C153.592 123.871 153.794 123.812 153.92 123.732C154.05 123.649 154.114 123.522 154.114 123.349V123.32C154.114 122.945 154.003 122.655 153.781 122.45C153.559 122.244 153.239 122.141 152.822 122.141C152.381 122.141 152.031 122.237 151.773 122.43C151.517 122.622 151.345 122.849 151.256 123.111L149.575 122.872C149.708 122.408 149.926 122.02 150.231 121.709C150.536 121.394 150.909 121.159 151.35 121.003C151.791 120.844 152.278 120.764 152.812 120.764C153.18 120.764 153.546 120.807 153.91 120.893C154.275 120.98 154.608 121.122 154.91 121.321C155.211 121.517 155.453 121.783 155.635 122.121C155.821 122.46 155.914 122.882 155.914 123.389V128.5H154.184V127.451H154.124C154.015 127.663 153.861 127.862 153.662 128.048C153.466 128.23 153.219 128.377 152.921 128.49C152.626 128.599 152.28 128.654 151.882 128.654ZM152.349 127.332C152.711 127.332 153.024 127.26 153.289 127.118C153.554 126.972 153.758 126.78 153.9 126.541C154.046 126.303 154.119 126.042 154.119 125.761V124.861C154.063 124.907 153.967 124.95 153.831 124.99C153.698 125.03 153.549 125.065 153.383 125.094C153.218 125.124 153.054 125.151 152.891 125.174C152.729 125.197 152.588 125.217 152.469 125.234C152.2 125.27 151.96 125.33 151.748 125.413C151.536 125.496 151.368 125.612 151.246 125.761C151.123 125.906 151.062 126.095 151.062 126.327C151.062 126.659 151.183 126.909 151.425 127.078C151.666 127.247 151.975 127.332 152.349 127.332ZM161.687 120.864V122.256H157.297V120.864H161.687ZM158.381 119.034H160.18V126.203C160.18 126.445 160.217 126.631 160.29 126.76C160.366 126.886 160.465 126.972 160.588 127.018C160.711 127.065 160.847 127.088 160.996 127.088C161.108 127.088 161.211 127.08 161.304 127.063C161.4 127.047 161.473 127.032 161.523 127.018L161.826 128.425C161.73 128.459 161.592 128.495 161.413 128.535C161.238 128.575 161.022 128.598 160.767 128.604C160.316 128.618 159.91 128.55 159.549 128.401C159.188 128.248 158.901 128.013 158.689 127.695C158.48 127.376 158.377 126.979 158.381 126.501V119.034ZM163.342 128.5V120.864H165.142V128.5H163.342ZM164.247 119.78C163.962 119.78 163.716 119.685 163.511 119.496C163.305 119.304 163.203 119.074 163.203 118.805C163.203 118.534 163.305 118.303 163.511 118.114C163.716 117.922 163.962 117.826 164.247 117.826C164.535 117.826 164.78 117.922 164.983 118.114C165.188 118.303 165.291 118.534 165.291 118.805C165.291 119.074 165.188 119.304 164.983 119.496C164.78 119.685 164.535 119.78 164.247 119.78ZM170.473 128.649C169.728 128.649 169.081 128.485 168.534 128.157C167.987 127.829 167.563 127.37 167.262 126.78C166.963 126.19 166.814 125.5 166.814 124.712C166.814 123.923 166.963 123.232 167.262 122.638C167.563 122.045 167.987 121.585 168.534 121.256C169.081 120.928 169.728 120.764 170.473 120.764C171.219 120.764 171.865 120.928 172.412 121.256C172.959 121.585 173.382 122.045 173.68 122.638C173.982 123.232 174.132 123.923 174.132 124.712C174.132 125.5 173.982 126.19 173.68 126.78C173.382 127.37 172.959 127.829 172.412 128.157C171.865 128.485 171.219 128.649 170.473 128.649ZM170.483 127.207C170.888 127.207 171.226 127.096 171.497 126.874C171.769 126.649 171.971 126.347 172.104 125.969C172.24 125.592 172.308 125.171 172.308 124.707C172.308 124.239 172.24 123.817 172.104 123.439C171.971 123.058 171.769 122.754 171.497 122.529C171.226 122.304 170.888 122.191 170.483 122.191C170.069 122.191 169.724 122.304 169.449 122.529C169.177 122.754 168.973 123.058 168.838 123.439C168.705 123.817 168.639 124.239 168.639 124.707C168.639 125.171 168.705 125.592 168.838 125.969C168.973 126.347 169.177 126.649 169.449 126.874C169.724 127.096 170.069 127.207 170.483 127.207ZM177.61 124.026V128.5H175.81V120.864H177.53V122.161H177.62C177.795 121.734 178.075 121.394 178.46 121.142C178.848 120.89 179.326 120.764 179.897 120.764C180.424 120.764 180.883 120.877 181.274 121.102C181.668 121.328 181.973 121.654 182.188 122.082C182.407 122.509 182.515 123.028 182.512 123.638V128.5H180.712V123.916C180.712 123.406 180.579 123.006 180.314 122.718C180.052 122.43 179.689 122.286 179.225 122.286C178.91 122.286 178.63 122.355 178.385 122.494C178.143 122.63 177.953 122.827 177.813 123.086C177.678 123.344 177.61 123.658 177.61 124.026Z" fill="#4C4E64" fill-opacity="0.87"/>
<path d="M77.5795 138.71V137.773H84.125V138.71H81.3807V146.5H80.3239V138.71H77.5795ZM87.0552 146.653C86.6404 146.653 86.264 146.575 85.9259 146.419C85.5879 146.26 85.3194 146.031 85.1205 145.733C84.9217 145.432 84.8222 145.068 84.8222 144.642C84.8222 144.267 84.8961 143.963 85.0438 143.73C85.1915 143.494 85.389 143.31 85.6362 143.176C85.8833 143.043 86.156 142.943 86.4543 142.878C86.7555 142.81 87.058 142.756 87.362 142.716C87.7597 142.665 88.0822 142.626 88.3293 142.601C88.5793 142.572 88.7612 142.526 88.8748 142.46C88.9913 142.395 89.0495 142.281 89.0495 142.119V142.085C89.0495 141.665 88.9344 141.338 88.7043 141.105C88.4771 140.872 88.1319 140.756 87.6688 140.756C87.1887 140.756 86.8123 140.861 86.5396 141.071C86.2668 141.281 86.0751 141.506 85.9643 141.744L85.0097 141.403C85.1802 141.006 85.4075 140.696 85.6915 140.474C85.9785 140.25 86.291 140.094 86.629 140.006C86.97 139.915 87.3052 139.869 87.6347 139.869C87.845 139.869 88.0864 139.895 88.3592 139.946C88.6347 139.994 88.9004 140.095 89.156 140.249C89.4146 140.402 89.629 140.634 89.7995 140.943C89.97 141.253 90.0552 141.668 90.0552 142.188V146.5H89.0495V145.614H88.9984C88.9302 145.756 88.8165 145.908 88.6575 146.07C88.4984 146.232 88.2867 146.369 88.0225 146.483C87.7583 146.597 87.4359 146.653 87.0552 146.653ZM87.2086 145.75C87.6063 145.75 87.9415 145.672 88.2143 145.516C88.4898 145.359 88.6972 145.158 88.8364 144.911C88.9785 144.663 89.0495 144.403 89.0495 144.131V143.21C89.0069 143.261 88.9131 143.308 88.7683 143.351C88.6262 143.391 88.4614 143.426 88.2739 143.457C88.0893 143.486 87.9089 143.511 87.7327 143.534C87.5594 143.554 87.4188 143.571 87.3109 143.585C87.0495 143.619 86.8052 143.675 86.5779 143.751C86.3535 143.825 86.1717 143.937 86.0325 144.088C85.8961 144.236 85.8279 144.437 85.8279 144.693C85.8279 145.043 85.9572 145.307 86.2157 145.486C86.4771 145.662 86.808 145.75 87.2086 145.75ZM96.9271 141.42L96.0237 141.676C95.9669 141.526 95.8831 141.379 95.7723 141.237C95.6643 141.092 95.5166 140.973 95.3291 140.879C95.1416 140.786 94.9016 140.739 94.6089 140.739C94.2084 140.739 93.8746 140.831 93.6075 141.016C93.3433 141.197 93.2112 141.429 93.2112 141.71C93.2112 141.96 93.3021 142.158 93.4839 142.303C93.6658 142.447 93.9499 142.568 94.3362 142.665L95.3078 142.903C95.893 143.045 96.3291 143.263 96.6161 143.555C96.903 143.845 97.0464 144.219 97.0464 144.676C97.0464 145.051 96.9385 145.386 96.7226 145.682C96.5095 145.977 96.2112 146.21 95.8277 146.381C95.4442 146.551 94.9982 146.636 94.4896 146.636C93.822 146.636 93.2695 146.491 92.832 146.202C92.3945 145.912 92.1175 145.489 92.001 144.932L92.9555 144.693C93.0464 145.045 93.2183 145.31 93.4712 145.486C93.7268 145.662 94.0607 145.75 94.4726 145.75C94.9413 145.75 95.3135 145.651 95.5891 145.452C95.8675 145.25 96.0067 145.009 96.0067 144.727C96.0067 144.5 95.9271 144.31 95.768 144.156C95.6089 144 95.3646 143.884 95.0351 143.807L93.9442 143.551C93.3447 143.409 92.9044 143.189 92.6232 142.891C92.3447 142.589 92.2055 142.213 92.2055 141.761C92.2055 141.392 92.3092 141.065 92.5166 140.781C92.7268 140.497 93.0124 140.274 93.3732 140.112C93.7368 139.95 94.1487 139.869 94.6089 139.869C95.2567 139.869 95.7652 140.011 96.1345 140.295C96.5067 140.58 96.7709 140.955 96.9271 141.42ZM99.8978 144.114L99.8808 142.869H100.085L102.949 139.955H104.193L101.142 143.04H101.057L99.8978 144.114ZM98.9603 146.5V137.773H99.966V146.5H98.9603ZM103.119 146.5L100.563 143.261L101.278 142.562L104.398 146.5H103.119ZM112.441 146.619C111.856 146.619 111.339 146.516 110.89 146.308C110.444 146.098 110.096 145.81 109.846 145.443C109.596 145.074 109.472 144.653 109.475 144.182C109.472 143.812 109.545 143.472 109.692 143.159C109.84 142.844 110.042 142.581 110.298 142.371C110.556 142.158 110.844 142.023 111.163 141.966V141.915C110.745 141.807 110.413 141.572 110.165 141.212C109.918 140.848 109.796 140.435 109.799 139.972C109.796 139.528 109.908 139.132 110.136 138.783C110.363 138.433 110.675 138.158 111.073 137.956C111.474 137.754 111.93 137.653 112.441 137.653C112.947 137.653 113.398 137.754 113.796 137.956C114.194 138.158 114.506 138.433 114.734 138.783C114.964 139.132 115.08 139.528 115.083 139.972C115.08 140.435 114.954 140.848 114.704 141.212C114.457 141.572 114.129 141.807 113.719 141.915V141.966C114.035 142.023 114.319 142.158 114.572 142.371C114.825 142.581 115.026 142.844 115.177 143.159C115.327 143.472 115.404 143.812 115.407 144.182C115.404 144.653 115.276 145.074 115.023 145.443C114.773 145.81 114.425 146.098 113.979 146.308C113.536 146.516 113.023 146.619 112.441 146.619ZM112.441 145.682C112.836 145.682 113.177 145.618 113.464 145.49C113.751 145.362 113.972 145.182 114.129 144.949C114.285 144.716 114.364 144.443 114.367 144.131C114.364 143.801 114.279 143.51 114.112 143.257C113.944 143.004 113.715 142.805 113.425 142.661C113.138 142.516 112.81 142.443 112.441 142.443C112.069 142.443 111.737 142.516 111.444 142.661C111.154 142.805 110.925 143.004 110.758 143.257C110.593 143.51 110.512 143.801 110.515 144.131C110.512 144.443 110.587 144.716 110.741 144.949C110.897 145.182 111.12 145.362 111.41 145.49C111.7 145.618 112.043 145.682 112.441 145.682ZM112.441 141.54C112.754 141.54 113.031 141.477 113.272 141.352C113.516 141.227 113.708 141.053 113.847 140.828C113.987 140.604 114.058 140.341 114.06 140.04C114.058 139.744 113.988 139.487 113.852 139.268C113.715 139.047 113.526 138.876 113.285 138.757C113.043 138.635 112.762 138.574 112.441 138.574C112.114 138.574 111.829 138.635 111.585 138.757C111.34 138.876 111.151 139.047 111.018 139.268C110.884 139.487 110.819 139.744 110.822 140.04C110.819 140.341 110.886 140.604 111.022 140.828C111.161 141.053 111.353 141.227 111.597 141.352C111.842 141.477 112.123 141.54 112.441 141.54ZM117.236 144.71V143.841L121.071 137.773H121.701V139.119H121.275L118.378 143.705V143.773H123.542V144.71H117.236ZM121.344 146.5V144.446V144.041V137.773H122.349V146.5H121.344ZM128.386 146.619C127.744 146.619 127.197 146.445 126.745 146.095C126.294 145.743 125.948 145.233 125.71 144.565C125.471 143.895 125.352 143.085 125.352 142.136C125.352 141.193 125.471 140.388 125.71 139.72C125.951 139.05 126.298 138.538 126.75 138.186C127.204 137.831 127.75 137.653 128.386 137.653C129.022 137.653 129.566 137.831 130.018 138.186C130.473 138.538 130.819 139.05 131.058 139.72C131.299 140.388 131.42 141.193 131.42 142.136C131.42 143.085 131.301 143.895 131.062 144.565C130.823 145.233 130.478 145.743 130.027 146.095C129.575 146.445 129.028 146.619 128.386 146.619ZM128.386 145.682C129.022 145.682 129.517 145.375 129.869 144.761C130.221 144.148 130.397 143.273 130.397 142.136C130.397 141.381 130.316 140.737 130.154 140.206C129.995 139.675 129.765 139.27 129.464 138.991C129.166 138.713 128.806 138.574 128.386 138.574C127.755 138.574 127.262 138.885 126.907 139.507C126.552 140.126 126.375 141.003 126.375 142.136C126.375 142.892 126.454 143.534 126.613 144.062C126.772 144.591 127.001 144.993 127.299 145.268C127.6 145.544 127.963 145.682 128.386 145.682ZM136.542 137.364L133.729 147.812H132.809L135.621 137.364H136.542ZM138.117 146.5V145.733L140.997 142.58C141.335 142.21 141.614 141.889 141.833 141.616C142.051 141.341 142.213 141.082 142.318 140.841C142.426 140.597 142.48 140.341 142.48 140.074C142.48 139.767 142.406 139.501 142.259 139.277C142.114 139.053 141.915 138.879 141.662 138.757C141.409 138.635 141.125 138.574 140.81 138.574C140.475 138.574 140.182 138.643 139.932 138.783C139.685 138.919 139.493 139.111 139.357 139.358C139.223 139.605 139.156 139.895 139.156 140.227H138.151C138.151 139.716 138.269 139.267 138.504 138.881C138.74 138.494 139.061 138.193 139.468 137.977C139.877 137.761 140.335 137.653 140.844 137.653C141.355 137.653 141.808 137.761 142.203 137.977C142.598 138.193 142.908 138.484 143.132 138.851C143.357 139.217 143.469 139.625 143.469 140.074C143.469 140.395 143.411 140.709 143.294 141.016C143.181 141.32 142.982 141.659 142.698 142.034C142.416 142.406 142.026 142.861 141.526 143.398L139.566 145.494V145.562H143.622V146.5H138.117ZM146.532 146.568C146.322 146.568 146.142 146.493 145.991 146.342C145.841 146.192 145.765 146.011 145.765 145.801C145.765 145.591 145.841 145.411 145.991 145.26C146.142 145.109 146.322 145.034 146.532 145.034C146.743 145.034 146.923 145.109 147.074 145.26C147.224 145.411 147.299 145.591 147.299 145.801C147.299 145.94 147.264 146.068 147.193 146.185C147.125 146.301 147.032 146.395 146.916 146.466C146.802 146.534 146.674 146.568 146.532 146.568ZM152.038 146.619C151.538 146.619 151.088 146.52 150.688 146.321C150.287 146.122 149.966 145.849 149.725 145.503C149.483 145.156 149.351 144.761 149.328 144.318H150.351C150.391 144.713 150.57 145.04 150.888 145.298C151.209 145.554 151.592 145.682 152.038 145.682C152.396 145.682 152.715 145.598 152.993 145.43C153.274 145.263 153.494 145.033 153.654 144.74C153.815 144.445 153.896 144.111 153.896 143.739C153.896 143.358 153.813 143.018 153.645 142.72C153.48 142.419 153.253 142.182 152.963 142.009C152.673 141.835 152.342 141.747 151.97 141.744C151.703 141.741 151.429 141.783 151.148 141.868C150.867 141.95 150.635 142.057 150.453 142.188L149.465 142.068L149.993 137.773H154.527V138.71H150.879L150.573 141.284H150.624C150.803 141.142 151.027 141.024 151.297 140.93C151.567 140.837 151.848 140.79 152.141 140.79C152.675 140.79 153.151 140.918 153.568 141.173C153.989 141.426 154.318 141.773 154.557 142.213C154.798 142.653 154.919 143.156 154.919 143.722C154.919 144.278 154.794 144.776 154.544 145.213C154.297 145.648 153.956 145.991 153.521 146.244C153.087 146.494 152.592 146.619 152.038 146.619ZM157.967 144.114L157.95 142.869H158.154L161.018 139.955H162.262L159.211 143.04H159.126L157.967 144.114ZM157.029 146.5V137.773H158.035V146.5H157.029ZM161.188 146.5L158.631 143.261L159.347 142.562L162.467 146.5H161.188Z" fill="#4C4E64" fill-opacity="0.6"/>
<rect x="20" y="184" width="45" height="45" rx="8" fill="#72E128"/>
<rect x="20" y="184" width="45" height="45" rx="8" fill="white" fill-opacity="0.88"/>
<path d="M49.5 203.5L50.75 200.75L53.5 199.5L50.75 198.25L49.5 195.5L48.25 198.25L45.5 199.5L48.25 200.75L49.5 203.5ZM42 204L39.5 198.5L37 204L31.5 206.5L37 209L39.5 214.5L42 209L47.5 206.5L42 204ZM49.5 209.5L48.25 212.25L45.5 213.5L48.25 214.75L49.5 217.5L50.75 214.75L53.5 213.5L50.75 212.25L49.5 209.5Z" fill="#72E128"/>
<path d="M80.147 203.5L77.2734 193.318H79.2571L81.0916 200.8H81.1861L83.1449 193.318H84.9496L86.9134 200.805H87.0028L88.8374 193.318H90.821L87.9474 203.5H86.1278L84.0895 196.356H84.0099L81.9666 203.5H80.147ZM94.7718 203.649C94.0062 203.649 93.345 203.49 92.7881 203.172C92.2346 202.85 91.8087 202.396 91.5104 201.81C91.2121 201.22 91.063 200.525 91.063 199.727C91.063 198.941 91.2121 198.252 91.5104 197.658C91.812 197.062 92.233 196.598 92.7732 196.266C93.3135 195.932 93.9482 195.764 94.6773 195.764C95.148 195.764 95.5921 195.84 96.0097 195.993C96.4307 196.142 96.8019 196.374 97.1234 196.689C97.4482 197.004 97.7034 197.405 97.889 197.892C98.0746 198.376 98.1674 198.953 98.1674 199.622V200.174H91.9082V198.961H96.4423C96.4389 198.616 96.3644 198.31 96.2185 198.041C96.0727 197.769 95.8689 197.556 95.607 197.4C95.3485 197.244 95.0469 197.166 94.7022 197.166C94.3343 197.166 94.0112 197.256 93.7327 197.435C93.4543 197.61 93.2372 197.842 93.0815 198.131C92.929 198.416 92.8511 198.729 92.8478 199.07V200.129C92.8478 200.573 92.929 200.955 93.0914 201.273C93.2538 201.588 93.4808 201.83 93.7725 201.999C94.0642 202.164 94.4056 202.247 94.7967 202.247C95.0585 202.247 95.2955 202.211 95.5076 202.138C95.7197 202.062 95.9037 201.951 96.0594 201.805C96.2152 201.659 96.3329 201.478 96.4124 201.263L98.0928 201.452C97.9868 201.896 97.7846 202.284 97.4863 202.615C97.1913 202.943 96.8135 203.198 96.3528 203.381C95.8921 203.56 95.3651 203.649 94.7718 203.649ZM99.9195 203.5V193.318H101.719V197.126H101.794C101.887 196.941 102.018 196.744 102.187 196.535C102.356 196.323 102.584 196.142 102.873 195.993C103.161 195.84 103.529 195.764 103.976 195.764C104.566 195.764 105.098 195.915 105.572 196.217C106.049 196.515 106.427 196.957 106.706 197.544C106.987 198.127 107.128 198.843 107.128 199.692C107.128 200.53 106.991 201.243 106.716 201.83C106.441 202.416 106.066 202.864 105.592 203.172C105.118 203.48 104.581 203.634 103.981 203.634C103.544 203.634 103.181 203.561 102.893 203.415C102.604 203.27 102.372 203.094 102.196 202.888C102.024 202.68 101.89 202.482 101.794 202.297H101.689V203.5H99.9195ZM101.684 199.682C101.684 200.176 101.754 200.608 101.893 200.979C102.036 201.351 102.24 201.641 102.505 201.849C102.773 202.055 103.098 202.158 103.479 202.158C103.877 202.158 104.21 202.052 104.478 201.839C104.747 201.624 104.949 201.331 105.085 200.96C105.224 200.585 105.294 200.159 105.294 199.682C105.294 199.208 105.226 198.787 105.09 198.419C104.954 198.051 104.752 197.763 104.483 197.554C104.215 197.345 103.88 197.241 103.479 197.241C103.095 197.241 102.768 197.342 102.5 197.544C102.231 197.746 102.027 198.03 101.888 198.394C101.752 198.759 101.684 199.188 101.684 199.682ZM113.818 203.5H111.849L115.434 193.318H117.711L121.3 203.5H119.332L116.612 195.406H116.533L113.818 203.5ZM113.883 199.508H119.252V200.989H113.883V199.508ZM122.712 206.364V195.864H124.482V197.126H124.586C124.679 196.941 124.81 196.744 124.979 196.535C125.148 196.323 125.377 196.142 125.665 195.993C125.953 195.84 126.321 195.764 126.769 195.764C127.359 195.764 127.891 195.915 128.365 196.217C128.842 196.515 129.22 196.957 129.498 197.544C129.78 198.127 129.921 198.843 129.921 199.692C129.921 200.53 129.783 201.243 129.508 201.83C129.233 202.416 128.858 202.864 128.384 203.172C127.91 203.48 127.374 203.634 126.774 203.634C126.336 203.634 125.973 203.561 125.685 203.415C125.396 203.27 125.164 203.094 124.989 202.888C124.816 202.68 124.682 202.482 124.586 202.297H124.512V206.364H122.712ZM124.477 199.682C124.477 200.176 124.546 200.608 124.686 200.979C124.828 201.351 125.032 201.641 125.297 201.849C125.566 202.055 125.89 202.158 126.271 202.158C126.669 202.158 127.002 202.052 127.271 201.839C127.539 201.624 127.741 201.331 127.877 200.96C128.017 200.585 128.086 200.159 128.086 199.682C128.086 199.208 128.018 198.787 127.882 198.419C127.746 198.051 127.544 197.763 127.276 197.554C127.007 197.345 126.673 197.241 126.271 197.241C125.887 197.241 125.561 197.342 125.292 197.544C125.024 197.746 124.82 198.03 124.681 198.394C124.545 198.759 124.477 199.188 124.477 199.682ZM131.612 206.364V195.864H133.382V197.126H133.486C133.579 196.941 133.71 196.744 133.879 196.535C134.048 196.323 134.277 196.142 134.565 195.993C134.853 195.84 135.221 195.764 135.669 195.764C136.259 195.764 136.791 195.915 137.265 196.217C137.742 196.515 138.12 196.957 138.398 197.544C138.68 198.127 138.821 198.843 138.821 199.692C138.821 200.53 138.683 201.243 138.408 201.83C138.133 202.416 137.758 202.864 137.284 203.172C136.81 203.48 136.274 203.634 135.674 203.634C135.236 203.634 134.873 203.561 134.585 203.415C134.296 203.27 134.064 203.094 133.889 202.888C133.716 202.68 133.582 202.482 133.486 202.297H133.412V206.364H131.612ZM133.377 199.682C133.377 200.176 133.446 200.608 133.586 200.979C133.728 201.351 133.932 201.641 134.197 201.849C134.466 202.055 134.79 202.158 135.171 202.158C135.569 202.158 135.902 202.052 136.171 201.839C136.439 201.624 136.641 201.331 136.777 200.96C136.917 200.585 136.986 200.159 136.986 199.682C136.986 199.208 136.918 198.787 136.782 198.419C136.646 198.051 136.444 197.763 136.176 197.554C135.907 197.345 135.573 197.241 135.171 197.241C134.787 197.241 134.461 197.342 134.192 197.544C133.924 197.746 133.72 198.03 133.581 198.394C133.445 198.759 133.377 199.188 133.377 199.682ZM142.312 193.318V203.5H140.512V193.318H142.312ZM144.312 203.5V195.864H146.112V203.5H144.312ZM145.217 194.78C144.932 194.78 144.687 194.685 144.481 194.496C144.276 194.304 144.173 194.074 144.173 193.805C144.173 193.534 144.276 193.303 144.481 193.114C144.687 192.922 144.932 192.826 145.217 192.826C145.505 192.826 145.751 192.922 145.953 193.114C146.158 193.303 146.261 193.534 146.261 193.805C146.261 194.074 146.158 194.304 145.953 194.496C145.751 194.685 145.505 194.78 145.217 194.78ZM151.444 203.649C150.681 203.649 150.027 203.482 149.48 203.147C148.936 202.812 148.517 202.35 148.222 201.76C147.93 201.167 147.784 200.484 147.784 199.712C147.784 198.936 147.934 198.252 148.232 197.658C148.53 197.062 148.951 196.598 149.495 196.266C150.042 195.932 150.688 195.764 151.434 195.764C152.053 195.764 152.602 195.879 153.079 196.107C153.56 196.333 153.943 196.652 154.228 197.067C154.513 197.478 154.675 197.958 154.715 198.509H152.995C152.925 198.141 152.759 197.834 152.498 197.589C152.239 197.34 151.893 197.216 151.458 197.216C151.091 197.216 150.767 197.315 150.489 197.514C150.211 197.71 149.994 197.991 149.838 198.359C149.685 198.727 149.609 199.168 149.609 199.682C149.609 200.202 149.685 200.65 149.838 201.024C149.99 201.395 150.204 201.682 150.479 201.884C150.757 202.083 151.084 202.183 151.458 202.183C151.724 202.183 151.961 202.133 152.169 202.033C152.382 201.931 152.559 201.783 152.701 201.591C152.844 201.399 152.942 201.165 152.995 200.89H154.715C154.672 201.43 154.513 201.909 154.238 202.327C153.963 202.741 153.588 203.066 153.114 203.301C152.64 203.533 152.083 203.649 151.444 203.649ZM158.54 203.654C158.056 203.654 157.62 203.568 157.233 203.396C156.848 203.22 156.543 202.961 156.318 202.62C156.096 202.279 155.985 201.858 155.985 201.357C155.985 200.926 156.064 200.57 156.223 200.288C156.382 200.007 156.6 199.781 156.875 199.612C157.15 199.443 157.46 199.316 157.804 199.229C158.152 199.14 158.512 199.075 158.883 199.036C159.331 198.989 159.694 198.948 159.972 198.911C160.25 198.871 160.453 198.812 160.578 198.732C160.708 198.649 160.772 198.522 160.772 198.349V198.32C160.772 197.945 160.661 197.655 160.439 197.45C160.217 197.244 159.897 197.141 159.48 197.141C159.039 197.141 158.689 197.237 158.431 197.43C158.176 197.622 158.003 197.849 157.914 198.111L156.233 197.872C156.366 197.408 156.585 197.02 156.89 196.709C157.194 196.394 157.567 196.159 158.008 196.003C158.449 195.844 158.936 195.764 159.47 195.764C159.838 195.764 160.204 195.807 160.569 195.893C160.933 195.98 161.266 196.122 161.568 196.321C161.869 196.517 162.111 196.783 162.294 197.121C162.479 197.46 162.572 197.882 162.572 198.389V203.5H160.842V202.451H160.782C160.673 202.663 160.519 202.862 160.32 203.048C160.124 203.23 159.877 203.377 159.579 203.49C159.284 203.599 158.938 203.654 158.54 203.654ZM159.007 202.332C159.369 202.332 159.682 202.26 159.947 202.118C160.212 201.972 160.416 201.78 160.559 201.541C160.704 201.303 160.777 201.042 160.777 200.761V199.861C160.721 199.907 160.625 199.95 160.489 199.99C160.356 200.03 160.207 200.065 160.042 200.094C159.876 200.124 159.712 200.151 159.549 200.174C159.387 200.197 159.246 200.217 159.127 200.234C158.858 200.27 158.618 200.33 158.406 200.413C158.194 200.496 158.026 200.612 157.904 200.761C157.781 200.906 157.72 201.095 157.72 201.327C157.72 201.659 157.841 201.909 158.083 202.078C158.325 202.247 158.633 202.332 159.007 202.332ZM168.345 195.864V197.256H163.955V195.864H168.345ZM165.039 194.034H166.839V201.203C166.839 201.445 166.875 201.631 166.948 201.76C167.024 201.886 167.124 201.972 167.246 202.018C167.369 202.065 167.505 202.088 167.654 202.088C167.767 202.088 167.869 202.08 167.962 202.063C168.058 202.047 168.131 202.032 168.181 202.018L168.484 203.425C168.388 203.459 168.25 203.495 168.072 203.535C167.896 203.575 167.68 203.598 167.425 203.604C166.974 203.618 166.568 203.55 166.207 203.401C165.846 203.248 165.559 203.013 165.347 202.695C165.138 202.376 165.036 201.979 165.039 201.501V194.034ZM170 203.5V195.864H171.8V203.5H170ZM170.905 194.78C170.62 194.78 170.375 194.685 170.169 194.496C169.964 194.304 169.861 194.074 169.861 193.805C169.861 193.534 169.964 193.303 170.169 193.114C170.375 192.922 170.62 192.826 170.905 192.826C171.193 192.826 171.439 192.922 171.641 193.114C171.846 193.303 171.949 193.534 171.949 193.805C171.949 194.074 171.846 194.304 171.641 194.496C171.439 194.685 171.193 194.78 170.905 194.78ZM177.131 203.649C176.386 203.649 175.739 203.485 175.193 203.157C174.646 202.829 174.221 202.37 173.92 201.78C173.622 201.19 173.472 200.5 173.472 199.712C173.472 198.923 173.622 198.232 173.92 197.638C174.221 197.045 174.646 196.585 175.193 196.256C175.739 195.928 176.386 195.764 177.131 195.764C177.877 195.764 178.524 195.928 179.07 196.256C179.617 196.585 180.04 197.045 180.338 197.638C180.64 198.232 180.791 198.923 180.791 199.712C180.791 200.5 180.64 201.19 180.338 201.78C180.04 202.37 179.617 202.829 179.07 203.157C178.524 203.485 177.877 203.649 177.131 203.649ZM177.141 202.207C177.546 202.207 177.884 202.096 178.156 201.874C178.427 201.649 178.63 201.347 178.762 200.969C178.898 200.592 178.966 200.171 178.966 199.707C178.966 199.239 178.898 198.817 178.762 198.439C178.63 198.058 178.427 197.754 178.156 197.529C177.884 197.304 177.546 197.191 177.141 197.191C176.727 197.191 176.382 197.304 176.107 197.529C175.836 197.754 175.632 198.058 175.496 198.439C175.363 198.817 175.297 199.239 175.297 199.707C175.297 200.171 175.363 200.592 175.496 200.969C175.632 201.347 175.836 201.649 176.107 201.874C176.382 202.096 176.727 202.207 177.141 202.207ZM184.268 199.026V203.5H182.468V195.864H184.188V197.161H184.278C184.453 196.734 184.733 196.394 185.118 196.142C185.506 195.89 185.985 195.764 186.555 195.764C187.082 195.764 187.541 195.877 187.932 196.102C188.326 196.328 188.631 196.654 188.847 197.082C189.065 197.509 189.173 198.028 189.17 198.638V203.5H187.37V198.916C187.37 198.406 187.237 198.006 186.972 197.718C186.71 197.43 186.348 197.286 185.884 197.286C185.569 197.286 185.289 197.355 185.043 197.494C184.801 197.63 184.611 197.827 184.472 198.086C184.336 198.344 184.268 198.658 184.268 199.026Z" fill="#4C4E64" fill-opacity="0.87"/>
<path d="M77.5795 213.71V212.773H84.125V213.71H81.3807V221.5H80.3239V213.71H77.5795ZM87.0552 221.653C86.6404 221.653 86.264 221.575 85.9259 221.419C85.5879 221.26 85.3194 221.031 85.1205 220.733C84.9217 220.432 84.8222 220.068 84.8222 219.642C84.8222 219.267 84.8961 218.963 85.0438 218.73C85.1915 218.494 85.389 218.31 85.6362 218.176C85.8833 218.043 86.156 217.943 86.4543 217.878C86.7555 217.81 87.058 217.756 87.362 217.716C87.7597 217.665 88.0822 217.626 88.3293 217.601C88.5793 217.572 88.7612 217.526 88.8748 217.46C88.9913 217.395 89.0495 217.281 89.0495 217.119V217.085C89.0495 216.665 88.9344 216.338 88.7043 216.105C88.4771 215.872 88.1319 215.756 87.6688 215.756C87.1887 215.756 86.8123 215.861 86.5396 216.071C86.2668 216.281 86.0751 216.506 85.9643 216.744L85.0097 216.403C85.1802 216.006 85.4075 215.696 85.6915 215.474C85.9785 215.25 86.291 215.094 86.629 215.006C86.97 214.915 87.3052 214.869 87.6347 214.869C87.845 214.869 88.0864 214.895 88.3592 214.946C88.6347 214.994 88.9004 215.095 89.156 215.249C89.4146 215.402 89.629 215.634 89.7995 215.943C89.97 216.253 90.0552 216.668 90.0552 217.188V221.5H89.0495V220.614H88.9984C88.9302 220.756 88.8165 220.908 88.6575 221.07C88.4984 221.232 88.2867 221.369 88.0225 221.483C87.7583 221.597 87.4359 221.653 87.0552 221.653ZM87.2086 220.75C87.6063 220.75 87.9415 220.672 88.2143 220.516C88.4898 220.359 88.6972 220.158 88.8364 219.911C88.9785 219.663 89.0495 219.403 89.0495 219.131V218.21C89.0069 218.261 88.9131 218.308 88.7683 218.351C88.6262 218.391 88.4614 218.426 88.2739 218.457C88.0893 218.486 87.9089 218.511 87.7327 218.534C87.5594 218.554 87.4188 218.571 87.3109 218.585C87.0495 218.619 86.8052 218.675 86.5779 218.751C86.3535 218.825 86.1717 218.937 86.0325 219.088C85.8961 219.236 85.8279 219.437 85.8279 219.693C85.8279 220.043 85.9572 220.307 86.2157 220.486C86.4771 220.662 86.808 220.75 87.2086 220.75ZM96.9271 216.42L96.0237 216.676C95.9669 216.526 95.8831 216.379 95.7723 216.237C95.6643 216.092 95.5166 215.973 95.3291 215.879C95.1416 215.786 94.9016 215.739 94.6089 215.739C94.2084 215.739 93.8746 215.831 93.6075 216.016C93.3433 216.197 93.2112 216.429 93.2112 216.71C93.2112 216.96 93.3021 217.158 93.4839 217.303C93.6658 217.447 93.9499 217.568 94.3362 217.665L95.3078 217.903C95.893 218.045 96.3291 218.263 96.6161 218.555C96.903 218.845 97.0464 219.219 97.0464 219.676C97.0464 220.051 96.9385 220.386 96.7226 220.682C96.5095 220.977 96.2112 221.21 95.8277 221.381C95.4442 221.551 94.9982 221.636 94.4896 221.636C93.822 221.636 93.2695 221.491 92.832 221.202C92.3945 220.912 92.1175 220.489 92.001 219.932L92.9555 219.693C93.0464 220.045 93.2183 220.31 93.4712 220.486C93.7268 220.662 94.0607 220.75 94.4726 220.75C94.9413 220.75 95.3135 220.651 95.5891 220.452C95.8675 220.25 96.0067 220.009 96.0067 219.727C96.0067 219.5 95.9271 219.31 95.768 219.156C95.6089 219 95.3646 218.884 95.0351 218.807L93.9442 218.551C93.3447 218.409 92.9044 218.189 92.6232 217.891C92.3447 217.589 92.2055 217.213 92.2055 216.761C92.2055 216.392 92.3092 216.065 92.5166 215.781C92.7268 215.497 93.0124 215.274 93.3732 215.112C93.7368 214.95 94.1487 214.869 94.6089 214.869C95.2567 214.869 95.7652 215.011 96.1345 215.295C96.5067 215.58 96.7709 215.955 96.9271 216.42ZM99.8978 219.114L99.8808 217.869H100.085L102.949 214.955H104.193L101.142 218.04H101.057L99.8978 219.114ZM98.9603 221.5V212.773H99.966V221.5H98.9603ZM103.119 221.5L100.563 218.261L101.278 217.562L104.398 221.5H103.119ZM112.424 212.653C112.782 212.656 113.14 212.724 113.498 212.858C113.856 212.991 114.183 213.213 114.478 213.523C114.773 213.83 115.011 214.249 115.19 214.78C115.369 215.311 115.458 215.977 115.458 216.778C115.458 217.554 115.384 218.243 115.237 218.845C115.092 219.445 114.881 219.95 114.606 220.362C114.333 220.774 114.001 221.087 113.609 221.3C113.219 221.513 112.779 221.619 112.288 221.619C111.799 221.619 111.363 221.523 110.979 221.33C110.599 221.134 110.286 220.862 110.042 220.516C109.8 220.166 109.646 219.761 109.577 219.301H110.617C110.711 219.702 110.897 220.033 111.175 220.294C111.457 220.553 111.827 220.682 112.288 220.682C112.961 220.682 113.492 220.388 113.881 219.8C114.273 219.212 114.469 218.381 114.469 217.307H114.401C114.242 217.545 114.053 217.751 113.835 217.925C113.616 218.098 113.373 218.232 113.106 218.325C112.839 218.419 112.555 218.466 112.254 218.466C111.754 218.466 111.295 218.342 110.877 218.095C110.462 217.845 110.13 217.503 109.88 217.068C109.633 216.631 109.509 216.131 109.509 215.568C109.509 215.034 109.629 214.545 109.867 214.102C110.109 213.656 110.447 213.301 110.881 213.037C111.319 212.773 111.833 212.645 112.424 212.653ZM112.424 213.591C112.066 213.591 111.744 213.68 111.457 213.859C111.173 214.036 110.947 214.274 110.779 214.575C110.614 214.874 110.532 215.205 110.532 215.568C110.532 215.932 110.612 216.263 110.771 216.561C110.933 216.857 111.153 217.092 111.431 217.268C111.712 217.442 112.032 217.528 112.39 217.528C112.66 217.528 112.911 217.476 113.144 217.371C113.377 217.263 113.58 217.116 113.754 216.932C113.93 216.744 114.067 216.533 114.167 216.297C114.266 216.058 114.316 215.81 114.316 215.551C114.316 215.21 114.234 214.891 114.069 214.592C113.907 214.294 113.683 214.053 113.396 213.868C113.112 213.683 112.788 213.591 112.424 213.591ZM120.312 212.653C120.67 212.656 121.028 212.724 121.386 212.858C121.744 212.991 122.071 213.213 122.366 213.523C122.662 213.83 122.899 214.249 123.078 214.78C123.257 215.311 123.346 215.977 123.346 216.778C123.346 217.554 123.273 218.243 123.125 218.845C122.98 219.445 122.77 219.95 122.494 220.362C122.221 220.774 121.889 221.087 121.497 221.3C121.108 221.513 120.667 221.619 120.176 221.619C119.687 221.619 119.251 221.523 118.868 221.33C118.487 221.134 118.175 220.862 117.93 220.516C117.689 220.166 117.534 219.761 117.466 219.301H118.505C118.599 219.702 118.785 220.033 119.064 220.294C119.345 220.553 119.716 220.682 120.176 220.682C120.849 220.682 121.38 220.388 121.77 219.8C122.162 219.212 122.358 218.381 122.358 217.307H122.29C122.13 217.545 121.942 217.751 121.723 217.925C121.504 218.098 121.261 218.232 120.994 218.325C120.727 218.419 120.443 218.466 120.142 218.466C119.642 218.466 119.183 218.342 118.765 218.095C118.351 217.845 118.018 217.503 117.768 217.068C117.521 216.631 117.398 216.131 117.398 215.568C117.398 215.034 117.517 214.545 117.755 214.102C117.997 213.656 118.335 213.301 118.77 213.037C119.207 212.773 119.721 212.645 120.312 212.653ZM120.312 213.591C119.954 213.591 119.632 213.68 119.345 213.859C119.061 214.036 118.835 214.274 118.667 214.575C118.503 214.874 118.42 215.205 118.42 215.568C118.42 215.932 118.5 216.263 118.659 216.561C118.821 216.857 119.041 217.092 119.319 217.268C119.601 217.442 119.92 217.528 120.278 217.528C120.548 217.528 120.8 217.476 121.032 217.371C121.265 217.263 121.469 217.116 121.642 216.932C121.818 216.744 121.956 216.533 122.055 216.297C122.155 216.058 122.204 215.81 122.204 215.551C122.204 215.21 122.122 214.891 121.957 214.592C121.795 214.294 121.571 214.053 121.284 213.868C121 213.683 120.676 213.591 120.312 213.591ZM128.524 212.364L125.712 222.812H124.791L127.604 212.364H128.524ZM133.168 212.773V221.5H132.111V213.881H132.06L129.929 215.295V214.222L132.111 212.773H133.168ZM136.312 221.568C136.102 221.568 135.921 221.493 135.771 221.342C135.62 221.192 135.545 221.011 135.545 220.801C135.545 220.591 135.62 220.411 135.771 220.26C135.921 220.109 136.102 220.034 136.312 220.034C136.522 220.034 136.703 220.109 136.853 220.26C137.004 220.411 137.079 220.591 137.079 220.801C137.079 220.94 137.044 221.068 136.973 221.185C136.904 221.301 136.812 221.395 136.696 221.466C136.582 221.534 136.454 221.568 136.312 221.568ZM139.062 219.71V218.841L142.897 212.773H143.528V214.119H143.102L140.204 218.705V218.773H145.369V219.71H139.062ZM143.17 221.5V219.446V219.041V212.773H144.176V221.5H143.17ZM147.366 221.5V220.733L150.247 217.58C150.585 217.21 150.863 216.889 151.082 216.616C151.301 216.341 151.463 216.082 151.568 215.841C151.676 215.597 151.73 215.341 151.73 215.074C151.73 214.767 151.656 214.501 151.508 214.277C151.363 214.053 151.164 213.879 150.911 213.757C150.659 213.635 150.374 213.574 150.059 213.574C149.724 213.574 149.431 213.643 149.181 213.783C148.934 213.919 148.742 214.111 148.606 214.358C148.472 214.605 148.406 214.895 148.406 215.227H147.4C147.4 214.716 147.518 214.267 147.754 213.881C147.989 213.494 148.311 213.193 148.717 212.977C149.126 212.761 149.585 212.653 150.093 212.653C150.605 212.653 151.058 212.761 151.453 212.977C151.847 213.193 152.157 213.484 152.382 213.851C152.606 214.217 152.718 214.625 152.718 215.074C152.718 215.395 152.66 215.709 152.543 216.016C152.43 216.32 152.231 216.659 151.947 217.034C151.666 217.406 151.275 217.861 150.775 218.398L148.815 220.494V220.562H152.872V221.5H147.366ZM155.986 219.114L155.969 217.869H156.174L159.037 214.955H160.282L157.23 218.04H157.145L155.986 219.114ZM155.049 221.5V212.773H156.054V221.5H155.049ZM159.208 221.5L156.651 218.261L157.367 217.562L160.486 221.5H159.208Z" fill="#4C4E64" fill-opacity="0.6"/>
<rect x="20" y="259" width="45" height="45" rx="8" fill="#26C6F9"/>
<rect x="20" y="259" width="45" height="45" rx="8" fill="white" fill-opacity="0.88"/>
<path d="M46.5 280.5H45.5V272.5C45.5 271.4 44.6 270.5 43.5 270.5H41.5C40.4 270.5 39.5 271.4 39.5 272.5V280.5H38.5C35.74 280.5 33.5 282.74 33.5 285.5V292.5H51.5V285.5C51.5 282.74 49.26 280.5 46.5 280.5ZM49.5 290.5H47.5V287.5C47.5 286.95 47.05 286.5 46.5 286.5C45.95 286.5 45.5 286.95 45.5 287.5V290.5H43.5V287.5C43.5 286.95 43.05 286.5 42.5 286.5C41.95 286.5 41.5 286.95 41.5 287.5V290.5H39.5V287.5C39.5 286.95 39.05 286.5 38.5 286.5C37.95 286.5 37.5 286.95 37.5 287.5V290.5H35.5V285.5C35.5 283.85 36.85 282.5 38.5 282.5H46.5C48.15 282.5 49.5 283.85 49.5 285.5V290.5Z" fill="#26C6F9"/>
<path d="M84.4226 268.318H86.267V274.97C86.267 275.699 86.0947 276.341 85.75 276.894C85.4086 277.448 84.928 277.88 84.3082 278.192C83.6884 278.5 82.9643 278.654 82.1357 278.654C81.3037 278.654 80.5779 278.5 79.9581 278.192C79.3383 277.88 78.8577 277.448 78.5163 276.894C78.175 276.341 78.0043 275.699 78.0043 274.97V268.318H79.8487V274.816C79.8487 275.24 79.9415 275.618 80.1271 275.95C80.3161 276.281 80.5812 276.541 80.9226 276.73C81.264 276.916 81.6683 277.009 82.1357 277.009C82.603 277.009 83.0073 276.916 83.3487 276.73C83.6934 276.541 83.9586 276.281 84.1442 275.95C84.3298 275.618 84.4226 275.24 84.4226 274.816V268.318ZM90.2663 268.318V278.5H88.4218V268.318H90.2663ZM96.0363 278.5V268.318H97.8808V272.996H98.005L101.977 268.318H104.229L100.292 272.887L104.264 278.5H102.047L99.0093 274.135L97.8808 275.467V278.5H96.0363ZM106.06 278.5V270.864H107.86V278.5H106.06ZM106.965 269.78C106.68 269.78 106.434 269.685 106.229 269.496C106.023 269.304 105.921 269.074 105.921 268.805C105.921 268.534 106.023 268.303 106.229 268.114C106.434 267.922 106.68 267.826 106.965 267.826C107.253 267.826 107.498 267.922 107.7 268.114C107.906 268.303 108.009 268.534 108.009 268.805C108.009 269.074 107.906 269.304 107.7 269.496C107.498 269.685 107.253 269.78 106.965 269.78ZM113.673 270.864V272.256H109.284V270.864H113.673ZM110.367 269.034H112.167V276.203C112.167 276.445 112.204 276.631 112.276 276.76C112.353 276.886 112.452 276.972 112.575 277.018C112.697 277.065 112.833 277.088 112.982 277.088C113.095 277.088 113.198 277.08 113.291 277.063C113.387 277.047 113.46 277.032 113.509 277.018L113.813 278.425C113.717 278.459 113.579 278.495 113.4 278.535C113.224 278.575 113.009 278.598 112.754 278.604C112.303 278.618 111.897 278.55 111.536 278.401C111.174 278.248 110.888 278.013 110.676 277.695C110.467 277.376 110.364 276.979 110.367 276.501V269.034ZM122.481 278.5H119.031V268.318H122.551C123.562 268.318 124.43 268.522 125.156 268.93C125.885 269.334 126.445 269.916 126.836 270.675C127.227 271.434 127.423 272.342 127.423 273.399C127.423 274.46 127.226 275.371 126.831 276.134C126.44 276.896 125.875 277.481 125.136 277.888C124.4 278.296 123.515 278.5 122.481 278.5ZM120.875 276.904H122.392C123.101 276.904 123.693 276.775 124.166 276.516C124.64 276.254 124.997 275.865 125.235 275.348C125.474 274.828 125.593 274.178 125.593 273.399C125.593 272.62 125.474 271.974 125.235 271.46C124.997 270.943 124.644 270.557 124.176 270.302C123.712 270.043 123.136 269.914 122.446 269.914H120.875V276.904ZM132.626 278.649C131.861 278.649 131.2 278.49 130.643 278.172C130.089 277.85 129.663 277.396 129.365 276.81C129.067 276.22 128.918 275.525 128.918 274.727C128.918 273.941 129.067 273.252 129.365 272.658C129.667 272.062 130.088 271.598 130.628 271.266C131.168 270.932 131.803 270.764 132.532 270.764C133.003 270.764 133.447 270.84 133.864 270.993C134.285 271.142 134.657 271.374 134.978 271.689C135.303 272.004 135.558 272.405 135.744 272.892C135.929 273.376 136.022 273.953 136.022 274.622V275.174H129.763V273.961H134.297C134.294 273.616 134.219 273.31 134.073 273.041C133.927 272.769 133.724 272.556 133.462 272.4C133.203 272.244 132.902 272.166 132.557 272.166C132.189 272.166 131.866 272.256 131.587 272.435C131.309 272.61 131.092 272.842 130.936 273.131C130.784 273.416 130.706 273.729 130.702 274.07V275.129C130.702 275.573 130.784 275.955 130.946 276.273C131.108 276.588 131.336 276.83 131.627 276.999C131.919 277.164 132.26 277.247 132.651 277.247C132.913 277.247 133.15 277.211 133.362 277.138C133.574 277.062 133.758 276.951 133.914 276.805C134.07 276.659 134.188 276.478 134.267 276.263L135.948 276.452C135.841 276.896 135.639 277.284 135.341 277.615C135.046 277.943 134.668 278.198 134.207 278.381C133.747 278.56 133.22 278.649 132.626 278.649ZM143.73 272.882L142.09 273.061C142.043 272.895 141.962 272.74 141.846 272.594C141.733 272.448 141.581 272.33 141.389 272.241C141.196 272.151 140.961 272.107 140.683 272.107C140.308 272.107 139.993 272.188 139.738 272.35C139.486 272.513 139.362 272.723 139.365 272.982C139.362 273.204 139.443 273.384 139.609 273.523C139.778 273.663 140.056 273.777 140.444 273.866L141.746 274.145C142.469 274.301 143.006 274.548 143.357 274.886C143.712 275.224 143.891 275.666 143.894 276.213C143.891 276.694 143.75 277.118 143.472 277.486C143.197 277.85 142.814 278.135 142.323 278.341C141.833 278.546 141.269 278.649 140.633 278.649C139.698 278.649 138.946 278.454 138.376 278.062C137.806 277.668 137.466 277.12 137.357 276.417L139.112 276.248C139.191 276.593 139.36 276.853 139.619 277.028C139.877 277.204 140.214 277.292 140.628 277.292C141.055 277.292 141.398 277.204 141.657 277.028C141.919 276.853 142.05 276.636 142.05 276.377C142.05 276.158 141.965 275.978 141.796 275.835C141.63 275.693 141.372 275.583 141.021 275.507L139.718 275.234C138.986 275.081 138.444 274.824 138.092 274.463C137.741 274.098 137.567 273.638 137.57 273.081C137.567 272.61 137.695 272.203 137.953 271.858C138.215 271.51 138.578 271.241 139.042 271.053C139.509 270.86 140.048 270.764 140.658 270.764C141.553 270.764 142.257 270.955 142.771 271.336C143.288 271.717 143.608 272.232 143.73 272.882ZM145.528 278.5V270.864H147.328V278.5H145.528ZM146.433 269.78C146.148 269.78 145.903 269.685 145.697 269.496C145.492 269.304 145.389 269.074 145.389 268.805C145.389 268.534 145.492 268.303 145.697 268.114C145.903 267.922 146.148 267.826 146.433 267.826C146.721 267.826 146.967 267.922 147.169 268.114C147.374 268.303 147.477 268.534 147.477 268.805C147.477 269.074 147.374 269.304 147.169 269.496C146.967 269.685 146.721 269.78 146.433 269.78ZM152.65 281.523C152.003 281.523 151.448 281.435 150.984 281.259C150.52 281.087 150.147 280.855 149.866 280.563C149.584 280.272 149.388 279.948 149.279 279.594L150.9 279.201C150.973 279.35 151.079 279.498 151.218 279.643C151.357 279.793 151.544 279.915 151.78 280.011C152.018 280.111 152.318 280.161 152.679 280.161C153.19 280.161 153.612 280.036 153.947 279.788C154.282 279.542 154.449 279.138 154.449 278.575V277.128H154.36C154.267 277.313 154.131 277.504 153.952 277.7C153.777 277.895 153.543 278.059 153.251 278.192C152.963 278.324 152.6 278.391 152.162 278.391C151.576 278.391 151.044 278.253 150.567 277.978C150.093 277.7 149.715 277.285 149.433 276.735C149.155 276.182 149.015 275.489 149.015 274.657C149.015 273.818 149.155 273.111 149.433 272.534C149.715 271.954 150.094 271.515 150.572 271.217C151.049 270.915 151.581 270.764 152.167 270.764C152.615 270.764 152.983 270.84 153.271 270.993C153.563 271.142 153.795 271.323 153.967 271.535C154.139 271.744 154.27 271.941 154.36 272.126H154.459V270.864H156.234V278.624C156.234 279.277 156.078 279.817 155.767 280.245C155.455 280.673 155.029 280.992 154.489 281.205C153.949 281.417 153.336 281.523 152.65 281.523ZM152.665 276.979C153.046 276.979 153.371 276.886 153.639 276.7C153.907 276.515 154.111 276.248 154.25 275.9C154.39 275.552 154.459 275.134 154.459 274.647C154.459 274.166 154.39 273.746 154.25 273.384C154.115 273.023 153.912 272.743 153.644 272.544C153.379 272.342 153.052 272.241 152.665 272.241C152.264 272.241 151.929 272.345 151.66 272.554C151.392 272.763 151.19 273.049 151.054 273.414C150.918 273.775 150.85 274.186 150.85 274.647C150.85 275.114 150.918 275.524 151.054 275.875C151.193 276.223 151.397 276.495 151.665 276.69C151.937 276.883 152.27 276.979 152.665 276.979ZM160.028 274.026V278.5H158.229V270.864H159.949V272.161H160.038C160.214 271.734 160.494 271.394 160.878 271.142C161.266 270.89 161.745 270.764 162.315 270.764C162.842 270.764 163.301 270.877 163.692 271.102C164.087 271.328 164.392 271.654 164.607 272.082C164.826 272.509 164.934 273.028 164.93 273.638V278.5H163.131V273.916C163.131 273.406 162.998 273.006 162.733 272.718C162.471 272.43 162.108 272.286 161.644 272.286C161.329 272.286 161.049 272.355 160.804 272.494C160.562 272.63 160.371 272.827 160.232 273.086C160.096 273.344 160.028 273.658 160.028 274.026Z" fill="#4C4E64" fill-opacity="0.87"/>
<path d="M77.5795 288.71V287.773H84.125V288.71H81.3807V296.5H80.3239V288.71H77.5795ZM87.0552 296.653C86.6404 296.653 86.264 296.575 85.9259 296.419C85.5879 296.26 85.3194 296.031 85.1205 295.733C84.9217 295.432 84.8222 295.068 84.8222 294.642C84.8222 294.267 84.8961 293.963 85.0438 293.73C85.1915 293.494 85.389 293.31 85.6362 293.176C85.8833 293.043 86.156 292.943 86.4543 292.878C86.7555 292.81 87.058 292.756 87.362 292.716C87.7597 292.665 88.0822 292.626 88.3293 292.601C88.5793 292.572 88.7612 292.526 88.8748 292.46C88.9913 292.395 89.0495 292.281 89.0495 292.119V292.085C89.0495 291.665 88.9344 291.338 88.7043 291.105C88.4771 290.872 88.1319 290.756 87.6688 290.756C87.1887 290.756 86.8123 290.861 86.5396 291.071C86.2668 291.281 86.0751 291.506 85.9643 291.744L85.0097 291.403C85.1802 291.006 85.4075 290.696 85.6915 290.474C85.9785 290.25 86.291 290.094 86.629 290.006C86.97 289.915 87.3052 289.869 87.6347 289.869C87.845 289.869 88.0864 289.895 88.3592 289.946C88.6347 289.994 88.9004 290.095 89.156 290.249C89.4146 290.402 89.629 290.634 89.7995 290.943C89.97 291.253 90.0552 291.668 90.0552 292.188V296.5H89.0495V295.614H88.9984C88.9302 295.756 88.8165 295.908 88.6575 296.07C88.4984 296.232 88.2867 296.369 88.0225 296.483C87.7583 296.597 87.4359 296.653 87.0552 296.653ZM87.2086 295.75C87.6063 295.75 87.9415 295.672 88.2143 295.516C88.4898 295.359 88.6972 295.158 88.8364 294.911C88.9785 294.663 89.0495 294.403 89.0495 294.131V293.21C89.0069 293.261 88.9131 293.308 88.7683 293.351C88.6262 293.391 88.4614 293.426 88.2739 293.457C88.0893 293.486 87.9089 293.511 87.7327 293.534C87.5594 293.554 87.4188 293.571 87.3109 293.585C87.0495 293.619 86.8052 293.675 86.5779 293.751C86.3535 293.825 86.1717 293.937 86.0325 294.088C85.8961 294.236 85.8279 294.437 85.8279 294.693C85.8279 295.043 85.9572 295.307 86.2157 295.486C86.4771 295.662 86.808 295.75 87.2086 295.75ZM96.9271 291.42L96.0237 291.676C95.9669 291.526 95.8831 291.379 95.7723 291.237C95.6643 291.092 95.5166 290.973 95.3291 290.879C95.1416 290.786 94.9016 290.739 94.6089 290.739C94.2084 290.739 93.8746 290.831 93.6075 291.016C93.3433 291.197 93.2112 291.429 93.2112 291.71C93.2112 291.96 93.3021 292.158 93.4839 292.303C93.6658 292.447 93.9499 292.568 94.3362 292.665L95.3078 292.903C95.893 293.045 96.3291 293.263 96.6161 293.555C96.903 293.845 97.0464 294.219 97.0464 294.676C97.0464 295.051 96.9385 295.386 96.7226 295.682C96.5095 295.977 96.2112 296.21 95.8277 296.381C95.4442 296.551 94.9982 296.636 94.4896 296.636C93.822 296.636 93.2695 296.491 92.832 296.202C92.3945 295.912 92.1175 295.489 92.001 294.932L92.9555 294.693C93.0464 295.045 93.2183 295.31 93.4712 295.486C93.7268 295.662 94.0607 295.75 94.4726 295.75C94.9413 295.75 95.3135 295.651 95.5891 295.452C95.8675 295.25 96.0067 295.009 96.0067 294.727C96.0067 294.5 95.9271 294.31 95.768 294.156C95.6089 294 95.3646 293.884 95.0351 293.807L93.9442 293.551C93.3447 293.409 92.9044 293.189 92.6232 292.891C92.3447 292.589 92.2055 292.213 92.2055 291.761C92.2055 291.392 92.3092 291.065 92.5166 290.781C92.7268 290.497 93.0124 290.274 93.3732 290.112C93.7368 289.95 94.1487 289.869 94.6089 289.869C95.2567 289.869 95.7652 290.011 96.1345 290.295C96.5067 290.58 96.7709 290.955 96.9271 291.42ZM99.8978 294.114L99.8808 292.869H100.085L102.949 289.955H104.193L101.142 293.04H101.057L99.8978 294.114ZM98.9603 296.5V287.773H99.966V296.5H98.9603ZM103.119 296.5L100.563 293.261L101.278 292.562L104.398 296.5H103.119ZM112.714 287.773V296.5H111.657V288.881H111.606L109.475 290.295V289.222L111.657 287.773H112.714ZM115.624 296.5V295.733L118.504 292.58C118.842 292.21 119.121 291.889 119.34 291.616C119.558 291.341 119.72 291.082 119.825 290.841C119.933 290.597 119.987 290.341 119.987 290.074C119.987 289.767 119.913 289.501 119.766 289.277C119.621 289.053 119.422 288.879 119.169 288.757C118.916 288.635 118.632 288.574 118.317 288.574C117.982 288.574 117.689 288.643 117.439 288.783C117.192 288.919 117 289.111 116.864 289.358C116.73 289.605 116.663 289.895 116.663 290.227H115.658C115.658 289.716 115.776 289.267 116.012 288.881C116.247 288.494 116.568 288.193 116.975 287.977C117.384 287.761 117.842 287.653 118.351 287.653C118.862 287.653 119.315 287.761 119.71 287.977C120.105 288.193 120.415 288.484 120.639 288.851C120.864 289.217 120.976 289.625 120.976 290.074C120.976 290.395 120.918 290.709 120.801 291.016C120.688 291.32 120.489 291.659 120.205 292.034C119.923 292.406 119.533 292.861 119.033 293.398L117.073 295.494V295.562H121.129V296.5H115.624ZM126.136 296.619C125.494 296.619 124.947 296.445 124.495 296.095C124.044 295.743 123.698 295.233 123.46 294.565C123.221 293.895 123.102 293.085 123.102 292.136C123.102 291.193 123.221 290.388 123.46 289.72C123.701 289.05 124.048 288.538 124.5 288.186C124.954 287.831 125.5 287.653 126.136 287.653C126.772 287.653 127.316 287.831 127.768 288.186C128.223 288.538 128.569 289.05 128.808 289.72C129.049 290.388 129.17 291.193 129.17 292.136C129.17 293.085 129.051 293.895 128.812 294.565C128.573 295.233 128.228 295.743 127.777 296.095C127.325 296.445 126.778 296.619 126.136 296.619ZM126.136 295.682C126.772 295.682 127.267 295.375 127.619 294.761C127.971 294.148 128.147 293.273 128.147 292.136C128.147 291.381 128.066 290.737 127.904 290.206C127.745 289.675 127.515 289.27 127.214 288.991C126.916 288.713 126.556 288.574 126.136 288.574C125.505 288.574 125.012 288.885 124.657 289.507C124.302 290.126 124.125 291.003 124.125 292.136C124.125 292.892 124.204 293.534 124.363 294.062C124.522 294.591 124.751 294.993 125.049 295.268C125.35 295.544 125.713 295.682 126.136 295.682ZM134.292 287.364L131.479 297.812H130.559L133.371 287.364H134.292ZM138.816 296.619C138.253 296.619 137.752 296.523 137.311 296.33C136.874 296.136 136.526 295.868 136.267 295.524C136.012 295.178 135.872 294.776 135.85 294.318H136.924C136.946 294.599 137.043 294.842 137.213 295.047C137.384 295.249 137.607 295.405 137.882 295.516C138.158 295.626 138.463 295.682 138.799 295.682C139.174 295.682 139.506 295.616 139.796 295.486C140.085 295.355 140.313 295.173 140.477 294.94C140.642 294.707 140.725 294.438 140.725 294.131C140.725 293.81 140.645 293.527 140.486 293.283C140.327 293.036 140.094 292.842 139.787 292.703C139.48 292.564 139.105 292.494 138.662 292.494H137.963V291.557H138.662C139.009 291.557 139.313 291.494 139.574 291.369C139.838 291.244 140.044 291.068 140.192 290.841C140.343 290.614 140.418 290.347 140.418 290.04C140.418 289.744 140.352 289.487 140.222 289.268C140.091 289.05 139.906 288.879 139.668 288.757C139.432 288.635 139.154 288.574 138.833 288.574C138.531 288.574 138.247 288.629 137.98 288.74C137.716 288.848 137.5 289.006 137.333 289.213C137.165 289.418 137.074 289.665 137.06 289.955H136.037C136.054 289.497 136.192 289.097 136.45 288.753C136.709 288.406 137.047 288.136 137.465 287.943C137.885 287.75 138.347 287.653 138.85 287.653C139.389 287.653 139.852 287.763 140.239 287.982C140.625 288.197 140.922 288.483 141.129 288.838C141.337 289.193 141.441 289.577 141.441 289.989C141.441 290.48 141.311 290.899 141.053 291.246C140.797 291.592 140.449 291.832 140.009 291.966V292.034C140.56 292.125 140.99 292.359 141.3 292.737C141.61 293.112 141.764 293.577 141.764 294.131C141.764 294.605 141.635 295.031 141.377 295.409C141.121 295.784 140.772 296.08 140.328 296.295C139.885 296.511 139.381 296.619 138.816 296.619ZM146.635 296.619C146.135 296.619 145.684 296.52 145.284 296.321C144.883 296.122 144.562 295.849 144.321 295.503C144.079 295.156 143.947 294.761 143.924 294.318H144.947C144.987 294.713 145.166 295.04 145.484 295.298C145.805 295.554 146.189 295.682 146.635 295.682C146.993 295.682 147.311 295.598 147.589 295.43C147.87 295.263 148.091 295.033 148.25 294.74C148.412 294.445 148.493 294.111 148.493 293.739C148.493 293.358 148.409 293.018 148.241 292.72C148.076 292.419 147.849 292.182 147.559 292.009C147.27 291.835 146.939 291.747 146.566 291.744C146.299 291.741 146.025 291.783 145.744 291.868C145.463 291.95 145.231 292.057 145.049 292.188L144.061 292.068L144.589 287.773H149.123V288.71H145.475L145.169 291.284H145.22C145.399 291.142 145.623 291.024 145.893 290.93C146.163 290.837 146.444 290.79 146.737 290.79C147.271 290.79 147.747 290.918 148.164 291.173C148.585 291.426 148.914 291.773 149.153 292.213C149.395 292.653 149.515 293.156 149.515 293.722C149.515 294.278 149.39 294.776 149.14 295.213C148.893 295.648 148.552 295.991 148.118 296.244C147.683 296.494 147.189 296.619 146.635 296.619ZM154.455 296.619C153.813 296.619 153.266 296.445 152.814 296.095C152.362 295.743 152.017 295.233 151.779 294.565C151.54 293.895 151.421 293.085 151.421 292.136C151.421 291.193 151.54 290.388 151.779 289.72C152.02 289.05 152.367 288.538 152.818 288.186C153.273 287.831 153.818 287.653 154.455 287.653C155.091 287.653 155.635 287.831 156.087 288.186C156.541 288.538 156.888 289.05 157.127 289.72C157.368 290.388 157.489 291.193 157.489 292.136C157.489 293.085 157.369 293.895 157.131 294.565C156.892 295.233 156.547 295.743 156.095 296.095C155.644 296.445 155.097 296.619 154.455 296.619ZM154.455 295.682C155.091 295.682 155.585 295.375 155.938 294.761C156.29 294.148 156.466 293.273 156.466 292.136C156.466 291.381 156.385 290.737 156.223 290.206C156.064 289.675 155.834 289.27 155.533 288.991C155.235 288.713 154.875 288.574 154.455 288.574C153.824 288.574 153.331 288.885 152.976 289.507C152.621 290.126 152.443 291.003 152.443 292.136C152.443 292.892 152.523 293.534 152.682 294.062C152.841 294.591 153.07 294.993 153.368 295.268C153.669 295.544 154.031 295.682 154.455 295.682Z" fill="#4C4E64" fill-opacity="0.6"/>
</svg>
