<svg width="306" height="279" viewBox="0 0 306 279" fill="none" xmlns="http://www.w3.org/2000/svg">
<rect width="306" height="279" fill="#FFFFFF"/>
<rect x="123" y="65" width="62" height="61" rx="13" fill="#7599CF" fill-opacity="0.3"/>
<path fill-rule="evenodd" clip-rule="evenodd" d="M149.906 85.0937C149.906 84.9547 150.012 84.875 150.102 84.875H156.898C156.988 84.875 157.093 84.9547 157.093 85.0937V86.2317C157.093 86.238 157.093 86.2443 157.093 86.2506C157.093 86.257 157.093 86.2633 157.093 86.2696V87.406C157.093 87.545 156.988 87.6247 156.898 87.6247H150.102C150.012 87.6247 149.906 87.545 149.906 87.406V85.0937ZM158.968 87.1881V87.406C158.968 88.5442 158.06 89.4997 156.898 89.4997H150.102C148.94 89.4997 148.031 88.5442 148.031 87.406V87.1881H146.703C146.357 87.1881 146.021 87.3283 145.771 87.584C145.519 87.8405 145.375 88.1922 145.375 88.563V104.749C145.375 105.12 145.519 105.472 145.771 105.728C146.021 105.984 146.357 106.124 146.703 106.124H160.296C160.642 106.124 160.978 105.984 161.229 105.728C161.48 105.472 161.624 105.12 161.624 104.749V88.563C161.624 88.1922 161.48 87.8405 161.229 87.584C160.978 87.3283 160.642 87.1881 160.296 87.1881H158.968ZM148.031 85.3132V85.0937C148.031 83.9555 148.94 83 150.102 83H156.898C158.06 83 158.968 83.9555 158.968 85.0937V85.3132H160.296C161.152 85.3132 161.969 85.6603 162.568 86.2718C163.166 86.8827 163.499 87.7072 163.499 88.563V104.749C163.499 105.605 163.166 106.43 162.568 107.041C161.969 107.652 161.152 107.999 160.296 107.999H146.703C145.847 107.999 145.031 107.652 144.431 107.041C143.833 106.43 143.5 105.605 143.5 104.749V88.563C143.5 87.7072 143.833 86.8827 144.431 86.2718C145.031 85.6603 145.847 85.3132 146.703 85.3132H148.031Z" fill="#1B54FF"/>
<path d="M111.912 181L128.42 148.352V148.075H109.327V143.182H134.33V148.241L117.876 181H111.912ZM152.768 181.517C150.121 181.517 147.782 181.062 145.751 180.151C143.732 179.24 142.15 177.984 141.005 176.384C139.86 174.783 139.294 172.961 139.306 170.918C139.294 169.317 139.62 167.846 140.285 166.504C140.962 165.15 141.879 164.024 143.036 163.125C144.193 162.214 145.486 161.635 146.914 161.389V161.168C145.031 160.712 143.522 159.703 142.39 158.139C141.257 156.576 140.697 154.778 140.71 152.747C140.697 150.814 141.208 149.091 142.242 147.577C143.289 146.05 144.723 144.85 146.545 143.976C148.367 143.102 150.441 142.665 152.768 142.665C155.07 142.665 157.126 143.108 158.935 143.994C160.757 144.868 162.192 146.069 163.238 147.595C164.284 149.109 164.814 150.827 164.826 152.747C164.814 154.778 164.235 156.576 163.09 158.139C161.945 159.703 160.456 160.712 158.621 161.168V161.389C160.037 161.635 161.311 162.214 162.444 163.125C163.589 164.024 164.5 165.15 165.177 166.504C165.866 167.846 166.217 169.317 166.229 170.918C166.217 172.961 165.638 174.783 164.494 176.384C163.349 177.984 161.761 179.24 159.729 180.151C157.71 181.062 155.39 181.517 152.768 181.517ZM152.768 176.845C154.331 176.845 155.685 176.587 156.83 176.07C157.975 175.54 158.862 174.808 159.489 173.872C160.117 172.924 160.437 171.816 160.45 170.548C160.437 169.231 160.093 168.068 159.415 167.058C158.751 166.049 157.846 165.255 156.701 164.676C155.556 164.098 154.245 163.808 152.768 163.808C151.278 163.808 149.955 164.098 148.798 164.676C147.64 165.255 146.729 166.049 146.065 167.058C145.4 168.068 145.074 169.231 145.086 170.548C145.074 171.816 145.375 172.924 145.991 173.872C146.619 174.808 147.511 175.54 148.668 176.07C149.826 176.587 151.192 176.845 152.768 176.845ZM152.768 159.247C154.023 159.247 155.138 158.995 156.11 158.49C157.083 157.985 157.846 157.284 158.4 156.385C158.966 155.486 159.255 154.434 159.268 153.227C159.255 152.045 158.972 151.011 158.418 150.125C157.877 149.239 157.12 148.555 156.147 148.075C155.174 147.583 154.048 147.337 152.768 147.337C151.463 147.337 150.318 147.583 149.333 148.075C148.361 148.555 147.603 149.239 147.062 150.125C146.52 151.011 146.255 152.045 146.268 153.227C146.255 154.434 146.526 155.486 147.08 156.385C147.634 157.284 148.397 157.985 149.37 158.49C150.355 158.995 151.487 159.247 152.768 159.247ZM186.011 181.628C183.093 181.616 180.6 180.846 178.532 179.32C176.464 177.793 174.882 175.571 173.787 172.653C172.691 169.736 172.143 166.221 172.143 162.109C172.143 158.01 172.691 154.508 173.787 151.602C174.895 148.697 176.483 146.481 178.551 144.955C180.631 143.428 183.118 142.665 186.011 142.665C188.904 142.665 191.385 143.434 193.453 144.973C195.521 146.5 197.103 148.715 198.199 151.621C199.306 154.514 199.86 158.01 199.86 162.109C199.86 166.233 199.313 169.754 198.217 172.672C197.121 175.577 195.539 177.799 193.471 179.338C191.403 180.865 188.916 181.628 186.011 181.628ZM186.011 176.697C188.572 176.697 190.572 175.448 192.012 172.949C193.465 170.45 194.191 166.837 194.191 162.109C194.191 158.97 193.859 156.317 193.194 154.151C192.542 151.972 191.6 150.322 190.369 149.202C189.15 148.069 187.698 147.503 186.011 147.503C183.463 147.503 181.462 148.759 180.01 151.27C178.557 153.781 177.824 157.394 177.812 162.109C177.812 165.261 178.138 167.926 178.791 170.105C179.456 172.272 180.397 173.915 181.616 175.036C182.835 176.143 184.3 176.697 186.011 176.697Z" fill="black"/>
<path d="M99.0568 221.812V219.545H112.565V221.812H107.119V237H104.494V221.812H99.0568ZM118.962 237.264C117.734 237.264 116.663 236.983 115.749 236.42C114.834 235.858 114.124 235.071 113.618 234.06C113.112 233.048 112.859 231.866 112.859 230.514C112.859 229.156 113.112 227.969 113.618 226.952C114.124 225.935 114.834 225.145 115.749 224.582C116.663 224.02 117.734 223.739 118.962 223.739C120.189 223.739 121.26 224.02 122.175 224.582C123.089 225.145 123.8 225.935 124.305 226.952C124.811 227.969 125.064 229.156 125.064 230.514C125.064 231.866 124.811 233.048 124.305 234.06C123.8 235.071 123.089 235.858 122.175 236.42C121.26 236.983 120.189 237.264 118.962 237.264ZM118.97 235.125C119.766 235.125 120.425 234.915 120.947 234.494C121.47 234.074 121.857 233.514 122.107 232.815C122.362 232.116 122.49 231.347 122.49 230.506C122.49 229.67 122.362 228.903 122.107 228.205C121.857 227.5 121.47 226.935 120.947 226.509C120.425 226.082 119.766 225.869 118.97 225.869C118.169 225.869 117.504 226.082 116.976 226.509C116.453 226.935 116.064 227.5 115.808 228.205C115.558 228.903 115.433 229.67 115.433 230.506C115.433 231.347 115.558 232.116 115.808 232.815C116.064 233.514 116.453 234.074 116.976 234.494C117.504 234.915 118.169 235.125 118.97 235.125ZM134.019 223.909V225.955H126.869V223.909H134.019ZM128.786 220.773H131.335V233.156C131.335 233.651 131.408 234.023 131.556 234.273C131.704 234.517 131.894 234.685 132.127 234.776C132.366 234.861 132.624 234.903 132.903 234.903C133.107 234.903 133.286 234.889 133.44 234.861C133.593 234.832 133.712 234.81 133.798 234.793L134.258 236.898C134.11 236.955 133.9 237.011 133.627 237.068C133.354 237.131 133.013 237.165 132.604 237.17C131.934 237.182 131.309 237.062 130.729 236.812C130.15 236.562 129.681 236.176 129.323 235.653C128.965 235.131 128.786 234.474 128.786 233.685V220.773ZM140.648 237.29C139.818 237.29 139.068 237.136 138.398 236.83C137.727 236.517 137.196 236.065 136.804 235.474C136.418 234.884 136.224 234.159 136.224 233.301C136.224 232.562 136.366 231.955 136.651 231.477C136.935 231 137.318 230.622 137.801 230.344C138.284 230.065 138.824 229.855 139.42 229.713C140.017 229.571 140.625 229.463 141.244 229.389C142.028 229.298 142.665 229.224 143.153 229.168C143.642 229.105 143.997 229.006 144.219 228.869C144.44 228.733 144.551 228.511 144.551 228.205V228.145C144.551 227.401 144.341 226.824 143.92 226.415C143.506 226.006 142.886 225.801 142.062 225.801C141.205 225.801 140.528 225.991 140.034 226.372C139.545 226.747 139.207 227.165 139.02 227.625L136.625 227.08C136.909 226.284 137.324 225.642 137.869 225.153C138.42 224.659 139.054 224.301 139.77 224.08C140.486 223.852 141.239 223.739 142.028 223.739C142.551 223.739 143.105 223.801 143.69 223.926C144.281 224.045 144.832 224.267 145.344 224.591C145.861 224.915 146.284 225.378 146.614 225.98C146.943 226.577 147.108 227.352 147.108 228.307V237H144.619V235.21H144.517C144.352 235.54 144.105 235.864 143.776 236.182C143.446 236.5 143.023 236.764 142.506 236.974C141.989 237.185 141.369 237.29 140.648 237.29ZM141.202 235.244C141.906 235.244 142.509 235.105 143.009 234.827C143.514 234.548 143.898 234.185 144.159 233.736C144.426 233.281 144.56 232.795 144.56 232.278V230.591C144.469 230.682 144.293 230.767 144.031 230.847C143.776 230.92 143.483 230.986 143.153 231.043C142.824 231.094 142.503 231.142 142.19 231.188C141.878 231.227 141.616 231.261 141.406 231.29C140.912 231.352 140.46 231.457 140.051 231.605C139.648 231.753 139.324 231.966 139.08 232.244C138.841 232.517 138.722 232.881 138.722 233.335C138.722 233.966 138.955 234.443 139.42 234.767C139.886 235.085 140.48 235.244 141.202 235.244ZM153.05 219.545V237H150.502V219.545H153.05ZM162.174 221.812V219.545H175.683V221.812H170.237V237H167.612V221.812H162.174ZM180.491 237.29C179.662 237.29 178.912 237.136 178.241 236.83C177.571 236.517 177.04 236.065 176.648 235.474C176.261 234.884 176.068 234.159 176.068 233.301C176.068 232.562 176.21 231.955 176.494 231.477C176.778 231 177.162 230.622 177.645 230.344C178.128 230.065 178.668 229.855 179.264 229.713C179.861 229.571 180.469 229.463 181.088 229.389C181.872 229.298 182.509 229.224 182.997 229.168C183.486 229.105 183.841 229.006 184.062 228.869C184.284 228.733 184.395 228.511 184.395 228.205V228.145C184.395 227.401 184.185 226.824 183.764 226.415C183.349 226.006 182.73 225.801 181.906 225.801C181.048 225.801 180.372 225.991 179.878 226.372C179.389 226.747 179.051 227.165 178.864 227.625L176.469 227.08C176.753 226.284 177.168 225.642 177.713 225.153C178.264 224.659 178.898 224.301 179.614 224.08C180.33 223.852 181.082 223.739 181.872 223.739C182.395 223.739 182.949 223.801 183.534 223.926C184.125 224.045 184.676 224.267 185.188 224.591C185.705 224.915 186.128 225.378 186.457 225.98C186.787 226.577 186.952 227.352 186.952 228.307V237H184.463V235.21H184.361C184.196 235.54 183.949 235.864 183.619 236.182C183.29 236.5 182.866 236.764 182.349 236.974C181.832 237.185 181.213 237.29 180.491 237.29ZM181.045 235.244C181.75 235.244 182.352 235.105 182.852 234.827C183.358 234.548 183.741 234.185 184.003 233.736C184.27 233.281 184.403 232.795 184.403 232.278V230.591C184.313 230.682 184.136 230.767 183.875 230.847C183.619 230.92 183.327 230.986 182.997 231.043C182.668 231.094 182.347 231.142 182.034 231.188C181.722 231.227 181.46 231.261 181.25 231.29C180.756 231.352 180.304 231.457 179.895 231.605C179.491 231.753 179.168 231.966 178.923 232.244C178.685 232.517 178.565 232.881 178.565 233.335C178.565 233.966 178.798 234.443 179.264 234.767C179.73 235.085 180.324 235.244 181.045 235.244ZM200.156 227.105L197.846 227.514C197.749 227.219 197.596 226.937 197.386 226.67C197.181 226.403 196.903 226.185 196.55 226.014C196.198 225.844 195.758 225.759 195.229 225.759C194.508 225.759 193.906 225.92 193.423 226.244C192.94 226.562 192.698 226.974 192.698 227.48C192.698 227.918 192.86 228.27 193.184 228.537C193.508 228.804 194.031 229.023 194.752 229.193L196.832 229.67C198.036 229.949 198.934 230.378 199.525 230.957C200.116 231.537 200.411 232.29 200.411 233.216C200.411 234 200.184 234.699 199.729 235.312C199.281 235.92 198.653 236.398 197.846 236.744C197.045 237.091 196.116 237.264 195.059 237.264C193.593 237.264 192.397 236.952 191.471 236.327C190.545 235.696 189.977 234.801 189.766 233.642L192.229 233.267C192.383 233.909 192.698 234.395 193.175 234.724C193.653 235.048 194.275 235.21 195.042 235.21C195.877 235.21 196.545 235.037 197.045 234.69C197.545 234.338 197.795 233.909 197.795 233.403C197.795 232.994 197.641 232.651 197.335 232.372C197.033 232.094 196.57 231.884 195.945 231.741L193.729 231.256C192.508 230.977 191.604 230.534 191.019 229.926C190.44 229.318 190.15 228.548 190.15 227.616C190.15 226.844 190.366 226.168 190.798 225.588C191.229 225.009 191.826 224.557 192.587 224.233C193.349 223.903 194.221 223.739 195.204 223.739C196.619 223.739 197.732 224.045 198.545 224.659C199.357 225.267 199.894 226.082 200.156 227.105ZM205.557 232.56L205.54 229.449H205.983L211.199 223.909H214.25L208.301 230.216H207.901L205.557 232.56ZM203.213 237V219.545H205.761V237H203.213ZM211.48 237L206.793 230.778L208.548 228.997L214.608 237H211.48Z" fill="black"/>
</svg>
