<svg width="306" height="279" viewBox="0 0 306 279" fill="none" xmlns="http://www.w3.org/2000/svg">
<rect width="306" height="279" fill="#FFFFFF"/>
<rect x="122" y="65" width="62" height="61" rx="13" fill="#F99942" fill-opacity="0.3"/>
<path fill-rule="evenodd" clip-rule="evenodd" d="M150.937 84.9041C150.937 84.7777 151.033 84.7052 151.115 84.7052H157.294C157.375 84.7052 157.471 84.7777 157.471 84.9041V85.939L157.471 85.9562L157.471 85.9735V87.007C157.471 87.1333 157.375 87.2058 157.294 87.2058H151.115C151.033 87.2058 150.937 87.1333 150.937 87.007V84.9041ZM159.176 86.8088V87.007C159.176 88.042 158.35 88.911 157.294 88.911H151.115C150.059 88.911 149.233 88.042 149.233 87.007V86.8088H148.025C147.711 86.8088 147.405 86.9362 147.178 87.1689C146.949 87.4021 146.818 87.722 146.818 88.0592V93.2585C146.2 93.339 145.622 93.5493 145.113 93.8611V88.0592C145.113 87.2809 145.416 86.531 145.96 85.9755C146.505 85.4194 147.247 85.1036 148.025 85.1036H149.233V84.9041C149.233 83.869 150.059 83 151.115 83H157.294C158.35 83 159.176 83.869 159.176 84.9041V85.1036H160.383C161.161 85.1036 161.904 85.4194 162.448 85.9755C162.992 86.531 163.295 87.2809 163.295 88.0592V102.78C163.295 103.558 162.992 104.308 162.448 104.863C161.904 105.419 161.161 105.735 160.383 105.735H154.822C155.388 105.287 155.84 104.702 156.128 104.03H160.383C160.698 104.03 161.003 103.902 161.231 103.67C161.459 103.437 161.59 103.117 161.59 102.78V88.0592C161.59 87.722 161.459 87.4021 161.231 87.1689C161.003 86.9362 160.698 86.8088 160.383 86.8088H159.176ZM147.386 96.6322C147.909 96.6322 148.333 97.0562 148.333 97.5794V101.369H152.121C152.644 101.369 153.068 101.793 153.068 102.316C153.068 102.839 152.644 103.263 152.121 103.263H148.333V107.053C148.333 107.576 147.909 108 147.386 108C146.863 108 146.439 107.576 146.439 107.053V103.263H142.651C142.128 103.263 141.704 102.839 141.704 102.316C141.704 101.793 142.128 101.369 142.651 101.369H146.439V97.5794C146.439 97.0562 146.863 96.6322 147.386 96.6322Z" fill="#FF7A27"/>
<path d="M124.986 143.182V181H119.261V148.906H119.04L109.991 154.815V149.349L119.428 143.182H124.986ZM148.382 181.517C145.846 181.517 143.581 181.08 141.587 180.206C139.605 179.332 138.035 178.119 136.878 176.568C135.733 175.005 135.117 173.195 135.031 171.139H140.83C140.903 172.259 141.279 173.232 141.956 174.057C142.645 174.869 143.544 175.497 144.652 175.94C145.76 176.384 146.991 176.605 148.345 176.605C149.835 176.605 151.152 176.347 152.297 175.83C153.454 175.312 154.359 174.592 155.011 173.669C155.664 172.733 155.99 171.656 155.99 170.438C155.99 169.17 155.664 168.055 155.011 167.095C154.371 166.123 153.429 165.359 152.186 164.805C150.955 164.251 149.465 163.974 147.717 163.974H144.523V159.321H147.717C149.121 159.321 150.352 159.069 151.411 158.564C152.482 158.059 153.319 157.357 153.922 156.459C154.525 155.548 154.827 154.483 154.827 153.264C154.827 152.095 154.562 151.079 154.033 150.217C153.516 149.343 152.777 148.66 151.817 148.168C150.869 147.675 149.749 147.429 148.456 147.429C147.225 147.429 146.074 147.657 145.003 148.112C143.944 148.555 143.082 149.196 142.418 150.033C141.753 150.857 141.396 151.848 141.347 153.006H135.825C135.887 150.962 136.49 149.165 137.635 147.614C138.792 146.062 140.319 144.85 142.214 143.976C144.11 143.102 146.215 142.665 148.53 142.665C150.955 142.665 153.048 143.139 154.808 144.087C156.581 145.022 157.947 146.272 158.908 147.835C159.88 149.399 160.36 151.11 160.348 152.969C160.36 155.086 159.769 156.884 158.575 158.361C157.393 159.838 155.818 160.829 153.848 161.334V161.629C156.359 162.011 158.304 163.008 159.683 164.621C161.074 166.233 161.764 168.234 161.751 170.622C161.764 172.703 161.185 174.568 160.016 176.217C158.858 177.867 157.277 179.166 155.27 180.114C153.263 181.049 150.967 181.517 148.382 181.517ZM181.935 181.517C180.248 181.492 178.586 181.185 176.949 180.594C175.324 180.003 173.847 179.018 172.517 177.639C171.188 176.26 170.123 174.408 169.322 172.081C168.535 169.754 168.141 166.849 168.141 163.365C168.141 160.066 168.467 157.136 169.119 154.575C169.784 152.015 170.738 149.854 171.982 148.094C173.225 146.321 174.727 144.973 176.487 144.05C178.248 143.126 180.223 142.665 182.415 142.665C184.668 142.665 186.668 143.108 188.416 143.994C190.164 144.881 191.58 146.106 192.663 147.669C193.759 149.232 194.455 151.011 194.75 153.006H189.118C188.736 151.43 187.979 150.143 186.847 149.146C185.714 148.149 184.237 147.651 182.415 147.651C179.645 147.651 177.484 148.857 175.933 151.27C174.394 153.683 173.619 157.037 173.607 161.334H173.884C174.536 160.263 175.336 159.352 176.284 158.601C177.244 157.838 178.315 157.253 179.497 156.847C180.691 156.428 181.947 156.219 183.264 156.219C185.455 156.219 187.438 156.754 189.21 157.825C190.995 158.884 192.417 160.349 193.476 162.22C194.535 164.091 195.064 166.233 195.064 168.646C195.064 171.059 194.516 173.244 193.42 175.202C192.337 177.159 190.811 178.71 188.841 179.855C186.871 180.988 184.569 181.542 181.935 181.517ZM181.916 176.716C183.369 176.716 184.668 176.359 185.812 175.645C186.957 174.931 187.862 173.971 188.527 172.764C189.192 171.558 189.524 170.21 189.524 168.72C189.524 167.268 189.198 165.944 188.545 164.75C187.905 163.556 187.019 162.608 185.886 161.906C184.766 161.205 183.486 160.854 182.045 160.854C180.95 160.854 179.934 161.063 178.999 161.482C178.075 161.9 177.263 162.479 176.561 163.217C175.859 163.956 175.305 164.805 174.899 165.766C174.505 166.714 174.308 167.717 174.308 168.776C174.308 170.191 174.634 171.502 175.287 172.709C175.952 173.915 176.857 174.888 178.001 175.626C179.159 176.353 180.464 176.716 181.916 176.716Z" fill="black"/>
<path d="M118.006 213.545V231H115.585L106.713 218.199H106.551V231H103.918V213.545H106.355L115.236 226.364H115.398V213.545H118.006ZM127.285 231.264C125.995 231.264 124.884 230.989 123.952 230.438C123.026 229.881 122.31 229.099 121.805 228.094C121.305 227.082 121.055 225.898 121.055 224.54C121.055 223.199 121.305 222.017 121.805 220.994C122.31 219.972 123.015 219.173 123.918 218.599C124.827 218.026 125.89 217.739 127.106 217.739C127.844 217.739 128.56 217.861 129.254 218.105C129.947 218.349 130.569 218.733 131.12 219.256C131.671 219.778 132.106 220.457 132.424 221.293C132.742 222.122 132.901 223.131 132.901 224.318V225.222H122.495V223.312H130.404C130.404 222.642 130.268 222.048 129.995 221.531C129.722 221.009 129.339 220.597 128.844 220.295C128.356 219.994 127.782 219.844 127.123 219.844C126.407 219.844 125.782 220.02 125.248 220.372C124.719 220.719 124.31 221.173 124.021 221.736C123.737 222.293 123.594 222.898 123.594 223.551V225.043C123.594 225.918 123.748 226.662 124.055 227.276C124.367 227.889 124.802 228.358 125.359 228.682C125.915 229 126.566 229.159 127.31 229.159C127.793 229.159 128.234 229.091 128.631 228.955C129.029 228.812 129.373 228.602 129.663 228.324C129.952 228.045 130.174 227.702 130.327 227.293L132.739 227.727C132.546 228.437 132.2 229.06 131.7 229.594C131.205 230.122 130.583 230.534 129.833 230.83C129.089 231.119 128.239 231.264 127.285 231.264ZM138.543 231L134.691 217.909H137.325L139.89 227.523H140.018L142.592 217.909H145.225L147.782 227.48H147.91L150.458 217.909H153.092L149.248 231H146.648L143.989 221.548H143.793L141.134 231H138.543ZM161.205 215.812V213.545H174.714V215.812H169.268V231H166.643V215.812H161.205ZM179.523 231.29C178.693 231.29 177.943 231.136 177.273 230.83C176.602 230.517 176.071 230.065 175.679 229.474C175.293 228.884 175.099 228.159 175.099 227.301C175.099 226.562 175.241 225.955 175.526 225.477C175.81 225 176.193 224.622 176.676 224.344C177.159 224.065 177.699 223.855 178.295 223.713C178.892 223.571 179.5 223.463 180.119 223.389C180.903 223.298 181.54 223.224 182.028 223.168C182.517 223.105 182.872 223.006 183.094 222.869C183.315 222.733 183.426 222.511 183.426 222.205V222.145C183.426 221.401 183.216 220.824 182.795 220.415C182.381 220.006 181.761 219.801 180.938 219.801C180.08 219.801 179.403 219.991 178.909 220.372C178.42 220.747 178.082 221.165 177.895 221.625L175.5 221.08C175.784 220.284 176.199 219.642 176.744 219.153C177.295 218.659 177.929 218.301 178.645 218.08C179.361 217.852 180.114 217.739 180.903 217.739C181.426 217.739 181.98 217.801 182.565 217.926C183.156 218.045 183.707 218.267 184.219 218.591C184.736 218.915 185.159 219.378 185.489 219.98C185.818 220.577 185.983 221.352 185.983 222.307V231H183.494V229.21H183.392C183.227 229.54 182.98 229.864 182.651 230.182C182.321 230.5 181.898 230.764 181.381 230.974C180.864 231.185 180.244 231.29 179.523 231.29ZM180.077 229.244C180.781 229.244 181.384 229.105 181.884 228.827C182.389 228.548 182.773 228.185 183.034 227.736C183.301 227.281 183.435 226.795 183.435 226.278V224.591C183.344 224.682 183.168 224.767 182.906 224.847C182.651 224.92 182.358 224.986 182.028 225.043C181.699 225.094 181.378 225.142 181.065 225.188C180.753 225.227 180.491 225.261 180.281 225.29C179.787 225.352 179.335 225.457 178.926 225.605C178.523 225.753 178.199 225.966 177.955 226.244C177.716 226.517 177.597 226.881 177.597 227.335C177.597 227.966 177.83 228.443 178.295 228.767C178.761 229.085 179.355 229.244 180.077 229.244ZM199.187 221.105L196.877 221.514C196.781 221.219 196.627 220.937 196.417 220.67C196.212 220.403 195.934 220.185 195.582 220.014C195.229 219.844 194.789 219.759 194.261 219.759C193.539 219.759 192.937 219.92 192.454 220.244C191.971 220.562 191.729 220.974 191.729 221.48C191.729 221.918 191.891 222.27 192.215 222.537C192.539 222.804 193.062 223.023 193.783 223.193L195.863 223.67C197.067 223.949 197.965 224.378 198.556 224.957C199.147 225.537 199.442 226.29 199.442 227.216C199.442 228 199.215 228.699 198.761 229.312C198.312 229.92 197.684 230.398 196.877 230.744C196.076 231.091 195.147 231.264 194.09 231.264C192.624 231.264 191.428 230.952 190.502 230.327C189.576 229.696 189.008 228.801 188.798 227.642L191.261 227.267C191.414 227.909 191.729 228.395 192.207 228.724C192.684 229.048 193.306 229.21 194.073 229.21C194.908 229.21 195.576 229.037 196.076 228.69C196.576 228.338 196.826 227.909 196.826 227.403C196.826 226.994 196.673 226.651 196.366 226.372C196.065 226.094 195.602 225.884 194.977 225.741L192.761 225.256C191.539 224.977 190.636 224.534 190.05 223.926C189.471 223.318 189.181 222.548 189.181 221.616C189.181 220.844 189.397 220.168 189.829 219.588C190.261 219.009 190.857 218.557 191.619 218.233C192.38 217.903 193.252 217.739 194.235 217.739C195.65 217.739 196.763 218.045 197.576 218.659C198.388 219.267 198.925 220.082 199.187 221.105ZM204.588 226.56L204.571 223.449H205.014L210.23 217.909H213.281L207.332 224.216H206.932L204.588 226.56ZM202.244 231V213.545H204.793V231H202.244ZM210.511 231L205.824 224.778L207.58 222.997L213.639 231H210.511Z" fill="black"/>
</svg>
