<svg width="380" height="376" viewBox="0 0 380 376" fill="none" xmlns="http://www.w3.org/2000/svg">
<g clip-path="url(#clip0_5341_5602)" filter="url(#filter0_d_5341_5602)">
<rect width="360" height="356" transform="translate(10 8)" fill="white"/>
<path d="M31.598 36.4545H34.2614L38.892 47.7614H39.0625L43.6932 36.4545H46.3565V51H44.2685V40.4744H44.1335L39.8438 50.9787H38.1108L33.821 40.4673H33.6861V51H31.598V36.4545ZM54.1219 51.2202C53.0992 51.2202 52.2067 50.9858 51.4444 50.517C50.6821 50.0483 50.0902 49.3925 49.6688 48.5497C49.2474 47.7069 49.0367 46.7221 49.0367 45.5952C49.0367 44.4635 49.2474 43.474 49.6688 42.6264C50.0902 41.7789 50.6821 41.1207 51.4444 40.652C52.2067 40.1832 53.0992 39.9489 54.1219 39.9489C55.1447 39.9489 56.0372 40.1832 56.7995 40.652C57.5618 41.1207 58.1537 41.7789 58.5751 42.6264C58.9965 43.474 59.2072 44.4635 59.2072 45.5952C59.2072 46.7221 58.9965 47.7069 58.5751 48.5497C58.1537 49.3925 57.5618 50.0483 56.7995 50.517C56.0372 50.9858 55.1447 51.2202 54.1219 51.2202ZM54.129 49.4375C54.7919 49.4375 55.3412 49.2623 55.7768 48.9119C56.2124 48.5616 56.5344 48.0952 56.7427 47.5128C56.9558 46.9304 57.0623 46.2888 57.0623 45.5881C57.0623 44.892 56.9558 44.2528 56.7427 43.6705C56.5344 43.0833 56.2124 42.6122 55.7768 42.2571C55.3412 41.902 54.7919 41.7244 54.129 41.7244C53.4614 41.7244 52.9075 41.902 52.4671 42.2571C52.0315 42.6122 51.7072 43.0833 51.4941 43.6705C51.2858 44.2528 51.1816 44.892 51.1816 45.5881C51.1816 46.2888 51.2858 46.9304 51.4941 47.5128C51.7072 48.0952 52.0315 48.5616 52.4671 48.9119C52.9075 49.2623 53.4614 49.4375 54.129 49.4375ZM63.8511 44.5227V51H61.7276V40.0909H63.7659V41.8665H63.9009C64.1518 41.2888 64.5448 40.8248 65.0798 40.4744C65.6196 40.1241 66.2991 39.9489 67.1182 39.9489C67.8616 39.9489 68.5126 40.1051 69.0713 40.4176C69.63 40.7254 70.0633 41.1847 70.371 41.7955C70.6788 42.4062 70.8327 43.1615 70.8327 44.0611V51H68.7091V44.3168C68.7091 43.526 68.5031 42.9081 68.0912 42.4631C67.6793 42.0133 67.1134 41.7884 66.3937 41.7884C65.9013 41.7884 65.4634 41.8949 65.0798 42.108C64.701 42.321 64.4004 42.6335 64.1778 43.0455C63.96 43.4527 63.8511 43.9451 63.8511 44.5227ZM78.923 40.0909V41.7955H72.9642V40.0909H78.923ZM74.5622 37.4773H76.6858V47.7969C76.6858 48.2088 76.7473 48.5189 76.8705 48.7273C76.9936 48.9309 77.1522 49.0705 77.3463 49.1463C77.5452 49.2173 77.7606 49.2528 77.9926 49.2528C78.1631 49.2528 78.3122 49.241 78.4401 49.2173C78.5679 49.1937 78.6673 49.1747 78.7384 49.1605L79.1219 50.9148C78.9988 50.9621 78.8236 51.0095 78.5963 51.0568C78.369 51.1089 78.0849 51.1373 77.744 51.142C77.1853 51.1515 76.6645 51.0521 76.1815 50.8438C75.6986 50.6354 75.308 50.3134 75.0097 49.8778C74.7114 49.4422 74.5622 48.8954 74.5622 48.2372V37.4773ZM83.78 44.5227V51H81.6565V36.4545H83.7516V41.8665H83.8866C84.1423 41.2794 84.5329 40.813 85.0585 40.4673C85.584 40.1217 86.2706 39.9489 87.1181 39.9489C87.8662 39.9489 88.5196 40.1027 89.0783 40.4105C89.6418 40.7183 90.0774 41.1776 90.3852 41.7884C90.6977 42.3944 90.8539 43.152 90.8539 44.0611V51H88.7303V44.3168C88.7303 43.5166 88.5244 42.8963 88.1124 42.456C87.7005 42.0109 87.1276 41.7884 86.3937 41.7884C85.8918 41.7884 85.442 41.8949 85.0442 42.108C84.6513 42.321 84.3411 42.6335 84.1138 43.0455C83.8913 43.4527 83.78 43.9451 83.78 44.5227ZM95.9613 36.4545V51H93.8377V36.4545H95.9613ZM100.311 55.0909C99.9933 55.0909 99.7045 55.0649 99.444 55.0128C99.1836 54.9654 98.9895 54.9134 98.8616 54.8565L99.373 53.1165C99.7613 53.2206 100.107 53.2656 100.41 53.2514C100.713 53.2372 100.98 53.1236 101.213 52.9105C101.449 52.6974 101.658 52.3494 101.838 51.8665L102.1 51.142L98.1088 40.0909H100.382L103.144 48.5568H103.258L106.021 40.0909H108.301L103.805 52.456C103.596 53.0241 103.331 53.5047 103.009 53.8977C102.687 54.2955 102.304 54.5938 101.859 54.7926C101.414 54.9915 100.898 55.0909 100.311 55.0909ZM116.06 51V36.4545H121.386C122.419 36.4545 123.273 36.625 123.95 36.9659C124.627 37.3021 125.134 37.759 125.47 38.3366C125.806 38.9096 125.975 39.5559 125.975 40.2756C125.975 40.8816 125.863 41.393 125.641 41.8097C125.418 42.2216 125.12 42.553 124.746 42.804C124.376 43.0502 123.969 43.2301 123.524 43.3438V43.4858C124.007 43.5095 124.478 43.6657 124.938 43.9545C125.402 44.2386 125.785 44.6435 126.088 45.169C126.391 45.6946 126.543 46.3338 126.543 47.0866C126.543 47.83 126.367 48.4976 126.017 49.0895C125.671 49.6766 125.136 50.143 124.412 50.4886C123.688 50.8295 122.762 51 121.635 51H116.06ZM118.254 49.1179H121.422C122.473 49.1179 123.226 48.9143 123.68 48.5071C124.135 48.0999 124.362 47.5909 124.362 46.9801C124.362 46.5208 124.246 46.0994 124.014 45.7159C123.782 45.3324 123.451 45.027 123.02 44.7997C122.594 44.5724 122.087 44.4588 121.5 44.4588H118.254V49.1179ZM118.254 42.7472H121.195C121.687 42.7472 122.13 42.6525 122.523 42.4631C122.921 42.2737 123.235 42.0085 123.467 41.6676C123.704 41.322 123.823 40.9148 123.823 40.446C123.823 39.8447 123.612 39.3404 123.19 38.9332C122.769 38.526 122.123 38.3224 121.251 38.3224H118.254V42.7472ZM136.036 46.4759V40.0909H138.166V51H136.078V49.1108H135.965C135.714 49.6932 135.311 50.1785 134.757 50.5668C134.208 50.9503 133.524 51.142 132.705 51.142C132.004 51.142 131.384 50.9882 130.844 50.6804C130.309 50.3679 129.888 49.9062 129.58 49.2955C129.277 48.6847 129.125 47.9295 129.125 47.0298V40.0909H131.249V46.7741C131.249 47.5175 131.455 48.1094 131.867 48.5497C132.279 48.9901 132.814 49.2102 133.472 49.2102C133.87 49.2102 134.265 49.1108 134.658 48.9119C135.056 48.7131 135.385 48.4124 135.645 48.0099C135.91 47.6075 136.04 47.0961 136.036 46.4759ZM145.254 51.2131C144.373 51.2131 143.587 50.9882 142.896 50.5384C142.209 50.0838 141.669 49.4375 141.276 48.5994C140.888 47.7566 140.694 46.7457 140.694 45.5668C140.694 44.3878 140.89 43.3793 141.283 42.5412C141.681 41.7031 142.226 41.0616 142.917 40.6165C143.608 40.1714 144.392 39.9489 145.268 39.9489C145.945 39.9489 146.489 40.0625 146.901 40.2898C147.318 40.5123 147.64 40.7727 147.867 41.071C148.099 41.3693 148.279 41.6321 148.407 41.8594H148.535V36.4545H150.658V51H148.585V49.3026H148.407C148.279 49.5346 148.094 49.7997 147.853 50.098C147.616 50.3963 147.29 50.6567 146.873 50.8793C146.456 51.1018 145.916 51.2131 145.254 51.2131ZM145.722 49.402C146.333 49.402 146.849 49.241 147.271 48.919C147.697 48.5923 148.019 48.1402 148.237 47.5625C148.459 46.9848 148.57 46.3125 148.57 45.5455C148.57 44.7879 148.461 44.125 148.244 43.5568C148.026 42.9886 147.706 42.5459 147.285 42.2287C146.863 41.9115 146.343 41.7528 145.722 41.7528C145.083 41.7528 144.55 41.9186 144.124 42.25C143.698 42.5814 143.376 43.0336 143.158 43.6065C142.945 44.1795 142.839 44.8258 142.839 45.5455C142.839 46.2746 142.948 46.9304 143.165 47.5128C143.383 48.0952 143.705 48.5568 144.131 48.8977C144.562 49.2339 145.093 49.402 145.722 49.402ZM158.413 55.3182C157.547 55.3182 156.801 55.2045 156.176 54.9773C155.556 54.75 155.049 54.4493 154.656 54.0753C154.263 53.7012 153.969 53.2917 153.775 52.8466L155.601 52.0938C155.728 52.3021 155.899 52.5223 156.112 52.7543C156.33 52.991 156.623 53.1922 156.993 53.358C157.367 53.5237 157.847 53.6065 158.434 53.6065C159.239 53.6065 159.905 53.41 160.43 53.017C160.956 52.6288 161.219 52.0085 161.219 51.1562V49.0114H161.084C160.956 49.2434 160.771 49.5014 160.53 49.7855C160.293 50.0696 159.966 50.3158 159.55 50.5241C159.133 50.7325 158.591 50.8366 157.923 50.8366C157.061 50.8366 156.285 50.6354 155.594 50.233C154.907 49.8258 154.362 49.2268 153.96 48.4361C153.562 47.6406 153.363 46.6629 153.363 45.5028C153.363 44.3428 153.56 43.3485 153.953 42.5199C154.351 41.6913 154.895 41.0568 155.586 40.6165C156.278 40.1714 157.061 39.9489 157.937 39.9489C158.614 39.9489 159.161 40.0625 159.578 40.2898C159.995 40.5123 160.319 40.7727 160.551 41.071C160.788 41.3693 160.97 41.6321 161.098 41.8594H161.254V40.0909H163.335V51.2415C163.335 52.179 163.117 52.9484 162.682 53.5497C162.246 54.151 161.657 54.5961 160.913 54.8849C160.175 55.1738 159.341 55.3182 158.413 55.3182ZM158.392 49.0753C159.003 49.0753 159.519 48.9332 159.94 48.6491C160.366 48.3603 160.688 47.9484 160.906 47.4134C161.129 46.8736 161.24 46.2273 161.24 45.4744C161.24 44.7405 161.131 44.0942 160.913 43.5355C160.695 42.9768 160.376 42.5412 159.954 42.2287C159.533 41.9115 159.012 41.7528 158.392 41.7528C157.753 41.7528 157.22 41.9186 156.794 42.25C156.368 42.5767 156.046 43.0218 155.828 43.5852C155.615 44.1487 155.508 44.7784 155.508 45.4744C155.508 46.1894 155.617 46.8168 155.835 47.3565C156.053 47.8963 156.375 48.3177 156.801 48.6207C157.232 48.9238 157.762 49.0753 158.392 49.0753ZM171.035 51.2202C169.96 51.2202 169.034 50.9905 168.258 50.5312C167.486 50.0672 166.889 49.4162 166.468 48.5781C166.051 47.7353 165.843 46.7481 165.843 45.6165C165.843 44.4991 166.051 43.5142 166.468 42.6619C166.889 41.8097 167.476 41.1444 168.229 40.6662C168.987 40.188 169.872 39.9489 170.886 39.9489C171.501 39.9489 172.098 40.0507 172.675 40.2543C173.253 40.4579 173.771 40.7775 174.231 41.2131C174.69 41.6487 175.052 42.2145 175.317 42.9105C175.583 43.6018 175.715 44.4422 175.715 45.4318V46.1847H167.043V44.5938H173.634C173.634 44.035 173.521 43.5402 173.293 43.1094C173.066 42.6738 172.746 42.3305 172.334 42.0795C171.927 41.8286 171.449 41.7031 170.9 41.7031C170.303 41.7031 169.782 41.8499 169.337 42.1435C168.897 42.4323 168.556 42.8111 168.315 43.2798C168.078 43.7438 167.959 44.2481 167.959 44.7926V46.0355C167.959 46.7647 168.087 47.3849 168.343 47.8963C168.603 48.4077 168.966 48.7983 169.43 49.0682C169.894 49.3333 170.436 49.4659 171.056 49.4659C171.459 49.4659 171.825 49.4091 172.157 49.2955C172.488 49.1771 172.775 49.0019 173.016 48.7699C173.258 48.5379 173.442 48.2514 173.57 47.9105L175.58 48.2727C175.419 48.8646 175.13 49.383 174.714 49.8281C174.302 50.2685 173.783 50.6117 173.158 50.858C172.538 51.0994 171.83 51.2202 171.035 51.2202ZM183.314 40.0909V41.7955H177.355V40.0909H183.314ZM178.953 37.4773H181.076V47.7969C181.076 48.2088 181.138 48.5189 181.261 48.7273C181.384 48.9309 181.543 49.0705 181.737 49.1463C181.936 49.2173 182.151 49.2528 182.383 49.2528C182.554 49.2528 182.703 49.241 182.831 49.2173C182.959 49.1937 183.058 49.1747 183.129 49.1605L183.512 50.9148C183.389 50.9621 183.214 51.0095 182.987 51.0568C182.76 51.1089 182.476 51.1373 182.135 51.142C181.576 51.1515 181.055 51.0521 180.572 50.8438C180.089 50.6354 179.699 50.3134 179.4 49.8778C179.102 49.4422 178.953 48.8954 178.953 48.2372V37.4773Z" fill="#4C4E64" fill-opacity="0.87"/>
<path d="M338 36C339.1 36 340 35.1 340 34C340 32.9 339.1 32 338 32C336.9 32 336 32.9 336 34C336 35.1 336.9 36 338 36ZM338 38C336.9 38 336 38.9 336 40C336 41.1 336.9 42 338 42C339.1 42 340 41.1 340 40C340 38.9 339.1 38 338 38ZM338 44C336.9 44 336 44.9 336 46C336 47.1 336.9 48 338 48C339.1 48 340 47.1 340 46C340 44.9 339.1 44 338 44Z" fill="#4C4E64" fill-opacity="0.54"/>
<path d="M97.6774 224.366C72.8975 194.838 48.9008 236.669 40 261.275H338V80.2754C333.728 109.851 319.308 162.187 295.81 134.93C266.437 100.86 267.505 151.256 247.211 189.585C226.918 227.915 210.896 224.366 191.136 205.911C171.376 187.456 161.763 200.232 152.151 224.366C142.538 248.499 128.652 261.275 97.6774 224.366Z" fill="url(#paint0_linear_5341_5602)" fill-opacity="0.3"/>
<path d="M40 261.275C48.9008 236.669 72.8975 194.838 97.6774 224.366C128.652 261.275 142.538 248.499 152.151 224.366C161.763 200.232 171.376 187.456 191.136 205.911C210.896 224.366 226.918 227.915 247.211 189.585C267.505 151.256 266.437 100.86 295.81 134.93C319.308 162.187 333.728 109.851 338 80.2754" stroke="#72E128" stroke-width="5" stroke-linecap="round"/>
<circle cx="336.667" cy="84.2754" r="7" fill="white" stroke="#72E128" stroke-width="4"/>
<path d="M31.233 318V307.818H32.4659V316.906H37.1989V318H31.233ZM41.346 318.179C40.8621 318.179 40.423 318.088 40.0286 317.906C39.6341 317.72 39.3209 317.453 39.0889 317.105C38.8569 316.754 38.7409 316.33 38.7409 315.832C38.7409 315.395 38.8271 315.04 38.9994 314.768C39.1718 314.493 39.4021 314.278 39.6905 314.122C39.9788 313.966 40.297 313.85 40.645 313.774C40.9964 313.695 41.3493 313.632 41.704 313.585C42.168 313.526 42.5442 313.481 42.8325 313.451C43.1242 313.418 43.3363 313.363 43.4689 313.287C43.6048 313.211 43.6727 313.078 43.6727 312.889V312.849C43.6727 312.359 43.5385 311.978 43.27 311.706C43.0049 311.434 42.6022 311.298 42.0619 311.298C41.5018 311.298 41.0626 311.421 40.7445 311.666C40.4263 311.911 40.2026 312.173 40.0733 312.452L38.9597 312.054C39.1585 311.59 39.4237 311.229 39.7551 310.97C40.0899 310.708 40.4545 310.526 40.8489 310.423C41.2466 310.317 41.6377 310.264 42.0222 310.264C42.2674 310.264 42.5491 310.294 42.8673 310.354C43.1888 310.41 43.4987 310.528 43.797 310.707C44.0986 310.886 44.3489 311.156 44.5477 311.517C44.7466 311.878 44.846 312.362 44.846 312.969V318H43.6727V316.966H43.6131C43.5335 317.132 43.4009 317.309 43.2153 317.498C43.0297 317.687 42.7828 317.848 42.4746 317.98C42.1663 318.113 41.7902 318.179 41.346 318.179ZM41.525 317.125C41.989 317.125 42.3801 317.034 42.6983 316.852C43.0198 316.669 43.2617 316.434 43.4241 316.146C43.5899 315.857 43.6727 315.554 43.6727 315.236V314.162C43.623 314.222 43.5136 314.276 43.3446 314.326C43.1789 314.372 42.9866 314.414 42.7679 314.45C42.5525 314.483 42.342 314.513 42.1365 314.54C41.9343 314.563 41.7703 314.583 41.6443 314.599C41.3394 314.639 41.0544 314.704 40.7892 314.793C40.5274 314.879 40.3152 315.01 40.1528 315.186C39.9937 315.358 39.9142 315.594 39.9142 315.892C39.9142 316.3 40.065 316.608 40.3666 316.817C40.6715 317.022 41.0577 317.125 41.525 317.125ZM52.5466 312.074L51.4926 312.372C51.4264 312.196 51.3286 312.026 51.1993 311.86C51.0734 311.691 50.901 311.552 50.6823 311.442C50.4635 311.333 50.1835 311.278 49.8421 311.278C49.3748 311.278 48.9853 311.386 48.6738 311.602C48.3655 311.814 48.2114 312.084 48.2114 312.412C48.2114 312.704 48.3175 312.934 48.5296 313.103C48.7417 313.272 49.0731 313.413 49.5239 313.526L50.6574 313.804C51.3402 313.97 51.8489 314.223 52.1837 314.565C52.5185 314.903 52.6858 315.339 52.6858 315.872C52.6858 316.31 52.5599 316.701 52.308 317.045C52.0594 317.39 51.7114 317.662 51.264 317.861C50.8165 318.06 50.2962 318.159 49.7029 318.159C48.924 318.159 48.2793 317.99 47.7689 317.652C47.2585 317.314 46.9354 316.82 46.7995 316.17L47.9131 315.892C48.0192 316.303 48.2197 316.611 48.5147 316.817C48.813 317.022 49.2024 317.125 49.683 317.125C50.2299 317.125 50.6641 317.009 50.9855 316.777C51.3104 316.542 51.4728 316.26 51.4728 315.932C51.4728 315.667 51.38 315.445 51.1944 315.266C51.0087 315.083 50.7237 314.947 50.3392 314.858L49.0665 314.56C48.3672 314.394 47.8534 314.137 47.5253 313.789C47.2005 313.438 47.0381 312.999 47.0381 312.472C47.0381 312.041 47.1591 311.66 47.401 311.328C47.6463 310.997 47.9794 310.737 48.4003 310.548C48.8246 310.359 49.3051 310.264 49.8421 310.264C50.5978 310.264 51.191 310.43 51.6219 310.761C52.0561 311.093 52.3643 311.53 52.5466 312.074ZM57.923 310.364V311.358H53.9656V310.364H57.923ZM55.119 308.534H56.2923V315.812C56.2923 316.144 56.3404 316.393 56.4365 316.558C56.5359 316.721 56.6619 316.83 56.8143 316.886C56.9701 316.939 57.1342 316.966 57.3065 316.966C57.4358 316.966 57.5419 316.959 57.6247 316.946C57.7076 316.929 57.7739 316.916 57.8236 316.906L58.0622 317.96C57.9827 317.99 57.8716 318.02 57.7291 318.05C57.5866 318.083 57.406 318.099 57.1872 318.099C56.8558 318.099 56.531 318.028 56.2128 317.886C55.8979 317.743 55.6361 317.526 55.4273 317.234C55.2218 316.943 55.119 316.575 55.119 316.131V308.534ZM63.9254 318V310.364H65.0589V311.557H65.1584C65.3175 311.149 65.5743 310.833 65.929 310.607C66.2836 310.379 66.7095 310.264 67.2067 310.264C67.7105 310.264 68.1297 310.379 68.4645 310.607C68.8026 310.833 69.0661 311.149 69.255 311.557H69.3345C69.5301 311.162 69.8234 310.849 70.2145 310.617C70.6056 310.382 71.0746 310.264 71.6214 310.264C72.3042 310.264 72.8627 310.478 73.2969 310.906C73.7311 311.33 73.9482 311.991 73.9482 312.889V318H72.7749V312.889C72.7749 312.326 72.6207 311.923 72.3125 311.681C72.0043 311.439 71.6413 311.318 71.2237 311.318C70.6868 311.318 70.2708 311.481 69.9759 311.805C69.6809 312.127 69.5334 312.535 69.5334 313.028V318H68.3402V312.77C68.3402 312.336 68.1993 311.986 67.9176 311.721C67.6359 311.452 67.273 311.318 66.8288 311.318C66.5239 311.318 66.2389 311.399 65.9737 311.562C65.7119 311.724 65.4998 311.95 65.3374 312.238C65.1783 312.523 65.0987 312.853 65.0987 313.227V318H63.9254ZM79.3457 318.159C78.6563 318.159 78.0514 317.995 77.531 317.667C77.014 317.339 76.6096 316.88 76.318 316.29C76.0296 315.7 75.8854 315.01 75.8854 314.222C75.8854 313.426 76.0296 312.732 76.318 312.138C76.6096 311.545 77.014 311.085 77.531 310.756C78.0514 310.428 78.6563 310.264 79.3457 310.264C80.0351 310.264 80.6383 310.428 81.1553 310.756C81.6757 311.085 82.08 311.545 82.3684 312.138C82.6601 312.732 82.8059 313.426 82.8059 314.222C82.8059 315.01 82.6601 315.7 82.3684 316.29C82.08 316.88 81.6757 317.339 81.1553 317.667C80.6383 317.995 80.0351 318.159 79.3457 318.159ZM79.3457 317.105C79.8693 317.105 80.3002 316.971 80.6383 316.702C80.9764 316.434 81.2266 316.081 81.389 315.643C81.5514 315.206 81.6326 314.732 81.6326 314.222C81.6326 313.711 81.5514 313.236 81.389 312.795C81.2266 312.354 80.9764 311.998 80.6383 311.726C80.3002 311.454 79.8693 311.318 79.3457 311.318C78.822 311.318 78.3911 311.454 78.0531 311.726C77.715 311.998 77.4648 312.354 77.3023 312.795C77.1399 313.236 77.0587 313.711 77.0587 314.222C77.0587 314.732 77.1399 315.206 77.3023 315.643C77.4648 316.081 77.715 316.434 78.0531 316.702C78.3911 316.971 78.822 317.105 79.3457 317.105ZM85.9202 313.406V318H84.7469V310.364H85.8804V311.557H85.9799C86.1588 311.169 86.4306 310.857 86.7952 310.622C87.1598 310.384 87.6304 310.264 88.2071 310.264C88.7242 310.264 89.1766 310.37 89.5644 310.582C89.9522 310.791 90.2538 311.109 90.4692 311.537C90.6846 311.961 90.7924 312.498 90.7924 313.148V318H89.6191V313.227C89.6191 312.627 89.4633 312.16 89.1517 311.825C88.8402 311.487 88.4126 311.318 87.8691 311.318C87.4945 311.318 87.1598 311.399 86.8648 311.562C86.5731 311.724 86.3428 311.961 86.1738 312.273C86.0047 312.584 85.9202 312.962 85.9202 313.406ZM96.4074 310.364V311.358H92.45V310.364H96.4074ZM93.6034 308.534H94.7767V315.812C94.7767 316.144 94.8248 316.393 94.9209 316.558C95.0203 316.721 95.1463 316.83 95.2987 316.886C95.4545 316.939 95.6186 316.966 95.7909 316.966C95.9202 316.966 96.0262 316.959 96.1091 316.946C96.192 316.929 96.2582 316.916 96.308 316.906L96.5466 317.96C96.467 317.99 96.356 318.02 96.2135 318.05C96.071 318.083 95.8903 318.099 95.6716 318.099C95.3402 318.099 95.0153 318.028 94.6972 317.886C94.3823 317.743 94.1205 317.526 93.9116 317.234C93.7062 316.943 93.6034 316.575 93.6034 316.131V308.534ZM99.6597 313.406V318H98.4864V307.818H99.6597V311.557H99.7591C99.9381 311.162 100.207 310.849 100.564 310.617C100.926 310.382 101.406 310.264 102.006 310.264C102.527 310.264 102.982 310.369 103.373 310.577C103.765 310.783 104.068 311.099 104.283 311.527C104.502 311.951 104.611 312.491 104.611 313.148V318H103.438V313.227C103.438 312.621 103.281 312.152 102.966 311.82C102.654 311.486 102.222 311.318 101.668 311.318C101.284 311.318 100.939 311.399 100.634 311.562C100.332 311.724 100.094 311.961 99.9182 312.273C99.7458 312.584 99.6597 312.962 99.6597 313.406ZM111.751 320.864C111.552 320.864 111.375 320.847 111.219 320.814C111.063 320.784 110.956 320.754 110.896 320.724L111.194 319.69C111.479 319.763 111.731 319.79 111.95 319.77C112.169 319.75 112.363 319.652 112.532 319.477C112.704 319.304 112.861 319.024 113.004 318.636L113.223 318.04L110.399 310.364H111.671L113.779 316.449H113.859L115.967 310.364H117.24L113.998 319.114C113.852 319.508 113.672 319.835 113.456 320.093C113.241 320.355 112.991 320.549 112.706 320.675C112.424 320.801 112.106 320.864 111.751 320.864ZM121.767 318.159C121.078 318.159 120.473 317.995 119.953 317.667C119.435 317.339 119.031 316.88 118.739 316.29C118.451 315.7 118.307 315.01 118.307 314.222C118.307 313.426 118.451 312.732 118.739 312.138C119.031 311.545 119.435 311.085 119.953 310.756C120.473 310.428 121.078 310.264 121.767 310.264C122.457 310.264 123.06 310.428 123.577 310.756C124.097 311.085 124.502 311.545 124.79 312.138C125.082 312.732 125.227 313.426 125.227 314.222C125.227 315.01 125.082 315.7 124.79 316.29C124.502 316.88 124.097 317.339 123.577 317.667C123.06 317.995 122.457 318.159 121.767 318.159ZM121.767 317.105C122.291 317.105 122.722 316.971 123.06 316.702C123.398 316.434 123.648 316.081 123.81 315.643C123.973 315.206 124.054 314.732 124.054 314.222C124.054 313.711 123.973 313.236 123.81 312.795C123.648 312.354 123.398 311.998 123.06 311.726C122.722 311.454 122.291 311.318 121.767 311.318C121.243 311.318 120.813 311.454 120.475 311.726C120.136 311.998 119.886 312.354 119.724 312.795C119.561 313.236 119.48 313.711 119.48 314.222C119.48 314.732 119.561 315.206 119.724 315.643C119.886 316.081 120.136 316.434 120.475 316.702C120.813 316.971 121.243 317.105 121.767 317.105ZM131.981 314.878V310.364H133.154V318H131.981V316.707H131.901C131.722 317.095 131.444 317.425 131.066 317.697C130.688 317.965 130.211 318.099 129.634 318.099C129.157 318.099 128.733 317.995 128.362 317.786C127.99 317.574 127.699 317.256 127.487 316.832C127.274 316.404 127.168 315.866 127.168 315.216V310.364H128.342V315.136C128.342 315.693 128.497 316.137 128.809 316.469C129.124 316.8 129.525 316.966 130.012 316.966C130.304 316.966 130.6 316.891 130.902 316.742C131.207 316.593 131.462 316.364 131.668 316.056C131.876 315.748 131.981 315.355 131.981 314.878ZM140.714 313.406V318H139.541V307.818H140.714V311.557H140.813C140.992 311.162 141.261 310.849 141.619 310.617C141.98 310.382 142.461 310.264 143.061 310.264C143.581 310.264 144.037 310.369 144.428 310.577C144.819 310.783 145.122 311.099 145.338 311.527C145.556 311.951 145.666 312.491 145.666 313.148V318H144.492V313.227C144.492 312.621 144.335 312.152 144.02 311.82C143.709 311.486 143.276 311.318 142.722 311.318C142.338 311.318 141.993 311.399 141.688 311.562C141.387 311.724 141.148 311.961 140.972 312.273C140.8 312.584 140.714 312.962 140.714 313.406ZM150.209 318.179C149.725 318.179 149.286 318.088 148.892 317.906C148.497 317.72 148.184 317.453 147.952 317.105C147.72 316.754 147.604 316.33 147.604 315.832C147.604 315.395 147.69 315.04 147.863 314.768C148.035 314.493 148.265 314.278 148.554 314.122C148.842 313.966 149.16 313.85 149.508 313.774C149.86 313.695 150.213 313.632 150.567 313.585C151.031 313.526 151.407 313.481 151.696 313.451C151.987 313.418 152.2 313.363 152.332 313.287C152.468 313.211 152.536 313.078 152.536 312.889V312.849C152.536 312.359 152.402 311.978 152.133 311.706C151.868 311.434 151.465 311.298 150.925 311.298C150.365 311.298 149.926 311.421 149.608 311.666C149.29 311.911 149.066 312.173 148.937 312.452L147.823 312.054C148.022 311.59 148.287 311.229 148.618 310.97C148.953 310.708 149.318 310.526 149.712 310.423C150.11 310.317 150.501 310.264 150.885 310.264C151.131 310.264 151.412 310.294 151.731 310.354C152.052 310.41 152.362 310.528 152.66 310.707C152.962 310.886 153.212 311.156 153.411 311.517C153.61 311.878 153.709 312.362 153.709 312.969V318H152.536V316.966H152.476C152.397 317.132 152.264 317.309 152.079 317.498C151.893 317.687 151.646 317.848 151.338 317.98C151.03 318.113 150.653 318.179 150.209 318.179ZM150.388 317.125C150.852 317.125 151.243 317.034 151.562 316.852C151.883 316.669 152.125 316.434 152.287 316.146C152.453 315.857 152.536 315.554 152.536 315.236V314.162C152.486 314.222 152.377 314.276 152.208 314.326C152.042 314.372 151.85 314.414 151.631 314.45C151.416 314.483 151.205 314.513 151 314.54C150.798 314.563 150.634 314.583 150.508 314.599C150.203 314.639 149.918 314.704 149.652 314.793C149.391 314.879 149.179 315.01 149.016 315.186C148.857 315.358 148.777 315.594 148.777 315.892C148.777 316.3 148.928 316.608 149.23 316.817C149.535 317.022 149.921 317.125 150.388 317.125ZM158.884 318.159C158.248 318.159 157.686 317.998 157.199 317.677C156.712 317.352 156.331 316.895 156.056 316.305C155.78 315.711 155.643 315.01 155.643 314.202C155.643 313.4 155.78 312.704 156.056 312.114C156.331 311.524 156.713 311.068 157.204 310.746C157.694 310.425 158.261 310.264 158.904 310.264C159.401 310.264 159.794 310.347 160.082 310.513C160.374 310.675 160.596 310.861 160.749 311.07C160.904 311.275 161.025 311.444 161.112 311.577H161.211V307.818H162.384V318H161.251V316.827H161.112C161.025 316.966 160.903 317.142 160.744 317.354C160.585 317.562 160.358 317.75 160.063 317.915C159.768 318.078 159.375 318.159 158.884 318.159ZM159.043 317.105C159.514 317.105 159.912 316.982 160.237 316.737C160.561 316.489 160.808 316.146 160.977 315.708C161.146 315.267 161.231 314.759 161.231 314.182C161.231 313.612 161.148 313.113 160.982 312.685C160.817 312.254 160.571 311.92 160.247 311.681C159.922 311.439 159.521 311.318 159.043 311.318C158.546 311.318 158.132 311.446 157.801 311.701C157.472 311.953 157.225 312.296 157.06 312.73C156.897 313.161 156.816 313.645 156.816 314.182C156.816 314.725 156.899 315.219 157.065 315.663C157.234 316.104 157.482 316.455 157.81 316.717C158.142 316.976 158.553 317.105 159.043 317.105ZM171.917 319.273V306.545H172.732V319.273H171.917ZM174.661 310.364C174.601 309.86 174.359 309.469 173.935 309.19C173.511 308.912 172.99 308.773 172.374 308.773C171.923 308.773 171.529 308.846 171.191 308.991C170.856 309.137 170.594 309.338 170.405 309.593C170.22 309.848 170.127 310.138 170.127 310.463C170.127 310.735 170.191 310.969 170.321 311.164C170.453 311.356 170.622 311.517 170.828 311.646C171.033 311.772 171.249 311.877 171.474 311.96C171.699 312.039 171.907 312.104 172.096 312.153L173.13 312.432C173.395 312.501 173.69 312.598 174.015 312.72C174.343 312.843 174.656 313.01 174.954 313.222C175.256 313.431 175.504 313.7 175.7 314.028C175.896 314.356 175.993 314.759 175.993 315.236C175.993 315.786 175.849 316.283 175.561 316.727C175.276 317.171 174.858 317.524 174.308 317.786C173.761 318.048 173.097 318.179 172.314 318.179C171.585 318.179 170.954 318.061 170.42 317.826C169.89 317.591 169.472 317.263 169.167 316.842C168.866 316.421 168.695 315.932 168.655 315.375H169.928C169.961 315.759 170.09 316.078 170.316 316.33C170.544 316.578 170.833 316.764 171.181 316.886C171.532 317.006 171.91 317.065 172.314 317.065C172.785 317.065 173.208 316.989 173.582 316.837C173.957 316.681 174.253 316.465 174.472 316.19C174.691 315.912 174.8 315.587 174.8 315.216C174.8 314.878 174.706 314.603 174.517 314.391C174.328 314.179 174.079 314.006 173.771 313.874C173.463 313.741 173.13 313.625 172.772 313.526L171.519 313.168C170.723 312.939 170.094 312.612 169.63 312.188C169.166 311.764 168.934 311.209 168.934 310.523C168.934 309.953 169.088 309.455 169.396 309.031C169.708 308.604 170.125 308.272 170.649 308.037C171.176 307.798 171.764 307.679 172.414 307.679C173.07 307.679 173.653 307.797 174.164 308.032C174.674 308.264 175.079 308.582 175.377 308.987C175.678 309.391 175.838 309.85 175.854 310.364H174.661ZM177.991 318V317.105L181.352 313.426C181.747 312.995 182.071 312.621 182.327 312.303C182.582 311.981 182.771 311.679 182.893 311.398C183.019 311.113 183.082 310.814 183.082 310.503C183.082 310.145 182.996 309.835 182.824 309.573C182.655 309.311 182.423 309.109 182.128 308.967C181.833 308.824 181.501 308.753 181.134 308.753C180.742 308.753 180.401 308.834 180.109 308.996C179.821 309.156 179.597 309.379 179.438 309.668C179.282 309.956 179.205 310.294 179.205 310.682H178.031C178.031 310.085 178.169 309.562 178.444 309.111C178.719 308.66 179.094 308.309 179.567 308.057C180.045 307.805 180.58 307.679 181.173 307.679C181.77 307.679 182.299 307.805 182.759 308.057C183.22 308.309 183.581 308.648 183.843 309.076C184.105 309.504 184.236 309.979 184.236 310.503C184.236 310.877 184.168 311.244 184.032 311.602C183.899 311.956 183.667 312.352 183.336 312.79C183.008 313.224 182.552 313.754 181.969 314.381L179.682 316.827V316.906H184.415V318H177.991ZM187.493 318.08C187.248 318.08 187.037 317.992 186.862 317.816C186.686 317.64 186.598 317.43 186.598 317.185C186.598 316.939 186.686 316.729 186.862 316.553C187.037 316.378 187.248 316.29 187.493 316.29C187.738 316.29 187.949 316.378 188.124 316.553C188.3 316.729 188.388 316.939 188.388 317.185C188.388 317.347 188.346 317.496 188.264 317.632C188.184 317.768 188.076 317.877 187.94 317.96C187.808 318.04 187.659 318.08 187.493 318.08ZM190.385 315.912V314.898L194.859 307.818H195.595V309.389H195.098L191.717 314.739V314.818H197.743V315.912H190.385ZM195.177 318V315.604V315.131V307.818H196.351V318H195.177ZM199.756 318V317.105L203.117 313.426C203.511 312.995 203.836 312.621 204.091 312.303C204.346 311.981 204.535 311.679 204.658 311.398C204.784 311.113 204.847 310.814 204.847 310.503C204.847 310.145 204.761 309.835 204.588 309.573C204.419 309.311 204.187 309.109 203.892 308.967C203.597 308.824 203.266 308.753 202.898 308.753C202.507 308.753 202.165 308.834 201.874 308.996C201.585 309.156 201.362 309.379 201.203 309.668C201.047 309.956 200.969 310.294 200.969 310.682H199.796C199.796 310.085 199.933 309.562 200.208 309.111C200.483 308.66 200.858 308.309 201.332 308.057C201.809 307.805 202.344 307.679 202.938 307.679C203.534 307.679 204.063 307.805 204.524 308.057C204.984 308.309 205.346 308.648 205.607 309.076C205.869 309.504 206 309.979 206 310.503C206 310.877 205.932 311.244 205.796 311.602C205.664 311.956 205.432 312.352 205.1 312.79C204.772 313.224 204.317 313.754 203.733 314.381L201.446 316.827V316.906H206.179V318H199.756ZM215.692 318.159C214.956 318.159 214.321 317.997 213.787 317.672C213.257 317.344 212.848 316.886 212.559 316.3C212.274 315.71 212.132 315.024 212.132 314.241C212.132 313.459 212.274 312.77 212.559 312.173C212.848 311.573 213.249 311.106 213.763 310.771C214.28 310.433 214.883 310.264 215.572 310.264C215.97 310.264 216.363 310.33 216.751 310.463C217.138 310.596 217.491 310.811 217.809 311.109C218.128 311.404 218.381 311.795 218.57 312.283C218.759 312.77 218.854 313.37 218.854 314.082V314.58H212.967V313.565H217.66C217.66 313.134 217.574 312.75 217.402 312.412C217.233 312.074 216.991 311.807 216.676 311.612C216.364 311.416 215.997 311.318 215.572 311.318C215.105 311.318 214.701 311.434 214.359 311.666C214.021 311.895 213.761 312.193 213.579 312.561C213.396 312.929 213.305 313.323 213.305 313.744V314.42C213.305 314.997 213.405 315.486 213.604 315.887C213.806 316.285 214.086 316.588 214.444 316.797C214.802 317.002 215.218 317.105 215.692 317.105C216 317.105 216.278 317.062 216.527 316.976C216.779 316.886 216.996 316.754 217.178 316.578C217.36 316.399 217.501 316.177 217.601 315.912L218.734 316.23C218.615 316.615 218.414 316.953 218.133 317.244C217.851 317.533 217.503 317.758 217.089 317.92C216.674 318.08 216.209 318.159 215.692 318.159ZM221.458 310.364L223.288 313.486L225.117 310.364H226.47L224.004 314.182L226.47 318H225.117L223.288 315.037L221.458 318H220.106L222.532 314.182L220.106 310.364H221.458ZM228.294 320.864V310.364H229.427V311.577H229.567C229.653 311.444 229.772 311.275 229.924 311.07C230.08 310.861 230.302 310.675 230.591 310.513C230.882 310.347 231.277 310.264 231.774 310.264C232.417 310.264 232.984 310.425 233.474 310.746C233.965 311.068 234.348 311.524 234.623 312.114C234.898 312.704 235.035 313.4 235.035 314.202C235.035 315.01 234.898 315.711 234.623 316.305C234.348 316.895 233.966 317.352 233.479 317.677C232.992 317.998 232.43 318.159 231.794 318.159C231.303 318.159 230.911 318.078 230.616 317.915C230.321 317.75 230.094 317.562 229.934 317.354C229.775 317.142 229.653 316.966 229.567 316.827H229.467V320.864H228.294ZM229.447 314.182C229.447 314.759 229.532 315.267 229.701 315.708C229.87 316.146 230.117 316.489 230.442 316.737C230.766 316.982 231.164 317.105 231.635 317.105C232.125 317.105 232.535 316.976 232.863 316.717C233.194 316.455 233.443 316.104 233.608 315.663C233.777 315.219 233.862 314.725 233.862 314.182C233.862 313.645 233.779 313.161 233.613 312.73C233.451 312.296 233.204 311.953 232.873 311.701C232.544 311.446 232.132 311.318 231.635 311.318C231.157 311.318 230.756 311.439 230.432 311.681C230.107 311.92 229.861 312.254 229.696 312.685C229.53 313.113 229.447 313.612 229.447 314.182ZM240.177 318.159C239.441 318.159 238.806 317.997 238.273 317.672C237.742 317.344 237.333 316.886 237.045 316.3C236.76 315.71 236.617 315.024 236.617 314.241C236.617 313.459 236.76 312.77 237.045 312.173C237.333 311.573 237.734 311.106 238.248 310.771C238.765 310.433 239.368 310.264 240.057 310.264C240.455 310.264 240.848 310.33 241.236 310.463C241.623 310.596 241.976 310.811 242.295 311.109C242.613 311.404 242.866 311.795 243.055 312.283C243.244 312.77 243.339 313.37 243.339 314.082V314.58H237.452V313.565H242.145C242.145 313.134 242.059 312.75 241.887 312.412C241.718 312.074 241.476 311.807 241.161 311.612C240.85 311.416 240.482 311.318 240.057 311.318C239.59 311.318 239.186 311.434 238.844 311.666C238.506 311.895 238.246 312.193 238.064 312.561C237.882 312.929 237.79 313.323 237.79 313.744V314.42C237.79 314.997 237.89 315.486 238.089 315.887C238.291 316.285 238.571 316.588 238.929 316.797C239.287 317.002 239.703 317.105 240.177 317.105C240.485 317.105 240.763 317.062 241.012 316.976C241.264 316.886 241.481 316.754 241.663 316.578C241.846 316.399 241.986 316.177 242.086 315.912L243.219 316.23C243.1 316.615 242.9 316.953 242.618 317.244C242.336 317.533 241.988 317.758 241.574 317.92C241.159 318.08 240.694 318.159 240.177 318.159ZM246.447 313.406V318H245.273V310.364H246.407V311.557H246.506C246.685 311.169 246.957 310.857 247.322 310.622C247.686 310.384 248.157 310.264 248.734 310.264C249.251 310.264 249.703 310.37 250.091 310.582C250.479 310.791 250.78 311.109 250.996 311.537C251.211 311.961 251.319 312.498 251.319 313.148V318H250.146V313.227C250.146 312.627 249.99 312.16 249.678 311.825C249.367 311.487 248.939 311.318 248.396 311.318C248.021 311.318 247.686 311.399 247.391 311.562C247.1 311.724 246.869 311.961 246.7 312.273C246.531 312.584 246.447 312.962 246.447 313.406ZM259.022 312.074L257.968 312.372C257.902 312.196 257.804 312.026 257.675 311.86C257.549 311.691 257.376 311.552 257.158 311.442C256.939 311.333 256.659 311.278 256.317 311.278C255.85 311.278 255.461 311.386 255.149 311.602C254.841 311.814 254.687 312.084 254.687 312.412C254.687 312.704 254.793 312.934 255.005 313.103C255.217 313.272 255.549 313.413 255.999 313.526L257.133 313.804C257.816 313.97 258.324 314.223 258.659 314.565C258.994 314.903 259.161 315.339 259.161 315.872C259.161 316.31 259.035 316.701 258.783 317.045C258.535 317.39 258.187 317.662 257.739 317.861C257.292 318.06 256.772 318.159 256.178 318.159C255.399 318.159 254.755 317.99 254.244 317.652C253.734 317.314 253.411 316.82 253.275 316.17L254.388 315.892C254.495 316.303 254.695 316.611 254.99 316.817C255.288 317.022 255.678 317.125 256.158 317.125C256.705 317.125 257.139 317.009 257.461 316.777C257.786 316.542 257.948 316.26 257.948 315.932C257.948 315.667 257.855 315.445 257.67 315.266C257.484 315.083 257.199 314.947 256.815 314.858L255.542 314.56C254.843 314.394 254.329 314.137 254.001 313.789C253.676 313.438 253.513 312.999 253.513 312.472C253.513 312.041 253.634 311.66 253.876 311.328C254.122 310.997 254.455 310.737 254.876 310.548C255.3 310.359 255.781 310.264 256.317 310.264C257.073 310.264 257.666 310.43 258.097 310.761C258.531 311.093 258.84 311.53 259.022 312.074ZM264.279 318.159C263.543 318.159 262.909 317.997 262.375 317.672C261.845 317.344 261.435 316.886 261.147 316.3C260.862 315.71 260.719 315.024 260.719 314.241C260.719 313.459 260.862 312.77 261.147 312.173C261.435 311.573 261.836 311.106 262.35 310.771C262.867 310.433 263.47 310.264 264.16 310.264C264.557 310.264 264.95 310.33 265.338 310.463C265.726 310.596 266.079 310.811 266.397 311.109C266.715 311.404 266.969 311.795 267.158 312.283C267.347 312.77 267.441 313.37 267.441 314.082V314.58H261.555V313.565H266.248C266.248 313.134 266.162 312.75 265.989 312.412C265.82 312.074 265.578 311.807 265.263 311.612C264.952 311.416 264.584 311.318 264.16 311.318C263.692 311.318 263.288 311.434 262.947 311.666C262.609 311.895 262.348 312.193 262.166 312.561C261.984 312.929 261.893 313.323 261.893 313.744V314.42C261.893 314.997 261.992 315.486 262.191 315.887C262.393 316.285 262.673 316.588 263.031 316.797C263.389 317.002 263.805 317.105 264.279 317.105C264.587 317.105 264.866 317.062 265.114 316.976C265.366 316.886 265.583 316.754 265.766 316.578C265.948 316.399 266.089 316.177 266.188 315.912L267.322 316.23C267.202 316.615 267.002 316.953 266.72 317.244C266.438 317.533 266.09 317.758 265.676 317.92C265.262 318.08 264.796 318.159 264.279 318.159ZM34.3949 331.364V332.358H30.4375V331.364H34.3949ZM31.5909 329.534H32.7642V336.812C32.7642 337.144 32.8123 337.393 32.9084 337.558C33.0078 337.721 33.1338 337.83 33.2862 337.886C33.442 337.939 33.6061 337.966 33.7784 337.966C33.9077 337.966 34.0137 337.959 34.0966 337.946C34.1795 337.929 34.2457 337.916 34.2955 337.906L34.5341 338.96C34.4545 338.99 34.3435 339.02 34.201 339.05C34.0585 339.083 33.8778 339.099 33.6591 339.099C33.3277 339.099 33.0028 339.028 32.6847 338.886C32.3698 338.743 32.108 338.526 31.8991 338.234C31.6937 337.943 31.5909 337.575 31.5909 337.131V329.534ZM36.3098 339V331.364H37.4433V332.517H37.5229C37.6621 332.139 37.914 331.833 38.2786 331.597C38.6431 331.362 39.0541 331.244 39.5115 331.244C39.5977 331.244 39.7054 331.246 39.8347 331.249C39.9639 331.253 40.0617 331.258 40.128 331.264V332.457C40.0882 332.447 39.9971 332.433 39.8545 332.413C39.7153 332.389 39.5679 332.378 39.4121 332.378C39.0409 332.378 38.7094 332.456 38.4178 332.612C38.1294 332.764 37.9007 332.976 37.7317 333.248C37.566 333.516 37.4831 333.823 37.4831 334.168V339H36.3098ZM43.9159 339.179C43.432 339.179 42.9929 339.088 42.5985 338.906C42.2041 338.72 41.8909 338.453 41.6588 338.105C41.4268 337.754 41.3108 337.33 41.3108 336.832C41.3108 336.395 41.397 336.04 41.5694 335.768C41.7417 335.493 41.9721 335.278 42.2604 335.122C42.5488 334.966 42.8669 334.85 43.215 334.774C43.5663 334.695 43.9193 334.632 44.2739 334.585C44.7379 334.526 45.1141 334.481 45.4025 334.451C45.6941 334.418 45.9062 334.363 46.0388 334.287C46.1747 334.211 46.2426 334.078 46.2426 333.889V333.849C46.2426 333.359 46.1084 332.978 45.84 332.706C45.5748 332.434 45.1721 332.298 44.6319 332.298C44.0717 332.298 43.6326 332.421 43.3144 332.666C42.9962 332.911 42.7725 333.173 42.6432 333.452L41.5296 333.054C41.7284 332.59 41.9936 332.229 42.325 331.97C42.6598 331.708 43.0244 331.526 43.4188 331.423C43.8165 331.317 44.2076 331.264 44.5921 331.264C44.8373 331.264 45.1191 331.294 45.4373 331.354C45.7587 331.41 46.0686 331.528 46.3669 331.707C46.6685 331.886 46.9188 332.156 47.1176 332.517C47.3165 332.878 47.4159 333.362 47.4159 333.969V339H46.2426V337.966H46.183C46.1034 338.132 45.9709 338.309 45.7853 338.498C45.5997 338.687 45.3527 338.848 45.0445 338.98C44.7363 339.113 44.3601 339.179 43.9159 339.179ZM44.0949 338.125C44.5589 338.125 44.95 338.034 45.2682 337.852C45.5897 337.669 45.8317 337.434 45.9941 337.146C46.1598 336.857 46.2426 336.554 46.2426 336.236V335.162C46.1929 335.222 46.0836 335.276 45.9145 335.326C45.7488 335.372 45.5566 335.414 45.3378 335.45C45.1224 335.483 44.9119 335.513 44.7064 335.54C44.5042 335.563 44.3402 335.583 44.2142 335.599C43.9093 335.639 43.6243 335.704 43.3591 335.793C43.0973 335.879 42.8852 336.01 42.7228 336.186C42.5637 336.358 42.4841 336.594 42.4841 336.892C42.4841 337.3 42.6349 337.608 42.9365 337.817C43.2415 338.022 43.6276 338.125 44.0949 338.125ZM50.8808 334.406V339H49.7075V331.364H50.841V332.557H50.9404C51.1194 332.169 51.3912 331.857 51.7558 331.622C52.1203 331.384 52.591 331.264 53.1677 331.264C53.6847 331.264 54.1371 331.37 54.5249 331.582C54.9127 331.791 55.2143 332.109 55.4298 332.537C55.6452 332.961 55.7529 333.498 55.7529 334.148V339H54.5796V334.227C54.5796 333.627 54.4238 333.16 54.1123 332.825C53.8007 332.487 53.3732 332.318 52.8296 332.318C52.4551 332.318 52.1203 332.399 51.8254 332.562C51.5337 332.724 51.3033 332.961 51.1343 333.273C50.9653 333.584 50.8808 333.962 50.8808 334.406ZM63.456 333.074L62.402 333.372C62.3357 333.196 62.238 333.026 62.1087 332.86C61.9828 332.691 61.8104 332.552 61.5917 332.442C61.3729 332.333 61.0928 332.278 60.7515 332.278C60.2841 332.278 59.8947 332.386 59.5831 332.602C59.2749 332.814 59.1208 333.084 59.1208 333.412C59.1208 333.704 59.2268 333.934 59.439 334.103C59.6511 334.272 59.9825 334.413 60.4333 334.526L61.5668 334.804C62.2496 334.97 62.7583 335.223 63.0931 335.565C63.4278 335.903 63.5952 336.339 63.5952 336.872C63.5952 337.31 63.4693 337.701 63.2174 338.045C62.9688 338.39 62.6208 338.662 62.1733 338.861C61.7259 339.06 61.2055 339.159 60.6123 339.159C59.8334 339.159 59.1887 338.99 58.6783 338.652C58.1679 338.314 57.8447 337.82 57.7088 337.17L58.8225 336.892C58.9285 337.303 59.1291 337.611 59.424 337.817C59.7223 338.022 60.1118 338.125 60.5924 338.125C61.1392 338.125 61.5734 338.009 61.8949 337.777C62.2197 337.542 62.3821 337.26 62.3821 336.932C62.3821 336.667 62.2893 336.445 62.1037 336.266C61.9181 336.083 61.6331 335.947 61.2486 335.858L59.9759 335.56C59.2766 335.394 58.7628 335.137 58.4347 334.789C58.1099 334.438 57.9475 333.999 57.9475 333.472C57.9475 333.041 58.0685 332.66 58.3104 332.328C58.5557 331.997 58.8888 331.737 59.3097 331.548C59.7339 331.359 60.2145 331.264 60.7515 331.264C61.5071 331.264 62.1004 331.43 62.5313 331.761C62.9655 332.093 63.2737 332.53 63.456 333.074ZM67.7585 339.179C67.2746 339.179 66.8355 339.088 66.4411 338.906C66.0466 338.72 65.7334 338.453 65.5014 338.105C65.2694 337.754 65.1534 337.33 65.1534 336.832C65.1534 336.395 65.2396 336.04 65.4119 335.768C65.5843 335.493 65.8146 335.278 66.103 335.122C66.3913 334.966 66.7095 334.85 67.0575 334.774C67.4089 334.695 67.7618 334.632 68.1165 334.585C68.5805 334.526 68.9567 334.481 69.245 334.451C69.5367 334.418 69.7488 334.363 69.8814 334.287C70.0173 334.211 70.0852 334.078 70.0852 333.889V333.849C70.0852 333.359 69.951 332.978 69.6825 332.706C69.4174 332.434 69.0147 332.298 68.4744 332.298C67.9143 332.298 67.4751 332.421 67.157 332.666C66.8388 332.911 66.6151 333.173 66.4858 333.452L65.3722 333.054C65.571 332.59 65.8362 332.229 66.1676 331.97C66.5024 331.708 66.867 331.526 67.2614 331.423C67.6591 331.317 68.0502 331.264 68.4347 331.264C68.6799 331.264 68.9616 331.294 69.2798 331.354C69.6013 331.41 69.9112 331.528 70.2095 331.707C70.5111 331.886 70.7614 332.156 70.9602 332.517C71.1591 332.878 71.2585 333.362 71.2585 333.969V339H70.0852V337.966H70.0256C69.946 338.132 69.8134 338.309 69.6278 338.498C69.4422 338.687 69.1953 338.848 68.8871 338.98C68.5788 339.113 68.2027 339.179 67.7585 339.179ZM67.9375 338.125C68.4015 338.125 68.7926 338.034 69.1108 337.852C69.4323 337.669 69.6742 337.434 69.8366 337.146C70.0024 336.857 70.0852 336.554 70.0852 336.236V335.162C70.0355 335.222 69.9261 335.276 69.7571 335.326C69.5914 335.372 69.3991 335.414 69.1804 335.45C68.965 335.483 68.7545 335.513 68.549 335.54C68.3468 335.563 68.1828 335.583 68.0568 335.599C67.7519 335.639 67.4669 335.704 67.2017 335.793C66.9399 335.879 66.7277 336.01 66.5653 336.186C66.4063 336.358 66.3267 336.594 66.3267 336.892C66.3267 337.3 66.4775 337.608 66.7791 337.817C67.084 338.022 67.4702 338.125 67.9375 338.125ZM76.6523 339.159C75.9364 339.159 75.3199 338.99 74.8029 338.652C74.2858 338.314 73.8881 337.848 73.6097 337.255C73.3313 336.662 73.1921 335.984 73.1921 335.222C73.1921 334.446 73.3346 333.762 73.6196 333.168C73.908 332.572 74.309 332.106 74.8228 331.771C75.3398 331.433 75.943 331.264 76.6324 331.264C77.1694 331.264 77.6533 331.364 78.0841 331.562C78.515 331.761 78.868 332.04 79.1431 332.398C79.4182 332.756 79.5889 333.173 79.6552 333.651H78.4819C78.3924 333.303 78.1935 332.994 77.8853 332.726C77.5803 332.454 77.1694 332.318 76.6523 332.318C76.1949 332.318 75.7939 332.437 75.4492 332.676C75.1078 332.911 74.841 333.245 74.6488 333.675C74.4598 334.103 74.3654 334.605 74.3654 335.182C74.3654 335.772 74.4582 336.286 74.6438 336.723C74.8327 337.161 75.0979 337.5 75.4392 337.742C75.7839 337.984 76.1883 338.105 76.6523 338.105C76.9572 338.105 77.234 338.052 77.4826 337.946C77.7311 337.84 77.9416 337.688 78.114 337.489C78.2863 337.29 78.4089 337.051 78.4819 336.773H79.6552C79.5889 337.223 79.4248 337.629 79.163 337.991C78.9044 338.349 78.5614 338.634 78.1338 338.846C77.7096 339.055 77.2158 339.159 76.6523 339.159ZM84.8414 331.364V332.358H80.884V331.364H84.8414ZM82.0374 329.534H83.2107V336.812C83.2107 337.144 83.2587 337.393 83.3549 337.558C83.4543 337.721 83.5802 337.83 83.7327 337.886C83.8885 337.939 84.0525 337.966 84.2249 337.966C84.3542 337.966 84.4602 337.959 84.5431 337.946C84.6259 337.929 84.6922 337.916 84.7419 337.906L84.9806 338.96C84.901 338.99 84.79 339.02 84.6475 339.05C84.505 339.083 84.3243 339.099 84.1056 339.099C83.7741 339.099 83.4493 339.028 83.1311 338.886C82.8163 338.743 82.5544 338.526 82.3456 338.234C82.1401 337.943 82.0374 337.575 82.0374 337.131V329.534ZM86.7563 339V331.364H87.9296V339H86.7563ZM87.3529 330.091C87.1242 330.091 86.927 330.013 86.7613 329.857C86.5989 329.701 86.5176 329.514 86.5176 329.295C86.5176 329.077 86.5989 328.889 86.7613 328.734C86.927 328.578 87.1242 328.5 87.3529 328.5C87.5816 328.5 87.7771 328.578 87.9395 328.734C88.1052 328.889 88.1881 329.077 88.1881 329.295C88.1881 329.514 88.1052 329.701 87.9395 329.857C87.7771 330.013 87.5816 330.091 87.3529 330.091ZM93.3308 339.159C92.6414 339.159 92.0366 338.995 91.5162 338.667C90.9991 338.339 90.5948 337.88 90.3031 337.29C90.0148 336.7 89.8706 336.01 89.8706 335.222C89.8706 334.426 90.0148 333.732 90.3031 333.138C90.5948 332.545 90.9991 332.085 91.5162 331.756C92.0366 331.428 92.6414 331.264 93.3308 331.264C94.0202 331.264 94.6234 331.428 95.1405 331.756C95.6608 332.085 96.0652 332.545 96.3535 333.138C96.6452 333.732 96.791 334.426 96.791 335.222C96.791 336.01 96.6452 336.7 96.3535 337.29C96.0652 337.88 95.6608 338.339 95.1405 338.667C94.6234 338.995 94.0202 339.159 93.3308 339.159ZM93.3308 338.105C93.8545 338.105 94.2854 337.971 94.6234 337.702C94.9615 337.434 95.2117 337.081 95.3741 336.643C95.5366 336.206 95.6178 335.732 95.6178 335.222C95.6178 334.711 95.5366 334.236 95.3741 333.795C95.2117 333.354 94.9615 332.998 94.6234 332.726C94.2854 332.454 93.8545 332.318 93.3308 332.318C92.8071 332.318 92.3763 332.454 92.0382 332.726C91.7001 332.998 91.4499 333.354 91.2875 333.795C91.1251 334.236 91.0439 334.711 91.0439 335.222C91.0439 335.732 91.1251 336.206 91.2875 336.643C91.4499 337.081 91.7001 337.434 92.0382 337.702C92.3763 337.971 92.8071 338.105 93.3308 338.105ZM99.9054 334.406V339H98.7321V331.364H99.8656V332.557H99.965C100.144 332.169 100.416 331.857 100.78 331.622C101.145 331.384 101.616 331.264 102.192 331.264C102.709 331.264 103.162 331.37 103.55 331.582C103.937 331.791 104.239 332.109 104.454 332.537C104.67 332.961 104.778 333.498 104.778 334.148V339H103.604V334.227C103.604 333.627 103.448 333.16 103.137 332.825C102.825 332.487 102.398 332.318 101.854 332.318C101.48 332.318 101.145 332.399 100.85 332.562C100.558 332.724 100.328 332.961 100.159 333.273C99.9899 333.584 99.9054 333.962 99.9054 334.406ZM112.481 333.074L111.427 333.372C111.36 333.196 111.263 333.026 111.133 332.86C111.007 332.691 110.835 332.552 110.616 332.442C110.398 332.333 110.117 332.278 109.776 332.278C109.309 332.278 108.919 332.386 108.608 332.602C108.3 332.814 108.145 333.084 108.145 333.412C108.145 333.704 108.251 333.934 108.464 334.103C108.676 334.272 109.007 334.413 109.458 334.526L110.591 334.804C111.274 334.97 111.783 335.223 112.118 335.565C112.452 335.903 112.62 336.339 112.62 336.872C112.62 337.31 112.494 337.701 112.242 338.045C111.993 338.39 111.645 338.662 111.198 338.861C110.75 339.06 110.23 339.159 109.637 339.159C108.858 339.159 108.213 338.99 107.703 338.652C107.192 338.314 106.869 337.82 106.733 337.17L107.847 336.892C107.953 337.303 108.154 337.611 108.449 337.817C108.747 338.022 109.136 338.125 109.617 338.125C110.164 338.125 110.598 338.009 110.92 337.777C111.244 337.542 111.407 337.26 111.407 336.932C111.407 336.667 111.314 336.445 111.128 336.266C110.943 336.083 110.658 335.947 110.273 335.858L109 335.56C108.301 335.394 107.787 335.137 107.459 334.789C107.134 334.438 106.972 333.999 106.972 333.472C106.972 333.041 107.093 332.66 107.335 332.328C107.58 331.997 107.913 331.737 108.334 331.548C108.759 331.359 109.239 331.264 109.776 331.264C110.532 331.264 111.125 331.43 111.556 331.761C111.99 332.093 112.298 332.53 112.481 333.074ZM116.286 337.608L116.206 338.145C116.15 338.523 116.064 338.927 115.948 339.358C115.835 339.789 115.718 340.195 115.595 340.576C115.472 340.957 115.371 341.26 115.292 341.486H114.397C114.44 341.274 114.496 340.994 114.566 340.646C114.635 340.298 114.705 339.908 114.775 339.477C114.848 339.05 114.907 338.612 114.954 338.165L115.013 337.608H116.286ZM126.257 328.818V339H125.024V330.111H124.964L122.479 331.761V330.509L125.024 328.818H126.257ZM129.335 339V338.105L132.696 334.426C133.09 333.995 133.415 333.621 133.67 333.303C133.926 332.981 134.115 332.679 134.237 332.398C134.363 332.113 134.426 331.814 134.426 331.503C134.426 331.145 134.34 330.835 134.168 330.573C133.999 330.311 133.767 330.109 133.472 329.967C133.177 329.824 132.845 329.753 132.477 329.753C132.086 329.753 131.745 329.834 131.453 329.996C131.165 330.156 130.941 330.379 130.782 330.668C130.626 330.956 130.548 331.294 130.548 331.682H129.375C129.375 331.085 129.513 330.562 129.788 330.111C130.063 329.66 130.437 329.309 130.911 329.057C131.388 328.805 131.924 328.679 132.517 328.679C133.114 328.679 133.642 328.805 134.103 329.057C134.564 329.309 134.925 329.648 135.187 330.076C135.449 330.504 135.58 330.979 135.58 331.503C135.58 331.877 135.512 332.244 135.376 332.602C135.243 332.956 135.011 333.352 134.68 333.79C134.352 334.224 133.896 334.754 133.312 335.381L131.026 337.827V337.906H135.759V339H129.335ZM147.478 333.074L146.424 333.372C146.358 333.196 146.26 333.026 146.131 332.86C146.005 332.691 145.833 332.552 145.614 332.442C145.395 332.333 145.115 332.278 144.774 332.278C144.306 332.278 143.917 332.386 143.605 332.602C143.297 332.814 143.143 333.084 143.143 333.412C143.143 333.704 143.249 333.934 143.461 334.103C143.673 334.272 144.005 334.413 144.456 334.526L145.589 334.804C146.272 334.97 146.781 335.223 147.115 335.565C147.45 335.903 147.617 336.339 147.617 336.872C147.617 337.31 147.492 337.701 147.24 338.045C146.991 338.39 146.643 338.662 146.196 338.861C145.748 339.06 145.228 339.159 144.635 339.159C143.856 339.159 143.211 338.99 142.701 338.652C142.19 338.314 141.867 337.82 141.731 337.17L142.845 336.892C142.951 337.303 143.151 337.611 143.446 337.817C143.745 338.022 144.134 338.125 144.615 338.125C145.162 338.125 145.596 338.009 145.917 337.777C146.242 337.542 146.404 337.26 146.404 336.932C146.404 336.667 146.312 336.445 146.126 336.266C145.94 336.083 145.655 335.947 145.271 335.858L143.998 335.56C143.299 335.394 142.785 335.137 142.457 334.789C142.132 334.438 141.97 333.999 141.97 333.472C141.97 333.041 142.091 332.66 142.333 332.328C142.578 331.997 142.911 331.737 143.332 331.548C143.756 331.359 144.237 331.264 144.774 331.264C145.529 331.264 146.123 331.43 146.554 331.761C146.988 332.093 147.296 332.53 147.478 333.074ZM151.781 339.179C151.297 339.179 150.858 339.088 150.463 338.906C150.069 338.72 149.756 338.453 149.524 338.105C149.292 337.754 149.176 337.33 149.176 336.832C149.176 336.395 149.262 336.04 149.434 335.768C149.607 335.493 149.837 335.278 150.125 335.122C150.414 334.966 150.732 334.85 151.08 334.774C151.431 334.695 151.784 334.632 152.139 334.585C152.603 334.526 152.979 334.481 153.267 334.451C153.559 334.418 153.771 334.363 153.904 334.287C154.04 334.211 154.107 334.078 154.107 333.889V333.849C154.107 333.359 153.973 332.978 153.705 332.706C153.44 332.434 153.037 332.298 152.497 332.298C151.937 332.298 151.497 332.421 151.179 332.666C150.861 332.911 150.637 333.173 150.508 333.452L149.394 333.054C149.593 332.59 149.858 332.229 150.19 331.97C150.525 331.708 150.889 331.526 151.284 331.423C151.681 331.317 152.072 331.264 152.457 331.264C152.702 331.264 152.984 331.294 153.302 331.354C153.624 331.41 153.933 331.528 154.232 331.707C154.533 331.886 154.784 332.156 154.982 332.517C155.181 332.878 155.281 333.362 155.281 333.969V339H154.107V337.966H154.048C153.968 338.132 153.836 338.309 153.65 338.498C153.464 338.687 153.218 338.848 152.909 338.98C152.601 339.113 152.225 339.179 151.781 339.179ZM151.96 338.125C152.424 338.125 152.815 338.034 153.133 337.852C153.455 337.669 153.697 337.434 153.859 337.146C154.025 336.857 154.107 336.554 154.107 336.236V335.162C154.058 335.222 153.948 335.276 153.779 335.326C153.614 335.372 153.421 335.414 153.203 335.45C152.987 335.483 152.777 335.513 152.571 335.54C152.369 335.563 152.205 335.583 152.079 335.599C151.774 335.639 151.489 335.704 151.224 335.793C150.962 335.879 150.75 336.01 150.588 336.186C150.429 336.358 150.349 336.594 150.349 336.892C150.349 337.3 150.5 337.608 150.801 337.817C151.106 338.022 151.492 338.125 151.96 338.125ZM163.543 331.364L160.719 339H159.526L156.702 331.364H157.975L160.083 337.449H160.162L162.27 331.364H163.543ZM165.242 339V331.364H166.415V339H165.242ZM165.838 330.091C165.61 330.091 165.413 330.013 165.247 329.857C165.084 329.701 165.003 329.514 165.003 329.295C165.003 329.077 165.084 328.889 165.247 328.734C165.413 328.578 165.61 328.5 165.838 328.5C166.067 328.5 166.263 328.578 166.425 328.734C166.591 328.889 166.674 329.077 166.674 329.295C166.674 329.514 166.591 329.701 166.425 329.857C166.263 330.013 166.067 330.091 165.838 330.091ZM169.887 334.406V339H168.714V331.364H169.848V332.557H169.947C170.126 332.169 170.398 331.857 170.762 331.622C171.127 331.384 171.598 331.264 172.174 331.264C172.691 331.264 173.144 331.37 173.532 331.582C173.919 331.791 174.221 332.109 174.436 332.537C174.652 332.961 174.76 333.498 174.76 334.148V339H173.586V334.227C173.586 333.627 173.43 333.16 173.119 332.825C172.807 332.487 172.38 332.318 171.836 332.318C171.462 332.318 171.127 332.399 170.832 332.562C170.54 332.724 170.31 332.961 170.141 333.273C169.972 333.584 169.887 333.962 169.887 334.406ZM180.136 342.023C179.569 342.023 179.082 341.95 178.674 341.804C178.267 341.661 177.927 341.473 177.655 341.237C177.387 341.005 177.173 340.757 177.014 340.491L177.948 339.835C178.055 339.974 178.189 340.134 178.351 340.312C178.514 340.495 178.736 340.652 179.017 340.785C179.302 340.921 179.675 340.989 180.136 340.989C180.752 340.989 181.261 340.839 181.662 340.541C182.063 340.243 182.264 339.776 182.264 339.139V337.588H182.164C182.078 337.727 181.956 337.9 181.796 338.105C181.641 338.307 181.415 338.488 181.12 338.647C180.829 338.803 180.434 338.881 179.937 338.881C179.321 338.881 178.767 338.735 178.277 338.443C177.789 338.152 177.403 337.727 177.118 337.17C176.836 336.614 176.696 335.937 176.696 335.142C176.696 334.36 176.833 333.679 177.108 333.099C177.383 332.515 177.766 332.065 178.257 331.746C178.747 331.425 179.314 331.264 179.957 331.264C180.454 331.264 180.849 331.347 181.14 331.513C181.435 331.675 181.661 331.861 181.816 332.07C181.975 332.275 182.098 332.444 182.184 332.577H182.304V331.364H183.437V339.219C183.437 339.875 183.288 340.409 182.99 340.82C182.695 341.234 182.297 341.537 181.796 341.729C181.299 341.925 180.746 342.023 180.136 342.023ZM180.096 337.827C180.567 337.827 180.965 337.719 181.289 337.504C181.614 337.288 181.861 336.978 182.03 336.574C182.199 336.17 182.284 335.686 182.284 335.122C182.284 334.572 182.201 334.086 182.035 333.665C181.869 333.245 181.624 332.915 181.299 332.676C180.974 332.437 180.573 332.318 180.096 332.318C179.599 332.318 179.185 332.444 178.853 332.696C178.525 332.948 178.278 333.286 178.113 333.71C177.95 334.134 177.869 334.605 177.869 335.122C177.869 335.652 177.952 336.121 178.117 336.529C178.287 336.933 178.535 337.252 178.863 337.484C179.195 337.712 179.606 337.827 180.096 337.827ZM191.144 333.074L190.09 333.372C190.024 333.196 189.926 333.026 189.797 332.86C189.671 332.691 189.498 332.552 189.28 332.442C189.061 332.333 188.781 332.278 188.439 332.278C187.972 332.278 187.583 332.386 187.271 332.602C186.963 332.814 186.809 333.084 186.809 333.412C186.809 333.704 186.915 333.934 187.127 334.103C187.339 334.272 187.67 334.413 188.121 334.526L189.255 334.804C189.937 334.97 190.446 335.223 190.781 335.565C191.116 335.903 191.283 336.339 191.283 336.872C191.283 337.31 191.157 337.701 190.905 338.045C190.657 338.39 190.309 338.662 189.861 338.861C189.414 339.06 188.893 339.159 188.3 339.159C187.521 339.159 186.877 338.99 186.366 338.652C185.856 338.314 185.533 337.82 185.397 337.17L186.51 336.892C186.616 337.303 186.817 337.611 187.112 337.817C187.41 338.022 187.8 338.125 188.28 338.125C188.827 338.125 189.261 338.009 189.583 337.777C189.908 337.542 190.07 337.26 190.07 336.932C190.07 336.667 189.977 336.445 189.792 336.266C189.606 336.083 189.321 335.947 188.937 335.858L187.664 335.56C186.964 335.394 186.451 335.137 186.123 334.789C185.798 334.438 185.635 333.999 185.635 333.472C185.635 333.041 185.756 332.66 185.998 332.328C186.244 331.997 186.577 331.737 186.998 331.548C187.422 331.359 187.902 331.264 188.439 331.264C189.195 331.264 189.788 331.43 190.219 331.761C190.653 332.093 190.962 332.53 191.144 333.074ZM200.488 339.159C199.753 339.159 199.118 338.997 198.584 338.672C198.054 338.344 197.645 337.886 197.356 337.3C197.071 336.71 196.929 336.024 196.929 335.241C196.929 334.459 197.071 333.77 197.356 333.173C197.645 332.573 198.046 332.106 198.559 331.771C199.077 331.433 199.68 331.264 200.369 331.264C200.767 331.264 201.16 331.33 201.547 331.463C201.935 331.596 202.288 331.811 202.606 332.109C202.925 332.404 203.178 332.795 203.367 333.283C203.556 333.77 203.65 334.37 203.65 335.082V335.58H197.764V334.565H202.457C202.457 334.134 202.371 333.75 202.199 333.412C202.03 333.074 201.788 332.807 201.473 332.612C201.161 332.416 200.793 332.318 200.369 332.318C199.902 332.318 199.497 332.434 199.156 332.666C198.818 332.895 198.558 333.193 198.376 333.561C198.193 333.929 198.102 334.323 198.102 334.744V335.42C198.102 335.997 198.202 336.486 198.4 336.887C198.603 337.285 198.883 337.588 199.241 337.797C199.599 338.002 200.015 338.105 200.488 338.105C200.797 338.105 201.075 338.062 201.324 337.976C201.576 337.886 201.793 337.754 201.975 337.578C202.157 337.399 202.298 337.177 202.398 336.912L203.531 337.23C203.412 337.615 203.211 337.953 202.93 338.244C202.648 338.533 202.3 338.758 201.885 338.92C201.471 339.08 201.006 339.159 200.488 339.159ZM206.758 334.406V339H205.585V331.364H206.719V332.557H206.818C206.997 332.169 207.269 331.857 207.633 331.622C207.998 331.384 208.469 331.264 209.045 331.264C209.562 331.264 210.015 331.37 210.403 331.582C210.79 331.791 211.092 332.109 211.307 332.537C211.523 332.961 211.631 333.498 211.631 334.148V339H210.457V334.227C210.457 333.627 210.302 333.16 209.99 332.825C209.678 332.487 209.251 332.318 208.707 332.318C208.333 332.318 207.998 332.399 207.703 332.562C207.411 332.724 207.181 332.961 207.012 333.273C206.843 333.584 206.758 333.962 206.758 334.406ZM217.246 331.364V332.358H213.288V331.364H217.246ZM214.442 329.534H215.615V336.812C215.615 337.144 215.663 337.393 215.759 337.558C215.859 337.721 215.985 337.83 216.137 337.886C216.293 337.939 216.457 337.966 216.629 337.966C216.758 337.966 216.865 337.959 216.947 337.946C217.03 337.929 217.097 337.916 217.146 337.906L217.385 338.96C217.305 338.99 217.194 339.02 217.052 339.05C216.909 339.083 216.729 339.099 216.51 339.099C216.178 339.099 215.854 339.028 215.535 338.886C215.221 338.743 214.959 338.526 214.75 338.234C214.544 337.943 214.442 337.575 214.442 337.131V329.534ZM219.161 339V331.364H220.294V332.517H220.374C220.513 332.139 220.765 331.833 221.129 331.597C221.494 331.362 221.905 331.244 222.362 331.244C222.448 331.244 222.556 331.246 222.685 331.249C222.815 331.253 222.912 331.258 222.979 331.264V332.457C222.939 332.447 222.848 332.433 222.705 332.413C222.566 332.389 222.419 332.378 222.263 332.378C221.892 332.378 221.56 332.456 221.269 332.612C220.98 332.764 220.751 332.976 220.582 333.248C220.417 333.516 220.334 333.823 220.334 334.168V339H219.161ZM224.52 339V331.364H225.693V339H224.52ZM225.116 330.091C224.887 330.091 224.69 330.013 224.525 329.857C224.362 329.701 224.281 329.514 224.281 329.295C224.281 329.077 224.362 328.889 224.525 328.734C224.69 328.578 224.887 328.5 225.116 328.5C225.345 328.5 225.54 328.578 225.703 328.734C225.869 328.889 225.951 329.077 225.951 329.295C225.951 329.514 225.869 329.701 225.703 329.857C225.54 330.013 225.345 330.091 225.116 330.091ZM231.194 339.159C230.458 339.159 229.823 338.997 229.289 338.672C228.759 338.344 228.35 337.886 228.061 337.3C227.776 336.71 227.634 336.024 227.634 335.241C227.634 334.459 227.776 333.77 228.061 333.173C228.35 332.573 228.751 332.106 229.265 331.771C229.782 331.433 230.385 331.264 231.074 331.264C231.472 331.264 231.865 331.33 232.252 331.463C232.64 331.596 232.993 331.811 233.311 332.109C233.63 332.404 233.883 332.795 234.072 333.283C234.261 333.77 234.355 334.37 234.355 335.082V335.58H228.469V334.565H233.162C233.162 334.134 233.076 333.75 232.904 333.412C232.735 333.074 232.493 332.807 232.178 332.612C231.866 332.416 231.498 332.318 231.074 332.318C230.607 332.318 230.203 332.434 229.861 332.666C229.523 332.895 229.263 333.193 229.081 333.561C228.898 333.929 228.807 334.323 228.807 334.744V335.42C228.807 335.997 228.907 336.486 229.105 336.887C229.308 337.285 229.588 337.588 229.946 337.797C230.304 338.002 230.72 338.105 231.194 338.105C231.502 338.105 231.78 338.062 232.029 337.976C232.281 337.886 232.498 337.754 232.68 337.578C232.862 337.399 233.003 337.177 233.103 336.912L234.236 337.23C234.117 337.615 233.916 337.953 233.635 338.244C233.353 338.533 233.005 338.758 232.591 338.92C232.176 339.08 231.711 339.159 231.194 339.159ZM241.699 333.074L240.645 333.372C240.579 333.196 240.481 333.026 240.352 332.86C240.226 332.691 240.054 332.552 239.835 332.442C239.616 332.333 239.336 332.278 238.995 332.278C238.527 332.278 238.138 332.386 237.826 332.602C237.518 332.814 237.364 333.084 237.364 333.412C237.364 333.704 237.47 333.934 237.682 334.103C237.894 334.272 238.226 334.413 238.677 334.526L239.81 334.804C240.493 334.97 241.002 335.223 241.336 335.565C241.671 335.903 241.839 336.339 241.839 336.872C241.839 337.31 241.713 337.701 241.461 338.045C241.212 338.39 240.864 338.662 240.417 338.861C239.969 339.06 239.449 339.159 238.856 339.159C238.077 339.159 237.432 338.99 236.922 338.652C236.411 338.314 236.088 337.82 235.952 337.17L237.066 336.892C237.172 337.303 237.372 337.611 237.667 337.817C237.966 338.022 238.355 338.125 238.836 338.125C239.383 338.125 239.817 338.009 240.138 337.777C240.463 337.542 240.625 337.26 240.625 336.932C240.625 336.667 240.533 336.445 240.347 336.266C240.161 336.083 239.876 335.947 239.492 335.858L238.219 335.56C237.52 335.394 237.006 335.137 236.678 334.789C236.353 334.438 236.191 333.999 236.191 333.472C236.191 333.041 236.312 332.66 236.554 332.328C236.799 331.997 237.132 331.737 237.553 331.548C237.977 331.359 238.458 331.264 238.995 331.264C239.75 331.264 240.344 331.43 240.775 331.761C241.209 332.093 241.517 332.53 241.699 333.074ZM250.089 339.179C249.605 339.179 249.166 339.088 248.772 338.906C248.377 338.72 248.064 338.453 247.832 338.105C247.6 337.754 247.484 337.33 247.484 336.832C247.484 336.395 247.57 336.04 247.743 335.768C247.915 335.493 248.145 335.278 248.434 335.122C248.722 334.966 249.04 334.85 249.388 334.774C249.74 334.695 250.093 334.632 250.447 334.585C250.911 334.526 251.288 334.481 251.576 334.451C251.868 334.418 252.08 334.363 252.212 334.287C252.348 334.211 252.416 334.078 252.416 333.889V333.849C252.416 333.359 252.282 332.978 252.013 332.706C251.748 332.434 251.346 332.298 250.805 332.298C250.245 332.298 249.806 332.421 249.488 332.666C249.17 332.911 248.946 333.173 248.817 333.452L247.703 333.054C247.902 332.59 248.167 332.229 248.498 331.97C248.833 331.708 249.198 331.526 249.592 331.423C249.99 331.317 250.381 331.264 250.766 331.264C251.011 331.264 251.293 331.294 251.611 331.354C251.932 331.41 252.242 331.528 252.54 331.707C252.842 331.886 253.092 332.156 253.291 332.517C253.49 332.878 253.589 333.362 253.589 333.969V339H252.416V337.966H252.356C252.277 338.132 252.144 338.309 251.959 338.498C251.773 338.687 251.526 338.848 251.218 338.98C250.91 339.113 250.534 339.179 250.089 339.179ZM250.268 338.125C250.732 338.125 251.123 338.034 251.442 337.852C251.763 337.669 252.005 337.434 252.168 337.146C252.333 336.857 252.416 336.554 252.416 336.236V335.162C252.366 335.222 252.257 335.276 252.088 335.326C251.922 335.372 251.73 335.414 251.511 335.45C251.296 335.483 251.085 335.513 250.88 335.54C250.678 335.563 250.514 335.583 250.388 335.599C250.083 335.639 249.798 335.704 249.533 335.793C249.271 335.879 249.059 336.01 248.896 336.186C248.737 336.358 248.658 336.594 248.658 336.892C248.658 337.3 248.808 337.608 249.11 337.817C249.415 338.022 249.801 338.125 250.268 338.125ZM257.054 334.406V339H255.881V331.364H257.014V332.557H257.114C257.293 332.169 257.565 331.857 257.929 331.622C258.294 331.384 258.764 331.264 259.341 331.264C259.858 331.264 260.311 331.37 260.698 331.582C261.086 331.791 261.388 332.109 261.603 332.537C261.819 332.961 261.926 333.498 261.926 334.148V339H260.753V334.227C260.753 333.627 260.597 333.16 260.286 332.825C259.974 332.487 259.547 332.318 259.003 332.318C258.629 332.318 258.294 332.399 257.999 332.562C257.707 332.724 257.477 332.961 257.308 333.273C257.139 333.584 257.054 333.962 257.054 334.406ZM267.104 339.159C266.468 339.159 265.906 338.998 265.419 338.677C264.931 338.352 264.55 337.895 264.275 337.305C264 336.711 263.862 336.01 263.862 335.202C263.862 334.4 264 333.704 264.275 333.114C264.55 332.524 264.933 332.068 265.423 331.746C265.914 331.425 266.481 331.264 267.124 331.264C267.621 331.264 268.014 331.347 268.302 331.513C268.594 331.675 268.816 331.861 268.968 332.07C269.124 332.275 269.245 332.444 269.331 332.577H269.431V328.818H270.604V339H269.47V337.827H269.331C269.245 337.966 269.122 338.142 268.963 338.354C268.804 338.562 268.577 338.75 268.282 338.915C267.987 339.078 267.594 339.159 267.104 339.159ZM267.263 338.105C267.734 338.105 268.131 337.982 268.456 337.737C268.781 337.489 269.028 337.146 269.197 336.708C269.366 336.267 269.45 335.759 269.45 335.182C269.45 334.612 269.368 334.113 269.202 333.685C269.036 333.254 268.791 332.92 268.466 332.681C268.141 332.439 267.74 332.318 267.263 332.318C266.766 332.318 266.352 332.446 266.02 332.701C265.692 332.953 265.445 333.296 265.279 333.73C265.117 334.161 265.036 334.645 265.036 335.182C265.036 335.725 265.119 336.219 265.284 336.663C265.453 337.104 265.702 337.455 266.03 337.717C266.361 337.976 266.772 338.105 267.263 338.105ZM276.895 336.912V335.898L281.369 328.818H282.105V330.389H281.608L278.227 335.739V335.818H284.253V336.912H276.895ZM281.687 339V336.604V336.131V328.818H282.861V339H281.687ZM290.532 339V328.818H291.705V332.577H291.805C291.891 332.444 292.01 332.275 292.163 332.07C292.319 331.861 292.541 331.675 292.829 331.513C293.121 331.347 293.515 331.264 294.012 331.264C294.655 331.264 295.222 331.425 295.713 331.746C296.203 332.068 296.586 332.524 296.861 333.114C297.136 333.704 297.274 334.4 297.274 335.202C297.274 336.01 297.136 336.711 296.861 337.305C296.586 337.895 296.205 338.352 295.718 338.677C295.23 338.998 294.669 339.159 294.032 339.159C293.542 339.159 293.149 339.078 292.854 338.915C292.559 338.75 292.332 338.562 292.173 338.354C292.014 338.142 291.891 337.966 291.805 337.827H291.666V339H290.532ZM291.686 335.182C291.686 335.759 291.77 336.267 291.939 336.708C292.108 337.146 292.355 337.489 292.68 337.737C293.005 337.982 293.402 338.105 293.873 338.105C294.364 338.105 294.773 337.976 295.101 337.717C295.433 337.455 295.681 337.104 295.847 336.663C296.016 336.219 296.1 335.725 296.1 335.182C296.1 334.645 296.018 334.161 295.852 333.73C295.689 333.296 295.442 332.953 295.111 332.701C294.783 332.446 294.37 332.318 293.873 332.318C293.396 332.318 292.995 332.439 292.67 332.681C292.345 332.92 292.1 333.254 291.934 333.685C291.768 334.113 291.686 334.612 291.686 335.182ZM299.218 339V331.364H300.392V339H299.218ZM299.815 330.091C299.586 330.091 299.389 330.013 299.223 329.857C299.061 329.701 298.98 329.514 298.98 329.295C298.98 329.077 299.061 328.889 299.223 328.734C299.389 328.578 299.586 328.5 299.815 328.5C300.044 328.5 300.239 328.578 300.402 328.734C300.567 328.889 300.65 329.077 300.65 329.295C300.65 329.514 300.567 329.701 300.402 329.857C300.239 330.013 300.044 330.091 299.815 330.091ZM303.864 328.818V339H302.691V328.818H303.864ZM307.336 328.818V339H306.163V328.818H307.336ZM315.044 333.074L313.99 333.372C313.924 333.196 313.826 333.026 313.697 332.86C313.571 332.691 313.399 332.552 313.18 332.442C312.961 332.333 312.681 332.278 312.34 332.278C311.872 332.278 311.483 332.386 311.171 332.602C310.863 332.814 310.709 333.084 310.709 333.412C310.709 333.704 310.815 333.934 311.027 334.103C311.239 334.272 311.571 334.413 312.022 334.526L313.155 334.804C313.838 334.97 314.347 335.223 314.681 335.565C315.016 335.903 315.183 336.339 315.183 336.872C315.183 337.31 315.058 337.701 314.806 338.045C314.557 338.39 314.209 338.662 313.762 338.861C313.314 339.06 312.794 339.159 312.201 339.159C311.422 339.159 310.777 338.99 310.267 338.652C309.756 338.314 309.433 337.82 309.297 337.17L310.411 336.892C310.517 337.303 310.717 337.611 311.012 337.817C311.311 338.022 311.7 338.125 312.181 338.125C312.728 338.125 313.162 338.009 313.483 337.777C313.808 337.542 313.97 337.26 313.97 336.932C313.97 336.667 313.878 336.445 313.692 336.266C313.506 336.083 313.221 335.947 312.837 335.858L311.564 335.56C310.865 335.394 310.351 335.137 310.023 334.789C309.698 334.438 309.536 333.999 309.536 333.472C309.536 333.041 309.657 332.66 309.899 332.328C310.144 331.997 310.477 331.737 310.898 331.548C311.322 331.359 311.803 331.264 312.34 331.264C313.095 331.264 313.689 331.43 314.12 331.761C314.554 332.093 314.862 332.53 315.044 333.074ZM317.955 339.08C317.709 339.08 317.499 338.992 317.323 338.816C317.148 338.64 317.06 338.43 317.06 338.185C317.06 337.939 317.148 337.729 317.323 337.553C317.499 337.378 317.709 337.29 317.955 337.29C318.2 337.29 318.41 337.378 318.586 337.553C318.762 337.729 318.85 337.939 318.85 338.185C318.85 338.347 318.808 338.496 318.725 338.632C318.646 338.768 318.538 338.877 318.402 338.96C318.27 339.04 318.12 339.08 317.955 339.08Z" fill="#4C4E64" fill-opacity="0.6"/>
</g>
<defs>
<filter id="filter0_d_5341_5602" x="0" y="0" width="380" height="376" filterUnits="userSpaceOnUse" color-interpolation-filters="sRGB">
<feFlood flood-opacity="0" result="BackgroundImageFix"/>
<feColorMatrix in="SourceAlpha" type="matrix" values="0 0 0 0 0 0 0 0 0 0 0 0 0 0 0 0 0 0 127 0" result="hardAlpha"/>
<feOffset dy="2"/>
<feGaussianBlur stdDeviation="5"/>
<feColorMatrix type="matrix" values="0 0 0 0 0.298039 0 0 0 0 0.305882 0 0 0 0 0.392157 0 0 0 0.22 0"/>
<feBlend mode="normal" in2="BackgroundImageFix" result="effect1_dropShadow_5341_5602"/>
<feBlend mode="normal" in="SourceGraphic" in2="effect1_dropShadow_5341_5602" result="shape"/>
</filter>
<linearGradient id="paint0_linear_5341_5602" x1="189" y1="80.2754" x2="189" y2="261.275" gradientUnits="userSpaceOnUse">
<stop stop-color="#72E128"/>
<stop offset="1" stop-color="#72E128" stop-opacity="0"/>
</linearGradient>
<clipPath id="clip0_5341_5602">
<rect width="360" height="356" fill="white" transform="translate(10 8)"/>
</clipPath>
</defs>
</svg>
