<svg width="208" height="221" viewBox="0 0 208 221" fill="none" xmlns="http://www.w3.org/2000/svg">
<g filter="url(#filter0_d_5340_6383)">
<mask id="mask0_5340_6383" style="mask-type:luminance" maskUnits="userSpaceOnUse" x="28" y="16" width="160" height="173">
<rect x="28" y="16" width="160" height="173" fill="white"/>
</mask>
<g mask="url(#mask0_5340_6383)">
<rect x="28" y="16" width="160" height="173" fill="white"/>
</g>
</g>
<path d="M76.5156 107.242V108.278H73.8556V117H72.5816V108.278H69.9076V107.242H76.5156ZM81.4299 117.126C80.7112 117.126 80.0579 116.963 79.4699 116.636C78.8912 116.309 78.4339 115.847 78.0979 115.25C77.7712 114.643 77.6079 113.943 77.6079 113.15C77.6079 112.366 77.7759 111.675 78.1119 111.078C78.4572 110.471 78.9239 110.009 79.5119 109.692C80.0999 109.365 80.7579 109.202 81.4859 109.202C82.2139 109.202 82.8719 109.365 83.4599 109.692C84.0479 110.009 84.5099 110.467 84.8459 111.064C85.1912 111.661 85.3639 112.357 85.3639 113.15C85.3639 113.943 85.1865 114.643 84.8319 115.25C84.4865 115.847 84.0152 116.309 83.4179 116.636C82.8205 116.963 82.1579 117.126 81.4299 117.126ZM81.4299 116.006C81.8872 116.006 82.3165 115.899 82.7179 115.684C83.1192 115.469 83.4412 115.147 83.6839 114.718C83.9359 114.289 84.0619 113.766 84.0619 113.15C84.0619 112.534 83.9405 112.011 83.6979 111.582C83.4552 111.153 83.1379 110.835 82.7459 110.63C82.3539 110.415 81.9292 110.308 81.4719 110.308C81.0052 110.308 80.5759 110.415 80.1839 110.63C79.8012 110.835 79.4932 111.153 79.2599 111.582C79.0265 112.011 78.9099 112.534 78.9099 113.15C78.9099 113.775 79.0219 114.303 79.2459 114.732C79.4792 115.161 79.7872 115.483 80.1699 115.698C80.5525 115.903 80.9725 116.006 81.4299 116.006ZM88.5929 110.378V114.9C88.5929 115.273 88.6723 115.539 88.8309 115.698C88.9896 115.847 89.2649 115.922 89.6569 115.922H90.5949V117H89.4469C88.7376 117 88.2056 116.837 87.8509 116.51C87.4963 116.183 87.3189 115.647 87.3189 114.9V110.378H86.3249V109.328H87.3189V107.396H88.5929V109.328H90.5949V110.378H88.5929ZM91.6625 113.136C91.6625 112.352 91.8212 111.666 92.1385 111.078C92.4559 110.481 92.8899 110.019 93.4405 109.692C94.0005 109.365 94.6212 109.202 95.3025 109.202C95.9745 109.202 96.5579 109.347 97.0525 109.636C97.5472 109.925 97.9159 110.289 98.1585 110.728V109.328H99.4465V117H98.1585V115.572C97.9065 116.02 97.5285 116.393 97.0245 116.692C96.5299 116.981 95.9512 117.126 95.2885 117.126C94.6072 117.126 93.9912 116.958 93.4405 116.622C92.8899 116.286 92.4559 115.815 92.1385 115.208C91.8212 114.601 91.6625 113.911 91.6625 113.136ZM98.1585 113.15C98.1585 112.571 98.0419 112.067 97.8085 111.638C97.5752 111.209 97.2579 110.882 96.8565 110.658C96.4645 110.425 96.0305 110.308 95.5545 110.308C95.0785 110.308 94.6445 110.42 94.2525 110.644C93.8605 110.868 93.5479 111.195 93.3145 111.624C93.0812 112.053 92.9645 112.557 92.9645 113.136C92.9645 113.724 93.0812 114.237 93.3145 114.676C93.5479 115.105 93.8605 115.437 94.2525 115.67C94.6445 115.894 95.0785 116.006 95.5545 116.006C96.0305 116.006 96.4645 115.894 96.8565 115.67C97.2579 115.437 97.5752 115.105 97.8085 114.676C98.0419 114.237 98.1585 113.729 98.1585 113.15ZM102.873 106.64V117H101.599V106.64H102.873ZM114.783 107.242V108.278H112.123V117H110.849V108.278H108.175V107.242H114.783ZM115.875 113.136C115.875 112.352 116.034 111.666 116.351 111.078C116.669 110.481 117.103 110.019 117.653 109.692C118.213 109.365 118.834 109.202 119.515 109.202C120.187 109.202 120.771 109.347 121.265 109.636C121.76 109.925 122.129 110.289 122.371 110.728V109.328H123.659V117H122.371V115.572C122.119 116.02 121.741 116.393 121.237 116.692C120.743 116.981 120.164 117.126 119.501 117.126C118.82 117.126 118.204 116.958 117.653 116.622C117.103 116.286 116.669 115.815 116.351 115.208C116.034 114.601 115.875 113.911 115.875 113.136ZM122.371 113.15C122.371 112.571 122.255 112.067 122.021 111.638C121.788 111.209 121.471 110.882 121.069 110.658C120.677 110.425 120.243 110.308 119.767 110.308C119.291 110.308 118.857 110.42 118.465 110.644C118.073 110.868 117.761 111.195 117.527 111.624C117.294 112.053 117.177 112.557 117.177 113.136C117.177 113.724 117.294 114.237 117.527 114.676C117.761 115.105 118.073 115.437 118.465 115.67C118.857 115.894 119.291 116.006 119.767 116.006C120.243 116.006 120.677 115.894 121.069 115.67C121.471 115.437 121.788 115.105 122.021 114.676C122.255 114.237 122.371 113.729 122.371 113.15ZM128.528 117.126C127.94 117.126 127.413 117.028 126.946 116.832C126.48 116.627 126.111 116.347 125.84 115.992C125.57 115.628 125.42 115.213 125.392 114.746H126.708C126.746 115.129 126.923 115.441 127.24 115.684C127.567 115.927 127.992 116.048 128.514 116.048C129 116.048 129.382 115.941 129.662 115.726C129.942 115.511 130.082 115.241 130.082 114.914C130.082 114.578 129.933 114.331 129.634 114.172C129.336 114.004 128.874 113.841 128.248 113.682C127.679 113.533 127.212 113.383 126.848 113.234C126.494 113.075 126.186 112.847 125.924 112.548C125.672 112.24 125.546 111.839 125.546 111.344C125.546 110.952 125.663 110.593 125.896 110.266C126.13 109.939 126.461 109.683 126.89 109.496C127.32 109.3 127.81 109.202 128.36 109.202C129.21 109.202 129.896 109.417 130.418 109.846C130.941 110.275 131.221 110.863 131.258 111.61H129.984C129.956 111.209 129.793 110.887 129.494 110.644C129.205 110.401 128.813 110.28 128.318 110.28C127.861 110.28 127.497 110.378 127.226 110.574C126.956 110.77 126.82 111.027 126.82 111.344C126.82 111.596 126.9 111.806 127.058 111.974C127.226 112.133 127.432 112.263 127.674 112.366C127.926 112.459 128.272 112.567 128.71 112.688C129.261 112.837 129.709 112.987 130.054 113.136C130.4 113.276 130.694 113.491 130.936 113.78C131.188 114.069 131.319 114.447 131.328 114.914C131.328 115.334 131.212 115.712 130.978 116.048C130.745 116.384 130.414 116.65 129.984 116.846C129.564 117.033 129.079 117.126 128.528 117.126ZM137.411 117L134.401 113.612V117H133.127V106.64H134.401V112.73L137.355 109.328H139.133L135.521 113.15L139.147 117H137.411ZM143.048 117.126C142.46 117.126 141.933 117.028 141.466 116.832C140.999 116.627 140.631 116.347 140.36 115.992C140.089 115.628 139.94 115.213 139.912 114.746H141.228C141.265 115.129 141.443 115.441 141.76 115.684C142.087 115.927 142.511 116.048 143.034 116.048C143.519 116.048 143.902 115.941 144.182 115.726C144.462 115.511 144.602 115.241 144.602 114.914C144.602 114.578 144.453 114.331 144.154 114.172C143.855 114.004 143.393 113.841 142.768 113.682C142.199 113.533 141.732 113.383 141.368 113.234C141.013 113.075 140.705 112.847 140.444 112.548C140.192 112.24 140.066 111.839 140.066 111.344C140.066 110.952 140.183 110.593 140.416 110.266C140.649 109.939 140.981 109.683 141.41 109.496C141.839 109.3 142.329 109.202 142.88 109.202C143.729 109.202 144.415 109.417 144.938 109.846C145.461 110.275 145.741 110.863 145.778 111.61H144.504C144.476 111.209 144.313 110.887 144.014 110.644C143.725 110.401 143.333 110.28 142.838 110.28C142.381 110.28 142.017 110.378 141.746 110.574C141.475 110.77 141.34 111.027 141.34 111.344C141.34 111.596 141.419 111.806 141.578 111.974C141.746 112.133 141.951 112.263 142.194 112.366C142.446 112.459 142.791 112.567 143.23 112.688C143.781 112.837 144.229 112.987 144.574 113.136C144.919 113.276 145.213 113.491 145.456 113.78C145.708 114.069 145.839 114.447 145.848 114.914C145.848 115.334 145.731 115.712 145.498 116.048C145.265 116.384 144.933 116.65 144.504 116.846C144.084 117.033 143.599 117.126 143.048 117.126Z" fill="#8A9099"/>
<path d="M95.2978 137.488L86.4018 158H82.7218L91.7138 137.872H79.8738V134.768H95.2978V137.488ZM102.356 145.808C100.137 144.699 99.028 142.949 99.028 140.56C99.028 139.408 99.316 138.352 99.892 137.392C100.468 136.432 101.332 135.675 102.484 135.12C103.636 134.544 105.044 134.256 106.708 134.256C108.351 134.256 109.748 134.544 110.9 135.12C112.073 135.675 112.948 136.432 113.524 137.392C114.1 138.352 114.388 139.408 114.388 140.56C114.388 141.755 114.079 142.811 113.46 143.728C112.863 144.624 112.063 145.317 111.06 145.808C112.276 146.256 113.236 146.992 113.94 148.016C114.644 149.019 114.996 150.203 114.996 151.568C114.996 152.955 114.644 154.181 113.94 155.248C113.236 156.315 112.255 157.136 110.996 157.712C109.737 158.288 108.308 158.576 106.708 158.576C105.108 158.576 103.679 158.288 102.42 157.712C101.183 157.136 100.212 156.315 99.508 155.248C98.804 154.181 98.452 152.955 98.452 151.568C98.452 150.181 98.804 148.987 99.508 147.984C100.212 146.981 101.161 146.256 102.356 145.808ZM110.9 141.008C110.9 139.813 110.527 138.896 109.78 138.256C109.033 137.616 108.009 137.296 106.708 137.296C105.428 137.296 104.415 137.616 103.668 138.256C102.921 138.896 102.548 139.824 102.548 141.04C102.548 142.107 102.932 142.981 103.7 143.664C104.489 144.325 105.492 144.656 106.708 144.656C107.924 144.656 108.927 144.315 109.716 143.632C110.505 142.949 110.9 142.075 110.9 141.008ZM106.708 147.408C105.3 147.408 104.148 147.76 103.252 148.464C102.377 149.147 101.94 150.139 101.94 151.44C101.94 152.656 102.367 153.648 103.22 154.416C104.073 155.163 105.236 155.536 106.708 155.536C108.159 155.536 109.3 155.152 110.132 154.384C110.985 153.616 111.412 152.635 111.412 151.44C111.412 150.16 110.975 149.168 110.1 148.464C109.247 147.76 108.116 147.408 106.708 147.408ZM118.826 146.032C118.826 142.341 119.445 139.461 120.682 137.392C121.941 135.301 124.096 134.256 127.146 134.256C130.197 134.256 132.341 135.301 133.578 137.392C134.837 139.461 135.466 142.341 135.466 146.032C135.466 149.765 134.837 152.688 133.578 154.8C132.341 156.891 130.197 157.936 127.146 157.936C124.096 157.936 121.941 156.891 120.682 154.8C119.445 152.688 118.826 149.765 118.826 146.032ZM131.882 146.032C131.882 144.304 131.765 142.843 131.53 141.648C131.317 140.453 130.869 139.483 130.186 138.736C129.504 137.968 128.49 137.584 127.146 137.584C125.802 137.584 124.789 137.968 124.106 138.736C123.424 139.483 122.965 140.453 122.73 141.648C122.517 142.843 122.41 144.304 122.41 146.032C122.41 147.824 122.517 149.328 122.73 150.544C122.944 151.76 123.392 152.741 124.074 153.488C124.778 154.235 125.802 154.608 127.146 154.608C128.49 154.608 129.504 154.235 130.186 153.488C130.89 152.741 131.349 151.76 131.562 150.544C131.776 149.328 131.882 147.824 131.882 146.032Z" fill="#3F434A"/>
<mask id="mask1_5340_6383" style="mask-type:luminance" maskUnits="userSpaceOnUse" x="65" y="67" width="4" height="16">
<rect x="65" y="67" width="4" height="16" rx="2" fill="white"/>
</mask>
<g mask="url(#mask1_5340_6383)">
<rect x="65" y="67" width="4" height="16" fill="#304FFD"/>
</g>
<mask id="mask2_5340_6383" style="mask-type:luminance" maskUnits="userSpaceOnUse" x="73" y="63" width="4" height="20">
<rect x="73" y="63" width="4" height="20" rx="2" fill="white"/>
</mask>
<g mask="url(#mask2_5340_6383)">
<rect x="73" y="63" width="4" height="20" fill="#304FFD"/>
</g>
<mask id="mask3_5340_6383" style="mask-type:luminance" maskUnits="userSpaceOnUse" x="81" y="58" width="4" height="25">
<rect x="81" y="58" width="4" height="25" rx="2" fill="white"/>
</mask>
<g mask="url(#mask3_5340_6383)">
<rect x="81" y="58" width="4" height="25" fill="#304FFD"/>
</g>
<mask id="mask4_5340_6383" style="mask-type:luminance" maskUnits="userSpaceOnUse" x="89" y="63" width="4" height="20">
<rect x="89" y="63" width="4" height="20" rx="2" fill="white"/>
</mask>
<g mask="url(#mask4_5340_6383)">
<rect x="89" y="63" width="4" height="20" fill="#304FFD"/>
</g>
<mask id="mask5_5340_6383" style="mask-type:luminance" maskUnits="userSpaceOnUse" x="98" y="58" width="4" height="25">
<rect x="98" y="58" width="4" height="25" rx="2" fill="white"/>
</mask>
<g mask="url(#mask5_5340_6383)">
<rect x="98" y="58" width="4" height="25" fill="#304FFD"/>
</g>
<mask id="mask6_5340_6383" style="mask-type:luminance" maskUnits="userSpaceOnUse" x="106" y="34" width="4" height="49">
<rect x="106" y="34" width="4" height="49" rx="2" fill="white"/>
</mask>
<g mask="url(#mask6_5340_6383)">
<rect x="106" y="34" width="4" height="49" fill="#304FFD"/>
</g>
<mask id="mask7_5340_6383" style="mask-type:luminance" maskUnits="userSpaceOnUse" x="114" y="47" width="4" height="36">
<rect x="114" y="47" width="4" height="36" rx="2" fill="white"/>
</mask>
<g mask="url(#mask7_5340_6383)">
<rect x="114" y="47" width="4" height="36" fill="#304FFD"/>
</g>
<mask id="mask8_5340_6383" style="mask-type:luminance" maskUnits="userSpaceOnUse" x="122" y="62" width="4" height="21">
<rect x="122" y="62" width="4" height="21" rx="2" fill="white"/>
</mask>
<g mask="url(#mask8_5340_6383)">
<rect x="122" y="62" width="4" height="21" fill="#304FFD"/>
</g>
<mask id="mask9_5340_6383" style="mask-type:luminance" maskUnits="userSpaceOnUse" x="130" y="65" width="4" height="18">
<rect x="130" y="65" width="4" height="18" rx="2" fill="white"/>
</mask>
<g mask="url(#mask9_5340_6383)">
<rect x="130" y="65" width="4" height="18" fill="#304FFD"/>
</g>
<mask id="mask10_5340_6383" style="mask-type:luminance" maskUnits="userSpaceOnUse" x="138" y="68" width="4" height="15">
<rect x="138" y="68" width="4" height="15" rx="2" fill="white"/>
</mask>
<g mask="url(#mask10_5340_6383)">
<rect x="138" y="68" width="4" height="15" fill="#304FFD"/>
</g>
<mask id="mask11_5340_6383" style="mask-type:luminance" maskUnits="userSpaceOnUse" x="146" y="62" width="4" height="21">
<rect x="146" y="62" width="4" height="21" rx="2" fill="white"/>
</mask>
<g mask="url(#mask11_5340_6383)">
<rect x="146" y="62" width="4" height="21" fill="#304FFD"/>
</g>
<defs>
<filter id="filter0_d_5340_6383" x="0" y="0" width="208" height="221" filterUnits="userSpaceOnUse" color-interpolation-filters="sRGB">
<feFlood flood-opacity="0" result="BackgroundImageFix"/>
<feColorMatrix in="SourceAlpha" type="matrix" values="0 0 0 0 0 0 0 0 0 0 0 0 0 0 0 0 0 0 127 0" result="hardAlpha"/>
<feOffset dx="-4" dy="8"/>
<feGaussianBlur stdDeviation="12"/>
<feColorMatrix type="matrix" values="0 0 0 0 0.172549 0 0 0 0 0.247059 0 0 0 0 0.345098 0 0 0 0.02 0"/>
<feBlend mode="normal" in2="BackgroundImageFix" result="effect1_dropShadow_5340_6383"/>
<feBlend mode="normal" in="SourceGraphic" in2="effect1_dropShadow_5340_6383" result="shape"/>
</filter>
</defs>
</svg>
