<svg width="383" height="389" viewBox="0 0 383 389" fill="none" xmlns="http://www.w3.org/2000/svg">
<mask id="mask0_5340_5427" style="mask-type:luminance" maskUnits="userSpaceOnUse" x="0" y="0" width="383" height="381">
<rect width="383" height="381" fill="white"/>
</mask>
<g mask="url(#mask0_5340_5427)">
<rect y="1.41406" width="383" height="384.193" fill="white"/>
</g>
<path d="M39.765 131.905C41.035 130.885 42.03 130.05 42.75 129.4C43.47 128.74 44.075 128.055 44.565 127.345C45.065 126.625 45.315 125.92 45.315 125.23C45.315 124.58 45.155 124.07 44.835 123.7C44.525 123.32 44.02 123.13 43.32 123.13C42.64 123.13 42.11 123.345 41.73 123.775C41.36 124.195 41.16 124.76 41.13 125.47H39.81C39.85 124.35 40.19 123.485 40.83 122.875C41.47 122.265 42.295 121.96 43.305 121.96C44.335 121.96 45.15 122.245 45.75 122.815C46.36 123.385 46.665 124.17 46.665 125.17C46.665 126 46.415 126.81 45.915 127.6C45.425 128.38 44.865 129.07 44.235 129.67C43.605 130.26 42.8 130.95 41.82 131.74H46.98V132.88H39.765V131.905ZM50.5379 127.36C49.9779 127.14 49.5479 126.82 49.2479 126.4C48.9479 125.98 48.7979 125.47 48.7979 124.87C48.7979 124.33 48.9329 123.845 49.2029 123.415C49.4729 122.975 49.8729 122.63 50.4029 122.38C50.9429 122.12 51.5929 121.99 52.3529 121.99C53.1129 121.99 53.7579 122.12 54.2879 122.38C54.8279 122.63 55.2329 122.975 55.5029 123.415C55.7829 123.845 55.9229 124.33 55.9229 124.87C55.9229 125.45 55.7679 125.96 55.4579 126.4C55.1479 126.83 54.7229 127.15 54.1829 127.36C54.8029 127.55 55.2929 127.885 55.6529 128.365C56.0229 128.835 56.2079 129.405 56.2079 130.075C56.2079 130.725 56.0479 131.295 55.7279 131.785C55.4079 132.265 54.9529 132.64 54.3629 132.91C53.7829 133.17 53.1129 133.3 52.3529 133.3C51.5929 133.3 50.9229 133.17 50.3429 132.91C49.7729 132.64 49.3279 132.265 49.0079 131.785C48.6879 131.295 48.5279 130.725 48.5279 130.075C48.5279 129.405 48.7079 128.83 49.0679 128.35C49.4279 127.87 49.9179 127.54 50.5379 127.36ZM54.6029 125.035C54.6029 124.425 54.4029 123.955 54.0029 123.625C53.6029 123.295 53.0529 123.13 52.3529 123.13C51.6629 123.13 51.1179 123.295 50.7179 123.625C50.3179 123.955 50.1179 124.43 50.1179 125.05C50.1179 125.61 50.3229 126.06 50.7329 126.4C51.1529 126.74 51.6929 126.91 52.3529 126.91C53.0229 126.91 53.5629 126.74 53.9729 126.4C54.3929 126.05 54.6029 125.595 54.6029 125.035ZM52.3529 127.96C51.6129 127.96 51.0079 128.135 50.5379 128.485C50.0679 128.825 49.8329 129.34 49.8329 130.03C49.8329 130.67 50.0579 131.185 50.5079 131.575C50.9679 131.965 51.5829 132.16 52.3529 132.16C53.1229 132.16 53.7329 131.965 54.1829 131.575C54.6329 131.185 54.8579 130.67 54.8579 130.03C54.8579 129.36 54.6279 128.85 54.1679 128.5C53.7079 128.14 53.1029 127.96 52.3529 127.96Z" fill="#93959C"/>
<path d="M88.6517 131.905C89.9217 130.885 90.9167 130.05 91.6367 129.4C92.3567 128.74 92.9617 128.055 93.4517 127.345C93.9517 126.625 94.2017 125.92 94.2017 125.23C94.2017 124.58 94.0417 124.07 93.7217 123.7C93.4117 123.32 92.9067 123.13 92.2067 123.13C91.5267 123.13 90.9967 123.345 90.6167 123.775C90.2467 124.195 90.0467 124.76 90.0167 125.47H88.6967C88.7367 124.35 89.0767 123.485 89.7167 122.875C90.3567 122.265 91.1817 121.96 92.1917 121.96C93.2217 121.96 94.0367 122.245 94.6367 122.815C95.2467 123.385 95.5517 124.17 95.5517 125.17C95.5517 126 95.3017 126.81 94.8017 127.6C94.3117 128.38 93.7517 129.07 93.1217 129.67C92.4917 130.26 91.6867 130.95 90.7067 131.74H95.8667V132.88H88.6517V131.905ZM99.1996 130.09C99.2996 130.66 99.5296 131.1 99.8896 131.41C100.26 131.72 100.755 131.875 101.375 131.875C102.205 131.875 102.815 131.55 103.205 130.9C103.605 130.25 103.795 129.155 103.775 127.615C103.565 128.065 103.215 128.42 102.725 128.68C102.235 128.93 101.69 129.055 101.09 129.055C100.42 129.055 99.8196 128.92 99.2896 128.65C98.7696 128.37 98.3596 127.965 98.0596 127.435C97.7596 126.905 97.6096 126.265 97.6096 125.515C97.6096 124.445 97.9196 123.585 98.5396 122.935C99.1596 122.275 100.04 121.945 101.18 121.945C102.58 121.945 103.56 122.4 104.12 123.31C104.69 124.22 104.975 125.575 104.975 127.375C104.975 128.635 104.86 129.675 104.63 130.495C104.41 131.315 104.03 131.94 103.49 132.37C102.96 132.8 102.23 133.015 101.3 133.015C100.28 133.015 99.4846 132.74 98.9146 132.19C98.3446 131.64 98.0196 130.94 97.9396 130.09H99.1996ZM101.315 127.9C101.985 127.9 102.535 127.695 102.965 127.285C103.395 126.865 103.61 126.3 103.61 125.59C103.61 124.84 103.4 124.235 102.98 123.775C102.56 123.315 101.97 123.085 101.21 123.085C100.51 123.085 99.9496 123.305 99.5296 123.745C99.1196 124.185 98.9146 124.765 98.9146 125.485C98.9146 126.215 99.1196 126.8 99.5296 127.24C99.9396 127.68 100.535 127.9 101.315 127.9Z" fill="#93959C"/>
<path d="M138.177 124.885C138.247 123.965 138.602 123.245 139.242 122.725C139.882 122.205 140.712 121.945 141.732 121.945C142.412 121.945 142.997 122.07 143.487 122.32C143.987 122.56 144.362 122.89 144.612 123.31C144.872 123.73 145.002 124.205 145.002 124.735C145.002 125.355 144.822 125.89 144.462 126.34C144.112 126.79 143.652 127.08 143.082 127.21V127.285C143.732 127.445 144.247 127.76 144.627 128.23C145.007 128.7 145.197 129.315 145.197 130.075C145.197 130.645 145.067 131.16 144.807 131.62C144.547 132.07 144.157 132.425 143.637 132.685C143.117 132.945 142.492 133.075 141.762 133.075C140.702 133.075 139.832 132.8 139.152 132.25C138.472 131.69 138.092 130.9 138.012 129.88H139.332C139.402 130.48 139.647 130.97 140.067 131.35C140.487 131.73 141.047 131.92 141.747 131.92C142.447 131.92 142.977 131.74 143.337 131.38C143.707 131.01 143.892 130.535 143.892 129.955C143.892 129.205 143.642 128.665 143.142 128.335C142.642 128.005 141.887 127.84 140.877 127.84H140.532V126.7H140.892C141.812 126.69 142.507 126.54 142.977 126.25C143.447 125.95 143.682 125.49 143.682 124.87C143.682 124.34 143.507 123.915 143.157 123.595C142.817 123.275 142.327 123.115 141.687 123.115C141.067 123.115 140.567 123.275 140.187 123.595C139.807 123.915 139.582 124.345 139.512 124.885H138.177ZM147.04 127.465C147.04 125.745 147.32 124.405 147.88 123.445C148.44 122.475 149.42 121.99 150.82 121.99C152.21 121.99 153.185 122.475 153.745 123.445C154.305 124.405 154.585 125.745 154.585 127.465C154.585 129.215 154.305 130.575 153.745 131.545C153.185 132.515 152.21 133 150.82 133C149.42 133 148.44 132.515 147.88 131.545C147.32 130.575 147.04 129.215 147.04 127.465ZM153.235 127.465C153.235 126.595 153.175 125.86 153.055 125.26C152.945 124.65 152.71 124.16 152.35 123.79C152 123.42 151.49 123.235 150.82 123.235C150.14 123.235 149.62 123.42 149.26 123.79C148.91 124.16 148.675 124.65 148.555 125.26C148.445 125.86 148.39 126.595 148.39 127.465C148.39 128.365 148.445 129.12 148.555 129.73C148.675 130.34 148.91 130.83 149.26 131.2C149.62 131.57 150.14 131.755 150.82 131.755C151.49 131.755 152 131.57 152.35 131.2C152.71 130.83 152.945 130.34 153.055 129.73C153.175 129.12 153.235 128.365 153.235 127.465Z" fill="#93959C"/>
<path d="M189.584 124.885C189.654 123.965 190.009 123.245 190.649 122.725C191.289 122.205 192.119 121.945 193.139 121.945C193.819 121.945 194.404 122.07 194.894 122.32C195.394 122.56 195.769 122.89 196.019 123.31C196.279 123.73 196.409 124.205 196.409 124.735C196.409 125.355 196.229 125.89 195.869 126.34C195.519 126.79 195.059 127.08 194.489 127.21V127.285C195.139 127.445 195.654 127.76 196.034 128.23C196.414 128.7 196.604 129.315 196.604 130.075C196.604 130.645 196.474 131.16 196.214 131.62C195.954 132.07 195.564 132.425 195.044 132.685C194.524 132.945 193.899 133.075 193.169 133.075C192.109 133.075 191.239 132.8 190.559 132.25C189.879 131.69 189.499 130.9 189.419 129.88H190.739C190.809 130.48 191.054 130.97 191.474 131.35C191.894 131.73 192.454 131.92 193.154 131.92C193.854 131.92 194.384 131.74 194.744 131.38C195.114 131.01 195.299 130.535 195.299 129.955C195.299 129.205 195.049 128.665 194.549 128.335C194.049 128.005 193.294 127.84 192.284 127.84H191.939V126.7H192.299C193.219 126.69 193.914 126.54 194.384 126.25C194.854 125.95 195.089 125.49 195.089 124.87C195.089 124.34 194.914 123.915 194.564 123.595C194.224 123.275 193.734 123.115 193.094 123.115C192.474 123.115 191.974 123.275 191.594 123.595C191.214 123.915 190.989 124.345 190.919 124.885H189.584ZM198.087 123.4V122.155H200.907V133H199.527V123.4H198.087Z" fill="#93959C"/>
<path d="M243.684 123.4V122.155H246.504V133H245.124V123.4H243.684Z" fill="black"/>
<path d="M291.255 131.905C292.525 130.885 293.52 130.05 294.24 129.4C294.96 128.74 295.565 128.055 296.055 127.345C296.555 126.625 296.805 125.92 296.805 125.23C296.805 124.58 296.645 124.07 296.325 123.7C296.015 123.32 295.51 123.13 294.81 123.13C294.13 123.13 293.6 123.345 293.22 123.775C292.85 124.195 292.65 124.76 292.62 125.47H291.3C291.34 124.35 291.68 123.485 292.32 122.875C292.96 122.265 293.785 121.96 294.795 121.96C295.825 121.96 296.64 122.245 297.24 122.815C297.85 123.385 298.155 124.17 298.155 125.17C298.155 126 297.905 126.81 297.405 127.6C296.915 128.38 296.355 129.07 295.725 129.67C295.095 130.26 294.29 130.95 293.31 131.74H298.47V132.88H291.255V131.905Z" fill="black"/>
<path d="M340.781 124.885C340.851 123.965 341.206 123.245 341.846 122.725C342.486 122.205 343.316 121.945 344.336 121.945C345.016 121.945 345.601 122.07 346.091 122.32C346.591 122.56 346.966 122.89 347.216 123.31C347.476 123.73 347.606 124.205 347.606 124.735C347.606 125.355 347.426 125.89 347.066 126.34C346.716 126.79 346.256 127.08 345.686 127.21V127.285C346.336 127.445 346.851 127.76 347.231 128.23C347.611 128.7 347.801 129.315 347.801 130.075C347.801 130.645 347.671 131.16 347.411 131.62C347.151 132.07 346.761 132.425 346.241 132.685C345.721 132.945 345.096 133.075 344.366 133.075C343.306 133.075 342.436 132.8 341.756 132.25C341.076 131.69 340.696 130.9 340.616 129.88H341.936C342.006 130.48 342.251 130.97 342.671 131.35C343.091 131.73 343.651 131.92 344.351 131.92C345.051 131.92 345.581 131.74 345.941 131.38C346.311 131.01 346.496 130.535 346.496 129.955C346.496 129.205 346.246 128.665 345.746 128.335C345.246 128.005 344.491 127.84 343.481 127.84H343.136V126.7H343.496C344.416 126.69 345.111 126.54 345.581 126.25C346.051 125.95 346.286 125.49 346.286 124.87C346.286 124.34 346.111 123.915 345.761 123.595C345.421 123.275 344.931 123.115 344.291 123.115C343.671 123.115 343.171 123.275 342.791 123.595C342.411 123.915 342.186 124.345 342.116 124.885H340.781Z" fill="black"/>
<mask id="mask1_5340_5427" style="mask-type:luminance" maskUnits="userSpaceOnUse" x="77" y="205" width="42" height="40">
<rect x="77.8066" y="205" width="40.319" height="40" rx="14" fill="white"/>
</mask>
<g mask="url(#mask1_5340_5427)">
<rect x="77.8066" y="205" width="40.319" height="40" fill="#0090FF"/>
</g>
<path d="M43.1273 179.585V178.55L48.3923 171.26H50.0273V178.4H51.5273V179.585H50.0273V182H48.6773V179.585H43.1273ZM48.7373 172.685L44.7023 178.4H48.7373V172.685Z" fill="black"/>
<path d="M100.772 172.34H95.5068V175.76C95.7368 175.44 96.0768 175.18 96.5268 174.98C96.9768 174.77 97.4618 174.665 97.9818 174.665C98.8118 174.665 99.4868 174.84 100.007 175.19C100.527 175.53 100.897 175.975 101.117 176.525C101.347 177.065 101.462 177.64 101.462 178.25C101.462 178.97 101.327 179.615 101.057 180.185C100.787 180.755 100.372 181.205 99.8118 181.535C99.2618 181.865 98.5768 182.03 97.7568 182.03C96.7068 182.03 95.8568 181.76 95.2068 181.22C94.5568 180.68 94.1618 179.96 94.0218 179.06H95.3568C95.4868 179.63 95.7618 180.075 96.1818 180.395C96.6018 180.715 97.1318 180.875 97.7718 180.875C98.5618 180.875 99.1568 180.64 99.5568 180.17C99.9568 179.69 100.157 179.06 100.157 178.28C100.157 177.5 99.9568 176.9 99.5568 176.48C99.1568 176.05 98.5668 175.835 97.7868 175.835C97.2568 175.835 96.7918 175.965 96.3918 176.225C96.0018 176.475 95.7168 176.82 95.5368 177.26H94.2468V171.14H100.772V172.34Z" fill="black"/>
<path d="M148.285 173.735C148.065 172.625 147.38 172.07 146.23 172.07C145.34 172.07 144.675 172.415 144.235 173.105C143.795 173.785 143.58 174.91 143.59 176.48C143.82 175.96 144.2 175.555 144.73 175.265C145.27 174.965 145.87 174.815 146.53 174.815C147.56 174.815 148.38 175.135 148.99 175.775C149.61 176.415 149.92 177.3 149.92 178.43C149.92 179.11 149.785 179.72 149.515 180.26C149.255 180.8 148.855 181.23 148.315 181.55C147.785 181.87 147.14 182.03 146.38 182.03C145.35 182.03 144.545 181.8 143.965 181.34C143.385 180.88 142.98 180.245 142.75 179.435C142.52 178.625 142.405 177.625 142.405 176.435C142.405 172.765 143.685 170.93 146.245 170.93C147.225 170.93 147.995 171.195 148.555 171.725C149.115 172.255 149.445 172.925 149.545 173.735H148.285ZM146.245 175.97C145.815 175.97 145.41 176.06 145.03 176.24C144.65 176.41 144.34 176.675 144.1 177.035C143.87 177.385 143.755 177.815 143.755 178.325C143.755 179.085 143.975 179.705 144.415 180.185C144.855 180.655 145.485 180.89 146.305 180.89C147.005 180.89 147.56 180.675 147.97 180.245C148.39 179.805 148.6 179.215 148.6 178.475C148.6 177.695 148.4 177.085 148 176.645C147.6 176.195 147.015 175.97 146.245 175.97Z" fill="black"/>
<path d="M199.313 172.22L195.143 182H193.763L197.993 172.355H192.203V171.185H199.313V172.22Z" fill="black"/>
<path d="M243.001 176.36C242.441 176.14 242.011 175.82 241.711 175.4C241.411 174.98 241.261 174.47 241.261 173.87C241.261 173.33 241.396 172.845 241.666 172.415C241.936 171.975 242.336 171.63 242.866 171.38C243.406 171.12 244.056 170.99 244.816 170.99C245.576 170.99 246.221 171.12 246.751 171.38C247.291 171.63 247.696 171.975 247.966 172.415C248.246 172.845 248.386 173.33 248.386 173.87C248.386 174.45 248.231 174.96 247.921 175.4C247.611 175.83 247.186 176.15 246.646 176.36C247.266 176.55 247.756 176.885 248.116 177.365C248.486 177.835 248.671 178.405 248.671 179.075C248.671 179.725 248.511 180.295 248.191 180.785C247.871 181.265 247.416 181.64 246.826 181.91C246.246 182.17 245.576 182.3 244.816 182.3C244.056 182.3 243.386 182.17 242.806 181.91C242.236 181.64 241.791 181.265 241.471 180.785C241.151 180.295 240.991 179.725 240.991 179.075C240.991 178.405 241.171 177.83 241.531 177.35C241.891 176.87 242.381 176.54 243.001 176.36ZM247.066 174.035C247.066 173.425 246.866 172.955 246.466 172.625C246.066 172.295 245.516 172.13 244.816 172.13C244.126 172.13 243.581 172.295 243.181 172.625C242.781 172.955 242.581 173.43 242.581 174.05C242.581 174.61 242.786 175.06 243.196 175.4C243.616 175.74 244.156 175.91 244.816 175.91C245.486 175.91 246.026 175.74 246.436 175.4C246.856 175.05 247.066 174.595 247.066 174.035ZM244.816 176.96C244.076 176.96 243.471 177.135 243.001 177.485C242.531 177.825 242.296 178.34 242.296 179.03C242.296 179.67 242.521 180.185 242.971 180.575C243.431 180.965 244.046 181.16 244.816 181.16C245.586 181.16 246.196 180.965 246.646 180.575C247.096 180.185 247.321 179.67 247.321 179.03C247.321 178.36 247.091 177.85 246.631 177.5C246.171 177.14 245.566 176.96 244.816 176.96Z" fill="black"/>
<path d="M292.166 179.09C292.266 179.66 292.496 180.1 292.856 180.41C293.226 180.72 293.721 180.875 294.341 180.875C295.171 180.875 295.781 180.55 296.171 179.9C296.571 179.25 296.761 178.155 296.741 176.615C296.531 177.065 296.181 177.42 295.691 177.68C295.201 177.93 294.656 178.055 294.056 178.055C293.386 178.055 292.786 177.92 292.256 177.65C291.736 177.37 291.326 176.965 291.026 176.435C290.726 175.905 290.576 175.265 290.576 174.515C290.576 173.445 290.886 172.585 291.506 171.935C292.126 171.275 293.006 170.945 294.146 170.945C295.546 170.945 296.526 171.4 297.086 172.31C297.656 173.22 297.941 174.575 297.941 176.375C297.941 177.635 297.826 178.675 297.596 179.495C297.376 180.315 296.996 180.94 296.456 181.37C295.926 181.8 295.196 182.015 294.266 182.015C293.246 182.015 292.451 181.74 291.881 181.19C291.311 180.64 290.986 179.94 290.906 179.09H292.166ZM294.281 176.9C294.951 176.9 295.501 176.695 295.931 176.285C296.361 175.865 296.576 175.3 296.576 174.59C296.576 173.84 296.366 173.235 295.946 172.775C295.526 172.315 294.936 172.085 294.176 172.085C293.476 172.085 292.916 172.305 292.496 172.745C292.086 173.185 291.881 173.765 291.881 174.485C291.881 175.215 292.086 175.8 292.496 176.24C292.906 176.68 293.501 176.9 294.281 176.9Z" fill="black"/>
<path d="M337.426 172.4V171.155H340.246V182H338.866V172.4H337.426ZM342.591 176.465C342.591 174.745 342.871 173.405 343.431 172.445C343.991 171.475 344.971 170.99 346.371 170.99C347.761 170.99 348.736 171.475 349.296 172.445C349.856 173.405 350.136 174.745 350.136 176.465C350.136 178.215 349.856 179.575 349.296 180.545C348.736 181.515 347.761 182 346.371 182C344.971 182 343.991 181.515 343.431 180.545C342.871 179.575 342.591 178.215 342.591 176.465ZM348.786 176.465C348.786 175.595 348.726 174.86 348.606 174.26C348.496 173.65 348.261 173.16 347.901 172.79C347.551 172.42 347.041 172.235 346.371 172.235C345.691 172.235 345.171 172.42 344.811 172.79C344.461 173.16 344.226 173.65 344.106 174.26C343.996 174.86 343.941 175.595 343.941 176.465C343.941 177.365 343.996 178.12 344.106 178.73C344.226 179.34 344.461 179.83 344.811 180.2C345.171 180.57 345.691 180.755 346.371 180.755C347.041 180.755 347.551 180.57 347.901 180.2C348.261 179.83 348.496 179.34 348.606 178.73C348.726 178.12 348.786 177.365 348.786 176.465Z" fill="black"/>
<path d="M43.0973 221.4V220.155H45.9173V231H44.5373V221.4H43.0973ZM47.902 221.4V220.155H50.722V231H49.342V221.4H47.902Z" fill="black"/>
<path d="M42.0905 294.4V293.155H44.9105V304H43.5305V294.4H42.0905ZM49.2352 298.36C48.6752 298.14 48.2452 297.82 47.9452 297.4C47.6452 296.98 47.4952 296.47 47.4952 295.87C47.4952 295.33 47.6302 294.845 47.9002 294.415C48.1702 293.975 48.5702 293.63 49.1002 293.38C49.6402 293.12 50.2902 292.99 51.0502 292.99C51.8102 292.99 52.4552 293.12 52.9852 293.38C53.5252 293.63 53.9302 293.975 54.2002 294.415C54.4802 294.845 54.6202 295.33 54.6202 295.87C54.6202 296.45 54.4652 296.96 54.1552 297.4C53.8452 297.83 53.4202 298.15 52.8802 298.36C53.5002 298.55 53.9902 298.885 54.3502 299.365C54.7202 299.835 54.9052 300.405 54.9052 301.075C54.9052 301.725 54.7452 302.295 54.4252 302.785C54.1052 303.265 53.6502 303.64 53.0602 303.91C52.4802 304.17 51.8102 304.3 51.0502 304.3C50.2902 304.3 49.6202 304.17 49.0402 303.91C48.4702 303.64 48.0252 303.265 47.7052 302.785C47.3852 302.295 47.2252 301.725 47.2252 301.075C47.2252 300.405 47.4052 299.83 47.7652 299.35C48.1252 298.87 48.6152 298.54 49.2352 298.36ZM53.3002 296.035C53.3002 295.425 53.1002 294.955 52.7002 294.625C52.3002 294.295 51.7502 294.13 51.0502 294.13C50.3602 294.13 49.8152 294.295 49.4152 294.625C49.0152 294.955 48.8152 295.43 48.8152 296.05C48.8152 296.61 49.0202 297.06 49.4302 297.4C49.8502 297.74 50.3902 297.91 51.0502 297.91C51.7202 297.91 52.2602 297.74 52.6702 297.4C53.0902 297.05 53.3002 296.595 53.3002 296.035ZM51.0502 298.96C50.3102 298.96 49.7052 299.135 49.2352 299.485C48.7652 299.825 48.5302 300.34 48.5302 301.03C48.5302 301.67 48.7552 302.185 49.2052 302.575C49.6652 302.965 50.2802 303.16 51.0502 303.16C51.8202 303.16 52.4302 302.965 52.8802 302.575C53.3302 302.185 53.5552 301.67 53.5552 301.03C53.5552 300.36 53.3252 299.85 52.8652 299.5C52.4052 299.14 51.8002 298.96 51.0502 298.96Z" fill="black"/>
<path d="M40.2689 351.905C41.5389 350.885 42.5339 350.05 43.2539 349.4C43.9739 348.74 44.5789 348.055 45.0689 347.345C45.5689 346.625 45.8189 345.92 45.8189 345.23C45.8189 344.58 45.6589 344.07 45.3389 343.7C45.0289 343.32 44.5239 343.13 43.8239 343.13C43.1439 343.13 42.6139 343.345 42.2339 343.775C41.8639 344.195 41.6639 344.76 41.6339 345.47H40.3139C40.3539 344.35 40.6939 343.485 41.3339 342.875C41.9739 342.265 42.7989 341.96 43.8089 341.96C44.8389 341.96 45.6539 342.245 46.2539 342.815C46.8639 343.385 47.1689 344.17 47.1689 345.17C47.1689 346 46.9189 346.81 46.4189 347.6C45.9289 348.38 45.3689 349.07 44.7389 349.67C44.1089 350.26 43.3039 350.95 42.3239 351.74H47.4839V352.88H40.2689V351.905ZM55.9768 343.34H50.7118V346.76C50.9418 346.44 51.2818 346.18 51.7318 345.98C52.1818 345.77 52.6668 345.665 53.1868 345.665C54.0168 345.665 54.6918 345.84 55.2118 346.19C55.7318 346.53 56.1018 346.975 56.3218 347.525C56.5518 348.065 56.6668 348.64 56.6668 349.25C56.6668 349.97 56.5318 350.615 56.2618 351.185C55.9918 351.755 55.5768 352.205 55.0168 352.535C54.4668 352.865 53.7818 353.03 52.9618 353.03C51.9118 353.03 51.0618 352.76 50.4118 352.22C49.7618 351.68 49.3668 350.96 49.2268 350.06H50.5618C50.6918 350.63 50.9668 351.075 51.3868 351.395C51.8068 351.715 52.3368 351.875 52.9768 351.875C53.7668 351.875 54.3618 351.64 54.7618 351.17C55.1618 350.69 55.3618 350.06 55.3618 349.28C55.3618 348.5 55.1618 347.9 54.7618 347.48C54.3618 347.05 53.7718 346.835 52.9918 346.835C52.4618 346.835 51.9968 346.965 51.5968 347.225C51.2068 347.475 50.9218 347.82 50.7418 348.26H49.4518V342.14H55.9768V343.34Z" fill="black"/>
<path d="M89.6595 351.905C90.9295 350.885 91.9245 350.05 92.6445 349.4C93.3645 348.74 93.9695 348.055 94.4595 347.345C94.9595 346.625 95.2095 345.92 95.2095 345.23C95.2095 344.58 95.0495 344.07 94.7295 343.7C94.4195 343.32 93.9145 343.13 93.2145 343.13C92.5345 343.13 92.0045 343.345 91.6245 343.775C91.2545 344.195 91.0545 344.76 91.0245 345.47H89.7045C89.7445 344.35 90.0845 343.485 90.7245 342.875C91.3645 342.265 92.1895 341.96 93.1995 341.96C94.2295 341.96 95.0445 342.245 95.6445 342.815C96.2545 343.385 96.5595 344.17 96.5595 345.17C96.5595 346 96.3095 346.81 95.8095 347.6C95.3195 348.38 94.7595 349.07 94.1295 349.67C93.4995 350.26 92.6945 350.95 91.7145 351.74H96.8745V352.88H89.6595V351.905ZM104.497 344.735C104.277 343.625 103.592 343.07 102.442 343.07C101.552 343.07 100.887 343.415 100.447 344.105C100.007 344.785 99.7925 345.91 99.8025 347.48C100.032 346.96 100.412 346.555 100.942 346.265C101.482 345.965 102.082 345.815 102.742 345.815C103.772 345.815 104.592 346.135 105.202 346.775C105.822 347.415 106.132 348.3 106.132 349.43C106.132 350.11 105.997 350.72 105.727 351.26C105.467 351.8 105.067 352.23 104.527 352.55C103.997 352.87 103.352 353.03 102.592 353.03C101.562 353.03 100.757 352.8 100.177 352.34C99.5975 351.88 99.1925 351.245 98.9625 350.435C98.7325 349.625 98.6175 348.625 98.6175 347.435C98.6175 343.765 99.8975 341.93 102.457 341.93C103.437 341.93 104.207 342.195 104.767 342.725C105.327 343.255 105.657 343.925 105.757 344.735H104.497ZM102.457 346.97C102.027 346.97 101.622 347.06 101.242 347.24C100.862 347.41 100.552 347.675 100.312 348.035C100.082 348.385 99.9675 348.815 99.9675 349.325C99.9675 350.085 100.187 350.705 100.627 351.185C101.067 351.655 101.697 351.89 102.517 351.89C103.217 351.89 103.772 351.675 104.182 351.245C104.602 350.805 104.812 350.215 104.812 349.475C104.812 348.695 104.612 348.085 104.212 347.645C103.812 347.195 103.227 346.97 102.457 346.97Z" fill="black"/>
<path d="M140.059 351.905C141.329 350.885 142.324 350.05 143.044 349.4C143.764 348.74 144.369 348.055 144.859 347.345C145.359 346.625 145.609 345.92 145.609 345.23C145.609 344.58 145.449 344.07 145.129 343.7C144.819 343.32 144.314 343.13 143.614 343.13C142.934 343.13 142.404 343.345 142.024 343.775C141.654 344.195 141.454 344.76 141.424 345.47H140.104C140.144 344.35 140.484 343.485 141.124 342.875C141.764 342.265 142.589 341.96 143.599 341.96C144.629 341.96 145.444 342.245 146.044 342.815C146.654 343.385 146.959 344.17 146.959 345.17C146.959 346 146.709 346.81 146.209 347.6C145.719 348.38 145.159 349.07 144.529 349.67C143.899 350.26 143.094 350.95 142.114 351.74H147.274V352.88H140.059V351.905ZM155.527 343.22L151.357 353H149.977L154.207 343.355H148.417V342.185H155.527V343.22Z" fill="black"/>
<path d="M188.442 351.905C189.712 350.885 190.707 350.05 191.427 349.4C192.147 348.74 192.752 348.055 193.242 347.345C193.742 346.625 193.992 345.92 193.992 345.23C193.992 344.58 193.832 344.07 193.512 343.7C193.202 343.32 192.697 343.13 191.997 343.13C191.317 343.13 190.787 343.345 190.407 343.775C190.037 344.195 189.837 344.76 189.807 345.47H188.487C188.527 344.35 188.867 343.485 189.507 342.875C190.147 342.265 190.972 341.96 191.982 341.96C193.012 341.96 193.827 342.245 194.427 342.815C195.037 343.385 195.342 344.17 195.342 345.17C195.342 346 195.092 346.81 194.592 347.6C194.102 348.38 193.542 349.07 192.912 349.67C192.282 350.26 191.477 350.95 190.497 351.74H195.657V352.88H188.442V351.905ZM199.215 347.36C198.655 347.14 198.225 346.82 197.925 346.4C197.625 345.98 197.475 345.47 197.475 344.87C197.475 344.33 197.61 343.845 197.88 343.415C198.15 342.975 198.55 342.63 199.08 342.38C199.62 342.12 200.27 341.99 201.03 341.99C201.79 341.99 202.435 342.12 202.965 342.38C203.505 342.63 203.91 342.975 204.18 343.415C204.46 343.845 204.6 344.33 204.6 344.87C204.6 345.45 204.445 345.96 204.135 346.4C203.825 346.83 203.4 347.15 202.86 347.36C203.48 347.55 203.97 347.885 204.33 348.365C204.7 348.835 204.885 349.405 204.885 350.075C204.885 350.725 204.725 351.295 204.405 351.785C204.085 352.265 203.63 352.64 203.04 352.91C202.46 353.17 201.79 353.3 201.03 353.3C200.27 353.3 199.6 353.17 199.02 352.91C198.45 352.64 198.005 352.265 197.685 351.785C197.365 351.295 197.205 350.725 197.205 350.075C197.205 349.405 197.385 348.83 197.745 348.35C198.105 347.87 198.595 347.54 199.215 347.36ZM203.28 345.035C203.28 344.425 203.08 343.955 202.68 343.625C202.28 343.295 201.73 343.13 201.03 343.13C200.34 343.13 199.795 343.295 199.395 343.625C198.995 343.955 198.795 344.43 198.795 345.05C198.795 345.61 199 346.06 199.41 346.4C199.83 346.74 200.37 346.91 201.03 346.91C201.7 346.91 202.24 346.74 202.65 346.4C203.07 346.05 203.28 345.595 203.28 345.035ZM201.03 347.96C200.29 347.96 199.685 348.135 199.215 348.485C198.745 348.825 198.51 349.34 198.51 350.03C198.51 350.67 198.735 351.185 199.185 351.575C199.645 351.965 200.26 352.16 201.03 352.16C201.8 352.16 202.41 351.965 202.86 351.575C203.31 351.185 203.535 350.67 203.535 350.03C203.535 349.36 203.305 348.85 202.845 348.5C202.385 348.14 201.78 347.96 201.03 347.96Z" fill="black"/>
<path d="M237.831 351.905C239.101 350.885 240.096 350.05 240.816 349.4C241.536 348.74 242.141 348.055 242.631 347.345C243.131 346.625 243.381 345.92 243.381 345.23C243.381 344.58 243.221 344.07 242.901 343.7C242.591 343.32 242.086 343.13 241.386 343.13C240.706 343.13 240.176 343.345 239.796 343.775C239.426 344.195 239.226 344.76 239.196 345.47H237.876C237.916 344.35 238.256 343.485 238.896 342.875C239.536 342.265 240.361 341.96 241.371 341.96C242.401 341.96 243.216 342.245 243.816 342.815C244.426 343.385 244.731 344.17 244.731 345.17C244.731 346 244.481 346.81 243.981 347.6C243.491 348.38 242.931 349.07 242.301 349.67C241.671 350.26 240.866 350.95 239.886 351.74H245.046V352.88H237.831V351.905ZM248.379 350.09C248.479 350.66 248.709 351.1 249.069 351.41C249.439 351.72 249.934 351.875 250.554 351.875C251.384 351.875 251.994 351.55 252.384 350.9C252.784 350.25 252.974 349.155 252.954 347.615C252.744 348.065 252.394 348.42 251.904 348.68C251.414 348.93 250.869 349.055 250.269 349.055C249.599 349.055 248.999 348.92 248.469 348.65C247.949 348.37 247.539 347.965 247.239 347.435C246.939 346.905 246.789 346.265 246.789 345.515C246.789 344.445 247.099 343.585 247.719 342.935C248.339 342.275 249.219 341.945 250.359 341.945C251.759 341.945 252.739 342.4 253.299 343.31C253.869 344.22 254.154 345.575 254.154 347.375C254.154 348.635 254.039 349.675 253.809 350.495C253.589 351.315 253.209 351.94 252.669 352.37C252.139 352.8 251.409 353.015 250.479 353.015C249.459 353.015 248.664 352.74 248.094 352.19C247.524 351.64 247.199 350.94 247.119 350.09H248.379ZM250.494 347.9C251.164 347.9 251.714 347.695 252.144 347.285C252.574 346.865 252.789 346.3 252.789 345.59C252.789 344.84 252.579 344.235 252.159 343.775C251.739 343.315 251.149 343.085 250.389 343.085C249.689 343.085 249.129 343.305 248.709 343.745C248.299 344.185 248.094 344.765 248.094 345.485C248.094 346.215 248.299 346.8 248.709 347.24C249.119 347.68 249.714 347.9 250.494 347.9Z" fill="black"/>
<path d="M287.357 344.885C287.427 343.965 287.782 343.245 288.422 342.725C289.062 342.205 289.892 341.945 290.912 341.945C291.592 341.945 292.177 342.07 292.667 342.32C293.167 342.56 293.542 342.89 293.792 343.31C294.052 343.73 294.182 344.205 294.182 344.735C294.182 345.355 294.002 345.89 293.642 346.34C293.292 346.79 292.832 347.08 292.262 347.21V347.285C292.912 347.445 293.427 347.76 293.807 348.23C294.187 348.7 294.377 349.315 294.377 350.075C294.377 350.645 294.247 351.16 293.987 351.62C293.727 352.07 293.337 352.425 292.817 352.685C292.297 352.945 291.672 353.075 290.942 353.075C289.882 353.075 289.012 352.8 288.332 352.25C287.652 351.69 287.272 350.9 287.192 349.88H288.512C288.582 350.48 288.827 350.97 289.247 351.35C289.667 351.73 290.227 351.92 290.927 351.92C291.627 351.92 292.157 351.74 292.517 351.38C292.887 351.01 293.072 350.535 293.072 349.955C293.072 349.205 292.822 348.665 292.322 348.335C291.822 348.005 291.067 347.84 290.057 347.84H289.712V346.7H290.072C290.992 346.69 291.687 346.54 292.157 346.25C292.627 345.95 292.862 345.49 292.862 344.87C292.862 344.34 292.687 343.915 292.337 343.595C291.997 343.275 291.507 343.115 290.867 343.115C290.247 343.115 289.747 343.275 289.367 343.595C288.987 343.915 288.762 344.345 288.692 344.885H287.357ZM296.22 347.465C296.22 345.745 296.5 344.405 297.06 343.445C297.62 342.475 298.6 341.99 300 341.99C301.39 341.99 302.365 342.475 302.925 343.445C303.485 344.405 303.765 345.745 303.765 347.465C303.765 349.215 303.485 350.575 302.925 351.545C302.365 352.515 301.39 353 300 353C298.6 353 297.62 352.515 297.06 351.545C296.5 350.575 296.22 349.215 296.22 347.465ZM302.415 347.465C302.415 346.595 302.355 345.86 302.235 345.26C302.125 344.65 301.89 344.16 301.53 343.79C301.18 343.42 300.67 343.235 300 343.235C299.32 343.235 298.8 343.42 298.44 343.79C298.09 344.16 297.855 344.65 297.735 345.26C297.625 345.86 297.57 346.595 297.57 347.465C297.57 348.365 297.625 349.12 297.735 349.73C297.855 350.34 298.09 350.83 298.44 351.2C298.8 351.57 299.32 351.755 300 351.755C300.67 351.755 301.18 351.57 301.53 351.2C301.89 350.83 302.125 350.34 302.235 349.73C302.355 349.12 302.415 348.365 302.415 347.465Z" fill="black"/>
<path d="M343.474 343.4V342.155H346.294V353H344.914V343.4H343.474Z" fill="#93959C"/>
<path d="M91.4802 294.4V293.155H94.3002V304H92.9202V294.4H91.4802ZM98.3998 301.09C98.4998 301.66 98.7298 302.1 99.0898 302.41C99.4598 302.72 99.9548 302.875 100.575 302.875C101.405 302.875 102.015 302.55 102.405 301.9C102.805 301.25 102.995 300.155 102.975 298.615C102.765 299.065 102.415 299.42 101.925 299.68C101.435 299.93 100.89 300.055 100.29 300.055C99.6198 300.055 99.0198 299.92 98.4898 299.65C97.9698 299.37 97.5598 298.965 97.2598 298.435C96.9598 297.905 96.8098 297.265 96.8098 296.515C96.8098 295.445 97.1198 294.585 97.7398 293.935C98.3598 293.275 99.2398 292.945 100.38 292.945C101.78 292.945 102.76 293.4 103.32 294.31C103.89 295.22 104.175 296.575 104.175 298.375C104.175 299.635 104.06 300.675 103.83 301.495C103.61 302.315 103.23 302.94 102.69 303.37C102.16 303.8 101.43 304.015 100.5 304.015C99.4798 304.015 98.6848 303.74 98.1148 303.19C97.5448 302.64 97.2198 301.94 97.1398 301.09H98.3998ZM100.515 298.9C101.185 298.9 101.735 298.695 102.165 298.285C102.595 297.865 102.81 297.3 102.81 296.59C102.81 295.84 102.6 295.235 102.18 294.775C101.76 294.315 101.17 294.085 100.41 294.085C99.7098 294.085 99.1498 294.305 98.7298 294.745C98.3198 295.185 98.1148 295.765 98.1148 296.485C98.1148 297.215 98.3198 297.8 98.7298 298.24C99.1398 298.68 99.7348 298.9 100.515 298.9Z" fill="black"/>
<path d="M139.05 302.905C140.32 301.885 141.315 301.05 142.035 300.4C142.755 299.74 143.36 299.055 143.85 298.345C144.35 297.625 144.6 296.92 144.6 296.23C144.6 295.58 144.44 295.07 144.12 294.7C143.81 294.32 143.305 294.13 142.605 294.13C141.925 294.13 141.395 294.345 141.015 294.775C140.645 295.195 140.445 295.76 140.415 296.47H139.095C139.135 295.35 139.475 294.485 140.115 293.875C140.755 293.265 141.58 292.96 142.59 292.96C143.62 292.96 144.435 293.245 145.035 293.815C145.645 294.385 145.95 295.17 145.95 296.17C145.95 297 145.7 297.81 145.2 298.6C144.71 299.38 144.15 300.07 143.52 300.67C142.89 301.26 142.085 301.95 141.105 302.74H146.265V303.88H139.05V302.905ZM147.843 298.465C147.843 296.745 148.123 295.405 148.683 294.445C149.243 293.475 150.223 292.99 151.623 292.99C153.013 292.99 153.988 293.475 154.548 294.445C155.108 295.405 155.388 296.745 155.388 298.465C155.388 300.215 155.108 301.575 154.548 302.545C153.988 303.515 153.013 304 151.623 304C150.223 304 149.243 303.515 148.683 302.545C148.123 301.575 147.843 300.215 147.843 298.465ZM154.038 298.465C154.038 297.595 153.978 296.86 153.858 296.26C153.748 295.65 153.513 295.16 153.153 294.79C152.803 294.42 152.293 294.235 151.623 294.235C150.943 294.235 150.423 294.42 150.063 294.79C149.713 295.16 149.478 295.65 149.358 296.26C149.248 296.86 149.193 297.595 149.193 298.465C149.193 299.365 149.248 300.12 149.358 300.73C149.478 301.34 149.713 301.83 150.063 302.2C150.423 302.57 150.943 302.755 151.623 302.755C152.293 302.755 152.803 302.57 153.153 302.2C153.513 301.83 153.748 301.34 153.858 300.73C153.978 300.12 154.038 299.365 154.038 298.465Z" fill="black"/>
<path d="M190.457 302.905C191.727 301.885 192.722 301.05 193.442 300.4C194.162 299.74 194.767 299.055 195.257 298.345C195.757 297.625 196.007 296.92 196.007 296.23C196.007 295.58 195.847 295.07 195.527 294.7C195.217 294.32 194.712 294.13 194.012 294.13C193.332 294.13 192.802 294.345 192.422 294.775C192.052 295.195 191.852 295.76 191.822 296.47H190.502C190.542 295.35 190.882 294.485 191.522 293.875C192.162 293.265 192.987 292.96 193.997 292.96C195.027 292.96 195.842 293.245 196.442 293.815C197.052 294.385 197.357 295.17 197.357 296.17C197.357 297 197.107 297.81 196.607 298.6C196.117 299.38 195.557 300.07 194.927 300.67C194.297 301.26 193.492 301.95 192.512 302.74H197.672V303.88H190.457V302.905ZM198.89 294.4V293.155H201.71V304H200.33V294.4H198.89Z" fill="black"/>
<path d="M237.831 302.905C239.101 301.885 240.096 301.05 240.816 300.4C241.536 299.74 242.141 299.055 242.631 298.345C243.131 297.625 243.381 296.92 243.381 296.23C243.381 295.58 243.221 295.07 242.901 294.7C242.591 294.32 242.086 294.13 241.386 294.13C240.706 294.13 240.176 294.345 239.796 294.775C239.426 295.195 239.226 295.76 239.196 296.47H237.876C237.916 295.35 238.256 294.485 238.896 293.875C239.536 293.265 240.361 292.96 241.371 292.96C242.401 292.96 243.216 293.245 243.816 293.815C244.426 294.385 244.731 295.17 244.731 296.17C244.731 297 244.481 297.81 243.981 298.6C243.491 299.38 242.931 300.07 242.301 300.67C241.671 301.26 240.866 301.95 239.886 302.74H245.046V303.88H237.831V302.905ZM246.459 302.905C247.729 301.885 248.724 301.05 249.444 300.4C250.164 299.74 250.769 299.055 251.259 298.345C251.759 297.625 252.009 296.92 252.009 296.23C252.009 295.58 251.849 295.07 251.529 294.7C251.219 294.32 250.714 294.13 250.014 294.13C249.334 294.13 248.804 294.345 248.424 294.775C248.054 295.195 247.854 295.76 247.824 296.47H246.504C246.544 295.35 246.884 294.485 247.524 293.875C248.164 293.265 248.989 292.96 249.999 292.96C251.029 292.96 251.844 293.245 252.444 293.815C253.054 294.385 253.359 295.17 253.359 296.17C253.359 297 253.109 297.81 252.609 298.6C252.119 299.38 251.559 300.07 250.929 300.67C250.299 301.26 249.494 301.95 248.514 302.74H253.674V303.88H246.459V302.905Z" fill="black"/>
<path d="M287.222 302.905C288.492 301.885 289.487 301.05 290.207 300.4C290.927 299.74 291.532 299.055 292.022 298.345C292.522 297.625 292.772 296.92 292.772 296.23C292.772 295.58 292.612 295.07 292.292 294.7C291.982 294.32 291.477 294.13 290.777 294.13C290.097 294.13 289.567 294.345 289.187 294.775C288.817 295.195 288.617 295.76 288.587 296.47H287.267C287.307 295.35 287.647 294.485 288.287 293.875C288.927 293.265 289.752 292.96 290.762 292.96C291.792 292.96 292.607 293.245 293.207 293.815C293.817 294.385 294.122 295.17 294.122 296.17C294.122 297 293.872 297.81 293.372 298.6C292.882 299.38 292.322 300.07 291.692 300.67C291.062 301.26 290.257 301.95 289.277 302.74H294.437V303.88H287.222V302.905ZM295.985 295.885C296.055 294.965 296.41 294.245 297.05 293.725C297.69 293.205 298.52 292.945 299.54 292.945C300.22 292.945 300.805 293.07 301.295 293.32C301.795 293.56 302.17 293.89 302.42 294.31C302.68 294.73 302.81 295.205 302.81 295.735C302.81 296.355 302.63 296.89 302.27 297.34C301.92 297.79 301.46 298.08 300.89 298.21V298.285C301.54 298.445 302.055 298.76 302.435 299.23C302.815 299.7 303.005 300.315 303.005 301.075C303.005 301.645 302.875 302.16 302.615 302.62C302.355 303.07 301.965 303.425 301.445 303.685C300.925 303.945 300.3 304.075 299.57 304.075C298.51 304.075 297.64 303.8 296.96 303.25C296.28 302.69 295.9 301.9 295.82 300.88H297.14C297.21 301.48 297.455 301.97 297.875 302.35C298.295 302.73 298.855 302.92 299.555 302.92C300.255 302.92 300.785 302.74 301.145 302.38C301.515 302.01 301.7 301.535 301.7 300.955C301.7 300.205 301.45 299.665 300.95 299.335C300.45 299.005 299.695 298.84 298.685 298.84H298.34V297.7H298.7C299.62 297.69 300.315 297.54 300.785 297.25C301.255 296.95 301.49 296.49 301.49 295.87C301.49 295.34 301.315 294.915 300.965 294.595C300.625 294.275 300.135 294.115 299.495 294.115C298.875 294.115 298.375 294.275 297.995 294.595C297.615 294.915 297.39 295.345 297.32 295.885H295.985Z" fill="black"/>
<path d="M336.614 302.905C337.884 301.885 338.879 301.05 339.599 300.4C340.319 299.74 340.924 299.055 341.414 298.345C341.914 297.625 342.164 296.92 342.164 296.23C342.164 295.58 342.004 295.07 341.684 294.7C341.374 294.32 340.869 294.13 340.169 294.13C339.489 294.13 338.959 294.345 338.579 294.775C338.209 295.195 338.009 295.76 337.979 296.47H336.659C336.699 295.35 337.039 294.485 337.679 293.875C338.319 293.265 339.144 292.96 340.154 292.96C341.184 292.96 341.999 293.245 342.599 293.815C343.209 294.385 343.514 295.17 343.514 296.17C343.514 297 343.264 297.81 342.764 298.6C342.274 299.38 341.714 300.07 341.084 300.67C340.454 301.26 339.649 301.95 338.669 302.74H343.829V303.88H336.614V302.905ZM345.077 301.585V300.55L350.342 293.26H351.977V300.4H353.477V301.585H351.977V304H350.627V301.585H345.077ZM350.687 294.685L346.652 300.4H350.687V294.685Z" fill="black"/>
<path d="M91.5852 221.625V220.065H94.7052V231H92.9802V221.625H91.5852ZM97.9993 228.675C98.9593 227.845 99.7143 227.165 100.264 226.635C100.824 226.095 101.289 225.535 101.659 224.955C102.029 224.375 102.214 223.795 102.214 223.215C102.214 222.615 102.069 222.145 101.779 221.805C101.499 221.465 101.054 221.295 100.444 221.295C99.8543 221.295 99.3943 221.485 99.0643 221.865C98.7443 222.235 98.5743 222.735 98.5543 223.365H96.9043C96.9343 222.225 97.2743 221.355 97.9243 220.755C98.5843 220.145 99.4193 219.84 100.429 219.84C101.519 219.84 102.369 220.14 102.979 220.74C103.599 221.34 103.909 222.14 103.909 223.14C103.909 223.86 103.724 224.555 103.354 225.225C102.994 225.885 102.559 226.48 102.049 227.01C101.549 227.53 100.909 228.135 100.129 228.825L99.4543 229.425H104.209V230.85H96.9193V229.605L97.9993 228.675Z" fill="white"/>
<path d="M139.864 221.4V220.155H142.684V231H141.304V221.4H139.864ZM144.999 222.885C145.069 221.965 145.424 221.245 146.064 220.725C146.704 220.205 147.534 219.945 148.554 219.945C149.234 219.945 149.819 220.07 150.309 220.32C150.809 220.56 151.184 220.89 151.434 221.31C151.694 221.73 151.824 222.205 151.824 222.735C151.824 223.355 151.644 223.89 151.284 224.34C150.934 224.79 150.474 225.08 149.904 225.21V225.285C150.554 225.445 151.069 225.76 151.449 226.23C151.829 226.7 152.019 227.315 152.019 228.075C152.019 228.645 151.889 229.16 151.629 229.62C151.369 230.07 150.979 230.425 150.459 230.685C149.939 230.945 149.314 231.075 148.584 231.075C147.524 231.075 146.654 230.8 145.974 230.25C145.294 229.69 144.914 228.9 144.834 227.88H146.154C146.224 228.48 146.469 228.97 146.889 229.35C147.309 229.73 147.869 229.92 148.569 229.92C149.269 229.92 149.799 229.74 150.159 229.38C150.529 229.01 150.714 228.535 150.714 227.955C150.714 227.205 150.464 226.665 149.964 226.335C149.464 226.005 148.709 225.84 147.699 225.84H147.354V224.7H147.714C148.634 224.69 149.329 224.54 149.799 224.25C150.269 223.95 150.504 223.49 150.504 222.87C150.504 222.34 150.329 221.915 149.979 221.595C149.639 221.275 149.149 221.115 148.509 221.115C147.889 221.115 147.389 221.275 147.009 221.595C146.629 221.915 146.404 222.345 146.334 222.885H144.999Z" fill="black"/>
<path d="M189.254 221.4V220.155H192.074V231H190.694V221.4H189.254ZM194.088 228.585V227.55L199.353 220.26H200.988V227.4H202.488V228.585H200.988V231H199.638V228.585H194.088ZM199.698 221.685L195.663 227.4H199.698V221.685Z" fill="black"/>
<path d="M238.645 221.4V220.155H241.465V231H240.085V221.4H238.645ZM250.725 221.34H245.46V224.76C245.69 224.44 246.03 224.18 246.48 223.98C246.93 223.77 247.415 223.665 247.935 223.665C248.765 223.665 249.44 223.84 249.96 224.19C250.48 224.53 250.85 224.975 251.07 225.525C251.3 226.065 251.415 226.64 251.415 227.25C251.415 227.97 251.28 228.615 251.01 229.185C250.74 229.755 250.325 230.205 249.765 230.535C249.215 230.865 248.53 231.03 247.71 231.03C246.66 231.03 245.81 230.76 245.16 230.22C244.51 229.68 244.115 228.96 243.975 228.06H245.31C245.44 228.63 245.715 229.075 246.135 229.395C246.555 229.715 247.085 229.875 247.725 229.875C248.515 229.875 249.11 229.64 249.51 229.17C249.91 228.69 250.11 228.06 250.11 227.28C250.11 226.5 249.91 225.9 249.51 225.48C249.11 225.05 248.52 224.835 247.74 224.835C247.21 224.835 246.745 224.965 246.345 225.225C245.955 225.475 245.67 225.82 245.49 226.26H244.2V220.14H250.725V221.34Z" fill="black"/>
<path d="M288.036 221.4V220.155H290.856V231H289.476V221.4H288.036ZM299.246 222.735C299.026 221.625 298.341 221.07 297.191 221.07C296.301 221.07 295.636 221.415 295.196 222.105C294.756 222.785 294.541 223.91 294.551 225.48C294.781 224.96 295.161 224.555 295.691 224.265C296.231 223.965 296.831 223.815 297.491 223.815C298.521 223.815 299.341 224.135 299.951 224.775C300.571 225.415 300.881 226.3 300.881 227.43C300.881 228.11 300.746 228.72 300.476 229.26C300.216 229.8 299.816 230.23 299.276 230.55C298.746 230.87 298.101 231.03 297.341 231.03C296.311 231.03 295.506 230.8 294.926 230.34C294.346 229.88 293.941 229.245 293.711 228.435C293.481 227.625 293.366 226.625 293.366 225.435C293.366 221.765 294.646 219.93 297.206 219.93C298.186 219.93 298.956 220.195 299.516 220.725C300.076 221.255 300.406 221.925 300.506 222.735H299.246ZM297.206 224.97C296.776 224.97 296.371 225.06 295.991 225.24C295.611 225.41 295.301 225.675 295.061 226.035C294.831 226.385 294.716 226.815 294.716 227.325C294.716 228.085 294.936 228.705 295.376 229.185C295.816 229.655 296.446 229.89 297.266 229.89C297.966 229.89 298.521 229.675 298.931 229.245C299.351 228.805 299.561 228.215 299.561 227.475C299.561 226.695 299.361 226.085 298.961 225.645C298.561 225.195 297.976 224.97 297.206 224.97Z" fill="black"/>
<path d="M338.434 221.4V220.155H341.254V231H339.874V221.4H338.434ZM350.274 221.22L346.104 231H344.724L348.954 221.355H343.164V220.185H350.274V221.22Z" fill="black"/>
<g clip-path="url(#clip0_5340_5427)">
<path d="M47.4438 86.312V96H46.1698V88.776L42.9498 96H42.0538L38.8198 88.762V96H37.5458V86.312H38.9178L42.5018 94.32L46.0858 86.312H47.4438ZM54.0284 96.098C53.123 96.098 52.297 95.888 51.5504 95.468C50.8037 95.0387 50.211 94.446 49.7724 93.69C49.343 92.9247 49.1284 92.066 49.1284 91.114C49.1284 90.162 49.343 89.308 49.7724 88.552C50.211 87.7867 50.8037 87.194 51.5504 86.774C52.297 86.3447 53.123 86.13 54.0284 86.13C54.943 86.13 55.7737 86.3447 56.5204 86.774C57.267 87.194 57.855 87.782 58.2844 88.538C58.7137 89.294 58.9284 90.1527 58.9284 91.114C58.9284 92.0753 58.7137 92.934 58.2844 93.69C57.855 94.446 57.267 95.0387 56.5204 95.468C55.7737 95.888 54.943 96.098 54.0284 96.098ZM54.0284 94.992C54.7097 94.992 55.321 94.8333 55.8624 94.516C56.413 94.1987 56.8424 93.746 57.1504 93.158C57.4677 92.57 57.6264 91.8887 57.6264 91.114C57.6264 90.33 57.4677 89.6487 57.1504 89.07C56.8424 88.482 56.4177 88.0293 55.8764 87.712C55.335 87.3947 54.719 87.236 54.0284 87.236C53.3377 87.236 52.7217 87.3947 52.1804 87.712C51.639 88.0293 51.2097 88.482 50.8924 89.07C50.5844 89.6487 50.4304 90.33 50.4304 91.114C50.4304 91.8887 50.5844 92.57 50.8924 93.158C51.2097 93.746 51.639 94.1987 52.1804 94.516C52.731 94.8333 53.347 94.992 54.0284 94.992Z" fill="#8A9099"/>
<path d="M94.0733 86.242V87.278H91.4133V96H90.1393V87.278H87.4653V86.242H94.0733ZM96.8875 86.242V92.416C96.8875 93.284 97.0975 93.928 97.5175 94.348C97.9468 94.768 98.5395 94.978 99.2955 94.978C100.042 94.978 100.625 94.768 101.045 94.348C101.475 93.928 101.689 93.284 101.689 92.416V86.242H102.963V92.402C102.963 93.214 102.8 93.9 102.473 94.46C102.147 95.0107 101.703 95.4213 101.143 95.692C100.593 95.9627 99.9721 96.098 99.2815 96.098C98.5908 96.098 97.9655 95.9627 97.4055 95.692C96.8548 95.4213 96.4161 95.0107 96.0895 94.46C95.7721 93.9 95.6135 93.214 95.6135 92.402V86.242H96.8875Z" fill="#8A9099"/>
<path d="M147.924 86.242L145.096 96H143.668L141.4 88.146L139.048 96L137.634 96.014L134.904 86.242H136.262L138.39 94.516L140.742 86.242H142.17L144.41 94.488L146.552 86.242H147.924ZM150.592 87.278V90.54H154.148V91.59H150.592V94.95H154.568V96H149.318V86.228H154.568V87.278H150.592Z" fill="#8A9099"/>
<path d="M190.45 86.242V87.278H187.79V96H186.516V87.278H183.842V86.242H190.45ZM199.536 86.242V96H198.262V91.576H193.292V96H192.018V86.242H193.292V90.526H198.262V86.242H199.536Z" fill="#8A9099"/>
<path d="M241.308 86.242V87.278H237.066V90.568H240.51V91.604H237.066V96H235.792V86.242H241.308ZM247.985 96L245.661 92.01H244.121V96H242.847V86.242H245.997C246.734 86.242 247.355 86.368 247.859 86.62C248.372 86.872 248.755 87.2127 249.007 87.642C249.259 88.0713 249.385 88.5613 249.385 89.112C249.385 89.784 249.189 90.3767 248.797 90.89C248.414 91.4033 247.835 91.744 247.061 91.912L249.511 96H247.985ZM244.121 90.988H245.997C246.687 90.988 247.205 90.82 247.551 90.484C247.896 90.1387 248.069 89.6813 248.069 89.112C248.069 88.5333 247.896 88.0853 247.551 87.768C247.215 87.4507 246.697 87.292 245.997 87.292H244.121V90.988Z" fill="#8A9099"/>
<path d="M289.847 96.098C289.203 96.098 288.624 95.986 288.111 95.762C287.607 95.5287 287.21 95.2113 286.921 94.81C286.631 94.3993 286.482 93.928 286.473 93.396H287.831C287.877 93.8533 288.064 94.2407 288.391 94.558C288.727 94.866 289.212 95.02 289.847 95.02C290.453 95.02 290.929 94.8707 291.275 94.572C291.629 94.264 291.807 93.872 291.807 93.396C291.807 93.0227 291.704 92.7193 291.499 92.486C291.293 92.2527 291.037 92.0753 290.729 91.954C290.421 91.8327 290.005 91.702 289.483 91.562C288.839 91.394 288.321 91.226 287.929 91.058C287.546 90.89 287.215 90.6287 286.935 90.274C286.664 89.91 286.529 89.4247 286.529 88.818C286.529 88.286 286.664 87.8147 286.935 87.404C287.205 86.9933 287.583 86.676 288.069 86.452C288.563 86.228 289.128 86.116 289.763 86.116C290.677 86.116 291.424 86.3447 292.003 86.802C292.591 87.2593 292.922 87.866 292.997 88.622H291.597C291.55 88.2487 291.354 87.922 291.009 87.642C290.663 87.3527 290.206 87.208 289.637 87.208C289.105 87.208 288.671 87.348 288.335 87.628C287.999 87.8987 287.831 88.2813 287.831 88.776C287.831 89.1307 287.929 89.42 288.125 89.644C288.33 89.868 288.577 90.0407 288.867 90.162C289.165 90.274 289.581 90.4047 290.113 90.554C290.757 90.7313 291.275 90.9087 291.667 91.086C292.059 91.254 292.395 91.52 292.675 91.884C292.955 92.2387 293.095 92.724 293.095 93.34C293.095 93.816 292.969 94.264 292.717 94.684C292.465 95.104 292.091 95.4447 291.597 95.706C291.102 95.9673 290.519 96.098 289.847 96.098ZM300.738 93.83H296.482L295.698 96H294.354L297.882 86.298H299.352L302.866 96H301.522L300.738 93.83ZM300.374 92.794L298.61 87.866L296.846 92.794H300.374Z" fill="#8A9099"/>
<path d="M338.34 96.098C337.696 96.098 337.117 95.986 336.604 95.762C336.1 95.5287 335.703 95.2113 335.414 94.81C335.125 94.3993 334.975 93.928 334.966 93.396H336.324C336.371 93.8533 336.557 94.2407 336.884 94.558C337.22 94.866 337.705 95.02 338.34 95.02C338.947 95.02 339.423 94.8707 339.768 94.572C340.123 94.264 340.3 93.872 340.3 93.396C340.3 93.0227 340.197 92.7193 339.992 92.486C339.787 92.2527 339.53 92.0753 339.222 91.954C338.914 91.8327 338.499 91.702 337.976 91.562C337.332 91.394 336.814 91.226 336.422 91.058C336.039 90.89 335.708 90.6287 335.428 90.274C335.157 89.91 335.022 89.4247 335.022 88.818C335.022 88.286 335.157 87.8147 335.428 87.404C335.699 86.9933 336.077 86.676 336.562 86.452C337.057 86.228 337.621 86.116 338.256 86.116C339.171 86.116 339.917 86.3447 340.496 86.802C341.084 87.2593 341.415 87.866 341.49 88.622H340.09C340.043 88.2487 339.847 87.922 339.502 87.642C339.157 87.3527 338.699 87.208 338.13 87.208C337.598 87.208 337.164 87.348 336.828 87.628C336.492 87.8987 336.324 88.2813 336.324 88.776C336.324 89.1307 336.422 89.42 336.618 89.644C336.823 89.868 337.071 90.0407 337.36 90.162C337.659 90.274 338.074 90.4047 338.606 90.554C339.25 90.7313 339.768 90.9087 340.16 91.086C340.552 91.254 340.888 91.52 341.168 91.884C341.448 92.2387 341.588 92.724 341.588 93.34C341.588 93.816 341.462 94.264 341.21 94.684C340.958 95.104 340.585 95.4447 340.09 95.706C339.595 95.9673 339.012 96.098 338.34 96.098ZM344.709 86.242V92.416C344.709 93.284 344.919 93.928 345.339 94.348C345.768 94.768 346.361 94.978 347.117 94.978C347.863 94.978 348.447 94.768 348.867 94.348C349.296 93.928 349.511 93.284 349.511 92.416V86.242H350.785V92.402C350.785 93.214 350.621 93.9 350.295 94.46C349.968 95.0107 349.525 95.4213 348.965 95.692C348.414 95.9627 347.793 96.098 347.103 96.098C346.412 96.098 345.787 95.9627 345.227 95.692C344.676 95.4213 344.237 95.0107 343.911 94.46C343.593 93.9 343.435 93.214 343.435 92.402V86.242H344.709Z" fill="#8A9099"/>
</g>
<rect x="43" y="252" width="311" height="32" rx="4" fill="#F0F0F0"/>
<path d="M97.134 246.5C97.5189 245.833 98.4811 245.833 98.866 246.5L102.33 252.5C102.715 253.167 102.234 254 101.464 254H94.5359C93.7661 254 93.285 253.167 93.6699 252.5L97.134 246.5Z" fill="#F0F0F0"/>
<mask id="mask2_5340_5427" style="mask-type:luminance" maskUnits="userSpaceOnUse" x="29" y="23" width="34" height="34">
<rect x="29" y="23" width="34" height="34" rx="10" fill="white"/>
</mask>
<g mask="url(#mask2_5340_5427)">
<rect x="29" y="23" width="34" height="34" fill="#F8F8F8"/>
</g>
<mask id="mask3_5340_5427" style="mask-type:luminance" maskUnits="userSpaceOnUse" x="42" y="35" width="6" height="10">
<path fill-rule="evenodd" clip-rule="evenodd" d="M47.544 44.4239C47.3097 44.6582 46.9298 44.6582 46.6955 44.4239L42.2712 39.9996L46.6955 35.5754C46.9298 35.3411 47.3097 35.3411 47.544 35.5754C47.7783 35.8097 47.7783 36.1895 47.544 36.4239L43.9683 39.9996L47.544 43.5753C47.7783 43.8097 47.7783 44.1896 47.544 44.4239Z" fill="white"/>
</mask>
<g mask="url(#mask3_5340_5427)">
<rect x="53" y="48" width="16" height="16" transform="rotate(180 53 48)" fill="#3F434A"/>
</g>
<path d="M112.08 48.14C111.147 48.14 110.307 47.98 109.56 47.66C108.813 47.3267 108.227 46.86 107.8 46.26C107.373 45.66 107.16 44.96 107.16 44.16H109.6C109.653 44.76 109.887 45.2533 110.3 45.64C110.727 46.0267 111.32 46.22 112.08 46.22C112.867 46.22 113.48 46.0333 113.92 45.66C114.36 45.2733 114.58 44.78 114.58 44.18C114.58 43.7133 114.44 43.3333 114.16 43.04C113.893 42.7467 113.553 42.52 113.14 42.36C112.74 42.2 112.18 42.0267 111.46 41.84C110.553 41.6 109.813 41.36 109.24 41.12C108.68 40.8667 108.2 40.48 107.8 39.96C107.4 39.44 107.2 38.7467 107.2 37.88C107.2 37.08 107.4 36.38 107.8 35.78C108.2 35.18 108.76 34.72 109.48 34.4C110.2 34.08 111.033 33.92 111.98 33.92C113.327 33.92 114.427 34.26 115.28 34.94C116.147 35.6067 116.627 36.5267 116.72 37.7H114.2C114.16 37.1933 113.92 36.76 113.48 36.4C113.04 36.04 112.46 35.86 111.74 35.86C111.087 35.86 110.553 36.0267 110.14 36.36C109.727 36.6933 109.52 37.1733 109.52 37.8C109.52 38.2267 109.647 38.58 109.9 38.86C110.167 39.1267 110.5 39.34 110.9 39.5C111.3 39.66 111.847 39.8333 112.54 40.02C113.46 40.2733 114.207 40.5267 114.78 40.78C115.367 41.0333 115.86 41.4267 116.26 41.96C116.673 42.48 116.88 43.18 116.88 44.06C116.88 44.7667 116.687 45.4333 116.3 46.06C115.927 46.6867 115.373 47.1933 114.64 47.58C113.92 47.9533 113.067 48.14 112.08 48.14ZM129.67 42.22C129.67 42.6333 129.644 43.0067 129.59 43.34H121.17C121.237 44.22 121.564 44.9267 122.15 45.46C122.737 45.9933 123.457 46.26 124.31 46.26C125.537 46.26 126.404 45.7467 126.91 44.72H129.37C129.037 45.7333 128.43 46.5667 127.55 47.22C126.684 47.86 125.604 48.18 124.31 48.18C123.257 48.18 122.31 47.9467 121.47 47.48C120.644 47 119.99 46.3333 119.51 45.48C119.044 44.6133 118.81 43.6133 118.81 42.48C118.81 41.3467 119.037 40.3533 119.49 39.5C119.957 38.6333 120.604 37.9667 121.43 37.5C122.27 37.0333 123.23 36.8 124.31 36.8C125.35 36.8 126.277 37.0267 127.09 37.48C127.904 37.9333 128.537 38.5733 128.99 39.4C129.444 40.2133 129.67 41.1533 129.67 42.22ZM127.29 41.5C127.277 40.66 126.977 39.9867 126.39 39.48C125.804 38.9733 125.077 38.72 124.21 38.72C123.424 38.72 122.75 38.9733 122.19 39.48C121.63 39.9733 121.297 40.6467 121.19 41.5H127.29ZM134.194 38.6C134.581 38.0933 135.107 37.6667 135.774 37.32C136.441 36.9733 137.194 36.8 138.034 36.8C138.994 36.8 139.867 37.04 140.654 37.52C141.454 37.9867 142.081 38.6467 142.534 39.5C142.987 40.3533 143.214 41.3333 143.214 42.44C143.214 43.5467 142.987 44.54 142.534 45.42C142.081 46.2867 141.454 46.9667 140.654 47.46C139.867 47.94 138.994 48.18 138.034 48.18C137.194 48.18 136.447 48.0133 135.794 47.68C135.141 47.3333 134.607 46.9067 134.194 46.4V53.24H131.914V36.98H134.194V38.6ZM140.894 42.44C140.894 41.68 140.734 41.0267 140.414 40.48C140.107 39.92 139.694 39.5 139.174 39.22C138.667 38.9267 138.121 38.78 137.534 38.78C136.961 38.78 136.414 38.9267 135.894 39.22C135.387 39.5133 134.974 39.94 134.654 40.5C134.347 41.06 134.194 41.72 134.194 42.48C134.194 43.24 134.347 43.9067 134.654 44.48C134.974 45.04 135.387 45.4667 135.894 45.76C136.414 46.0533 136.961 46.2 137.534 46.2C138.121 46.2 138.667 46.0533 139.174 45.76C139.694 45.4533 140.107 45.0133 140.414 44.44C140.734 43.8667 140.894 43.2 140.894 42.44ZM148.129 38.84V44.94C148.129 45.3533 148.222 45.6533 148.409 45.84C148.609 46.0133 148.942 46.1 149.409 46.1H150.809V48H149.009C147.982 48 147.195 47.76 146.649 47.28C146.102 46.8 145.829 46.02 145.829 44.94V38.84H144.529V36.98H145.829V34.24H148.129V36.98H150.809V38.84H148.129ZM163.01 42.22C163.01 42.6333 162.983 43.0067 162.93 43.34H154.51C154.577 44.22 154.903 44.9267 155.49 45.46C156.077 45.9933 156.797 46.26 157.65 46.26C158.877 46.26 159.743 45.7467 160.25 44.72H162.71C162.377 45.7333 161.77 46.5667 160.89 47.22C160.023 47.86 158.943 48.18 157.65 48.18C156.597 48.18 155.65 47.9467 154.81 47.48C153.983 47 153.33 46.3333 152.85 45.48C152.383 44.6133 152.15 43.6133 152.15 42.48C152.15 41.3467 152.377 40.3533 152.83 39.5C153.297 38.6333 153.943 37.9667 154.77 37.5C155.61 37.0333 156.57 36.8 157.65 36.8C158.69 36.8 159.617 37.0267 160.43 37.48C161.243 37.9333 161.877 38.5733 162.33 39.4C162.783 40.2133 163.01 41.1533 163.01 42.22ZM160.63 41.5C160.617 40.66 160.317 39.9867 159.73 39.48C159.143 38.9733 158.417 38.72 157.55 38.72C156.763 38.72 156.09 38.9733 155.53 39.48C154.97 39.9733 154.637 40.6467 154.53 41.5H160.63ZM178.594 36.8C179.461 36.8 180.234 36.98 180.914 37.34C181.607 37.7 182.147 38.2333 182.534 38.94C182.934 39.6467 183.134 40.5 183.134 41.5V48H180.874V41.84C180.874 40.8533 180.627 40.1 180.134 39.58C179.641 39.0467 178.967 38.78 178.114 38.78C177.261 38.78 176.581 39.0467 176.074 39.58C175.581 40.1 175.334 40.8533 175.334 41.84V48H173.074V41.84C173.074 40.8533 172.827 40.1 172.334 39.58C171.841 39.0467 171.167 38.78 170.314 38.78C169.461 38.78 168.781 39.0467 168.274 39.58C167.781 40.1 167.534 40.8533 167.534 41.84V48H165.254V36.98H167.534V38.24C167.907 37.7867 168.381 37.4333 168.954 37.18C169.527 36.9267 170.141 36.8 170.794 36.8C171.674 36.8 172.461 36.9867 173.154 37.36C173.847 37.7333 174.381 38.2733 174.754 38.98C175.087 38.3133 175.607 37.7867 176.314 37.4C177.021 37 177.781 36.8 178.594 36.8ZM188.315 38.62C188.702 38.0867 189.228 37.6533 189.895 37.32C190.575 36.9733 191.328 36.8 192.155 36.8C193.128 36.8 194.008 37.0333 194.795 37.5C195.582 37.9667 196.202 38.6333 196.655 39.5C197.108 40.3533 197.335 41.3333 197.335 42.44C197.335 43.5467 197.108 44.54 196.655 45.42C196.202 46.2867 195.575 46.9667 194.775 47.46C193.988 47.94 193.115 48.18 192.155 48.18C191.302 48.18 190.542 48.0133 189.875 47.68C189.222 47.3467 188.702 46.92 188.315 46.4V48H186.035V33.2H188.315V38.62ZM195.015 42.44C195.015 41.68 194.855 41.0267 194.535 40.48C194.228 39.92 193.815 39.5 193.295 39.22C192.788 38.9267 192.242 38.78 191.655 38.78C191.082 38.78 190.535 38.9267 190.015 39.22C189.508 39.5133 189.095 39.94 188.775 40.5C188.468 41.06 188.315 41.72 188.315 42.48C188.315 43.24 188.468 43.9067 188.775 44.48C189.095 45.04 189.508 45.4667 190.015 45.76C190.535 46.0533 191.082 46.2 191.655 46.2C192.242 46.2 192.788 46.0533 193.295 45.76C193.815 45.4533 194.228 45.0133 194.535 44.44C194.855 43.8667 195.015 43.2 195.015 42.44ZM209.69 42.22C209.69 42.6333 209.663 43.0067 209.61 43.34H201.19C201.257 44.22 201.583 44.9267 202.17 45.46C202.757 45.9933 203.477 46.26 204.33 46.26C205.557 46.26 206.423 45.7467 206.93 44.72H209.39C209.057 45.7333 208.45 46.5667 207.57 47.22C206.703 47.86 205.623 48.18 204.33 48.18C203.277 48.18 202.33 47.9467 201.49 47.48C200.663 47 200.01 46.3333 199.53 45.48C199.063 44.6133 198.83 43.6133 198.83 42.48C198.83 41.3467 199.057 40.3533 199.51 39.5C199.977 38.6333 200.623 37.9667 201.45 37.5C202.29 37.0333 203.25 36.8 204.33 36.8C205.37 36.8 206.297 37.0267 207.11 37.48C207.923 37.9333 208.557 38.5733 209.01 39.4C209.463 40.2133 209.69 41.1533 209.69 42.22ZM207.31 41.5C207.297 40.66 206.997 39.9867 206.41 39.48C205.823 38.9733 205.097 38.72 204.23 38.72C203.443 38.72 202.77 38.9733 202.21 39.48C201.65 39.9733 201.317 40.6467 201.21 41.5H207.31ZM214.214 38.58C214.547 38.02 214.987 37.5867 215.534 37.28C216.094 36.96 216.754 36.8 217.514 36.8V39.16H216.934C216.04 39.16 215.36 39.3867 214.894 39.84C214.44 40.2933 214.214 41.08 214.214 42.2V48H211.934V36.98H214.214V38.58Z" fill="#3F434A"/>
<path d="M227.409 45.21C228.561 44.214 229.467 43.398 230.127 42.762C230.799 42.114 231.357 41.442 231.801 40.746C232.245 40.05 232.467 39.354 232.467 38.658C232.467 37.938 232.293 37.374 231.945 36.966C231.609 36.558 231.075 36.354 230.343 36.354C229.635 36.354 229.083 36.582 228.687 37.038C228.303 37.482 228.099 38.082 228.075 38.838H226.095C226.131 37.47 226.539 36.426 227.319 35.706C228.111 34.974 229.113 34.608 230.325 34.608C231.633 34.608 232.653 34.968 233.385 35.688C234.129 36.408 234.501 37.368 234.501 38.568C234.501 39.432 234.279 40.266 233.835 41.07C233.403 41.862 232.881 42.576 232.269 43.212C231.669 43.836 230.901 44.562 229.965 45.39L229.155 46.11H234.861V47.82H226.113V46.326L227.409 45.21ZM236.664 41.268C236.664 39.192 237.012 37.572 237.708 36.408C238.416 35.232 239.628 34.644 241.344 34.644C243.06 34.644 244.266 35.232 244.962 36.408C245.67 37.572 246.024 39.192 246.024 41.268C246.024 43.368 245.67 45.012 244.962 46.2C244.266 47.376 243.06 47.964 241.344 47.964C239.628 47.964 238.416 47.376 237.708 46.2C237.012 45.012 236.664 43.368 236.664 41.268ZM244.008 41.268C244.008 40.296 243.942 39.474 243.81 38.802C243.69 38.13 243.438 37.584 243.054 37.164C242.67 36.732 242.1 36.516 241.344 36.516C240.588 36.516 240.018 36.732 239.634 37.164C239.25 37.584 238.992 38.13 238.86 38.802C238.74 39.474 238.68 40.296 238.68 41.268C238.68 42.276 238.74 43.122 238.86 43.806C238.98 44.49 239.232 45.042 239.616 45.462C240.012 45.882 240.588 46.092 241.344 46.092C242.1 46.092 242.67 45.882 243.054 45.462C243.45 45.042 243.708 44.49 243.828 43.806C243.948 43.122 244.008 42.276 244.008 41.268ZM249.329 45.21C250.481 44.214 251.387 43.398 252.047 42.762C252.719 42.114 253.277 41.442 253.721 40.746C254.165 40.05 254.387 39.354 254.387 38.658C254.387 37.938 254.213 37.374 253.865 36.966C253.529 36.558 252.995 36.354 252.263 36.354C251.555 36.354 251.003 36.582 250.607 37.038C250.223 37.482 250.019 38.082 249.995 38.838H248.015C248.051 37.47 248.459 36.426 249.239 35.706C250.031 34.974 251.033 34.608 252.245 34.608C253.553 34.608 254.573 34.968 255.305 35.688C256.049 36.408 256.421 37.368 256.421 38.568C256.421 39.432 256.199 40.266 255.755 41.07C255.323 41.862 254.801 42.576 254.189 43.212C253.589 43.836 252.821 44.562 251.885 45.39L251.075 46.11H256.781V47.82H248.033V46.326L249.329 45.21ZM267.044 36.642H261.014V40.224C261.266 39.888 261.638 39.606 262.13 39.378C262.634 39.15 263.168 39.036 263.732 39.036C264.74 39.036 265.556 39.252 266.18 39.684C266.816 40.116 267.266 40.662 267.53 41.322C267.806 41.982 267.944 42.678 267.944 43.41C267.944 44.298 267.77 45.09 267.422 45.786C267.086 46.47 266.576 47.01 265.892 47.406C265.22 47.802 264.392 48 263.408 48C262.1 48 261.05 47.676 260.258 47.028C259.466 46.38 258.992 45.522 258.836 44.454H260.834C260.966 45.018 261.26 45.468 261.716 45.804C262.172 46.128 262.742 46.29 263.426 46.29C264.278 46.29 264.914 46.032 265.334 45.516C265.766 45 265.982 44.316 265.982 43.464C265.982 42.6 265.766 41.94 265.334 41.484C264.902 41.016 264.266 40.782 263.426 40.782C262.838 40.782 262.34 40.932 261.932 41.232C261.536 41.52 261.248 41.916 261.068 42.42H259.124V34.842H267.044V36.642Z" fill="#8A9099"/>
<mask id="mask4_5340_5427" style="mask-type:luminance" maskUnits="userSpaceOnUse" x="312" y="23" width="34" height="34">
<rect x="312" y="23" width="34" height="34" rx="10" fill="white"/>
</mask>
<g mask="url(#mask4_5340_5427)">
<rect x="312" y="23" width="34" height="34" fill="#F8F8F8"/>
</g>
<mask id="mask5_5340_5427" style="mask-type:luminance" maskUnits="userSpaceOnUse" x="327" y="35" width="6" height="10">
<path fill-rule="evenodd" clip-rule="evenodd" d="M327.456 35.5761C327.69 35.3418 328.07 35.3418 328.305 35.5761L332.729 40.0004L328.305 44.4246C328.07 44.6589 327.69 44.6589 327.456 44.4246C327.222 44.1903 327.222 43.8105 327.456 43.5761L331.032 40.0004L327.456 36.4247C327.222 36.1903 327.222 35.8104 327.456 35.5761Z" fill="white"/>
</mask>
<g mask="url(#mask5_5340_5427)">
<rect x="322" y="32" width="16" height="16" fill="#3F434A"/>
</g>
<defs>
<clipPath id="clip0_5340_5427">
<rect width="316" height="20" fill="white" transform="translate(36 81)"/>
</clipPath>
</defs>
</svg>
