<svg width="383" height="389" viewBox="0 0 383 389" fill="none" xmlns="http://www.w3.org/2000/svg">
<mask id="mask0_5340_5366" style="mask-type:luminance" maskUnits="userSpaceOnUse" x="0" y="0" width="383" height="389">
<rect width="383" height="389" fill="white"/>
</mask>
<g mask="url(#mask0_5340_5366)">
<rect y="1.44336" width="383" height="392.26" fill="#18191B"/>
</g>
<path d="M31.265 143.905C32.535 142.885 33.53 142.05 34.25 141.4C34.97 140.74 35.575 140.055 36.065 139.345C36.565 138.625 36.815 137.92 36.815 137.23C36.815 136.58 36.655 136.07 36.335 135.7C36.025 135.32 35.52 135.13 34.82 135.13C34.14 135.13 33.61 135.345 33.23 135.775C32.86 136.195 32.66 136.76 32.63 137.47H31.31C31.35 136.35 31.69 135.485 32.33 134.875C32.97 134.265 33.795 133.96 34.805 133.96C35.835 133.96 36.65 134.245 37.25 134.815C37.86 135.385 38.165 136.17 38.165 137.17C38.165 138 37.915 138.81 37.415 139.6C36.925 140.38 36.365 141.07 35.735 141.67C35.105 142.26 34.3 142.95 33.32 143.74H38.48V144.88H31.265V143.905ZM42.0379 139.36C41.4779 139.14 41.0479 138.82 40.7479 138.4C40.4479 137.98 40.2979 137.47 40.2979 136.87C40.2979 136.33 40.4329 135.845 40.7029 135.415C40.9729 134.975 41.3729 134.63 41.9029 134.38C42.4429 134.12 43.0929 133.99 43.8529 133.99C44.6129 133.99 45.2579 134.12 45.7879 134.38C46.3279 134.63 46.7329 134.975 47.0029 135.415C47.2829 135.845 47.4229 136.33 47.4229 136.87C47.4229 137.45 47.2679 137.96 46.9579 138.4C46.6479 138.83 46.2229 139.15 45.6829 139.36C46.3029 139.55 46.7929 139.885 47.1529 140.365C47.5229 140.835 47.7079 141.405 47.7079 142.075C47.7079 142.725 47.5479 143.295 47.2279 143.785C46.9079 144.265 46.4529 144.64 45.8629 144.91C45.2829 145.17 44.6129 145.3 43.8529 145.3C43.0929 145.3 42.4229 145.17 41.8429 144.91C41.2729 144.64 40.8279 144.265 40.5079 143.785C40.1879 143.295 40.0279 142.725 40.0279 142.075C40.0279 141.405 40.2079 140.83 40.5679 140.35C40.9279 139.87 41.4179 139.54 42.0379 139.36ZM46.1029 137.035C46.1029 136.425 45.9029 135.955 45.5029 135.625C45.1029 135.295 44.5529 135.13 43.8529 135.13C43.1629 135.13 42.6179 135.295 42.2179 135.625C41.8179 135.955 41.6179 136.43 41.6179 137.05C41.6179 137.61 41.8229 138.06 42.2329 138.4C42.6529 138.74 43.1929 138.91 43.8529 138.91C44.5229 138.91 45.0629 138.74 45.4729 138.4C45.8929 138.05 46.1029 137.595 46.1029 137.035ZM43.8529 139.96C43.1129 139.96 42.5079 140.135 42.0379 140.485C41.5679 140.825 41.3329 141.34 41.3329 142.03C41.3329 142.67 41.5579 143.185 42.0079 143.575C42.4679 143.965 43.0829 144.16 43.8529 144.16C44.6229 144.16 45.2329 143.965 45.6829 143.575C46.1329 143.185 46.3579 142.67 46.3579 142.03C46.3579 141.36 46.1279 140.85 45.6679 140.5C45.2079 140.14 44.6029 139.96 43.8529 139.96Z" fill="#93959C"/>
<path d="M79.765 143.905C81.035 142.885 82.03 142.05 82.75 141.4C83.47 140.74 84.075 140.055 84.565 139.345C85.065 138.625 85.315 137.92 85.315 137.23C85.315 136.58 85.155 136.07 84.835 135.7C84.525 135.32 84.02 135.13 83.32 135.13C82.64 135.13 82.11 135.345 81.73 135.775C81.36 136.195 81.16 136.76 81.13 137.47H79.81C79.85 136.35 80.19 135.485 80.83 134.875C81.47 134.265 82.295 133.96 83.305 133.96C84.335 133.96 85.15 134.245 85.75 134.815C86.36 135.385 86.665 136.17 86.665 137.17C86.665 138 86.415 138.81 85.915 139.6C85.425 140.38 84.865 141.07 84.235 141.67C83.605 142.26 82.8 142.95 81.82 143.74H86.98V144.88H79.765V143.905ZM90.3129 142.09C90.4129 142.66 90.6429 143.1 91.0029 143.41C91.3729 143.72 91.8679 143.875 92.4879 143.875C93.3179 143.875 93.9279 143.55 94.3179 142.9C94.7179 142.25 94.9079 141.155 94.8879 139.615C94.6779 140.065 94.3279 140.42 93.8379 140.68C93.3479 140.93 92.8029 141.055 92.2029 141.055C91.5329 141.055 90.9329 140.92 90.4029 140.65C89.8829 140.37 89.4729 139.965 89.1729 139.435C88.8729 138.905 88.7229 138.265 88.7229 137.515C88.7229 136.445 89.0329 135.585 89.6529 134.935C90.2729 134.275 91.1529 133.945 92.2929 133.945C93.6929 133.945 94.6729 134.4 95.2329 135.31C95.8029 136.22 96.0879 137.575 96.0879 139.375C96.0879 140.635 95.9729 141.675 95.7429 142.495C95.5229 143.315 95.1429 143.94 94.6029 144.37C94.0729 144.8 93.3429 145.015 92.4129 145.015C91.3929 145.015 90.5979 144.74 90.0279 144.19C89.4579 143.64 89.1329 142.94 89.0529 142.09H90.3129ZM92.4279 139.9C93.0979 139.9 93.6479 139.695 94.0779 139.285C94.5079 138.865 94.7229 138.3 94.7229 137.59C94.7229 136.84 94.5129 136.235 94.0929 135.775C93.6729 135.315 93.0829 135.085 92.3229 135.085C91.6229 135.085 91.0629 135.305 90.6429 135.745C90.2329 136.185 90.0279 136.765 90.0279 137.485C90.0279 138.215 90.2329 138.8 90.6429 139.24C91.0529 139.68 91.6479 139.9 92.4279 139.9Z" fill="#93959C"/>
<path d="M128.9 136.885C128.97 135.965 129.325 135.245 129.965 134.725C130.605 134.205 131.435 133.945 132.455 133.945C133.135 133.945 133.72 134.07 134.21 134.32C134.71 134.56 135.085 134.89 135.335 135.31C135.595 135.73 135.725 136.205 135.725 136.735C135.725 137.355 135.545 137.89 135.185 138.34C134.835 138.79 134.375 139.08 133.805 139.21V139.285C134.455 139.445 134.97 139.76 135.35 140.23C135.73 140.7 135.92 141.315 135.92 142.075C135.92 142.645 135.79 143.16 135.53 143.62C135.27 144.07 134.88 144.425 134.36 144.685C133.84 144.945 133.215 145.075 132.485 145.075C131.425 145.075 130.555 144.8 129.875 144.25C129.195 143.69 128.815 142.9 128.735 141.88H130.055C130.125 142.48 130.37 142.97 130.79 143.35C131.21 143.73 131.77 143.92 132.47 143.92C133.17 143.92 133.7 143.74 134.06 143.38C134.43 143.01 134.615 142.535 134.615 141.955C134.615 141.205 134.365 140.665 133.865 140.335C133.365 140.005 132.61 139.84 131.6 139.84H131.255V138.7H131.615C132.535 138.69 133.23 138.54 133.7 138.25C134.17 137.95 134.405 137.49 134.405 136.87C134.405 136.34 134.23 135.915 133.88 135.595C133.54 135.275 133.05 135.115 132.41 135.115C131.79 135.115 131.29 135.275 130.91 135.595C130.53 135.915 130.305 136.345 130.235 136.885H128.9ZM137.763 139.465C137.763 137.745 138.043 136.405 138.603 135.445C139.163 134.475 140.143 133.99 141.543 133.99C142.933 133.99 143.908 134.475 144.468 135.445C145.028 136.405 145.308 137.745 145.308 139.465C145.308 141.215 145.028 142.575 144.468 143.545C143.908 144.515 142.933 145 141.543 145C140.143 145 139.163 144.515 138.603 143.545C138.043 142.575 137.763 141.215 137.763 139.465ZM143.958 139.465C143.958 138.595 143.898 137.86 143.778 137.26C143.668 136.65 143.433 136.16 143.073 135.79C142.723 135.42 142.213 135.235 141.543 135.235C140.863 135.235 140.343 135.42 139.983 135.79C139.633 136.16 139.398 136.65 139.278 137.26C139.168 137.86 139.113 138.595 139.113 139.465C139.113 140.365 139.168 141.12 139.278 141.73C139.398 142.34 139.633 142.83 139.983 143.2C140.343 143.57 140.863 143.755 141.543 143.755C142.213 143.755 142.723 143.57 143.073 143.2C143.433 142.83 143.668 142.34 143.778 141.73C143.898 141.12 143.958 140.365 143.958 139.465Z" fill="#93959C"/>
<path d="M179.9 136.885C179.97 135.965 180.325 135.245 180.965 134.725C181.605 134.205 182.435 133.945 183.455 133.945C184.135 133.945 184.72 134.07 185.21 134.32C185.71 134.56 186.085 134.89 186.335 135.31C186.595 135.73 186.725 136.205 186.725 136.735C186.725 137.355 186.545 137.89 186.185 138.34C185.835 138.79 185.375 139.08 184.805 139.21V139.285C185.455 139.445 185.97 139.76 186.35 140.23C186.73 140.7 186.92 141.315 186.92 142.075C186.92 142.645 186.79 143.16 186.53 143.62C186.27 144.07 185.88 144.425 185.36 144.685C184.84 144.945 184.215 145.075 183.485 145.075C182.425 145.075 181.555 144.8 180.875 144.25C180.195 143.69 179.815 142.9 179.735 141.88H181.055C181.125 142.48 181.37 142.97 181.79 143.35C182.21 143.73 182.77 143.92 183.47 143.92C184.17 143.92 184.7 143.74 185.06 143.38C185.43 143.01 185.615 142.535 185.615 141.955C185.615 141.205 185.365 140.665 184.865 140.335C184.365 140.005 183.61 139.84 182.6 139.84H182.255V138.7H182.615C183.535 138.69 184.23 138.54 184.7 138.25C185.17 137.95 185.405 137.49 185.405 136.87C185.405 136.34 185.23 135.915 184.88 135.595C184.54 135.275 184.05 135.115 183.41 135.115C182.79 135.115 182.29 135.275 181.91 135.595C181.53 135.915 181.305 136.345 181.235 136.885H179.9ZM188.403 135.4V134.155H191.223V145H189.843V135.4H188.403Z" fill="#93959C"/>
<path d="M233.57 135.4V134.155H236.39V145H235.01V135.4H233.57Z" fill="#FCFCFC"/>
<path d="M280.765 143.905C282.035 142.885 283.03 142.05 283.75 141.4C284.47 140.74 285.075 140.055 285.565 139.345C286.065 138.625 286.315 137.92 286.315 137.23C286.315 136.58 286.155 136.07 285.835 135.7C285.525 135.32 285.02 135.13 284.32 135.13C283.64 135.13 283.11 135.345 282.73 135.775C282.36 136.195 282.16 136.76 282.13 137.47H280.81C280.85 136.35 281.19 135.485 281.83 134.875C282.47 134.265 283.295 133.96 284.305 133.96C285.335 133.96 286.15 134.245 286.75 134.815C287.36 135.385 287.665 136.17 287.665 137.17C287.665 138 287.415 138.81 286.915 139.6C286.425 140.38 285.865 141.07 285.235 141.67C284.605 142.26 283.8 142.95 282.82 143.74H287.98V144.88H280.765V143.905Z" fill="#FCFCFC"/>
<path d="M329.9 136.885C329.97 135.965 330.325 135.245 330.965 134.725C331.605 134.205 332.435 133.945 333.455 133.945C334.135 133.945 334.72 134.07 335.21 134.32C335.71 134.56 336.085 134.89 336.335 135.31C336.595 135.73 336.725 136.205 336.725 136.735C336.725 137.355 336.545 137.89 336.185 138.34C335.835 138.79 335.375 139.08 334.805 139.21V139.285C335.455 139.445 335.97 139.76 336.35 140.23C336.73 140.7 336.92 141.315 336.92 142.075C336.92 142.645 336.79 143.16 336.53 143.62C336.27 144.07 335.88 144.425 335.36 144.685C334.84 144.945 334.215 145.075 333.485 145.075C332.425 145.075 331.555 144.8 330.875 144.25C330.195 143.69 329.815 142.9 329.735 141.88H331.055C331.125 142.48 331.37 142.97 331.79 143.35C332.21 143.73 332.77 143.92 333.47 143.92C334.17 143.92 334.7 143.74 335.06 143.38C335.43 143.01 335.615 142.535 335.615 141.955C335.615 141.205 335.365 140.665 334.865 140.335C334.365 140.005 333.61 139.84 332.6 139.84H332.255V138.7H332.615C333.535 138.69 334.23 138.54 334.7 138.25C335.17 137.95 335.405 137.49 335.405 136.87C335.405 136.34 335.23 135.915 334.88 135.595C334.54 135.275 334.05 135.115 333.41 135.115C332.79 135.115 332.29 135.275 331.91 135.595C331.53 135.915 331.305 136.345 331.235 136.885H329.9Z" fill="#FCFCFC"/>
<mask id="mask1_5340_5366" style="mask-type:luminance" maskUnits="userSpaceOnUse" x="69" y="217" width="40" height="40">
<rect x="69" y="217" width="40" height="40" rx="14" fill="white"/>
</mask>
<g mask="url(#mask1_5340_5366)">
<rect x="69" y="217" width="40" height="40" fill="#0090FF"/>
</g>
<path d="M34.6 191.585V190.55L39.865 183.26H41.5V190.4H43V191.585H41.5V194H40.15V191.585H34.6ZM40.21 184.685L36.175 190.4H40.21V184.685Z" fill="#FCFCFC"/>
<path d="M91.845 184.34H86.58V187.76C86.81 187.44 87.15 187.18 87.6 186.98C88.05 186.77 88.535 186.665 89.055 186.665C89.885 186.665 90.56 186.84 91.08 187.19C91.6 187.53 91.97 187.975 92.19 188.525C92.42 189.065 92.535 189.64 92.535 190.25C92.535 190.97 92.4 191.615 92.13 192.185C91.86 192.755 91.445 193.205 90.885 193.535C90.335 193.865 89.65 194.03 88.83 194.03C87.78 194.03 86.93 193.76 86.28 193.22C85.63 192.68 85.235 191.96 85.095 191.06H86.43C86.56 191.63 86.835 192.075 87.255 192.395C87.675 192.715 88.205 192.875 88.845 192.875C89.635 192.875 90.23 192.64 90.63 192.17C91.03 191.69 91.23 191.06 91.23 190.28C91.23 189.5 91.03 188.9 90.63 188.48C90.23 188.05 89.64 187.835 88.86 187.835C88.33 187.835 87.865 187.965 87.465 188.225C87.075 188.475 86.79 188.82 86.61 189.26H85.32V183.14H91.845V184.34Z" fill="#FCFCFC"/>
<path d="M138.975 185.735C138.755 184.625 138.07 184.07 136.92 184.07C136.03 184.07 135.365 184.415 134.925 185.105C134.485 185.785 134.27 186.91 134.28 188.48C134.51 187.96 134.89 187.555 135.42 187.265C135.96 186.965 136.56 186.815 137.22 186.815C138.25 186.815 139.07 187.135 139.68 187.775C140.3 188.415 140.61 189.3 140.61 190.43C140.61 191.11 140.475 191.72 140.205 192.26C139.945 192.8 139.545 193.23 139.005 193.55C138.475 193.87 137.83 194.03 137.07 194.03C136.04 194.03 135.235 193.8 134.655 193.34C134.075 192.88 133.67 192.245 133.44 191.435C133.21 190.625 133.095 189.625 133.095 188.435C133.095 184.765 134.375 182.93 136.935 182.93C137.915 182.93 138.685 183.195 139.245 183.725C139.805 184.255 140.135 184.925 140.235 185.735H138.975ZM136.935 187.97C136.505 187.97 136.1 188.06 135.72 188.24C135.34 188.41 135.03 188.675 134.79 189.035C134.56 189.385 134.445 189.815 134.445 190.325C134.445 191.085 134.665 191.705 135.105 192.185C135.545 192.655 136.175 192.89 136.995 192.89C137.695 192.89 138.25 192.675 138.66 192.245C139.08 191.805 139.29 191.215 139.29 190.475C139.29 189.695 139.09 189.085 138.69 188.645C138.29 188.195 137.705 187.97 136.935 187.97Z" fill="#FCFCFC"/>
<path d="M189.605 184.22L185.435 194H184.055L188.285 184.355H182.495V183.185H189.605V184.22Z" fill="#FCFCFC"/>
<path d="M232.91 188.36C232.35 188.14 231.92 187.82 231.62 187.4C231.32 186.98 231.17 186.47 231.17 185.87C231.17 185.33 231.305 184.845 231.575 184.415C231.845 183.975 232.245 183.63 232.775 183.38C233.315 183.12 233.965 182.99 234.725 182.99C235.485 182.99 236.13 183.12 236.66 183.38C237.2 183.63 237.605 183.975 237.875 184.415C238.155 184.845 238.295 185.33 238.295 185.87C238.295 186.45 238.14 186.96 237.83 187.4C237.52 187.83 237.095 188.15 236.555 188.36C237.175 188.55 237.665 188.885 238.025 189.365C238.395 189.835 238.58 190.405 238.58 191.075C238.58 191.725 238.42 192.295 238.1 192.785C237.78 193.265 237.325 193.64 236.735 193.91C236.155 194.17 235.485 194.3 234.725 194.3C233.965 194.3 233.295 194.17 232.715 193.91C232.145 193.64 231.7 193.265 231.38 192.785C231.06 192.295 230.9 191.725 230.9 191.075C230.9 190.405 231.08 189.83 231.44 189.35C231.8 188.87 232.29 188.54 232.91 188.36ZM236.975 186.035C236.975 185.425 236.775 184.955 236.375 184.625C235.975 184.295 235.425 184.13 234.725 184.13C234.035 184.13 233.49 184.295 233.09 184.625C232.69 184.955 232.49 185.43 232.49 186.05C232.49 186.61 232.695 187.06 233.105 187.4C233.525 187.74 234.065 187.91 234.725 187.91C235.395 187.91 235.935 187.74 236.345 187.4C236.765 187.05 236.975 186.595 236.975 186.035ZM234.725 188.96C233.985 188.96 233.38 189.135 232.91 189.485C232.44 189.825 232.205 190.34 232.205 191.03C232.205 191.67 232.43 192.185 232.88 192.575C233.34 192.965 233.955 193.16 234.725 193.16C235.495 193.16 236.105 192.965 236.555 192.575C237.005 192.185 237.23 191.67 237.23 191.03C237.23 190.36 237 189.85 236.54 189.5C236.08 189.14 235.475 188.96 234.725 188.96Z" fill="#FCFCFC"/>
<path d="M281.685 191.09C281.785 191.66 282.015 192.1 282.375 192.41C282.745 192.72 283.24 192.875 283.86 192.875C284.69 192.875 285.3 192.55 285.69 191.9C286.09 191.25 286.28 190.155 286.26 188.615C286.05 189.065 285.7 189.42 285.21 189.68C284.72 189.93 284.175 190.055 283.575 190.055C282.905 190.055 282.305 189.92 281.775 189.65C281.255 189.37 280.845 188.965 280.545 188.435C280.245 187.905 280.095 187.265 280.095 186.515C280.095 185.445 280.405 184.585 281.025 183.935C281.645 183.275 282.525 182.945 283.665 182.945C285.065 182.945 286.045 183.4 286.605 184.31C287.175 185.22 287.46 186.575 287.46 188.375C287.46 189.635 287.345 190.675 287.115 191.495C286.895 192.315 286.515 192.94 285.975 193.37C285.445 193.8 284.715 194.015 283.785 194.015C282.765 194.015 281.97 193.74 281.4 193.19C280.83 192.64 280.505 191.94 280.425 191.09H281.685ZM283.8 188.9C284.47 188.9 285.02 188.695 285.45 188.285C285.88 187.865 286.095 187.3 286.095 186.59C286.095 185.84 285.885 185.235 285.465 184.775C285.045 184.315 284.455 184.085 283.695 184.085C282.995 184.085 282.435 184.305 282.015 184.745C281.605 185.185 281.4 185.765 281.4 186.485C281.4 187.215 281.605 187.8 282.015 188.24C282.425 188.68 283.02 188.9 283.8 188.9Z" fill="#FCFCFC"/>
<path d="M326.57 184.4V183.155H329.39V194H328.01V184.4H326.57ZM331.735 188.465C331.735 186.745 332.015 185.405 332.575 184.445C333.135 183.475 334.115 182.99 335.515 182.99C336.905 182.99 337.88 183.475 338.44 184.445C339 185.405 339.28 186.745 339.28 188.465C339.28 190.215 339 191.575 338.44 192.545C337.88 193.515 336.905 194 335.515 194C334.115 194 333.135 193.515 332.575 192.545C332.015 191.575 331.735 190.215 331.735 188.465ZM337.93 188.465C337.93 187.595 337.87 186.86 337.75 186.26C337.64 185.65 337.405 185.16 337.045 184.79C336.695 184.42 336.185 184.235 335.515 184.235C334.835 184.235 334.315 184.42 333.955 184.79C333.605 185.16 333.37 185.65 333.25 186.26C333.14 186.86 333.085 187.595 333.085 188.465C333.085 189.365 333.14 190.12 333.25 190.73C333.37 191.34 333.605 191.83 333.955 192.2C334.315 192.57 334.835 192.755 335.515 192.755C336.185 192.755 336.695 192.57 337.045 192.2C337.405 191.83 337.64 191.34 337.75 190.73C337.87 190.12 337.93 189.365 337.93 188.465Z" fill="#FCFCFC"/>
<path d="M34.57 233.4V232.155H37.39V243H36.01V233.4H34.57ZM39.3747 233.4V232.155H42.1947V243H40.8147V233.4H39.3747Z" fill="#FCFCFC"/>
<path d="M33.57 306.4V305.155H36.39V316H35.01V306.4H33.57ZM40.7147 310.36C40.1547 310.14 39.7247 309.82 39.4247 309.4C39.1247 308.98 38.9747 308.47 38.9747 307.87C38.9747 307.33 39.1097 306.845 39.3797 306.415C39.6497 305.975 40.0497 305.63 40.5797 305.38C41.1197 305.12 41.7697 304.99 42.5297 304.99C43.2897 304.99 43.9347 305.12 44.4647 305.38C45.0047 305.63 45.4097 305.975 45.6797 306.415C45.9597 306.845 46.0997 307.33 46.0997 307.87C46.0997 308.45 45.9447 308.96 45.6347 309.4C45.3247 309.83 44.8997 310.15 44.3597 310.36C44.9797 310.55 45.4697 310.885 45.8297 311.365C46.1997 311.835 46.3847 312.405 46.3847 313.075C46.3847 313.725 46.2247 314.295 45.9047 314.785C45.5847 315.265 45.1297 315.64 44.5397 315.91C43.9597 316.17 43.2897 316.3 42.5297 316.3C41.7697 316.3 41.0997 316.17 40.5197 315.91C39.9497 315.64 39.5047 315.265 39.1847 314.785C38.8647 314.295 38.7047 313.725 38.7047 313.075C38.7047 312.405 38.8847 311.83 39.2447 311.35C39.6047 310.87 40.0947 310.54 40.7147 310.36ZM44.7797 308.035C44.7797 307.425 44.5797 306.955 44.1797 306.625C43.7797 306.295 43.2297 306.13 42.5297 306.13C41.8397 306.13 41.2947 306.295 40.8947 306.625C40.4947 306.955 40.2947 307.43 40.2947 308.05C40.2947 308.61 40.4997 309.06 40.9097 309.4C41.3297 309.74 41.8697 309.91 42.5297 309.91C43.1997 309.91 43.7397 309.74 44.1497 309.4C44.5697 309.05 44.7797 308.595 44.7797 308.035ZM42.5297 310.96C41.7897 310.96 41.1847 311.135 40.7147 311.485C40.2447 311.825 40.0097 312.34 40.0097 313.03C40.0097 313.67 40.2347 314.185 40.6847 314.575C41.1447 314.965 41.7597 315.16 42.5297 315.16C43.2997 315.16 43.9097 314.965 44.3597 314.575C44.8097 314.185 45.0347 313.67 45.0347 313.03C45.0347 312.36 44.8047 311.85 44.3447 311.5C43.8847 311.14 43.2797 310.96 42.5297 310.96Z" fill="#FCFCFC"/>
<path d="M31.765 363.905C33.035 362.885 34.03 362.05 34.75 361.4C35.47 360.74 36.075 360.055 36.565 359.345C37.065 358.625 37.315 357.92 37.315 357.23C37.315 356.58 37.155 356.07 36.835 355.7C36.525 355.32 36.02 355.13 35.32 355.13C34.64 355.13 34.11 355.345 33.73 355.775C33.36 356.195 33.16 356.76 33.13 357.47H31.81C31.85 356.35 32.19 355.485 32.83 354.875C33.47 354.265 34.295 353.96 35.305 353.96C36.335 353.96 37.15 354.245 37.75 354.815C38.36 355.385 38.665 356.17 38.665 357.17C38.665 358 38.415 358.81 37.915 359.6C37.425 360.38 36.865 361.07 36.235 361.67C35.605 362.26 34.8 362.95 33.82 363.74H38.98V364.88H31.765V363.905ZM47.4729 355.34H42.2079V358.76C42.4379 358.44 42.7779 358.18 43.2279 357.98C43.6779 357.77 44.1629 357.665 44.6829 357.665C45.5129 357.665 46.1879 357.84 46.7079 358.19C47.2279 358.53 47.5979 358.975 47.8179 359.525C48.0479 360.065 48.1629 360.64 48.1629 361.25C48.1629 361.97 48.0279 362.615 47.7579 363.185C47.4879 363.755 47.0729 364.205 46.5129 364.535C45.9629 364.865 45.2779 365.03 44.4579 365.03C43.4079 365.03 42.5579 364.76 41.9079 364.22C41.2579 363.68 40.8629 362.96 40.7229 362.06H42.0579C42.1879 362.63 42.4629 363.075 42.8829 363.395C43.3029 363.715 43.8329 363.875 44.4729 363.875C45.2629 363.875 45.8579 363.64 46.2579 363.17C46.6579 362.69 46.8579 362.06 46.8579 361.28C46.8579 360.5 46.6579 359.9 46.2579 359.48C45.8579 359.05 45.2679 358.835 44.4879 358.835C43.9579 358.835 43.4929 358.965 43.0929 359.225C42.7029 359.475 42.4179 359.82 42.2379 360.26H40.9479V354.14H47.4729V355.34Z" fill="#FCFCFC"/>
<path d="M80.765 363.905C82.035 362.885 83.03 362.05 83.75 361.4C84.47 360.74 85.075 360.055 85.565 359.345C86.065 358.625 86.315 357.92 86.315 357.23C86.315 356.58 86.155 356.07 85.835 355.7C85.525 355.32 85.02 355.13 84.32 355.13C83.64 355.13 83.11 355.345 82.73 355.775C82.36 356.195 82.16 356.76 82.13 357.47H80.81C80.85 356.35 81.19 355.485 81.83 354.875C82.47 354.265 83.295 353.96 84.305 353.96C85.335 353.96 86.15 354.245 86.75 354.815C87.36 355.385 87.665 356.17 87.665 357.17C87.665 358 87.415 358.81 86.915 359.6C86.425 360.38 85.865 361.07 85.235 361.67C84.605 362.26 83.8 362.95 82.82 363.74H87.98V364.88H80.765V363.905ZM95.6029 356.735C95.3829 355.625 94.6979 355.07 93.5479 355.07C92.6579 355.07 91.9929 355.415 91.5529 356.105C91.1129 356.785 90.8979 357.91 90.9079 359.48C91.1379 358.96 91.5179 358.555 92.0479 358.265C92.5879 357.965 93.1879 357.815 93.8479 357.815C94.8779 357.815 95.6979 358.135 96.3079 358.775C96.9279 359.415 97.2379 360.3 97.2379 361.43C97.2379 362.11 97.1029 362.72 96.8329 363.26C96.5729 363.8 96.1729 364.23 95.6329 364.55C95.1029 364.87 94.4579 365.03 93.6979 365.03C92.6679 365.03 91.8629 364.8 91.2829 364.34C90.7029 363.88 90.2979 363.245 90.0679 362.435C89.8379 361.625 89.7229 360.625 89.7229 359.435C89.7229 355.765 91.0029 353.93 93.5629 353.93C94.5429 353.93 95.3129 354.195 95.8729 354.725C96.4329 355.255 96.7629 355.925 96.8629 356.735H95.6029ZM93.5629 358.97C93.1329 358.97 92.7279 359.06 92.3479 359.24C91.9679 359.41 91.6579 359.675 91.4179 360.035C91.1879 360.385 91.0729 360.815 91.0729 361.325C91.0729 362.085 91.2929 362.705 91.7329 363.185C92.1729 363.655 92.8029 363.89 93.6229 363.89C94.3229 363.89 94.8779 363.675 95.2879 363.245C95.7079 362.805 95.9179 362.215 95.9179 361.475C95.9179 360.695 95.7179 360.085 95.3179 359.645C94.9179 359.195 94.3329 358.97 93.5629 358.97Z" fill="#FCFCFC"/>
<path d="M130.765 363.905C132.035 362.885 133.03 362.05 133.75 361.4C134.47 360.74 135.075 360.055 135.565 359.345C136.065 358.625 136.315 357.92 136.315 357.23C136.315 356.58 136.155 356.07 135.835 355.7C135.525 355.32 135.02 355.13 134.32 355.13C133.64 355.13 133.11 355.345 132.73 355.775C132.36 356.195 132.16 356.76 132.13 357.47H130.81C130.85 356.35 131.19 355.485 131.83 354.875C132.47 354.265 133.295 353.96 134.305 353.96C135.335 353.96 136.15 354.245 136.75 354.815C137.36 355.385 137.665 356.17 137.665 357.17C137.665 358 137.415 358.81 136.915 359.6C136.425 360.38 135.865 361.07 135.235 361.67C134.605 362.26 133.8 362.95 132.82 363.74H137.98V364.88H130.765V363.905ZM146.233 355.22L142.063 365H140.683L144.913 355.355H139.123V354.185H146.233V355.22Z" fill="#FCFCFC"/>
<path d="M178.765 363.905C180.035 362.885 181.03 362.05 181.75 361.4C182.47 360.74 183.075 360.055 183.565 359.345C184.065 358.625 184.315 357.92 184.315 357.23C184.315 356.58 184.155 356.07 183.835 355.7C183.525 355.32 183.02 355.13 182.32 355.13C181.64 355.13 181.11 355.345 180.73 355.775C180.36 356.195 180.16 356.76 180.13 357.47H178.81C178.85 356.35 179.19 355.485 179.83 354.875C180.47 354.265 181.295 353.96 182.305 353.96C183.335 353.96 184.15 354.245 184.75 354.815C185.36 355.385 185.665 356.17 185.665 357.17C185.665 358 185.415 358.81 184.915 359.6C184.425 360.38 183.865 361.07 183.235 361.67C182.605 362.26 181.8 362.95 180.82 363.74H185.98V364.88H178.765V363.905ZM189.538 359.36C188.978 359.14 188.548 358.82 188.248 358.4C187.948 357.98 187.798 357.47 187.798 356.87C187.798 356.33 187.933 355.845 188.203 355.415C188.473 354.975 188.873 354.63 189.403 354.38C189.943 354.12 190.593 353.99 191.353 353.99C192.113 353.99 192.758 354.12 193.288 354.38C193.828 354.63 194.233 354.975 194.503 355.415C194.783 355.845 194.923 356.33 194.923 356.87C194.923 357.45 194.768 357.96 194.458 358.4C194.148 358.83 193.723 359.15 193.183 359.36C193.803 359.55 194.293 359.885 194.653 360.365C195.023 360.835 195.208 361.405 195.208 362.075C195.208 362.725 195.048 363.295 194.728 363.785C194.408 364.265 193.953 364.64 193.363 364.91C192.783 365.17 192.113 365.3 191.353 365.3C190.593 365.3 189.923 365.17 189.343 364.91C188.773 364.64 188.328 364.265 188.008 363.785C187.688 363.295 187.528 362.725 187.528 362.075C187.528 361.405 187.708 360.83 188.068 360.35C188.428 359.87 188.918 359.54 189.538 359.36ZM193.603 357.035C193.603 356.425 193.403 355.955 193.003 355.625C192.603 355.295 192.053 355.13 191.353 355.13C190.663 355.13 190.118 355.295 189.718 355.625C189.318 355.955 189.118 356.43 189.118 357.05C189.118 357.61 189.323 358.06 189.733 358.4C190.153 358.74 190.693 358.91 191.353 358.91C192.023 358.91 192.563 358.74 192.973 358.4C193.393 358.05 193.603 357.595 193.603 357.035ZM191.353 359.96C190.613 359.96 190.008 360.135 189.538 360.485C189.068 360.825 188.833 361.34 188.833 362.03C188.833 362.67 189.058 363.185 189.508 363.575C189.968 363.965 190.583 364.16 191.353 364.16C192.123 364.16 192.733 363.965 193.183 363.575C193.633 363.185 193.858 362.67 193.858 362.03C193.858 361.36 193.628 360.85 193.168 360.5C192.708 360.14 192.103 359.96 191.353 359.96Z" fill="#FCFCFC"/>
<path d="M227.765 363.905C229.035 362.885 230.03 362.05 230.75 361.4C231.47 360.74 232.075 360.055 232.565 359.345C233.065 358.625 233.315 357.92 233.315 357.23C233.315 356.58 233.155 356.07 232.835 355.7C232.525 355.32 232.02 355.13 231.32 355.13C230.64 355.13 230.11 355.345 229.73 355.775C229.36 356.195 229.16 356.76 229.13 357.47H227.81C227.85 356.35 228.19 355.485 228.83 354.875C229.47 354.265 230.295 353.96 231.305 353.96C232.335 353.96 233.15 354.245 233.75 354.815C234.36 355.385 234.665 356.17 234.665 357.17C234.665 358 234.415 358.81 233.915 359.6C233.425 360.38 232.865 361.07 232.235 361.67C231.605 362.26 230.8 362.95 229.82 363.74H234.98V364.88H227.765V363.905ZM238.313 362.09C238.413 362.66 238.643 363.1 239.003 363.41C239.373 363.72 239.868 363.875 240.488 363.875C241.318 363.875 241.928 363.55 242.318 362.9C242.718 362.25 242.908 361.155 242.888 359.615C242.678 360.065 242.328 360.42 241.838 360.68C241.348 360.93 240.803 361.055 240.203 361.055C239.533 361.055 238.933 360.92 238.403 360.65C237.883 360.37 237.473 359.965 237.173 359.435C236.873 358.905 236.723 358.265 236.723 357.515C236.723 356.445 237.033 355.585 237.653 354.935C238.273 354.275 239.153 353.945 240.293 353.945C241.693 353.945 242.673 354.4 243.233 355.31C243.803 356.22 244.088 357.575 244.088 359.375C244.088 360.635 243.973 361.675 243.743 362.495C243.523 363.315 243.143 363.94 242.603 364.37C242.073 364.8 241.343 365.015 240.413 365.015C239.393 365.015 238.598 364.74 238.028 364.19C237.458 363.64 237.133 362.94 237.053 362.09H238.313ZM240.428 359.9C241.098 359.9 241.648 359.695 242.078 359.285C242.508 358.865 242.723 358.3 242.723 357.59C242.723 356.84 242.513 356.235 242.093 355.775C241.673 355.315 241.083 355.085 240.323 355.085C239.623 355.085 239.063 355.305 238.643 355.745C238.233 356.185 238.028 356.765 238.028 357.485C238.028 358.215 238.233 358.8 238.643 359.24C239.053 359.68 239.648 359.9 240.428 359.9Z" fill="#FCFCFC"/>
<path d="M276.9 356.885C276.97 355.965 277.325 355.245 277.965 354.725C278.605 354.205 279.435 353.945 280.455 353.945C281.135 353.945 281.72 354.07 282.21 354.32C282.71 354.56 283.085 354.89 283.335 355.31C283.595 355.73 283.725 356.205 283.725 356.735C283.725 357.355 283.545 357.89 283.185 358.34C282.835 358.79 282.375 359.08 281.805 359.21V359.285C282.455 359.445 282.97 359.76 283.35 360.23C283.73 360.7 283.92 361.315 283.92 362.075C283.92 362.645 283.79 363.16 283.53 363.62C283.27 364.07 282.88 364.425 282.36 364.685C281.84 364.945 281.215 365.075 280.485 365.075C279.425 365.075 278.555 364.8 277.875 364.25C277.195 363.69 276.815 362.9 276.735 361.88H278.055C278.125 362.48 278.37 362.97 278.79 363.35C279.21 363.73 279.77 363.92 280.47 363.92C281.17 363.92 281.7 363.74 282.06 363.38C282.43 363.01 282.615 362.535 282.615 361.955C282.615 361.205 282.365 360.665 281.865 360.335C281.365 360.005 280.61 359.84 279.6 359.84H279.255V358.7H279.615C280.535 358.69 281.23 358.54 281.7 358.25C282.17 357.95 282.405 357.49 282.405 356.87C282.405 356.34 282.23 355.915 281.88 355.595C281.54 355.275 281.05 355.115 280.41 355.115C279.79 355.115 279.29 355.275 278.91 355.595C278.53 355.915 278.305 356.345 278.235 356.885H276.9ZM285.763 359.465C285.763 357.745 286.043 356.405 286.603 355.445C287.163 354.475 288.143 353.99 289.543 353.99C290.933 353.99 291.908 354.475 292.468 355.445C293.028 356.405 293.308 357.745 293.308 359.465C293.308 361.215 293.028 362.575 292.468 363.545C291.908 364.515 290.933 365 289.543 365C288.143 365 287.163 364.515 286.603 363.545C286.043 362.575 285.763 361.215 285.763 359.465ZM291.958 359.465C291.958 358.595 291.898 357.86 291.778 357.26C291.668 356.65 291.433 356.16 291.073 355.79C290.723 355.42 290.213 355.235 289.543 355.235C288.863 355.235 288.343 355.42 287.983 355.79C287.633 356.16 287.398 356.65 287.278 357.26C287.168 357.86 287.113 358.595 287.113 359.465C287.113 360.365 287.168 361.12 287.278 361.73C287.398 362.34 287.633 362.83 287.983 363.2C288.343 363.57 288.863 363.755 289.543 363.755C290.213 363.755 290.723 363.57 291.073 363.2C291.433 362.83 291.668 362.34 291.778 361.73C291.898 361.12 291.958 360.365 291.958 359.465Z" fill="#FCFCFC"/>
<path d="M332.57 355.4V354.155H335.39V365H334.01V355.4H332.57Z" fill="#93959C"/>
<path d="M82.57 306.4V305.155H85.39V316H84.01V306.4H82.57ZM89.4897 313.09C89.5897 313.66 89.8197 314.1 90.1797 314.41C90.5497 314.72 91.0447 314.875 91.6647 314.875C92.4947 314.875 93.1047 314.55 93.4947 313.9C93.8947 313.25 94.0847 312.155 94.0647 310.615C93.8547 311.065 93.5047 311.42 93.0147 311.68C92.5247 311.93 91.9797 312.055 91.3797 312.055C90.7097 312.055 90.1097 311.92 89.5797 311.65C89.0597 311.37 88.6497 310.965 88.3497 310.435C88.0497 309.905 87.8997 309.265 87.8997 308.515C87.8997 307.445 88.2097 306.585 88.8297 305.935C89.4497 305.275 90.3297 304.945 91.4697 304.945C92.8697 304.945 93.8497 305.4 94.4097 306.31C94.9797 307.22 95.2647 308.575 95.2647 310.375C95.2647 311.635 95.1497 312.675 94.9197 313.495C94.6997 314.315 94.3197 314.94 93.7797 315.37C93.2497 315.8 92.5197 316.015 91.5897 316.015C90.5697 316.015 89.7747 315.74 89.2047 315.19C88.6347 314.64 88.3097 313.94 88.2297 313.09H89.4897ZM91.6047 310.9C92.2747 310.9 92.8247 310.695 93.2547 310.285C93.6847 309.865 93.8997 309.3 93.8997 308.59C93.8997 307.84 93.6897 307.235 93.2697 306.775C92.8497 306.315 92.2597 306.085 91.4997 306.085C90.7997 306.085 90.2397 306.305 89.8197 306.745C89.4097 307.185 89.2047 307.765 89.2047 308.485C89.2047 309.215 89.4097 309.8 89.8197 310.24C90.2297 310.68 90.8247 310.9 91.6047 310.9Z" fill="#FCFCFC"/>
<path d="M129.765 314.905C131.035 313.885 132.03 313.05 132.75 312.4C133.47 311.74 134.075 311.055 134.565 310.345C135.065 309.625 135.315 308.92 135.315 308.23C135.315 307.58 135.155 307.07 134.835 306.7C134.525 306.32 134.02 306.13 133.32 306.13C132.64 306.13 132.11 306.345 131.73 306.775C131.36 307.195 131.16 307.76 131.13 308.47H129.81C129.85 307.35 130.19 306.485 130.83 305.875C131.47 305.265 132.295 304.96 133.305 304.96C134.335 304.96 135.15 305.245 135.75 305.815C136.36 306.385 136.665 307.17 136.665 308.17C136.665 309 136.415 309.81 135.915 310.6C135.425 311.38 134.865 312.07 134.235 312.67C133.605 313.26 132.8 313.95 131.82 314.74H136.98V315.88H129.765V314.905ZM138.558 310.465C138.558 308.745 138.838 307.405 139.398 306.445C139.958 305.475 140.938 304.99 142.338 304.99C143.728 304.99 144.703 305.475 145.263 306.445C145.823 307.405 146.103 308.745 146.103 310.465C146.103 312.215 145.823 313.575 145.263 314.545C144.703 315.515 143.728 316 142.338 316C140.938 316 139.958 315.515 139.398 314.545C138.838 313.575 138.558 312.215 138.558 310.465ZM144.753 310.465C144.753 309.595 144.693 308.86 144.573 308.26C144.463 307.65 144.228 307.16 143.868 306.79C143.518 306.42 143.008 306.235 142.338 306.235C141.658 306.235 141.138 306.42 140.778 306.79C140.428 307.16 140.193 307.65 140.073 308.26C139.963 308.86 139.908 309.595 139.908 310.465C139.908 311.365 139.963 312.12 140.073 312.73C140.193 313.34 140.428 313.83 140.778 314.2C141.138 314.57 141.658 314.755 142.338 314.755C143.008 314.755 143.518 314.57 143.868 314.2C144.228 313.83 144.463 313.34 144.573 312.73C144.693 312.12 144.753 311.365 144.753 310.465Z" fill="#FCFCFC"/>
<path d="M180.765 314.905C182.035 313.885 183.03 313.05 183.75 312.4C184.47 311.74 185.075 311.055 185.565 310.345C186.065 309.625 186.315 308.92 186.315 308.23C186.315 307.58 186.155 307.07 185.835 306.7C185.525 306.32 185.02 306.13 184.32 306.13C183.64 306.13 183.11 306.345 182.73 306.775C182.36 307.195 182.16 307.76 182.13 308.47H180.81C180.85 307.35 181.19 306.485 181.83 305.875C182.47 305.265 183.295 304.96 184.305 304.96C185.335 304.96 186.15 305.245 186.75 305.815C187.36 306.385 187.665 307.17 187.665 308.17C187.665 309 187.415 309.81 186.915 310.6C186.425 311.38 185.865 312.07 185.235 312.67C184.605 313.26 183.8 313.95 182.82 314.74H187.98V315.88H180.765V314.905ZM189.198 306.4V305.155H192.018V316H190.638V306.4H189.198Z" fill="#FCFCFC"/>
<path d="M227.765 314.905C229.035 313.885 230.03 313.05 230.75 312.4C231.47 311.74 232.075 311.055 232.565 310.345C233.065 309.625 233.315 308.92 233.315 308.23C233.315 307.58 233.155 307.07 232.835 306.7C232.525 306.32 232.02 306.13 231.32 306.13C230.64 306.13 230.11 306.345 229.73 306.775C229.36 307.195 229.16 307.76 229.13 308.47H227.81C227.85 307.35 228.19 306.485 228.83 305.875C229.47 305.265 230.295 304.96 231.305 304.96C232.335 304.96 233.15 305.245 233.75 305.815C234.36 306.385 234.665 307.17 234.665 308.17C234.665 309 234.415 309.81 233.915 310.6C233.425 311.38 232.865 312.07 232.235 312.67C231.605 313.26 230.8 313.95 229.82 314.74H234.98V315.88H227.765V314.905ZM236.393 314.905C237.663 313.885 238.658 313.05 239.378 312.4C240.098 311.74 240.703 311.055 241.193 310.345C241.693 309.625 241.943 308.92 241.943 308.23C241.943 307.58 241.783 307.07 241.463 306.7C241.153 306.32 240.648 306.13 239.948 306.13C239.268 306.13 238.738 306.345 238.358 306.775C237.988 307.195 237.788 307.76 237.758 308.47H236.438C236.478 307.35 236.818 306.485 237.458 305.875C238.098 305.265 238.923 304.96 239.933 304.96C240.963 304.96 241.778 305.245 242.378 305.815C242.988 306.385 243.293 307.17 243.293 308.17C243.293 309 243.043 309.81 242.543 310.6C242.053 311.38 241.493 312.07 240.863 312.67C240.233 313.26 239.428 313.95 238.448 314.74H243.608V315.88H236.393V314.905Z" fill="#FCFCFC"/>
<path d="M276.765 314.905C278.035 313.885 279.03 313.05 279.75 312.4C280.47 311.74 281.075 311.055 281.565 310.345C282.065 309.625 282.315 308.92 282.315 308.23C282.315 307.58 282.155 307.07 281.835 306.7C281.525 306.32 281.02 306.13 280.32 306.13C279.64 306.13 279.11 306.345 278.73 306.775C278.36 307.195 278.16 307.76 278.13 308.47H276.81C276.85 307.35 277.19 306.485 277.83 305.875C278.47 305.265 279.295 304.96 280.305 304.96C281.335 304.96 282.15 305.245 282.75 305.815C283.36 306.385 283.665 307.17 283.665 308.17C283.665 309 283.415 309.81 282.915 310.6C282.425 311.38 281.865 312.07 281.235 312.67C280.605 313.26 279.8 313.95 278.82 314.74H283.98V315.88H276.765V314.905ZM285.528 307.885C285.598 306.965 285.953 306.245 286.593 305.725C287.233 305.205 288.063 304.945 289.083 304.945C289.763 304.945 290.348 305.07 290.838 305.32C291.338 305.56 291.713 305.89 291.963 306.31C292.223 306.73 292.353 307.205 292.353 307.735C292.353 308.355 292.173 308.89 291.813 309.34C291.463 309.79 291.003 310.08 290.433 310.21V310.285C291.083 310.445 291.598 310.76 291.978 311.23C292.358 311.7 292.548 312.315 292.548 313.075C292.548 313.645 292.418 314.16 292.158 314.62C291.898 315.07 291.508 315.425 290.988 315.685C290.468 315.945 289.843 316.075 289.113 316.075C288.053 316.075 287.183 315.8 286.503 315.25C285.823 314.69 285.443 313.9 285.363 312.88H286.683C286.753 313.48 286.998 313.97 287.418 314.35C287.838 314.73 288.398 314.92 289.098 314.92C289.798 314.92 290.328 314.74 290.688 314.38C291.058 314.01 291.243 313.535 291.243 312.955C291.243 312.205 290.993 311.665 290.493 311.335C289.993 311.005 289.238 310.84 288.228 310.84H287.883V309.7H288.243C289.163 309.69 289.858 309.54 290.328 309.25C290.798 308.95 291.033 308.49 291.033 307.87C291.033 307.34 290.858 306.915 290.508 306.595C290.168 306.275 289.678 306.115 289.038 306.115C288.418 306.115 287.918 306.275 287.538 306.595C287.158 306.915 286.933 307.345 286.863 307.885H285.528Z" fill="#FCFCFC"/>
<path d="M325.765 314.905C327.035 313.885 328.03 313.05 328.75 312.4C329.47 311.74 330.075 311.055 330.565 310.345C331.065 309.625 331.315 308.92 331.315 308.23C331.315 307.58 331.155 307.07 330.835 306.7C330.525 306.32 330.02 306.13 329.32 306.13C328.64 306.13 328.11 306.345 327.73 306.775C327.36 307.195 327.16 307.76 327.13 308.47H325.81C325.85 307.35 326.19 306.485 326.83 305.875C327.47 305.265 328.295 304.96 329.305 304.96C330.335 304.96 331.15 305.245 331.75 305.815C332.36 306.385 332.665 307.17 332.665 308.17C332.665 309 332.415 309.81 331.915 310.6C331.425 311.38 330.865 312.07 330.235 312.67C329.605 313.26 328.8 313.95 327.82 314.74H332.98V315.88H325.765V314.905ZM334.228 313.585V312.55L339.493 305.26H341.128V312.4H342.628V313.585H341.128V316H339.778V313.585H334.228ZM339.838 306.685L335.803 312.4H339.838V306.685Z" fill="#FCFCFC"/>
<path d="M82.675 233.625V232.065H85.795V243H84.07V233.625H82.675ZM89.0891 240.675C90.0491 239.845 90.8041 239.165 91.3541 238.635C91.9141 238.095 92.3791 237.535 92.7491 236.955C93.1191 236.375 93.3041 235.795 93.3041 235.215C93.3041 234.615 93.1591 234.145 92.8691 233.805C92.5891 233.465 92.1441 233.295 91.5341 233.295C90.9441 233.295 90.4841 233.485 90.1541 233.865C89.8341 234.235 89.6641 234.735 89.6441 235.365H87.9941C88.0241 234.225 88.3641 233.355 89.0141 232.755C89.6741 232.145 90.5091 231.84 91.5191 231.84C92.6091 231.84 93.4591 232.14 94.0691 232.74C94.6891 233.34 94.9991 234.14 94.9991 235.14C94.9991 235.86 94.8141 236.555 94.4441 237.225C94.0841 237.885 93.6491 238.48 93.1391 239.01C92.6391 239.53 91.9991 240.135 91.2191 240.825L90.5441 241.425H95.2991V242.85H88.0091V241.605L89.0891 240.675Z" fill="#FCFCFC"/>
<path d="M130.57 233.4V232.155H133.39V243H132.01V233.4H130.57ZM135.705 234.885C135.775 233.965 136.13 233.245 136.77 232.725C137.41 232.205 138.24 231.945 139.26 231.945C139.94 231.945 140.525 232.07 141.015 232.32C141.515 232.56 141.89 232.89 142.14 233.31C142.4 233.73 142.53 234.205 142.53 234.735C142.53 235.355 142.35 235.89 141.99 236.34C141.64 236.79 141.18 237.08 140.61 237.21V237.285C141.26 237.445 141.775 237.76 142.155 238.23C142.535 238.7 142.725 239.315 142.725 240.075C142.725 240.645 142.595 241.16 142.335 241.62C142.075 242.07 141.685 242.425 141.165 242.685C140.645 242.945 140.02 243.075 139.29 243.075C138.23 243.075 137.36 242.8 136.68 242.25C136 241.69 135.62 240.9 135.54 239.88H136.86C136.93 240.48 137.175 240.97 137.595 241.35C138.015 241.73 138.575 241.92 139.275 241.92C139.975 241.92 140.505 241.74 140.865 241.38C141.235 241.01 141.42 240.535 141.42 239.955C141.42 239.205 141.17 238.665 140.67 238.335C140.17 238.005 139.415 237.84 138.405 237.84H138.06V236.7H138.42C139.34 236.69 140.035 236.54 140.505 236.25C140.975 235.95 141.21 235.49 141.21 234.87C141.21 234.34 141.035 233.915 140.685 233.595C140.345 233.275 139.855 233.115 139.215 233.115C138.595 233.115 138.095 233.275 137.715 233.595C137.335 233.915 137.11 234.345 137.04 234.885H135.705Z" fill="#FCFCFC"/>
<path d="M179.57 233.4V232.155H182.39V243H181.01V233.4H179.57ZM184.405 240.585V239.55L189.67 232.26H191.305V239.4H192.805V240.585H191.305V243H189.955V240.585H184.405ZM190.015 233.685L185.98 239.4H190.015V233.685Z" fill="#FCFCFC"/>
<path d="M228.57 233.4V232.155H231.39V243H230.01V233.4H228.57ZM240.65 233.34H235.385V236.76C235.615 236.44 235.955 236.18 236.405 235.98C236.855 235.77 237.34 235.665 237.86 235.665C238.69 235.665 239.365 235.84 239.885 236.19C240.405 236.53 240.775 236.975 240.995 237.525C241.225 238.065 241.34 238.64 241.34 239.25C241.34 239.97 241.205 240.615 240.935 241.185C240.665 241.755 240.25 242.205 239.69 242.535C239.14 242.865 238.455 243.03 237.635 243.03C236.585 243.03 235.735 242.76 235.085 242.22C234.435 241.68 234.04 240.96 233.9 240.06H235.235C235.365 240.63 235.64 241.075 236.06 241.395C236.48 241.715 237.01 241.875 237.65 241.875C238.44 241.875 239.035 241.64 239.435 241.17C239.835 240.69 240.035 240.06 240.035 239.28C240.035 238.5 239.835 237.9 239.435 237.48C239.035 237.05 238.445 236.835 237.665 236.835C237.135 236.835 236.67 236.965 236.27 237.225C235.88 237.475 235.595 237.82 235.415 238.26H234.125V232.14H240.65V233.34Z" fill="#FCFCFC"/>
<path d="M277.57 233.4V232.155H280.39V243H279.01V233.4H277.57ZM288.78 234.735C288.56 233.625 287.875 233.07 286.725 233.07C285.835 233.07 285.17 233.415 284.73 234.105C284.29 234.785 284.075 235.91 284.085 237.48C284.315 236.96 284.695 236.555 285.225 236.265C285.765 235.965 286.365 235.815 287.025 235.815C288.055 235.815 288.875 236.135 289.485 236.775C290.105 237.415 290.415 238.3 290.415 239.43C290.415 240.11 290.28 240.72 290.01 241.26C289.75 241.8 289.35 242.23 288.81 242.55C288.28 242.87 287.635 243.03 286.875 243.03C285.845 243.03 285.04 242.8 284.46 242.34C283.88 241.88 283.475 241.245 283.245 240.435C283.015 239.625 282.9 238.625 282.9 237.435C282.9 233.765 284.18 231.93 286.74 231.93C287.72 231.93 288.49 232.195 289.05 232.725C289.61 233.255 289.94 233.925 290.04 234.735H288.78ZM286.74 236.97C286.31 236.97 285.905 237.06 285.525 237.24C285.145 237.41 284.835 237.675 284.595 238.035C284.365 238.385 284.25 238.815 284.25 239.325C284.25 240.085 284.47 240.705 284.91 241.185C285.35 241.655 285.98 241.89 286.8 241.89C287.5 241.89 288.055 241.675 288.465 241.245C288.885 240.805 289.095 240.215 289.095 239.475C289.095 238.695 288.895 238.085 288.495 237.645C288.095 237.195 287.51 236.97 286.74 236.97Z" fill="#FCFCFC"/>
<path d="M327.57 233.4V232.155H330.39V243H329.01V233.4H327.57ZM339.41 233.22L335.24 243H333.86L338.09 233.355H332.3V232.185H339.41V233.22Z" fill="#FCFCFC"/>
<g clip-path="url(#clip0_5340_5366)">
<path d="M39.4438 86.312V96H38.1698V88.776L34.9498 96H34.0538L30.8198 88.762V96H29.5458V86.312H30.9178L34.5018 94.32L38.0858 86.312H39.4438ZM46.0284 96.098C45.123 96.098 44.297 95.888 43.5504 95.468C42.8037 95.0387 42.211 94.446 41.7724 93.69C41.343 92.9247 41.1284 92.066 41.1284 91.114C41.1284 90.162 41.343 89.308 41.7724 88.552C42.211 87.7867 42.8037 87.194 43.5504 86.774C44.297 86.3447 45.123 86.13 46.0284 86.13C46.943 86.13 47.7737 86.3447 48.5204 86.774C49.267 87.194 49.855 87.782 50.2844 88.538C50.7137 89.294 50.9284 90.1527 50.9284 91.114C50.9284 92.0753 50.7137 92.934 50.2844 93.69C49.855 94.446 49.267 95.0387 48.5204 95.468C47.7737 95.888 46.943 96.098 46.0284 96.098ZM46.0284 94.992C46.7097 94.992 47.321 94.8333 47.8624 94.516C48.413 94.1987 48.8424 93.746 49.1504 93.158C49.4677 92.57 49.6264 91.8887 49.6264 91.114C49.6264 90.33 49.4677 89.6487 49.1504 89.07C48.8424 88.482 48.4177 88.0293 47.8764 87.712C47.335 87.3947 46.719 87.236 46.0284 87.236C45.3377 87.236 44.7217 87.3947 44.1804 87.712C43.639 88.0293 43.2097 88.482 42.8924 89.07C42.5844 89.6487 42.4304 90.33 42.4304 91.114C42.4304 91.8887 42.5844 92.57 42.8924 93.158C43.2097 93.746 43.639 94.1987 44.1804 94.516C44.731 94.8333 45.347 94.992 46.0284 94.992Z" fill="#93959C"/>
<path d="M86.0733 86.242V87.278H83.4133V96H82.1393V87.278H79.4653V86.242H86.0733ZM88.8875 86.242V92.416C88.8875 93.284 89.0975 93.928 89.5175 94.348C89.9468 94.768 90.5395 94.978 91.2955 94.978C92.0421 94.978 92.6255 94.768 93.0455 94.348C93.4748 93.928 93.6895 93.284 93.6895 92.416V86.242H94.9635V92.402C94.9635 93.214 94.8001 93.9 94.4735 94.46C94.1468 95.0107 93.7035 95.4213 93.1435 95.692C92.5928 95.9627 91.9721 96.098 91.2815 96.098C90.5908 96.098 89.9655 95.9627 89.4055 95.692C88.8548 95.4213 88.4161 95.0107 88.0895 94.46C87.7721 93.9 87.6135 93.214 87.6135 92.402V86.242H88.8875Z" fill="#93959C"/>
<path d="M139.924 86.242L137.096 96H135.668L133.4 88.146L131.048 96L129.634 96.014L126.904 86.242H128.262L130.39 94.516L132.742 86.242H134.17L136.41 94.488L138.552 86.242H139.924ZM142.592 87.278V90.54H146.148V91.59H142.592V94.95H146.568V96H141.318V86.228H146.568V87.278H142.592Z" fill="#93959C"/>
<path d="M182.45 86.242V87.278H179.79V96H178.516V87.278H175.842V86.242H182.45ZM191.536 86.242V96H190.262V91.576H185.292V96H184.018V86.242H185.292V90.526H190.262V86.242H191.536Z" fill="#93959C"/>
<path d="M233.308 86.242V87.278H229.066V90.568H232.51V91.604H229.066V96H227.792V86.242H233.308ZM239.985 96L237.661 92.01H236.121V96H234.847V86.242H237.997C238.734 86.242 239.355 86.368 239.859 86.62C240.372 86.872 240.755 87.2127 241.007 87.642C241.259 88.0713 241.385 88.5613 241.385 89.112C241.385 89.784 241.189 90.3767 240.797 90.89C240.414 91.4033 239.835 91.744 239.061 91.912L241.511 96H239.985ZM236.121 90.988H237.997C238.687 90.988 239.205 90.82 239.551 90.484C239.896 90.1387 240.069 89.6813 240.069 89.112C240.069 88.5333 239.896 88.0853 239.551 87.768C239.215 87.4507 238.697 87.292 237.997 87.292H236.121V90.988Z" fill="#93959C"/>
<path d="M281.847 96.098C281.203 96.098 280.624 95.986 280.111 95.762C279.607 95.5287 279.21 95.2113 278.921 94.81C278.631 94.3993 278.482 93.928 278.473 93.396H279.831C279.877 93.8533 280.064 94.2407 280.391 94.558C280.727 94.866 281.212 95.02 281.847 95.02C282.453 95.02 282.929 94.8707 283.275 94.572C283.629 94.264 283.807 93.872 283.807 93.396C283.807 93.0227 283.704 92.7193 283.499 92.486C283.293 92.2527 283.037 92.0753 282.729 91.954C282.421 91.8327 282.005 91.702 281.483 91.562C280.839 91.394 280.321 91.226 279.929 91.058C279.546 90.89 279.215 90.6287 278.935 90.274C278.664 89.91 278.529 89.4247 278.529 88.818C278.529 88.286 278.664 87.8147 278.935 87.404C279.205 86.9933 279.583 86.676 280.069 86.452C280.563 86.228 281.128 86.116 281.763 86.116C282.677 86.116 283.424 86.3447 284.003 86.802C284.591 87.2593 284.922 87.866 284.997 88.622H283.597C283.55 88.2487 283.354 87.922 283.009 87.642C282.663 87.3527 282.206 87.208 281.637 87.208C281.105 87.208 280.671 87.348 280.335 87.628C279.999 87.8987 279.831 88.2813 279.831 88.776C279.831 89.1307 279.929 89.42 280.125 89.644C280.33 89.868 280.577 90.0407 280.867 90.162C281.165 90.274 281.581 90.4047 282.113 90.554C282.757 90.7313 283.275 90.9087 283.667 91.086C284.059 91.254 284.395 91.52 284.675 91.884C284.955 92.2387 285.095 92.724 285.095 93.34C285.095 93.816 284.969 94.264 284.717 94.684C284.465 95.104 284.091 95.4447 283.597 95.706C283.102 95.9673 282.519 96.098 281.847 96.098ZM292.738 93.83H288.482L287.698 96H286.354L289.882 86.298H291.352L294.866 96H293.522L292.738 93.83ZM292.374 92.794L290.61 87.866L288.846 92.794H292.374Z" fill="#93959C"/>
<path d="M330.34 96.098C329.696 96.098 329.117 95.986 328.604 95.762C328.1 95.5287 327.703 95.2113 327.414 94.81C327.125 94.3993 326.975 93.928 326.966 93.396H328.324C328.371 93.8533 328.557 94.2407 328.884 94.558C329.22 94.866 329.705 95.02 330.34 95.02C330.947 95.02 331.423 94.8707 331.768 94.572C332.123 94.264 332.3 93.872 332.3 93.396C332.3 93.0227 332.197 92.7193 331.992 92.486C331.787 92.2527 331.53 92.0753 331.222 91.954C330.914 91.8327 330.499 91.702 329.976 91.562C329.332 91.394 328.814 91.226 328.422 91.058C328.039 90.89 327.708 90.6287 327.428 90.274C327.157 89.91 327.022 89.4247 327.022 88.818C327.022 88.286 327.157 87.8147 327.428 87.404C327.699 86.9933 328.077 86.676 328.562 86.452C329.057 86.228 329.621 86.116 330.256 86.116C331.171 86.116 331.917 86.3447 332.496 86.802C333.084 87.2593 333.415 87.866 333.49 88.622H332.09C332.043 88.2487 331.847 87.922 331.502 87.642C331.157 87.3527 330.699 87.208 330.13 87.208C329.598 87.208 329.164 87.348 328.828 87.628C328.492 87.8987 328.324 88.2813 328.324 88.776C328.324 89.1307 328.422 89.42 328.618 89.644C328.823 89.868 329.071 90.0407 329.36 90.162C329.659 90.274 330.074 90.4047 330.606 90.554C331.25 90.7313 331.768 90.9087 332.16 91.086C332.552 91.254 332.888 91.52 333.168 91.884C333.448 92.2387 333.588 92.724 333.588 93.34C333.588 93.816 333.462 94.264 333.21 94.684C332.958 95.104 332.585 95.4447 332.09 95.706C331.595 95.9673 331.012 96.098 330.34 96.098ZM336.709 86.242V92.416C336.709 93.284 336.919 93.928 337.339 94.348C337.768 94.768 338.361 94.978 339.117 94.978C339.863 94.978 340.447 94.768 340.867 94.348C341.296 93.928 341.511 93.284 341.511 92.416V86.242H342.785V92.402C342.785 93.214 342.621 93.9 342.295 94.46C341.968 95.0107 341.525 95.4213 340.965 95.692C340.414 95.9627 339.793 96.098 339.103 96.098C338.412 96.098 337.787 95.9627 337.227 95.692C336.676 95.4213 336.237 95.0107 335.911 94.46C335.593 93.9 335.435 93.214 335.435 92.402V86.242H336.709Z" fill="#93959C"/>
</g>
<rect x="33" y="263" width="311" height="32" rx="4" fill="#333333"/>
<path d="M87.134 257.5C87.5189 256.833 88.4811 256.833 88.866 257.5L92.3301 263.5C92.715 264.167 92.2339 265 91.4641 265H84.5359C83.7661 265 83.285 264.167 83.6699 263.5L87.134 257.5Z" fill="#333333"/>
<mask id="mask2_5340_5366" style="mask-type:luminance" maskUnits="userSpaceOnUse" x="28" y="20" width="34" height="34">
<rect x="28" y="20" width="34" height="34" rx="10" fill="white"/>
</mask>
<g mask="url(#mask2_5340_5366)">
<rect x="28" y="20" width="34" height="34" fill="#30323B"/>
</g>
<mask id="mask3_5340_5366" style="mask-type:luminance" maskUnits="userSpaceOnUse" x="41" y="32" width="6" height="10">
<path fill-rule="evenodd" clip-rule="evenodd" d="M46.544 41.4239C46.3097 41.6582 45.9298 41.6582 45.6955 41.4239L41.2712 36.9996L45.6955 32.5754C45.9298 32.3411 46.3097 32.3411 46.544 32.5754C46.7783 32.8097 46.7783 33.1895 46.544 33.4239L42.9683 36.9996L46.544 40.5753C46.7783 40.8097 46.7783 41.1896 46.544 41.4239Z" fill="white"/>
</mask>
<g mask="url(#mask3_5340_5366)">
<rect x="52" y="45" width="16" height="16" transform="rotate(180 52 45)" fill="#93959C"/>
</g>
<path d="M111.08 45.14C110.147 45.14 109.307 44.98 108.56 44.66C107.813 44.3267 107.227 43.86 106.8 43.26C106.373 42.66 106.16 41.96 106.16 41.16H108.6C108.653 41.76 108.887 42.2533 109.3 42.64C109.727 43.0267 110.32 43.22 111.08 43.22C111.867 43.22 112.48 43.0333 112.92 42.66C113.36 42.2733 113.58 41.78 113.58 41.18C113.58 40.7133 113.44 40.3333 113.16 40.04C112.893 39.7467 112.553 39.52 112.14 39.36C111.74 39.2 111.18 39.0267 110.46 38.84C109.553 38.6 108.813 38.36 108.24 38.12C107.68 37.8667 107.2 37.48 106.8 36.96C106.4 36.44 106.2 35.7467 106.2 34.88C106.2 34.08 106.4 33.38 106.8 32.78C107.2 32.18 107.76 31.72 108.48 31.4C109.2 31.08 110.033 30.92 110.98 30.92C112.327 30.92 113.427 31.26 114.28 31.94C115.147 32.6067 115.627 33.5267 115.72 34.7H113.2C113.16 34.1933 112.92 33.76 112.48 33.4C112.04 33.04 111.46 32.86 110.74 32.86C110.087 32.86 109.553 33.0267 109.14 33.36C108.727 33.6933 108.52 34.1733 108.52 34.8C108.52 35.2267 108.647 35.58 108.9 35.86C109.167 36.1267 109.5 36.34 109.9 36.5C110.3 36.66 110.847 36.8333 111.54 37.02C112.46 37.2733 113.207 37.5267 113.78 37.78C114.367 38.0333 114.86 38.4267 115.26 38.96C115.673 39.48 115.88 40.18 115.88 41.06C115.88 41.7667 115.687 42.4333 115.3 43.06C114.927 43.6867 114.373 44.1933 113.64 44.58C112.92 44.9533 112.067 45.14 111.08 45.14ZM128.67 39.22C128.67 39.6333 128.644 40.0067 128.59 40.34H120.17C120.237 41.22 120.564 41.9267 121.15 42.46C121.737 42.9933 122.457 43.26 123.31 43.26C124.537 43.26 125.404 42.7467 125.91 41.72H128.37C128.037 42.7333 127.43 43.5667 126.55 44.22C125.684 44.86 124.604 45.18 123.31 45.18C122.257 45.18 121.31 44.9467 120.47 44.48C119.644 44 118.99 43.3333 118.51 42.48C118.044 41.6133 117.81 40.6133 117.81 39.48C117.81 38.3467 118.037 37.3533 118.49 36.5C118.957 35.6333 119.604 34.9667 120.43 34.5C121.27 34.0333 122.23 33.8 123.31 33.8C124.35 33.8 125.277 34.0267 126.09 34.48C126.904 34.9333 127.537 35.5733 127.99 36.4C128.444 37.2133 128.67 38.1533 128.67 39.22ZM126.29 38.5C126.277 37.66 125.977 36.9867 125.39 36.48C124.804 35.9733 124.077 35.72 123.21 35.72C122.424 35.72 121.75 35.9733 121.19 36.48C120.63 36.9733 120.297 37.6467 120.19 38.5H126.29ZM133.194 35.6C133.581 35.0933 134.107 34.6667 134.774 34.32C135.441 33.9733 136.194 33.8 137.034 33.8C137.994 33.8 138.867 34.04 139.654 34.52C140.454 34.9867 141.081 35.6467 141.534 36.5C141.987 37.3533 142.214 38.3333 142.214 39.44C142.214 40.5467 141.987 41.54 141.534 42.42C141.081 43.2867 140.454 43.9667 139.654 44.46C138.867 44.94 137.994 45.18 137.034 45.18C136.194 45.18 135.447 45.0133 134.794 44.68C134.141 44.3333 133.607 43.9067 133.194 43.4V50.24H130.914V33.98H133.194V35.6ZM139.894 39.44C139.894 38.68 139.734 38.0267 139.414 37.48C139.107 36.92 138.694 36.5 138.174 36.22C137.667 35.9267 137.121 35.78 136.534 35.78C135.961 35.78 135.414 35.9267 134.894 36.22C134.387 36.5133 133.974 36.94 133.654 37.5C133.347 38.06 133.194 38.72 133.194 39.48C133.194 40.24 133.347 40.9067 133.654 41.48C133.974 42.04 134.387 42.4667 134.894 42.76C135.414 43.0533 135.961 43.2 136.534 43.2C137.121 43.2 137.667 43.0533 138.174 42.76C138.694 42.4533 139.107 42.0133 139.414 41.44C139.734 40.8667 139.894 40.2 139.894 39.44ZM147.129 35.84V41.94C147.129 42.3533 147.222 42.6533 147.409 42.84C147.609 43.0133 147.942 43.1 148.409 43.1H149.809V45H148.009C146.982 45 146.195 44.76 145.649 44.28C145.102 43.8 144.829 43.02 144.829 41.94V35.84H143.529V33.98H144.829V31.24H147.129V33.98H149.809V35.84H147.129ZM162.01 39.22C162.01 39.6333 161.983 40.0067 161.93 40.34H153.51C153.577 41.22 153.903 41.9267 154.49 42.46C155.077 42.9933 155.797 43.26 156.65 43.26C157.877 43.26 158.743 42.7467 159.25 41.72H161.71C161.377 42.7333 160.77 43.5667 159.89 44.22C159.023 44.86 157.943 45.18 156.65 45.18C155.597 45.18 154.65 44.9467 153.81 44.48C152.983 44 152.33 43.3333 151.85 42.48C151.383 41.6133 151.15 40.6133 151.15 39.48C151.15 38.3467 151.377 37.3533 151.83 36.5C152.297 35.6333 152.943 34.9667 153.77 34.5C154.61 34.0333 155.57 33.8 156.65 33.8C157.69 33.8 158.617 34.0267 159.43 34.48C160.243 34.9333 160.877 35.5733 161.33 36.4C161.783 37.2133 162.01 38.1533 162.01 39.22ZM159.63 38.5C159.617 37.66 159.317 36.9867 158.73 36.48C158.143 35.9733 157.417 35.72 156.55 35.72C155.763 35.72 155.09 35.9733 154.53 36.48C153.97 36.9733 153.637 37.6467 153.53 38.5H159.63ZM177.594 33.8C178.461 33.8 179.234 33.98 179.914 34.34C180.607 34.7 181.147 35.2333 181.534 35.94C181.934 36.6467 182.134 37.5 182.134 38.5V45H179.874V38.84C179.874 37.8533 179.627 37.1 179.134 36.58C178.641 36.0467 177.967 35.78 177.114 35.78C176.261 35.78 175.581 36.0467 175.074 36.58C174.581 37.1 174.334 37.8533 174.334 38.84V45H172.074V38.84C172.074 37.8533 171.827 37.1 171.334 36.58C170.841 36.0467 170.167 35.78 169.314 35.78C168.461 35.78 167.781 36.0467 167.274 36.58C166.781 37.1 166.534 37.8533 166.534 38.84V45H164.254V33.98H166.534V35.24C166.907 34.7867 167.381 34.4333 167.954 34.18C168.527 33.9267 169.141 33.8 169.794 33.8C170.674 33.8 171.461 33.9867 172.154 34.36C172.847 34.7333 173.381 35.2733 173.754 35.98C174.087 35.3133 174.607 34.7867 175.314 34.4C176.021 34 176.781 33.8 177.594 33.8ZM187.315 35.62C187.702 35.0867 188.228 34.6533 188.895 34.32C189.575 33.9733 190.328 33.8 191.155 33.8C192.128 33.8 193.008 34.0333 193.795 34.5C194.582 34.9667 195.202 35.6333 195.655 36.5C196.108 37.3533 196.335 38.3333 196.335 39.44C196.335 40.5467 196.108 41.54 195.655 42.42C195.202 43.2867 194.575 43.9667 193.775 44.46C192.988 44.94 192.115 45.18 191.155 45.18C190.302 45.18 189.542 45.0133 188.875 44.68C188.222 44.3467 187.702 43.92 187.315 43.4V45H185.035V30.2H187.315V35.62ZM194.015 39.44C194.015 38.68 193.855 38.0267 193.535 37.48C193.228 36.92 192.815 36.5 192.295 36.22C191.788 35.9267 191.242 35.78 190.655 35.78C190.082 35.78 189.535 35.9267 189.015 36.22C188.508 36.5133 188.095 36.94 187.775 37.5C187.468 38.06 187.315 38.72 187.315 39.48C187.315 40.24 187.468 40.9067 187.775 41.48C188.095 42.04 188.508 42.4667 189.015 42.76C189.535 43.0533 190.082 43.2 190.655 43.2C191.242 43.2 191.788 43.0533 192.295 42.76C192.815 42.4533 193.228 42.0133 193.535 41.44C193.855 40.8667 194.015 40.2 194.015 39.44ZM208.69 39.22C208.69 39.6333 208.663 40.0067 208.61 40.34H200.19C200.257 41.22 200.583 41.9267 201.17 42.46C201.757 42.9933 202.477 43.26 203.33 43.26C204.557 43.26 205.423 42.7467 205.93 41.72H208.39C208.057 42.7333 207.45 43.5667 206.57 44.22C205.703 44.86 204.623 45.18 203.33 45.18C202.277 45.18 201.33 44.9467 200.49 44.48C199.663 44 199.01 43.3333 198.53 42.48C198.063 41.6133 197.83 40.6133 197.83 39.48C197.83 38.3467 198.057 37.3533 198.51 36.5C198.977 35.6333 199.623 34.9667 200.45 34.5C201.29 34.0333 202.25 33.8 203.33 33.8C204.37 33.8 205.297 34.0267 206.11 34.48C206.923 34.9333 207.557 35.5733 208.01 36.4C208.463 37.2133 208.69 38.1533 208.69 39.22ZM206.31 38.5C206.297 37.66 205.997 36.9867 205.41 36.48C204.823 35.9733 204.097 35.72 203.23 35.72C202.443 35.72 201.77 35.9733 201.21 36.48C200.65 36.9733 200.317 37.6467 200.21 38.5H206.31ZM213.214 35.58C213.547 35.02 213.987 34.5867 214.534 34.28C215.094 33.96 215.754 33.8 216.514 33.8V36.16H215.934C215.04 36.16 214.36 36.3867 213.894 36.84C213.44 37.2933 213.214 38.08 213.214 39.2V45H210.934V33.98H213.214V35.58Z" fill="#FCFCFC"/>
<path d="M227.214 42.21C228.366 41.214 229.272 40.398 229.932 39.762C230.604 39.114 231.162 38.442 231.606 37.746C232.05 37.05 232.272 36.354 232.272 35.658C232.272 34.938 232.098 34.374 231.75 33.966C231.414 33.558 230.88 33.354 230.148 33.354C229.44 33.354 228.888 33.582 228.492 34.038C228.108 34.482 227.904 35.082 227.88 35.838H225.9C225.936 34.47 226.344 33.426 227.124 32.706C227.916 31.974 228.918 31.608 230.13 31.608C231.438 31.608 232.458 31.968 233.19 32.688C233.934 33.408 234.306 34.368 234.306 35.568C234.306 36.432 234.084 37.266 233.64 38.07C233.208 38.862 232.686 39.576 232.074 40.212C231.474 40.836 230.706 41.562 229.77 42.39L228.96 43.11H234.666V44.82H225.918V43.326L227.214 42.21ZM236.469 38.268C236.469 36.192 236.817 34.572 237.513 33.408C238.221 32.232 239.433 31.644 241.149 31.644C242.865 31.644 244.071 32.232 244.767 33.408C245.475 34.572 245.829 36.192 245.829 38.268C245.829 40.368 245.475 42.012 244.767 43.2C244.071 44.376 242.865 44.964 241.149 44.964C239.433 44.964 238.221 44.376 237.513 43.2C236.817 42.012 236.469 40.368 236.469 38.268ZM243.813 38.268C243.813 37.296 243.747 36.474 243.615 35.802C243.495 35.13 243.243 34.584 242.859 34.164C242.475 33.732 241.905 33.516 241.149 33.516C240.393 33.516 239.823 33.732 239.439 34.164C239.055 34.584 238.797 35.13 238.665 35.802C238.545 36.474 238.485 37.296 238.485 38.268C238.485 39.276 238.545 40.122 238.665 40.806C238.785 41.49 239.037 42.042 239.421 42.462C239.817 42.882 240.393 43.092 241.149 43.092C241.905 43.092 242.475 42.882 242.859 42.462C243.255 42.042 243.513 41.49 243.633 40.806C243.753 40.122 243.813 39.276 243.813 38.268ZM249.134 42.21C250.286 41.214 251.192 40.398 251.852 39.762C252.524 39.114 253.082 38.442 253.526 37.746C253.97 37.05 254.192 36.354 254.192 35.658C254.192 34.938 254.018 34.374 253.67 33.966C253.334 33.558 252.8 33.354 252.068 33.354C251.36 33.354 250.808 33.582 250.412 34.038C250.028 34.482 249.824 35.082 249.8 35.838H247.82C247.856 34.47 248.264 33.426 249.044 32.706C249.836 31.974 250.838 31.608 252.05 31.608C253.358 31.608 254.378 31.968 255.11 32.688C255.854 33.408 256.226 34.368 256.226 35.568C256.226 36.432 256.004 37.266 255.56 38.07C255.128 38.862 254.606 39.576 253.994 40.212C253.394 40.836 252.626 41.562 251.69 42.39L250.88 43.11H256.586V44.82H247.838V43.326L249.134 42.21ZM258.389 38.268C258.389 36.192 258.737 34.572 259.433 33.408C260.141 32.232 261.353 31.644 263.069 31.644C264.785 31.644 265.991 32.232 266.687 33.408C267.395 34.572 267.749 36.192 267.749 38.268C267.749 40.368 267.395 42.012 266.687 43.2C265.991 44.376 264.785 44.964 263.069 44.964C261.353 44.964 260.141 44.376 259.433 43.2C258.737 42.012 258.389 40.368 258.389 38.268ZM265.733 38.268C265.733 37.296 265.667 36.474 265.535 35.802C265.415 35.13 265.163 34.584 264.779 34.164C264.395 33.732 263.825 33.516 263.069 33.516C262.313 33.516 261.743 33.732 261.359 34.164C260.975 34.584 260.717 35.13 260.585 35.802C260.465 36.474 260.405 37.296 260.405 38.268C260.405 39.276 260.465 40.122 260.585 40.806C260.705 41.49 260.957 42.042 261.341 42.462C261.737 42.882 262.313 43.092 263.069 43.092C263.825 43.092 264.395 42.882 264.779 42.462C265.175 42.042 265.433 41.49 265.553 40.806C265.673 40.122 265.733 39.276 265.733 38.268Z" fill="#93959C"/>
<mask id="mask4_5340_5366" style="mask-type:luminance" maskUnits="userSpaceOnUse" x="311" y="20" width="34" height="34">
<rect x="311" y="20" width="34" height="34" rx="10" fill="white"/>
</mask>
<g mask="url(#mask4_5340_5366)">
<rect x="311" y="20" width="34" height="34" fill="#30323B"/>
</g>
<mask id="mask5_5340_5366" style="mask-type:luminance" maskUnits="userSpaceOnUse" x="326" y="32" width="6" height="10">
<path fill-rule="evenodd" clip-rule="evenodd" d="M326.456 32.5761C326.69 32.3418 327.07 32.3418 327.305 32.5761L331.729 37.0004L327.305 41.4246C327.07 41.6589 326.69 41.6589 326.456 41.4246C326.222 41.1903 326.222 40.8105 326.456 40.5761L330.032 37.0004L326.456 33.4247C326.222 33.1903 326.222 32.8104 326.456 32.5761Z" fill="white"/>
</mask>
<g mask="url(#mask5_5340_5366)">
<rect x="321" y="29" width="16" height="16" fill="#93959C"/>
</g>
<defs>
<clipPath id="clip0_5340_5366">
<rect width="316" height="20" fill="white" transform="translate(28 81)"/>
</clipPath>
</defs>
</svg>
