<svg width="160" height="186" viewBox="0 0 160 186" fill="none" xmlns="http://www.w3.org/2000/svg">
<g clip-path="url(#clip0_5340_2230)">
<g filter="url(#filter0_d_5340_2230)">
<mask id="mask0_5340_2230" style="mask-type:luminance" maskUnits="userSpaceOnUse" x="0" y="0" width="160" height="186">
<rect width="160" height="186" fill="white"/>
</mask>
<g mask="url(#mask0_5340_2230)">
<rect width="160" height="186" fill="#18191B"/>
</g>
</g>
<mask id="mask1_5340_2230" style="mask-type:luminance" maskUnits="userSpaceOnUse" x="56" y="32" width="48" height="48">
<rect x="56" y="32" width="48" height="48" rx="14" fill="white"/>
</mask>
<g mask="url(#mask1_5340_2230)">
<g opacity="0.1">
<rect x="56" y="32" width="48" height="48" fill="#FFDB6E"/>
</g>
</g>
<path fill-rule="evenodd" clip-rule="evenodd" d="M77.125 47.6756C77.125 47.5644 77.2093 47.5006 77.2812 47.5006H82.7185C82.7904 47.5006 82.8747 47.5644 82.8747 47.6756V48.5863L82.8745 48.6015L82.8747 48.6166V49.5261C82.8747 49.6373 82.7904 49.7011 82.7185 49.7011H77.2812C77.2093 49.7011 77.125 49.6373 77.125 49.5261V47.6756ZM84.3747 49.3518V49.5261C84.3747 50.437 83.6476 51.2017 82.7185 51.2017H77.2812C76.3521 51.2017 75.625 50.437 75.625 49.5261V49.3518H74.5624C74.2857 49.3518 74.0171 49.4639 73.8166 49.6686C73.6156 49.8738 73.5 50.1553 73.5 50.4521V55.0178C73.3635 55.0028 73.2252 54.9951 73.0857 54.9951C72.7118 54.9951 72.3467 55.0501 72 55.1539V50.4521C72 49.7672 72.2663 49.1073 72.7451 48.6184C73.2244 48.129 73.8778 47.8512 74.5624 47.8512H75.625V47.6756C75.625 46.7647 76.3521 46 77.2812 46H82.7185C83.6476 46 84.3747 46.7647 84.3747 47.6756V47.8512H85.437C86.1216 47.8512 86.775 48.129 87.2543 48.6184C87.7331 49.1073 87.9994 49.7672 87.9994 50.4521V63.406C87.9994 64.0908 87.7331 64.7508 87.2543 65.2396C86.775 65.7291 86.1216 66.0069 85.437 66.0069H81.5085C82.0186 65.6184 82.4279 65.1032 82.6877 64.5063H85.437C85.7137 64.5063 85.9823 64.3942 86.1828 64.1895C86.3838 63.9842 86.4994 63.7027 86.4994 63.406V50.4521C86.4994 50.1553 86.3838 49.8738 86.1828 49.6686C85.9823 49.4639 85.7137 49.3518 85.437 49.3518H84.3747ZM73.8311 58.5307C73.7242 58.2115 73.4239 57.9963 73.0857 57.9963C72.7475 57.9963 72.4473 58.2115 72.3403 58.5307L71.1051 62.2165H69.7857C69.3518 62.2165 69 62.5665 69 62.9981C69 63.4297 69.3518 63.7796 69.7857 63.7796H71.6714C72.0096 63.7796 72.3099 63.5643 72.4168 63.2452L73.0857 61.2492L75.1689 67.4656C75.2758 67.7847 75.5761 68 75.9143 68C76.2525 68 76.5527 67.7847 76.6597 67.4656L77.8949 63.7796H79.2143C79.6482 63.7796 80 63.4297 80 62.9981C80 62.5665 79.6482 62.2165 79.2143 62.2165H77.3286C76.9904 62.2165 76.6901 62.4318 76.5832 62.7509L75.9143 64.747L73.8311 58.5307Z" fill="#FFD240"/>
<mask id="mask2_5340_2230" style="mask-type:luminance" maskUnits="userSpaceOnUse" x="69" y="46" width="19" height="22">
<path fill-rule="evenodd" clip-rule="evenodd" d="M77.125 47.6756C77.125 47.5644 77.2093 47.5006 77.2812 47.5006H82.7185C82.7904 47.5006 82.8747 47.5644 82.8747 47.6756V48.5863L82.8745 48.6015L82.8747 48.6166V49.5261C82.8747 49.6373 82.7904 49.7011 82.7185 49.7011H77.2812C77.2093 49.7011 77.125 49.6373 77.125 49.5261V47.6756ZM84.3747 49.3518V49.5261C84.3747 50.437 83.6476 51.2017 82.7185 51.2017H77.2812C76.3521 51.2017 75.625 50.437 75.625 49.5261V49.3518H74.5624C74.2857 49.3518 74.0171 49.4639 73.8166 49.6686C73.6156 49.8738 73.5 50.1553 73.5 50.4521V55.0178C73.3635 55.0028 73.2252 54.9951 73.0857 54.9951C72.7118 54.9951 72.3467 55.0501 72 55.1539V50.4521C72 49.7672 72.2663 49.1073 72.7451 48.6184C73.2244 48.129 73.8778 47.8512 74.5624 47.8512H75.625V47.6756C75.625 46.7647 76.3521 46 77.2812 46H82.7185C83.6476 46 84.3747 46.7647 84.3747 47.6756V47.8512H85.437C86.1216 47.8512 86.775 48.129 87.2543 48.6184C87.7331 49.1073 87.9994 49.7672 87.9994 50.4521V63.406C87.9994 64.0908 87.7331 64.7508 87.2543 65.2396C86.775 65.7291 86.1216 66.0069 85.437 66.0069H81.5085C82.0186 65.6184 82.4279 65.1032 82.6877 64.5063H85.437C85.7137 64.5063 85.9823 64.3942 86.1828 64.1895C86.3838 63.9842 86.4994 63.7027 86.4994 63.406V50.4521C86.4994 50.1553 86.3838 49.8738 86.1828 49.6686C85.9823 49.4639 85.7137 49.3518 85.437 49.3518H84.3747ZM73.8311 58.5307C73.7242 58.2115 73.4239 57.9963 73.0857 57.9963C72.7475 57.9963 72.4473 58.2115 72.3403 58.5307L71.1051 62.2165H69.7857C69.3518 62.2165 69 62.5665 69 62.9981C69 63.4297 69.3518 63.7796 69.7857 63.7796H71.6714C72.0096 63.7796 72.3099 63.5643 72.4168 63.2452L73.0857 61.2492L75.1689 67.4656C75.2758 67.7847 75.5761 68 75.9143 68C76.2525 68 76.5527 67.7847 76.6597 67.4656L77.8949 63.7796H79.2143C79.6482 63.7796 80 63.4297 80 62.9981C80 62.5665 79.6482 62.2165 79.2143 62.2165H77.3286C76.9904 62.2165 76.6901 62.4318 76.5832 62.7509L75.9143 64.747L73.8311 58.5307Z" fill="white"/>
</mask>
<g mask="url(#mask2_5340_2230)">
<rect x="68.0039" y="46" width="22" height="22" fill="#FFDB6E"/>
</g>
<path d="M44.1459 142.242V152H42.8719V142.242H44.1459ZM50.0553 144.188C50.9886 144.188 51.7446 144.473 52.3233 145.042C52.9019 145.602 53.1913 146.414 53.1913 147.478V152H51.9313V147.66C51.9313 146.895 51.7399 146.311 51.3573 145.91C50.9746 145.499 50.4519 145.294 49.7893 145.294C49.1173 145.294 48.5806 145.504 48.1793 145.924C47.7873 146.344 47.5913 146.955 47.5913 147.758V152H46.3173V144.328H47.5913V145.42C47.8433 145.028 48.1839 144.725 48.6133 144.51C49.0519 144.295 49.5326 144.188 50.0553 144.188ZM65.5288 145.098C65.5288 145.91 65.2488 146.587 64.6888 147.128C64.1381 147.66 63.2934 147.926 62.1548 147.926H60.2788V152H59.0048V142.242H62.1548C63.2561 142.242 64.0914 142.508 64.6608 143.04C65.2394 143.572 65.5288 144.258 65.5288 145.098ZM62.1548 146.876C62.8641 146.876 63.3868 146.722 63.7228 146.414C64.0588 146.106 64.2268 145.667 64.2268 145.098C64.2268 143.894 63.5361 143.292 62.1548 143.292H60.2788V146.876H62.1548ZM68.3862 145.574C68.6102 145.135 68.9275 144.795 69.3382 144.552C69.7582 144.309 70.2668 144.188 70.8642 144.188V145.504H70.5282C69.1002 145.504 68.3862 146.279 68.3862 147.828V152H67.1122V144.328H68.3862V145.574ZM75.6808 152.126C74.9622 152.126 74.3088 151.963 73.7208 151.636C73.1422 151.309 72.6848 150.847 72.3488 150.25C72.0222 149.643 71.8588 148.943 71.8588 148.15C71.8588 147.366 72.0268 146.675 72.3628 146.078C72.7082 145.471 73.1748 145.009 73.7628 144.692C74.3508 144.365 75.0088 144.202 75.7368 144.202C76.4648 144.202 77.1228 144.365 77.7108 144.692C78.2988 145.009 78.7608 145.467 79.0968 146.064C79.4422 146.661 79.6148 147.357 79.6148 148.15C79.6148 148.943 79.4375 149.643 79.0828 150.25C78.7375 150.847 78.2662 151.309 77.6688 151.636C77.0715 151.963 76.4088 152.126 75.6808 152.126ZM75.6808 151.006C76.1382 151.006 76.5675 150.899 76.9688 150.684C77.3702 150.469 77.6922 150.147 77.9348 149.718C78.1868 149.289 78.3128 148.766 78.3128 148.15C78.3128 147.534 78.1915 147.011 77.9488 146.582C77.7062 146.153 77.3888 145.835 76.9968 145.63C76.6048 145.415 76.1802 145.308 75.7228 145.308C75.2562 145.308 74.8268 145.415 74.4348 145.63C74.0522 145.835 73.7442 146.153 73.5108 146.582C73.2775 147.011 73.1608 147.534 73.1608 148.15C73.1608 148.775 73.2728 149.303 73.4968 149.732C73.7302 150.161 74.0382 150.483 74.4208 150.698C74.8035 150.903 75.2235 151.006 75.6808 151.006ZM84.4539 144.202C85.1166 144.202 85.6952 144.347 86.1899 144.636C86.6939 144.925 87.0672 145.289 87.3099 145.728V144.328H88.5979V152.168C88.5979 152.868 88.4486 153.489 88.1499 154.03C87.8512 154.581 87.4219 155.01 86.8619 155.318C86.3112 155.626 85.6672 155.78 84.9299 155.78C83.9219 155.78 83.0819 155.542 82.4099 155.066C81.7379 154.59 81.3412 153.941 81.2199 153.12H82.4799C82.6199 153.587 82.9092 153.96 83.3479 154.24C83.7866 154.529 84.3139 154.674 84.9299 154.674C85.6299 154.674 86.1992 154.455 86.6379 154.016C87.0859 153.577 87.3099 152.961 87.3099 152.168V150.558C87.0579 151.006 86.6846 151.379 86.1899 151.678C85.6952 151.977 85.1166 152.126 84.4539 152.126C83.7726 152.126 83.1519 151.958 82.5919 151.622C82.0412 151.286 81.6072 150.815 81.2899 150.208C80.9726 149.601 80.8139 148.911 80.8139 148.136C80.8139 147.352 80.9726 146.666 81.2899 146.078C81.6072 145.481 82.0412 145.019 82.5919 144.692C83.1519 144.365 83.7726 144.202 84.4539 144.202ZM87.3099 148.15C87.3099 147.571 87.1932 147.067 86.9599 146.638C86.7266 146.209 86.4092 145.882 86.0079 145.658C85.6159 145.425 85.1819 145.308 84.7059 145.308C84.2299 145.308 83.7959 145.42 83.4039 145.644C83.0119 145.868 82.6992 146.195 82.4659 146.624C82.2326 147.053 82.1159 147.557 82.1159 148.136C82.1159 148.724 82.2326 149.237 82.4659 149.676C82.6992 150.105 83.0119 150.437 83.4039 150.67C83.7959 150.894 84.2299 151.006 84.7059 151.006C85.1819 151.006 85.6159 150.894 86.0079 150.67C86.4092 150.437 86.7266 150.105 86.9599 149.676C87.1932 149.237 87.3099 148.729 87.3099 148.15ZM92.0249 145.574C92.2489 145.135 92.5662 144.795 92.9769 144.552C93.3969 144.309 93.9055 144.188 94.5029 144.188V145.504H94.1669C92.7389 145.504 92.0249 146.279 92.0249 147.828V152H90.7509V144.328H92.0249V145.574ZM102.974 147.87C102.974 148.113 102.96 148.369 102.932 148.64H96.7995C96.8462 149.396 97.1028 149.989 97.5695 150.418C98.0455 150.838 98.6195 151.048 99.2915 151.048C99.8422 151.048 100.3 150.922 100.664 150.67C101.037 150.409 101.298 150.063 101.448 149.634H102.82C102.614 150.371 102.204 150.973 101.588 151.44C100.972 151.897 100.206 152.126 99.2915 152.126C98.5635 152.126 97.9102 151.963 97.3315 151.636C96.7622 151.309 96.3142 150.847 95.9875 150.25C95.6608 149.643 95.4975 148.943 95.4975 148.15C95.4975 147.357 95.6562 146.661 95.9735 146.064C96.2908 145.467 96.7342 145.009 97.3035 144.692C97.8822 144.365 98.5448 144.202 99.2915 144.202C100.02 144.202 100.664 144.361 101.224 144.678C101.784 144.995 102.213 145.434 102.512 145.994C102.82 146.545 102.974 147.17 102.974 147.87ZM101.658 147.604C101.658 147.119 101.55 146.703 101.336 146.358C101.121 146.003 100.827 145.737 100.454 145.56C100.09 145.373 99.6835 145.28 99.2355 145.28C98.5915 145.28 98.0408 145.485 97.5835 145.896C97.1355 146.307 96.8788 146.876 96.8135 147.604H101.658ZM107.371 152.126C106.783 152.126 106.256 152.028 105.789 151.832C105.322 151.627 104.954 151.347 104.683 150.992C104.412 150.628 104.263 150.213 104.235 149.746H105.551C105.588 150.129 105.766 150.441 106.083 150.684C106.41 150.927 106.834 151.048 107.357 151.048C107.842 151.048 108.225 150.941 108.505 150.726C108.785 150.511 108.925 150.241 108.925 149.914C108.925 149.578 108.776 149.331 108.477 149.172C108.178 149.004 107.716 148.841 107.091 148.682C106.522 148.533 106.055 148.383 105.691 148.234C105.336 148.075 105.028 147.847 104.767 147.548C104.515 147.24 104.389 146.839 104.389 146.344C104.389 145.952 104.506 145.593 104.739 145.266C104.972 144.939 105.304 144.683 105.733 144.496C106.162 144.3 106.652 144.202 107.203 144.202C108.052 144.202 108.738 144.417 109.261 144.846C109.784 145.275 110.064 145.863 110.101 146.61H108.827C108.799 146.209 108.636 145.887 108.337 145.644C108.048 145.401 107.656 145.28 107.161 145.28C106.704 145.28 106.34 145.378 106.069 145.574C105.798 145.77 105.663 146.027 105.663 146.344C105.663 146.596 105.742 146.806 105.901 146.974C106.069 147.133 106.274 147.263 106.517 147.366C106.769 147.459 107.114 147.567 107.553 147.688C108.104 147.837 108.552 147.987 108.897 148.136C109.242 148.276 109.536 148.491 109.779 148.78C110.031 149.069 110.162 149.447 110.171 149.914C110.171 150.334 110.054 150.712 109.821 151.048C109.588 151.384 109.256 151.65 108.827 151.846C108.407 152.033 107.922 152.126 107.371 152.126ZM114.686 152.126C114.098 152.126 113.57 152.028 113.104 151.832C112.637 151.627 112.268 151.347 111.998 150.992C111.727 150.628 111.578 150.213 111.55 149.746H112.866C112.903 150.129 113.08 150.441 113.398 150.684C113.724 150.927 114.149 151.048 114.672 151.048C115.157 151.048 115.54 150.941 115.82 150.726C116.1 150.511 116.24 150.241 116.24 149.914C116.24 149.578 116.09 149.331 115.792 149.172C115.493 149.004 115.031 148.841 114.406 148.682C113.836 148.533 113.37 148.383 113.006 148.234C112.651 148.075 112.343 147.847 112.082 147.548C111.83 147.24 111.704 146.839 111.704 146.344C111.704 145.952 111.82 145.593 112.054 145.266C112.287 144.939 112.618 144.683 113.048 144.496C113.477 144.3 113.967 144.202 114.518 144.202C115.367 144.202 116.053 144.417 116.576 144.846C117.098 145.275 117.378 145.863 117.416 146.61H116.142C116.114 146.209 115.95 145.887 115.652 145.644C115.362 145.401 114.97 145.28 114.476 145.28C114.018 145.28 113.654 145.378 113.384 145.574C113.113 145.77 112.978 146.027 112.978 146.344C112.978 146.596 113.057 146.806 113.216 146.974C113.384 147.133 113.589 147.263 113.832 147.366C114.084 147.459 114.429 147.567 114.868 147.688C115.418 147.837 115.866 147.987 116.212 148.136C116.557 148.276 116.851 148.491 117.094 148.78C117.346 149.069 117.476 149.447 117.486 149.914C117.486 150.334 117.369 150.712 117.136 151.048C116.902 151.384 116.571 151.65 116.142 151.846C115.722 152.033 115.236 152.126 114.686 152.126Z" fill="#C5C5C5"/>
<path d="M53.2623 106.432C53.3903 104.448 54.1476 102.901 55.5343 101.792C56.9423 100.683 58.7343 100.128 60.9103 100.128C62.4036 100.128 63.6943 100.395 64.7823 100.928C65.8703 101.461 66.6916 102.187 67.2463 103.104C67.8009 104.021 68.0783 105.056 68.0783 106.208C68.0783 107.531 67.7263 108.661 67.0223 109.6C66.3183 110.539 65.4756 111.168 64.4943 111.488V111.616C65.7529 112 66.7343 112.704 67.4383 113.728C68.1423 114.731 68.4943 116.021 68.4943 117.6C68.4943 118.859 68.2063 119.979 67.6303 120.96C67.0543 121.941 66.2009 122.72 65.0703 123.296C63.9396 123.851 62.5849 124.128 61.0063 124.128C58.7023 124.128 56.8036 123.541 55.3103 122.368C53.8383 121.173 53.0489 119.467 52.9423 117.248H56.4623C56.5476 118.379 56.9849 119.307 57.7743 120.032C58.5636 120.736 59.6303 121.088 60.9743 121.088C62.2756 121.088 63.2783 120.736 63.9823 120.032C64.6863 119.307 65.0383 118.379 65.0383 117.248C65.0383 115.755 64.5583 114.699 63.5983 114.08C62.6596 113.44 61.2089 113.12 59.2463 113.12H58.4143V110.112H59.2783C61.0063 110.091 62.3183 109.803 63.2143 109.248C64.1316 108.693 64.5903 107.819 64.5903 106.624C64.5903 105.6 64.2596 104.789 63.5983 104.192C62.9369 103.573 61.9983 103.264 60.7823 103.264C59.5876 103.264 58.6596 103.573 57.9983 104.192C57.3369 104.789 56.9423 105.536 56.8143 106.432H53.2623ZM74.3423 119.04C76.3903 117.269 78.0009 115.819 79.1743 114.688C80.3689 113.536 81.3609 112.341 82.1503 111.104C82.9396 109.867 83.3343 108.629 83.3343 107.392C83.3343 106.112 83.0249 105.109 82.4063 104.384C81.8089 103.659 80.8596 103.296 79.5583 103.296C78.2996 103.296 77.3183 103.701 76.6143 104.512C75.9316 105.301 75.5689 106.368 75.5263 107.712H72.0063C72.0703 105.28 72.7956 103.424 74.1823 102.144C75.5903 100.843 77.3716 100.192 79.5263 100.192C81.8516 100.192 83.6649 100.832 84.9663 102.112C86.2889 103.392 86.9503 105.099 86.9503 107.232C86.9503 108.768 86.5556 110.251 85.7663 111.68C84.9983 113.088 84.0703 114.357 82.9823 115.488C81.9156 116.597 80.5503 117.888 78.8863 119.36L77.4463 120.64H87.5903V123.68H72.0383V121.024L74.3423 119.04ZM90.347 119.136V116.384L101.099 100.96H105.515V115.968H108.491V119.136H105.515V124H101.931V119.136H90.347ZM102.091 104.672L94.539 115.968H102.091V104.672Z" fill="#FCFCFC"/>
</g>
<defs>
<filter id="filter0_d_5340_2230" x="-28" y="-16" width="208" height="234" filterUnits="userSpaceOnUse" color-interpolation-filters="sRGB">
<feFlood flood-opacity="0" result="BackgroundImageFix"/>
<feColorMatrix in="SourceAlpha" type="matrix" values="0 0 0 0 0 0 0 0 0 0 0 0 0 0 0 0 0 0 127 0" result="hardAlpha"/>
<feOffset dx="-4" dy="8"/>
<feGaussianBlur stdDeviation="12"/>
<feColorMatrix type="matrix" values="0 0 0 0 0 0 0 0 0 0 0 0 0 0 0 0 0 0 0.05 0"/>
<feBlend mode="normal" in2="BackgroundImageFix" result="effect1_dropShadow_5340_2230"/>
<feBlend mode="normal" in="SourceGraphic" in2="effect1_dropShadow_5340_2230" result="shape"/>
</filter>
<clipPath id="clip0_5340_2230">
<rect width="160" height="186" fill="white"/>
</clipPath>
</defs>
</svg>
