<svg width="364" height="356" viewBox="0 0 364 356" fill="none" xmlns="http://www.w3.org/2000/svg">
<rect width="364" height="356" fill="#18191B"/>
<path d="M33.598 81V66.4545H35.7926V79.1108H42.3835V81H33.598ZM44.8666 81V70.0909H46.9902V81H44.8666ZM45.9391 68.4077C45.5697 68.4077 45.2525 68.2846 44.9874 68.0384C44.7269 67.7874 44.5967 67.4891 44.5967 67.1435C44.5967 66.7931 44.7269 66.4948 44.9874 66.2486C45.2525 65.9976 45.5697 65.8722 45.9391 65.8722C46.3084 65.8722 46.6232 65.9976 46.8837 66.2486C47.1488 66.4948 47.2814 66.7931 47.2814 67.1435C47.2814 67.4891 47.1488 67.7874 46.8837 68.0384C46.6232 68.2846 46.3084 68.4077 45.9391 68.4077ZM59.3295 70.0909L55.3735 81H53.1008L49.1377 70.0909H51.4175L54.1803 78.4858H54.294L57.0496 70.0909H59.3295ZM65.8058 81.2202C64.731 81.2202 63.8054 80.9905 63.0288 80.5312C62.2571 80.0672 61.6605 79.4162 61.2391 78.5781C60.8224 77.7353 60.6141 76.7481 60.6141 75.6165C60.6141 74.4991 60.8224 73.5142 61.2391 72.6619C61.6605 71.8097 62.2476 71.1444 63.0004 70.6662C63.758 70.188 64.6434 69.9489 65.6567 69.9489C66.2722 69.9489 66.8688 70.0507 67.4465 70.2543C68.0241 70.4579 68.5426 70.7775 69.0018 71.2131C69.4611 71.6487 69.8233 72.2145 70.0885 72.9105C70.3536 73.6018 70.4862 74.4422 70.4862 75.4318V76.1847H61.8143V74.5938H68.4053C68.4053 74.035 68.2916 73.5402 68.0643 73.1094C67.8371 72.6738 67.5175 72.3305 67.1055 72.0795C66.6983 71.8286 66.2201 71.7031 65.6709 71.7031C65.0743 71.7031 64.5535 71.8499 64.1084 72.1435C63.668 72.4323 63.3271 72.8111 63.0857 73.2798C62.8489 73.7438 62.7305 74.2481 62.7305 74.7926V76.0355C62.7305 76.7647 62.8584 77.3849 63.1141 77.8963C63.3745 78.4077 63.7367 78.7983 64.2007 79.0682C64.6647 79.3333 65.2069 79.4659 65.8271 79.4659C66.2296 79.4659 66.5965 79.4091 66.928 79.2955C67.2594 79.1771 67.5459 79.0019 67.7874 78.7699C68.0288 78.5379 68.2135 78.2514 68.3413 77.9105L70.3513 78.2727C70.1903 78.8646 69.9015 79.383 69.4848 79.8281C69.0729 80.2685 68.5544 80.6117 67.9294 80.858C67.3091 81.0994 66.6013 81.2202 65.8058 81.2202ZM79.8771 66.4545L83.9254 78.3011H84.0888L88.1371 66.4545H90.5092L85.2749 81H82.7393L77.505 66.4545H79.8771ZM92.5893 81V70.0909H94.7129V81H92.5893ZM93.6617 68.4077C93.2924 68.4077 92.9752 68.2846 92.71 68.0384C92.4496 67.7874 92.3194 67.4891 92.3194 67.1435C92.3194 66.7931 92.4496 66.4948 92.71 66.2486C92.9752 65.9976 93.2924 65.8722 93.6617 65.8722C94.031 65.8722 94.3459 65.9976 94.6063 66.2486C94.8715 66.4948 95.004 66.7931 95.004 67.1435C95.004 67.4891 94.8715 67.7874 94.6063 68.0384C94.3459 68.2846 94.031 68.4077 93.6617 68.4077ZM105.894 72.7543L103.97 73.0952C103.889 72.849 103.761 72.6146 103.586 72.392C103.416 72.1695 103.184 71.9872 102.89 71.8452C102.597 71.7031 102.23 71.6321 101.789 71.6321C101.188 71.6321 100.686 71.767 100.284 72.0369C99.8812 72.3021 99.68 72.6454 99.68 73.0668C99.68 73.4313 99.8149 73.7249 100.085 73.9474C100.355 74.17 100.79 74.3523 101.392 74.4943L103.125 74.892C104.128 75.1241 104.876 75.4815 105.369 75.9645C105.861 76.4474 106.108 77.0748 106.108 77.8466C106.108 78.5 105.918 79.0824 105.539 79.5938C105.165 80.1004 104.642 80.4981 103.97 80.7869C103.302 81.0758 102.528 81.2202 101.647 81.2202C100.426 81.2202 99.429 80.9598 98.6572 80.4389C97.8855 79.9134 97.412 79.1676 97.2368 78.2017L99.2893 77.8892C99.4172 78.4242 99.68 78.8291 100.078 79.1037C100.475 79.3736 100.994 79.5085 101.633 79.5085C102.329 79.5085 102.885 79.3641 103.302 79.0753C103.719 78.7817 103.927 78.4242 103.927 78.0028C103.927 77.6619 103.799 77.3755 103.544 77.1435C103.293 76.9115 102.907 76.7363 102.386 76.6179L100.539 76.2131C99.5214 75.9811 98.7685 75.6117 98.2808 75.1051C97.7979 74.5985 97.5564 73.9569 97.5564 73.1804C97.5564 72.5365 97.7363 71.973 98.0962 71.4901C98.456 71.0071 98.9532 70.6307 99.5876 70.3608C100.222 70.0862 100.949 69.9489 101.768 69.9489C102.947 69.9489 103.875 70.2045 104.552 70.7159C105.229 71.2225 105.677 71.902 105.894 72.7543ZM108.592 81V70.0909H110.716V81H108.592ZM109.665 68.4077C109.296 68.4077 108.978 68.2846 108.713 68.0384C108.453 67.7874 108.323 67.4891 108.323 67.1435C108.323 66.7931 108.453 66.4948 108.713 66.2486C108.978 65.9976 109.296 65.8722 109.665 65.8722C110.034 65.8722 110.349 65.9976 110.609 66.2486C110.875 66.4948 111.007 66.7931 111.007 67.1435C111.007 67.4891 110.875 67.7874 110.609 68.0384C110.349 68.2846 110.034 68.4077 109.665 68.4077ZM118.815 70.0909V71.7955H112.856V70.0909H118.815ZM114.454 67.4773H116.578V77.7969C116.578 78.2088 116.64 78.5189 116.763 78.7273C116.886 78.9309 117.044 79.0705 117.238 79.1463C117.437 79.2173 117.653 79.2528 117.885 79.2528C118.055 79.2528 118.204 79.241 118.332 79.2173C118.46 79.1937 118.56 79.1747 118.631 79.1605L119.014 80.9148C118.891 80.9621 118.716 81.0095 118.488 81.0568C118.261 81.1089 117.977 81.1373 117.636 81.142C117.078 81.1515 116.557 81.0521 116.074 80.8438C115.591 80.6354 115.2 80.3134 114.902 79.8778C114.604 79.4422 114.454 78.8954 114.454 78.2372V67.4773ZM125.792 81.2202C124.77 81.2202 123.877 80.9858 123.115 80.517C122.352 80.0483 121.761 79.3925 121.339 78.5497C120.918 77.7069 120.707 76.7221 120.707 75.5952C120.707 74.4635 120.918 73.474 121.339 72.6264C121.761 71.7789 122.352 71.1207 123.115 70.652C123.877 70.1832 124.77 69.9489 125.792 69.9489C126.815 69.9489 127.708 70.1832 128.47 70.652C129.232 71.1207 129.824 71.7789 130.245 72.6264C130.667 73.474 130.877 74.4635 130.877 75.5952C130.877 76.7221 130.667 77.7069 130.245 78.5497C129.824 79.3925 129.232 80.0483 128.47 80.517C127.708 80.9858 126.815 81.2202 125.792 81.2202ZM125.799 79.4375C126.462 79.4375 127.011 79.2623 127.447 78.9119C127.883 78.5616 128.205 78.0952 128.413 77.5128C128.626 76.9304 128.733 76.2888 128.733 75.5881C128.733 74.892 128.626 74.2528 128.413 73.6705C128.205 73.0833 127.883 72.6122 127.447 72.2571C127.011 71.902 126.462 71.7244 125.799 71.7244C125.132 71.7244 124.578 71.902 124.137 72.2571C123.702 72.6122 123.377 73.0833 123.164 73.6705C122.956 74.2528 122.852 74.892 122.852 75.5881C122.852 76.2888 122.956 76.9304 123.164 77.5128C123.377 78.0952 123.702 78.5616 124.137 78.9119C124.578 79.2623 125.132 79.4375 125.799 79.4375ZM133.398 81V70.0909H135.45V71.8239H135.564C135.763 71.2367 136.113 70.7751 136.615 70.4389C137.122 70.098 137.695 69.9276 138.334 69.9276C138.467 69.9276 138.623 69.9323 138.803 69.9418C138.987 69.9512 139.132 69.9631 139.236 69.9773V72.0085C139.151 71.9848 138.999 71.9588 138.781 71.9304C138.564 71.8973 138.346 71.8807 138.128 71.8807C137.626 71.8807 137.179 71.9872 136.786 72.2003C136.397 72.4086 136.09 72.6998 135.862 73.0739C135.635 73.4432 135.521 73.8646 135.521 74.3381V81H133.398ZM149.398 72.7543L147.474 73.0952C147.393 72.849 147.265 72.6146 147.09 72.392C146.92 72.1695 146.688 71.9872 146.394 71.8452C146.101 71.7031 145.734 71.6321 145.293 71.6321C144.692 71.6321 144.19 71.767 143.788 72.0369C143.385 72.3021 143.184 72.6454 143.184 73.0668C143.184 73.4313 143.319 73.7249 143.589 73.9474C143.859 74.17 144.294 74.3523 144.896 74.4943L146.628 74.892C147.632 75.1241 148.38 75.4815 148.873 75.9645C149.365 76.4474 149.611 77.0748 149.611 77.8466C149.611 78.5 149.422 79.0824 149.043 79.5938C148.669 80.1004 148.146 80.4981 147.474 80.7869C146.806 81.0758 146.032 81.2202 145.151 81.2202C143.93 81.2202 142.933 80.9598 142.161 80.4389C141.389 79.9134 140.916 79.1676 140.741 78.2017L142.793 77.8892C142.921 78.4242 143.184 78.8291 143.582 79.1037C143.979 79.3736 144.498 79.5085 145.137 79.5085C145.833 79.5085 146.389 79.3641 146.806 79.0753C147.223 78.7817 147.431 78.4242 147.431 78.0028C147.431 77.6619 147.303 77.3755 147.048 77.1435C146.797 76.9115 146.411 76.7363 145.89 76.6179L144.043 76.2131C143.025 75.9811 142.272 75.6117 141.785 75.1051C141.302 74.5985 141.06 73.9569 141.06 73.1804C141.06 72.5365 141.24 71.973 141.6 71.4901C141.96 71.0071 142.457 70.6307 143.092 70.3608C143.726 70.0862 144.453 69.9489 145.272 69.9489C146.451 69.9489 147.379 70.2045 148.056 70.7159C148.733 71.2225 149.181 71.902 149.398 72.7543Z" fill="white"/>
<path d="M32.5795 93.2102V92.2727H39.125V93.2102H36.3807V101H35.3239V93.2102H32.5795ZM42.7295 101.136C42.1386 101.136 41.6202 100.996 41.1741 100.714C40.731 100.433 40.3844 100.04 40.1344 99.5341C39.8872 99.0284 39.7636 98.4375 39.7636 97.7614C39.7636 97.0795 39.8872 96.4844 40.1344 95.9759C40.3844 95.4673 40.731 95.0724 41.1741 94.7912C41.6202 94.5099 42.1386 94.3693 42.7295 94.3693C43.3205 94.3693 43.8375 94.5099 44.2807 94.7912C44.7267 95.0724 45.0733 95.4673 45.3205 95.9759C45.5705 96.4844 45.6955 97.0795 45.6955 97.7614C45.6955 98.4375 45.5705 99.0284 45.3205 99.5341C45.0733 100.04 44.7267 100.433 44.2807 100.714C43.8375 100.996 43.3205 101.136 42.7295 101.136ZM42.7295 100.233C43.1784 100.233 43.5477 100.118 43.8375 99.8878C44.1273 99.6577 44.3418 99.3551 44.481 98.9801C44.6202 98.6051 44.6898 98.1989 44.6898 97.7614C44.6898 97.3239 44.6202 96.9162 44.481 96.5384C44.3418 96.1605 44.1273 95.8551 43.8375 95.6222C43.5477 95.3892 43.1784 95.2727 42.7295 95.2727C42.2807 95.2727 41.9114 95.3892 41.6216 95.6222C41.3318 95.8551 41.1173 96.1605 40.9781 96.5384C40.8389 96.9162 40.7693 97.3239 40.7693 97.7614C40.7693 98.1989 40.8389 98.6051 40.9781 98.9801C41.1173 99.3551 41.3318 99.6577 41.6216 99.8878C41.9114 100.118 42.2807 100.233 42.7295 100.233ZM50.4772 94.4545V95.3068H47.0852V94.4545H50.4772ZM48.0738 92.8864H49.0795V99.125C49.0795 99.4091 49.1207 99.6222 49.2031 99.7642C49.2883 99.9034 49.3962 99.9972 49.5269 100.045C49.6604 100.091 49.8011 100.114 49.9488 100.114C50.0596 100.114 50.1505 100.108 50.2215 100.097C50.2925 100.082 50.3494 100.071 50.392 100.062L50.5965 100.966C50.5283 100.991 50.4332 101.017 50.311 101.043C50.1888 101.071 50.034 101.085 49.8465 101.085C49.5624 101.085 49.284 101.024 49.0113 100.902C48.7414 100.78 48.517 100.594 48.338 100.344C48.1619 100.094 48.0738 99.7784 48.0738 99.3977V92.8864ZM54.3161 101.153C53.9014 101.153 53.5249 101.075 53.1869 100.919C52.8488 100.76 52.5803 100.531 52.3815 100.233C52.1826 99.9318 52.0832 99.5682 52.0832 99.142C52.0832 98.767 52.157 98.4631 52.3048 98.2301C52.4525 97.9943 52.6499 97.8097 52.8971 97.6761C53.1442 97.5426 53.417 97.4432 53.7153 97.3778C54.0164 97.3097 54.319 97.2557 54.6229 97.2159C55.0207 97.1648 55.3431 97.1264 55.5903 97.1009C55.8403 97.0724 56.0221 97.0256 56.1357 96.9602C56.2522 96.8949 56.3104 96.7812 56.3104 96.6193V96.5852C56.3104 96.1648 56.1954 95.8381 55.9653 95.6051C55.738 95.3722 55.3928 95.2557 54.9298 95.2557C54.4496 95.2557 54.0732 95.3608 53.8005 95.571C53.5278 95.7812 53.336 96.0057 53.2252 96.2443L52.2707 95.9034C52.4411 95.5057 52.6684 95.196 52.9525 94.9744C53.2394 94.75 53.5519 94.5937 53.89 94.5057C54.2309 94.4148 54.5661 94.3693 54.8957 94.3693C55.1059 94.3693 55.3474 94.3949 55.6201 94.446C55.8957 94.4943 56.1613 94.5952 56.417 94.7486C56.6755 94.902 56.89 95.1335 57.0604 95.4432C57.2309 95.7528 57.3161 96.1676 57.3161 96.6875V101H56.3104V100.114H56.2593C56.1911 100.256 56.0775 100.408 55.9184 100.57C55.7593 100.732 55.5477 100.869 55.2835 100.983C55.0192 101.097 54.6968 101.153 54.3161 101.153ZM54.4695 100.25C54.8673 100.25 55.2025 100.172 55.4752 100.016C55.7508 99.8594 55.9582 99.6577 56.0974 99.4105C56.2394 99.1634 56.3104 98.9034 56.3104 98.6307V97.7102C56.2678 97.7614 56.1741 97.8082 56.0292 97.8509C55.8871 97.8906 55.7224 97.9261 55.5349 97.9574C55.3502 97.9858 55.1698 98.0114 54.9937 98.0341C54.8204 98.054 54.6798 98.071 54.5718 98.0852C54.3104 98.1193 54.0661 98.1747 53.8389 98.2514C53.6144 98.3253 53.4326 98.4375 53.2934 98.5881C53.157 98.7358 53.0889 98.9375 53.0889 99.1932C53.0889 99.5426 53.2181 99.8068 53.4766 99.9858C53.738 100.162 54.069 100.25 54.4695 100.25ZM60.5574 92.2727V101H59.5517V92.2727H60.5574ZM69.3528 101.119C68.7675 101.119 68.2505 101.016 67.8016 100.808C67.3556 100.598 67.0076 100.31 66.7576 99.9432C66.5076 99.5739 66.384 99.1534 66.3869 98.6818C66.384 98.3125 66.4565 97.9716 66.6042 97.6591C66.7519 97.3437 66.9536 97.081 67.2093 96.8707C67.4678 96.6577 67.7562 96.5227 68.0744 96.4659V96.4148C67.6567 96.3068 67.3244 96.0724 67.0772 95.7116C66.83 95.348 66.7079 94.9347 66.7107 94.4716C66.7079 94.0284 66.8201 93.6321 67.0474 93.2827C67.2746 92.9332 67.5871 92.6577 67.9849 92.456C68.3854 92.2543 68.8414 92.1534 69.3528 92.1534C69.8585 92.1534 70.3102 92.2543 70.7079 92.456C71.1056 92.6577 71.4181 92.9332 71.6454 93.2827C71.8755 93.6321 71.992 94.0284 71.9948 94.4716C71.992 94.9347 71.8656 95.348 71.6156 95.7116C71.3684 96.0724 71.0403 96.3068 70.6312 96.4148V96.4659C70.9465 96.5227 71.2306 96.6577 71.4835 96.8707C71.7363 97.081 71.938 97.3437 72.0886 97.6591C72.2391 97.9716 72.3158 98.3125 72.3187 98.6818C72.3158 99.1534 72.188 99.5739 71.9352 99.9432C71.6852 100.31 71.3371 100.598 70.8911 100.808C70.4479 101.016 69.9352 101.119 69.3528 101.119ZM69.3528 100.182C69.7477 100.182 70.0886 100.118 70.3755 99.9901C70.6624 99.8622 70.884 99.6818 71.0403 99.4489C71.1965 99.2159 71.2761 98.9432 71.2789 98.6307C71.2761 98.3011 71.1908 98.0099 71.0232 97.7571C70.8556 97.5043 70.6269 97.3054 70.3371 97.1605C70.0502 97.0156 69.7221 96.9432 69.3528 96.9432C68.9806 96.9432 68.6482 97.0156 68.3556 97.1605C68.0658 97.3054 67.8371 97.5043 67.6695 97.7571C67.5048 98.0099 67.4238 98.3011 67.4266 98.6307C67.4238 98.9432 67.4991 99.2159 67.6525 99.4489C67.8087 99.6818 68.0317 99.8622 68.3215 99.9901C68.6113 100.118 68.955 100.182 69.3528 100.182ZM69.3528 96.0398C69.6653 96.0398 69.9423 95.9773 70.1837 95.8523C70.4281 95.7273 70.6198 95.5526 70.759 95.3281C70.8982 95.1037 70.9692 94.8409 70.9721 94.5398C70.9692 94.2443 70.8996 93.9872 70.7633 93.7685C70.6269 93.5469 70.438 93.3764 70.1965 93.2571C69.955 93.1349 69.6738 93.0739 69.3528 93.0739C69.0261 93.0739 68.7406 93.1349 68.4962 93.2571C68.2519 93.3764 68.063 93.5469 67.9295 93.7685C67.796 93.9872 67.7306 94.2443 67.7335 94.5398C67.7306 94.8409 67.7974 95.1037 67.9337 95.3281C68.0729 95.5526 68.2647 95.7273 68.509 95.8523C68.7533 95.9773 69.0346 96.0398 69.3528 96.0398ZM77.1303 92.1534C77.4882 92.1562 77.8462 92.2244 78.2041 92.358C78.5621 92.4915 78.8888 92.7131 79.1842 93.0227C79.4797 93.3295 79.7169 93.7486 79.8959 94.2798C80.0749 94.8111 80.1643 95.4773 80.1643 96.2784C80.1643 97.054 80.0905 97.7429 79.9428 98.3452C79.7979 98.9446 79.5876 99.4503 79.3121 99.8622C79.0393 100.274 78.707 100.587 78.3149 100.8C77.9257 101.013 77.4854 101.119 76.9939 101.119C76.5053 101.119 76.0692 101.023 75.6857 100.83C75.305 100.634 74.9925 100.362 74.7482 100.016C74.5067 99.6662 74.3518 99.2614 74.2837 98.8011H75.3234C75.4172 99.2017 75.6033 99.5327 75.8817 99.794C76.1629 100.053 76.5337 100.182 76.9939 100.182C77.6672 100.182 78.1984 99.8878 78.5876 99.2997C78.9797 98.7116 79.1757 97.8807 79.1757 96.8068H79.1075C78.9484 97.0455 78.7595 97.2514 78.5408 97.4247C78.322 97.598 78.0791 97.7315 77.8121 97.8253C77.545 97.919 77.2609 97.9659 76.9598 97.9659C76.4598 97.9659 76.001 97.8423 75.5834 97.5952C75.1686 97.3452 74.8362 97.0028 74.5862 96.5682C74.3391 96.1307 74.2155 95.6307 74.2155 95.0682C74.2155 94.5341 74.3348 94.0455 74.5734 93.6023C74.8149 93.1562 75.153 92.8011 75.5876 92.5369C76.0251 92.2727 76.5393 92.1449 77.1303 92.1534ZM77.1303 93.0909C76.7723 93.0909 76.4499 93.1804 76.1629 93.3594C75.8788 93.5355 75.653 93.7741 75.4854 94.0753C75.3206 94.3736 75.2382 94.7045 75.2382 95.0682C75.2382 95.4318 75.3178 95.7628 75.4768 96.0611C75.6388 96.3565 75.8589 96.5923 76.1374 96.7685C76.4186 96.9418 76.7382 97.0284 77.0962 97.0284C77.3661 97.0284 77.6175 96.9759 77.8504 96.8707C78.0834 96.7628 78.2865 96.6165 78.4598 96.4318C78.6359 96.2443 78.7737 96.0327 78.8732 95.7969C78.9726 95.5582 79.0223 95.3097 79.0223 95.0511C79.0223 94.7102 78.9399 94.3906 78.7751 94.0923C78.6132 93.794 78.3888 93.5526 78.1018 93.3679C77.8178 93.1832 77.4939 93.0909 77.1303 93.0909ZM85.0867 101.119C84.4447 101.119 83.8978 100.945 83.4461 100.595C82.9944 100.243 82.6492 99.733 82.4106 99.0653C82.1719 98.3949 82.0526 97.5852 82.0526 96.6364C82.0526 95.6932 82.1719 94.8878 82.4106 94.2202C82.6521 93.5497 82.9987 93.0384 83.4504 92.6861C83.9049 92.331 84.4504 92.1534 85.0867 92.1534C85.7231 92.1534 86.2671 92.331 86.7188 92.6861C87.1734 93.0384 87.52 93.5497 87.7586 94.2202C88.0001 94.8878 88.1208 95.6932 88.1208 96.6364C88.1208 97.5852 88.0015 98.3949 87.7629 99.0653C87.5242 99.733 87.179 100.243 86.7273 100.595C86.2756 100.945 85.7288 101.119 85.0867 101.119ZM85.0867 100.182C85.7231 100.182 86.2174 99.875 86.5697 99.2614C86.9219 98.6477 87.0981 97.7727 87.0981 96.6364C87.0981 95.8807 87.0171 95.2372 86.8552 94.706C86.6961 94.1747 86.466 93.7699 86.1648 93.4915C85.8665 93.2131 85.5072 93.0739 85.0867 93.0739C84.456 93.0739 83.9631 93.3849 83.608 94.0071C83.2529 94.6264 83.0754 95.5028 83.0754 96.6364C83.0754 97.392 83.1549 98.0341 83.314 98.5625C83.4731 99.0909 83.7018 99.4929 84.0001 99.7685C84.3012 100.044 84.6634 100.182 85.0867 100.182ZM94.4265 92.2727L97.0174 99.6193H97.1197L99.7106 92.2727H100.819L97.614 101H96.5231L93.3185 92.2727H94.4265ZM102.442 101V94.4545H103.447V101H102.442ZM102.953 93.3636C102.757 93.3636 102.588 93.2969 102.446 93.1634C102.307 93.0298 102.237 92.8693 102.237 92.6818C102.237 92.4943 102.307 92.3338 102.446 92.2003C102.588 92.0668 102.757 92 102.953 92C103.149 92 103.317 92.0668 103.456 92.2003C103.598 92.3338 103.669 92.4943 103.669 92.6818C103.669 92.8693 103.598 93.0298 103.456 93.1634C103.317 93.2969 103.149 93.3636 102.953 93.3636ZM110.326 95.9205L109.422 96.1761C109.365 96.0256 109.282 95.8793 109.171 95.7372C109.063 95.5923 108.915 95.473 108.728 95.3793C108.54 95.2855 108.3 95.2386 108.007 95.2386C107.607 95.2386 107.273 95.331 107.006 95.5156C106.742 95.6974 106.61 95.929 106.61 96.2102C106.61 96.4602 106.701 96.6577 106.882 96.8026C107.064 96.9474 107.348 97.0682 107.735 97.1648L108.706 97.4034C109.291 97.5455 109.728 97.7628 110.014 98.0554C110.301 98.3452 110.445 98.7187 110.445 99.1761C110.445 99.5511 110.337 99.8864 110.121 100.182C109.908 100.477 109.61 100.71 109.226 100.881C108.843 101.051 108.397 101.136 107.888 101.136C107.22 101.136 106.668 100.991 106.23 100.702C105.793 100.412 105.516 99.9886 105.399 99.4318L106.354 99.1932C106.445 99.5455 106.617 99.8097 106.87 99.9858C107.125 100.162 107.459 100.25 107.871 100.25C108.34 100.25 108.712 100.151 108.988 99.9517C109.266 99.75 109.405 99.5085 109.405 99.2273C109.405 99 109.326 98.8097 109.166 98.6562C109.007 98.5 108.763 98.3835 108.434 98.3068L107.343 98.0511C106.743 97.9091 106.303 97.6889 106.022 97.3906C105.743 97.0895 105.604 96.7131 105.604 96.2614C105.604 95.892 105.708 95.5653 105.915 95.2812C106.125 94.9972 106.411 94.7741 106.772 94.6122C107.135 94.4503 107.547 94.3693 108.007 94.3693C108.655 94.3693 109.164 94.5114 109.533 94.7955C109.905 95.0795 110.169 95.4545 110.326 95.9205ZM112.359 101V94.4545H113.364V101H112.359ZM112.87 93.3636C112.674 93.3636 112.505 93.2969 112.363 93.1634C112.224 93.0298 112.154 92.8693 112.154 92.6818C112.154 92.4943 112.224 92.3338 112.363 92.2003C112.505 92.0668 112.674 92 112.87 92C113.066 92 113.234 92.0668 113.373 92.2003C113.515 92.3338 113.586 92.4943 113.586 92.6818C113.586 92.8693 113.515 93.0298 113.373 93.1634C113.234 93.2969 113.066 93.3636 112.87 93.3636ZM118.453 94.4545V95.3068H115.061V94.4545H118.453ZM116.05 92.8864H117.055V99.125C117.055 99.4091 117.096 99.6222 117.179 99.7642C117.264 99.9034 117.372 99.9972 117.503 100.045C117.636 100.091 117.777 100.114 117.925 100.114C118.035 100.114 118.126 100.108 118.197 100.097C118.268 100.082 118.325 100.071 118.368 100.062L118.572 100.966C118.504 100.991 118.409 101.017 118.287 101.043C118.165 101.071 118.01 101.085 117.822 101.085C117.538 101.085 117.26 101.024 116.987 100.902C116.717 100.78 116.493 100.594 116.314 100.344C116.138 100.094 116.05 99.7784 116.05 99.3977V92.8864ZM122.955 101.136C122.364 101.136 121.845 100.996 121.399 100.714C120.956 100.433 120.609 100.04 120.359 99.5341C120.112 99.0284 119.989 98.4375 119.989 97.7614C119.989 97.0795 120.112 96.4844 120.359 95.9759C120.609 95.4673 120.956 95.0724 121.399 94.7912C121.845 94.5099 122.364 94.3693 122.955 94.3693C123.545 94.3693 124.063 94.5099 124.506 94.7912C124.952 95.0724 125.298 95.4673 125.545 95.9759C125.795 96.4844 125.92 97.0795 125.92 97.7614C125.92 98.4375 125.795 99.0284 125.545 99.5341C125.298 100.04 124.952 100.433 124.506 100.714C124.063 100.996 123.545 101.136 122.955 101.136ZM122.955 100.233C123.403 100.233 123.773 100.118 124.062 99.8878C124.352 99.6577 124.567 99.3551 124.706 98.9801C124.845 98.6051 124.915 98.1989 124.915 97.7614C124.915 97.3239 124.845 96.9162 124.706 96.5384C124.567 96.1605 124.352 95.8551 124.062 95.6222C123.773 95.3892 123.403 95.2727 122.955 95.2727C122.506 95.2727 122.136 95.3892 121.847 95.6222C121.557 95.8551 121.342 96.1605 121.203 96.5384C121.064 96.9162 120.994 97.3239 120.994 97.7614C120.994 98.1989 121.064 98.6051 121.203 98.9801C121.342 99.3551 121.557 99.6577 121.847 99.8878C122.136 100.118 122.506 100.233 122.955 100.233ZM127.856 101V94.4545H128.827V95.4432H128.895C129.015 95.1193 129.231 94.8565 129.543 94.6548C129.856 94.4531 130.208 94.3523 130.6 94.3523C130.674 94.3523 130.766 94.3537 130.877 94.3565C130.988 94.3594 131.072 94.3636 131.128 94.3693V95.392C131.094 95.3835 131.016 95.3707 130.894 95.3537C130.775 95.3338 130.648 95.3239 130.515 95.3239C130.197 95.3239 129.912 95.3906 129.662 95.5241C129.415 95.6548 129.219 95.8366 129.074 96.0696C128.932 96.2997 128.861 96.5625 128.861 96.858V101H127.856ZM137.357 95.9205L136.453 96.1761C136.397 96.0256 136.313 95.8793 136.202 95.7372C136.094 95.5923 135.946 95.473 135.759 95.3793C135.571 95.2855 135.331 95.2386 135.039 95.2386C134.638 95.2386 134.304 95.331 134.037 95.5156C133.773 95.6974 133.641 95.929 133.641 96.2102C133.641 96.4602 133.732 96.6577 133.914 96.8026C134.095 96.9474 134.38 97.0682 134.766 97.1648L135.738 97.4034C136.323 97.5455 136.759 97.7628 137.046 98.0554C137.333 98.3452 137.476 98.7187 137.476 99.1761C137.476 99.5511 137.368 99.8864 137.152 100.182C136.939 100.477 136.641 100.71 136.257 100.881C135.874 101.051 135.428 101.136 134.919 101.136C134.252 101.136 133.699 100.991 133.262 100.702C132.824 100.412 132.547 99.9886 132.431 99.4318L133.385 99.1932C133.476 99.5455 133.648 99.8097 133.901 99.9858C134.157 100.162 134.49 100.25 134.902 100.25C135.371 100.25 135.743 100.151 136.019 99.9517C136.297 99.75 136.436 99.5085 136.436 99.2273C136.436 99 136.357 98.8097 136.198 98.6562C136.039 98.5 135.794 98.3835 135.465 98.3068L134.374 98.0511C133.774 97.9091 133.334 97.6889 133.053 97.3906C132.774 97.0895 132.635 96.7131 132.635 96.2614C132.635 95.892 132.739 95.5653 132.946 95.2812C133.157 94.9972 133.442 94.7741 133.803 94.6122C134.166 94.4503 134.578 94.3693 135.039 94.3693C135.686 94.3693 136.195 94.5114 136.564 94.7955C136.936 95.0795 137.201 95.4545 137.357 95.9205ZM143.659 101H142.551L145.756 92.2727H146.847L150.051 101H148.943L146.335 93.6534H146.267L143.659 101ZM144.068 97.5909H148.534V98.5284H144.068V97.5909ZM151.674 101V94.4545H152.646V95.4432H152.714C152.833 95.1193 153.049 94.8565 153.362 94.6548C153.674 94.4531 154.027 94.3523 154.419 94.3523C154.493 94.3523 154.585 94.3537 154.696 94.3565C154.806 94.3594 154.89 94.3636 154.947 94.3693V95.392C154.913 95.3835 154.835 95.3707 154.713 95.3537C154.593 95.3338 154.467 95.3239 154.333 95.3239C154.015 95.3239 153.731 95.3906 153.481 95.5241C153.234 95.6548 153.038 95.8366 152.893 96.0696C152.751 96.2997 152.68 96.5625 152.68 96.858V101H151.674ZM159.084 101.136C158.454 101.136 157.91 100.997 157.452 100.719C156.998 100.438 156.647 100.045 156.4 99.5426C156.155 99.0369 156.033 98.4489 156.033 97.7784C156.033 97.108 156.155 96.517 156.4 96.0057C156.647 95.4915 156.991 95.0909 157.431 94.804C157.874 94.5142 158.391 94.3693 158.982 94.3693C159.323 94.3693 159.66 94.4261 159.992 94.5398C160.324 94.6534 160.627 94.8381 160.9 95.0938C161.172 95.3466 161.39 95.6818 161.552 96.0994C161.714 96.517 161.795 97.0312 161.795 97.642V98.0682H156.749V97.1989H160.772C160.772 96.8295 160.698 96.5 160.55 96.2102C160.405 95.9205 160.198 95.6918 159.928 95.5241C159.661 95.3565 159.346 95.2727 158.982 95.2727C158.581 95.2727 158.235 95.3722 157.942 95.571C157.652 95.767 157.429 96.0227 157.273 96.3381C157.117 96.6534 157.039 96.9915 157.039 97.3523V97.9318C157.039 98.4261 157.124 98.8452 157.295 99.1889C157.468 99.5298 157.708 99.7898 158.015 99.9688C158.322 100.145 158.678 100.233 159.084 100.233C159.349 100.233 159.587 100.196 159.8 100.122C160.016 100.045 160.202 99.9318 160.358 99.7812C160.515 99.6278 160.635 99.4375 160.721 99.2102L161.692 99.483C161.59 99.8125 161.418 100.102 161.177 100.352C160.935 100.599 160.637 100.793 160.282 100.932C159.927 101.068 159.527 101.136 159.084 101.136ZM167.636 101V92.2727H168.693V100.062H172.749V101H167.636ZM174.649 101V94.4545H175.655V101H174.649ZM175.161 93.3636C174.965 93.3636 174.796 93.2969 174.654 93.1634C174.514 93.0298 174.445 92.8693 174.445 92.6818C174.445 92.4943 174.514 92.3338 174.654 92.2003C174.796 92.0668 174.965 92 175.161 92C175.357 92 175.524 92.0668 175.664 92.2003C175.806 92.3338 175.877 92.4943 175.877 92.6818C175.877 92.8693 175.806 93.0298 175.664 93.1634C175.524 93.2969 175.357 93.3636 175.161 93.3636ZM183.249 94.4545L180.829 101H179.806L177.386 94.4545H178.477L180.283 99.6705H180.352L182.158 94.4545H183.249ZM187.487 101.136C186.856 101.136 186.312 100.997 185.855 100.719C185.4 100.438 185.049 100.045 184.802 99.5426C184.558 99.0369 184.436 98.4489 184.436 97.7784C184.436 97.108 184.558 96.517 184.802 96.0057C185.049 95.4915 185.393 95.0909 185.833 94.804C186.276 94.5142 186.793 94.3693 187.384 94.3693C187.725 94.3693 188.062 94.4261 188.394 94.5398C188.727 94.6534 189.029 94.8381 189.302 95.0938C189.575 95.3466 189.792 95.6818 189.954 96.0994C190.116 96.517 190.197 97.0312 190.197 97.642V98.0682H185.151V97.1989H189.174C189.174 96.8295 189.1 96.5 188.953 96.2102C188.808 95.9205 188.6 95.6918 188.33 95.5241C188.063 95.3565 187.748 95.2727 187.384 95.2727C186.984 95.2727 186.637 95.3722 186.345 95.571C186.055 95.767 185.832 96.0227 185.676 96.3381C185.519 96.6534 185.441 96.9915 185.441 97.3523V97.9318C185.441 98.4261 185.526 98.8452 185.697 99.1889C185.87 99.5298 186.11 99.7898 186.417 99.9688C186.724 100.145 187.08 100.233 187.487 100.233C187.751 100.233 187.989 100.196 188.203 100.122C188.418 100.045 188.605 99.9318 188.761 99.7812C188.917 99.6278 189.038 99.4375 189.123 99.2102L190.095 99.483C189.992 99.8125 189.82 100.102 189.579 100.352C189.337 100.599 189.039 100.793 188.684 100.932C188.329 101.068 187.93 101.136 187.487 101.136Z" fill="#999999"/>
<path d="M267.39 73.7102V67.1477H268.503V73.7102H267.39ZM264.665 70.9858V69.8722H271.228V70.9858H264.665ZM273.769 75.5L278.323 66.4915V66.4119H273.073V65.3182H279.596V66.4716L275.062 75.5H273.769ZM284.655 75.6392C283.973 75.6392 283.369 75.5182 282.846 75.2763C282.325 75.031 281.919 74.6946 281.628 74.267C281.336 73.8362 281.192 73.3456 281.195 72.7955C281.192 72.3646 281.276 71.9669 281.449 71.6023C281.621 71.2344 281.856 70.9278 282.155 70.6825C282.456 70.4339 282.793 70.2765 283.164 70.2102V70.1506C282.677 70.0246 282.289 69.7512 282.001 69.3303C281.712 68.906 281.57 68.4238 281.573 67.8835C281.57 67.3665 281.701 66.9041 281.966 66.4964C282.231 66.0888 282.595 65.7673 283.059 65.532C283.527 65.2966 284.059 65.179 284.655 65.179C285.245 65.179 285.772 65.2966 286.236 65.532C286.7 65.7673 287.065 66.0888 287.33 66.4964C287.599 66.9041 287.734 67.3665 287.738 67.8835C287.734 68.4238 287.587 68.906 287.295 69.3303C287.007 69.7512 286.624 70.0246 286.147 70.1506V70.2102C286.515 70.2765 286.846 70.4339 287.141 70.6825C287.436 70.9278 287.671 71.2344 287.847 71.6023C288.023 71.9669 288.112 72.3646 288.116 72.7955C288.112 73.3456 287.963 73.8362 287.668 74.267C287.376 74.6946 286.97 75.031 286.45 75.2763C285.933 75.5182 285.335 75.6392 284.655 75.6392ZM284.655 74.5455C285.116 74.5455 285.514 74.4709 285.849 74.3217C286.183 74.1726 286.442 73.9621 286.624 73.6903C286.806 73.4186 286.899 73.1004 286.903 72.7358C286.899 72.3513 286.8 72.0116 286.604 71.7166C286.409 71.4216 286.142 71.1896 285.804 71.0206C285.469 70.8516 285.086 70.767 284.655 70.767C284.221 70.767 283.833 70.8516 283.492 71.0206C283.154 71.1896 282.887 71.4216 282.692 71.7166C282.499 72.0116 282.405 72.3513 282.408 72.7358C282.405 73.1004 282.493 73.4186 282.672 73.6903C282.854 73.9621 283.114 74.1726 283.452 74.3217C283.79 74.4709 284.191 74.5455 284.655 74.5455ZM284.655 69.7131C285.02 69.7131 285.343 69.6402 285.625 69.4943C285.91 69.3485 286.134 69.1446 286.296 68.8828C286.458 68.621 286.541 68.3144 286.545 67.9631C286.541 67.6184 286.46 67.3184 286.301 67.0632C286.142 66.8047 285.921 66.6058 285.64 66.4666C285.358 66.3241 285.03 66.2528 284.655 66.2528C284.274 66.2528 283.941 66.3241 283.656 66.4666C283.371 66.6058 283.151 66.8047 282.995 67.0632C282.839 67.3184 282.763 67.6184 282.766 67.9631C282.763 68.3144 282.841 68.621 283 68.8828C283.162 69.1446 283.386 69.3485 283.671 69.4943C283.956 69.6402 284.284 69.7131 284.655 69.7131ZM290.732 75.5795C290.486 75.5795 290.276 75.4917 290.1 75.3161C289.924 75.1404 289.837 74.9299 289.837 74.6847C289.837 74.4394 289.924 74.2289 290.1 74.0533C290.276 73.8776 290.486 73.7898 290.732 73.7898C290.977 73.7898 291.187 73.8776 291.363 74.0533C291.539 74.2289 291.626 74.4394 291.626 74.6847C291.626 74.8471 291.585 74.9962 291.502 75.1321C291.423 75.268 291.315 75.3774 291.179 75.4602C291.046 75.5398 290.897 75.5795 290.732 75.5795ZM293.862 75.5V74.6051L297.223 70.9261C297.617 70.4953 297.942 70.1207 298.197 69.8026C298.452 69.4811 298.641 69.1795 298.764 68.8977C298.89 68.6127 298.953 68.3144 298.953 68.0028C298.953 67.6449 298.867 67.335 298.694 67.0732C298.525 66.8113 298.293 66.6091 297.998 66.4666C297.703 66.3241 297.372 66.2528 297.004 66.2528C296.613 66.2528 296.272 66.334 295.98 66.4964C295.692 66.6555 295.468 66.8793 295.309 67.1676C295.153 67.456 295.075 67.794 295.075 68.1818H293.902C293.902 67.5852 294.039 67.0616 294.314 66.6108C294.589 66.16 294.964 65.8087 295.438 65.5568C295.915 65.3049 296.451 65.179 297.044 65.179C297.64 65.179 298.169 65.3049 298.63 65.5568C299.09 65.8087 299.452 66.1484 299.714 66.576C299.975 67.0036 300.106 67.4792 300.106 68.0028C300.106 68.3774 300.038 68.7436 299.902 69.1016C299.77 69.4562 299.538 69.8523 299.206 70.2898C298.878 70.724 298.423 71.2543 297.839 71.8807L295.552 74.3267V74.4062H300.285V75.5H293.862ZM307.679 73.5909V73.054C307.679 72.6828 307.755 72.343 307.908 72.0348C308.063 71.7232 308.289 71.4747 308.584 71.2891C308.882 71.1001 309.243 71.0057 309.668 71.0057C310.098 71.0057 310.46 71.1001 310.751 71.2891C311.043 71.4747 311.263 71.7232 311.413 72.0348C311.562 72.343 311.636 72.6828 311.636 73.054V73.5909C311.636 73.9621 311.56 74.3035 311.408 74.6151C311.258 74.9233 311.036 75.1719 310.741 75.3608C310.45 75.5464 310.092 75.6392 309.668 75.6392C309.237 75.6392 308.874 75.5464 308.579 75.3608C308.284 75.1719 308.06 74.9233 307.908 74.6151C307.755 74.3035 307.679 73.9621 307.679 73.5909ZM308.693 73.054V73.5909C308.693 73.8991 308.766 74.1759 308.912 74.4212C309.058 74.6631 309.31 74.7841 309.668 74.7841C310.016 74.7841 310.261 74.6631 310.403 74.4212C310.549 74.1759 310.622 73.8991 310.622 73.5909V73.054C310.622 72.7457 310.552 72.4706 310.413 72.2287C310.274 71.9834 310.025 71.8608 309.668 71.8608C309.32 71.8608 309.069 71.9834 308.917 72.2287C308.768 72.4706 308.693 72.7457 308.693 73.054ZM302.608 67.7642V67.2273C302.608 66.8561 302.684 66.5163 302.837 66.2081C302.992 65.8965 303.218 65.648 303.513 65.4624C303.811 65.2734 304.172 65.179 304.597 65.179C305.027 65.179 305.389 65.2734 305.68 65.4624C305.972 65.648 306.192 65.8965 306.342 66.2081C306.491 66.5163 306.565 66.8561 306.565 67.2273V67.7642C306.565 68.1354 306.489 68.4768 306.337 68.7884C306.187 69.0966 305.965 69.3452 305.67 69.5341C305.379 69.7197 305.021 69.8125 304.597 69.8125C304.166 69.8125 303.803 69.7197 303.508 69.5341C303.213 69.3452 302.989 69.0966 302.837 68.7884C302.684 68.4768 302.608 68.1354 302.608 67.7642ZM303.622 67.2273V67.7642C303.622 68.0724 303.695 68.3492 303.841 68.5945C303.987 68.8364 304.239 68.9574 304.597 68.9574C304.945 68.9574 305.19 68.8364 305.332 68.5945C305.478 68.3492 305.551 68.0724 305.551 67.7642V67.2273C305.551 66.919 305.481 66.6439 305.342 66.402C305.203 66.1567 304.954 66.0341 304.597 66.0341C304.248 66.0341 303.998 66.1567 303.846 66.402C303.697 66.6439 303.622 66.919 303.622 67.2273ZM302.986 75.5L309.986 65.3182H311.119L304.119 75.5H302.986Z" fill="#72E128"/>
<path d="M320.743 73.41L325.333 68.83L329.923 73.41L331.333 72L325.333 66L319.333 72L320.743 73.41Z" fill="#72E128"/>
<rect x="29" y="200" width="10" height="70" rx="5" fill="#72E128"/>
<rect x="55" y="152" width="10" height="118" rx="5" fill="#72E128"/>
<rect x="81" y="178" width="10" height="92" rx="5" fill="#72E128"/>
<rect x="107" y="221" width="10" height="49" rx="5" fill="#72E128"/>
<rect x="133" y="251" width="10" height="19" rx="5" fill="#72E128"/>
<rect x="159" y="221" width="10" height="49" rx="5" fill="#72E128"/>
<rect x="185" y="247" width="10" height="23" rx="5" fill="#72E128"/>
<rect x="211" y="188" width="10" height="82" rx="5" fill="#72E128"/>
<rect x="237" y="205" width="10" height="65" rx="5" fill="#72E128"/>
<rect x="263" y="247" width="10" height="23" rx="5" fill="#72E128"/>
<rect x="289" y="221" width="10" height="49" rx="5" fill="#72E128"/>
<rect x="315" y="205" width="10" height="65" rx="5" fill="#72E128"/>
<rect x="341" y="205" width="10" height="65" rx="5" fill="#72E128"/>
</svg>
