<svg width="372" height="81" viewBox="0 0 372 81" fill="none" xmlns="http://www.w3.org/2000/svg">
<mask id="mask0_5340_5365" style="mask-type:luminance" maskUnits="userSpaceOnUse" x="0" y="0" width="372" height="81">
<rect width="372" height="81" fill="white"/>
</mask>
<g mask="url(#mask0_5340_5365)">
<rect width="372" height="81.8438" fill="#18191B"/>
</g>
<g clip-path="url(#clip0_5340_5365)">
<mask id="mask1_5340_5365" style="mask-type:luminance" maskUnits="userSpaceOnUse" x="330" y="29" width="20" height="20">
<path fill-rule="evenodd" clip-rule="evenodd" d="M330.771 35.1263C329.887 36.5802 330.732 38.0821 331.751 38.64L331.96 38.7541C331.957 38.8373 331.954 38.9205 331.953 39.0005C331.954 39.0806 331.957 39.1637 331.96 39.2469L331.751 39.361C330.732 39.9189 329.887 41.4208 330.771 42.8747L331.952 44.8139C332.778 46.1697 334.386 46.2305 335.37 45.6918L335.56 45.5872C335.797 45.7409 336.043 45.8838 336.295 46.0161V46.0523C336.295 47.3558 337.324 48.6006 338.82 48.6006H341.181C342.677 48.6006 343.706 47.3558 343.706 46.0523V46.0161C343.958 45.8838 344.204 45.7409 344.441 45.5872L344.631 45.6918C345.614 46.2305 347.223 46.1697 348.048 44.8139L349.229 42.8747C350.114 41.4208 349.269 39.9189 348.25 39.361L348.041 39.2469C348.044 39.1637 348.046 39.0806 348.047 39.0005C348.046 38.9205 348.044 38.8373 348.041 38.7541L348.25 38.64C349.269 38.0821 350.114 36.5802 349.229 35.1263L348.048 33.1871C347.223 31.8314 345.614 31.7716 344.631 32.3092L344.441 32.4138C344.204 32.2602 343.958 32.1172 343.706 31.985V31.9487C343.706 30.6452 342.677 29.4004 341.181 29.4004H338.82C337.324 29.4004 336.295 30.6452 336.295 31.9487V31.985C336.043 32.1172 335.797 32.2602 335.56 32.4138L335.37 32.3092C334.386 31.7716 332.778 31.8314 331.952 33.1871L330.771 35.1263ZM335.757 34.9535L334.348 34.1813C334.139 34.0671 333.881 34.1183 333.772 34.2975L332.591 36.2367C332.482 36.4159 332.564 36.6527 332.773 36.7679L334.262 37.5829C334.146 38.0362 334.085 38.512 334.085 39.0005C334.085 39.489 334.146 39.9648 334.262 40.4181L332.773 41.2331C332.564 41.3483 332.482 41.5851 332.591 41.7642L333.772 43.7036C333.881 43.8827 334.139 43.934 334.348 43.8197L335.757 43.0475C336.48 43.7782 337.397 44.3222 338.426 44.6006V46.0523C338.426 46.2816 338.602 46.4673 338.82 46.4673H341.181C341.399 46.4673 341.575 46.2816 341.575 46.0523V44.6006C342.604 44.3222 343.52 43.7782 344.244 43.0475L345.653 43.8197C345.862 43.934 346.12 43.8827 346.229 43.7036L347.41 41.7642C347.518 41.5851 347.437 41.3483 347.228 41.2331L345.739 40.4181C345.854 39.9648 345.916 39.489 345.916 39.0005C345.916 38.512 345.854 38.0362 345.739 37.5829L347.228 36.7679C347.437 36.6527 347.518 36.4159 347.41 36.2367L346.229 34.2975C346.12 34.1183 345.862 34.0671 345.653 34.1813L344.244 34.9535C343.52 34.2228 342.604 33.6788 341.575 33.4015V31.9487C341.575 31.7194 341.399 31.5338 341.181 31.5338H338.82C338.602 31.5338 338.426 31.7194 338.426 31.9487V33.4015C337.397 33.6788 336.48 34.2228 335.757 34.9535ZM339.996 42.2006C341.762 42.2006 343.192 40.768 343.192 39.0005C343.192 37.233 341.762 35.8005 339.996 35.8005C338.231 35.8005 336.8 37.233 336.8 39.0005C336.8 40.768 338.231 42.2006 339.996 42.2006ZM341.2 39.0004C341.2 39.6628 340.664 40.2004 340 40.2004C339.337 40.2004 338.8 39.6628 338.8 39.0004C338.8 38.338 339.337 37.8004 340 37.8004C340.664 37.8004 341.2 38.338 341.2 39.0004Z" fill="white"/>
</mask>
<g mask="url(#mask1_5340_5365)">
<rect x="328" y="27" width="24" height="24" fill="#93959C"/>
</g>
<path d="M38.5 61.9998C50.8924 61.9998 61 51.8924 61 39.5C61 27.1073 50.8927 17 38.5 17C26.1073 17 16 27.1073 16 39.4999C16 51.8923 26.1073 61.9998 38.5 61.9998Z" fill="#A1F1AA"/>
<path d="M43.9513 24.9219L39.7109 47.9411L42.7398 48.5469C49.1508 43.8522 51.902 24.9219 43.9513 24.9219Z" fill="#4E1E30"/>
<path d="M43.9521 24.9213C42.892 24.2777 37.2971 22.643 33.0483 24.9213C27.8235 27.723 23.2549 37.7434 30.6252 47.9407C30.6357 47.9551 36.0771 47.3348 36.0771 47.3348L43.9521 24.9213Z" fill="#4E1E30"/>
<path fill-rule="evenodd" clip-rule="evenodd" d="M43.9517 61.3309C42.2051 61.7683 40.3787 62.0008 38.4998 62.0008C36.6209 62.0008 34.7944 61.7683 33.0479 61.3309V48.915C34.2536 48.0045 34.2594 46.4994 34.2594 45.1146V43.7012H42.7402V45.1162H42.7731C42.7731 46.489 42.7767 47.9811 43.9517 48.8938V61.3309Z" fill="#FFD7A3"/>
<path fill-rule="evenodd" clip-rule="evenodd" d="M43.346 61.4725C41.7843 61.8176 40.1626 61.9995 38.4999 61.9995C37.2629 61.9995 36.0488 61.8988 34.8652 61.7053V55.9485C35.9682 56.2485 37.1972 56.4212 38.4999 56.4212C40.3033 56.4212 41.9717 56.0972 43.346 55.5488V61.4725Z" fill="#304FFD"/>
<path d="M43.3453 51.5744C43.5664 51.6347 43.7654 51.6669 43.9511 51.6825V48.8921C42.7763 47.9792 42.7725 46.487 42.7725 45.1142L42.7717 45.0791V43.6641L36.0761 43.6993L34.2588 44.305C35.4703 45.6681 39.1808 50.4386 43.3453 51.5744Z" fill="#FDC88E"/>
<path d="M46.981 35.8256C46.981 40.6767 42.1564 46.7295 38.5002 46.7295C34.8441 46.7295 30.0195 40.6767 30.0195 35.8256C30.0195 30.9746 33.8165 29.1621 38.5002 29.1621C43.1839 29.1621 46.981 30.9746 46.981 35.8256Z" fill="#FFE1B2"/>
<path d="M39.7115 26.1328C39.371 26.1328 38.266 26.5152 37.3628 26.8503L37.2883 26.7386C37.2883 26.7386 37.1637 26.8365 36.9479 27.0063C36.4456 27.197 36.0768 27.3443 36.0768 27.3443L36.2186 27.5805C33.9193 29.392 28.6735 33.536 28.2018 34.0079C27.596 34.6136 31.8364 50.0686 31.8364 41.277C31.8364 33.9321 35.9171 32.4775 39.7115 31.5847C41.4278 31.181 41.9326 30.1713 42.1345 29.1617C42.3364 28.1521 40.3173 26.1328 39.7115 26.1328Z" fill="#4E1E30"/>
<path d="M41.5289 29.768C42.6395 33.756 44.8607 35.5606 46.9431 36.0907C48.084 36.3812 47.5867 32.7969 47.5867 32.7969C47.5867 32.7969 45.9713 28.6574 45.7694 28.5565C45.5675 28.4555 43.952 24.9219 43.952 24.9219L40.3174 27.9508L41.5289 29.768Z" fill="#4E1E30"/>
<path fill-rule="evenodd" clip-rule="evenodd" d="M36.8738 61.9407L33.713 48.1875C33.1457 49.1093 31.989 49.7573 29.6151 49.7573H29.4133C26.0138 49.7573 23.2088 52.303 22.8008 55.5921C26.4959 59.1979 31.4212 61.5482 36.8738 61.9407Z" fill="#FF955C"/>
<path fill-rule="evenodd" clip-rule="evenodd" d="M54.1991 55.592C53.791 52.303 50.9861 49.7573 47.5865 49.7573H47.3847C45.0108 49.7573 43.8541 49.1093 43.2868 48.1875L40.126 61.9407C45.5786 61.5482 50.5039 59.1978 54.1991 55.592Z" fill="#FF955C"/>
<path d="M46.0784 35.8796C47.0697 35.6524 47.719 36.1377 47.719 37.0912C47.719 38.3532 46.3861 41.4452 44.9848 39.5142C43.5835 37.5833 46.0784 35.8796 46.0784 35.8796Z" fill="#FFE1B2"/>
<g clip-path="url(#clip1_5340_5365)">
<mask id="mask2_5340_5365" style="mask-type:luminance" maskUnits="userSpaceOnUse" x="47" y="9" width="17" height="17">
<rect x="47" y="9" width="17" height="17" rx="6" fill="white"/>
</mask>
<g mask="url(#mask2_5340_5365)">
<rect x="47" y="9" width="17" height="17" fill="#FD7972"/>
</g>
</g>
<g clip-path="url(#clip2_5340_5365)">
<mask id="mask3_5340_5365" style="mask-type:luminance" maskUnits="userSpaceOnUse" x="45" y="7" width="21" height="21">
<path d="M59 7C62.866 7 66 10.134 66 14V21C66 24.866 62.866 28 59 28H52C48.134 28 45 24.866 45 21V14C45 10.134 48.134 7 52 7H59ZM53 9C49.6863 9 47 11.6863 47 15V20C47 23.3137 49.6863 26 53 26H58C61.3137 26 64 23.3137 64 20V15C64 11.6863 61.3137 9 58 9H53Z" fill="white"/>
</mask>
<g mask="url(#mask3_5340_5365)">
<rect x="45" y="7" width="21" height="21" fill="#23262B"/>
</g>
</g>
<path d="M54.0371 17.14C53.3704 16.7933 53.0371 16.2567 53.0371 15.53C53.0371 15.17 53.1271 14.8433 53.3071 14.55C53.4938 14.25 53.7704 14.0133 54.1371 13.84C54.5104 13.66 54.9638 13.57 55.4971 13.57C56.0304 13.57 56.4804 13.66 56.8471 13.84C57.2204 14.0133 57.4971 14.25 57.6771 14.55C57.8638 14.8433 57.9571 15.17 57.9571 15.53C57.9571 15.8967 57.8671 16.22 57.6871 16.5C57.5071 16.7733 57.2671 16.9867 56.9671 17.14C57.3338 17.3 57.6204 17.5333 57.8271 17.84C58.0338 18.1467 58.1371 18.51 58.1371 18.93C58.1371 19.3833 58.0204 19.78 57.7871 20.12C57.5604 20.4533 57.2471 20.71 56.8471 20.89C56.4471 21.07 55.9971 21.16 55.4971 21.16C54.9971 21.16 54.5471 21.07 54.1471 20.89C53.7538 20.71 53.4404 20.4533 53.2071 20.12C52.9804 19.78 52.8671 19.3833 52.8671 18.93C52.8671 18.51 52.9704 18.1467 53.1771 17.84C53.3838 17.5267 53.6704 17.2933 54.0371 17.14ZM56.5971 15.73C56.5971 15.4033 56.4971 15.15 56.2971 14.97C56.1038 14.79 55.8371 14.7 55.4971 14.7C55.1638 14.7 54.8971 14.79 54.6971 14.97C54.5038 15.15 54.4071 15.4067 54.4071 15.74C54.4071 16.04 54.5071 16.28 54.7071 16.46C54.9138 16.64 55.1771 16.73 55.4971 16.73C55.8171 16.73 56.0804 16.64 56.2871 16.46C56.4938 16.2733 56.5971 16.03 56.5971 15.73ZM55.4971 17.75C55.1171 17.75 54.8071 17.8467 54.5671 18.04C54.3338 18.2333 54.2171 18.51 54.2171 18.87C54.2171 19.2033 54.3304 19.4767 54.5571 19.69C54.7904 19.8967 55.1038 20 55.4971 20C55.8904 20 56.2004 19.8933 56.4271 19.68C56.6538 19.4667 56.7671 19.1967 56.7671 18.87C56.7671 18.5167 56.6504 18.2433 56.4171 18.05C56.1838 17.85 55.8771 17.75 55.4971 17.75Z" fill="white"/>
<path d="M87.335 31.675H82.775L81.935 34H80.495L84.275 23.605H85.85L89.615 34H88.175L87.335 31.675ZM86.945 30.565L85.055 25.285L83.165 30.565H86.945ZM92.6274 27.115C92.8674 26.645 93.2074 26.28 93.6474 26.02C94.0974 25.76 94.6424 25.63 95.2824 25.63V27.04H94.9224C93.3924 27.04 92.6274 27.87 92.6274 29.53V34H91.2624V25.78H92.6274V27.115ZM98.5231 26.905V31.75C98.5231 32.15 98.6081 32.435 98.7781 32.605C98.9481 32.765 99.2431 32.845 99.6631 32.845H100.668V34H99.4381C98.6781 34 98.1081 33.825 97.7281 33.475C97.3481 33.125 97.1581 32.55 97.1581 31.75V26.905H96.0931V25.78H97.1581V23.71H98.5231V25.78H100.668V26.905H98.5231ZM108.757 23.545V24.655H105.907V34H104.542V24.655H101.677V23.545H108.757ZM117.937 29.575C117.937 29.835 117.922 30.11 117.892 30.4H111.322C111.372 31.21 111.647 31.845 112.147 32.305C112.657 32.755 113.272 32.98 113.992 32.98C114.582 32.98 115.072 32.845 115.462 32.575C115.862 32.295 116.142 31.925 116.302 31.465H117.772C117.552 32.255 117.112 32.9 116.452 33.4C115.792 33.89 114.972 34.135 113.992 34.135C113.212 34.135 112.512 33.96 111.892 33.61C111.282 33.26 110.802 32.765 110.452 32.125C110.102 31.475 109.927 30.725 109.927 29.875C109.927 29.025 110.097 28.28 110.437 27.64C110.777 27 111.252 26.51 111.862 26.17C112.482 25.82 113.192 25.645 113.992 25.645C114.772 25.645 115.462 25.815 116.062 26.155C116.662 26.495 117.122 26.965 117.442 27.565C117.772 28.155 117.937 28.825 117.937 29.575ZM116.527 29.29C116.527 28.77 116.412 28.325 116.182 27.955C115.952 27.575 115.637 27.29 115.237 27.1C114.847 26.9 114.412 26.8 113.932 26.8C113.242 26.8 112.652 27.02 112.162 27.46C111.682 27.9 111.407 28.51 111.337 29.29H116.527ZM129.624 25.63C130.264 25.63 130.834 25.765 131.334 26.035C131.834 26.295 132.229 26.69 132.519 27.22C132.809 27.75 132.954 28.395 132.954 29.155V34H131.604V29.35C131.604 28.53 131.399 27.905 130.989 27.475C130.589 27.035 130.044 26.815 129.354 26.815C128.644 26.815 128.079 27.045 127.659 27.505C127.239 27.955 127.029 28.61 127.029 29.47V34H125.679V29.35C125.679 28.53 125.474 27.905 125.064 27.475C124.664 27.035 124.119 26.815 123.429 26.815C122.719 26.815 122.154 27.045 121.734 27.505C121.314 27.955 121.104 28.61 121.104 29.47V34H119.739V25.78H121.104V26.965C121.374 26.535 121.734 26.205 122.184 25.975C122.644 25.745 123.149 25.63 123.699 25.63C124.389 25.63 124.999 25.785 125.529 26.095C126.059 26.405 126.454 26.86 126.714 27.46C126.944 26.88 127.324 26.43 127.854 26.11C128.384 25.79 128.974 25.63 129.624 25.63ZM136.558 27.295C136.828 26.825 137.228 26.435 137.758 26.125C138.298 25.805 138.923 25.645 139.633 25.645C140.363 25.645 141.023 25.82 141.613 26.17C142.213 26.52 142.683 27.015 143.023 27.655C143.363 28.285 143.533 29.02 143.533 29.86C143.533 30.69 143.363 31.43 143.023 32.08C142.683 32.73 142.213 33.235 141.613 33.595C141.023 33.955 140.363 34.135 139.633 34.135C138.933 34.135 138.313 33.98 137.773 33.67C137.243 33.35 136.838 32.955 136.558 32.485V37.9H135.193V25.78H136.558V27.295ZM142.138 29.86C142.138 29.24 142.013 28.7 141.763 28.24C141.513 27.78 141.173 27.43 140.743 27.19C140.323 26.95 139.858 26.83 139.348 26.83C138.848 26.83 138.383 26.955 137.953 27.205C137.533 27.445 137.193 27.8 136.933 28.27C136.683 28.73 136.558 29.265 136.558 29.875C136.558 30.495 136.683 31.04 136.933 31.51C137.193 31.97 137.533 32.325 137.953 32.575C138.383 32.815 138.848 32.935 139.348 32.935C139.858 32.935 140.323 32.815 140.743 32.575C141.173 32.325 141.513 31.97 141.763 31.51C142.013 31.04 142.138 30.49 142.138 29.86ZM146.695 22.9V34H145.33V22.9H146.695ZM148.511 29.86C148.511 29.02 148.681 28.285 149.021 27.655C149.361 27.015 149.826 26.52 150.416 26.17C151.016 25.82 151.681 25.645 152.411 25.645C153.131 25.645 153.756 25.8 154.286 26.11C154.816 26.42 155.211 26.81 155.471 27.28V25.78H156.851V34H155.471V32.47C155.201 32.95 154.796 33.35 154.256 33.67C153.726 33.98 153.106 34.135 152.396 34.135C151.666 34.135 151.006 33.955 150.416 33.595C149.826 33.235 149.361 32.73 149.021 32.08C148.681 31.43 148.511 30.69 148.511 29.86ZM155.471 29.875C155.471 29.255 155.346 28.715 155.096 28.255C154.846 27.795 154.506 27.445 154.076 27.205C153.656 26.955 153.191 26.83 152.681 26.83C152.171 26.83 151.706 26.95 151.286 27.19C150.866 27.43 150.531 27.78 150.281 28.24C150.031 28.7 149.906 29.24 149.906 29.86C149.906 30.49 150.031 31.04 150.281 31.51C150.531 31.97 150.866 32.325 151.286 32.575C151.706 32.815 152.171 32.935 152.681 32.935C153.191 32.935 153.656 32.815 154.076 32.575C154.506 32.325 154.846 31.97 155.096 31.51C155.346 31.04 155.471 30.495 155.471 29.875ZM160.823 26.905V31.75C160.823 32.15 160.908 32.435 161.078 32.605C161.248 32.765 161.543 32.845 161.963 32.845H162.968V34H161.738C160.978 34 160.408 33.825 160.028 33.475C159.648 33.125 159.458 32.55 159.458 31.75V26.905H158.393V25.78H159.458V23.71H160.823V25.78H162.968V26.905H160.823ZM172.122 29.575C172.122 29.835 172.107 30.11 172.077 30.4H165.507C165.557 31.21 165.832 31.845 166.332 32.305C166.842 32.755 167.457 32.98 168.177 32.98C168.767 32.98 169.257 32.845 169.647 32.575C170.047 32.295 170.327 31.925 170.487 31.465H171.957C171.737 32.255 171.297 32.9 170.637 33.4C169.977 33.89 169.157 34.135 168.177 34.135C167.397 34.135 166.697 33.96 166.077 33.61C165.467 33.26 164.987 32.765 164.637 32.125C164.287 31.475 164.112 30.725 164.112 29.875C164.112 29.025 164.282 28.28 164.622 27.64C164.962 27 165.437 26.51 166.047 26.17C166.667 25.82 167.377 25.645 168.177 25.645C168.957 25.645 169.647 25.815 170.247 26.155C170.847 26.495 171.307 26.965 171.627 27.565C171.957 28.155 172.122 28.825 172.122 29.575ZM170.712 29.29C170.712 28.77 170.597 28.325 170.367 27.955C170.137 27.575 169.822 27.29 169.422 27.1C169.032 26.9 168.597 26.8 168.117 26.8C167.427 26.8 166.837 27.02 166.347 27.46C165.867 27.9 165.592 28.51 165.522 29.29H170.712Z" fill="#FCFCFC"/>
<path d="M88.655 53.575C88.655 53.835 88.64 54.11 88.61 54.4H82.04C82.09 55.21 82.365 55.845 82.865 56.305C83.375 56.755 83.99 56.98 84.71 56.98C85.3 56.98 85.79 56.845 86.18 56.575C86.58 56.295 86.86 55.925 87.02 55.465H88.49C88.27 56.255 87.83 56.9 87.17 57.4C86.51 57.89 85.69 58.135 84.71 58.135C83.93 58.135 83.23 57.96 82.61 57.61C82 57.26 81.52 56.765 81.17 56.125C80.82 55.475 80.645 54.725 80.645 53.875C80.645 53.025 80.815 52.28 81.155 51.64C81.495 51 81.97 50.51 82.58 50.17C83.2 49.82 83.91 49.645 84.71 49.645C85.49 49.645 86.18 49.815 86.78 50.155C87.38 50.495 87.84 50.965 88.16 51.565C88.49 52.155 88.655 52.825 88.655 53.575ZM87.245 53.29C87.245 52.77 87.13 52.325 86.9 51.955C86.67 51.575 86.355 51.29 85.955 51.1C85.565 50.9 85.13 50.8 84.65 50.8C83.96 50.8 83.37 51.02 82.88 51.46C82.4 51.9 82.125 52.51 82.055 53.29H87.245ZM94.7468 58L92.7968 54.94L90.9218 58H89.4968L92.1518 53.92L89.4968 49.78H91.0418L92.9918 52.825L94.8518 49.78H96.2768L93.6368 53.845L96.2918 58H94.7468ZM97.1245 53.86C97.1245 53.02 97.2945 52.285 97.6345 51.655C97.9745 51.015 98.4395 50.52 99.0295 50.17C99.6295 49.82 100.294 49.645 101.024 49.645C101.744 49.645 102.369 49.8 102.899 50.11C103.429 50.42 103.824 50.81 104.084 51.28V49.78H105.464V58H104.084V56.47C103.814 56.95 103.409 57.35 102.869 57.67C102.339 57.98 101.719 58.135 101.009 58.135C100.279 58.135 99.6195 57.955 99.0295 57.595C98.4395 57.235 97.9745 56.73 97.6345 56.08C97.2945 55.43 97.1245 54.69 97.1245 53.86ZM104.084 53.875C104.084 53.255 103.959 52.715 103.709 52.255C103.459 51.795 103.119 51.445 102.689 51.205C102.269 50.955 101.804 50.83 101.294 50.83C100.784 50.83 100.319 50.95 99.8995 51.19C99.4795 51.43 99.1445 51.78 98.8945 52.24C98.6445 52.7 98.5195 53.24 98.5195 53.86C98.5195 54.49 98.6445 55.04 98.8945 55.51C99.1445 55.97 99.4795 56.325 99.8995 56.575C100.319 56.815 100.784 56.935 101.294 56.935C101.804 56.935 102.269 56.815 102.689 56.575C103.119 56.325 103.459 55.97 103.709 55.51C103.959 55.04 104.084 54.495 104.084 53.875ZM117.656 49.63C118.296 49.63 118.866 49.765 119.366 50.035C119.866 50.295 120.261 50.69 120.551 51.22C120.841 51.75 120.986 52.395 120.986 53.155V58H119.636V53.35C119.636 52.53 119.431 51.905 119.021 51.475C118.621 51.035 118.076 50.815 117.386 50.815C116.676 50.815 116.111 51.045 115.691 51.505C115.271 51.955 115.061 52.61 115.061 53.47V58H113.711V53.35C113.711 52.53 113.506 51.905 113.096 51.475C112.696 51.035 112.151 50.815 111.461 50.815C110.751 50.815 110.186 51.045 109.766 51.505C109.346 51.955 109.136 52.61 109.136 53.47V58H107.771V49.78H109.136V50.965C109.406 50.535 109.766 50.205 110.216 49.975C110.676 49.745 111.181 49.63 111.731 49.63C112.421 49.63 113.031 49.785 113.561 50.095C114.091 50.405 114.486 50.86 114.746 51.46C114.976 50.88 115.356 50.43 115.886 50.11C116.416 49.79 117.006 49.63 117.656 49.63ZM124.59 51.295C124.86 50.825 125.26 50.435 125.79 50.125C126.33 49.805 126.955 49.645 127.665 49.645C128.395 49.645 129.055 49.82 129.645 50.17C130.245 50.52 130.715 51.015 131.055 51.655C131.395 52.285 131.565 53.02 131.565 53.86C131.565 54.69 131.395 55.43 131.055 56.08C130.715 56.73 130.245 57.235 129.645 57.595C129.055 57.955 128.395 58.135 127.665 58.135C126.965 58.135 126.345 57.98 125.805 57.67C125.275 57.35 124.87 56.955 124.59 56.485V61.9H123.225V49.78H124.59V51.295ZM130.17 53.86C130.17 53.24 130.045 52.7 129.795 52.24C129.545 51.78 129.205 51.43 128.775 51.19C128.355 50.95 127.89 50.83 127.38 50.83C126.88 50.83 126.415 50.955 125.985 51.205C125.565 51.445 125.225 51.8 124.965 52.27C124.715 52.73 124.59 53.265 124.59 53.875C124.59 54.495 124.715 55.04 124.965 55.51C125.225 55.97 125.565 56.325 125.985 56.575C126.415 56.815 126.88 56.935 127.38 56.935C127.89 56.935 128.355 56.815 128.775 56.575C129.205 56.325 129.545 55.97 129.795 55.51C130.045 55.04 130.17 54.49 130.17 53.86ZM134.727 46.9V58H133.362V46.9H134.727ZM144.553 53.575C144.553 53.835 144.538 54.11 144.508 54.4H137.938C137.988 55.21 138.263 55.845 138.763 56.305C139.273 56.755 139.888 56.98 140.608 56.98C141.198 56.98 141.688 56.845 142.078 56.575C142.478 56.295 142.758 55.925 142.918 55.465H144.388C144.168 56.255 143.728 56.9 143.068 57.4C142.408 57.89 141.588 58.135 140.608 58.135C139.828 58.135 139.128 57.96 138.508 57.61C137.898 57.26 137.418 56.765 137.068 56.125C136.718 55.475 136.543 54.725 136.543 53.875C136.543 53.025 136.713 52.28 137.053 51.64C137.393 51 137.868 50.51 138.478 50.17C139.098 49.82 139.808 49.645 140.608 49.645C141.388 49.645 142.078 49.815 142.678 50.155C143.278 50.495 143.738 50.965 144.058 51.565C144.388 52.155 144.553 52.825 144.553 53.575ZM143.143 53.29C143.143 52.77 143.028 52.325 142.798 51.955C142.568 51.575 142.253 51.29 141.853 51.1C141.463 50.9 141.028 50.8 140.548 50.8C139.858 50.8 139.268 51.02 138.778 51.46C138.298 51.9 138.023 52.51 137.953 53.29H143.143ZM153.855 48.385C154.965 48.385 155.93 48.595 156.75 49.015C157.57 49.435 158.2 50.025 158.64 50.785C159.08 51.535 159.3 52.405 159.3 53.395C159.3 54.185 159.17 54.945 158.91 55.675C158.65 56.395 158.27 56.98 157.77 57.43C157.28 57.88 156.705 58.105 156.045 58.105C155.545 58.105 155.16 57.98 154.89 57.73C154.62 57.48 154.465 57.14 154.425 56.71C154.115 57.14 153.72 57.48 153.24 57.73C152.77 57.98 152.27 58.105 151.74 58.105C150.98 58.105 150.38 57.875 149.94 57.415C149.51 56.945 149.295 56.315 149.295 55.525C149.295 54.775 149.45 54.075 149.76 53.425C150.08 52.775 150.52 52.255 151.08 51.865C151.64 51.465 152.275 51.265 152.985 51.265C153.935 51.265 154.575 51.625 154.905 52.345L155.07 51.415H156.255L155.505 55.75C155.475 55.94 155.46 56.115 155.46 56.275C155.46 56.875 155.725 57.175 156.255 57.175C156.655 57.175 157 56.985 157.29 56.605C157.59 56.225 157.815 55.75 157.965 55.18C158.115 54.6 158.19 54.03 158.19 53.47C158.19 52.16 157.795 51.145 157.005 50.425C156.225 49.705 155.12 49.345 153.69 49.345C152.5 49.345 151.425 49.635 150.465 50.215C149.515 50.785 148.77 51.57 148.23 52.57C147.69 53.57 147.42 54.675 147.42 55.885C147.41 57.205 147.805 58.22 148.605 58.93C149.405 59.65 150.515 60.01 151.935 60.01C152.875 60.01 153.705 59.84 154.425 59.5L154.605 60.43C153.715 60.8 152.735 60.985 151.665 60.985C150.595 60.985 149.65 60.78 148.83 60.37C148.02 59.97 147.39 59.39 146.94 58.63C146.5 57.88 146.28 57.005 146.28 56.005C146.28 54.595 146.605 53.31 147.255 52.15C147.905 50.98 148.805 50.06 149.955 49.39C151.115 48.72 152.415 48.385 153.855 48.385ZM152.145 57.04C152.595 57.04 153.01 56.91 153.39 56.65C153.77 56.38 154.07 56.02 154.29 55.57C154.51 55.11 154.62 54.61 154.62 54.07C154.62 53.55 154.475 53.13 154.185 52.81C153.905 52.48 153.505 52.315 152.985 52.315C152.505 52.315 152.08 52.46 151.71 52.75C151.35 53.03 151.07 53.405 150.87 53.875C150.67 54.335 150.57 54.815 150.57 55.315C150.57 55.845 150.705 56.265 150.975 56.575C151.245 56.885 151.635 57.04 152.145 57.04ZM171.431 49.63C172.071 49.63 172.641 49.765 173.141 50.035C173.641 50.295 174.036 50.69 174.326 51.22C174.616 51.75 174.761 52.395 174.761 53.155V58H173.411V53.35C173.411 52.53 173.206 51.905 172.796 51.475C172.396 51.035 171.851 50.815 171.161 50.815C170.451 50.815 169.886 51.045 169.466 51.505C169.046 51.955 168.836 52.61 168.836 53.47V58H167.486V53.35C167.486 52.53 167.281 51.905 166.871 51.475C166.471 51.035 165.926 50.815 165.236 50.815C164.526 50.815 163.961 51.045 163.541 51.505C163.121 51.955 162.911 52.61 162.911 53.47V58H161.546V49.78H162.911V50.965C163.181 50.535 163.541 50.205 163.991 49.975C164.451 49.745 164.956 49.63 165.506 49.63C166.196 49.63 166.806 49.785 167.336 50.095C167.866 50.405 168.261 50.86 168.521 51.46C168.751 50.88 169.131 50.43 169.661 50.11C170.191 49.79 170.781 49.63 171.431 49.63ZM176.49 53.86C176.49 53.02 176.66 52.285 177 51.655C177.34 51.015 177.805 50.52 178.395 50.17C178.995 49.82 179.66 49.645 180.39 49.645C181.11 49.645 181.735 49.8 182.265 50.11C182.795 50.42 183.19 50.81 183.45 51.28V49.78H184.83V58H183.45V56.47C183.18 56.95 182.775 57.35 182.235 57.67C181.705 57.98 181.085 58.135 180.375 58.135C179.645 58.135 178.985 57.955 178.395 57.595C177.805 57.235 177.34 56.73 177 56.08C176.66 55.43 176.49 54.69 176.49 53.86ZM183.45 53.875C183.45 53.255 183.325 52.715 183.075 52.255C182.825 51.795 182.485 51.445 182.055 51.205C181.635 50.955 181.17 50.83 180.66 50.83C180.15 50.83 179.685 50.95 179.265 51.19C178.845 51.43 178.51 51.78 178.26 52.24C178.01 52.7 177.885 53.24 177.885 53.86C177.885 54.49 178.01 55.04 178.26 55.51C178.51 55.97 178.845 56.325 179.265 56.575C179.685 56.815 180.15 56.935 180.66 56.935C181.17 56.935 181.635 56.815 182.055 56.575C182.485 56.325 182.825 55.97 183.075 55.51C183.325 55.04 183.45 54.495 183.45 53.875ZM187.841 48.445C187.581 48.445 187.361 48.355 187.181 48.175C187.001 47.995 186.911 47.775 186.911 47.515C186.911 47.255 187.001 47.035 187.181 46.855C187.361 46.675 187.581 46.585 187.841 46.585C188.091 46.585 188.301 46.675 188.471 46.855C188.651 47.035 188.741 47.255 188.741 47.515C188.741 47.775 188.651 47.995 188.471 48.175C188.301 48.355 188.091 48.445 187.841 48.445ZM188.501 49.78V58H187.136V49.78H188.501ZM192.193 46.9V58H190.828V46.9H192.193ZM194.954 58.09C194.694 58.09 194.474 58 194.294 57.82C194.114 57.64 194.024 57.42 194.024 57.16C194.024 56.9 194.114 56.68 194.294 56.5C194.474 56.32 194.694 56.23 194.954 56.23C195.204 56.23 195.414 56.32 195.584 56.5C195.764 56.68 195.854 56.9 195.854 57.16C195.854 57.42 195.764 57.64 195.584 57.82C195.414 58 195.204 58.09 194.954 58.09ZM197.159 53.875C197.159 53.025 197.329 52.285 197.669 51.655C198.009 51.015 198.479 50.52 199.079 50.17C199.689 49.82 200.384 49.645 201.164 49.645C202.174 49.645 203.004 49.89 203.654 50.38C204.314 50.87 204.749 51.55 204.959 52.42H203.489C203.349 51.92 203.074 51.525 202.664 51.235C202.264 50.945 201.764 50.8 201.164 50.8C200.384 50.8 199.754 51.07 199.274 51.61C198.794 52.14 198.554 52.895 198.554 53.875C198.554 54.865 198.794 55.63 199.274 56.17C199.754 56.71 200.384 56.98 201.164 56.98C201.764 56.98 202.264 56.84 202.664 56.56C203.064 56.28 203.339 55.88 203.489 55.36H204.959C204.739 56.2 204.299 56.875 203.639 57.385C202.979 57.885 202.154 58.135 201.164 58.135C200.384 58.135 199.689 57.96 199.079 57.61C198.479 57.26 198.009 56.765 197.669 56.125C197.329 55.485 197.159 54.735 197.159 53.875ZM210.365 58.135C209.595 58.135 208.895 57.96 208.265 57.61C207.645 57.26 207.155 56.765 206.795 56.125C206.445 55.475 206.27 54.725 206.27 53.875C206.27 53.035 206.45 52.295 206.81 51.655C207.18 51.005 207.68 50.51 208.31 50.17C208.94 49.82 209.645 49.645 210.425 49.645C211.205 49.645 211.91 49.82 212.54 50.17C213.17 50.51 213.665 51 214.025 51.64C214.395 52.28 214.58 53.025 214.58 53.875C214.58 54.725 214.39 55.475 214.01 56.125C213.64 56.765 213.135 57.26 212.495 57.61C211.855 57.96 211.145 58.135 210.365 58.135ZM210.365 56.935C210.855 56.935 211.315 56.82 211.745 56.59C212.175 56.36 212.52 56.015 212.78 55.555C213.05 55.095 213.185 54.535 213.185 53.875C213.185 53.215 213.055 52.655 212.795 52.195C212.535 51.735 212.195 51.395 211.775 51.175C211.355 50.945 210.9 50.83 210.41 50.83C209.91 50.83 209.45 50.945 209.03 51.175C208.62 51.395 208.29 51.735 208.04 52.195C207.79 52.655 207.665 53.215 207.665 53.875C207.665 54.545 207.785 55.11 208.025 55.57C208.275 56.03 208.605 56.375 209.015 56.605C209.425 56.825 209.875 56.935 210.365 56.935ZM226.26 49.63C226.9 49.63 227.47 49.765 227.97 50.035C228.47 50.295 228.865 50.69 229.155 51.22C229.445 51.75 229.59 52.395 229.59 53.155V58H228.24V53.35C228.24 52.53 228.035 51.905 227.625 51.475C227.225 51.035 226.68 50.815 225.99 50.815C225.28 50.815 224.715 51.045 224.295 51.505C223.875 51.955 223.665 52.61 223.665 53.47V58H222.315V53.35C222.315 52.53 222.11 51.905 221.7 51.475C221.3 51.035 220.755 50.815 220.065 50.815C219.355 50.815 218.79 51.045 218.37 51.505C217.95 51.955 217.74 52.61 217.74 53.47V58H216.375V49.78H217.74V50.965C218.01 50.535 218.37 50.205 218.82 49.975C219.28 49.745 219.785 49.63 220.335 49.63C221.025 49.63 221.635 49.785 222.165 50.095C222.695 50.405 223.09 50.86 223.35 51.46C223.58 50.88 223.96 50.43 224.49 50.11C225.02 49.79 225.61 49.63 226.26 49.63Z" fill="#93959C"/>
</g>
<defs>
<clipPath id="clip0_5340_5365">
<rect width="336" height="55" fill="white" transform="translate(16 7)"/>
</clipPath>
<clipPath id="clip1_5340_5365">
<rect width="17" height="17" fill="white" transform="translate(47 9)"/>
</clipPath>
<clipPath id="clip2_5340_5365">
<rect width="21" height="21" fill="white" transform="translate(45 7)"/>
</clipPath>
</defs>
</svg>
