<svg width="160" height="186" viewBox="0 0 160 186" fill="none" xmlns="http://www.w3.org/2000/svg">
<g clip-path="url(#clip0_5340_2314)">
<g filter="url(#filter0_d_5340_2314)">
<mask id="mask0_5340_2314" style="mask-type:luminance" maskUnits="userSpaceOnUse" x="0" y="0" width="160" height="186">
<rect width="160" height="186" fill="white"/>
</mask>
<g mask="url(#mask0_5340_2314)">
<rect width="160" height="186" fill="white"/>
</g>
</g>
<rect x="56" y="32" width="48" height="48" rx="14" fill="white"/>
<mask id="mask1_5340_2314" style="mask-type:luminance" maskUnits="userSpaceOnUse" x="56" y="32" width="48" height="48">
<rect x="56" y="32" width="48" height="48" rx="14" fill="white"/>
</mask>
<g mask="url(#mask1_5340_2314)">
<g opacity="0.1">
<rect x="56" y="32" width="48" height="48" fill="#49C96D"/>
</g>
</g>
<path fill-rule="evenodd" clip-rule="evenodd" d="M77.1252 47.675C77.1252 47.5638 77.2095 47.5 77.2814 47.5H82.7188C82.7907 47.5 82.875 47.5638 82.875 47.675V48.5855L82.8748 48.6006L82.875 48.6157V49.5249C82.875 49.6361 82.7907 49.6999 82.7188 49.6999H77.2814C77.2095 49.6999 77.1252 49.6361 77.1252 49.5249V47.675ZM84.3751 49.3506V49.5249C84.3751 50.4355 83.6479 51.1999 82.7188 51.1999H77.2814C76.3523 51.1999 75.6251 50.4355 75.6251 49.5249V49.3506H74.5625C74.2857 49.3506 74.0171 49.4627 73.8166 49.6673C73.6156 49.8725 73.5 50.1539 73.5 50.4505V63.4C73.5 63.6966 73.6156 63.978 73.8166 64.1832C74.0171 64.3879 74.2857 64.5 74.5625 64.5H85.4374C85.7141 64.5 85.9827 64.3879 86.1832 64.1832C86.3842 63.978 86.4998 63.6966 86.4998 63.4V58.4877L87.9999 57.0664V63.4C87.9999 64.0846 87.7336 64.7444 87.2548 65.233C86.7754 65.7223 86.122 66 85.4374 66H74.5625C73.8779 66 73.2245 65.7223 72.7451 65.233C72.2663 64.7444 72 64.0846 72 63.4V50.4505C72 49.7659 72.2663 49.1062 72.7451 48.6175C73.2245 48.1283 73.8779 47.8506 74.5625 47.8506H75.6251V47.675C75.6251 46.7645 76.3523 46 77.2814 46H82.7188C83.6479 46 84.3751 46.7645 84.3751 47.675V47.8506H85.4374C86.122 47.8506 86.7754 48.1283 87.2548 48.6175C87.4399 48.8065 87.5933 49.021 87.7118 49.2527C87.3989 49.3905 87.1048 49.5829 86.8443 49.8297L86.4685 50.1857C86.4215 49.9897 86.3231 49.8101 86.1832 49.6673C85.9827 49.4627 85.7141 49.3506 85.4374 49.3506H84.3751ZM89.5171 51.213C89.8283 51.5071 89.8283 51.9851 89.5171 52.2791L80.5951 60.7328C80.5831 60.7464 80.5704 60.7592 80.5569 60.7712C80.4303 60.8919 80.2712 60.9628 80.1065 60.9846C80.0683 60.99 80.0301 60.9923 79.9919 60.9923C79.7882 60.9923 79.5844 60.919 79.4293 60.7712C79.4192 60.7623 79.41 60.7528 79.4007 60.7433C79.3975 60.7401 79.3943 60.7368 79.3911 60.7336L76.2335 57.7411C75.9223 57.4469 75.9223 56.9697 76.2335 56.6749C76.5438 56.3801 77.0483 56.3801 77.3587 56.6749L79.9935 59.1706L88.392 51.213C88.7031 50.9182 89.2068 50.9182 89.5171 51.213Z" fill="#49C96D"/>
<mask id="mask2_5340_2314" style="mask-type:luminance" maskUnits="userSpaceOnUse" x="72" y="46" width="18" height="20">
<path fill-rule="evenodd" clip-rule="evenodd" d="M77.1252 47.675C77.1252 47.5638 77.2095 47.5 77.2814 47.5H82.7188C82.7907 47.5 82.875 47.5638 82.875 47.675V48.5855L82.8748 48.6006L82.875 48.6157V49.5249C82.875 49.6361 82.7907 49.6999 82.7188 49.6999H77.2814C77.2095 49.6999 77.1252 49.6361 77.1252 49.5249V47.675ZM84.3751 49.3506V49.5249C84.3751 50.4355 83.6479 51.1999 82.7188 51.1999H77.2814C76.3523 51.1999 75.6251 50.4355 75.6251 49.5249V49.3506H74.5625C74.2857 49.3506 74.0171 49.4627 73.8166 49.6673C73.6156 49.8725 73.5 50.1539 73.5 50.4505V63.4C73.5 63.6966 73.6156 63.978 73.8166 64.1832C74.0171 64.3879 74.2857 64.5 74.5625 64.5H85.4374C85.7141 64.5 85.9827 64.3879 86.1832 64.1832C86.3842 63.978 86.4998 63.6966 86.4998 63.4V58.4877L87.9999 57.0664V63.4C87.9999 64.0846 87.7336 64.7444 87.2548 65.233C86.7754 65.7223 86.122 66 85.4374 66H74.5625C73.8779 66 73.2245 65.7223 72.7451 65.233C72.2663 64.7444 72 64.0846 72 63.4V50.4505C72 49.7659 72.2663 49.1062 72.7451 48.6175C73.2245 48.1283 73.8779 47.8506 74.5625 47.8506H75.6251V47.675C75.6251 46.7645 76.3523 46 77.2814 46H82.7188C83.6479 46 84.3751 46.7645 84.3751 47.675V47.8506H85.4374C86.122 47.8506 86.7754 48.1283 87.2548 48.6175C87.4399 48.8065 87.5933 49.021 87.7118 49.2527C87.3989 49.3905 87.1048 49.5829 86.8443 49.8297L86.4685 50.1857C86.4215 49.9897 86.3231 49.8101 86.1832 49.6673C85.9827 49.4627 85.7141 49.3506 85.4374 49.3506H84.3751ZM89.5171 51.213C89.8283 51.5071 89.8283 51.9851 89.5171 52.2791L80.5951 60.7328C80.5831 60.7464 80.5704 60.7592 80.5569 60.7712C80.4303 60.8919 80.2712 60.9628 80.1065 60.9846C80.0683 60.99 80.0301 60.9923 79.9919 60.9923C79.7882 60.9923 79.5844 60.919 79.4293 60.7712C79.4192 60.7623 79.41 60.7528 79.4007 60.7433C79.3975 60.7401 79.3943 60.7368 79.3911 60.7336L76.2335 57.7411C75.9223 57.4469 75.9223 56.9697 76.2335 56.6749C76.5438 56.3801 77.0483 56.3801 77.3587 56.6749L79.9935 59.1706L88.392 51.213C88.7031 50.9182 89.2068 50.9182 89.5171 51.213Z" fill="white"/>
</mask>
<g mask="url(#mask2_5340_2314)">
<rect x="71" y="46" width="20" height="20" fill="#49C96D"/>
</g>
<path d="M44.0701 142.242C45.1341 142.242 46.0534 142.443 46.8281 142.844C47.6121 143.236 48.2094 143.801 48.6201 144.538C49.0401 145.275 49.2501 146.143 49.2501 147.142C49.2501 148.141 49.0401 149.009 48.6201 149.746C48.2094 150.474 47.6121 151.034 46.8281 151.426C46.0534 151.809 45.1341 152 44.0701 152H41.0321V142.242H44.0701ZM44.0701 150.95C45.3301 150.95 46.2914 150.619 46.9541 149.956C47.6168 149.284 47.9481 148.346 47.9481 147.142C47.9481 145.929 47.6121 144.981 46.9401 144.3C46.2774 143.619 45.3208 143.278 44.0701 143.278H42.3061V150.95H44.0701ZM54.2765 152.126C53.5579 152.126 52.9045 151.963 52.3165 151.636C51.7379 151.309 51.2805 150.847 50.9445 150.25C50.6179 149.643 50.4545 148.943 50.4545 148.15C50.4545 147.366 50.6225 146.675 50.9585 146.078C51.3039 145.471 51.7705 145.009 52.3585 144.692C52.9465 144.365 53.6045 144.202 54.3325 144.202C55.0605 144.202 55.7185 144.365 56.3065 144.692C56.8945 145.009 57.3565 145.467 57.6925 146.064C58.0379 146.661 58.2105 147.357 58.2105 148.15C58.2105 148.943 58.0332 149.643 57.6785 150.25C57.3332 150.847 56.8619 151.309 56.2645 151.636C55.6672 151.963 55.0045 152.126 54.2765 152.126ZM54.2765 151.006C54.7339 151.006 55.1632 150.899 55.5645 150.684C55.9659 150.469 56.2879 150.147 56.5305 149.718C56.7825 149.289 56.9085 148.766 56.9085 148.15C56.9085 147.534 56.7872 147.011 56.5445 146.582C56.3019 146.153 55.9845 145.835 55.5925 145.63C55.2005 145.415 54.7759 145.308 54.3185 145.308C53.8519 145.308 53.4225 145.415 53.0305 145.63C52.6479 145.835 52.3399 146.153 52.1065 146.582C51.8732 147.011 51.7565 147.534 51.7565 148.15C51.7565 148.775 51.8685 149.303 52.0925 149.732C52.3259 150.161 52.6339 150.483 53.0165 150.698C53.3992 150.903 53.8192 151.006 54.2765 151.006ZM63.6236 144.188C64.557 144.188 65.313 144.473 65.8916 145.042C66.4703 145.602 66.7596 146.414 66.7596 147.478V152H65.4996V147.66C65.4996 146.895 65.3083 146.311 64.9256 145.91C64.543 145.499 64.0203 145.294 63.3576 145.294C62.6856 145.294 62.149 145.504 61.7476 145.924C61.3556 146.344 61.1596 146.955 61.1596 147.758V152H59.8856V144.328H61.1596V145.42C61.4116 145.028 61.7523 144.725 62.1816 144.51C62.6203 144.295 63.101 144.188 63.6236 144.188ZM75.8407 147.87C75.8407 148.113 75.8267 148.369 75.7987 148.64H69.6667C69.7134 149.396 69.97 149.989 70.4367 150.418C70.9127 150.838 71.4867 151.048 72.1587 151.048C72.7094 151.048 73.1667 150.922 73.5307 150.67C73.904 150.409 74.1654 150.063 74.3147 149.634H75.6867C75.4814 150.371 75.0707 150.973 74.4547 151.44C73.8387 151.897 73.0734 152.126 72.1587 152.126C71.4307 152.126 70.7774 151.963 70.1987 151.636C69.6294 151.309 69.1814 150.847 68.8547 150.25C68.528 149.643 68.3647 148.943 68.3647 148.15C68.3647 147.357 68.5234 146.661 68.8407 146.064C69.158 145.467 69.6014 145.009 70.1707 144.692C70.7494 144.365 71.412 144.202 72.1587 144.202C72.8867 144.202 73.5307 144.361 74.0907 144.678C74.6507 144.995 75.08 145.434 75.3787 145.994C75.6867 146.545 75.8407 147.17 75.8407 147.87ZM74.5247 147.604C74.5247 147.119 74.4174 146.703 74.2027 146.358C73.988 146.003 73.694 145.737 73.3207 145.56C72.9567 145.373 72.5507 145.28 72.1027 145.28C71.4587 145.28 70.908 145.485 70.4507 145.896C70.0027 146.307 69.746 146.876 69.6807 147.604H74.5247ZM87.2608 142.242V143.278H84.6008V152H83.3268V143.278H80.6528V142.242H87.2608ZM88.353 148.136C88.353 147.352 88.5116 146.666 88.829 146.078C89.1463 145.481 89.5803 145.019 90.131 144.692C90.691 144.365 91.3116 144.202 91.993 144.202C92.665 144.202 93.2483 144.347 93.743 144.636C94.2376 144.925 94.6063 145.289 94.849 145.728V144.328H96.137V152H94.849V150.572C94.597 151.02 94.219 151.393 93.715 151.692C93.2203 151.981 92.6416 152.126 91.979 152.126C91.2976 152.126 90.6816 151.958 90.131 151.622C89.5803 151.286 89.1463 150.815 88.829 150.208C88.5116 149.601 88.353 148.911 88.353 148.136ZM94.849 148.15C94.849 147.571 94.7323 147.067 94.499 146.638C94.2656 146.209 93.9483 145.882 93.547 145.658C93.155 145.425 92.721 145.308 92.245 145.308C91.769 145.308 91.335 145.42 90.943 145.644C90.551 145.868 90.2383 146.195 90.005 146.624C89.7716 147.053 89.655 147.557 89.655 148.136C89.655 148.724 89.7716 149.237 90.005 149.676C90.2383 150.105 90.551 150.437 90.943 150.67C91.335 150.894 91.769 151.006 92.245 151.006C92.721 151.006 93.155 150.894 93.547 150.67C93.9483 150.437 94.2656 150.105 94.499 149.676C94.7323 149.237 94.849 148.729 94.849 148.15ZM101.006 152.126C100.418 152.126 99.8906 152.028 99.4239 151.832C98.9572 151.627 98.5886 151.347 98.3179 150.992C98.0472 150.628 97.8979 150.213 97.8699 149.746H99.1859C99.2232 150.129 99.4006 150.441 99.7179 150.684C100.045 150.927 100.469 151.048 100.992 151.048C101.477 151.048 101.86 150.941 102.14 150.726C102.42 150.511 102.56 150.241 102.56 149.914C102.56 149.578 102.411 149.331 102.112 149.172C101.813 149.004 101.351 148.841 100.726 148.682C100.157 148.533 99.6899 148.383 99.3259 148.234C98.9712 148.075 98.6632 147.847 98.4019 147.548C98.1499 147.24 98.0239 146.839 98.0239 146.344C98.0239 145.952 98.1406 145.593 98.3739 145.266C98.6072 144.939 98.9386 144.683 99.3679 144.496C99.7972 144.3 100.287 144.202 100.838 144.202C101.687 144.202 102.373 144.417 102.896 144.846C103.419 145.275 103.699 145.863 103.736 146.61H102.462C102.434 146.209 102.271 145.887 101.972 145.644C101.683 145.401 101.291 145.28 100.796 145.28C100.339 145.28 99.9746 145.378 99.7039 145.574C99.4332 145.77 99.2979 146.027 99.2979 146.344C99.2979 146.596 99.3772 146.806 99.5359 146.974C99.7039 147.133 99.9092 147.263 100.152 147.366C100.404 147.459 100.749 147.567 101.188 147.688C101.739 147.837 102.187 147.987 102.532 148.136C102.877 148.276 103.171 148.491 103.414 148.78C103.666 149.069 103.797 149.447 103.806 149.914C103.806 150.334 103.689 150.712 103.456 151.048C103.223 151.384 102.891 151.65 102.462 151.846C102.042 152.033 101.557 152.126 101.006 152.126ZM109.888 152L106.878 148.612V152H105.604V141.64H106.878V147.73L109.832 144.328H111.61L107.998 148.15L111.624 152H109.888ZM115.525 152.126C114.937 152.126 114.41 152.028 113.943 151.832C113.477 151.627 113.108 151.347 112.837 150.992C112.567 150.628 112.417 150.213 112.389 149.746H113.705C113.743 150.129 113.92 150.441 114.237 150.684C114.564 150.927 114.989 151.048 115.511 151.048C115.997 151.048 116.379 150.941 116.659 150.726C116.939 150.511 117.079 150.241 117.079 149.914C117.079 149.578 116.93 149.331 116.631 149.172C116.333 149.004 115.871 148.841 115.245 148.682C114.676 148.533 114.209 148.383 113.845 148.234C113.491 148.075 113.183 147.847 112.921 147.548C112.669 147.24 112.543 146.839 112.543 146.344C112.543 145.952 112.66 145.593 112.893 145.266C113.127 144.939 113.458 144.683 113.887 144.496C114.317 144.3 114.807 144.202 115.357 144.202C116.207 144.202 116.893 144.417 117.415 144.846C117.938 145.275 118.218 145.863 118.255 146.61H116.981C116.953 146.209 116.79 145.887 116.491 145.644C116.202 145.401 115.81 145.28 115.315 145.28C114.858 145.28 114.494 145.378 114.223 145.574C113.953 145.77 113.817 146.027 113.817 146.344C113.817 146.596 113.897 146.806 114.055 146.974C114.223 147.133 114.429 147.263 114.671 147.366C114.923 147.459 115.269 147.567 115.707 147.688C116.258 147.837 116.706 147.987 117.051 148.136C117.397 148.276 117.691 148.491 117.933 148.78C118.185 149.069 118.316 149.447 118.325 149.914C118.325 150.334 118.209 150.712 117.975 151.048C117.742 151.384 117.411 151.65 116.981 151.846C116.561 152.033 116.076 152.126 115.525 152.126Z" fill="#8A9099"/>
<path d="M59.3891 119.04C61.4371 117.269 63.0478 115.819 64.2211 114.688C65.4158 113.536 66.4078 112.341 67.1971 111.104C67.9865 109.867 68.3811 108.629 68.3811 107.392C68.3811 106.112 68.0718 105.109 67.4531 104.384C66.8558 103.659 65.9065 103.296 64.6051 103.296C63.3465 103.296 62.3651 103.701 61.6611 104.512C60.9785 105.301 60.6158 106.368 60.5731 107.712H57.0531C57.1171 105.28 57.8425 103.424 59.2291 102.144C60.6371 100.843 62.4185 100.192 64.5731 100.192C66.8985 100.192 68.7118 100.832 70.0131 102.112C71.3358 103.392 71.9971 105.099 71.9971 107.232C71.9971 108.768 71.6025 110.251 70.8131 111.68C70.0451 113.088 69.1171 114.357 68.0291 115.488C66.9625 116.597 65.5971 117.888 63.9331 119.36L62.4931 120.64H72.6371V123.68H57.0851V121.024L59.3891 119.04ZM75.3619 104V100.672H82.0179V124H78.3379V104H75.3619ZM102.069 103.808H91.3494V110.176C91.7974 109.579 92.4587 109.077 93.3334 108.672C94.2294 108.267 95.1787 108.064 96.1814 108.064C97.9734 108.064 99.424 108.448 100.533 109.216C101.664 109.984 102.464 110.955 102.933 112.128C103.424 113.301 103.669 114.539 103.669 115.84C103.669 117.419 103.36 118.827 102.741 120.064C102.144 121.28 101.237 122.24 100.021 122.944C98.8267 123.648 97.3547 124 95.6054 124C93.28 124 91.4134 123.424 90.0054 122.272C88.5974 121.12 87.7547 119.595 87.4774 117.696H91.0294C91.264 118.699 91.7867 119.499 92.5974 120.096C93.408 120.672 94.4214 120.96 95.6374 120.96C97.152 120.96 98.2827 120.501 99.0294 119.584C99.7974 118.667 100.181 117.451 100.181 115.936C100.181 114.4 99.7974 113.227 99.0294 112.416C98.2614 111.584 97.1307 111.168 95.6374 111.168C94.592 111.168 93.7067 111.435 92.9814 111.968C92.2774 112.48 91.7654 113.184 91.4454 114.08H87.9894V100.608H102.069V103.808Z" fill="#3F434A"/>
</g>
<defs>
<filter id="filter0_d_5340_2314" x="-28" y="-16" width="208" height="234" filterUnits="userSpaceOnUse" color-interpolation-filters="sRGB">
<feFlood flood-opacity="0" result="BackgroundImageFix"/>
<feColorMatrix in="SourceAlpha" type="matrix" values="0 0 0 0 0 0 0 0 0 0 0 0 0 0 0 0 0 0 127 0" result="hardAlpha"/>
<feOffset dx="-4" dy="8"/>
<feGaussianBlur stdDeviation="12"/>
<feColorMatrix type="matrix" values="0 0 0 0 0.172549 0 0 0 0 0.247059 0 0 0 0 0.345098 0 0 0 0.02 0"/>
<feBlend mode="normal" in2="BackgroundImageFix" result="effect1_dropShadow_5340_2314"/>
<feBlend mode="normal" in="SourceGraphic" in2="effect1_dropShadow_5340_2314" result="shape"/>
</filter>
<clipPath id="clip0_5340_2314">
<rect width="160" height="186" fill="white"/>
</clipPath>
</defs>
</svg>
