<svg width="376" height="356" viewBox="0 0 376 356" fill="none" xmlns="http://www.w3.org/2000/svg">
<rect width="376" height="356" fill="white"/>
<path d="M36.598 86V71.4545H38.7926V84.1108H45.3835V86H36.598ZM47.8666 86V75.0909H49.9902V86H47.8666ZM48.9391 73.4077C48.5697 73.4077 48.2525 73.2846 47.9874 73.0384C47.7269 72.7874 47.5967 72.4891 47.5967 72.1435C47.5967 71.7931 47.7269 71.4948 47.9874 71.2486C48.2525 70.9976 48.5697 70.8722 48.9391 70.8722C49.3084 70.8722 49.6232 70.9976 49.8837 71.2486C50.1488 71.4948 50.2814 71.7931 50.2814 72.1435C50.2814 72.4891 50.1488 72.7874 49.8837 73.0384C49.6232 73.2846 49.3084 73.4077 48.9391 73.4077ZM62.3295 75.0909L58.3735 86H56.1008L52.1377 75.0909H54.4175L57.1803 83.4858H57.294L60.0496 75.0909H62.3295ZM68.8058 86.2202C67.731 86.2202 66.8054 85.9905 66.0288 85.5312C65.2571 85.0672 64.6605 84.4162 64.2391 83.5781C63.8224 82.7353 63.6141 81.7481 63.6141 80.6165C63.6141 79.4991 63.8224 78.5142 64.2391 77.6619C64.6605 76.8097 65.2476 76.1444 66.0004 75.6662C66.758 75.188 67.6434 74.9489 68.6567 74.9489C69.2722 74.9489 69.8688 75.0507 70.4465 75.2543C71.0241 75.4579 71.5426 75.7775 72.0018 76.2131C72.4611 76.6487 72.8233 77.2145 73.0885 77.9105C73.3536 78.6018 73.4862 79.4422 73.4862 80.4318V81.1847H64.8143V79.5938H71.4053C71.4053 79.035 71.2916 78.5402 71.0643 78.1094C70.8371 77.6738 70.5175 77.3305 70.1055 77.0795C69.6983 76.8286 69.2201 76.7031 68.6709 76.7031C68.0743 76.7031 67.5535 76.8499 67.1084 77.1435C66.668 77.4323 66.3271 77.8111 66.0857 78.2798C65.8489 78.7438 65.7305 79.2481 65.7305 79.7926V81.0355C65.7305 81.7647 65.8584 82.3849 66.1141 82.8963C66.3745 83.4077 66.7367 83.7983 67.2007 84.0682C67.6647 84.3333 68.2069 84.4659 68.8271 84.4659C69.2296 84.4659 69.5965 84.4091 69.928 84.2955C70.2594 84.1771 70.5459 84.0019 70.7874 83.7699C71.0288 83.5379 71.2135 83.2514 71.3413 82.9105L73.3513 83.2727C73.1903 83.8646 72.9015 84.383 72.4848 84.8281C72.0729 85.2685 71.5544 85.6117 70.9294 85.858C70.3091 86.0994 69.6013 86.2202 68.8058 86.2202ZM82.8771 71.4545L86.9254 83.3011H87.0888L91.1371 71.4545H93.5092L88.2749 86H85.7393L80.505 71.4545H82.8771ZM95.5893 86V75.0909H97.7129V86H95.5893ZM96.6617 73.4077C96.2924 73.4077 95.9752 73.2846 95.71 73.0384C95.4496 72.7874 95.3194 72.4891 95.3194 72.1435C95.3194 71.7931 95.4496 71.4948 95.71 71.2486C95.9752 70.9976 96.2924 70.8722 96.6617 70.8722C97.031 70.8722 97.3459 70.9976 97.6063 71.2486C97.8715 71.4948 98.004 71.7931 98.004 72.1435C98.004 72.4891 97.8715 72.7874 97.6063 73.0384C97.3459 73.2846 97.031 73.4077 96.6617 73.4077ZM108.894 77.7543L106.97 78.0952C106.889 77.849 106.761 77.6146 106.586 77.392C106.416 77.1695 106.184 76.9872 105.89 76.8452C105.597 76.7031 105.23 76.6321 104.789 76.6321C104.188 76.6321 103.686 76.767 103.284 77.0369C102.881 77.3021 102.68 77.6454 102.68 78.0668C102.68 78.4313 102.815 78.7249 103.085 78.9474C103.355 79.17 103.79 79.3523 104.392 79.4943L106.125 79.892C107.128 80.1241 107.876 80.4815 108.369 80.9645C108.861 81.4474 109.108 82.0748 109.108 82.8466C109.108 83.5 108.918 84.0824 108.539 84.5938C108.165 85.1004 107.642 85.4981 106.97 85.7869C106.302 86.0758 105.528 86.2202 104.647 86.2202C103.426 86.2202 102.429 85.9598 101.657 85.4389C100.885 84.9134 100.412 84.1676 100.237 83.2017L102.289 82.8892C102.417 83.4242 102.68 83.8291 103.078 84.1037C103.475 84.3736 103.994 84.5085 104.633 84.5085C105.329 84.5085 105.885 84.3641 106.302 84.0753C106.719 83.7817 106.927 83.4242 106.927 83.0028C106.927 82.6619 106.799 82.3755 106.544 82.1435C106.293 81.9115 105.907 81.7363 105.386 81.6179L103.539 81.2131C102.521 80.9811 101.769 80.6117 101.281 80.1051C100.798 79.5985 100.556 78.9569 100.556 78.1804C100.556 77.5365 100.736 76.973 101.096 76.4901C101.456 76.0071 101.953 75.6307 102.588 75.3608C103.222 75.0862 103.949 74.9489 104.768 74.9489C105.947 74.9489 106.875 75.2045 107.552 75.7159C108.229 76.2225 108.677 76.902 108.894 77.7543ZM111.592 86V75.0909H113.716V86H111.592ZM112.665 73.4077C112.296 73.4077 111.978 73.2846 111.713 73.0384C111.453 72.7874 111.323 72.4891 111.323 72.1435C111.323 71.7931 111.453 71.4948 111.713 71.2486C111.978 70.9976 112.296 70.8722 112.665 70.8722C113.034 70.8722 113.349 70.9976 113.609 71.2486C113.875 71.4948 114.007 71.7931 114.007 72.1435C114.007 72.4891 113.875 72.7874 113.609 73.0384C113.349 73.2846 113.034 73.4077 112.665 73.4077ZM121.815 75.0909V76.7955H115.856V75.0909H121.815ZM117.454 72.4773H119.578V82.7969C119.578 83.2088 119.64 83.5189 119.763 83.7273C119.886 83.9309 120.044 84.0705 120.238 84.1463C120.437 84.2173 120.653 84.2528 120.885 84.2528C121.055 84.2528 121.204 84.241 121.332 84.2173C121.46 84.1937 121.56 84.1747 121.631 84.1605L122.014 85.9148C121.891 85.9621 121.716 86.0095 121.488 86.0568C121.261 86.1089 120.977 86.1373 120.636 86.142C120.078 86.1515 119.557 86.0521 119.074 85.8438C118.591 85.6354 118.2 85.3134 117.902 84.8778C117.604 84.4422 117.454 83.8954 117.454 83.2372V72.4773ZM128.792 86.2202C127.77 86.2202 126.877 85.9858 126.115 85.517C125.352 85.0483 124.761 84.3925 124.339 83.5497C123.918 82.7069 123.707 81.7221 123.707 80.5952C123.707 79.4635 123.918 78.474 124.339 77.6264C124.761 76.7789 125.352 76.1207 126.115 75.652C126.877 75.1832 127.77 74.9489 128.792 74.9489C129.815 74.9489 130.708 75.1832 131.47 75.652C132.232 76.1207 132.824 76.7789 133.245 77.6264C133.667 78.474 133.877 79.4635 133.877 80.5952C133.877 81.7221 133.667 82.7069 133.245 83.5497C132.824 84.3925 132.232 85.0483 131.47 85.517C130.708 85.9858 129.815 86.2202 128.792 86.2202ZM128.799 84.4375C129.462 84.4375 130.011 84.2623 130.447 83.9119C130.883 83.5616 131.205 83.0952 131.413 82.5128C131.626 81.9304 131.733 81.2888 131.733 80.5881C131.733 79.892 131.626 79.2528 131.413 78.6705C131.205 78.0833 130.883 77.6122 130.447 77.2571C130.011 76.902 129.462 76.7244 128.799 76.7244C128.132 76.7244 127.578 76.902 127.137 77.2571C126.702 77.6122 126.377 78.0833 126.164 78.6705C125.956 79.2528 125.852 79.892 125.852 80.5881C125.852 81.2888 125.956 81.9304 126.164 82.5128C126.377 83.0952 126.702 83.5616 127.137 83.9119C127.578 84.2623 128.132 84.4375 128.799 84.4375ZM136.398 86V75.0909H138.45V76.8239H138.564C138.763 76.2367 139.113 75.7751 139.615 75.4389C140.122 75.098 140.695 74.9276 141.334 74.9276C141.467 74.9276 141.623 74.9323 141.803 74.9418C141.987 74.9512 142.132 74.9631 142.236 74.9773V77.0085C142.151 76.9848 141.999 76.9588 141.781 76.9304C141.564 76.8973 141.346 76.8807 141.128 76.8807C140.626 76.8807 140.179 76.9872 139.786 77.2003C139.397 77.4086 139.09 77.6998 138.862 78.0739C138.635 78.4432 138.521 78.8646 138.521 79.3381V86H136.398ZM152.398 77.7543L150.474 78.0952C150.393 77.849 150.265 77.6146 150.09 77.392C149.92 77.1695 149.688 76.9872 149.394 76.8452C149.101 76.7031 148.734 76.6321 148.293 76.6321C147.692 76.6321 147.19 76.767 146.788 77.0369C146.385 77.3021 146.184 77.6454 146.184 78.0668C146.184 78.4313 146.319 78.7249 146.589 78.9474C146.859 79.17 147.294 79.3523 147.896 79.4943L149.628 79.892C150.632 80.1241 151.38 80.4815 151.873 80.9645C152.365 81.4474 152.611 82.0748 152.611 82.8466C152.611 83.5 152.422 84.0824 152.043 84.5938C151.669 85.1004 151.146 85.4981 150.474 85.7869C149.806 86.0758 149.032 86.2202 148.151 86.2202C146.93 86.2202 145.933 85.9598 145.161 85.4389C144.389 84.9134 143.916 84.1676 143.741 83.2017L145.793 82.8892C145.921 83.4242 146.184 83.8291 146.582 84.1037C146.979 84.3736 147.498 84.5085 148.137 84.5085C148.833 84.5085 149.389 84.3641 149.806 84.0753C150.223 83.7817 150.431 83.4242 150.431 83.0028C150.431 82.6619 150.303 82.3755 150.048 82.1435C149.797 81.9115 149.411 81.7363 148.89 81.6179L147.043 81.2131C146.025 80.9811 145.272 80.6117 144.785 80.1051C144.302 79.5985 144.06 78.9569 144.06 78.1804C144.06 77.5365 144.24 76.973 144.6 76.4901C144.96 76.0071 145.457 75.6307 146.092 75.3608C146.726 75.0862 147.453 74.9489 148.272 74.9489C149.451 74.9489 150.379 75.2045 151.056 75.7159C151.733 76.2225 152.181 76.902 152.398 77.7543Z" fill="#4C4E64" fill-opacity="0.87"/>
<path d="M35.5795 98.2102V97.2727H42.125V98.2102H39.3807V106H38.3239V98.2102H35.5795ZM45.7295 106.136C45.1386 106.136 44.6202 105.996 44.1741 105.714C43.731 105.433 43.3844 105.04 43.1344 104.534C42.8872 104.028 42.7636 103.437 42.7636 102.761C42.7636 102.08 42.8872 101.484 43.1344 100.976C43.3844 100.467 43.731 100.072 44.1741 99.7912C44.6202 99.5099 45.1386 99.3693 45.7295 99.3693C46.3205 99.3693 46.8375 99.5099 47.2807 99.7912C47.7267 100.072 48.0733 100.467 48.3205 100.976C48.5705 101.484 48.6955 102.08 48.6955 102.761C48.6955 103.437 48.5705 104.028 48.3205 104.534C48.0733 105.04 47.7267 105.433 47.2807 105.714C46.8375 105.996 46.3205 106.136 45.7295 106.136ZM45.7295 105.233C46.1784 105.233 46.5477 105.118 46.8375 104.888C47.1273 104.658 47.3418 104.355 47.481 103.98C47.6202 103.605 47.6898 103.199 47.6898 102.761C47.6898 102.324 47.6202 101.916 47.481 101.538C47.3418 101.161 47.1273 100.855 46.8375 100.622C46.5477 100.389 46.1784 100.273 45.7295 100.273C45.2807 100.273 44.9114 100.389 44.6216 100.622C44.3318 100.855 44.1173 101.161 43.9781 101.538C43.8389 101.916 43.7693 102.324 43.7693 102.761C43.7693 103.199 43.8389 103.605 43.9781 103.98C44.1173 104.355 44.3318 104.658 44.6216 104.888C44.9114 105.118 45.2807 105.233 45.7295 105.233ZM53.4772 99.4545V100.307H50.0852V99.4545H53.4772ZM51.0738 97.8864H52.0795V104.125C52.0795 104.409 52.1207 104.622 52.2031 104.764C52.2883 104.903 52.3962 104.997 52.5269 105.045C52.6604 105.091 52.8011 105.114 52.9488 105.114C53.0596 105.114 53.1505 105.108 53.2215 105.097C53.2925 105.082 53.3494 105.071 53.392 105.062L53.5965 105.966C53.5283 105.991 53.4332 106.017 53.311 106.043C53.1888 106.071 53.034 106.085 52.8465 106.085C52.5624 106.085 52.284 106.024 52.0113 105.902C51.7414 105.78 51.517 105.594 51.338 105.344C51.1619 105.094 51.0738 104.778 51.0738 104.398V97.8864ZM57.3161 106.153C56.9014 106.153 56.5249 106.075 56.1869 105.919C55.8488 105.76 55.5803 105.531 55.3815 105.233C55.1826 104.932 55.0832 104.568 55.0832 104.142C55.0832 103.767 55.157 103.463 55.3048 103.23C55.4525 102.994 55.6499 102.81 55.8971 102.676C56.1442 102.543 56.417 102.443 56.7153 102.378C57.0164 102.31 57.319 102.256 57.6229 102.216C58.0207 102.165 58.3431 102.126 58.5903 102.101C58.8403 102.072 59.0221 102.026 59.1357 101.96C59.2522 101.895 59.3104 101.781 59.3104 101.619V101.585C59.3104 101.165 59.1954 100.838 58.9653 100.605C58.738 100.372 58.3928 100.256 57.9298 100.256C57.4496 100.256 57.0732 100.361 56.8005 100.571C56.5278 100.781 56.336 101.006 56.2252 101.244L55.2707 100.903C55.4411 100.506 55.6684 100.196 55.9525 99.9744C56.2394 99.75 56.5519 99.5937 56.89 99.5057C57.2309 99.4148 57.5661 99.3693 57.8957 99.3693C58.1059 99.3693 58.3474 99.3949 58.6201 99.446C58.8957 99.4943 59.1613 99.5952 59.417 99.7486C59.6755 99.902 59.89 100.134 60.0604 100.443C60.2309 100.753 60.3161 101.168 60.3161 101.688V106H59.3104V105.114H59.2593C59.1911 105.256 59.0775 105.408 58.9184 105.57C58.7593 105.732 58.5477 105.869 58.2835 105.983C58.0192 106.097 57.6968 106.153 57.3161 106.153ZM57.4695 105.25C57.8673 105.25 58.2025 105.172 58.4752 105.016C58.7508 104.859 58.9582 104.658 59.0974 104.411C59.2394 104.163 59.3104 103.903 59.3104 103.631V102.71C59.2678 102.761 59.1741 102.808 59.0292 102.851C58.8871 102.891 58.7224 102.926 58.5349 102.957C58.3502 102.986 58.1698 103.011 57.9937 103.034C57.8204 103.054 57.6798 103.071 57.5718 103.085C57.3104 103.119 57.0661 103.175 56.8389 103.251C56.6144 103.325 56.4326 103.437 56.2934 103.588C56.157 103.736 56.0889 103.937 56.0889 104.193C56.0889 104.543 56.2181 104.807 56.4766 104.986C56.738 105.162 57.069 105.25 57.4695 105.25ZM63.5574 97.2727V106H62.5517V97.2727H63.5574ZM72.3528 106.119C71.7675 106.119 71.2505 106.016 70.8016 105.808C70.3556 105.598 70.0076 105.31 69.7576 104.943C69.5076 104.574 69.384 104.153 69.3869 103.682C69.384 103.312 69.4565 102.972 69.6042 102.659C69.7519 102.344 69.9536 102.081 70.2093 101.871C70.4678 101.658 70.7562 101.523 71.0744 101.466V101.415C70.6567 101.307 70.3244 101.072 70.0772 100.712C69.83 100.348 69.7079 99.9347 69.7107 99.4716C69.7079 99.0284 69.8201 98.6321 70.0474 98.2827C70.2746 97.9332 70.5871 97.6577 70.9849 97.456C71.3854 97.2543 71.8414 97.1534 72.3528 97.1534C72.8585 97.1534 73.3102 97.2543 73.7079 97.456C74.1056 97.6577 74.4181 97.9332 74.6454 98.2827C74.8755 98.6321 74.992 99.0284 74.9948 99.4716C74.992 99.9347 74.8656 100.348 74.6156 100.712C74.3684 101.072 74.0403 101.307 73.6312 101.415V101.466C73.9465 101.523 74.2306 101.658 74.4835 101.871C74.7363 102.081 74.938 102.344 75.0886 102.659C75.2391 102.972 75.3158 103.312 75.3187 103.682C75.3158 104.153 75.188 104.574 74.9352 104.943C74.6852 105.31 74.3371 105.598 73.8911 105.808C73.4479 106.016 72.9352 106.119 72.3528 106.119ZM72.3528 105.182C72.7477 105.182 73.0886 105.118 73.3755 104.99C73.6624 104.862 73.884 104.682 74.0403 104.449C74.1965 104.216 74.2761 103.943 74.2789 103.631C74.2761 103.301 74.1908 103.01 74.0232 102.757C73.8556 102.504 73.6269 102.305 73.3371 102.161C73.0502 102.016 72.7221 101.943 72.3528 101.943C71.9806 101.943 71.6482 102.016 71.3556 102.161C71.0658 102.305 70.8371 102.504 70.6695 102.757C70.5048 103.01 70.4238 103.301 70.4266 103.631C70.4238 103.943 70.4991 104.216 70.6525 104.449C70.8087 104.682 71.0317 104.862 71.3215 104.99C71.6113 105.118 71.955 105.182 72.3528 105.182ZM72.3528 101.04C72.6653 101.04 72.9423 100.977 73.1837 100.852C73.4281 100.727 73.6198 100.553 73.759 100.328C73.8982 100.104 73.9692 99.8409 73.9721 99.5398C73.9692 99.2443 73.8996 98.9872 73.7633 98.7685C73.6269 98.5469 73.438 98.3764 73.1965 98.2571C72.955 98.1349 72.6738 98.0739 72.3528 98.0739C72.0261 98.0739 71.7406 98.1349 71.4962 98.2571C71.2519 98.3764 71.063 98.5469 70.9295 98.7685C70.796 98.9872 70.7306 99.2443 70.7335 99.5398C70.7306 99.8409 70.7974 100.104 70.9337 100.328C71.0729 100.553 71.2647 100.727 71.509 100.852C71.7533 100.977 72.0346 101.04 72.3528 101.04ZM80.1303 97.1534C80.4882 97.1562 80.8462 97.2244 81.2041 97.358C81.5621 97.4915 81.8888 97.7131 82.1842 98.0227C82.4797 98.3295 82.7169 98.7486 82.8959 99.2798C83.0749 99.8111 83.1643 100.477 83.1643 101.278C83.1643 102.054 83.0905 102.743 82.9428 103.345C82.7979 103.945 82.5876 104.45 82.3121 104.862C82.0393 105.274 81.707 105.587 81.3149 105.8C80.9257 106.013 80.4854 106.119 79.9939 106.119C79.5053 106.119 79.0692 106.023 78.6857 105.83C78.305 105.634 77.9925 105.362 77.7482 105.016C77.5067 104.666 77.3518 104.261 77.2837 103.801H78.3234C78.4172 104.202 78.6033 104.533 78.8817 104.794C79.1629 105.053 79.5337 105.182 79.9939 105.182C80.6672 105.182 81.1984 104.888 81.5876 104.3C81.9797 103.712 82.1757 102.881 82.1757 101.807H82.1075C81.9484 102.045 81.7595 102.251 81.5408 102.425C81.322 102.598 81.0791 102.732 80.8121 102.825C80.545 102.919 80.2609 102.966 79.9598 102.966C79.4598 102.966 79.001 102.842 78.5834 102.595C78.1686 102.345 77.8362 102.003 77.5862 101.568C77.3391 101.131 77.2155 100.631 77.2155 100.068C77.2155 99.5341 77.3348 99.0455 77.5734 98.6023C77.8149 98.1562 78.153 97.8011 78.5876 97.5369C79.0251 97.2727 79.5393 97.1449 80.1303 97.1534ZM80.1303 98.0909C79.7723 98.0909 79.4499 98.1804 79.1629 98.3594C78.8788 98.5355 78.653 98.7741 78.4854 99.0753C78.3206 99.3736 78.2382 99.7045 78.2382 100.068C78.2382 100.432 78.3178 100.763 78.4768 101.061C78.6388 101.357 78.8589 101.592 79.1374 101.768C79.4186 101.942 79.7382 102.028 80.0962 102.028C80.3661 102.028 80.6175 101.976 80.8504 101.871C81.0834 101.763 81.2865 101.616 81.4598 101.432C81.6359 101.244 81.7737 101.033 81.8732 100.797C81.9726 100.558 82.0223 100.31 82.0223 100.051C82.0223 99.7102 81.9399 99.3906 81.7751 99.0923C81.6132 98.794 81.3888 98.5526 81.1018 98.3679C80.8178 98.1832 80.4939 98.0909 80.1303 98.0909ZM88.0867 106.119C87.4447 106.119 86.8978 105.945 86.4461 105.595C85.9944 105.243 85.6492 104.733 85.4106 104.065C85.1719 103.395 85.0526 102.585 85.0526 101.636C85.0526 100.693 85.1719 99.8878 85.4106 99.2202C85.6521 98.5497 85.9987 98.0384 86.4504 97.6861C86.9049 97.331 87.4504 97.1534 88.0867 97.1534C88.7231 97.1534 89.2671 97.331 89.7188 97.6861C90.1734 98.0384 90.52 98.5497 90.7586 99.2202C91.0001 99.8878 91.1208 100.693 91.1208 101.636C91.1208 102.585 91.0015 103.395 90.7629 104.065C90.5242 104.733 90.179 105.243 89.7273 105.595C89.2756 105.945 88.7288 106.119 88.0867 106.119ZM88.0867 105.182C88.7231 105.182 89.2174 104.875 89.5697 104.261C89.9219 103.648 90.0981 102.773 90.0981 101.636C90.0981 100.881 90.0171 100.237 89.8552 99.706C89.6961 99.1747 89.466 98.7699 89.1648 98.4915C88.8665 98.2131 88.5072 98.0739 88.0867 98.0739C87.456 98.0739 86.9631 98.3849 86.608 99.0071C86.2529 99.6264 86.0754 100.503 86.0754 101.636C86.0754 102.392 86.1549 103.034 86.314 103.562C86.4731 104.091 86.7018 104.493 87.0001 104.768C87.3012 105.044 87.6634 105.182 88.0867 105.182ZM97.4265 97.2727L100.017 104.619H100.12L102.711 97.2727H103.819L100.614 106H99.5231L96.3185 97.2727H97.4265ZM105.442 106V99.4545H106.447V106H105.442ZM105.953 98.3636C105.757 98.3636 105.588 98.2969 105.446 98.1634C105.307 98.0298 105.237 97.8693 105.237 97.6818C105.237 97.4943 105.307 97.3338 105.446 97.2003C105.588 97.0668 105.757 97 105.953 97C106.149 97 106.317 97.0668 106.456 97.2003C106.598 97.3338 106.669 97.4943 106.669 97.6818C106.669 97.8693 106.598 98.0298 106.456 98.1634C106.317 98.2969 106.149 98.3636 105.953 98.3636ZM113.326 100.92L112.422 101.176C112.365 101.026 112.282 100.879 112.171 100.737C112.063 100.592 111.915 100.473 111.728 100.379C111.54 100.286 111.3 100.239 111.007 100.239C110.607 100.239 110.273 100.331 110.006 100.516C109.742 100.697 109.61 100.929 109.61 101.21C109.61 101.46 109.701 101.658 109.882 101.803C110.064 101.947 110.348 102.068 110.735 102.165L111.706 102.403C112.291 102.545 112.728 102.763 113.014 103.055C113.301 103.345 113.445 103.719 113.445 104.176C113.445 104.551 113.337 104.886 113.121 105.182C112.908 105.477 112.61 105.71 112.226 105.881C111.843 106.051 111.397 106.136 110.888 106.136C110.22 106.136 109.668 105.991 109.23 105.702C108.793 105.412 108.516 104.989 108.399 104.432L109.354 104.193C109.445 104.545 109.617 104.81 109.87 104.986C110.125 105.162 110.459 105.25 110.871 105.25C111.34 105.25 111.712 105.151 111.988 104.952C112.266 104.75 112.405 104.509 112.405 104.227C112.405 104 112.326 103.81 112.166 103.656C112.007 103.5 111.763 103.384 111.434 103.307L110.343 103.051C109.743 102.909 109.303 102.689 109.022 102.391C108.743 102.089 108.604 101.713 108.604 101.261C108.604 100.892 108.708 100.565 108.915 100.281C109.125 99.9972 109.411 99.7741 109.772 99.6122C110.135 99.4503 110.547 99.3693 111.007 99.3693C111.655 99.3693 112.164 99.5114 112.533 99.7955C112.905 100.08 113.169 100.455 113.326 100.92ZM115.359 106V99.4545H116.364V106H115.359ZM115.87 98.3636C115.674 98.3636 115.505 98.2969 115.363 98.1634C115.224 98.0298 115.154 97.8693 115.154 97.6818C115.154 97.4943 115.224 97.3338 115.363 97.2003C115.505 97.0668 115.674 97 115.87 97C116.066 97 116.234 97.0668 116.373 97.2003C116.515 97.3338 116.586 97.4943 116.586 97.6818C116.586 97.8693 116.515 98.0298 116.373 98.1634C116.234 98.2969 116.066 98.3636 115.87 98.3636ZM121.453 99.4545V100.307H118.061V99.4545H121.453ZM119.05 97.8864H120.055V104.125C120.055 104.409 120.096 104.622 120.179 104.764C120.264 104.903 120.372 104.997 120.503 105.045C120.636 105.091 120.777 105.114 120.925 105.114C121.035 105.114 121.126 105.108 121.197 105.097C121.268 105.082 121.325 105.071 121.368 105.062L121.572 105.966C121.504 105.991 121.409 106.017 121.287 106.043C121.165 106.071 121.01 106.085 120.822 106.085C120.538 106.085 120.26 106.024 119.987 105.902C119.717 105.78 119.493 105.594 119.314 105.344C119.138 105.094 119.05 104.778 119.05 104.398V97.8864ZM125.955 106.136C125.364 106.136 124.845 105.996 124.399 105.714C123.956 105.433 123.609 105.04 123.359 104.534C123.112 104.028 122.989 103.437 122.989 102.761C122.989 102.08 123.112 101.484 123.359 100.976C123.609 100.467 123.956 100.072 124.399 99.7912C124.845 99.5099 125.364 99.3693 125.955 99.3693C126.545 99.3693 127.063 99.5099 127.506 99.7912C127.952 100.072 128.298 100.467 128.545 100.976C128.795 101.484 128.92 102.08 128.92 102.761C128.92 103.437 128.795 104.028 128.545 104.534C128.298 105.04 127.952 105.433 127.506 105.714C127.063 105.996 126.545 106.136 125.955 106.136ZM125.955 105.233C126.403 105.233 126.773 105.118 127.062 104.888C127.352 104.658 127.567 104.355 127.706 103.98C127.845 103.605 127.915 103.199 127.915 102.761C127.915 102.324 127.845 101.916 127.706 101.538C127.567 101.161 127.352 100.855 127.062 100.622C126.773 100.389 126.403 100.273 125.955 100.273C125.506 100.273 125.136 100.389 124.847 100.622C124.557 100.855 124.342 101.161 124.203 101.538C124.064 101.916 123.994 102.324 123.994 102.761C123.994 103.199 124.064 103.605 124.203 103.98C124.342 104.355 124.557 104.658 124.847 104.888C125.136 105.118 125.506 105.233 125.955 105.233ZM130.856 106V99.4545H131.827V100.443H131.895C132.015 100.119 132.231 99.8565 132.543 99.6548C132.856 99.4531 133.208 99.3523 133.6 99.3523C133.674 99.3523 133.766 99.3537 133.877 99.3565C133.988 99.3594 134.072 99.3636 134.128 99.3693V100.392C134.094 100.384 134.016 100.371 133.894 100.354C133.775 100.334 133.648 100.324 133.515 100.324C133.197 100.324 132.912 100.391 132.662 100.524C132.415 100.655 132.219 100.837 132.074 101.07C131.932 101.3 131.861 101.562 131.861 101.858V106H130.856ZM140.357 100.92L139.453 101.176C139.397 101.026 139.313 100.879 139.202 100.737C139.094 100.592 138.946 100.473 138.759 100.379C138.571 100.286 138.331 100.239 138.039 100.239C137.638 100.239 137.304 100.331 137.037 100.516C136.773 100.697 136.641 100.929 136.641 101.21C136.641 101.46 136.732 101.658 136.914 101.803C137.095 101.947 137.38 102.068 137.766 102.165L138.738 102.403C139.323 102.545 139.759 102.763 140.046 103.055C140.333 103.345 140.476 103.719 140.476 104.176C140.476 104.551 140.368 104.886 140.152 105.182C139.939 105.477 139.641 105.71 139.257 105.881C138.874 106.051 138.428 106.136 137.919 106.136C137.252 106.136 136.699 105.991 136.262 105.702C135.824 105.412 135.547 104.989 135.431 104.432L136.385 104.193C136.476 104.545 136.648 104.81 136.901 104.986C137.157 105.162 137.49 105.25 137.902 105.25C138.371 105.25 138.743 105.151 139.019 104.952C139.297 104.75 139.436 104.509 139.436 104.227C139.436 104 139.357 103.81 139.198 103.656C139.039 103.5 138.794 103.384 138.465 103.307L137.374 103.051C136.774 102.909 136.334 102.689 136.053 102.391C135.774 102.089 135.635 101.713 135.635 101.261C135.635 100.892 135.739 100.565 135.946 100.281C136.157 99.9972 136.442 99.7741 136.803 99.6122C137.166 99.4503 137.578 99.3693 138.039 99.3693C138.686 99.3693 139.195 99.5114 139.564 99.7955C139.936 100.08 140.201 100.455 140.357 100.92ZM146.659 106H145.551L148.756 97.2727H149.847L153.051 106H151.943L149.335 98.6534H149.267L146.659 106ZM147.068 102.591H151.534V103.528H147.068V102.591ZM154.674 106V99.4545H155.646V100.443H155.714C155.833 100.119 156.049 99.8565 156.362 99.6548C156.674 99.4531 157.027 99.3523 157.419 99.3523C157.493 99.3523 157.585 99.3537 157.696 99.3565C157.806 99.3594 157.89 99.3636 157.947 99.3693V100.392C157.913 100.384 157.835 100.371 157.713 100.354C157.593 100.334 157.467 100.324 157.333 100.324C157.015 100.324 156.731 100.391 156.481 100.524C156.234 100.655 156.038 100.837 155.893 101.07C155.751 101.3 155.68 101.562 155.68 101.858V106H154.674ZM162.084 106.136C161.454 106.136 160.91 105.997 160.452 105.719C159.998 105.438 159.647 105.045 159.4 104.543C159.155 104.037 159.033 103.449 159.033 102.778C159.033 102.108 159.155 101.517 159.4 101.006C159.647 100.491 159.991 100.091 160.431 99.804C160.874 99.5142 161.391 99.3693 161.982 99.3693C162.323 99.3693 162.66 99.4261 162.992 99.5398C163.324 99.6534 163.627 99.8381 163.9 100.094C164.172 100.347 164.39 100.682 164.552 101.099C164.714 101.517 164.795 102.031 164.795 102.642V103.068H159.749V102.199H163.772C163.772 101.83 163.698 101.5 163.55 101.21C163.405 100.92 163.198 100.692 162.928 100.524C162.661 100.357 162.346 100.273 161.982 100.273C161.581 100.273 161.235 100.372 160.942 100.571C160.652 100.767 160.429 101.023 160.273 101.338C160.117 101.653 160.039 101.991 160.039 102.352V102.932C160.039 103.426 160.124 103.845 160.295 104.189C160.468 104.53 160.708 104.79 161.015 104.969C161.322 105.145 161.678 105.233 162.084 105.233C162.349 105.233 162.587 105.196 162.8 105.122C163.016 105.045 163.202 104.932 163.358 104.781C163.515 104.628 163.635 104.437 163.721 104.21L164.692 104.483C164.59 104.812 164.418 105.102 164.177 105.352C163.935 105.599 163.637 105.793 163.282 105.932C162.927 106.068 162.527 106.136 162.084 106.136ZM170.636 106V97.2727H171.693V105.062H175.749V106H170.636ZM177.649 106V99.4545H178.655V106H177.649ZM178.161 98.3636C177.965 98.3636 177.796 98.2969 177.654 98.1634C177.514 98.0298 177.445 97.8693 177.445 97.6818C177.445 97.4943 177.514 97.3338 177.654 97.2003C177.796 97.0668 177.965 97 178.161 97C178.357 97 178.524 97.0668 178.664 97.2003C178.806 97.3338 178.877 97.4943 178.877 97.6818C178.877 97.8693 178.806 98.0298 178.664 98.1634C178.524 98.2969 178.357 98.3636 178.161 98.3636ZM186.249 99.4545L183.829 106H182.806L180.386 99.4545H181.477L183.283 104.67H183.352L185.158 99.4545H186.249ZM190.487 106.136C189.856 106.136 189.312 105.997 188.855 105.719C188.4 105.438 188.049 105.045 187.802 104.543C187.558 104.037 187.436 103.449 187.436 102.778C187.436 102.108 187.558 101.517 187.802 101.006C188.049 100.491 188.393 100.091 188.833 99.804C189.276 99.5142 189.793 99.3693 190.384 99.3693C190.725 99.3693 191.062 99.4261 191.394 99.5398C191.727 99.6534 192.029 99.8381 192.302 100.094C192.575 100.347 192.792 100.682 192.954 101.099C193.116 101.517 193.197 102.031 193.197 102.642V103.068H188.151V102.199H192.174C192.174 101.83 192.1 101.5 191.953 101.21C191.808 100.92 191.6 100.692 191.33 100.524C191.063 100.357 190.748 100.273 190.384 100.273C189.984 100.273 189.637 100.372 189.345 100.571C189.055 100.767 188.832 101.023 188.676 101.338C188.519 101.653 188.441 101.991 188.441 102.352V102.932C188.441 103.426 188.526 103.845 188.697 104.189C188.87 104.53 189.11 104.79 189.417 104.969C189.724 105.145 190.08 105.233 190.487 105.233C190.751 105.233 190.989 105.196 191.203 105.122C191.418 105.045 191.605 104.932 191.761 104.781C191.917 104.628 192.038 104.437 192.123 104.21L193.095 104.483C192.992 104.812 192.82 105.102 192.579 105.352C192.337 105.599 192.039 105.793 191.684 105.932C191.329 106.068 190.93 106.136 190.487 106.136Z" fill="#4C4E64" fill-opacity="0.6"/>
<path d="M270.39 78.7102V72.1477H271.503V78.7102H270.39ZM267.665 75.9858V74.8722H274.228V75.9858H267.665ZM276.769 80.5L281.323 71.4915V71.4119H276.073V70.3182H282.596V71.4716L278.062 80.5H276.769ZM287.655 80.6392C286.973 80.6392 286.369 80.5182 285.846 80.2763C285.325 80.031 284.919 79.6946 284.628 79.267C284.336 78.8362 284.192 78.3456 284.195 77.7955C284.192 77.3646 284.276 76.9669 284.449 76.6023C284.621 76.2344 284.856 75.9278 285.155 75.6825C285.456 75.4339 285.793 75.2765 286.164 75.2102V75.1506C285.677 75.0246 285.289 74.7512 285.001 74.3303C284.712 73.906 284.57 73.4238 284.573 72.8835C284.57 72.3665 284.701 71.9041 284.966 71.4964C285.231 71.0888 285.595 70.7673 286.059 70.532C286.527 70.2966 287.059 70.179 287.655 70.179C288.245 70.179 288.772 70.2966 289.236 70.532C289.7 70.7673 290.065 71.0888 290.33 71.4964C290.599 71.9041 290.734 72.3665 290.738 72.8835C290.734 73.4238 290.587 73.906 290.295 74.3303C290.007 74.7512 289.624 75.0246 289.147 75.1506V75.2102C289.515 75.2765 289.846 75.4339 290.141 75.6825C290.436 75.9278 290.671 76.2344 290.847 76.6023C291.023 76.9669 291.112 77.3646 291.116 77.7955C291.112 78.3456 290.963 78.8362 290.668 79.267C290.376 79.6946 289.97 80.031 289.45 80.2763C288.933 80.5182 288.335 80.6392 287.655 80.6392ZM287.655 79.5455C288.116 79.5455 288.514 79.4709 288.849 79.3217C289.183 79.1726 289.442 78.9621 289.624 78.6903C289.806 78.4186 289.899 78.1004 289.903 77.7358C289.899 77.3513 289.8 77.0116 289.604 76.7166C289.409 76.4216 289.142 76.1896 288.804 76.0206C288.469 75.8516 288.086 75.767 287.655 75.767C287.221 75.767 286.833 75.8516 286.492 76.0206C286.154 76.1896 285.887 76.4216 285.692 76.7166C285.499 77.0116 285.405 77.3513 285.408 77.7358C285.405 78.1004 285.493 78.4186 285.672 78.6903C285.854 78.9621 286.114 79.1726 286.452 79.3217C286.79 79.4709 287.191 79.5455 287.655 79.5455ZM287.655 74.7131C288.02 74.7131 288.343 74.6402 288.625 74.4943C288.91 74.3485 289.134 74.1446 289.296 73.8828C289.458 73.621 289.541 73.3144 289.545 72.9631C289.541 72.6184 289.46 72.3184 289.301 72.0632C289.142 71.8047 288.921 71.6058 288.64 71.4666C288.358 71.3241 288.03 71.2528 287.655 71.2528C287.274 71.2528 286.941 71.3241 286.656 71.4666C286.371 71.6058 286.151 71.8047 285.995 72.0632C285.839 72.3184 285.763 72.6184 285.766 72.9631C285.763 73.3144 285.841 73.621 286 73.8828C286.162 74.1446 286.386 74.3485 286.671 74.4943C286.956 74.6402 287.284 74.7131 287.655 74.7131ZM293.732 80.5795C293.486 80.5795 293.276 80.4917 293.1 80.3161C292.924 80.1404 292.837 79.9299 292.837 79.6847C292.837 79.4394 292.924 79.2289 293.1 79.0533C293.276 78.8776 293.486 78.7898 293.732 78.7898C293.977 78.7898 294.187 78.8776 294.363 79.0533C294.539 79.2289 294.626 79.4394 294.626 79.6847C294.626 79.8471 294.585 79.9962 294.502 80.1321C294.423 80.268 294.315 80.3774 294.179 80.4602C294.046 80.5398 293.897 80.5795 293.732 80.5795ZM296.862 80.5V79.6051L300.223 75.9261C300.617 75.4953 300.942 75.1207 301.197 74.8026C301.452 74.4811 301.641 74.1795 301.764 73.8977C301.89 73.6127 301.953 73.3144 301.953 73.0028C301.953 72.6449 301.867 72.335 301.694 72.0732C301.525 71.8113 301.293 71.6091 300.998 71.4666C300.703 71.3241 300.372 71.2528 300.004 71.2528C299.613 71.2528 299.272 71.334 298.98 71.4964C298.692 71.6555 298.468 71.8793 298.309 72.1676C298.153 72.456 298.075 72.794 298.075 73.1818H296.902C296.902 72.5852 297.039 72.0616 297.314 71.6108C297.589 71.16 297.964 70.8087 298.438 70.5568C298.915 70.3049 299.451 70.179 300.044 70.179C300.64 70.179 301.169 70.3049 301.63 70.5568C302.09 70.8087 302.452 71.1484 302.714 71.576C302.975 72.0036 303.106 72.4792 303.106 73.0028C303.106 73.3774 303.038 73.7436 302.902 74.1016C302.77 74.4562 302.538 74.8523 302.206 75.2898C301.878 75.724 301.423 76.2543 300.839 76.8807L298.552 79.3267V79.4062H303.285V80.5H296.862ZM310.679 78.5909V78.054C310.679 77.6828 310.755 77.343 310.908 77.0348C311.063 76.7232 311.289 76.4747 311.584 76.2891C311.882 76.1001 312.243 76.0057 312.668 76.0057C313.098 76.0057 313.46 76.1001 313.751 76.2891C314.043 76.4747 314.263 76.7232 314.413 77.0348C314.562 77.343 314.636 77.6828 314.636 78.054V78.5909C314.636 78.9621 314.56 79.3035 314.408 79.6151C314.258 79.9233 314.036 80.1719 313.741 80.3608C313.45 80.5464 313.092 80.6392 312.668 80.6392C312.237 80.6392 311.874 80.5464 311.579 80.3608C311.284 80.1719 311.06 79.9233 310.908 79.6151C310.755 79.3035 310.679 78.9621 310.679 78.5909ZM311.693 78.054V78.5909C311.693 78.8991 311.766 79.1759 311.912 79.4212C312.058 79.6631 312.31 79.7841 312.668 79.7841C313.016 79.7841 313.261 79.6631 313.403 79.4212C313.549 79.1759 313.622 78.8991 313.622 78.5909V78.054C313.622 77.7457 313.552 77.4706 313.413 77.2287C313.274 76.9834 313.025 76.8608 312.668 76.8608C312.32 76.8608 312.069 76.9834 311.917 77.2287C311.768 77.4706 311.693 77.7457 311.693 78.054ZM305.608 72.7642V72.2273C305.608 71.8561 305.684 71.5163 305.837 71.2081C305.992 70.8965 306.218 70.648 306.513 70.4624C306.811 70.2734 307.172 70.179 307.597 70.179C308.027 70.179 308.389 70.2734 308.68 70.4624C308.972 70.648 309.192 70.8965 309.342 71.2081C309.491 71.5163 309.565 71.8561 309.565 72.2273V72.7642C309.565 73.1354 309.489 73.4768 309.337 73.7884C309.187 74.0966 308.965 74.3452 308.67 74.5341C308.379 74.7197 308.021 74.8125 307.597 74.8125C307.166 74.8125 306.803 74.7197 306.508 74.5341C306.213 74.3452 305.989 74.0966 305.837 73.7884C305.684 73.4768 305.608 73.1354 305.608 72.7642ZM306.622 72.2273V72.7642C306.622 73.0724 306.695 73.3492 306.841 73.5945C306.987 73.8364 307.239 73.9574 307.597 73.9574C307.945 73.9574 308.19 73.8364 308.332 73.5945C308.478 73.3492 308.551 73.0724 308.551 72.7642V72.2273C308.551 71.919 308.481 71.6439 308.342 71.402C308.203 71.1567 307.954 71.0341 307.597 71.0341C307.248 71.0341 306.998 71.1567 306.846 71.402C306.697 71.6439 306.622 71.919 306.622 72.2273ZM305.986 80.5L312.986 70.3182H314.119L307.119 80.5H305.986Z" fill="#72E128"/>
<path d="M323.743 78.41L328.333 73.83L332.923 78.41L334.333 77L328.333 71L322.333 77L323.743 78.41Z" fill="#72E128"/>
<rect x="35" y="211" width="10" height="70" rx="5" fill="#72E128"/>
<rect x="61" y="163" width="10" height="118" rx="5" fill="#72E128"/>
<rect x="87" y="189" width="10" height="92" rx="5" fill="#72E128"/>
<rect x="113" y="232" width="10" height="49" rx="5" fill="#72E128"/>
<rect x="139" y="262" width="10" height="19" rx="5" fill="#72E128"/>
<rect x="165" y="232" width="10" height="49" rx="5" fill="#72E128"/>
<rect x="191" y="258" width="10" height="23" rx="5" fill="#72E128"/>
<rect x="217" y="199" width="10" height="82" rx="5" fill="#72E128"/>
<rect x="243" y="216" width="10" height="65" rx="5" fill="#72E128"/>
<rect x="269" y="258" width="10" height="23" rx="5" fill="#72E128"/>
<rect x="295" y="232" width="10" height="49" rx="5" fill="#72E128"/>
<rect x="321" y="216" width="10" height="65" rx="5" fill="#72E128"/>
<rect x="347" y="216" width="10" height="65" rx="5" fill="#72E128"/>
</svg>
