<svg width="540" height="402" viewBox="0 0 540 402" fill="none" xmlns="http://www.w3.org/2000/svg">
<g clip-path="url(#clip0_5340_6461)">
<g filter="url(#filter0_d_5340_6461)">
<mask id="mask0_5340_6461" style="mask-type:luminance" maskUnits="userSpaceOnUse" x="0" y="0" width="540" height="402">
<rect width="540" height="402" fill="white"/>
</mask>
<g mask="url(#mask0_5340_6461)">
<rect width="540" height="402" fill="white"/>
</g>
</g>
<path d="M442.352 364.242V374H441.078V364.242H442.352ZM448.261 366.188C449.195 366.188 449.951 366.473 450.529 367.042C451.108 367.602 451.397 368.414 451.397 369.478V374H450.137V369.66C450.137 368.895 449.946 368.311 449.563 367.91C449.181 367.499 448.658 367.294 447.995 367.294C447.323 367.294 446.787 367.504 446.385 367.924C445.993 368.344 445.797 368.955 445.797 369.758V374H444.523V366.328H445.797V367.42C446.049 367.028 446.39 366.725 446.819 366.51C447.258 366.295 447.739 366.188 448.261 366.188ZM463.735 367.098C463.735 367.91 463.455 368.587 462.895 369.128C462.344 369.66 461.499 369.926 460.361 369.926H458.485V374H457.211V364.242H460.361C461.462 364.242 462.297 364.508 462.867 365.04C463.445 365.572 463.735 366.258 463.735 367.098ZM460.361 368.876C461.07 368.876 461.593 368.722 461.929 368.414C462.265 368.106 462.433 367.667 462.433 367.098C462.433 365.894 461.742 365.292 460.361 365.292H458.485V368.876H460.361ZM466.592 367.574C466.816 367.135 467.134 366.795 467.544 366.552C467.964 366.309 468.473 366.188 469.07 366.188V367.504H468.734C467.306 367.504 466.592 368.279 466.592 369.828V374H465.318V366.328H466.592V367.574ZM473.887 374.126C473.168 374.126 472.515 373.963 471.927 373.636C471.348 373.309 470.891 372.847 470.555 372.25C470.228 371.643 470.065 370.943 470.065 370.15C470.065 369.366 470.233 368.675 470.569 368.078C470.914 367.471 471.381 367.009 471.969 366.692C472.557 366.365 473.215 366.202 473.943 366.202C474.671 366.202 475.329 366.365 475.917 366.692C476.505 367.009 476.967 367.467 477.303 368.064C477.648 368.661 477.821 369.357 477.821 370.15C477.821 370.943 477.644 371.643 477.289 372.25C476.944 372.847 476.472 373.309 475.875 373.636C475.278 373.963 474.615 374.126 473.887 374.126ZM473.887 373.006C474.344 373.006 474.774 372.899 475.175 372.684C475.576 372.469 475.898 372.147 476.141 371.718C476.393 371.289 476.519 370.766 476.519 370.15C476.519 369.534 476.398 369.011 476.155 368.582C475.912 368.153 475.595 367.835 475.203 367.63C474.811 367.415 474.386 367.308 473.929 367.308C473.462 367.308 473.033 367.415 472.641 367.63C472.258 367.835 471.95 368.153 471.717 368.582C471.484 369.011 471.367 369.534 471.367 370.15C471.367 370.775 471.479 371.303 471.703 371.732C471.936 372.161 472.244 372.483 472.627 372.698C473.01 372.903 473.43 373.006 473.887 373.006ZM482.66 366.202C483.323 366.202 483.901 366.347 484.396 366.636C484.9 366.925 485.273 367.289 485.516 367.728V366.328H486.804V374.168C486.804 374.868 486.655 375.489 486.356 376.03C486.057 376.581 485.628 377.01 485.068 377.318C484.517 377.626 483.873 377.78 483.136 377.78C482.128 377.78 481.288 377.542 480.616 377.066C479.944 376.59 479.547 375.941 479.426 375.12H480.686C480.826 375.587 481.115 375.96 481.554 376.24C481.993 376.529 482.52 376.674 483.136 376.674C483.836 376.674 484.405 376.455 484.844 376.016C485.292 375.577 485.516 374.961 485.516 374.168V372.558C485.264 373.006 484.891 373.379 484.396 373.678C483.901 373.977 483.323 374.126 482.66 374.126C481.979 374.126 481.358 373.958 480.798 373.622C480.247 373.286 479.813 372.815 479.496 372.208C479.179 371.601 479.02 370.911 479.02 370.136C479.02 369.352 479.179 368.666 479.496 368.078C479.813 367.481 480.247 367.019 480.798 366.692C481.358 366.365 481.979 366.202 482.66 366.202ZM485.516 370.15C485.516 369.571 485.399 369.067 485.166 368.638C484.933 368.209 484.615 367.882 484.214 367.658C483.822 367.425 483.388 367.308 482.912 367.308C482.436 367.308 482.002 367.42 481.61 367.644C481.218 367.868 480.905 368.195 480.672 368.624C480.439 369.053 480.322 369.557 480.322 370.136C480.322 370.724 480.439 371.237 480.672 371.676C480.905 372.105 481.218 372.437 481.61 372.67C482.002 372.894 482.436 373.006 482.912 373.006C483.388 373.006 483.822 372.894 484.214 372.67C484.615 372.437 484.933 372.105 485.166 371.676C485.399 371.237 485.516 370.729 485.516 370.15ZM490.231 367.574C490.455 367.135 490.772 366.795 491.183 366.552C491.603 366.309 492.112 366.188 492.709 366.188V367.504H492.373C490.945 367.504 490.231 368.279 490.231 369.828V374H488.957V366.328H490.231V367.574ZM501.18 369.87C501.18 370.113 501.166 370.369 501.138 370.64H495.006C495.052 371.396 495.309 371.989 495.776 372.418C496.252 372.838 496.826 373.048 497.498 373.048C498.048 373.048 498.506 372.922 498.87 372.67C499.243 372.409 499.504 372.063 499.654 371.634H501.026C500.82 372.371 500.41 372.973 499.794 373.44C499.178 373.897 498.412 374.126 497.498 374.126C496.77 374.126 496.116 373.963 495.538 373.636C494.968 373.309 494.52 372.847 494.194 372.25C493.867 371.643 493.704 370.943 493.704 370.15C493.704 369.357 493.862 368.661 494.18 368.064C494.497 367.467 494.94 367.009 495.51 366.692C496.088 366.365 496.751 366.202 497.498 366.202C498.226 366.202 498.87 366.361 499.43 366.678C499.99 366.995 500.419 367.434 500.718 367.994C501.026 368.545 501.18 369.17 501.18 369.87ZM499.864 369.604C499.864 369.119 499.756 368.703 499.542 368.358C499.327 368.003 499.033 367.737 498.66 367.56C498.296 367.373 497.89 367.28 497.442 367.28C496.798 367.28 496.247 367.485 495.79 367.896C495.342 368.307 495.085 368.876 495.02 369.604H499.864ZM505.577 374.126C504.989 374.126 504.462 374.028 503.995 373.832C503.529 373.627 503.16 373.347 502.889 372.992C502.619 372.628 502.469 372.213 502.441 371.746H503.757C503.795 372.129 503.972 372.441 504.289 372.684C504.616 372.927 505.041 373.048 505.563 373.048C506.049 373.048 506.431 372.941 506.711 372.726C506.991 372.511 507.131 372.241 507.131 371.914C507.131 371.578 506.982 371.331 506.683 371.172C506.385 371.004 505.923 370.841 505.297 370.682C504.728 370.533 504.261 370.383 503.897 370.234C503.543 370.075 503.235 369.847 502.973 369.548C502.721 369.24 502.595 368.839 502.595 368.344C502.595 367.952 502.712 367.593 502.945 367.266C503.179 366.939 503.51 366.683 503.939 366.496C504.369 366.3 504.859 366.202 505.409 366.202C506.259 366.202 506.945 366.417 507.467 366.846C507.99 367.275 508.27 367.863 508.307 368.61H507.033C507.005 368.209 506.842 367.887 506.543 367.644C506.254 367.401 505.862 367.28 505.367 367.28C504.91 367.28 504.546 367.378 504.275 367.574C504.005 367.77 503.869 368.027 503.869 368.344C503.869 368.596 503.949 368.806 504.107 368.974C504.275 369.133 504.481 369.263 504.723 369.366C504.975 369.459 505.321 369.567 505.759 369.688C506.31 369.837 506.758 369.987 507.103 370.136C507.449 370.276 507.743 370.491 507.985 370.78C508.237 371.069 508.368 371.447 508.377 371.914C508.377 372.334 508.261 372.712 508.027 373.048C507.794 373.384 507.463 373.65 507.033 373.846C506.613 374.033 506.128 374.126 505.577 374.126ZM512.892 374.126C512.304 374.126 511.776 374.028 511.31 373.832C510.843 373.627 510.474 373.347 510.204 372.992C509.933 372.628 509.784 372.213 509.756 371.746H511.072C511.109 372.129 511.286 372.441 511.604 372.684C511.93 372.927 512.355 373.048 512.878 373.048C513.363 373.048 513.746 372.941 514.026 372.726C514.306 372.511 514.446 372.241 514.446 371.914C514.446 371.578 514.296 371.331 513.998 371.172C513.699 371.004 513.237 370.841 512.612 370.682C512.042 370.533 511.576 370.383 511.212 370.234C510.857 370.075 510.549 369.847 510.288 369.548C510.036 369.24 509.91 368.839 509.91 368.344C509.91 367.952 510.026 367.593 510.26 367.266C510.493 366.939 510.824 366.683 511.254 366.496C511.683 366.3 512.173 366.202 512.724 366.202C513.573 366.202 514.259 366.417 514.782 366.846C515.304 367.275 515.584 367.863 515.622 368.61H514.348C514.32 368.209 514.156 367.887 513.858 367.644C513.568 367.401 513.176 367.28 512.682 367.28C512.224 367.28 511.86 367.378 511.59 367.574C511.319 367.77 511.184 368.027 511.184 368.344C511.184 368.596 511.263 368.806 511.422 368.974C511.59 369.133 511.795 369.263 512.038 369.366C512.29 369.459 512.635 369.567 513.074 369.688C513.624 369.837 514.072 369.987 514.418 370.136C514.763 370.276 515.057 370.491 515.3 370.78C515.552 371.069 515.682 371.447 515.692 371.914C515.692 372.334 515.575 372.712 515.342 373.048C515.108 373.384 514.777 373.65 514.348 373.846C513.928 374.033 513.442 374.126 512.892 374.126Z" fill="#8A9099"/>
<mask id="mask1_5340_6461" style="mask-type:luminance" maskUnits="userSpaceOnUse" x="423" y="365" width="8" height="8">
<circle cx="427" cy="369" r="4" fill="white"/>
</mask>
<g mask="url(#mask1_5340_6461)">
<rect x="423" y="365" width="8" height="8" fill="#FF965D"/>
</g>
<path d="M327.75 374H326.476L321.352 366.23V374H320.078V364.228H321.352L326.476 371.984V364.228H327.75V374ZM336.922 369.87C336.922 370.113 336.908 370.369 336.88 370.64H330.748C330.794 371.396 331.051 371.989 331.518 372.418C331.994 372.838 332.568 373.048 333.24 373.048C333.79 373.048 334.248 372.922 334.612 372.67C334.985 372.409 335.246 372.063 335.396 371.634H336.768C336.562 372.371 336.152 372.973 335.536 373.44C334.92 373.897 334.154 374.126 333.24 374.126C332.512 374.126 331.858 373.963 331.28 373.636C330.71 373.309 330.262 372.847 329.936 372.25C329.609 371.643 329.446 370.943 329.446 370.15C329.446 369.357 329.604 368.661 329.922 368.064C330.239 367.467 330.682 367.009 331.252 366.692C331.83 366.365 332.493 366.202 333.24 366.202C333.968 366.202 334.612 366.361 335.172 366.678C335.732 366.995 336.161 367.434 336.46 367.994C336.768 368.545 336.922 369.17 336.922 369.87ZM335.606 369.604C335.606 369.119 335.498 368.703 335.284 368.358C335.069 368.003 334.775 367.737 334.402 367.56C334.038 367.373 333.632 367.28 333.184 367.28C332.54 367.28 331.989 367.485 331.532 367.896C331.084 368.307 330.827 368.876 330.762 369.604H335.606ZM348.823 366.328L346.429 374H345.113L343.265 367.91L341.417 374H340.101L337.693 366.328H338.995L340.759 372.768L342.663 366.328H343.965L345.827 372.782L347.563 366.328H348.823ZM359.826 364.242V365.278H357.166V374H355.892V365.278H353.218V364.242H359.826ZM360.918 370.136C360.918 369.352 361.077 368.666 361.394 368.078C361.712 367.481 362.146 367.019 362.696 366.692C363.256 366.365 363.877 366.202 364.558 366.202C365.23 366.202 365.814 366.347 366.308 366.636C366.803 366.925 367.172 367.289 367.414 367.728V366.328H368.702V374H367.414V372.572C367.162 373.02 366.784 373.393 366.28 373.692C365.786 373.981 365.207 374.126 364.544 374.126C363.863 374.126 363.247 373.958 362.696 373.622C362.146 373.286 361.712 372.815 361.394 372.208C361.077 371.601 360.918 370.911 360.918 370.136ZM367.414 370.15C367.414 369.571 367.298 369.067 367.064 368.638C366.831 368.209 366.514 367.882 366.112 367.658C365.72 367.425 365.286 367.308 364.81 367.308C364.334 367.308 363.9 367.42 363.508 367.644C363.116 367.868 362.804 368.195 362.57 368.624C362.337 369.053 362.22 369.557 362.22 370.136C362.22 370.724 362.337 371.237 362.57 371.676C362.804 372.105 363.116 372.437 363.508 372.67C363.9 372.894 364.334 373.006 364.81 373.006C365.286 373.006 365.72 372.894 366.112 372.67C366.514 372.437 366.831 372.105 367.064 371.676C367.298 371.237 367.414 370.729 367.414 370.15ZM373.571 374.126C372.983 374.126 372.456 374.028 371.989 373.832C371.523 373.627 371.154 373.347 370.883 372.992C370.613 372.628 370.463 372.213 370.435 371.746H371.751C371.789 372.129 371.966 372.441 372.283 372.684C372.61 372.927 373.035 373.048 373.557 373.048C374.043 373.048 374.425 372.941 374.705 372.726C374.985 372.511 375.125 372.241 375.125 371.914C375.125 371.578 374.976 371.331 374.677 371.172C374.379 371.004 373.917 370.841 373.291 370.682C372.722 370.533 372.255 370.383 371.891 370.234C371.537 370.075 371.229 369.847 370.967 369.548C370.715 369.24 370.589 368.839 370.589 368.344C370.589 367.952 370.706 367.593 370.939 367.266C371.173 366.939 371.504 366.683 371.933 366.496C372.363 366.3 372.853 366.202 373.403 366.202C374.253 366.202 374.939 366.417 375.461 366.846C375.984 367.275 376.264 367.863 376.301 368.61H375.027C374.999 368.209 374.836 367.887 374.537 367.644C374.248 367.401 373.856 367.28 373.361 367.28C372.904 367.28 372.54 367.378 372.269 367.574C371.999 367.77 371.863 368.027 371.863 368.344C371.863 368.596 371.943 368.806 372.101 368.974C372.269 369.133 372.475 369.263 372.717 369.366C372.969 369.459 373.315 369.567 373.753 369.688C374.304 369.837 374.752 369.987 375.097 370.136C375.443 370.276 375.737 370.491 375.979 370.78C376.231 371.069 376.362 371.447 376.371 371.914C376.371 372.334 376.255 372.712 376.021 373.048C375.788 373.384 375.457 373.65 375.027 373.846C374.607 374.033 374.122 374.126 373.571 374.126ZM382.454 374L379.444 370.612V374H378.17V363.64H379.444V369.73L382.398 366.328H384.176L380.564 370.15L384.19 374H382.454ZM388.091 374.126C387.503 374.126 386.976 374.028 386.509 373.832C386.042 373.627 385.674 373.347 385.403 372.992C385.132 372.628 384.983 372.213 384.955 371.746H386.271C386.308 372.129 386.486 372.441 386.803 372.684C387.13 372.927 387.554 373.048 388.077 373.048C388.562 373.048 388.945 372.941 389.225 372.726C389.505 372.511 389.645 372.241 389.645 371.914C389.645 371.578 389.496 371.331 389.197 371.172C388.898 371.004 388.436 370.841 387.811 370.682C387.242 370.533 386.775 370.383 386.411 370.234C386.056 370.075 385.748 369.847 385.487 369.548C385.235 369.24 385.109 368.839 385.109 368.344C385.109 367.952 385.226 367.593 385.459 367.266C385.692 366.939 386.024 366.683 386.453 366.496C386.882 366.3 387.372 366.202 387.923 366.202C388.772 366.202 389.458 366.417 389.981 366.846C390.504 367.275 390.784 367.863 390.821 368.61H389.547C389.519 368.209 389.356 367.887 389.057 367.644C388.768 367.401 388.376 367.28 387.881 367.28C387.424 367.28 387.06 367.378 386.789 367.574C386.518 367.77 386.383 368.027 386.383 368.344C386.383 368.596 386.462 368.806 386.621 368.974C386.789 369.133 386.994 369.263 387.237 369.366C387.489 369.459 387.834 369.567 388.273 369.688C388.824 369.837 389.272 369.987 389.617 370.136C389.962 370.276 390.256 370.491 390.499 370.78C390.751 371.069 390.882 371.447 390.891 371.914C390.891 372.334 390.774 372.712 390.541 373.048C390.308 373.384 389.976 373.65 389.547 373.846C389.127 374.033 388.642 374.126 388.091 374.126Z" fill="#8A9099"/>
<mask id="mask2_5340_6461" style="mask-type:luminance" maskUnits="userSpaceOnUse" x="302" y="365" width="8" height="8">
<circle cx="306" cy="369" r="4" fill="white"/>
</mask>
<g mask="url(#mask2_5340_6461)">
<rect x="302" y="365" width="8" height="8" fill="#304FFD"/>
</g>
<g clip-path="url(#clip1_5340_6461)">
<path d="M78.5643 323.696V332H77.4723V325.808L74.7123 332H73.9443L71.1723 325.796V332H70.0803V323.696H71.2563L74.3283 330.56L77.4003 323.696H78.5643ZM83.2842 332.108C82.6682 332.108 82.1082 331.968 81.6042 331.688C81.1082 331.408 80.7162 331.012 80.4282 330.5C80.1482 329.98 80.0082 329.38 80.0082 328.7C80.0082 328.028 80.1522 327.436 80.4402 326.924C80.7362 326.404 81.1362 326.008 81.6402 325.736C82.1442 325.456 82.7082 325.316 83.3322 325.316C83.9562 325.316 84.5202 325.456 85.0242 325.736C85.5282 326.008 85.9242 326.4 86.2122 326.912C86.5082 327.424 86.6562 328.02 86.6562 328.7C86.6562 329.38 86.5042 329.98 86.2002 330.5C85.9042 331.012 85.5002 331.408 84.9882 331.688C84.4762 331.968 83.9082 332.108 83.2842 332.108ZM83.2842 331.148C83.6762 331.148 84.0442 331.056 84.3882 330.872C84.7322 330.688 85.0082 330.412 85.2162 330.044C85.4322 329.676 85.5402 329.228 85.5402 328.7C85.5402 328.172 85.4362 327.724 85.2282 327.356C85.0202 326.988 84.7482 326.716 84.4122 326.54C84.0762 326.356 83.7122 326.264 83.3202 326.264C82.9202 326.264 82.5522 326.356 82.2162 326.54C81.8882 326.716 81.6242 326.988 81.4242 327.356C81.2242 327.724 81.1242 328.172 81.1242 328.7C81.1242 329.236 81.2202 329.688 81.4122 330.056C81.6122 330.424 81.8762 330.7 82.2042 330.884C82.5322 331.06 82.8922 331.148 83.2842 331.148ZM91.296 325.304C92.096 325.304 92.744 325.548 93.24 326.036C93.736 326.516 93.984 327.212 93.984 328.124V332H92.904V328.28C92.904 327.624 92.74 327.124 92.412 326.78C92.084 326.428 91.636 326.252 91.068 326.252C90.492 326.252 90.032 326.432 89.688 326.792C89.352 327.152 89.184 327.676 89.184 328.364V332H88.092V325.424H89.184V326.36C89.4 326.024 89.692 325.764 90.06 325.58C90.436 325.396 90.848 325.304 91.296 325.304Z" fill="#8A9099"/>
<path d="M146.267 323.636V324.524H143.987V332H142.895V324.524H140.603V323.636H146.267ZM153.444 325.424V332H152.352V331.028C152.144 331.364 151.852 331.628 151.476 331.82C151.108 332.004 150.7 332.096 150.252 332.096C149.74 332.096 149.28 331.992 148.872 331.784C148.464 331.568 148.14 331.248 147.9 330.824C147.668 330.4 147.552 329.884 147.552 329.276V325.424H148.632V329.132C148.632 329.78 148.796 330.28 149.124 330.632C149.452 330.976 149.9 331.148 150.468 331.148C151.052 331.148 151.512 330.968 151.848 330.608C152.184 330.248 152.352 329.724 152.352 329.036V325.424H153.444ZM161.287 328.46C161.287 328.668 161.275 328.888 161.251 329.12H155.995C156.035 329.768 156.255 330.276 156.655 330.644C157.063 331.004 157.555 331.184 158.131 331.184C158.603 331.184 158.995 331.076 159.307 330.86C159.627 330.636 159.851 330.34 159.979 329.972H161.155C160.979 330.604 160.627 331.12 160.099 331.52C159.571 331.912 158.915 332.108 158.131 332.108C157.507 332.108 156.947 331.968 156.451 331.688C155.963 331.408 155.579 331.012 155.299 330.5C155.019 329.98 154.879 329.38 154.879 328.7C154.879 328.02 155.015 327.424 155.287 326.912C155.559 326.4 155.939 326.008 156.427 325.736C156.923 325.456 157.491 325.316 158.131 325.316C158.755 325.316 159.307 325.452 159.787 325.724C160.267 325.996 160.635 326.372 160.891 326.852C161.155 327.324 161.287 327.86 161.287 328.46ZM160.159 328.232C160.159 327.816 160.067 327.46 159.883 327.164C159.699 326.86 159.447 326.632 159.127 326.48C158.815 326.32 158.467 326.24 158.083 326.24C157.531 326.24 157.059 326.416 156.667 326.768C156.283 327.12 156.063 327.608 156.007 328.232H160.159Z" fill="#8A9099"/>
<path d="M217.807 323.636L215.383 332H214.159L212.215 325.268L210.199 332L208.987 332.012L206.647 323.636H207.811L209.635 330.728L211.651 323.636H212.875L214.795 330.704L216.631 323.636H217.807ZM225.002 328.46C225.002 328.668 224.99 328.888 224.966 329.12H219.71C219.75 329.768 219.97 330.276 220.37 330.644C220.778 331.004 221.27 331.184 221.846 331.184C222.318 331.184 222.71 331.076 223.022 330.86C223.342 330.636 223.566 330.34 223.694 329.972H224.87C224.694 330.604 224.342 331.12 223.814 331.52C223.286 331.912 222.63 332.108 221.846 332.108C221.222 332.108 220.662 331.968 220.166 331.688C219.678 331.408 219.294 331.012 219.014 330.5C218.734 329.98 218.594 329.38 218.594 328.7C218.594 328.02 218.73 327.424 219.002 326.912C219.274 326.4 219.654 326.008 220.142 325.736C220.638 325.456 221.206 325.316 221.846 325.316C222.47 325.316 223.022 325.452 223.502 325.724C223.982 325.996 224.35 326.372 224.606 326.852C224.87 327.324 225.002 327.86 225.002 328.46ZM223.874 328.232C223.874 327.816 223.782 327.46 223.598 327.164C223.414 326.86 223.162 326.632 222.842 326.48C222.53 326.32 222.182 326.24 221.798 326.24C221.246 326.24 220.774 326.416 220.382 326.768C219.998 327.12 219.778 327.608 219.722 328.232H223.874ZM226.036 328.688C226.036 328.016 226.172 327.428 226.444 326.924C226.716 326.412 227.088 326.016 227.56 325.736C228.04 325.456 228.576 325.316 229.168 325.316C229.68 325.316 230.156 325.436 230.596 325.676C231.036 325.908 231.372 326.216 231.604 326.6V323.12H232.708V332H231.604V330.764C231.388 331.156 231.068 331.48 230.644 331.736C230.22 331.984 229.724 332.108 229.156 332.108C228.572 332.108 228.04 331.964 227.56 331.676C227.088 331.388 226.716 330.984 226.444 330.464C226.172 329.944 226.036 329.352 226.036 328.688ZM231.604 328.7C231.604 328.204 231.504 327.772 231.304 327.404C231.104 327.036 230.832 326.756 230.488 326.564C230.152 326.364 229.78 326.264 229.372 326.264C228.964 326.264 228.592 326.36 228.256 326.552C227.92 326.744 227.652 327.024 227.452 327.392C227.252 327.76 227.152 328.192 227.152 328.688C227.152 329.192 227.252 329.632 227.452 330.008C227.652 330.376 227.92 330.66 228.256 330.86C228.592 331.052 228.964 331.148 229.372 331.148C229.78 331.148 230.152 331.052 230.488 330.86C230.832 330.66 231.104 330.376 231.304 330.008C231.504 329.632 231.604 329.196 231.604 328.7Z" fill="#8A9099"/>
<path d="M284.15 323.636V324.524H281.87V332H280.778V324.524H278.486V323.636H284.15ZM288.758 325.304C289.254 325.304 289.702 325.412 290.102 325.628C290.502 325.836 290.814 326.152 291.038 326.576C291.27 327 291.386 327.516 291.386 328.124V332H290.306V328.28C290.306 327.624 290.142 327.124 289.814 326.78C289.486 326.428 289.038 326.252 288.47 326.252C287.894 326.252 287.434 326.432 287.09 326.792C286.754 327.152 286.586 327.676 286.586 328.364V332H285.494V323.12H286.586V326.36C286.802 326.024 287.098 325.764 287.474 325.58C287.858 325.396 288.286 325.304 288.758 325.304ZM299.002 325.424V332H297.91V331.028C297.702 331.364 297.41 331.628 297.034 331.82C296.666 332.004 296.258 332.096 295.81 332.096C295.298 332.096 294.838 331.992 294.43 331.784C294.022 331.568 293.698 331.248 293.458 330.824C293.226 330.4 293.11 329.884 293.11 329.276V325.424H294.19V329.132C294.19 329.78 294.354 330.28 294.682 330.632C295.01 330.976 295.458 331.148 296.026 331.148C296.61 331.148 297.07 330.968 297.406 330.608C297.742 330.248 297.91 329.724 297.91 329.036V325.424H299.002Z" fill="#8A9099"/>
<path d="M356.914 323.636V324.524H353.278V327.344H356.23V328.232H353.278V332H352.186V323.636H356.914ZM359.325 326.492C359.517 326.116 359.789 325.824 360.141 325.616C360.501 325.408 360.937 325.304 361.449 325.304V326.432H361.161C359.937 326.432 359.325 327.096 359.325 328.424V332H358.233V325.424H359.325V326.492ZM363.273 324.356C363.065 324.356 362.889 324.284 362.745 324.14C362.601 323.996 362.529 323.82 362.529 323.612C362.529 323.404 362.601 323.228 362.745 323.084C362.889 322.94 363.065 322.868 363.273 322.868C363.473 322.868 363.641 322.94 363.777 323.084C363.921 323.228 363.993 323.404 363.993 323.612C363.993 323.82 363.921 323.996 363.777 324.14C363.641 324.284 363.473 324.356 363.273 324.356ZM363.801 325.424V332H362.709V325.424H363.801Z" fill="#8A9099"/>
<path d="M420.814 332.084C420.262 332.084 419.766 331.988 419.326 331.796C418.894 331.596 418.554 331.324 418.306 330.98C418.058 330.628 417.93 330.224 417.922 329.768H419.086C419.126 330.16 419.286 330.492 419.566 330.764C419.854 331.028 420.27 331.16 420.814 331.16C421.334 331.16 421.742 331.032 422.038 330.776C422.342 330.512 422.494 330.176 422.494 329.768C422.494 329.448 422.406 329.188 422.23 328.988C422.054 328.788 421.834 328.636 421.57 328.532C421.306 328.428 420.95 328.316 420.502 328.196C419.95 328.052 419.506 327.908 419.17 327.764C418.842 327.62 418.558 327.396 418.318 327.092C418.086 326.78 417.97 326.364 417.97 325.844C417.97 325.388 418.086 324.984 418.318 324.632C418.55 324.28 418.874 324.008 419.29 323.816C419.714 323.624 420.198 323.528 420.742 323.528C421.526 323.528 422.166 323.724 422.662 324.116C423.166 324.508 423.45 325.028 423.514 325.676H422.314C422.274 325.356 422.106 325.076 421.81 324.836C421.514 324.588 421.122 324.464 420.634 324.464C420.178 324.464 419.806 324.584 419.518 324.824C419.23 325.056 419.086 325.384 419.086 325.808C419.086 326.112 419.17 326.36 419.338 326.552C419.514 326.744 419.726 326.892 419.974 326.996C420.23 327.092 420.586 327.204 421.042 327.332C421.594 327.484 422.038 327.636 422.374 327.788C422.71 327.932 422.998 328.16 423.238 328.472C423.478 328.776 423.598 329.192 423.598 329.72C423.598 330.128 423.49 330.512 423.274 330.872C423.058 331.232 422.738 331.524 422.314 331.748C421.89 331.972 421.39 332.084 420.814 332.084ZM424.797 328.688C424.797 328.016 424.933 327.428 425.205 326.924C425.477 326.412 425.849 326.016 426.321 325.736C426.801 325.456 427.333 325.316 427.917 325.316C428.493 325.316 428.993 325.44 429.417 325.688C429.841 325.936 430.157 326.248 430.365 326.624V325.424H431.469V332H430.365V330.776C430.149 331.16 429.825 331.48 429.393 331.736C428.969 331.984 428.473 332.108 427.905 332.108C427.321 332.108 426.793 331.964 426.321 331.676C425.849 331.388 425.477 330.984 425.205 330.464C424.933 329.944 424.797 329.352 424.797 328.688ZM430.365 328.7C430.365 328.204 430.265 327.772 430.065 327.404C429.865 327.036 429.593 326.756 429.249 326.564C428.913 326.364 428.541 326.264 428.133 326.264C427.725 326.264 427.353 326.36 427.017 326.552C426.681 326.744 426.413 327.024 426.213 327.392C426.013 327.76 425.913 328.192 425.913 328.688C425.913 329.192 426.013 329.632 426.213 330.008C426.413 330.376 426.681 330.66 427.017 330.86C427.353 331.052 427.725 331.148 428.133 331.148C428.541 331.148 428.913 331.052 429.249 330.86C429.593 330.66 429.865 330.376 430.065 330.008C430.265 329.632 430.365 329.196 430.365 328.7ZM434.647 326.324V330.2C434.647 330.52 434.715 330.748 434.851 330.884C434.987 331.012 435.223 331.076 435.559 331.076H436.363V332H435.379C434.771 332 434.315 331.86 434.011 331.58C433.707 331.3 433.555 330.84 433.555 330.2V326.324H432.703V325.424H433.555V323.768H434.647V325.424H436.363V326.324H434.647Z" fill="#8A9099"/>
<path d="M488.879 332.084C488.327 332.084 487.831 331.988 487.391 331.796C486.959 331.596 486.619 331.324 486.371 330.98C486.123 330.628 485.995 330.224 485.987 329.768H487.151C487.191 330.16 487.351 330.492 487.631 330.764C487.919 331.028 488.335 331.16 488.879 331.16C489.399 331.16 489.807 331.032 490.103 330.776C490.407 330.512 490.559 330.176 490.559 329.768C490.559 329.448 490.471 329.188 490.295 328.988C490.119 328.788 489.899 328.636 489.635 328.532C489.371 328.428 489.015 328.316 488.567 328.196C488.015 328.052 487.571 327.908 487.235 327.764C486.907 327.62 486.623 327.396 486.383 327.092C486.151 326.78 486.035 326.364 486.035 325.844C486.035 325.388 486.151 324.984 486.383 324.632C486.615 324.28 486.939 324.008 487.355 323.816C487.779 323.624 488.263 323.528 488.807 323.528C489.591 323.528 490.231 323.724 490.727 324.116C491.231 324.508 491.515 325.028 491.579 325.676H490.379C490.339 325.356 490.171 325.076 489.875 324.836C489.579 324.588 489.187 324.464 488.699 324.464C488.243 324.464 487.871 324.584 487.583 324.824C487.295 325.056 487.151 325.384 487.151 325.808C487.151 326.112 487.235 326.36 487.403 326.552C487.579 326.744 487.791 326.892 488.039 326.996C488.295 327.092 488.651 327.204 489.107 327.332C489.659 327.484 490.103 327.636 490.439 327.788C490.775 327.932 491.063 328.16 491.303 328.472C491.543 328.776 491.663 329.192 491.663 329.72C491.663 330.128 491.555 330.512 491.339 330.872C491.123 331.232 490.803 331.524 490.379 331.748C489.955 331.972 489.455 332.084 488.879 332.084ZM499.102 325.424V332H498.01V331.028C497.802 331.364 497.51 331.628 497.134 331.82C496.766 332.004 496.358 332.096 495.91 332.096C495.398 332.096 494.938 331.992 494.53 331.784C494.122 331.568 493.798 331.248 493.558 330.824C493.326 330.4 493.21 329.884 493.21 329.276V325.424H494.29V329.132C494.29 329.78 494.454 330.28 494.782 330.632C495.11 330.976 495.558 331.148 496.126 331.148C496.71 331.148 497.17 330.968 497.506 330.608C497.842 330.248 498.01 329.724 498.01 329.036V325.424H499.102ZM504.149 325.304C504.949 325.304 505.597 325.548 506.093 326.036C506.589 326.516 506.837 327.212 506.837 328.124V332H505.757V328.28C505.757 327.624 505.593 327.124 505.265 326.78C504.937 326.428 504.489 326.252 503.921 326.252C503.345 326.252 502.885 326.432 502.541 326.792C502.205 327.152 502.037 327.676 502.037 328.364V332H500.945V325.424H502.037V326.36C502.253 326.024 502.545 325.764 502.913 325.58C503.289 325.396 503.701 325.304 504.149 325.304Z" fill="#8A9099"/>
</g>
<g clip-path="url(#clip2_5340_6461)">
<path d="M24.8628 106.068V105.24L29.0748 99.408H30.3828V105.12H31.5828V106.068H30.3828V108H29.3028V106.068H24.8628ZM29.3508 100.548L26.1228 105.12H29.3508V100.548ZM32.6737 103.572C32.6737 102.196 32.8977 101.124 33.3457 100.356C33.7937 99.58 34.5777 99.192 35.6977 99.192C36.8097 99.192 37.5897 99.58 38.0377 100.356C38.4857 101.124 38.7097 102.196 38.7097 103.572C38.7097 104.972 38.4857 106.06 38.0377 106.836C37.5897 107.612 36.8097 108 35.6977 108C34.5777 108 33.7937 107.612 33.3457 106.836C32.8977 106.06 32.6737 104.972 32.6737 103.572ZM37.6297 103.572C37.6297 102.876 37.5817 102.288 37.4857 101.808C37.3977 101.32 37.2097 100.928 36.9217 100.632C36.6417 100.336 36.2337 100.188 35.6977 100.188C35.1537 100.188 34.7377 100.336 34.4497 100.632C34.1697 100.928 33.9817 101.32 33.8857 101.808C33.7977 102.288 33.7537 102.876 33.7537 103.572C33.7537 104.292 33.7977 104.896 33.8857 105.384C33.9817 105.872 34.1697 106.264 34.4497 106.56C34.7377 106.856 35.1537 107.004 35.6977 107.004C36.2337 107.004 36.6417 106.856 36.9217 106.56C37.2097 106.264 37.3977 105.872 37.4857 105.384C37.5817 104.896 37.6297 104.292 37.6297 103.572ZM40.2088 103.572C40.2088 102.196 40.4328 101.124 40.8808 100.356C41.3288 99.58 42.1128 99.192 43.2328 99.192C44.3448 99.192 45.1248 99.58 45.5728 100.356C46.0208 101.124 46.2448 102.196 46.2448 103.572C46.2448 104.972 46.0208 106.06 45.5728 106.836C45.1248 107.612 44.3448 108 43.2328 108C42.1128 108 41.3288 107.612 40.8808 106.836C40.4328 106.06 40.2088 104.972 40.2088 103.572ZM45.1648 103.572C45.1648 102.876 45.1168 102.288 45.0208 101.808C44.9328 101.32 44.7448 100.928 44.4568 100.632C44.1768 100.336 43.7688 100.188 43.2328 100.188C42.6888 100.188 42.2728 100.336 41.9848 100.632C41.7048 100.928 41.5168 101.32 41.4208 101.808C41.3328 102.288 41.2888 102.876 41.2888 103.572C41.2888 104.292 41.3328 104.896 41.4208 105.384C41.5168 105.872 41.7048 106.264 41.9848 106.56C42.2728 106.856 42.6888 107.004 43.2328 107.004C43.7688 107.004 44.1768 106.856 44.4568 106.56C44.7448 106.264 44.9328 105.872 45.0208 105.384C45.1168 104.896 45.1648 104.292 45.1648 103.572Z" fill="#8A9099"/>
<path d="M25.5833 152.508C25.6393 151.772 25.9233 151.196 26.4353 150.78C26.9473 150.364 27.6113 150.156 28.4273 150.156C28.9713 150.156 29.4393 150.256 29.8313 150.456C30.2313 150.648 30.5313 150.912 30.7313 151.248C30.9393 151.584 31.0433 151.964 31.0433 152.388C31.0433 152.884 30.8993 153.312 30.6113 153.672C30.3313 154.032 29.9633 154.264 29.5073 154.368V154.428C30.0273 154.556 30.4393 154.808 30.7433 155.184C31.0473 155.56 31.1993 156.052 31.1993 156.66C31.1993 157.116 31.0953 157.528 30.8873 157.896C30.6793 158.256 30.3673 158.54 29.9513 158.748C29.5353 158.956 29.0353 159.06 28.4513 159.06C27.6033 159.06 26.9073 158.84 26.3633 158.4C25.8193 157.952 25.5153 157.32 25.4513 156.504H26.5073C26.5633 156.984 26.7593 157.376 27.0953 157.68C27.4313 157.984 27.8793 158.136 28.4393 158.136C28.9993 158.136 29.4233 157.992 29.7113 157.704C30.0073 157.408 30.1553 157.028 30.1553 156.564C30.1553 155.964 29.9553 155.532 29.5553 155.268C29.1553 155.004 28.5513 154.872 27.7433 154.872H27.4673V153.96H27.7553C28.4913 153.952 29.0473 153.832 29.4233 153.6C29.7993 153.36 29.9873 152.992 29.9873 152.496C29.9873 152.072 29.8473 151.732 29.5673 151.476C29.2953 151.22 28.9033 151.092 28.3913 151.092C27.8953 151.092 27.4953 151.22 27.1913 151.476C26.8873 151.732 26.7073 152.076 26.6513 152.508H25.5833ZM32.6737 154.572C32.6737 153.196 32.8977 152.124 33.3457 151.356C33.7937 150.58 34.5777 150.192 35.6977 150.192C36.8097 150.192 37.5897 150.58 38.0377 151.356C38.4857 152.124 38.7097 153.196 38.7097 154.572C38.7097 155.972 38.4857 157.06 38.0377 157.836C37.5897 158.612 36.8097 159 35.6977 159C34.5777 159 33.7937 158.612 33.3457 157.836C32.8977 157.06 32.6737 155.972 32.6737 154.572ZM37.6297 154.572C37.6297 153.876 37.5817 153.288 37.4857 152.808C37.3977 152.32 37.2097 151.928 36.9217 151.632C36.6417 151.336 36.2337 151.188 35.6977 151.188C35.1537 151.188 34.7377 151.336 34.4497 151.632C34.1697 151.928 33.9817 152.32 33.8857 152.808C33.7977 153.288 33.7537 153.876 33.7537 154.572C33.7537 155.292 33.7977 155.896 33.8857 156.384C33.9817 156.872 34.1697 157.264 34.4497 157.56C34.7377 157.856 35.1537 158.004 35.6977 158.004C36.2337 158.004 36.6417 157.856 36.9217 157.56C37.2097 157.264 37.3977 156.872 37.4857 156.384C37.5817 155.896 37.6297 155.292 37.6297 154.572ZM40.2088 154.572C40.2088 153.196 40.4328 152.124 40.8808 151.356C41.3288 150.58 42.1128 150.192 43.2328 150.192C44.3448 150.192 45.1248 150.58 45.5728 151.356C46.0208 152.124 46.2448 153.196 46.2448 154.572C46.2448 155.972 46.0208 157.06 45.5728 157.836C45.1248 158.612 44.3448 159 43.2328 159C42.1128 159 41.3288 158.612 40.8808 157.836C40.4328 157.06 40.2088 155.972 40.2088 154.572ZM45.1648 154.572C45.1648 153.876 45.1168 153.288 45.0208 152.808C44.9328 152.32 44.7448 151.928 44.4568 151.632C44.1768 151.336 43.7688 151.188 43.2328 151.188C42.6888 151.188 42.2728 151.336 41.9848 151.632C41.7048 151.928 41.5168 152.32 41.4208 152.808C41.3328 153.288 41.2888 153.876 41.2888 154.572C41.2888 155.292 41.3328 155.896 41.4208 156.384C41.5168 156.872 41.7048 157.264 41.9848 157.56C42.2728 157.856 42.6888 158.004 43.2328 158.004C43.7688 158.004 44.1768 157.856 44.4568 157.56C44.7448 157.264 44.9328 156.872 45.0208 156.384C45.1168 155.896 45.1648 155.292 45.1648 154.572Z" fill="#8A9099"/>
<path d="M25.6393 209.124C26.6553 208.308 27.4513 207.64 28.0273 207.12C28.6033 206.592 29.0873 206.044 29.4793 205.476C29.8793 204.9 30.0793 204.336 30.0793 203.784C30.0793 203.264 29.9513 202.856 29.6953 202.56C29.4473 202.256 29.0433 202.104 28.4833 202.104C27.9393 202.104 27.5153 202.276 27.2113 202.62C26.9153 202.956 26.7553 203.408 26.7313 203.976H25.6753C25.7073 203.08 25.9793 202.388 26.4913 201.9C27.0033 201.412 27.6633 201.168 28.4713 201.168C29.2953 201.168 29.9473 201.396 30.4273 201.852C30.9153 202.308 31.1593 202.936 31.1593 203.736C31.1593 204.4 30.9593 205.048 30.5593 205.68C30.1673 206.304 29.7193 206.856 29.2153 207.336C28.7113 207.808 28.0673 208.36 27.2833 208.992H31.4113V209.904H25.6393V209.124ZM32.6737 205.572C32.6737 204.196 32.8977 203.124 33.3457 202.356C33.7937 201.58 34.5777 201.192 35.6977 201.192C36.8097 201.192 37.5897 201.58 38.0377 202.356C38.4857 203.124 38.7097 204.196 38.7097 205.572C38.7097 206.972 38.4857 208.06 38.0377 208.836C37.5897 209.612 36.8097 210 35.6977 210C34.5777 210 33.7937 209.612 33.3457 208.836C32.8977 208.06 32.6737 206.972 32.6737 205.572ZM37.6297 205.572C37.6297 204.876 37.5817 204.288 37.4857 203.808C37.3977 203.32 37.2097 202.928 36.9217 202.632C36.6417 202.336 36.2337 202.188 35.6977 202.188C35.1537 202.188 34.7377 202.336 34.4497 202.632C34.1697 202.928 33.9817 203.32 33.8857 203.808C33.7977 204.288 33.7537 204.876 33.7537 205.572C33.7537 206.292 33.7977 206.896 33.8857 207.384C33.9817 207.872 34.1697 208.264 34.4497 208.56C34.7377 208.856 35.1537 209.004 35.6977 209.004C36.2337 209.004 36.6417 208.856 36.9217 208.56C37.2097 208.264 37.3977 207.872 37.4857 207.384C37.5817 206.896 37.6297 206.292 37.6297 205.572ZM40.2088 205.572C40.2088 204.196 40.4328 203.124 40.8808 202.356C41.3288 201.58 42.1128 201.192 43.2328 201.192C44.3448 201.192 45.1248 201.58 45.5728 202.356C46.0208 203.124 46.2448 204.196 46.2448 205.572C46.2448 206.972 46.0208 208.06 45.5728 208.836C45.1248 209.612 44.3448 210 43.2328 210C42.1128 210 41.3288 209.612 40.8808 208.836C40.4328 208.06 40.2088 206.972 40.2088 205.572ZM45.1648 205.572C45.1648 204.876 45.1168 204.288 45.0208 203.808C44.9328 203.32 44.7448 202.928 44.4568 202.632C44.1768 202.336 43.7688 202.188 43.2328 202.188C42.6888 202.188 42.2728 202.336 41.9848 202.632C41.7048 202.928 41.5168 203.32 41.4208 203.808C41.3328 204.288 41.2888 204.876 41.2888 205.572C41.2888 206.292 41.3328 206.896 41.4208 207.384C41.5168 207.872 41.7048 208.264 41.9848 208.56C42.2728 208.856 42.6888 209.004 43.2328 209.004C43.7688 209.004 44.1768 208.856 44.4568 208.56C44.7448 208.264 44.9328 207.872 45.0208 207.384C45.1168 206.896 45.1648 206.292 45.1648 205.572Z" fill="#8A9099"/>
<path d="M28.5419 253.32V252.324H30.7979V261H29.6939V253.32H28.5419ZM32.6737 256.572C32.6737 255.196 32.8977 254.124 33.3457 253.356C33.7937 252.58 34.5777 252.192 35.6977 252.192C36.8097 252.192 37.5897 252.58 38.0377 253.356C38.4857 254.124 38.7097 255.196 38.7097 256.572C38.7097 257.972 38.4857 259.06 38.0377 259.836C37.5897 260.612 36.8097 261 35.6977 261C34.5777 261 33.7937 260.612 33.3457 259.836C32.8977 259.06 32.6737 257.972 32.6737 256.572ZM37.6297 256.572C37.6297 255.876 37.5817 255.288 37.4857 254.808C37.3977 254.32 37.2097 253.928 36.9217 253.632C36.6417 253.336 36.2337 253.188 35.6977 253.188C35.1537 253.188 34.7377 253.336 34.4497 253.632C34.1697 253.928 33.9817 254.32 33.8857 254.808C33.7977 255.288 33.7537 255.876 33.7537 256.572C33.7537 257.292 33.7977 257.896 33.8857 258.384C33.9817 258.872 34.1697 259.264 34.4497 259.56C34.7377 259.856 35.1537 260.004 35.6977 260.004C36.2337 260.004 36.6417 259.856 36.9217 259.56C37.2097 259.264 37.3977 258.872 37.4857 258.384C37.5817 257.896 37.6297 257.292 37.6297 256.572ZM40.2088 256.572C40.2088 255.196 40.4328 254.124 40.8808 253.356C41.3288 252.58 42.1128 252.192 43.2328 252.192C44.3448 252.192 45.1248 252.58 45.5728 253.356C46.0208 254.124 46.2448 255.196 46.2448 256.572C46.2448 257.972 46.0208 259.06 45.5728 259.836C45.1248 260.612 44.3448 261 43.2328 261C42.1128 261 41.3288 260.612 40.8808 259.836C40.4328 259.06 40.2088 257.972 40.2088 256.572ZM45.1648 256.572C45.1648 255.876 45.1168 255.288 45.0208 254.808C44.9328 254.32 44.7448 253.928 44.4568 253.632C44.1768 253.336 43.7688 253.188 43.2328 253.188C42.6888 253.188 42.2728 253.336 41.9848 253.632C41.7048 253.928 41.5168 254.32 41.4208 254.808C41.3328 255.288 41.2888 255.876 41.2888 256.572C41.2888 257.292 41.3328 257.896 41.4208 258.384C41.5168 258.872 41.7048 259.264 41.9848 259.56C42.2728 259.856 42.6888 260.004 43.2328 260.004C43.7688 260.004 44.1768 259.856 44.4568 259.56C44.7448 259.264 44.9328 258.872 45.0208 258.384C45.1168 257.896 45.1648 257.292 45.1648 256.572Z" fill="#8A9099"/>
<path d="M40.2088 307.572C40.2088 306.196 40.4328 305.124 40.8808 304.356C41.3288 303.58 42.1128 303.192 43.2328 303.192C44.3448 303.192 45.1248 303.58 45.5728 304.356C46.0208 305.124 46.2448 306.196 46.2448 307.572C46.2448 308.972 46.0208 310.06 45.5728 310.836C45.1248 311.612 44.3448 312 43.2328 312C42.1128 312 41.3288 311.612 40.8808 310.836C40.4328 310.06 40.2088 308.972 40.2088 307.572ZM45.1648 307.572C45.1648 306.876 45.1168 306.288 45.0208 305.808C44.9328 305.32 44.7448 304.928 44.4568 304.632C44.1768 304.336 43.7688 304.188 43.2328 304.188C42.6888 304.188 42.2728 304.336 41.9848 304.632C41.7048 304.928 41.5168 305.32 41.4208 305.808C41.3328 306.288 41.2888 306.876 41.2888 307.572C41.2888 308.292 41.3328 308.896 41.4208 309.384C41.5168 309.872 41.7048 310.264 41.9848 310.56C42.2728 310.856 42.6888 311.004 43.2328 311.004C43.7688 311.004 44.1768 310.856 44.4568 310.56C44.7448 310.264 44.9328 309.872 45.0208 309.384C45.1168 308.896 45.1648 308.292 45.1648 307.572Z" fill="#8A9099"/>
</g>
<path d="M488 113C488 108.582 491.582 105 496 105C500.418 105 504 108.582 504 113V308H488V113Z" fill="white"/>
<mask id="mask3_5340_6461" style="mask-type:luminance" maskUnits="userSpaceOnUse" x="488" y="105" width="16" height="203">
<path d="M488 113C488 108.582 491.582 105 496 105C500.418 105 504 108.582 504 113V308H488V113Z" fill="white"/>
</mask>
<g mask="url(#mask3_5340_6461)">
<g opacity="0.08">
<rect x="488" y="105" width="16" height="203" fill="#304FFD"/>
</g>
</g>
<mask id="mask4_5340_6461" style="mask-type:luminance" maskUnits="userSpaceOnUse" x="488" y="254" width="16" height="54">
<rect x="488" y="254" width="16" height="54" fill="white"/>
</mask>
<g mask="url(#mask4_5340_6461)">
<rect x="488" y="254" width="16" height="54" fill="#304FFD"/>
</g>
<mask id="mask5_5340_6461" style="mask-type:luminance" maskUnits="userSpaceOnUse" x="488" y="197" width="16" height="57">
<path d="M488 205C488 200.582 491.582 197 496 197C500.418 197 504 200.582 504 205V254H488V205Z" fill="white"/>
</mask>
<g mask="url(#mask5_5340_6461)">
<rect x="488" y="197" width="16" height="57" fill="#FF965D"/>
</g>
<path d="M419 113C419 108.582 422.582 105 427 105C431.418 105 435 108.582 435 113V308H419V113Z" fill="white"/>
<mask id="mask6_5340_6461" style="mask-type:luminance" maskUnits="userSpaceOnUse" x="419" y="105" width="16" height="203">
<path d="M419 113C419 108.582 422.582 105 427 105C431.418 105 435 108.582 435 113V308H419V113Z" fill="white"/>
</mask>
<g mask="url(#mask6_5340_6461)">
<g opacity="0.08">
<rect x="419" y="105" width="16" height="203" fill="#304FFD"/>
</g>
</g>
<mask id="mask7_5340_6461" style="mask-type:luminance" maskUnits="userSpaceOnUse" x="419" y="231" width="16" height="77">
<path d="M419 239C419 234.582 422.582 231 427 231C431.418 231 435 234.582 435 239V308H419V239Z" fill="white"/>
</mask>
<g mask="url(#mask7_5340_6461)">
<rect x="419" y="231" width="16" height="77" fill="#304FFD"/>
</g>
<path d="M350 113C350 108.582 353.582 105 358 105C362.418 105 366 108.582 366 113V308H350V113Z" fill="white"/>
<mask id="mask8_5340_6461" style="mask-type:luminance" maskUnits="userSpaceOnUse" x="350" y="105" width="16" height="203">
<path d="M350 113C350 108.582 353.582 105 358 105C362.418 105 366 108.582 366 113V308H350V113Z" fill="white"/>
</mask>
<g mask="url(#mask8_5340_6461)">
<g opacity="0.08">
<rect x="350" y="105" width="16" height="203" fill="#304FFD"/>
</g>
</g>
<mask id="mask9_5340_6461" style="mask-type:luminance" maskUnits="userSpaceOnUse" x="350" y="176" width="16" height="132">
<rect x="350" y="176" width="16" height="132" fill="white"/>
</mask>
<g mask="url(#mask9_5340_6461)">
<rect x="350" y="223" width="16" height="85" fill="#304FFD"/>
</g>
<mask id="mask10_5340_6461" style="mask-type:luminance" maskUnits="userSpaceOnUse" x="350" y="200" width="16" height="23">
<path d="M350 208C350 203.582 353.582 200 358 200C362.418 200 366 203.582 366 208V223H350V208Z" fill="white"/>
</mask>
<g mask="url(#mask10_5340_6461)">
<rect x="350" y="200" width="16" height="23" fill="#FF965D"/>
</g>
<path d="M281 113C281 108.582 284.582 105 289 105C293.418 105 297 108.582 297 113V308H281V113Z" fill="white"/>
<mask id="mask11_5340_6461" style="mask-type:luminance" maskUnits="userSpaceOnUse" x="281" y="105" width="16" height="203">
<path d="M281 113C281 108.582 284.582 105 289 105C293.418 105 297 108.582 297 113V308H281V113Z" fill="white"/>
</mask>
<g mask="url(#mask11_5340_6461)">
<g opacity="0.08">
<rect x="281" y="105" width="16" height="203" fill="#304FFD"/>
</g>
</g>
<mask id="mask12_5340_6461" style="mask-type:luminance" maskUnits="userSpaceOnUse" x="281" y="248" width="16" height="60">
<path d="M281 256C281 251.582 284.582 248 289 248C293.418 248 297 251.582 297 256V308H281V256Z" fill="white"/>
</mask>
<g mask="url(#mask12_5340_6461)">
<rect x="281" y="248" width="16" height="60" fill="#FF965D"/>
</g>
<path d="M212 113C212 108.582 215.582 105 220 105C224.418 105 228 108.582 228 113V308H212V113Z" fill="white"/>
<mask id="mask13_5340_6461" style="mask-type:luminance" maskUnits="userSpaceOnUse" x="212" y="105" width="16" height="203">
<path d="M212 113C212 108.582 215.582 105 220 105C224.418 105 228 108.582 228 113V308H212V113Z" fill="white"/>
</mask>
<g mask="url(#mask13_5340_6461)">
<g opacity="0.08">
<rect x="212" y="105" width="16" height="203" fill="#304FFD"/>
</g>
</g>
<mask id="mask14_5340_6461" style="mask-type:luminance" maskUnits="userSpaceOnUse" x="212" y="178" width="16" height="130">
<rect x="212" y="178" width="16" height="130" fill="white"/>
</mask>
<g mask="url(#mask14_5340_6461)">
<rect x="212" y="178" width="16" height="130" fill="#304FFD"/>
</g>
<mask id="mask15_5340_6461" style="mask-type:luminance" maskUnits="userSpaceOnUse" x="212" y="143" width="16" height="35">
<path d="M212 151C212 146.582 215.582 143 220 143C224.418 143 228 146.582 228 151V178H212V151Z" fill="white"/>
</mask>
<g mask="url(#mask15_5340_6461)">
<rect x="212" y="143" width="16" height="35" fill="#FF965D"/>
</g>
<path d="M143 113C143 108.582 146.582 105 151 105C155.418 105 159 108.582 159 113V308H143V113Z" fill="white"/>
<mask id="mask16_5340_6461" style="mask-type:luminance" maskUnits="userSpaceOnUse" x="143" y="105" width="16" height="203">
<path d="M143 113C143 108.582 146.582 105 151 105C155.418 105 159 108.582 159 113V308H143V113Z" fill="white"/>
</mask>
<g mask="url(#mask16_5340_6461)">
<g opacity="0.08">
<rect x="143" y="105" width="16" height="203" fill="#304FFD"/>
</g>
</g>
<mask id="mask17_5340_6461" style="mask-type:luminance" maskUnits="userSpaceOnUse" x="143" y="223" width="16" height="85">
<rect x="143" y="223" width="16" height="85" fill="white"/>
</mask>
<g mask="url(#mask17_5340_6461)">
<rect x="143" y="223" width="16" height="85" fill="#304FFD"/>
</g>
<mask id="mask18_5340_6461" style="mask-type:luminance" maskUnits="userSpaceOnUse" x="143" y="194" width="16" height="29">
<path d="M143 202C143 197.582 146.582 194 151 194C155.418 194 159 197.582 159 202V223H143V202Z" fill="white"/>
</mask>
<g mask="url(#mask18_5340_6461)">
<rect x="143" y="194" width="16" height="29" fill="#FF965D"/>
</g>
<path d="M74 113C74 108.582 77.5817 105 82 105C86.4183 105 90 108.582 90 113V308H74V113Z" fill="white"/>
<mask id="mask19_5340_6461" style="mask-type:luminance" maskUnits="userSpaceOnUse" x="74" y="105" width="16" height="203">
<path d="M74 113C74 108.582 77.5817 105 82 105C86.4183 105 90 108.582 90 113V308H74V113Z" fill="white"/>
</mask>
<g mask="url(#mask19_5340_6461)">
<g opacity="0.08">
<rect x="74" y="105" width="16" height="203" fill="#304FFD"/>
</g>
</g>
<mask id="mask20_5340_6461" style="mask-type:luminance" maskUnits="userSpaceOnUse" x="74" y="261" width="16" height="47">
<path d="M74 269C74 264.582 77.5817 261 82 261C86.4183 261 90 264.582 90 269V308H74V269Z" fill="white"/>
</mask>
<g mask="url(#mask20_5340_6461)">
<rect x="74" y="261" width="16" height="47" fill="#304FFD"/>
</g>
<g clip-path="url(#clip3_5340_6461)" filter="url(#filter1_d_5340_6461)">
<mask id="mask21_5340_6461" style="mask-type:luminance" maskUnits="userSpaceOnUse" x="248" y="207" width="82" height="35">
<path d="M287.817 241.731C288.202 242.09 288.798 242.09 289.183 241.731L294.252 237H318C324.627 237 330 231.627 330 225V219C330 212.372 324.627 207 318 207H260C253.373 207 248 212.372 248 219V225C248 231.627 253.373 237 260 237H282.748L287.817 241.731Z" fill="white"/>
</mask>
<g mask="url(#mask21_5340_6461)">
<rect width="82" height="35" transform="matrix(1 0 0 -1 248 242)" fill="white"/>
<mask id="path-66-inside-1_5340_6461" fill="white">
<path d="M287.817 241.731C288.202 242.09 288.798 242.09 289.183 241.731L294.252 237H318C324.627 237 330 231.627 330 225V219C330 212.372 324.627 207 318 207H260C253.373 207 248 212.372 248 219V225C248 231.627 253.373 237 260 237H282.748L287.817 241.731Z"/>
</mask>
<path d="M287.817 241.731L287.135 242.462L287.135 242.462L287.817 241.731ZM289.183 241.731L289.865 242.462L289.865 242.462L289.183 241.731ZM294.252 237L293.57 236.269L293.858 236H294.252V237ZM330 219L331 219V219H330ZM248 219H247V219L248 219ZM282.748 237V236H283.142L283.43 236.269L282.748 237ZM287.817 241.731L288.5 241L288.5 241L289.183 241.731L289.865 242.462C289.097 243.179 287.903 243.179 287.135 242.462L287.817 241.731ZM289.183 241.731L288.5 241L293.57 236.269L294.252 237L294.934 237.731L289.865 242.462L289.183 241.731ZM294.252 237V236H318V237V238H294.252V237ZM318 237V236C324.075 236 329 231.075 329 225H330H331C331 232.179 325.18 238 318 238V237ZM330 225H329V219H330H331V225H330ZM330 219L329 219C329 212.925 324.075 208 318 208V207V206C325.18 206 331 211.82 331 219L330 219ZM318 207V208H260V207V206H318V207ZM260 207V208C253.925 208 249 212.925 249 219L248 219L247 219C247 211.82 252.82 206 260 206V207ZM248 219H249V225H248H247V219H248ZM248 225H249C249 231.075 253.925 236 260 236V237V238C252.82 238 247 232.179 247 225H248ZM260 237V236H282.748V237V238H260V237ZM282.748 237L283.43 236.269L288.5 241L287.817 241.731L287.135 242.462L282.066 237.731L282.748 237Z" fill="#F8F8F8" mask="url(#path-66-inside-1_5340_6461)"/>
</g>
</g>
<path d="M276.704 225.124C277.72 224.308 278.516 223.64 279.092 223.12C279.668 222.592 280.152 222.044 280.544 221.476C280.944 220.9 281.144 220.336 281.144 219.784C281.144 219.264 281.016 218.856 280.76 218.56C280.512 218.256 280.108 218.104 279.548 218.104C279.004 218.104 278.58 218.276 278.276 218.62C277.98 218.956 277.82 219.408 277.796 219.976H276.74C276.772 219.08 277.044 218.388 277.556 217.9C278.068 217.412 278.728 217.168 279.536 217.168C280.36 217.168 281.012 217.396 281.492 217.852C281.98 218.308 282.224 218.936 282.224 219.736C282.224 220.4 282.024 221.048 281.624 221.68C281.232 222.304 280.784 222.856 280.28 223.336C279.776 223.808 279.132 224.36 278.348 224.992H282.476V225.904H276.704V225.124ZM283.45 218.32V217.324H285.706V226H284.602V218.32H283.45ZM293.114 218.272H288.902V221.008C289.086 220.752 289.358 220.544 289.718 220.384C290.078 220.216 290.466 220.132 290.882 220.132C291.546 220.132 292.086 220.272 292.502 220.552C292.918 220.824 293.214 221.18 293.39 221.62C293.574 222.052 293.666 222.512 293.666 223C293.666 223.576 293.558 224.092 293.342 224.548C293.126 225.004 292.794 225.364 292.346 225.628C291.906 225.892 291.358 226.024 290.702 226.024C289.862 226.024 289.182 225.808 288.662 225.376C288.142 224.944 287.826 224.368 287.714 223.648H288.782C288.886 224.104 289.106 224.46 289.442 224.716C289.778 224.972 290.202 225.1 290.714 225.1C291.346 225.1 291.822 224.912 292.142 224.536C292.462 224.152 292.622 223.648 292.622 223.024C292.622 222.4 292.462 221.92 292.142 221.584C291.822 221.24 291.35 221.068 290.726 221.068C290.302 221.068 289.93 221.172 289.61 221.38C289.298 221.58 289.07 221.856 288.926 222.208H287.894V217.312H293.114V218.272ZM295.117 221.572C295.117 220.196 295.341 219.124 295.789 218.356C296.237 217.58 297.021 217.192 298.141 217.192C299.253 217.192 300.033 217.58 300.481 218.356C300.929 219.124 301.153 220.196 301.153 221.572C301.153 222.972 300.929 224.06 300.481 224.836C300.033 225.612 299.253 226 298.141 226C297.021 226 296.237 225.612 295.789 224.836C295.341 224.06 295.117 222.972 295.117 221.572ZM300.073 221.572C300.073 220.876 300.025 220.288 299.929 219.808C299.841 219.32 299.653 218.928 299.365 218.632C299.085 218.336 298.677 218.188 298.141 218.188C297.597 218.188 297.181 218.336 296.893 218.632C296.613 218.928 296.425 219.32 296.329 219.808C296.241 220.288 296.197 220.876 296.197 221.572C296.197 222.292 296.241 222.896 296.329 223.384C296.425 223.872 296.613 224.264 296.893 224.56C297.181 224.856 297.597 225.004 298.141 225.004C298.677 225.004 299.085 224.856 299.365 224.56C299.653 224.264 299.841 223.872 299.929 223.384C300.025 222.896 300.073 222.292 300.073 221.572Z" fill="#595F69"/>
<path d="M30.08 51.14C29.1467 51.14 28.3067 50.98 27.56 50.66C26.8133 50.3267 26.2267 49.86 25.8 49.26C25.3733 48.66 25.16 47.96 25.16 47.16H27.6C27.6533 47.76 27.8867 48.2533 28.3 48.64C28.7267 49.0267 29.32 49.22 30.08 49.22C30.8667 49.22 31.48 49.0333 31.92 48.66C32.36 48.2733 32.58 47.78 32.58 47.18C32.58 46.7133 32.44 46.3333 32.16 46.04C31.8933 45.7467 31.5533 45.52 31.14 45.36C30.74 45.2 30.18 45.0267 29.46 44.84C28.5533 44.6 27.8133 44.36 27.24 44.12C26.68 43.8667 26.2 43.48 25.8 42.96C25.4 42.44 25.2 41.7467 25.2 40.88C25.2 40.08 25.4 39.38 25.8 38.78C26.2 38.18 26.76 37.72 27.48 37.4C28.2 37.08 29.0333 36.92 29.98 36.92C31.3267 36.92 32.4267 37.26 33.28 37.94C34.1467 38.6067 34.6267 39.5267 34.72 40.7H32.2C32.16 40.1933 31.92 39.76 31.48 39.4C31.04 39.04 30.46 38.86 29.74 38.86C29.0867 38.86 28.5533 39.0267 28.14 39.36C27.7267 39.6933 27.52 40.1733 27.52 40.8C27.52 41.2267 27.6467 41.58 27.9 41.86C28.1667 42.1267 28.5 42.34 28.9 42.5C29.3 42.66 29.8467 42.8333 30.54 43.02C31.46 43.2733 32.2067 43.5267 32.78 43.78C33.3667 44.0333 33.86 44.4267 34.26 44.96C34.6733 45.48 34.88 46.18 34.88 47.06C34.88 47.7667 34.6867 48.4333 34.3 49.06C33.9267 49.6867 33.3733 50.1933 32.64 50.58C31.92 50.9533 31.0667 51.14 30.08 51.14ZM40.2303 41.84V47.94C40.2303 48.3533 40.3236 48.6533 40.5103 48.84C40.7103 49.0133 41.0436 49.1 41.5103 49.1H42.9103V51H41.1103C40.0836 51 39.297 50.76 38.7503 50.28C38.2036 49.8 37.9303 49.02 37.9303 47.94V41.84H36.6303V39.98H37.9303V37.24H40.2303V39.98H42.9103V41.84H40.2303ZM44.2517 45.44C44.2517 44.3333 44.4784 43.3533 44.9317 42.5C45.3984 41.6467 46.0251 40.9867 46.8117 40.52C47.6117 40.04 48.4917 39.8 49.4517 39.8C50.3184 39.8 51.0717 39.9733 51.7117 40.32C52.3651 40.6533 52.8851 41.0733 53.2717 41.58V39.98H55.5717V51H53.2717V49.36C52.8851 49.88 52.3584 50.3133 51.6917 50.66C51.0251 51.0067 50.2651 51.18 49.4117 51.18C48.4651 51.18 47.5984 50.94 46.8117 50.46C46.0251 49.9667 45.3984 49.2867 44.9317 48.42C44.4784 47.54 44.2517 46.5467 44.2517 45.44ZM53.2717 45.48C53.2717 44.72 53.1117 44.06 52.7917 43.5C52.4851 42.94 52.0784 42.5133 51.5717 42.22C51.0651 41.9267 50.5184 41.78 49.9317 41.78C49.3451 41.78 48.7984 41.9267 48.2917 42.22C47.7851 42.5 47.3717 42.92 47.0517 43.48C46.7451 44.0267 46.5917 44.68 46.5917 45.44C46.5917 46.2 46.7451 46.8667 47.0517 47.44C47.3717 48.0133 47.7851 48.4533 48.2917 48.76C48.8117 49.0533 49.3584 49.2 49.9317 49.2C50.5184 49.2 51.0651 49.0533 51.5717 48.76C52.0784 48.4667 52.4851 48.04 52.7917 47.48C53.1117 46.9067 53.2717 46.24 53.2717 45.48ZM61.2264 41.84V47.94C61.2264 48.3533 61.3197 48.6533 61.5064 48.84C61.7064 49.0133 62.0397 49.1 62.5064 49.1H63.9064V51H62.1064C61.0797 51 60.2931 50.76 59.7464 50.28C59.1997 49.8 58.9264 49.02 58.9264 47.94V41.84H57.6264V39.98H58.9264V37.24H61.2264V39.98H63.9064V41.84H61.2264ZM67.1678 38.52C66.7545 38.52 66.4078 38.38 66.1278 38.1C65.8478 37.82 65.7078 37.4733 65.7078 37.06C65.7078 36.6467 65.8478 36.3 66.1278 36.02C66.4078 35.74 66.7545 35.6 67.1678 35.6C67.5678 35.6 67.9078 35.74 68.1878 36.02C68.4678 36.3 68.6078 36.6467 68.6078 37.06C68.6078 37.4733 68.4678 37.82 68.1878 38.1C67.9078 38.38 67.5678 38.52 67.1678 38.52ZM68.2878 39.98V51H66.0078V39.98H68.2878ZM75.2813 51.18C74.4146 51.18 73.6346 51.0267 72.9413 50.72C72.2613 50.4 71.7213 49.9733 71.3213 49.44C70.9213 48.8933 70.7079 48.2867 70.6813 47.62H73.0413C73.0813 48.0867 73.3013 48.48 73.7013 48.8C74.1146 49.1067 74.6279 49.26 75.2413 49.26C75.8813 49.26 76.3746 49.14 76.7213 48.9C77.0813 48.6467 77.2613 48.3267 77.2613 47.94C77.2613 47.5267 77.0613 47.22 76.6613 47.02C76.2746 46.82 75.6546 46.6 74.8013 46.36C73.9746 46.1333 73.3013 45.9133 72.7813 45.7C72.2613 45.4867 71.8079 45.16 71.4213 44.72C71.0479 44.28 70.8613 43.7 70.8613 42.98C70.8613 42.3933 71.0346 41.86 71.3813 41.38C71.7279 40.8867 72.2213 40.5 72.8613 40.22C73.5146 39.94 74.2613 39.8 75.1013 39.8C76.3546 39.8 77.3613 40.12 78.1213 40.76C78.8946 41.3867 79.3079 42.2467 79.3613 43.34H77.0813C77.0413 42.8467 76.8413 42.4533 76.4813 42.16C76.1213 41.8667 75.6346 41.72 75.0213 41.72C74.4213 41.72 73.9613 41.8333 73.6413 42.06C73.3213 42.2867 73.1613 42.5867 73.1613 42.96C73.1613 43.2533 73.2679 43.5 73.4813 43.7C73.6946 43.9 73.9546 44.06 74.2613 44.18C74.5679 44.2867 75.0213 44.4267 75.6213 44.6C76.4213 44.8133 77.0746 45.0333 77.5813 45.26C78.1013 45.4733 78.5479 45.7933 78.9213 46.22C79.2946 46.6467 79.4879 47.2133 79.5013 47.92C79.5013 48.5467 79.3279 49.1067 78.9813 49.6C78.6346 50.0933 78.1413 50.48 77.5013 50.76C76.8746 51.04 76.1346 51.18 75.2813 51.18ZM84.6248 41.84V47.94C84.6248 48.3533 84.7182 48.6533 84.9048 48.84C85.1048 49.0133 85.4382 49.1 85.9048 49.1H87.3048V51H85.5048C84.4782 51 83.6915 50.76 83.1448 50.28C82.5982 49.8 82.3248 49.02 82.3248 47.94V41.84H81.0248V39.98H82.3248V37.24H84.6248V39.98H87.3048V41.84H84.6248ZM90.5663 38.52C90.1529 38.52 89.8063 38.38 89.5263 38.1C89.2463 37.82 89.1063 37.4733 89.1063 37.06C89.1063 36.6467 89.2463 36.3 89.5263 36.02C89.8063 35.74 90.1529 35.6 90.5663 35.6C90.9663 35.6 91.3063 35.74 91.5863 36.02C91.8663 36.3 92.0063 36.6467 92.0063 37.06C92.0063 37.4733 91.8663 37.82 91.5863 38.1C91.3063 38.38 90.9663 38.52 90.5663 38.52ZM91.6863 39.98V51H89.4063V39.98H91.6863ZM93.9197 45.48C93.9197 44.3467 94.1464 43.3533 94.5997 42.5C95.0664 41.6333 95.7064 40.9667 96.5197 40.5C97.333 40.0333 98.2664 39.8 99.3197 39.8C100.653 39.8 101.753 40.12 102.62 40.76C103.5 41.3867 104.093 42.2867 104.4 43.46H101.94C101.74 42.9133 101.42 42.4867 100.98 42.18C100.54 41.8733 99.9864 41.72 99.3197 41.72C98.3864 41.72 97.6397 42.0533 97.0797 42.72C96.533 43.3733 96.2597 44.2933 96.2597 45.48C96.2597 46.6667 96.533 47.5933 97.0797 48.26C97.6397 48.9267 98.3864 49.26 99.3197 49.26C100.64 49.26 101.513 48.68 101.94 47.52H104.4C104.08 48.64 103.48 49.5333 102.6 50.2C101.72 50.8533 100.626 51.18 99.3197 51.18C98.2664 51.18 97.333 50.9467 96.5197 50.48C95.7064 50 95.0664 49.3333 94.5997 48.48C94.1464 47.6133 93.9197 46.6133 93.9197 45.48ZM110.672 51.18C109.805 51.18 109.025 51.0267 108.332 50.72C107.652 50.4 107.112 49.9733 106.712 49.44C106.312 48.8933 106.099 48.2867 106.072 47.62H108.432C108.472 48.0867 108.692 48.48 109.092 48.8C109.505 49.1067 110.019 49.26 110.632 49.26C111.272 49.26 111.765 49.14 112.112 48.9C112.472 48.6467 112.652 48.3267 112.652 47.94C112.652 47.5267 112.452 47.22 112.052 47.02C111.665 46.82 111.045 46.6 110.192 46.36C109.365 46.1333 108.692 45.9133 108.172 45.7C107.652 45.4867 107.199 45.16 106.812 44.72C106.439 44.28 106.252 43.7 106.252 42.98C106.252 42.3933 106.425 41.86 106.772 41.38C107.119 40.8867 107.612 40.5 108.252 40.22C108.905 39.94 109.652 39.8 110.492 39.8C111.745 39.8 112.752 40.12 113.512 40.76C114.285 41.3867 114.699 42.2467 114.752 43.34H112.472C112.432 42.8467 112.232 42.4533 111.872 42.16C111.512 41.8667 111.025 41.72 110.412 41.72C109.812 41.72 109.352 41.8333 109.032 42.06C108.712 42.2867 108.552 42.5867 108.552 42.96C108.552 43.2533 108.659 43.5 108.872 43.7C109.085 43.9 109.345 44.06 109.652 44.18C109.959 44.2867 110.412 44.4267 111.012 44.6C111.812 44.8133 112.465 45.0333 112.972 45.26C113.492 45.4733 113.939 45.7933 114.312 46.22C114.685 46.6467 114.879 47.2133 114.892 47.92C114.892 48.5467 114.719 49.1067 114.372 49.6C114.025 50.0933 113.532 50.48 112.892 50.76C112.265 51.04 111.525 51.18 110.672 51.18Z" fill="#3F434A"/>
</g>
<defs>
<filter id="filter0_d_5340_6461" x="-28" y="-16" width="588" height="450" filterUnits="userSpaceOnUse" color-interpolation-filters="sRGB">
<feFlood flood-opacity="0" result="BackgroundImageFix"/>
<feColorMatrix in="SourceAlpha" type="matrix" values="0 0 0 0 0 0 0 0 0 0 0 0 0 0 0 0 0 0 127 0" result="hardAlpha"/>
<feOffset dx="-4" dy="8"/>
<feGaussianBlur stdDeviation="12"/>
<feColorMatrix type="matrix" values="0 0 0 0 0.172549 0 0 0 0 0.247059 0 0 0 0 0.345098 0 0 0 0.02 0"/>
<feBlend mode="normal" in2="BackgroundImageFix" result="effect1_dropShadow_5340_6461"/>
<feBlend mode="normal" in="SourceGraphic" in2="effect1_dropShadow_5340_6461" result="shape"/>
</filter>
<filter id="filter1_d_5340_6461" x="224" y="191" width="130" height="83" filterUnits="userSpaceOnUse" color-interpolation-filters="sRGB">
<feFlood flood-opacity="0" result="BackgroundImageFix"/>
<feColorMatrix in="SourceAlpha" type="matrix" values="0 0 0 0 0 0 0 0 0 0 0 0 0 0 0 0 0 0 127 0" result="hardAlpha"/>
<feOffset dy="8"/>
<feGaussianBlur stdDeviation="12"/>
<feColorMatrix type="matrix" values="0 0 0 0 0.172549 0 0 0 0 0.247059 0 0 0 0 0.345098 0 0 0 0.1 0"/>
<feBlend mode="normal" in2="BackgroundImageFix" result="effect1_dropShadow_5340_6461"/>
<feBlend mode="normal" in="SourceGraphic" in2="effect1_dropShadow_5340_6461" result="shape"/>
</filter>
<clipPath id="clip0_5340_6461">
<rect width="540" height="402" fill="white"/>
</clipPath>
<clipPath id="clip1_5340_6461">
<rect width="439" height="17" fill="white" transform="translate(69 319)"/>
</clipPath>
<clipPath id="clip2_5340_6461">
<rect width="23" height="221" fill="white" transform="translate(24 95)"/>
</clipPath>
<clipPath id="clip3_5340_6461">
<rect width="82" height="35" fill="white" transform="matrix(1 0 0 -1 248 242)"/>
</clipPath>
</defs>
</svg>
