<svg width="350" height="378" viewBox="0 0 350 378" fill="none" xmlns="http://www.w3.org/2000/svg">
<mask id="mask0_5340_5795" style="mask-type:luminance" maskUnits="userSpaceOnUse" x="0" y="0" width="350" height="378">
<rect width="350" height="378" fill="white"/>
</mask>
<g mask="url(#mask0_5340_5795)">
<rect width="350" height="378" fill="white"/>
</g>
<g clip-path="url(#clip0_5340_5795)">
<rect x="24" y="319" width="40" height="40" rx="14" fill="white"/>
<mask id="mask1_5340_5795" style="mask-type:luminance" maskUnits="userSpaceOnUse" x="24" y="319" width="40" height="40">
<rect x="24" y="319" width="40" height="40" rx="14" fill="white"/>
</mask>
<g mask="url(#mask1_5340_5795)">
<g opacity="0.1">
<rect x="24" y="319" width="50" height="50" fill="#304FFD"/>
</g>
</g>
<mask id="mask2_5340_5795" style="mask-type:luminance" maskUnits="userSpaceOnUse" x="37" y="331" width="14" height="17">
<path fill-rule="evenodd" clip-rule="evenodd" d="M41.8746 333.167V332.5H46.1253V333.9H41.8746V333.233C41.8751 333.222 41.8753 333.211 41.8753 333.2C41.8753 333.189 41.8751 333.178 41.8746 333.167ZM40.3748 332.45H39.6877C39.1054 332.45 38.5482 332.684 38.1385 333.097C37.7289 333.51 37.5 334.069 37.5 334.65V344.802C37.5 345.384 37.7289 345.942 38.1385 346.356C38.5482 346.769 39.1053 347.002 39.6877 347.002H48.3137C48.896 347.002 49.4531 346.769 49.8629 346.356C50.2724 345.942 50.5013 345.384 50.5013 344.802V334.65C50.5013 334.069 50.2724 333.51 49.8629 333.097C49.4531 332.684 48.896 332.45 48.3137 332.45H47.6251C47.6119 331.653 46.9654 331 46.1565 331H41.8435C41.0345 331 40.388 331.653 40.3748 332.45ZM47.6251 333.95C47.6119 334.748 46.9654 335.4 46.1565 335.4H41.8435C41.0345 335.4 40.388 334.748 40.3748 333.95H39.6877C39.5074 333.95 39.3332 334.022 39.2037 334.153C39.074 334.284 39 334.463 39 334.65V344.802C39 344.99 39.074 345.169 39.2037 345.3C39.3332 345.43 39.5074 345.502 39.6877 345.502H48.3137C48.4939 345.502 48.6682 345.43 48.7976 345.3C48.9273 345.169 49.0013 344.99 49.0013 344.802V334.65C49.0013 334.463 48.9273 334.284 48.7976 334.153C48.6682 334.022 48.4939 333.95 48.3137 333.95H47.6251Z" fill="white"/>
</mask>
<g mask="url(#mask2_5340_5795)">
<rect x="34" y="329" width="20" height="20" fill="#304FFD"/>
</g>
<path d="M80.602 350.114C80.602 349.162 80.8167 348.308 81.246 347.552C81.6753 346.787 82.2587 346.189 82.996 345.76C83.7427 345.331 84.5687 345.116 85.474 345.116C86.538 345.116 87.4667 345.373 88.26 345.886C89.0533 346.399 89.632 347.127 89.996 348.07H88.47C88.1993 347.482 87.8073 347.029 87.294 346.712C86.79 346.395 86.1833 346.236 85.474 346.236C84.7927 346.236 84.1813 346.395 83.64 346.712C83.0987 347.029 82.674 347.482 82.366 348.07C82.058 348.649 81.904 349.33 81.904 350.114C81.904 350.889 82.058 351.57 82.366 352.158C82.674 352.737 83.0987 353.185 83.64 353.502C84.1813 353.819 84.7927 353.978 85.474 353.978C86.1833 353.978 86.79 353.824 87.294 353.516C87.8073 353.199 88.1993 352.746 88.47 352.158H89.996C89.632 353.091 89.0533 353.815 88.26 354.328C87.4667 354.832 86.538 355.084 85.474 355.084C84.5687 355.084 83.7427 354.874 82.996 354.454C82.2587 354.025 81.6753 353.432 81.246 352.676C80.8167 351.92 80.602 351.066 80.602 350.114ZM98.6965 347.328V355H97.4225V353.866C97.1798 354.258 96.8391 354.566 96.4005 354.79C95.9711 355.005 95.4951 355.112 94.9725 355.112C94.3751 355.112 93.8385 354.991 93.3625 354.748C92.8865 354.496 92.5085 354.123 92.2285 353.628C91.9578 353.133 91.8225 352.531 91.8225 351.822V347.328H93.0825V351.654C93.0825 352.41 93.2738 352.993 93.6565 353.404C94.0391 353.805 94.5618 354.006 95.2245 354.006C95.9058 354.006 96.4425 353.796 96.8345 353.376C97.2265 352.956 97.4225 352.345 97.4225 351.542V347.328H98.6965ZM102.122 348.574C102.346 348.135 102.663 347.795 103.074 347.552C103.494 347.309 104.002 347.188 104.6 347.188V348.504H104.264C102.836 348.504 102.122 349.279 102.122 350.828V355H100.848V347.328H102.122V348.574ZM107.344 348.574C107.568 348.135 107.886 347.795 108.296 347.552C108.716 347.309 109.225 347.188 109.822 347.188V348.504H109.486C108.058 348.504 107.344 349.279 107.344 350.828V355H106.07V347.328H107.344V348.574ZM118.293 350.87C118.293 351.113 118.279 351.369 118.251 351.64H112.119C112.166 352.396 112.422 352.989 112.889 353.418C113.365 353.838 113.939 354.048 114.611 354.048C115.162 354.048 115.619 353.922 115.983 353.67C116.356 353.409 116.618 353.063 116.767 352.634H118.139C117.934 353.371 117.523 353.973 116.907 354.44C116.291 354.897 115.526 355.126 114.611 355.126C113.883 355.126 113.23 354.963 112.651 354.636C112.082 354.309 111.634 353.847 111.307 353.25C110.98 352.643 110.817 351.943 110.817 351.15C110.817 350.357 110.976 349.661 111.293 349.064C111.61 348.467 112.054 348.009 112.623 347.692C113.202 347.365 113.864 347.202 114.611 347.202C115.339 347.202 115.983 347.361 116.543 347.678C117.103 347.995 117.532 348.434 117.831 348.994C118.139 349.545 118.293 350.17 118.293 350.87ZM116.977 350.604C116.977 350.119 116.87 349.703 116.655 349.358C116.44 349.003 116.146 348.737 115.773 348.56C115.409 348.373 115.003 348.28 114.555 348.28C113.911 348.28 113.36 348.485 112.903 348.896C112.455 349.307 112.198 349.876 112.133 350.604H116.977ZM123.712 347.188C124.646 347.188 125.402 347.473 125.98 348.042C126.559 348.602 126.848 349.414 126.848 350.478V355H125.588V350.66C125.588 349.895 125.397 349.311 125.014 348.91C124.632 348.499 124.109 348.294 123.446 348.294C122.774 348.294 122.238 348.504 121.836 348.924C121.444 349.344 121.248 349.955 121.248 350.758V355H119.974V347.328H121.248V348.42C121.5 348.028 121.841 347.725 122.27 347.51C122.709 347.295 123.19 347.188 123.712 347.188ZM130.484 348.378V352.9C130.484 353.273 130.563 353.539 130.722 353.698C130.88 353.847 131.156 353.922 131.548 353.922H132.486V355H131.338C130.628 355 130.096 354.837 129.742 354.51C129.387 354.183 129.21 353.647 129.21 352.9V348.378H128.216V347.328H129.21V345.396H130.484V347.328H132.486V348.378H130.484ZM150.026 345.242L147.198 355H145.77L143.502 347.146L141.15 355L139.736 355.014L137.006 345.242H138.364L140.492 353.516L142.844 345.242H144.272L146.512 353.488L148.654 345.242H150.026ZM158.42 350.87C158.42 351.113 158.406 351.369 158.378 351.64H152.246C152.292 352.396 152.549 352.989 153.016 353.418C153.492 353.838 154.066 354.048 154.738 354.048C155.288 354.048 155.746 353.922 156.11 353.67C156.483 353.409 156.744 353.063 156.894 352.634H158.266C158.06 353.371 157.65 353.973 157.034 354.44C156.418 354.897 155.652 355.126 154.738 355.126C154.01 355.126 153.356 354.963 152.778 354.636C152.208 354.309 151.76 353.847 151.434 353.25C151.107 352.643 150.944 351.943 150.944 351.15C150.944 350.357 151.102 349.661 151.42 349.064C151.737 348.467 152.18 348.009 152.75 347.692C153.328 347.365 153.991 347.202 154.738 347.202C155.466 347.202 156.11 347.361 156.67 347.678C157.23 347.995 157.659 348.434 157.958 348.994C158.266 349.545 158.42 350.17 158.42 350.87ZM157.104 350.604C157.104 350.119 156.996 349.703 156.782 349.358C156.567 349.003 156.273 348.737 155.9 348.56C155.536 348.373 155.13 348.28 154.682 348.28C154.038 348.28 153.487 348.485 153.03 348.896C152.582 349.307 152.325 349.876 152.26 350.604H157.104ZM167.101 350.87C167.101 351.113 167.087 351.369 167.059 351.64H160.927C160.974 352.396 161.231 352.989 161.697 353.418C162.173 353.838 162.747 354.048 163.419 354.048C163.97 354.048 164.427 353.922 164.791 353.67C165.165 353.409 165.426 353.063 165.575 352.634H166.947C166.742 353.371 166.331 353.973 165.715 354.44C165.099 354.897 164.334 355.126 163.419 355.126C162.691 355.126 162.038 354.963 161.459 354.636C160.89 354.309 160.442 353.847 160.115 353.25C159.789 352.643 159.625 351.943 159.625 351.15C159.625 350.357 159.784 349.661 160.101 349.064C160.419 348.467 160.862 348.009 161.431 347.692C162.01 347.365 162.673 347.202 163.419 347.202C164.147 347.202 164.791 347.361 165.351 347.678C165.911 347.995 166.341 348.434 166.639 348.994C166.947 349.545 167.101 350.17 167.101 350.87ZM165.785 350.604C165.785 350.119 165.678 349.703 165.463 349.358C165.249 349.003 164.955 348.737 164.581 348.56C164.217 348.373 163.811 348.28 163.363 348.28C162.719 348.28 162.169 348.485 161.711 348.896C161.263 349.307 161.007 349.876 160.941 350.604H165.785ZM173.067 355L170.057 351.612V355H168.783V344.64H170.057V350.73L173.011 347.328H174.789L171.177 351.15L174.803 355H173.067Z" fill="#8A9099"/>
<path d="M80.645 329.765C80.645 328.745 80.875 327.83 81.335 327.02C81.795 326.2 82.42 325.56 83.21 325.1C84.01 324.64 84.895 324.41 85.865 324.41C87.005 324.41 88 324.685 88.85 325.235C89.7 325.785 90.32 326.565 90.71 327.575H89.075C88.785 326.945 88.365 326.46 87.815 326.12C87.275 325.78 86.625 325.61 85.865 325.61C85.135 325.61 84.48 325.78 83.9 326.12C83.32 326.46 82.865 326.945 82.535 327.575C82.205 328.195 82.04 328.925 82.04 329.765C82.04 330.595 82.205 331.325 82.535 331.955C82.865 332.575 83.32 333.055 83.9 333.395C84.48 333.735 85.135 333.905 85.865 333.905C86.625 333.905 87.275 333.74 87.815 333.41C88.365 333.07 88.785 332.585 89.075 331.955H90.71C90.32 332.955 89.7 333.73 88.85 334.28C88 334.82 87.005 335.09 85.865 335.09C84.895 335.09 84.01 334.865 83.21 334.415C82.42 333.955 81.795 333.32 81.335 332.51C80.875 331.7 80.645 330.785 80.645 329.765ZM96.3269 335.135C95.5569 335.135 94.8569 334.96 94.2269 334.61C93.6069 334.26 93.1169 333.765 92.7569 333.125C92.4069 332.475 92.2319 331.725 92.2319 330.875C92.2319 330.035 92.4119 329.295 92.7719 328.655C93.1419 328.005 93.6419 327.51 94.2719 327.17C94.9019 326.82 95.6069 326.645 96.3869 326.645C97.1669 326.645 97.8719 326.82 98.5019 327.17C99.1319 327.51 99.6269 328 99.9869 328.64C100.357 329.28 100.542 330.025 100.542 330.875C100.542 331.725 100.352 332.475 99.9719 333.125C99.6019 333.765 99.0969 334.26 98.4569 334.61C97.8169 334.96 97.1069 335.135 96.3269 335.135ZM96.3269 333.935C96.8169 333.935 97.2769 333.82 97.7069 333.59C98.1369 333.36 98.4819 333.015 98.7419 332.555C99.0119 332.095 99.1469 331.535 99.1469 330.875C99.1469 330.215 99.0169 329.655 98.7569 329.195C98.4969 328.735 98.1569 328.395 97.7369 328.175C97.3169 327.945 96.8619 327.83 96.3719 327.83C95.8719 327.83 95.4119 327.945 94.9919 328.175C94.5819 328.395 94.2519 328.735 94.0019 329.195C93.7519 329.655 93.6269 330.215 93.6269 330.875C93.6269 331.545 93.7469 332.11 93.9869 332.57C94.2369 333.03 94.5669 333.375 94.9769 333.605C95.3869 333.825 95.8369 333.935 96.3269 333.935ZM112.222 326.63C112.862 326.63 113.432 326.765 113.932 327.035C114.432 327.295 114.827 327.69 115.117 328.22C115.407 328.75 115.552 329.395 115.552 330.155V335H114.202V330.35C114.202 329.53 113.997 328.905 113.587 328.475C113.187 328.035 112.642 327.815 111.952 327.815C111.242 327.815 110.677 328.045 110.257 328.505C109.837 328.955 109.627 329.61 109.627 330.47V335H108.277V330.35C108.277 329.53 108.072 328.905 107.662 328.475C107.262 328.035 106.717 327.815 106.027 327.815C105.317 327.815 104.752 328.045 104.332 328.505C103.912 328.955 103.702 329.61 103.702 330.47V335H102.337V326.78H103.702V327.965C103.972 327.535 104.332 327.205 104.782 326.975C105.242 326.745 105.747 326.63 106.297 326.63C106.987 326.63 107.597 326.785 108.127 327.095C108.657 327.405 109.052 327.86 109.312 328.46C109.542 327.88 109.922 327.43 110.452 327.11C110.982 326.79 111.572 326.63 112.222 326.63ZM119.156 328.295C119.426 327.825 119.826 327.435 120.356 327.125C120.896 326.805 121.521 326.645 122.231 326.645C122.961 326.645 123.621 326.82 124.211 327.17C124.811 327.52 125.281 328.015 125.621 328.655C125.961 329.285 126.131 330.02 126.131 330.86C126.131 331.69 125.961 332.43 125.621 333.08C125.281 333.73 124.811 334.235 124.211 334.595C123.621 334.955 122.961 335.135 122.231 335.135C121.531 335.135 120.911 334.98 120.371 334.67C119.841 334.35 119.436 333.955 119.156 333.485V338.9H117.791V326.78H119.156V328.295ZM124.736 330.86C124.736 330.24 124.611 329.7 124.361 329.24C124.111 328.78 123.771 328.43 123.341 328.19C122.921 327.95 122.456 327.83 121.946 327.83C121.446 327.83 120.981 327.955 120.551 328.205C120.131 328.445 119.791 328.8 119.531 329.27C119.281 329.73 119.156 330.265 119.156 330.875C119.156 331.495 119.281 332.04 119.531 332.51C119.791 332.97 120.131 333.325 120.551 333.575C120.981 333.815 121.446 333.935 121.946 333.935C122.456 333.935 122.921 333.815 123.341 333.575C123.771 333.325 124.111 332.97 124.361 332.51C124.611 332.04 124.736 331.49 124.736 330.86ZM129.292 323.9V335H127.927V323.9H129.292ZM139.119 330.575C139.119 330.835 139.104 331.11 139.074 331.4H132.504C132.554 332.21 132.829 332.845 133.329 333.305C133.839 333.755 134.454 333.98 135.174 333.98C135.764 333.98 136.254 333.845 136.644 333.575C137.044 333.295 137.324 332.925 137.484 332.465H138.954C138.734 333.255 138.294 333.9 137.634 334.4C136.974 334.89 136.154 335.135 135.174 335.135C134.394 335.135 133.694 334.96 133.074 334.61C132.464 334.26 131.984 333.765 131.634 333.125C131.284 332.475 131.109 331.725 131.109 330.875C131.109 330.025 131.279 329.28 131.619 328.64C131.959 328 132.434 327.51 133.044 327.17C133.664 326.82 134.374 326.645 135.174 326.645C135.954 326.645 136.644 326.815 137.244 327.155C137.844 327.495 138.304 327.965 138.624 328.565C138.954 329.155 139.119 329.825 139.119 330.575ZM137.709 330.29C137.709 329.77 137.594 329.325 137.364 328.955C137.134 328.575 136.819 328.29 136.419 328.1C136.029 327.9 135.594 327.8 135.114 327.8C134.424 327.8 133.834 328.02 133.344 328.46C132.864 328.9 132.589 329.51 132.519 330.29H137.709ZM142.586 327.905V332.75C142.586 333.15 142.671 333.435 142.841 333.605C143.011 333.765 143.306 333.845 143.726 333.845H144.731V335H143.501C142.741 335 142.171 334.825 141.791 334.475C141.411 334.125 141.221 333.55 141.221 332.75V327.905H140.156V326.78H141.221V324.71H142.586V326.78H144.731V327.905H142.586ZM153.884 330.575C153.884 330.835 153.869 331.11 153.839 331.4H147.269C147.319 332.21 147.594 332.845 148.094 333.305C148.604 333.755 149.219 333.98 149.939 333.98C150.529 333.98 151.019 333.845 151.409 333.575C151.809 333.295 152.089 332.925 152.249 332.465H153.719C153.499 333.255 153.059 333.9 152.399 334.4C151.739 334.89 150.919 335.135 149.939 335.135C149.159 335.135 148.459 334.96 147.839 334.61C147.229 334.26 146.749 333.765 146.399 333.125C146.049 332.475 145.874 331.725 145.874 330.875C145.874 330.025 146.044 329.28 146.384 328.64C146.724 328 147.199 327.51 147.809 327.17C148.429 326.82 149.139 326.645 149.939 326.645C150.719 326.645 151.409 326.815 152.009 327.155C152.609 327.495 153.069 327.965 153.389 328.565C153.719 329.155 153.884 329.825 153.884 330.575ZM152.474 330.29C152.474 329.77 152.359 329.325 152.129 328.955C151.899 328.575 151.584 328.29 151.184 328.1C150.794 327.9 150.359 327.8 149.879 327.8C149.189 327.8 148.599 328.02 148.109 328.46C147.629 328.9 147.354 329.51 147.284 330.29H152.474ZM155.176 330.86C155.176 330.02 155.346 329.285 155.686 328.655C156.026 328.015 156.491 327.52 157.081 327.17C157.681 326.82 158.351 326.645 159.091 326.645C159.731 326.645 160.326 326.795 160.876 327.095C161.426 327.385 161.846 327.77 162.136 328.25V323.9H163.516V335H162.136V333.455C161.866 333.945 161.466 334.35 160.936 334.67C160.406 334.98 159.786 335.135 159.076 335.135C158.346 335.135 157.681 334.955 157.081 334.595C156.491 334.235 156.026 333.73 155.686 333.08C155.346 332.43 155.176 331.69 155.176 330.86ZM162.136 330.875C162.136 330.255 162.011 329.715 161.761 329.255C161.511 328.795 161.171 328.445 160.741 328.205C160.321 327.955 159.856 327.83 159.346 327.83C158.836 327.83 158.371 327.95 157.951 328.19C157.531 328.43 157.196 328.78 156.946 329.24C156.696 329.7 156.571 330.24 156.571 330.86C156.571 331.49 156.696 332.04 156.946 332.51C157.196 332.97 157.531 333.325 157.951 333.575C158.371 333.815 158.836 333.935 159.346 333.935C159.856 333.935 160.321 333.815 160.741 333.575C161.171 333.325 161.511 332.97 161.761 332.51C162.011 332.04 162.136 331.495 162.136 330.875ZM176.812 327.605C176.812 328.475 176.512 329.2 175.912 329.78C175.322 330.35 174.417 330.635 173.197 330.635H171.187V335H169.822V324.545H173.197C174.377 324.545 175.272 324.83 175.882 325.4C176.502 325.97 176.812 326.705 176.812 327.605ZM173.197 329.51C173.957 329.51 174.517 329.345 174.877 329.015C175.237 328.685 175.417 328.215 175.417 327.605C175.417 326.315 174.677 325.67 173.197 325.67H171.187V329.51H173.197ZM179.874 328.115C180.114 327.645 180.454 327.28 180.894 327.02C181.344 326.76 181.889 326.63 182.529 326.63V328.04H182.169C180.639 328.04 179.874 328.87 179.874 330.53V335H178.509V326.78H179.874V328.115ZM187.689 335.135C186.919 335.135 186.219 334.96 185.589 334.61C184.969 334.26 184.479 333.765 184.119 333.125C183.769 332.475 183.594 331.725 183.594 330.875C183.594 330.035 183.774 329.295 184.134 328.655C184.504 328.005 185.004 327.51 185.634 327.17C186.264 326.82 186.969 326.645 187.749 326.645C188.529 326.645 189.234 326.82 189.864 327.17C190.494 327.51 190.989 328 191.349 328.64C191.719 329.28 191.904 330.025 191.904 330.875C191.904 331.725 191.714 332.475 191.334 333.125C190.964 333.765 190.459 334.26 189.819 334.61C189.179 334.96 188.469 335.135 187.689 335.135ZM187.689 333.935C188.179 333.935 188.639 333.82 189.069 333.59C189.499 333.36 189.844 333.015 190.104 332.555C190.374 332.095 190.509 331.535 190.509 330.875C190.509 330.215 190.379 329.655 190.119 329.195C189.859 328.735 189.519 328.395 189.099 328.175C188.679 327.945 188.224 327.83 187.734 327.83C187.234 327.83 186.774 327.945 186.354 328.175C185.944 328.395 185.614 328.735 185.364 329.195C185.114 329.655 184.989 330.215 184.989 330.875C184.989 331.545 185.109 332.11 185.349 332.57C185.599 333.03 185.929 333.375 186.339 333.605C186.749 333.825 187.199 333.935 187.689 333.935ZM194.434 325.445C194.174 325.445 193.954 325.355 193.774 325.175C193.604 324.995 193.519 324.775 193.519 324.515C193.519 324.255 193.604 324.035 193.774 323.855C193.954 323.675 194.174 323.585 194.434 323.585C194.694 323.585 194.909 323.675 195.079 323.855C195.259 324.035 195.349 324.255 195.349 324.515C195.349 324.775 195.259 324.995 195.079 325.175C194.909 325.355 194.694 325.445 194.434 325.445ZM195.109 336.785C195.109 337.515 194.924 338.05 194.554 338.39C194.184 338.73 193.644 338.9 192.934 338.9H192.139V337.745H192.709C193.089 337.745 193.354 337.67 193.504 337.52C193.664 337.37 193.744 337.115 193.744 336.755V326.78H195.109V336.785ZM204.92 330.575C204.92 330.835 204.905 331.11 204.875 331.4H198.305C198.355 332.21 198.63 332.845 199.13 333.305C199.64 333.755 200.255 333.98 200.975 333.98C201.565 333.98 202.055 333.845 202.445 333.575C202.845 333.295 203.125 332.925 203.285 332.465H204.755C204.535 333.255 204.095 333.9 203.435 334.4C202.775 334.89 201.955 335.135 200.975 335.135C200.195 335.135 199.495 334.96 198.875 334.61C198.265 334.26 197.785 333.765 197.435 333.125C197.085 332.475 196.91 331.725 196.91 330.875C196.91 330.025 197.08 329.28 197.42 328.64C197.76 328 198.235 327.51 198.845 327.17C199.465 326.82 200.175 326.645 200.975 326.645C201.755 326.645 202.445 326.815 203.045 327.155C203.645 327.495 204.105 327.965 204.425 328.565C204.755 329.155 204.92 329.825 204.92 330.575ZM203.51 330.29C203.51 329.77 203.395 329.325 203.165 328.955C202.935 328.575 202.62 328.29 202.22 328.1C201.83 327.9 201.395 327.8 200.915 327.8C200.225 327.8 199.635 328.02 199.145 328.46C198.665 328.9 198.39 329.51 198.32 330.29H203.51ZM206.211 330.875C206.211 330.025 206.381 329.285 206.721 328.655C207.061 328.015 207.531 327.52 208.131 327.17C208.741 326.82 209.436 326.645 210.216 326.645C211.226 326.645 212.056 326.89 212.706 327.38C213.366 327.87 213.801 328.55 214.011 329.42H212.541C212.401 328.92 212.126 328.525 211.716 328.235C211.316 327.945 210.816 327.8 210.216 327.8C209.436 327.8 208.806 328.07 208.326 328.61C207.846 329.14 207.606 329.895 207.606 330.875C207.606 331.865 207.846 332.63 208.326 333.17C208.806 333.71 209.436 333.98 210.216 333.98C210.816 333.98 211.316 333.84 211.716 333.56C212.116 333.28 212.391 332.88 212.541 332.36H214.011C213.791 333.2 213.351 333.875 212.691 334.385C212.031 334.885 211.206 335.135 210.216 335.135C209.436 335.135 208.741 334.96 208.131 334.61C207.531 334.26 207.061 333.765 206.721 333.125C206.381 332.485 206.211 331.735 206.211 330.875ZM217.498 327.905V332.75C217.498 333.15 217.583 333.435 217.753 333.605C217.923 333.765 218.218 333.845 218.638 333.845H219.643V335H218.413C217.653 335 217.083 334.825 216.703 334.475C216.323 334.125 216.133 333.55 216.133 332.75V327.905H215.068V326.78H216.133V324.71H217.498V326.78H219.643V327.905H217.498Z" fill="#3F434A"/>
<path d="M290.765 338.38C289.379 337.687 288.685 336.593 288.685 335.1C288.685 334.38 288.865 333.72 289.225 333.12C289.585 332.52 290.125 332.047 290.845 331.7C291.565 331.34 292.445 331.16 293.485 331.16C294.512 331.16 295.385 331.34 296.105 331.7C296.839 332.047 297.385 332.52 297.745 333.12C298.105 333.72 298.285 334.38 298.285 335.1C298.285 335.847 298.092 336.507 297.705 337.08C297.332 337.64 296.832 338.073 296.205 338.38C296.965 338.66 297.565 339.12 298.005 339.76C298.445 340.387 298.665 341.127 298.665 341.98C298.665 342.847 298.445 343.613 298.005 344.28C297.565 344.947 296.952 345.46 296.165 345.82C295.379 346.18 294.485 346.36 293.485 346.36C292.485 346.36 291.592 346.18 290.805 345.82C290.032 345.46 289.425 344.947 288.985 344.28C288.545 343.613 288.325 342.847 288.325 341.98C288.325 341.113 288.545 340.367 288.985 339.74C289.425 339.113 290.019 338.66 290.765 338.38ZM296.105 335.38C296.105 334.633 295.872 334.06 295.405 333.66C294.939 333.26 294.299 333.06 293.485 333.06C292.685 333.06 292.052 333.26 291.585 333.66C291.119 334.06 290.885 334.64 290.885 335.4C290.885 336.067 291.125 336.613 291.605 337.04C292.099 337.453 292.725 337.66 293.485 337.66C294.245 337.66 294.872 337.447 295.365 337.02C295.859 336.593 296.105 336.047 296.105 335.38ZM293.485 339.38C292.605 339.38 291.885 339.6 291.325 340.04C290.779 340.467 290.505 341.087 290.505 341.9C290.505 342.66 290.772 343.28 291.305 343.76C291.839 344.227 292.565 344.46 293.485 344.46C294.392 344.46 295.105 344.22 295.625 343.74C296.159 343.26 296.425 342.647 296.425 341.9C296.425 341.1 296.152 340.48 295.605 340.04C295.072 339.6 294.365 339.38 293.485 339.38ZM310.299 333.18L304.739 346H302.439L308.059 333.42H300.659V331.48H310.299V333.18ZM311.971 342.96V341.24L318.691 331.6H321.451V340.98H323.311V342.96H321.451V346H319.211V342.96H311.971ZM319.311 333.92L314.591 340.98H319.311V333.92Z" fill="#3F434A"/>
<mask id="mask3_5340_5795" style="mask-type:luminance" maskUnits="userSpaceOnUse" x="24" y="294" width="302" height="1">
<rect x="24" y="294" width="302" height="1" fill="white"/>
</mask>
<g mask="url(#mask3_5340_5795)">
<rect x="24" y="294" width="302" height="1" fill="#E8E9EB"/>
</g>
</g>
<g clip-path="url(#clip1_5340_5795)">
<path d="M307.564 270.098C306.92 270.098 306.341 269.986 305.828 269.762C305.324 269.529 304.927 269.211 304.638 268.81C304.348 268.399 304.199 267.928 304.19 267.396H305.548C305.594 267.853 305.781 268.241 306.108 268.558C306.444 268.866 306.929 269.02 307.564 269.02C308.17 269.02 308.646 268.871 308.992 268.572C309.346 268.264 309.524 267.872 309.524 267.396C309.524 267.023 309.421 266.719 309.216 266.486C309.01 266.253 308.754 266.075 308.446 265.954C308.138 265.833 307.722 265.702 307.2 265.562C306.556 265.394 306.038 265.226 305.646 265.058C305.263 264.89 304.932 264.629 304.652 264.274C304.381 263.91 304.246 263.425 304.246 262.818C304.246 262.286 304.381 261.815 304.652 261.404C304.922 260.993 305.3 260.676 305.786 260.452C306.28 260.228 306.845 260.116 307.48 260.116C308.394 260.116 309.141 260.345 309.72 260.802C310.308 261.259 310.639 261.866 310.714 262.622H309.314C309.267 262.249 309.071 261.922 308.726 261.642C308.38 261.353 307.923 261.208 307.354 261.208C306.822 261.208 306.388 261.348 306.052 261.628C305.716 261.899 305.548 262.281 305.548 262.776C305.548 263.131 305.646 263.42 305.842 263.644C306.047 263.868 306.294 264.041 306.584 264.162C306.882 264.274 307.298 264.405 307.83 264.554C308.474 264.731 308.992 264.909 309.384 265.086C309.776 265.254 310.112 265.52 310.392 265.884C310.672 266.239 310.812 266.724 310.812 267.34C310.812 267.816 310.686 268.264 310.434 268.684C310.182 269.104 309.808 269.445 309.314 269.706C308.819 269.967 308.236 270.098 307.564 270.098Z" fill="#8A9099"/>
<path d="M263.564 270.098C262.92 270.098 262.341 269.986 261.828 269.762C261.324 269.529 260.927 269.211 260.638 268.81C260.348 268.399 260.199 267.928 260.19 267.396H261.548C261.594 267.853 261.781 268.241 262.108 268.558C262.444 268.866 262.929 269.02 263.564 269.02C264.17 269.02 264.646 268.871 264.992 268.572C265.346 268.264 265.524 267.872 265.524 267.396C265.524 267.023 265.421 266.719 265.216 266.486C265.01 266.253 264.754 266.075 264.446 265.954C264.138 265.833 263.722 265.702 263.2 265.562C262.556 265.394 262.038 265.226 261.646 265.058C261.263 264.89 260.932 264.629 260.652 264.274C260.381 263.91 260.246 263.425 260.246 262.818C260.246 262.286 260.381 261.815 260.652 261.404C260.922 260.993 261.3 260.676 261.786 260.452C262.28 260.228 262.845 260.116 263.48 260.116C264.394 260.116 265.141 260.345 265.72 260.802C266.308 261.259 266.639 261.866 266.714 262.622H265.314C265.267 262.249 265.071 261.922 264.726 261.642C264.38 261.353 263.923 261.208 263.354 261.208C262.822 261.208 262.388 261.348 262.052 261.628C261.716 261.899 261.548 262.281 261.548 262.776C261.548 263.131 261.646 263.42 261.842 263.644C262.047 263.868 262.294 264.041 262.584 264.162C262.882 264.274 263.298 264.405 263.83 264.554C264.474 264.731 264.992 264.909 265.384 265.086C265.776 265.254 266.112 265.52 266.392 265.884C266.672 266.239 266.812 266.724 266.812 267.34C266.812 267.816 266.686 268.264 266.434 268.684C266.182 269.104 265.808 269.445 265.314 269.706C264.819 269.967 264.236 270.098 263.564 270.098Z" fill="#8A9099"/>
<path d="M222.067 260.242V261.278H217.825V264.568H221.269V265.604H217.825V270H216.551V260.242H222.067Z" fill="#8A9099"/>
<path d="M178.297 260.242V261.278H175.637V270H174.363V261.278H171.689V260.242H178.297Z" fill="#8A9099"/>
<path d="M138.513 260.242L135.685 270H134.257L131.989 262.146L129.637 270L128.223 270.014L125.493 260.242H126.851L128.979 268.516L131.331 260.242H132.759L134.999 268.488L137.141 260.242H138.513Z" fill="#8A9099"/>
<path d="M90.2969 260.242V261.278H87.6369V270H86.3629V261.278H83.6889V260.242H90.2969Z" fill="#8A9099"/>
<path d="M47.4467 260.312V270H46.1727V262.776L42.9527 270H42.0567L38.8227 262.762V270H37.5487V260.312H38.9207L42.5047 268.32L46.0887 260.312H47.4467Z" fill="#8A9099"/>
</g>
<rect x="299" y="139" width="16" height="105" rx="8" fill="white"/>
<mask id="mask4_5340_5795" style="mask-type:luminance" maskUnits="userSpaceOnUse" x="299" y="139" width="16" height="105">
<rect x="299" y="139" width="16" height="105" rx="8" fill="white"/>
</mask>
<g mask="url(#mask4_5340_5795)">
<rect x="299" y="139" width="16" height="105" fill="#304FFD"/>
</g>
<rect x="255" y="170" width="16" height="74" rx="8" fill="white"/>
<mask id="mask5_5340_5795" style="mask-type:luminance" maskUnits="userSpaceOnUse" x="255" y="170" width="16" height="74">
<rect x="255" y="170" width="16" height="74" rx="8" fill="white"/>
</mask>
<g mask="url(#mask5_5340_5795)">
<rect x="255" y="170" width="16" height="74" fill="#304FFD"/>
</g>
<rect x="211" y="146" width="16" height="98" rx="8" fill="white"/>
<mask id="mask6_5340_5795" style="mask-type:luminance" maskUnits="userSpaceOnUse" x="211" y="146" width="16" height="98">
<rect x="211" y="146" width="16" height="98" rx="8" fill="white"/>
</mask>
<g mask="url(#mask6_5340_5795)">
<rect x="211" y="146" width="16" height="98" fill="#304FFD"/>
</g>
<g clip-path="url(#clip2_5340_5795)">
<rect x="167" y="74" width="16" height="170" rx="8" fill="white"/>
<mask id="mask7_5340_5795" style="mask-type:luminance" maskUnits="userSpaceOnUse" x="167" y="74" width="16" height="170">
<rect x="167" y="74" width="16" height="170" rx="8" fill="white"/>
</mask>
<g mask="url(#mask7_5340_5795)">
<rect x="167" y="74" width="16" height="170" fill="#FF965D"/>
<mask id="mask8_5340_5795" style="mask-type:luminance" maskUnits="userSpaceOnUse" x="170" y="78" width="10" height="10">
<path d="M175.464 78.7825L176.546 80.9333C176.622 81.0829 176.767 81.1865 176.936 81.2105L179.357 81.5554C179.781 81.6158 179.95 82.1266 179.644 82.4197L177.892 84.0938C177.77 84.2102 177.714 84.3781 177.743 84.5424L178.156 86.9063C178.229 87.3203 177.786 87.636 177.406 87.4407L175.241 86.3247C175.09 86.2471 174.91 86.2471 174.76 86.3247L172.594 87.4407C172.215 87.6362 171.771 87.3203 171.844 86.9063L172.257 84.5424C172.286 84.3781 172.231 84.2102 172.109 84.0938L170.357 82.4197C170.05 82.1264 170.219 81.6156 170.643 81.5554L173.065 81.2105C173.233 81.1865 173.379 81.0829 173.454 80.9333L174.537 78.7825C174.726 78.4058 175.274 78.4058 175.464 78.7825Z" fill="white"/>
</mask>
<g mask="url(#mask8_5340_5795)">
<rect x="169" y="77" width="12" height="12" fill="white"/>
</g>
</g>
</g>
<rect x="123" y="159" width="16" height="85" rx="8" fill="white"/>
<mask id="mask9_5340_5795" style="mask-type:luminance" maskUnits="userSpaceOnUse" x="123" y="159" width="16" height="85">
<rect x="123" y="159" width="16" height="85" rx="8" fill="white"/>
</mask>
<g mask="url(#mask9_5340_5795)">
<rect x="123" y="159" width="16" height="85" fill="#304FFD"/>
</g>
<rect x="79" y="134" width="16" height="110" rx="8" fill="white"/>
<mask id="mask10_5340_5795" style="mask-type:luminance" maskUnits="userSpaceOnUse" x="79" y="134" width="16" height="110">
<rect x="79" y="134" width="16" height="110" rx="8" fill="white"/>
</mask>
<g mask="url(#mask10_5340_5795)">
<rect x="79" y="134" width="16" height="110" fill="#304FFD"/>
</g>
<rect x="35" y="181" width="16" height="63" rx="8" fill="white"/>
<mask id="mask11_5340_5795" style="mask-type:luminance" maskUnits="userSpaceOnUse" x="35" y="181" width="16" height="63">
<rect x="35" y="181" width="16" height="63" rx="8" fill="white"/>
</mask>
<g mask="url(#mask11_5340_5795)">
<rect x="35" y="181" width="16" height="63" fill="#304FFD"/>
</g>
<path d="M30.08 32.14C29.1467 32.14 28.3067 31.98 27.56 31.66C26.8133 31.3267 26.2267 30.86 25.8 30.26C25.3733 29.66 25.16 28.96 25.16 28.16H27.6C27.6533 28.76 27.8867 29.2533 28.3 29.64C28.7267 30.0267 29.32 30.22 30.08 30.22C30.8667 30.22 31.48 30.0333 31.92 29.66C32.36 29.2733 32.58 28.78 32.58 28.18C32.58 27.7133 32.44 27.3333 32.16 27.04C31.8933 26.7467 31.5533 26.52 31.14 26.36C30.74 26.2 30.18 26.0267 29.46 25.84C28.5533 25.6 27.8133 25.36 27.24 25.12C26.68 24.8667 26.2 24.48 25.8 23.96C25.4 23.44 25.2 22.7467 25.2 21.88C25.2 21.08 25.4 20.38 25.8 19.78C26.2 19.18 26.76 18.72 27.48 18.4C28.2 18.08 29.0333 17.92 29.98 17.92C31.3267 17.92 32.4267 18.26 33.28 18.94C34.1467 19.6067 34.6267 20.5267 34.72 21.7H32.2C32.16 21.1933 31.92 20.76 31.48 20.4C31.04 20.04 30.46 19.86 29.74 19.86C29.0867 19.86 28.5533 20.0267 28.14 20.36C27.7267 20.6933 27.52 21.1733 27.52 21.8C27.52 22.2267 27.6467 22.58 27.9 22.86C28.1667 23.1267 28.5 23.34 28.9 23.5C29.3 23.66 29.8467 23.8333 30.54 24.02C31.46 24.2733 32.2067 24.5267 32.78 24.78C33.3667 25.0333 33.86 25.4267 34.26 25.96C34.6733 26.48 34.88 27.18 34.88 28.06C34.88 28.7667 34.6867 29.4333 34.3 30.06C33.9267 30.6867 33.3733 31.1933 32.64 31.58C31.92 31.9533 31.0667 32.14 30.08 32.14ZM40.2303 22.84V28.94C40.2303 29.3533 40.3236 29.6533 40.5103 29.84C40.7103 30.0133 41.0436 30.1 41.5103 30.1H42.9103V32H41.1103C40.0836 32 39.297 31.76 38.7503 31.28C38.2036 30.8 37.9303 30.02 37.9303 28.94V22.84H36.6303V20.98H37.9303V18.24H40.2303V20.98H42.9103V22.84H40.2303ZM44.2517 26.44C44.2517 25.3333 44.4784 24.3533 44.9317 23.5C45.3984 22.6467 46.0251 21.9867 46.8117 21.52C47.6117 21.04 48.4917 20.8 49.4517 20.8C50.3184 20.8 51.0717 20.9733 51.7117 21.32C52.3651 21.6533 52.8851 22.0733 53.2717 22.58V20.98H55.5717V32H53.2717V30.36C52.8851 30.88 52.3584 31.3133 51.6917 31.66C51.0251 32.0067 50.2651 32.18 49.4117 32.18C48.4651 32.18 47.5984 31.94 46.8117 31.46C46.0251 30.9667 45.3984 30.2867 44.9317 29.42C44.4784 28.54 44.2517 27.5467 44.2517 26.44ZM53.2717 26.48C53.2717 25.72 53.1117 25.06 52.7917 24.5C52.4851 23.94 52.0784 23.5133 51.5717 23.22C51.0651 22.9267 50.5184 22.78 49.9317 22.78C49.3451 22.78 48.7984 22.9267 48.2917 23.22C47.7851 23.5 47.3717 23.92 47.0517 24.48C46.7451 25.0267 46.5917 25.68 46.5917 26.44C46.5917 27.2 46.7451 27.8667 47.0517 28.44C47.3717 29.0133 47.7851 29.4533 48.2917 29.76C48.8117 30.0533 49.3584 30.2 49.9317 30.2C50.5184 30.2 51.0651 30.0533 51.5717 29.76C52.0784 29.4667 52.4851 29.04 52.7917 28.48C53.1117 27.9067 53.2717 27.24 53.2717 26.48ZM61.2264 22.84V28.94C61.2264 29.3533 61.3197 29.6533 61.5064 29.84C61.7064 30.0133 62.0397 30.1 62.5064 30.1H63.9064V32H62.1064C61.0797 32 60.2931 31.76 59.7464 31.28C59.1997 30.8 58.9264 30.02 58.9264 28.94V22.84H57.6264V20.98H58.9264V18.24H61.2264V20.98H63.9064V22.84H61.2264ZM67.1678 19.52C66.7545 19.52 66.4078 19.38 66.1278 19.1C65.8478 18.82 65.7078 18.4733 65.7078 18.06C65.7078 17.6467 65.8478 17.3 66.1278 17.02C66.4078 16.74 66.7545 16.6 67.1678 16.6C67.5678 16.6 67.9078 16.74 68.1878 17.02C68.4678 17.3 68.6078 17.6467 68.6078 18.06C68.6078 18.4733 68.4678 18.82 68.1878 19.1C67.9078 19.38 67.5678 19.52 67.1678 19.52ZM68.2878 20.98V32H66.0078V20.98H68.2878ZM75.2813 32.18C74.4146 32.18 73.6346 32.0267 72.9413 31.72C72.2613 31.4 71.7213 30.9733 71.3213 30.44C70.9213 29.8933 70.7079 29.2867 70.6813 28.62H73.0413C73.0813 29.0867 73.3013 29.48 73.7013 29.8C74.1146 30.1067 74.6279 30.26 75.2413 30.26C75.8813 30.26 76.3746 30.14 76.7213 29.9C77.0813 29.6467 77.2613 29.3267 77.2613 28.94C77.2613 28.5267 77.0613 28.22 76.6613 28.02C76.2746 27.82 75.6546 27.6 74.8013 27.36C73.9746 27.1333 73.3013 26.9133 72.7813 26.7C72.2613 26.4867 71.8079 26.16 71.4213 25.72C71.0479 25.28 70.8613 24.7 70.8613 23.98C70.8613 23.3933 71.0346 22.86 71.3813 22.38C71.7279 21.8867 72.2213 21.5 72.8613 21.22C73.5146 20.94 74.2613 20.8 75.1013 20.8C76.3546 20.8 77.3613 21.12 78.1213 21.76C78.8946 22.3867 79.3079 23.2467 79.3613 24.34H77.0813C77.0413 23.8467 76.8413 23.4533 76.4813 23.16C76.1213 22.8667 75.6346 22.72 75.0213 22.72C74.4213 22.72 73.9613 22.8333 73.6413 23.06C73.3213 23.2867 73.1613 23.5867 73.1613 23.96C73.1613 24.2533 73.2679 24.5 73.4813 24.7C73.6946 24.9 73.9546 25.06 74.2613 25.18C74.5679 25.2867 75.0213 25.4267 75.6213 25.6C76.4213 25.8133 77.0746 26.0333 77.5813 26.26C78.1013 26.4733 78.5479 26.7933 78.9213 27.22C79.2946 27.6467 79.4879 28.2133 79.5013 28.92C79.5013 29.5467 79.3279 30.1067 78.9813 30.6C78.6346 31.0933 78.1413 31.48 77.5013 31.76C76.8746 32.04 76.1346 32.18 75.2813 32.18ZM84.6248 22.84V28.94C84.6248 29.3533 84.7182 29.6533 84.9048 29.84C85.1048 30.0133 85.4382 30.1 85.9048 30.1H87.3048V32H85.5048C84.4782 32 83.6915 31.76 83.1448 31.28C82.5982 30.8 82.3248 30.02 82.3248 28.94V22.84H81.0248V20.98H82.3248V18.24H84.6248V20.98H87.3048V22.84H84.6248ZM90.5663 19.52C90.1529 19.52 89.8063 19.38 89.5263 19.1C89.2463 18.82 89.1063 18.4733 89.1063 18.06C89.1063 17.6467 89.2463 17.3 89.5263 17.02C89.8063 16.74 90.1529 16.6 90.5663 16.6C90.9663 16.6 91.3063 16.74 91.5863 17.02C91.8663 17.3 92.0063 17.6467 92.0063 18.06C92.0063 18.4733 91.8663 18.82 91.5863 19.1C91.3063 19.38 90.9663 19.52 90.5663 19.52ZM91.6863 20.98V32H89.4063V20.98H91.6863ZM93.9197 26.48C93.9197 25.3467 94.1464 24.3533 94.5997 23.5C95.0664 22.6333 95.7064 21.9667 96.5197 21.5C97.333 21.0333 98.2664 20.8 99.3197 20.8C100.653 20.8 101.753 21.12 102.62 21.76C103.5 22.3867 104.093 23.2867 104.4 24.46H101.94C101.74 23.9133 101.42 23.4867 100.98 23.18C100.54 22.8733 99.9864 22.72 99.3197 22.72C98.3864 22.72 97.6397 23.0533 97.0797 23.72C96.533 24.3733 96.2597 25.2933 96.2597 26.48C96.2597 27.6667 96.533 28.5933 97.0797 29.26C97.6397 29.9267 98.3864 30.26 99.3197 30.26C100.64 30.26 101.513 29.68 101.94 28.52H104.4C104.08 29.64 103.48 30.5333 102.6 31.2C101.72 31.8533 100.626 32.18 99.3197 32.18C98.2664 32.18 97.333 31.9467 96.5197 31.48C95.7064 31 95.0664 30.3333 94.5997 29.48C94.1464 28.6133 93.9197 27.6133 93.9197 26.48ZM110.672 32.18C109.805 32.18 109.025 32.0267 108.332 31.72C107.652 31.4 107.112 30.9733 106.712 30.44C106.312 29.8933 106.099 29.2867 106.072 28.62H108.432C108.472 29.0867 108.692 29.48 109.092 29.8C109.505 30.1067 110.019 30.26 110.632 30.26C111.272 30.26 111.765 30.14 112.112 29.9C112.472 29.6467 112.652 29.3267 112.652 28.94C112.652 28.5267 112.452 28.22 112.052 28.02C111.665 27.82 111.045 27.6 110.192 27.36C109.365 27.1333 108.692 26.9133 108.172 26.7C107.652 26.4867 107.199 26.16 106.812 25.72C106.439 25.28 106.252 24.7 106.252 23.98C106.252 23.3933 106.425 22.86 106.772 22.38C107.119 21.8867 107.612 21.5 108.252 21.22C108.905 20.94 109.652 20.8 110.492 20.8C111.745 20.8 112.752 21.12 113.512 21.76C114.285 22.3867 114.699 23.2467 114.752 24.34H112.472C112.432 23.8467 112.232 23.4533 111.872 23.16C111.512 22.8667 111.025 22.72 110.412 22.72C109.812 22.72 109.352 22.8333 109.032 23.06C108.712 23.2867 108.552 23.5867 108.552 23.96C108.552 24.2533 108.659 24.5 108.872 24.7C109.085 24.9 109.345 25.06 109.652 25.18C109.959 25.2867 110.412 25.4267 111.012 25.6C111.812 25.8133 112.465 26.0333 112.972 26.26C113.492 26.4733 113.939 26.7933 114.312 27.22C114.685 27.6467 114.879 28.2133 114.892 28.92C114.892 29.5467 114.719 30.1067 114.372 30.6C114.025 31.0933 113.532 31.48 112.892 31.76C112.265 32.04 111.525 32.18 110.672 32.18Z" fill="#3F434A"/>
<mask id="mask12_5340_5795" style="mask-type:luminance" maskUnits="userSpaceOnUse" x="306" y="23" width="20" height="4">
<path fill-rule="evenodd" clip-rule="evenodd" d="M310.15 25.0008C310.15 26.0777 309.277 26.9508 308.2 26.9508C307.123 26.9508 306.25 26.0777 306.25 25.0008C306.25 23.9238 307.123 23.0508 308.2 23.0508C309.277 23.0508 310.15 23.9238 310.15 25.0008ZM317.95 25.0008C317.95 26.0777 317.077 26.9508 316 26.9508C314.923 26.9508 314.05 26.0777 314.05 25.0008C314.05 23.9238 314.923 23.0508 316 23.0508C317.077 23.0508 317.95 23.9238 317.95 25.0008ZM323.8 26.9508C324.877 26.9508 325.75 26.0777 325.75 25.0008C325.75 23.9238 324.877 23.0508 323.8 23.0508C322.723 23.0508 321.85 23.9238 321.85 25.0008C321.85 26.0777 322.723 26.9508 323.8 26.9508Z" fill="white"/>
</mask>
<g mask="url(#mask12_5340_5795)">
<rect x="303" y="12" width="26" height="26" fill="#8A9099"/>
</g>
<defs>
<clipPath id="clip0_5340_5795">
<rect width="302" height="66" fill="white" transform="translate(24 294)"/>
</clipPath>
<clipPath id="clip1_5340_5795">
<rect width="275" height="20" fill="white" transform="translate(36 255)"/>
</clipPath>
<clipPath id="clip2_5340_5795">
<rect width="16" height="170" fill="white" transform="translate(167 74)"/>
</clipPath>
</defs>
</svg>
