<svg width="376" height="356" viewBox="0 0 376 356" fill="none" xmlns="http://www.w3.org/2000/svg">
<rect width="376" height="356" fill="url(#paint0_linear_5523_4486)"/>
<path d="M103 69.5C103 72.5376 100.538 75 97.5 75C94.4624 75 92 72.5376 92 69.5C92 66.4624 94.4624 64 97.5 64C100.538 64 103 66.4624 103 69.5ZM93.7793 69.5C93.7793 71.5549 95.4451 73.2207 97.5 73.2207C99.5549 73.2207 101.221 71.5549 101.221 69.5C101.221 67.4451 99.5549 65.7793 97.5 65.7793C95.4451 65.7793 93.7793 67.4451 93.7793 69.5Z" fill="black"/>
<path d="M341 295.5C341 296.881 339.881 298 338.5 298C337.119 298 336 296.881 336 295.5C336 294.119 337.119 293 338.5 293C339.881 293 341 294.119 341 295.5ZM336.809 295.5C336.809 296.434 337.566 297.191 338.5 297.191C339.434 297.191 340.191 296.434 340.191 295.5C340.191 294.566 339.434 293.809 338.5 293.809C337.566 293.809 336.809 294.566 336.809 295.5Z" fill="black"/>
<path d="M295.226 297.909V311H293.244V299.891H293.168L290.036 301.936V300.044L293.302 297.909H295.226ZM303.12 297.73C303.704 297.734 304.279 297.841 304.846 298.05C305.413 298.259 305.924 298.599 306.38 299.072C306.84 299.545 307.207 300.185 307.479 300.99C307.756 301.791 307.897 302.788 307.901 303.982C307.901 305.128 307.786 306.148 307.556 307.043C307.326 307.934 306.996 308.686 306.565 309.3C306.139 309.913 305.621 310.38 305.012 310.7C304.403 311.019 303.717 311.179 302.954 311.179C302.174 311.179 301.482 311.026 300.876 310.719C300.271 310.412 299.779 309.988 299.4 309.447C299.021 308.901 298.784 308.275 298.69 307.567H300.64C300.768 308.13 301.028 308.586 301.42 308.935C301.816 309.281 302.327 309.453 302.954 309.453C303.913 309.453 304.661 309.036 305.197 308.2C305.734 307.361 306.005 306.189 306.009 304.685H305.907C305.685 305.051 305.408 305.366 305.076 305.631C304.748 305.895 304.379 306.099 303.97 306.244C303.561 306.389 303.124 306.462 302.66 306.462C301.906 306.462 301.219 306.276 300.602 305.906C299.984 305.535 299.491 305.026 299.125 304.378C298.759 303.73 298.575 302.991 298.575 302.16C298.575 301.333 298.763 300.583 299.138 299.91C299.517 299.237 300.045 298.704 300.723 298.312C301.405 297.915 302.204 297.722 303.12 297.73ZM303.126 299.392C302.628 299.392 302.178 299.516 301.778 299.763C301.381 300.006 301.068 300.336 300.838 300.754C300.608 301.167 300.493 301.627 300.493 302.134C300.493 302.641 300.604 303.102 300.825 303.515C301.051 303.924 301.358 304.25 301.746 304.493C302.138 304.732 302.585 304.851 303.088 304.851C303.463 304.851 303.813 304.778 304.136 304.634C304.46 304.489 304.744 304.288 304.987 304.033C305.229 303.773 305.419 303.479 305.555 303.151C305.692 302.822 305.76 302.477 305.76 302.115C305.76 301.634 305.645 301.186 305.415 300.773C305.189 300.359 304.878 300.027 304.482 299.776C304.085 299.52 303.634 299.392 303.126 299.392Z" fill="#898787"/>
<path d="M314.974 311V309.568L319.404 304.979C319.877 304.48 320.267 304.043 320.574 303.668C320.885 303.289 321.117 302.929 321.27 302.588C321.424 302.247 321.5 301.885 321.5 301.501C321.5 301.067 321.398 300.692 321.194 300.376C320.989 300.057 320.71 299.812 320.356 299.641C320.002 299.467 319.604 299.379 319.161 299.379C318.692 299.379 318.283 299.475 317.934 299.667C317.584 299.859 317.316 300.129 317.128 300.479C316.941 300.828 316.847 301.237 316.847 301.706H314.961C314.961 300.909 315.145 300.212 315.511 299.616C315.877 299.019 316.38 298.557 317.02 298.229C317.659 297.896 318.385 297.73 319.199 297.73C320.022 297.73 320.746 297.894 321.373 298.222C322.003 298.546 322.495 298.989 322.849 299.552C323.203 300.11 323.38 300.741 323.38 301.444C323.38 301.93 323.288 302.405 323.105 302.869C322.926 303.334 322.613 303.852 322.165 304.423C321.718 304.989 321.096 305.678 320.299 306.487L317.697 309.21V309.306H323.591V311H314.974ZM330.583 311.179C330 311.17 329.424 311.064 328.858 310.859C328.295 310.655 327.784 310.314 327.324 309.837C326.863 309.359 326.495 308.718 326.218 307.913C325.945 307.107 325.809 306.102 325.809 304.896C325.809 303.754 325.922 302.739 326.147 301.853C326.377 300.967 326.708 300.219 327.138 299.609C327.569 298.996 328.088 298.529 328.698 298.21C329.307 297.89 329.991 297.73 330.75 297.73C331.529 297.73 332.222 297.884 332.827 298.19C333.432 298.497 333.922 298.921 334.297 299.462C334.676 300.004 334.917 300.619 335.02 301.31H333.07C332.938 300.764 332.676 300.319 332.284 299.974C331.892 299.629 331.38 299.456 330.75 299.456C329.791 299.456 329.043 299.874 328.506 300.709C327.973 301.544 327.705 302.705 327.701 304.192H327.797C328.022 303.822 328.299 303.506 328.627 303.246C328.96 302.982 329.331 302.78 329.74 302.639C330.153 302.494 330.588 302.422 331.044 302.422C331.802 302.422 332.488 302.607 333.102 302.978C333.72 303.344 334.212 303.852 334.578 304.499C334.945 305.147 335.128 305.888 335.128 306.724C335.128 307.559 334.939 308.315 334.559 308.993C334.184 309.67 333.656 310.207 332.974 310.604C332.292 310.996 331.495 311.188 330.583 311.179ZM330.577 309.517C331.08 309.517 331.529 309.393 331.926 309.146C332.322 308.899 332.635 308.567 332.865 308.149C333.096 307.732 333.211 307.265 333.211 306.749C333.211 306.246 333.098 305.788 332.872 305.375C332.65 304.962 332.343 304.634 331.951 304.391C331.564 304.148 331.12 304.026 330.622 304.026C330.243 304.026 329.891 304.099 329.567 304.244C329.248 304.388 328.966 304.589 328.723 304.844C328.48 305.1 328.289 305.394 328.148 305.727C328.012 306.055 327.944 306.402 327.944 306.768C327.944 307.259 328.056 307.712 328.282 308.13C328.512 308.548 328.826 308.884 329.222 309.14C329.623 309.391 330.074 309.517 330.577 309.517Z" fill="black"/>
<path d="M341 132.5C341 133.881 339.881 135 338.5 135C337.119 135 336 133.881 336 132.5C336 131.119 337.119 130 338.5 130C339.881 130 341 131.119 341 132.5ZM336.809 132.5C336.809 133.434 337.566 134.191 338.5 134.191C339.434 134.191 340.191 133.434 340.191 132.5C340.191 131.566 339.434 130.809 338.5 130.809C337.566 130.809 336.809 131.566 336.809 132.5Z" fill="black"/>
<path d="M288.259 147V145.568L292.689 140.979C293.162 140.48 293.552 140.043 293.859 139.668C294.17 139.289 294.402 138.929 294.555 138.588C294.709 138.247 294.786 137.885 294.786 137.501C294.786 137.067 294.683 136.692 294.479 136.376C294.274 136.057 293.995 135.812 293.641 135.641C293.288 135.467 292.889 135.379 292.446 135.379C291.977 135.379 291.568 135.475 291.219 135.667C290.869 135.859 290.601 136.129 290.413 136.479C290.226 136.828 290.132 137.237 290.132 137.706H288.246C288.246 136.909 288.43 136.212 288.796 135.616C289.163 135.019 289.665 134.557 290.305 134.229C290.944 133.896 291.67 133.73 292.484 133.73C293.307 133.73 294.031 133.894 294.658 134.222C295.288 134.546 295.781 134.989 296.134 135.552C296.488 136.11 296.665 136.741 296.665 137.444C296.665 137.93 296.573 138.405 296.39 138.869C296.211 139.334 295.898 139.852 295.45 140.423C295.003 140.989 294.381 141.678 293.584 142.487L290.982 145.21V145.306H296.876V147H288.259ZM299.298 147V145.568L303.728 140.979C304.201 140.48 304.591 140.043 304.898 139.668C305.209 139.289 305.441 138.929 305.594 138.588C305.748 138.247 305.825 137.885 305.825 137.501C305.825 137.067 305.722 136.692 305.518 136.376C305.313 136.057 305.034 135.812 304.68 135.641C304.327 135.467 303.928 135.379 303.485 135.379C303.016 135.379 302.607 135.475 302.258 135.667C301.908 135.859 301.64 136.129 301.452 136.479C301.265 136.828 301.171 137.237 301.171 137.706H299.286C299.286 136.909 299.469 136.212 299.835 135.616C300.202 135.019 300.705 134.557 301.344 134.229C301.983 133.896 302.71 133.73 303.523 133.73C304.346 133.73 305.07 133.894 305.697 134.222C306.327 134.546 306.82 134.989 307.173 135.552C307.527 136.11 307.704 136.741 307.704 137.444C307.704 137.93 307.612 138.405 307.429 138.869C307.25 139.334 306.937 139.852 306.489 140.423C306.042 140.989 305.42 141.678 304.623 142.487L302.021 145.21V145.306H307.915V147H299.298Z" fill="#898787"/>
<path d="M319.659 147.179C318.781 147.179 317.997 147.028 317.306 146.725C316.62 146.423 316.077 146.003 315.676 145.466C315.28 144.925 315.067 144.298 315.037 143.587H317.044C317.07 143.974 317.2 144.311 317.434 144.597C317.673 144.878 317.984 145.095 318.367 145.249C318.751 145.402 319.177 145.479 319.646 145.479C320.161 145.479 320.617 145.389 321.014 145.21C321.414 145.031 321.727 144.782 321.953 144.462C322.179 144.138 322.292 143.766 322.292 143.344C322.292 142.905 322.179 142.519 321.953 142.187C321.732 141.85 321.406 141.586 320.975 141.394C320.549 141.202 320.034 141.107 319.428 141.107H318.323V139.496H319.428C319.914 139.496 320.34 139.408 320.707 139.234C321.078 139.059 321.367 138.816 321.576 138.505C321.785 138.19 321.889 137.821 321.889 137.399C321.889 136.994 321.798 136.643 321.615 136.344C321.436 136.042 321.18 135.805 320.847 135.635C320.519 135.464 320.132 135.379 319.684 135.379C319.258 135.379 318.86 135.458 318.489 135.616C318.122 135.769 317.824 135.991 317.594 136.281C317.364 136.566 317.24 136.909 317.223 137.31H315.312C315.333 136.602 315.542 135.98 315.938 135.443C316.339 134.906 316.867 134.487 317.524 134.184C318.18 133.881 318.909 133.73 319.71 133.73C320.549 133.73 321.274 133.894 321.883 134.222C322.497 134.546 322.97 134.979 323.302 135.52C323.639 136.061 323.805 136.653 323.801 137.297C323.805 138.03 323.6 138.652 323.187 139.163C322.778 139.675 322.232 140.018 321.551 140.192V140.295C322.42 140.427 323.093 140.772 323.57 141.33C324.052 141.888 324.291 142.581 324.286 143.408C324.291 144.128 324.09 144.773 323.686 145.344C323.285 145.915 322.737 146.365 322.043 146.693C321.348 147.017 320.553 147.179 319.659 147.179ZM331.273 147.179C330.689 147.17 330.114 147.064 329.547 146.859C328.985 146.655 328.473 146.314 328.013 145.837C327.553 145.359 327.184 144.718 326.907 143.913C326.634 143.107 326.498 142.102 326.498 140.896C326.498 139.754 326.611 138.739 326.837 137.853C327.067 136.967 327.397 136.219 327.828 135.609C328.258 134.996 328.778 134.529 329.387 134.21C329.997 133.89 330.681 133.73 331.439 133.73C332.219 133.73 332.911 133.884 333.517 134.19C334.122 134.497 334.612 134.921 334.987 135.462C335.366 136.004 335.607 136.619 335.709 137.31H333.759C333.627 136.764 333.365 136.319 332.973 135.974C332.581 135.629 332.07 135.456 331.439 135.456C330.48 135.456 329.732 135.874 329.195 136.709C328.663 137.544 328.394 138.705 328.39 140.192H328.486C328.712 139.822 328.989 139.506 329.317 139.246C329.649 138.982 330.02 138.78 330.429 138.639C330.843 138.494 331.277 138.422 331.733 138.422C332.492 138.422 333.178 138.607 333.791 138.978C334.409 139.344 334.901 139.852 335.268 140.499C335.634 141.147 335.818 141.888 335.818 142.724C335.818 143.559 335.628 144.315 335.249 144.993C334.874 145.67 334.345 146.207 333.664 146.604C332.982 146.996 332.185 147.188 331.273 147.179ZM331.267 145.517C331.769 145.517 332.219 145.393 332.615 145.146C333.012 144.899 333.325 144.567 333.555 144.149C333.785 143.732 333.9 143.265 333.9 142.749C333.9 142.246 333.787 141.788 333.561 141.375C333.34 140.962 333.033 140.634 332.641 140.391C332.253 140.148 331.81 140.026 331.311 140.026C330.932 140.026 330.58 140.099 330.257 140.244C329.937 140.388 329.656 140.589 329.413 140.844C329.17 141.1 328.978 141.394 328.838 141.727C328.701 142.055 328.633 142.402 328.633 142.768C328.633 143.259 328.746 143.712 328.972 144.13C329.202 144.548 329.515 144.884 329.911 145.14C330.312 145.391 330.764 145.517 331.267 145.517Z" fill="black"/>
<path d="M336 52.5C336 53.8807 334.881 55 333.5 55C332.119 55 331 53.8807 331 52.5C331 51.1193 332.119 50 333.5 50C334.881 50 336 51.1193 336 52.5ZM331.809 52.5C331.809 53.434 332.566 54.1912 333.5 54.1912C334.434 54.1912 335.191 53.434 335.191 52.5C335.191 51.566 334.434 50.8088 333.5 50.8088C332.566 50.8088 331.809 51.566 331.809 52.5Z" fill="black"/>
<path d="M335 74.5C335 75.8807 333.881 77 332.5 77C331.119 77 330 75.8807 330 74.5C330 73.1193 331.119 72 332.5 72C333.881 72 335 73.1193 335 74.5ZM330.809 74.5C330.809 75.434 331.566 76.1912 332.5 76.1912C333.434 76.1912 334.191 75.434 334.191 74.5C334.191 73.566 333.434 72.8088 332.5 72.8088C331.566 72.8088 330.809 73.566 330.809 74.5Z" fill="black"/>
<path d="M287.438 67V53.9091H289.413V59.598H295.94V53.9091H297.921V67H295.94V61.2919H289.413V67H287.438ZM301.903 65.3764C301.554 65.3764 301.254 65.2528 301.002 65.0057C300.751 64.7543 300.625 64.4517 300.625 64.098C300.625 63.7486 300.751 63.4503 301.002 63.2031C301.254 62.9517 301.554 62.826 301.903 62.826C302.253 62.826 302.553 62.9517 302.805 63.2031C303.056 63.4503 303.182 63.7486 303.182 64.098C303.182 64.3324 303.122 64.5476 303.003 64.7436C302.888 64.9354 302.734 65.0888 302.543 65.2038C302.351 65.3189 302.138 65.3764 301.903 65.3764ZM301.903 58.8182C301.554 58.8182 301.254 58.6946 301.002 58.4474C300.751 58.196 300.625 57.8935 300.625 57.5398C300.625 57.1903 300.751 56.892 301.002 56.6449C301.254 56.3935 301.554 56.2678 301.903 56.2678C302.253 56.2678 302.553 56.3935 302.805 56.6449C303.056 56.892 303.182 57.1903 303.182 57.5398C303.182 57.7741 303.122 57.9893 303.003 58.1854C302.888 58.3771 302.734 58.5305 302.543 58.6456C302.351 58.7607 302.138 58.8182 301.903 58.8182ZM310.48 67V65.5682L314.91 60.9787C315.383 60.4801 315.773 60.0433 316.079 59.6683C316.39 59.2891 316.623 58.929 316.776 58.5881C316.93 58.2472 317.006 57.8849 317.006 57.5014C317.006 57.0668 316.904 56.6918 316.699 56.3764C316.495 56.0568 316.216 55.8118 315.862 55.6413C315.508 55.4666 315.11 55.3793 314.667 55.3793C314.198 55.3793 313.789 55.4751 313.439 55.6669C313.09 55.8587 312.822 56.1293 312.634 56.4787C312.447 56.8281 312.353 57.2372 312.353 57.706H310.467C310.467 56.9091 310.65 56.2124 311.017 55.6158C311.383 55.0192 311.886 54.5568 312.525 54.2287C313.165 53.8963 313.891 53.7301 314.705 53.7301C315.528 53.7301 316.252 53.8942 316.878 54.2223C317.509 54.5462 318.001 54.9893 318.355 55.5518C318.709 56.1101 318.885 56.7408 318.885 57.4439C318.885 57.9297 318.794 58.4048 318.611 58.8693C318.432 59.3338 318.118 59.8516 317.671 60.4226C317.224 60.9893 316.601 61.6776 315.805 62.4872L313.203 65.2102V65.3061H319.096V67H310.48ZM325.872 53.7301C326.456 53.7344 327.031 53.8409 327.598 54.0497C328.165 54.2585 328.676 54.5994 329.132 55.0724C329.592 55.5455 329.959 56.1847 330.231 56.9901C330.508 57.7912 330.649 58.7884 330.653 59.9815C330.653 61.1278 330.538 62.1484 330.308 63.0433C330.078 63.9339 329.748 64.6861 329.317 65.2997C328.891 65.9134 328.373 66.38 327.764 66.6996C327.155 67.0192 326.469 67.179 325.706 67.179C324.926 67.179 324.233 67.0256 323.628 66.7188C323.023 66.4119 322.531 65.9879 322.152 65.4467C321.773 64.9013 321.536 64.2749 321.442 63.5675H323.392C323.52 64.13 323.78 64.5859 324.172 64.9354C324.568 65.2805 325.079 65.4531 325.706 65.4531C326.665 65.4531 327.412 65.0355 327.949 64.2003C328.486 63.3608 328.757 62.1889 328.761 60.6847H328.659C328.437 61.0511 328.16 61.3665 327.828 61.6307C327.5 61.8949 327.131 62.0994 326.722 62.2443C326.313 62.3892 325.876 62.4616 325.412 62.4616C324.657 62.4616 323.971 62.2763 323.354 61.9055C322.736 61.5348 322.243 61.0256 321.877 60.3778C321.51 59.7301 321.327 58.9908 321.327 58.1598C321.327 57.3331 321.515 56.5831 321.89 55.9098C322.269 55.2365 322.797 54.7038 323.475 54.3118C324.157 53.9155 324.956 53.7216 325.872 53.7301ZM325.878 55.392C325.38 55.392 324.93 55.5156 324.53 55.7628C324.133 56.0057 323.82 56.3359 323.59 56.7536C323.36 57.1669 323.245 57.6271 323.245 58.1342C323.245 58.6413 323.356 59.1016 323.577 59.5149C323.803 59.924 324.11 60.25 324.498 60.4929C324.89 60.7315 325.337 60.8509 325.84 60.8509C326.215 60.8509 326.564 60.7784 326.888 60.6335C327.212 60.4886 327.496 60.2884 327.738 60.0327C327.981 59.7727 328.171 59.4787 328.307 59.1506C328.444 58.8224 328.512 58.4773 328.512 58.1151C328.512 57.6335 328.397 57.1861 328.167 56.7727C327.941 56.3594 327.63 56.027 327.233 55.7756C326.837 55.5199 326.385 55.392 325.878 55.392Z" fill="black"/>
<path d="M288.438 89V75.9091H290.413V87.2997H296.345V89H288.438ZM299.704 87.3764C299.355 87.3764 299.054 87.2528 298.803 87.0057C298.551 86.7543 298.426 86.4517 298.426 86.098C298.426 85.7486 298.551 85.4503 298.803 85.2031C299.054 84.9517 299.355 84.826 299.704 84.826C300.054 84.826 300.354 84.9517 300.605 85.2031C300.857 85.4503 300.983 85.7486 300.983 86.098C300.983 86.3324 300.923 86.5476 300.804 86.7436C300.689 86.9354 300.535 87.0888 300.343 87.2038C300.152 87.3189 299.939 87.3764 299.704 87.3764ZM299.704 80.8182C299.355 80.8182 299.054 80.6946 298.803 80.4474C298.551 80.196 298.426 79.8935 298.426 79.5398C298.426 79.1903 298.551 78.892 298.803 78.6449C299.054 78.3935 299.355 78.2678 299.704 78.2678C300.054 78.2678 300.354 78.3935 300.605 78.6449C300.857 78.892 300.983 79.1903 300.983 79.5398C300.983 79.7741 300.923 79.9893 300.804 80.1854C300.689 80.3771 300.535 80.5305 300.343 80.6456C300.152 80.7607 299.939 80.8182 299.704 80.8182ZM308.281 89V87.5682L312.71 82.9787C313.183 82.4801 313.573 82.0433 313.88 81.6683C314.191 81.2891 314.423 80.929 314.577 80.5881C314.73 80.2472 314.807 79.8849 314.807 79.5014C314.807 79.0668 314.705 78.6918 314.5 78.3764C314.296 78.0568 314.017 77.8118 313.663 77.6413C313.309 77.4666 312.911 77.3793 312.468 77.3793C311.999 77.3793 311.59 77.4751 311.24 77.6669C310.891 77.8587 310.622 78.1293 310.435 78.4787C310.247 78.8281 310.154 79.2372 310.154 79.706H308.268C308.268 78.9091 308.451 78.2124 308.818 77.6158C309.184 77.0192 309.687 76.5568 310.326 76.2287C310.965 75.8963 311.692 75.7301 312.506 75.7301C313.328 75.7301 314.053 75.8942 314.679 76.2223C315.31 76.5462 315.802 76.9893 316.156 77.5518C316.509 78.1101 316.686 78.7408 316.686 79.4439C316.686 79.9297 316.595 80.4048 316.411 80.8693C316.232 81.3338 315.919 81.8516 315.472 82.4226C315.024 82.9893 314.402 83.6776 313.605 84.4872L311.004 87.2102V87.3061H316.897V89H308.281ZM319.32 89V87.5682L323.749 82.9787C324.222 82.4801 324.612 82.0433 324.919 81.6683C325.23 81.2891 325.463 80.929 325.616 80.5881C325.769 80.2472 325.846 79.8849 325.846 79.5014C325.846 79.0668 325.744 78.6918 325.539 78.3764C325.335 78.0568 325.056 77.8118 324.702 77.6413C324.348 77.4666 323.95 77.3793 323.507 77.3793C323.038 77.3793 322.629 77.4751 322.279 77.6669C321.93 77.8587 321.661 78.1293 321.474 78.4787C321.286 78.8281 321.193 79.2372 321.193 79.706H319.307C319.307 78.9091 319.49 78.2124 319.857 77.6158C320.223 77.0192 320.726 76.5568 321.365 76.2287C322.004 75.8963 322.731 75.7301 323.545 75.7301C324.367 75.7301 325.092 75.8942 325.718 76.2223C326.349 76.5462 326.841 76.9893 327.195 77.5518C327.548 78.1101 327.725 78.7408 327.725 79.4439C327.725 79.9297 327.634 80.4048 327.45 80.8693C327.271 81.3338 326.958 81.8516 326.511 82.4226C326.063 82.9893 325.441 83.6776 324.644 84.4872L322.043 87.2102V87.3061H327.936V89H319.32Z" fill="black"/>
<path d="M341 173.5C341 174.881 339.881 176 338.5 176C337.119 176 336 174.881 336 173.5C336 172.119 337.119 171 338.5 171C339.881 171 341 172.119 341 173.5ZM336.809 173.5C336.809 174.434 337.566 175.191 338.5 175.191C339.434 175.191 340.191 174.434 340.191 173.5C340.191 172.566 339.434 171.809 338.5 171.809C337.566 171.809 336.809 172.566 336.809 173.5Z" fill="black"/>
<path d="M288.259 188V186.568L292.689 181.979C293.162 181.48 293.552 181.043 293.859 180.668C294.17 180.289 294.402 179.929 294.555 179.588C294.709 179.247 294.786 178.885 294.786 178.501C294.786 178.067 294.683 177.692 294.479 177.376C294.274 177.057 293.995 176.812 293.641 176.641C293.288 176.467 292.889 176.379 292.446 176.379C291.977 176.379 291.568 176.475 291.219 176.667C290.869 176.859 290.601 177.129 290.413 177.479C290.226 177.828 290.132 178.237 290.132 178.706H288.246C288.246 177.909 288.43 177.212 288.796 176.616C289.163 176.019 289.665 175.557 290.305 175.229C290.944 174.896 291.67 174.73 292.484 174.73C293.307 174.73 294.031 174.894 294.658 175.222C295.288 175.546 295.781 175.989 296.134 176.552C296.488 177.11 296.665 177.741 296.665 178.444C296.665 178.93 296.573 179.405 296.39 179.869C296.211 180.334 295.898 180.852 295.45 181.423C295.003 181.989 294.381 182.678 293.584 183.487L290.982 186.21V186.306H296.876V188H288.259ZM299.298 188V186.568L303.728 181.979C304.201 181.48 304.591 181.043 304.898 180.668C305.209 180.289 305.441 179.929 305.594 179.588C305.748 179.247 305.825 178.885 305.825 178.501C305.825 178.067 305.722 177.692 305.518 177.376C305.313 177.057 305.034 176.812 304.68 176.641C304.327 176.467 303.928 176.379 303.485 176.379C303.016 176.379 302.607 176.475 302.258 176.667C301.908 176.859 301.64 177.129 301.452 177.479C301.265 177.828 301.171 178.237 301.171 178.706H299.286C299.286 177.909 299.469 177.212 299.835 176.616C300.202 176.019 300.705 175.557 301.344 175.229C301.983 174.896 302.71 174.73 303.523 174.73C304.346 174.73 305.07 174.894 305.697 175.222C306.327 175.546 306.82 175.989 307.173 176.552C307.527 177.11 307.704 177.741 307.704 178.444C307.704 178.93 307.612 179.405 307.429 179.869C307.25 180.334 306.937 180.852 306.489 181.423C306.042 181.989 305.42 182.678 304.623 183.487L302.021 186.21V186.306H307.915V188H299.298Z" fill="#898787"/>
<path d="M319.659 188.179C318.781 188.179 317.997 188.028 317.306 187.725C316.62 187.423 316.077 187.003 315.676 186.466C315.28 185.925 315.067 185.298 315.037 184.587H317.044C317.07 184.974 317.2 185.311 317.434 185.597C317.673 185.878 317.984 186.095 318.367 186.249C318.751 186.402 319.177 186.479 319.646 186.479C320.161 186.479 320.617 186.389 321.014 186.21C321.414 186.031 321.727 185.782 321.953 185.462C322.179 185.138 322.292 184.766 322.292 184.344C322.292 183.905 322.179 183.519 321.953 183.187C321.732 182.85 321.406 182.586 320.975 182.394C320.549 182.202 320.034 182.107 319.428 182.107H318.323V180.496H319.428C319.914 180.496 320.34 180.408 320.707 180.234C321.078 180.059 321.367 179.816 321.576 179.505C321.785 179.19 321.889 178.821 321.889 178.399C321.889 177.994 321.798 177.643 321.615 177.344C321.436 177.042 321.18 176.805 320.847 176.635C320.519 176.464 320.132 176.379 319.684 176.379C319.258 176.379 318.86 176.458 318.489 176.616C318.122 176.769 317.824 176.991 317.594 177.281C317.364 177.566 317.24 177.909 317.223 178.31H315.312C315.333 177.602 315.542 176.98 315.938 176.443C316.339 175.906 316.867 175.487 317.524 175.184C318.18 174.881 318.909 174.73 319.71 174.73C320.549 174.73 321.274 174.894 321.883 175.222C322.497 175.546 322.97 175.979 323.302 176.52C323.639 177.061 323.805 177.653 323.801 178.297C323.805 179.03 323.6 179.652 323.187 180.163C322.778 180.675 322.232 181.018 321.551 181.192V181.295C322.42 181.427 323.093 181.772 323.57 182.33C324.052 182.888 324.291 183.581 324.286 184.408C324.291 185.128 324.09 185.773 323.686 186.344C323.285 186.915 322.737 187.365 322.043 187.693C321.348 188.017 320.553 188.179 319.659 188.179ZM331.024 188.179C330.222 188.179 329.502 188.026 328.863 187.719C328.228 187.408 327.721 186.982 327.342 186.44C326.963 185.899 326.76 185.281 326.735 184.587H328.652C328.699 185.149 328.948 185.612 329.4 185.974C329.852 186.336 330.393 186.517 331.024 186.517C331.526 186.517 331.972 186.402 332.36 186.172C332.752 185.938 333.058 185.616 333.28 185.207C333.506 184.798 333.619 184.331 333.619 183.807C333.619 183.274 333.504 182.799 333.274 182.381C333.044 181.964 332.726 181.636 332.321 181.397C331.921 181.158 331.46 181.037 330.941 181.033C330.544 181.033 330.146 181.101 329.745 181.237C329.345 181.374 329.021 181.553 328.774 181.774L326.965 181.506L327.7 174.909H334.897V176.603H329.343L328.927 180.266H329.004C329.259 180.018 329.598 179.812 330.02 179.646C330.446 179.479 330.902 179.396 331.388 179.396C332.185 179.396 332.894 179.586 333.517 179.965C334.143 180.344 334.635 180.862 334.993 181.518C335.355 182.17 335.534 182.92 335.53 183.768C335.534 184.616 335.343 185.373 334.955 186.038C334.571 186.702 334.039 187.227 333.357 187.61C332.679 187.989 331.901 188.179 331.024 188.179Z" fill="black"/>
<path d="M341 214.5C341 215.881 339.881 217 338.5 217C337.119 217 336 215.881 336 214.5C336 213.119 337.119 212 338.5 212C339.881 212 341 213.119 341 214.5ZM336.809 214.5C336.809 215.434 337.566 216.191 338.5 216.191C339.434 216.191 340.191 215.434 340.191 214.5C340.191 213.566 339.434 212.809 338.5 212.809C337.566 212.809 336.809 213.566 336.809 214.5Z" fill="black"/>
<path d="M288.259 229V227.568L292.689 222.979C293.162 222.48 293.552 222.043 293.859 221.668C294.17 221.289 294.402 220.929 294.555 220.588C294.709 220.247 294.786 219.885 294.786 219.501C294.786 219.067 294.683 218.692 294.479 218.376C294.274 218.057 293.995 217.812 293.641 217.641C293.288 217.467 292.889 217.379 292.446 217.379C291.977 217.379 291.568 217.475 291.219 217.667C290.869 217.859 290.601 218.129 290.413 218.479C290.226 218.828 290.132 219.237 290.132 219.706H288.246C288.246 218.909 288.43 218.212 288.796 217.616C289.163 217.019 289.665 216.557 290.305 216.229C290.944 215.896 291.67 215.73 292.484 215.73C293.307 215.73 294.031 215.894 294.658 216.222C295.288 216.546 295.781 216.989 296.134 217.552C296.488 218.11 296.665 218.741 296.665 219.444C296.665 219.93 296.573 220.405 296.39 220.869C296.211 221.334 295.898 221.852 295.45 222.423C295.003 222.989 294.381 223.678 293.584 224.487L290.982 227.21V227.306H296.876V229H288.259ZM303.619 229.179C302.818 229.179 302.098 229.026 301.459 228.719C300.824 228.408 300.317 227.982 299.938 227.44C299.558 226.899 299.356 226.281 299.33 225.587H301.248C301.295 226.149 301.544 226.612 301.996 226.974C302.447 227.336 302.989 227.517 303.619 227.517C304.122 227.517 304.567 227.402 304.955 227.172C305.347 226.938 305.654 226.616 305.876 226.207C306.102 225.798 306.214 225.331 306.214 224.807C306.214 224.274 306.099 223.799 305.869 223.381C305.639 222.964 305.322 222.636 304.917 222.397C304.516 222.158 304.056 222.037 303.536 222.033C303.14 222.033 302.741 222.101 302.341 222.237C301.94 222.374 301.616 222.553 301.369 222.774L299.56 222.506L300.295 215.909H307.493V217.603H301.938L301.523 221.266H301.599C301.855 221.018 302.194 220.812 302.616 220.646C303.042 220.479 303.498 220.396 303.984 220.396C304.781 220.396 305.49 220.586 306.112 220.965C306.739 221.344 307.231 221.862 307.589 222.518C307.951 223.17 308.13 223.92 308.126 224.768C308.13 225.616 307.938 226.373 307.55 227.038C307.167 227.702 306.634 228.227 305.952 228.61C305.275 228.989 304.497 229.179 303.619 229.179Z" fill="#898787"/>
<path d="M319.782 229.179C318.904 229.179 318.12 229.028 317.429 228.725C316.743 228.423 316.2 228.003 315.799 227.466C315.403 226.925 315.19 226.298 315.16 225.587H317.167C317.193 225.974 317.323 226.311 317.557 226.597C317.796 226.878 318.107 227.095 318.49 227.249C318.874 227.402 319.3 227.479 319.769 227.479C320.284 227.479 320.74 227.389 321.137 227.21C321.537 227.031 321.85 226.782 322.076 226.462C322.302 226.138 322.415 225.766 322.415 225.344C322.415 224.905 322.302 224.519 322.076 224.187C321.855 223.85 321.529 223.586 321.098 223.394C320.672 223.202 320.157 223.107 319.551 223.107H318.446V221.496H319.551C320.037 221.496 320.463 221.408 320.83 221.234C321.201 221.059 321.49 220.816 321.699 220.505C321.908 220.19 322.012 219.821 322.012 219.399C322.012 218.994 321.921 218.643 321.738 218.344C321.559 218.042 321.303 217.805 320.971 217.635C320.642 217.464 320.255 217.379 319.807 217.379C319.381 217.379 318.983 217.458 318.612 217.616C318.245 217.769 317.947 217.991 317.717 218.281C317.487 218.566 317.363 218.909 317.346 219.31H315.435C315.456 218.602 315.665 217.98 316.061 217.443C316.462 216.906 316.99 216.487 317.647 216.184C318.303 215.881 319.032 215.73 319.833 215.73C320.672 215.73 321.397 215.894 322.006 216.222C322.62 216.546 323.093 216.979 323.425 217.52C323.762 218.061 323.928 218.653 323.924 219.297C323.928 220.03 323.723 220.652 323.31 221.163C322.901 221.675 322.355 222.018 321.674 222.192V222.295C322.543 222.427 323.216 222.772 323.694 223.33C324.175 223.888 324.414 224.581 324.409 225.408C324.414 226.128 324.213 226.773 323.809 227.344C323.408 227.915 322.86 228.365 322.166 228.693C321.471 229.017 320.676 229.179 319.782 229.179ZM331.249 229.179C330.333 229.179 329.523 229.021 328.82 228.706C328.121 228.391 327.574 227.956 327.177 227.402C326.781 226.848 326.585 226.217 326.589 225.51C326.585 224.956 326.698 224.447 326.928 223.982C327.162 223.513 327.48 223.124 327.88 222.812C328.281 222.497 328.728 222.297 329.223 222.212V222.135C328.571 221.977 328.049 221.628 327.657 221.087C327.265 220.545 327.071 219.923 327.075 219.22C327.071 218.551 327.248 217.955 327.605 217.43C327.968 216.902 328.464 216.487 329.095 216.184C329.725 215.881 330.444 215.73 331.249 215.73C332.046 215.73 332.757 215.884 333.384 216.19C334.015 216.493 334.511 216.908 334.873 217.437C335.235 217.961 335.419 218.555 335.423 219.22C335.419 219.923 335.218 220.545 334.822 221.087C334.426 221.628 333.91 221.977 333.275 222.135V222.212C333.765 222.297 334.206 222.497 334.598 222.812C334.995 223.124 335.31 223.513 335.544 223.982C335.783 224.447 335.904 224.956 335.909 225.51C335.904 226.217 335.704 226.848 335.308 227.402C334.912 227.956 334.362 228.391 333.659 228.706C332.96 229.021 332.157 229.179 331.249 229.179ZM331.249 227.562C331.79 227.562 332.259 227.472 332.655 227.293C333.051 227.11 333.358 226.857 333.576 226.533C333.793 226.205 333.904 225.821 333.908 225.382C333.904 224.926 333.784 224.523 333.55 224.174C333.32 223.825 333.007 223.55 332.61 223.349C332.214 223.149 331.76 223.049 331.249 223.049C330.733 223.049 330.275 223.149 329.875 223.349C329.474 223.55 329.159 223.825 328.929 224.174C328.699 224.523 328.586 224.926 328.59 225.382C328.586 225.821 328.69 226.205 328.903 226.533C329.12 226.857 329.429 227.11 329.83 227.293C330.23 227.472 330.703 227.562 331.249 227.562ZM331.249 221.47C331.684 221.47 332.069 221.383 332.406 221.208C332.743 221.033 333.007 220.79 333.199 220.479C333.395 220.168 333.495 219.804 333.499 219.386C333.495 218.977 333.397 218.619 333.205 218.312C333.017 218.006 332.755 217.769 332.419 217.603C332.082 217.433 331.692 217.347 331.249 217.347C330.797 217.347 330.401 217.433 330.06 217.603C329.723 217.769 329.461 218.006 329.274 218.312C329.086 218.619 328.995 218.977 328.999 219.386C328.995 219.804 329.088 220.168 329.28 220.479C329.472 220.79 329.736 221.033 330.073 221.208C330.414 221.383 330.806 221.47 331.249 221.47Z" fill="black"/>
<path d="M341 256.5C341 257.881 339.881 259 338.5 259C337.119 259 336 257.881 336 256.5C336 255.119 337.119 254 338.5 254C339.881 254 341 255.119 341 256.5ZM336.809 256.5C336.809 257.434 337.566 258.191 338.5 258.191C339.434 258.191 340.191 257.434 340.191 256.5C340.191 255.566 339.434 254.809 338.5 254.809C337.566 254.809 336.809 255.566 336.809 256.5Z" fill="black"/>
<path d="M293.259 272V270.568L297.689 265.979C298.162 265.48 298.552 265.043 298.859 264.668C299.17 264.289 299.402 263.929 299.555 263.588C299.709 263.247 299.786 262.885 299.786 262.501C299.786 262.067 299.683 261.692 299.479 261.376C299.274 261.057 298.995 260.812 298.641 260.641C298.288 260.467 297.889 260.379 297.446 260.379C296.977 260.379 296.568 260.475 296.219 260.667C295.869 260.859 295.601 261.129 295.413 261.479C295.226 261.828 295.132 262.237 295.132 262.706H293.246C293.246 261.909 293.43 261.212 293.796 260.616C294.163 260.019 294.665 259.557 295.305 259.229C295.944 258.896 296.67 258.73 297.484 258.73C298.307 258.73 299.031 258.894 299.658 259.222C300.288 259.546 300.781 259.989 301.134 260.552C301.488 261.11 301.665 261.741 301.665 262.444C301.665 262.93 301.573 263.405 301.39 263.869C301.211 264.334 300.898 264.852 300.45 265.423C300.003 265.989 299.381 266.678 298.584 267.487L295.982 270.21V270.306H301.876V272H293.259ZM309.265 258.909V272H307.283V260.891H307.207L304.075 262.936V261.044L307.341 258.909H309.265Z" fill="#898787"/>
<path d="M322.127 272.179C321.249 272.179 320.465 272.028 319.775 271.725C319.089 271.423 318.546 271.003 318.145 270.466C317.749 269.925 317.536 269.298 317.506 268.587H319.513C319.539 268.974 319.669 269.311 319.903 269.597C320.142 269.878 320.453 270.095 320.836 270.249C321.22 270.402 321.646 270.479 322.115 270.479C322.63 270.479 323.086 270.389 323.482 270.21C323.883 270.031 324.196 269.782 324.422 269.462C324.648 269.138 324.761 268.766 324.761 268.344C324.761 267.905 324.648 267.519 324.422 267.187C324.2 266.85 323.874 266.586 323.444 266.394C323.018 266.202 322.502 266.107 321.897 266.107H320.791V264.496H321.897C322.383 264.496 322.809 264.408 323.176 264.234C323.546 264.059 323.836 263.816 324.045 263.505C324.254 263.19 324.358 262.821 324.358 262.399C324.358 261.994 324.267 261.643 324.083 261.344C323.904 261.042 323.649 260.805 323.316 260.635C322.988 260.464 322.6 260.379 322.153 260.379C321.727 260.379 321.328 260.458 320.958 260.616C320.591 260.769 320.293 260.991 320.063 261.281C319.833 261.566 319.709 261.909 319.692 262.31H317.781C317.802 261.602 318.011 260.98 318.407 260.443C318.808 259.906 319.336 259.487 319.992 259.184C320.649 258.881 321.377 258.73 322.178 258.73C323.018 258.73 323.742 258.894 324.352 259.222C324.965 259.546 325.438 259.979 325.771 260.52C326.107 261.061 326.274 261.653 326.269 262.297C326.274 263.03 326.069 263.652 325.656 264.163C325.247 264.675 324.701 265.018 324.019 265.192V265.295C324.889 265.427 325.562 265.772 326.039 266.33C326.521 266.888 326.759 267.581 326.755 268.408C326.759 269.128 326.559 269.773 326.154 270.344C325.754 270.915 325.206 271.365 324.512 271.693C323.817 272.017 323.022 272.179 322.127 272.179ZM334.138 258.909V272H332.156V260.891H332.08L328.948 262.936V261.044L332.214 258.909H334.138Z" fill="black"/>
<path d="M323.592 34.5668C323.384 34.3982 323.12 34.3126 322.853 34.3265C322.586 34.3404 322.333 34.4528 322.144 34.642C321.954 34.8313 321.842 35.084 321.827 35.3514C321.813 35.6188 321.899 35.8819 322.067 36.09L322.141 36.1723L322.906 36.9372L322.989 37.0119C323.197 37.1794 323.46 37.264 323.727 37.2497C323.993 37.2353 324.245 37.1228 324.434 36.9339C324.623 36.745 324.736 36.493 324.75 36.2263C324.765 35.9595 324.68 35.6969 324.512 35.4887L324.438 35.4053L323.673 34.6405L323.592 34.5668ZM319.012 30.5C319.623 30.5 320.167 31.0167 320.167 31.7144C320.167 32.1943 319.904 32.5984 319.538 32.7977C319.291 32.9375 319.109 33.1685 319.03 33.4411C318.952 33.7137 318.984 34.0062 319.118 34.2557C319.253 34.5053 319.481 34.6919 319.752 34.7756C320.023 34.8593 320.316 34.8334 320.568 34.7033C321.104 34.4104 321.552 33.9779 321.863 33.4515C322.174 32.9252 322.336 32.3246 322.334 31.7133C322.334 29.8727 320.872 28.3333 319.012 28.3322C317.571 28.3322 316.368 29.2596 315.901 30.5249C315.805 30.7937 315.818 31.0896 315.939 31.3483C316.06 31.6071 316.278 31.8077 316.545 31.9067C316.813 32.0056 317.109 31.9948 317.369 31.8766C317.629 31.7585 317.832 31.5425 317.933 31.2757C318.012 31.0513 318.158 30.8566 318.351 30.7179C318.544 30.5791 318.775 30.5031 319.012 30.5ZM326.667 31.5833C326.667 31.296 326.553 31.0205 326.35 30.8173C326.147 30.6141 325.871 30.5 325.584 30.5H324.437C324.149 30.5 323.874 30.6141 323.671 30.8173C323.467 31.0205 323.353 31.296 323.353 31.5833C323.353 31.8707 323.467 32.1462 323.671 32.3494C323.874 32.5525 324.149 32.6667 324.437 32.6667H325.584C325.871 32.6667 326.147 32.5525 326.35 32.3494C326.553 32.1462 326.667 31.8707 326.667 31.5833ZM315.179 26.1558C314.971 25.9872 314.708 25.9016 314.441 25.9155C314.174 25.9294 313.921 26.0418 313.731 26.231C313.542 26.4203 313.429 26.673 313.415 26.9404C313.401 27.2078 313.487 27.4709 313.655 27.679L313.73 27.7613L314.495 28.5262L314.577 28.5998C314.785 28.7673 315.048 28.852 315.315 28.8376C315.581 28.8232 315.833 28.7107 316.022 28.5218C316.211 28.333 316.324 28.0809 316.338 27.8142C316.352 27.5474 316.268 27.2848 316.1 27.0767L316.027 26.9943L315.262 26.2295L315.179 26.1558ZM324.438 26.2295C324.234 26.0264 323.959 25.9123 323.672 25.9123C323.384 25.9123 323.109 26.0264 322.906 26.2295L322.141 26.9943C321.944 27.1987 321.834 27.4723 321.837 27.7564C321.839 28.0404 321.953 28.3121 322.154 28.513C322.355 28.7138 322.627 28.8278 322.911 28.8302C323.195 28.8327 323.468 28.7235 323.673 28.5262L324.438 27.7613C324.641 27.5582 324.755 27.2827 324.755 26.9954C324.755 26.7082 324.641 26.4327 324.438 26.2295ZM318 25.0833V26.2306C318 26.5179 318.115 26.7935 318.318 26.9966C318.521 27.1998 318.796 27.3139 319.084 27.3139C319.371 27.3139 319.647 27.1998 319.85 26.9966C320.053 26.7935 320.167 26.5179 320.167 26.2306V25.0833C320.167 24.796 320.053 24.5205 319.85 24.3173C319.647 24.1141 319.371 24 319.084 24C318.796 24 318.521 24.1141 318.318 24.3173C318.115 24.5205 318 24.796 318 25.0833ZM308.956 33.6297C310.628 32.7468 312.672 32.372 314.526 32.9277C316.249 33.4445 317.672 34.7261 318.432 36.8256C320.131 37.0531 321.723 37.9696 322.633 39.2338C323.171 39.9835 323.505 40.9065 323.397 41.9021C323.294 42.8467 322.809 43.7199 321.987 44.4631L321.817 44.6093C320.772 45.4847 319.352 45.6667 318.32 45.6667H311.042C310.243 45.6681 309.452 45.4973 308.724 45.1659C307.996 44.8344 307.349 44.3501 306.825 43.7459C305.07 41.8154 304.661 39.7072 305.256 37.8092C305.83 35.9806 307.285 34.5116 308.956 33.6297Z" fill="#FBAF0B"/>
<path d="M44.6719 38V54H42.4531L34.3203 42.2656H34.1719V54H31.7578V38H33.9922L42.1328 49.75H42.2812V38H44.6719ZM53.1777 54.2422C51.9954 54.2422 50.9772 53.9896 50.123 53.4844C49.2741 52.974 48.6178 52.2578 48.1543 51.3359C47.696 50.4089 47.4668 49.3229 47.4668 48.0781C47.4668 46.849 47.696 45.7656 48.1543 44.8281C48.6178 43.8906 49.2637 43.1589 50.0918 42.6328C50.9251 42.1068 51.8991 41.8438 53.0137 41.8438C53.6908 41.8438 54.347 41.9557 54.9824 42.1797C55.6178 42.4036 56.1882 42.7552 56.6934 43.2344C57.1986 43.7135 57.597 44.3359 57.8887 45.1016C58.1803 45.862 58.3262 46.7865 58.3262 47.875V48.7031H48.7871V46.9531H56.0371C56.0371 46.3385 55.9121 45.7943 55.6621 45.3203C55.4121 44.8411 55.0605 44.4635 54.6074 44.1875C54.1595 43.9115 53.6335 43.7734 53.0293 43.7734C52.373 43.7734 51.8001 43.9349 51.3105 44.2578C50.8262 44.5755 50.4512 44.9922 50.1855 45.5078C49.9251 46.0182 49.7949 46.5729 49.7949 47.1719V48.5391C49.7949 49.3411 49.9355 50.0234 50.2168 50.5859C50.5033 51.1484 50.9017 51.5781 51.4121 51.875C51.9225 52.1667 52.5189 52.3125 53.2012 52.3125C53.6439 52.3125 54.0475 52.25 54.4121 52.125C54.7767 51.9948 55.0918 51.8021 55.3574 51.5469C55.623 51.2917 55.8262 50.9766 55.9668 50.6016L58.1777 51C58.0007 51.651 57.6829 52.2214 57.2246 52.7109C56.7715 53.1953 56.2012 53.5729 55.5137 53.8437C54.8314 54.1094 54.0527 54.2422 53.1777 54.2422ZM63.498 54L59.9668 42H62.3809L64.7324 50.8125H64.8496L67.209 42H69.623L71.9668 50.7734H72.084L74.4199 42H76.834L73.3105 54H70.9277L68.4902 45.3359H68.3105L65.873 54H63.498ZM83.8262 38H86.5684L90.748 45.2734H90.9199L95.0996 38H97.8418L92.0371 47.7187V54H89.6309V47.7187L83.8262 38ZM103.012 54.2422C101.887 54.2422 100.905 53.9844 100.066 53.4687C99.2279 52.9531 98.5768 52.2318 98.1133 51.3047C97.6497 50.3776 97.418 49.2943 97.418 48.0547C97.418 46.8099 97.6497 45.7214 98.1133 44.7891C98.5768 43.8568 99.2279 43.1328 100.066 42.6172C100.905 42.1016 101.887 41.8438 103.012 41.8438C104.137 41.8438 105.118 42.1016 105.957 42.6172C106.796 43.1328 107.447 43.8568 107.91 44.7891C108.374 45.7214 108.605 46.8099 108.605 48.0547C108.605 49.2943 108.374 50.3776 107.91 51.3047C107.447 52.2318 106.796 52.9531 105.957 53.4687C105.118 53.9844 104.137 54.2422 103.012 54.2422ZM103.02 52.2812C103.749 52.2812 104.353 52.0885 104.832 51.7031C105.311 51.3177 105.665 50.8047 105.895 50.1641C106.129 49.5234 106.246 48.8177 106.246 48.0469C106.246 47.2812 106.129 46.5781 105.895 45.9375C105.665 45.2917 105.311 44.7734 104.832 44.3828C104.353 43.9922 103.749 43.7969 103.02 43.7969C102.285 43.7969 101.676 43.9922 101.191 44.3828C100.712 44.7734 100.355 45.2917 100.121 45.9375C99.8919 46.5781 99.7773 47.2812 99.7773 48.0469C99.7773 48.8177 99.8919 49.5234 100.121 50.1641C100.355 50.8047 100.712 51.3177 101.191 51.7031C101.676 52.0885 102.285 52.2812 103.02 52.2812ZM111.213 54V42H113.471V43.9062H113.596C113.814 43.2604 114.2 42.7526 114.752 42.3828C115.309 42.0078 115.939 41.8203 116.643 41.8203C116.788 41.8203 116.96 41.8255 117.158 41.8359C117.361 41.8464 117.52 41.8594 117.635 41.875V44.1094C117.541 44.0833 117.374 44.0547 117.135 44.0234C116.895 43.987 116.656 43.9687 116.416 43.9687C115.864 43.9687 115.372 44.0859 114.939 44.3203C114.512 44.5495 114.174 44.8698 113.924 45.2812C113.674 45.6875 113.549 46.151 113.549 46.6719V54H111.213ZM121.805 49.9297L121.789 47.0781H122.195L126.977 42H129.773L124.32 47.7812H123.953L121.805 49.9297ZM119.656 54V38H121.992V54H119.656ZM127.234 54L122.938 48.2969L124.547 46.6641L130.102 54H127.234Z" fill="black"/>
<path d="M33.8477 116V111.625L47.3828 97.6016C48.8281 96.0781 50.0195 94.7435 50.957 93.5977C51.9076 92.4388 52.6172 91.3385 53.0859 90.2969C53.5547 89.2552 53.7891 88.1484 53.7891 86.9766C53.7891 85.6484 53.4766 84.5026 52.8516 83.5391C52.2266 82.5625 51.3737 81.8138 50.293 81.293C49.2122 80.7591 47.9948 80.4922 46.6406 80.4922C45.2083 80.4922 43.9583 80.7852 42.8906 81.3711C41.8229 81.957 41.0026 82.7839 40.4297 83.8516C39.8568 84.9193 39.5703 86.1693 39.5703 87.6016H33.8086C33.8086 85.1667 34.3685 83.0378 35.4883 81.2148C36.6081 79.3919 38.1445 77.9792 40.0977 76.9766C42.0508 75.9609 44.2708 75.4531 46.7578 75.4531C49.2708 75.4531 51.4844 75.9544 53.3984 76.957C55.3255 77.9466 56.8294 79.3008 57.9102 81.0195C58.9909 82.7253 59.5312 84.6523 59.5312 86.8008C59.5312 88.2852 59.2513 89.737 58.6914 91.1562C58.1445 92.5755 57.1875 94.1576 55.8203 95.9023C54.4531 97.6341 52.5521 99.737 50.1172 102.211L42.168 110.531V110.824H60.1758V116H33.8477ZM80.7813 116.547C78.3333 116.547 76.1328 116.078 74.1797 115.141C72.2396 114.19 70.6901 112.888 69.5312 111.234C68.3724 109.581 67.7539 107.693 67.6758 105.57H73.5352C73.6784 107.289 74.4401 108.702 75.8203 109.809C77.2005 110.915 78.8542 111.469 80.7813 111.469C82.3177 111.469 83.6784 111.117 84.8633 110.414C86.0612 109.698 86.9987 108.715 87.6758 107.465C88.3659 106.215 88.7109 104.789 88.7109 103.187C88.7109 101.56 88.3594 100.108 87.6563 98.832C86.9531 97.556 85.9831 96.5534 84.7461 95.8242C83.5221 95.0951 82.1159 94.724 80.5273 94.7109C79.3164 94.7109 78.099 94.9193 76.875 95.3359C75.651 95.7526 74.6615 96.2995 73.9062 96.9766L68.3789 96.1562L70.625 76H92.6172V81.1758H75.6445L74.375 92.3672H74.6094C75.3906 91.612 76.4258 90.9805 77.7148 90.4727C79.0169 89.9648 80.4102 89.7109 81.8945 89.7109C84.3294 89.7109 86.4974 90.2904 88.3984 91.4492C90.3125 92.6081 91.8164 94.1901 92.9102 96.1953C94.0169 98.1875 94.5638 100.479 94.5508 103.07C94.5638 105.661 93.9779 107.973 92.793 110.004C91.6211 112.035 89.9935 113.637 87.9102 114.809C85.8398 115.967 83.4635 116.547 80.7813 116.547Z" fill="black"/>
<path d="M31.598 140.455H34.2614L38.892 151.761H39.0625L43.6932 140.455H46.3565V155H44.2685V144.474H44.1335L39.8438 154.979H38.1108L33.821 144.467H33.6861V155H31.598V140.455ZM53.9719 155.22C52.9492 155.22 52.0567 154.986 51.2944 154.517C50.5321 154.048 49.9402 153.393 49.5188 152.55C49.0974 151.707 48.8867 150.722 48.8867 149.595C48.8867 148.464 49.0974 147.474 49.5188 146.626C49.9402 145.779 50.5321 145.121 51.2944 144.652C52.0567 144.183 52.9492 143.949 53.9719 143.949C54.9947 143.949 55.8872 144.183 56.6495 144.652C57.4118 145.121 58.0037 145.779 58.4251 146.626C58.8465 147.474 59.0572 148.464 59.0572 149.595C59.0572 150.722 58.8465 151.707 58.4251 152.55C58.0037 153.393 57.4118 154.048 56.6495 154.517C55.8872 154.986 54.9947 155.22 53.9719 155.22ZM53.979 153.438C54.6419 153.438 55.1912 153.262 55.6268 152.912C56.0624 152.562 56.3844 152.095 56.5927 151.513C56.8058 150.93 56.9123 150.289 56.9123 149.588C56.9123 148.892 56.8058 148.253 56.5927 147.67C56.3844 147.083 56.0624 146.612 55.6268 146.257C55.1912 145.902 54.6419 145.724 53.979 145.724C53.3114 145.724 52.7575 145.902 52.3171 146.257C51.8815 146.612 51.5572 147.083 51.3441 147.67C51.1358 148.253 51.0316 148.892 51.0316 149.588C51.0316 150.289 51.1358 150.93 51.3441 151.513C51.5572 152.095 51.8815 152.562 52.3171 152.912C52.7575 153.262 53.3114 153.438 53.979 153.438ZM63.5511 148.523V155H61.4276V144.091H63.4659V145.866H63.6009C63.8518 145.289 64.2448 144.825 64.7798 144.474C65.3196 144.124 65.9991 143.949 66.8182 143.949C67.5616 143.949 68.2126 144.105 68.7713 144.418C69.33 144.725 69.7633 145.185 70.071 145.795C70.3788 146.406 70.5327 147.161 70.5327 148.061V155H68.4091V148.317C68.4091 147.526 68.2031 146.908 67.7912 146.463C67.3793 146.013 66.8134 145.788 66.0938 145.788C65.6013 145.788 65.1634 145.895 64.7798 146.108C64.401 146.321 64.1004 146.634 63.8778 147.045C63.66 147.453 63.5511 147.945 63.5511 148.523Z" fill="black"/>
<path d="M30.8807 183.344V181.455H42.1378V183.344H37.5994V196H35.4119V183.344H30.8807ZM49.881 191.476V185.091H52.0117V196H49.9237V194.111H49.81C49.5591 194.693 49.1566 195.179 48.6026 195.567C48.0534 195.95 47.3692 196.142 46.5501 196.142C45.8493 196.142 45.229 195.988 44.6893 195.68C44.1542 195.368 43.7328 194.906 43.4251 194.295C43.122 193.685 42.9705 192.929 42.9705 192.03V185.091H45.0941V191.774C45.0941 192.518 45.3001 193.109 45.712 193.55C46.1239 193.99 46.659 194.21 47.3171 194.21C47.7148 194.21 48.1102 194.111 48.5032 193.912C48.9009 193.713 49.23 193.412 49.4904 193.01C49.7556 192.607 49.8858 192.096 49.881 191.476ZM59.5668 196.22C58.492 196.22 57.5663 195.991 56.7898 195.531C56.018 195.067 55.4214 194.416 55 193.578C54.5833 192.735 54.375 191.748 54.375 190.616C54.375 189.499 54.5833 188.514 55 187.662C55.4214 186.81 56.0085 186.144 56.7614 185.666C57.5189 185.188 58.4044 184.949 59.4176 184.949C60.0331 184.949 60.6297 185.051 61.2074 185.254C61.785 185.458 62.3035 185.777 62.7628 186.213C63.2221 186.649 63.5843 187.214 63.8494 187.911C64.1146 188.602 64.2472 189.442 64.2472 190.432V191.185H55.5753V189.594H62.1662C62.1662 189.035 62.0526 188.54 61.8253 188.109C61.598 187.674 61.2784 187.33 60.8665 187.08C60.4593 186.829 59.9811 186.703 59.4318 186.703C58.8352 186.703 58.3144 186.85 57.8693 187.143C57.429 187.432 57.0881 187.811 56.8466 188.28C56.6098 188.744 56.4915 189.248 56.4915 189.793V191.036C56.4915 191.765 56.6193 192.385 56.875 192.896C57.1354 193.408 57.4976 193.798 57.9616 194.068C58.4257 194.333 58.9678 194.466 59.5881 194.466C59.9905 194.466 60.3575 194.409 60.6889 194.295C61.0204 194.177 61.3068 194.002 61.5483 193.77C61.7898 193.538 61.9744 193.251 62.1023 192.911L64.1122 193.273C63.9512 193.865 63.6624 194.383 63.2457 194.828C62.8338 195.268 62.3153 195.612 61.6903 195.858C61.0701 196.099 60.3622 196.22 59.5668 196.22Z" fill="black"/>
<path d="M34.446 237L30.4119 222.455H32.7202L35.554 233.719H35.6889L38.6364 222.455H40.9233L43.8707 233.726H44.0057L46.8324 222.455H49.1477L45.1065 237H42.8977L39.8366 226.105H39.723L36.6619 237H34.446ZM54.6058 237.22C53.531 237.22 52.6054 236.991 51.8288 236.531C51.0571 236.067 50.4605 235.416 50.0391 234.578C49.6224 233.735 49.4141 232.748 49.4141 231.616C49.4141 230.499 49.6224 229.514 50.0391 228.662C50.4605 227.81 51.0476 227.144 51.8004 226.666C52.558 226.188 53.4434 225.949 54.4567 225.949C55.0722 225.949 55.6688 226.051 56.2464 226.254C56.8241 226.458 57.3426 226.777 57.8018 227.213C58.2611 227.649 58.6233 228.214 58.8885 228.911C59.1536 229.602 59.2862 230.442 59.2862 231.432V232.185H50.6143V230.594H57.2053C57.2053 230.035 57.0916 229.54 56.8643 229.109C56.6371 228.674 56.3175 228.33 55.9055 228.08C55.4983 227.829 55.0201 227.703 54.4709 227.703C53.8743 227.703 53.3535 227.85 52.9084 228.143C52.468 228.432 52.1271 228.811 51.8857 229.28C51.6489 229.744 51.5305 230.248 51.5305 230.793V232.036C51.5305 232.765 51.6584 233.385 51.9141 233.896C52.1745 234.408 52.5367 234.798 53.0007 235.068C53.4647 235.333 54.0069 235.466 54.6271 235.466C55.0296 235.466 55.3965 235.409 55.728 235.295C56.0594 235.177 56.3459 235.002 56.5874 234.77C56.8288 234.538 57.0135 234.251 57.1413 233.911L59.1513 234.273C58.9903 234.865 58.7015 235.383 58.2848 235.828C57.8729 236.268 57.3544 236.612 56.7294 236.858C56.1091 237.099 55.4013 237.22 54.6058 237.22ZM65.7262 237.213C64.8455 237.213 64.0595 236.988 63.3683 236.538C62.6817 236.084 62.1419 235.437 61.7489 234.599C61.3607 233.757 61.1665 232.746 61.1665 231.567C61.1665 230.388 61.363 229.379 61.756 228.541C62.1538 227.703 62.6983 227.062 63.3896 226.616C64.0808 226.171 64.8645 225.949 65.7404 225.949C66.4175 225.949 66.962 226.062 67.3739 226.29C67.7906 226.512 68.1126 226.773 68.3398 227.071C68.5719 227.369 68.7518 227.632 68.8796 227.859H69.0075V222.455H71.131V237H69.0572V235.303H68.8796C68.7518 235.535 68.5671 235.8 68.3256 236.098C68.0889 236.396 67.7622 236.657 67.3455 236.879C66.9289 237.102 66.3891 237.213 65.7262 237.213ZM66.195 235.402C66.8058 235.402 67.3219 235.241 67.7433 234.919C68.1694 234.592 68.4914 234.14 68.7092 233.562C68.9317 232.985 69.043 232.312 69.043 231.545C69.043 230.788 68.9341 230.125 68.7163 229.557C68.4985 228.989 68.1789 228.546 67.7575 228.229C67.3361 227.911 66.8152 227.753 66.195 227.753C65.5558 227.753 65.0231 227.919 64.5969 228.25C64.1708 228.581 63.8488 229.034 63.631 229.607C63.418 230.179 63.3114 230.826 63.3114 231.545C63.3114 232.275 63.4203 232.93 63.6381 233.513C63.8559 234.095 64.1779 234.557 64.604 234.898C65.0349 235.234 65.5652 235.402 66.195 235.402Z" fill="black"/>
<path d="M30.8807 265.344V263.455H42.1378V265.344H37.5994V278H35.4119V265.344H30.8807ZM46.5785 271.523V278H44.4549V263.455H46.5501V268.866H46.685C46.9407 268.279 47.3313 267.813 47.8569 267.467C48.3825 267.122 49.069 266.949 49.9165 266.949C50.6647 266.949 51.3181 267.103 51.8768 267.411C52.4402 267.718 52.8758 268.178 53.1836 268.788C53.4961 269.394 53.6523 270.152 53.6523 271.061V278H51.5288V271.317C51.5288 270.517 51.3228 269.896 50.9109 269.456C50.4989 269.011 49.926 268.788 49.1921 268.788C48.6902 268.788 48.2404 268.895 47.8427 269.108C47.4497 269.321 47.1396 269.634 46.9123 270.045C46.6897 270.453 46.5785 270.945 46.5785 271.523ZM63.3967 273.476V267.091H65.5273V278H63.4393V276.111H63.3256C63.0747 276.693 62.6722 277.179 62.1183 277.567C61.569 277.95 60.8848 278.142 60.0657 278.142C59.3649 278.142 58.7447 277.988 58.2049 277.68C57.6699 277.368 57.2485 276.906 56.9407 276.295C56.6377 275.685 56.4862 274.929 56.4862 274.03V267.091H58.6097V273.774C58.6097 274.518 58.8157 275.109 59.2276 275.55C59.6396 275.99 60.1746 276.21 60.8327 276.21C61.2305 276.21 61.6258 276.111 62.0188 275.912C62.4165 275.713 62.7456 275.412 63.006 275.01C63.2712 274.607 63.4014 274.096 63.3967 273.476Z" fill="black"/>
<path d="M36.598 318V303.455H45.6179V305.344H38.7926V309.776H44.9716V311.658H38.7926V318H36.598ZM48.0096 318V307.091H50.0621V308.824H50.1758C50.3746 308.237 50.725 307.775 51.2269 307.439C51.7335 307.098 52.3065 306.928 52.9457 306.928C53.0782 306.928 53.2345 306.932 53.4144 306.942C53.5991 306.951 53.7435 306.963 53.8477 306.977V309.009C53.7624 308.985 53.6109 308.959 53.3931 308.93C53.1753 308.897 52.9575 308.881 52.7397 308.881C52.2378 308.881 51.7904 308.987 51.3974 309.2C51.0091 309.409 50.7013 309.7 50.4741 310.074C50.2468 310.443 50.1332 310.865 50.1332 311.338V318H48.0096ZM55.6854 318V307.091H57.8089V318H55.6854ZM56.7578 305.408C56.3885 305.408 56.0713 305.285 55.8061 305.038C55.5457 304.787 55.4155 304.489 55.4155 304.143C55.4155 303.793 55.5457 303.495 55.8061 303.249C56.0713 302.998 56.3885 302.872 56.7578 302.872C57.1271 302.872 57.442 302.998 57.7024 303.249C57.9676 303.495 58.1001 303.793 58.1001 304.143C58.1001 304.489 57.9676 304.787 57.7024 305.038C57.442 305.285 57.1271 305.408 56.7578 305.408Z" fill="black"/>
<path d="M88.9996 155.417C89.2242 155.417 89.4409 155.5 89.6086 155.649C89.7764 155.798 89.8836 156.004 89.9099 156.227L89.9163 156.334V157.251C89.916 157.484 89.8266 157.709 89.6662 157.879C89.5058 158.049 89.2866 158.151 89.0534 158.165C88.8201 158.178 88.5905 158.103 88.4113 157.953C88.2321 157.803 88.117 157.59 88.0894 157.358L88.083 157.251V156.334C88.083 156.091 88.1795 155.858 88.3515 155.686C88.5234 155.514 88.7565 155.417 88.9996 155.417ZM94.7866 153.501L94.8727 153.578L95.5144 154.219C95.6788 154.384 95.7742 154.606 95.7813 154.838C95.7885 155.071 95.7067 155.298 95.5527 155.473C95.3986 155.647 95.1839 155.757 94.952 155.779C94.7202 155.801 94.4886 155.734 94.3044 155.591L94.2182 155.515L93.5766 154.874C93.4184 154.716 93.3233 154.506 93.3093 154.282C93.2953 154.059 93.3633 153.839 93.5004 153.662C93.6376 153.486 93.8345 153.366 94.0541 153.324C94.2738 153.283 94.501 153.323 94.6931 153.437L94.7866 153.501ZM84.4227 153.578C84.5805 153.735 84.6754 153.945 84.6894 154.168C84.7034 154.391 84.6356 154.611 84.4988 154.788L84.4227 154.874L83.7811 155.515C83.6161 155.68 83.3947 155.775 83.162 155.782C82.9292 155.789 82.7024 155.708 82.5277 155.554C82.353 155.4 82.2435 155.185 82.2214 154.953C82.1994 154.721 82.2663 154.49 82.4088 154.305L82.4849 154.219L83.1266 153.578C83.2985 153.406 83.5316 153.309 83.7746 153.309C84.0177 153.309 84.2508 153.406 84.4227 153.578ZM81.6663 148.084C81.8999 148.084 82.1247 148.174 82.2946 148.334C82.4644 148.494 82.5667 148.714 82.5804 148.947C82.5941 149.18 82.5182 149.41 82.3682 149.589C82.2183 149.768 82.0056 149.883 81.7736 149.911L81.6663 149.917H80.7496C80.516 149.917 80.2913 149.828 80.1214 149.667C79.9515 149.507 79.8493 149.288 79.8356 149.054C79.8219 148.821 79.8978 148.591 80.0477 148.412C80.1977 148.233 80.4104 148.118 80.6424 148.09L80.7496 148.084H81.6663ZM97.2496 148.084C97.4833 148.084 97.708 148.174 97.8779 148.334C98.0478 148.494 98.15 148.714 98.1637 148.947C98.1774 149.18 98.1015 149.41 97.9516 149.589C97.8016 149.768 97.5889 149.883 97.3569 149.911L97.2496 149.917H96.333C96.0993 149.917 95.8746 149.828 95.7047 149.667C95.5348 149.507 95.4326 149.288 95.4189 149.054C95.4052 148.821 95.4811 148.591 95.631 148.412C95.781 148.233 95.9937 148.118 96.2257 148.09L96.333 148.084H97.2496ZM83.6949 142.41L83.7811 142.486L84.4227 143.128C84.5871 143.293 84.6826 143.514 84.6897 143.747C84.6968 143.979 84.615 144.206 84.461 144.381C84.307 144.556 84.0922 144.665 83.8604 144.687C83.6285 144.709 83.397 144.642 83.2127 144.5L83.1266 144.424L82.4849 143.782C82.3273 143.624 82.2327 143.414 82.2189 143.191C82.2051 142.969 82.273 142.749 82.4099 142.572C82.5467 142.396 82.7432 142.276 82.9623 142.234C83.1815 142.192 83.4084 142.232 83.6005 142.346L83.6949 142.41ZM95.5144 142.486C95.6722 142.644 95.767 142.854 95.781 143.077C95.795 143.299 95.7273 143.52 95.5905 143.696L95.5144 143.782L94.8727 144.424C94.7078 144.588 94.4864 144.684 94.2536 144.691C94.0208 144.698 93.7941 144.616 93.6194 144.462C93.4447 144.308 93.3352 144.093 93.3131 143.861C93.291 143.63 93.358 143.398 93.5005 143.214L93.5766 143.128L94.2182 142.486C94.3901 142.314 94.6232 142.218 94.8663 142.218C95.1094 142.218 95.3425 142.314 95.5144 142.486ZM88.9996 139.834C89.2242 139.834 89.4409 139.916 89.6086 140.066C89.7764 140.215 89.8836 140.42 89.9099 140.643L89.9163 140.751V141.667C89.916 141.901 89.8266 142.126 89.6662 142.296C89.5058 142.465 89.2866 142.568 89.0534 142.581C88.8201 142.595 88.5905 142.519 88.4113 142.369C88.2321 142.219 88.117 142.007 88.0894 141.775L88.083 141.667V140.751C88.083 140.508 88.1795 140.274 88.3515 140.102C88.5234 139.931 88.7565 139.834 88.9996 139.834ZM88.9996 144.417C89.8977 144.417 90.7759 144.681 91.5254 145.176C92.2748 145.671 92.8623 146.375 93.215 147.201C93.5677 148.027 93.67 148.938 93.5092 149.821C93.3484 150.705 92.9315 151.522 92.3105 152.17C91.6894 152.819 90.8915 153.271 90.0158 153.47C89.1401 153.669 88.2252 153.606 87.3848 153.29C86.5443 152.974 85.8154 152.417 85.2885 151.69C84.7615 150.963 84.4599 150.097 84.4209 149.2L84.4163 149.001L84.4209 148.802C84.4721 147.622 84.9769 146.507 85.83 145.69C86.6831 144.873 87.8185 144.417 88.9996 144.417Z" fill="#FBAF0B"/>
<path d="M88.9996 196.417C89.2242 196.417 89.4409 196.5 89.6086 196.649C89.7764 196.798 89.8836 197.004 89.9099 197.227L89.9163 197.334V198.251C89.916 198.484 89.8266 198.709 89.6662 198.879C89.5058 199.049 89.2866 199.151 89.0534 199.165C88.8201 199.178 88.5905 199.103 88.4113 198.953C88.2321 198.803 88.117 198.59 88.0894 198.358L88.083 198.251V197.334C88.083 197.091 88.1795 196.858 88.3515 196.686C88.5234 196.514 88.7565 196.417 88.9996 196.417ZM94.7866 194.501L94.8727 194.578L95.5144 195.219C95.6788 195.384 95.7742 195.606 95.7813 195.838C95.7885 196.071 95.7067 196.298 95.5527 196.473C95.3986 196.647 95.1839 196.757 94.952 196.779C94.7202 196.801 94.4886 196.734 94.3044 196.591L94.2182 196.515L93.5766 195.874C93.4184 195.716 93.3233 195.506 93.3093 195.282C93.2953 195.059 93.3633 194.839 93.5004 194.662C93.6376 194.486 93.8345 194.366 94.0541 194.324C94.2738 194.283 94.501 194.323 94.6931 194.437L94.7866 194.501ZM84.4227 194.578C84.5805 194.735 84.6754 194.945 84.6894 195.168C84.7034 195.391 84.6356 195.611 84.4988 195.788L84.4227 195.874L83.7811 196.515C83.6161 196.68 83.3947 196.775 83.162 196.782C82.9292 196.789 82.7024 196.708 82.5277 196.554C82.353 196.4 82.2435 196.185 82.2214 195.953C82.1994 195.721 82.2663 195.49 82.4088 195.305L82.4849 195.219L83.1266 194.578C83.2985 194.406 83.5316 194.309 83.7746 194.309C84.0177 194.309 84.2508 194.406 84.4227 194.578ZM81.6663 189.084C81.8999 189.084 82.1247 189.174 82.2946 189.334C82.4644 189.494 82.5667 189.714 82.5804 189.947C82.5941 190.18 82.5182 190.41 82.3682 190.589C82.2183 190.768 82.0056 190.883 81.7736 190.911L81.6663 190.917H80.7496C80.516 190.917 80.2913 190.828 80.1214 190.667C79.9515 190.507 79.8493 190.288 79.8356 190.054C79.8219 189.821 79.8978 189.591 80.0477 189.412C80.1977 189.233 80.4104 189.118 80.6424 189.09L80.7496 189.084H81.6663ZM97.2496 189.084C97.4833 189.084 97.708 189.174 97.8779 189.334C98.0478 189.494 98.15 189.714 98.1637 189.947C98.1774 190.18 98.1015 190.41 97.9516 190.589C97.8016 190.768 97.5889 190.883 97.3569 190.911L97.2496 190.917H96.333C96.0993 190.917 95.8746 190.828 95.7047 190.667C95.5348 190.507 95.4326 190.288 95.4189 190.054C95.4052 189.821 95.4811 189.591 95.631 189.412C95.781 189.233 95.9937 189.118 96.2257 189.09L96.333 189.084H97.2496ZM83.6949 183.41L83.7811 183.486L84.4227 184.128C84.5871 184.293 84.6826 184.514 84.6897 184.747C84.6968 184.979 84.615 185.206 84.461 185.381C84.307 185.556 84.0922 185.665 83.8604 185.687C83.6285 185.709 83.397 185.642 83.2127 185.5L83.1266 185.424L82.4849 184.782C82.3273 184.624 82.2327 184.414 82.2189 184.191C82.2051 183.969 82.273 183.749 82.4099 183.572C82.5467 183.396 82.7432 183.276 82.9623 183.234C83.1815 183.192 83.4084 183.232 83.6005 183.346L83.6949 183.41ZM95.5144 183.486C95.6722 183.644 95.767 183.854 95.781 184.077C95.795 184.299 95.7273 184.52 95.5905 184.696L95.5144 184.782L94.8727 185.424C94.7078 185.588 94.4864 185.684 94.2536 185.691C94.0208 185.698 93.7941 185.616 93.6194 185.462C93.4447 185.308 93.3352 185.093 93.3131 184.861C93.291 184.63 93.358 184.398 93.5005 184.214L93.5766 184.128L94.2182 183.486C94.3901 183.314 94.6232 183.218 94.8663 183.218C95.1094 183.218 95.3425 183.314 95.5144 183.486ZM88.9996 180.834C89.2242 180.834 89.4409 180.916 89.6086 181.066C89.7764 181.215 89.8836 181.42 89.9099 181.643L89.9163 181.751V182.667C89.916 182.901 89.8266 183.126 89.6662 183.296C89.5058 183.465 89.2866 183.568 89.0534 183.581C88.8201 183.595 88.5905 183.519 88.4113 183.369C88.2321 183.219 88.117 183.007 88.0894 182.775L88.083 182.667V181.751C88.083 181.508 88.1795 181.274 88.3515 181.102C88.5234 180.931 88.7565 180.834 88.9996 180.834ZM88.9996 185.417C89.8977 185.417 90.7759 185.681 91.5254 186.176C92.2748 186.671 92.8623 187.375 93.215 188.201C93.5677 189.027 93.67 189.938 93.5092 190.821C93.3484 191.705 92.9315 192.522 92.3105 193.17C91.6894 193.819 90.8915 194.271 90.0158 194.47C89.1401 194.669 88.2252 194.606 87.3848 194.29C86.5443 193.974 85.8154 193.417 85.2885 192.69C84.7615 191.963 84.4599 191.097 84.4209 190.2L84.4163 190.001L84.4209 189.802C84.4721 188.622 84.9769 187.507 85.83 186.69C86.6831 185.873 87.8185 185.417 88.9996 185.417Z" fill="#FBAF0B"/>
<path d="M86.9996 236.417C87.2242 236.417 87.4409 236.5 87.6086 236.649C87.7764 236.798 87.8836 237.004 87.9099 237.227L87.9163 237.334V238.251C87.916 238.484 87.8266 238.709 87.6662 238.879C87.5058 239.049 87.2866 239.151 87.0534 239.165C86.8201 239.178 86.5905 239.103 86.4113 238.953C86.2321 238.803 86.117 238.59 86.0894 238.358L86.083 238.251V237.334C86.083 237.091 86.1795 236.858 86.3515 236.686C86.5234 236.514 86.7565 236.417 86.9996 236.417ZM92.7866 234.501L92.8727 234.578L93.5144 235.219C93.6788 235.384 93.7742 235.606 93.7813 235.838C93.7885 236.071 93.7067 236.298 93.5527 236.473C93.3986 236.647 93.1839 236.757 92.952 236.779C92.7202 236.801 92.4886 236.734 92.3044 236.591L92.2182 236.515L91.5766 235.874C91.4184 235.716 91.3233 235.506 91.3093 235.282C91.2953 235.059 91.3633 234.839 91.5004 234.662C91.6376 234.486 91.8345 234.366 92.0541 234.324C92.2738 234.283 92.501 234.323 92.6931 234.437L92.7866 234.501ZM82.4227 234.578C82.5805 234.735 82.6754 234.945 82.6894 235.168C82.7034 235.391 82.6356 235.611 82.4988 235.788L82.4227 235.874L81.7811 236.515C81.6161 236.68 81.3947 236.775 81.162 236.782C80.9292 236.789 80.7024 236.708 80.5277 236.554C80.353 236.4 80.2435 236.185 80.2214 235.953C80.1994 235.721 80.2663 235.49 80.4088 235.305L80.4849 235.219L81.1266 234.578C81.2985 234.406 81.5316 234.309 81.7746 234.309C82.0177 234.309 82.2508 234.406 82.4227 234.578ZM79.6663 229.084C79.8999 229.084 80.1247 229.174 80.2946 229.334C80.4644 229.494 80.5667 229.714 80.5804 229.947C80.5941 230.18 80.5182 230.41 80.3682 230.589C80.2183 230.768 80.0056 230.883 79.7736 230.911L79.6663 230.917H78.7496C78.516 230.917 78.2913 230.828 78.1214 230.667C77.9515 230.507 77.8493 230.288 77.8356 230.054C77.8219 229.821 77.8978 229.591 78.0477 229.412C78.1977 229.233 78.4104 229.118 78.6424 229.09L78.7496 229.084H79.6663ZM95.2496 229.084C95.4833 229.084 95.708 229.174 95.8779 229.334C96.0478 229.494 96.15 229.714 96.1637 229.947C96.1774 230.18 96.1015 230.41 95.9516 230.589C95.8016 230.768 95.5889 230.883 95.3569 230.911L95.2496 230.917H94.333C94.0993 230.917 93.8746 230.828 93.7047 230.667C93.5348 230.507 93.4326 230.288 93.4189 230.054C93.4052 229.821 93.4811 229.591 93.631 229.412C93.781 229.233 93.9937 229.118 94.2257 229.09L94.333 229.084H95.2496ZM81.6949 223.41L81.7811 223.486L82.4227 224.128C82.5871 224.293 82.6826 224.514 82.6897 224.747C82.6968 224.979 82.615 225.206 82.461 225.381C82.307 225.556 82.0922 225.665 81.8604 225.687C81.6285 225.709 81.397 225.642 81.2127 225.5L81.1266 225.424L80.4849 224.782C80.3273 224.624 80.2327 224.414 80.2189 224.191C80.2051 223.969 80.273 223.749 80.4099 223.572C80.5467 223.396 80.7432 223.276 80.9623 223.234C81.1815 223.192 81.4084 223.232 81.6005 223.346L81.6949 223.41ZM93.5144 223.486C93.6722 223.644 93.767 223.854 93.781 224.077C93.795 224.299 93.7273 224.52 93.5905 224.696L93.5144 224.782L92.8727 225.424C92.7078 225.588 92.4864 225.684 92.2536 225.691C92.0208 225.698 91.7941 225.616 91.6194 225.462C91.4447 225.308 91.3352 225.093 91.3131 224.861C91.291 224.63 91.358 224.398 91.5005 224.214L91.5766 224.128L92.2182 223.486C92.3901 223.314 92.6232 223.218 92.8663 223.218C93.1094 223.218 93.3425 223.314 93.5144 223.486ZM86.9996 220.834C87.2242 220.834 87.4409 220.916 87.6086 221.066C87.7764 221.215 87.8836 221.42 87.9099 221.643L87.9163 221.751V222.667C87.916 222.901 87.8266 223.126 87.6662 223.296C87.5058 223.465 87.2866 223.568 87.0534 223.581C86.8201 223.595 86.5905 223.519 86.4113 223.369C86.2321 223.219 86.117 223.007 86.0894 222.775L86.083 222.667V221.751C86.083 221.508 86.1795 221.274 86.3515 221.102C86.5234 220.931 86.7565 220.834 86.9996 220.834ZM86.9996 225.417C87.8977 225.417 88.7759 225.681 89.5254 226.176C90.2748 226.671 90.8623 227.375 91.215 228.201C91.5677 229.027 91.67 229.938 91.5092 230.821C91.3484 231.705 90.9315 232.522 90.3105 233.17C89.6894 233.819 88.8915 234.271 88.0158 234.47C87.1401 234.669 86.2252 234.606 85.3848 234.29C84.5443 233.974 83.8154 233.417 83.2885 232.69C82.7615 231.963 82.4599 231.097 82.4209 230.2L82.4163 230.001L82.4209 229.802C82.4721 228.622 82.9769 227.507 83.83 226.69C84.6831 225.873 85.8185 225.417 86.9996 225.417Z" fill="#FBAF0B"/>
<path d="M93.7576 270.733C93.5496 270.564 93.2865 270.479 93.0191 270.492C92.7517 270.506 92.4989 270.619 92.3096 270.808C92.1202 270.997 92.0076 271.25 91.9935 271.517C91.9794 271.785 92.0648 272.048 92.2333 272.256L92.307 272.338L93.0718 273.103L93.1552 273.178C93.3634 273.345 93.626 273.43 93.8928 273.416C94.1595 273.401 94.4115 273.289 94.6004 273.1C94.7893 272.911 94.9017 272.659 94.9161 272.392C94.9305 272.126 94.8459 271.863 94.6784 271.655L94.6036 271.571L93.8388 270.807L93.7576 270.733ZM89.1783 266.666C89.7893 266.666 90.3331 267.183 90.3331 267.88C90.3331 268.36 90.0699 268.764 89.7037 268.964C89.4569 269.104 89.2747 269.334 89.1963 269.607C89.1179 269.88 89.1495 270.172 89.2844 270.422C89.4194 270.671 89.6468 270.858 89.9178 270.942C90.1888 271.025 90.4819 270.999 90.734 270.869C91.2705 270.576 91.7178 270.144 92.0287 269.618C92.3395 269.091 92.5023 268.491 92.4998 267.879C92.4998 266.039 91.0384 264.499 89.1783 264.498C87.7375 264.498 86.5339 265.426 86.067 266.691C85.9706 266.96 85.9843 267.256 86.105 267.514C86.2256 267.773 86.4436 267.974 86.7114 268.073C86.9792 268.172 87.2752 268.161 87.5351 268.043C87.795 267.925 87.9978 267.709 88.0993 267.442C88.1779 267.217 88.3236 267.023 88.5166 266.884C88.7096 266.745 88.9406 266.669 89.1783 266.666ZM96.8331 267.749C96.8331 267.462 96.719 267.186 96.5158 266.983C96.3127 266.78 96.0371 266.666 95.7498 266.666H94.6026C94.3152 266.666 94.0397 266.78 93.8365 266.983C93.6334 267.186 93.5192 267.462 93.5192 267.749C93.5192 268.037 93.6334 268.312 93.8365 268.515C94.0397 268.719 94.3152 268.833 94.6026 268.833H95.7498C96.0371 268.833 96.3127 268.719 96.5158 268.515C96.719 268.312 96.8331 268.037 96.8331 267.749ZM85.3455 262.322C85.1375 262.153 84.8744 262.068 84.607 262.081C84.3396 262.095 84.0869 262.208 83.8975 262.397C83.7081 262.586 83.5955 262.839 83.5814 263.106C83.5673 263.374 83.6528 263.637 83.8212 263.845L83.896 263.927L84.6608 264.692L84.7431 264.766C84.9513 264.933 85.2139 265.018 85.4807 265.004C85.7474 264.989 85.9994 264.877 86.1883 264.688C86.3772 264.499 86.4897 264.247 86.5041 263.98C86.5184 263.713 86.4338 263.451 86.2663 263.243L86.1926 263.16L85.4278 262.396L85.3455 262.322ZM94.6036 262.396C94.4005 262.192 94.125 262.078 93.8377 262.078C93.5505 262.078 93.275 262.192 93.0718 262.396L92.307 263.16C92.1096 263.365 92.0004 263.638 92.0029 263.922C92.0054 264.206 92.1193 264.478 92.3202 264.679C92.521 264.88 92.7927 264.994 93.0768 264.996C93.3608 264.999 93.6345 264.89 93.8388 264.692L94.6036 263.927C94.8067 263.724 94.9208 263.449 94.9208 263.161C94.9208 262.874 94.8067 262.599 94.6036 262.396ZM88.1665 261.249V262.397C88.1665 262.684 88.2806 262.959 88.4838 263.163C88.6869 263.366 88.9625 263.48 89.2498 263.48C89.5371 263.48 89.8127 263.366 90.0158 263.163C90.219 262.959 90.3331 262.684 90.3331 262.397V261.249C90.3331 260.962 90.219 260.686 90.0158 260.483C89.8127 260.28 89.5371 260.166 89.2498 260.166C88.9625 260.166 88.6869 260.28 88.4838 260.483C88.2806 260.686 88.1665 260.962 88.1665 261.249ZM79.1217 269.796C80.7944 268.913 82.8376 268.538 84.6922 269.094C86.4147 269.611 87.8382 270.892 88.5976 272.992C90.2974 273.219 91.8888 274.136 92.7988 275.4C93.3372 276.15 93.6709 277.073 93.5626 278.068C93.4596 279.013 92.9754 279.886 92.1531 280.629L91.9831 280.775C90.9376 281.651 89.5185 281.833 88.4861 281.833H81.2082C80.4086 281.834 79.618 281.663 78.8902 281.332C78.1625 281 77.5146 280.516 76.9908 279.912C75.2358 277.981 74.8274 275.873 75.4221 273.975C75.9963 272.147 77.4512 270.678 79.1217 269.796Z" fill="black"/>
<path fill-rule="evenodd" clip-rule="evenodd" d="M84.0298 310.969C84.1703 311.11 84.2492 311.301 84.2492 311.499C84.2492 311.698 84.1703 311.889 84.0298 312.029L82.0298 314.029C81.9612 314.103 81.8784 314.162 81.7864 314.203C81.6944 314.244 81.5951 314.266 81.4944 314.268C81.3937 314.27 81.2936 314.251 81.2002 314.213C81.1069 314.176 81.022 314.12 80.9508 314.048C80.8796 313.977 80.8234 313.892 80.7857 313.799C80.748 313.706 80.7295 313.606 80.7313 313.505C80.733 313.404 80.7551 313.305 80.7961 313.213C80.8371 313.121 80.8962 313.038 80.9698 312.969L82.9698 310.969C83.1105 310.829 83.3011 310.75 83.4998 310.75C83.6986 310.75 83.8892 310.829 84.0298 310.969ZM88.5298 310.969C88.6703 311.11 88.7492 311.301 88.7492 311.499C88.7492 311.698 88.6703 311.889 88.5298 312.029L86.5298 314.029C86.4612 314.103 86.3784 314.162 86.2864 314.203C86.1944 314.244 86.0951 314.266 85.9944 314.268C85.8937 314.27 85.7936 314.251 85.7002 314.213C85.6069 314.176 85.522 314.12 85.4508 314.048C85.3796 313.977 85.3234 313.892 85.2857 313.799C85.248 313.706 85.2295 313.606 85.2313 313.505C85.233 313.404 85.2551 313.305 85.2961 313.213C85.3371 313.121 85.3962 313.038 85.4698 312.969L87.4698 310.969C87.6105 310.829 87.8011 310.75 87.9998 310.75C88.1986 310.75 88.3892 310.829 88.5298 310.969ZM80.0298 314.469C80.1703 314.61 80.2492 314.801 80.2492 314.999C80.2492 315.198 80.1703 315.389 80.0298 315.529L78.0298 317.529C77.8877 317.662 77.6996 317.734 77.5053 317.731C77.311 317.727 77.1256 317.648 76.9882 317.511C76.8508 317.374 76.7721 317.188 76.7687 316.994C76.7652 316.8 76.8374 316.612 76.9698 316.469L78.9698 314.469C79.1105 314.329 79.3011 314.25 79.4998 314.25C79.6986 314.25 79.8892 314.329 80.0298 314.469ZM89.5298 314.469C89.6703 314.61 89.7492 314.801 89.7492 314.999C89.7492 315.198 89.6703 315.389 89.5298 315.529L87.5298 317.529C87.4612 317.603 87.3784 317.662 87.2864 317.703C87.1944 317.744 87.0951 317.766 86.9944 317.768C86.8937 317.77 86.7936 317.751 86.7002 317.713C86.6069 317.676 86.522 317.62 86.4508 317.548C86.3796 317.477 86.3234 317.392 86.2857 317.299C86.248 317.206 86.2295 317.106 86.2313 317.005C86.233 316.904 86.2551 316.805 86.2961 316.713C86.3371 316.621 86.3962 316.538 86.4698 316.469L88.4698 314.469C88.6105 314.329 88.8011 314.25 88.9998 314.25C89.1986 314.25 89.3892 314.329 89.5298 314.469ZM84.5298 315.469C84.6703 315.61 84.7492 315.801 84.7492 315.999C84.7492 316.198 84.6703 316.389 84.5298 316.529L82.5298 318.529C82.4612 318.603 82.3784 318.662 82.2864 318.703C82.1944 318.744 82.0951 318.766 81.9944 318.768C81.8937 318.77 81.7936 318.751 81.7002 318.713C81.6069 318.676 81.522 318.62 81.4508 318.548C81.3796 318.477 81.3234 318.392 81.2857 318.299C81.248 318.206 81.2295 318.106 81.2313 318.005C81.233 317.904 81.2551 317.805 81.2961 317.713C81.3371 317.621 81.3962 317.538 81.4698 317.469L83.4698 315.469C83.6105 315.329 83.8011 315.25 83.9998 315.25C84.1986 315.25 84.3892 315.329 84.5298 315.469Z" fill="black"/>
<path d="M91.124 314.255C91.0146 313.941 90.8366 313.655 90.6029 313.418C90.3692 313.181 90.0857 313 89.773 312.886C90.1271 312.435 90.2954 311.865 90.2435 311.294C90.1916 310.722 89.9234 310.192 89.4938 309.812C89.0642 309.432 88.5056 309.23 87.9322 309.248C87.3588 309.266 86.814 309.503 86.409 309.909L85.607 310.71C85.4748 310.357 85.2563 310.044 84.9714 309.797C84.6866 309.551 84.3445 309.381 83.9765 309.301C83.6085 309.221 83.2264 309.235 82.8652 309.341C82.504 309.448 82.1752 309.643 81.909 309.909L79.909 311.909C79.6705 312.147 79.4886 312.435 79.377 312.753C78.843 312.783 78.317 313.001 77.909 313.409L76.641 314.677C75.091 314.04 74 312.528 74 310.765C74 308.425 75.919 306.529 78.286 306.529C78.5707 306.53 78.8473 306.556 79.116 306.609C78.8816 305.981 78.7617 305.317 78.762 304.647C78.762 301.528 81.32 299 84.476 299C87.416 299 89.837 301.194 90.156 304.015C92.392 304.78 94 306.881 94 309.353C94 311.451 92.842 313.282 91.124 314.255Z" fill="black"/>
<path d="M84.03 310.969C84.1705 311.11 84.2494 311.3 84.2494 311.499C84.2494 311.698 84.1705 311.889 84.03 312.029L82.03 314.029C81.9607 314.099 81.8781 314.155 81.7871 314.193C81.6962 314.231 81.5986 314.25 81.5 314.25C81.4015 314.25 81.3039 314.231 81.2129 314.193C81.1219 314.155 81.0394 314.099 80.97 314.029C80.9 313.96 80.8444 313.877 80.8065 313.786C80.7686 313.695 80.749 313.598 80.749 313.499C80.749 313.401 80.7686 313.303 80.8065 313.212C80.8444 313.121 80.9 313.039 80.97 312.969L82.97 310.969C83.1107 310.829 83.3013 310.75 83.5 310.75C83.6988 310.75 83.8894 310.829 84.03 310.969ZM87.47 310.969L85.47 312.969C85.3963 313.038 85.3372 313.121 85.2963 313.213C85.2553 313.305 85.2332 313.404 85.2314 313.505C85.2297 313.605 85.2482 313.705 85.2859 313.799C85.3236 313.892 85.3798 313.977 85.451 314.048C85.5222 314.119 85.607 314.176 85.7004 314.213C85.7938 314.251 85.8939 314.27 85.9946 314.268C86.0953 314.266 86.1946 314.244 86.2866 314.203C86.3786 314.162 86.4614 314.103 86.53 314.029L88.53 312.029C88.6037 311.961 88.6628 311.878 88.7038 311.786C88.7448 311.694 88.7668 311.594 88.7686 311.494C88.7704 311.393 88.7519 311.293 88.7142 311.2C88.6764 311.106 88.6203 311.021 88.5491 310.95C88.4779 310.879 88.393 310.823 88.2996 310.785C88.2062 310.747 88.1062 310.729 88.0055 310.731C87.9048 310.732 87.8055 310.754 87.7135 310.795C87.6215 310.836 87.5387 310.895 87.47 310.969Z" fill="black"/>
<defs>
<linearGradient id="paint0_linear_5523_4486" x1="188" y1="0" x2="188" y2="356" gradientUnits="userSpaceOnUse">
<stop stop-color="white"/>
<stop offset="1" stop-color="#FFF6B5"/>
</linearGradient>
</defs>
</svg>
